<svg width="262" height="247" viewBox="0 0 262 247" fill="none" xmlns="http://www.w3.org/2000/svg">
<rect width="262" height="247" fill="#F6BC54"/>
<rect width="262" height="247" fill="url(#paint0_linear_98_41)" fill-opacity="0.2"/>
<path fill-rule="evenodd" clip-rule="evenodd" d="M171.575 135.66L171.572 135.658C170.217 135.05 169.04 134.17 168.048 133.026L168.043 133.021C167.059 131.873 166.31 130.495 165.785 128.908C165.256 127.308 165 125.524 165 123.569V121.997C165 120.045 165.25 118.268 165.767 116.68L165.768 116.676C166.293 115.089 167.041 113.712 168.025 112.564C169.007 111.406 170.18 110.517 171.538 109.908L171.541 109.906C172.911 109.298 174.401 109 175.998 109C177.634 109 179.143 109.296 180.507 109.907C181.876 110.516 183.051 111.406 184.024 112.567C185.009 113.717 185.745 115.096 186.247 116.685C186.763 118.272 187.012 120.047 187.012 121.997V123.569C187.012 125.52 186.769 127.299 186.265 128.895C185.764 130.484 185.033 131.865 184.058 133.017C183.085 134.167 181.91 135.051 180.541 135.659C179.178 136.271 177.669 136.566 176.032 136.566C174.435 136.566 172.945 136.269 171.575 135.66ZM180.133 134.746C181.364 134.199 182.418 133.407 183.295 132.371C184.172 131.334 184.844 130.075 185.312 128.594C185.779 127.113 186.012 125.438 186.012 123.569V121.997C186.012 120.129 185.773 118.459 185.294 116.99C184.827 115.509 184.149 114.25 183.261 113.213C182.383 112.165 181.33 111.367 180.099 110.82C178.88 110.273 177.513 110 175.998 110C174.528 110 173.178 110.273 171.947 110.82C170.728 111.367 169.674 112.165 168.786 113.213C167.897 114.25 167.208 115.509 166.718 116.99C166.239 118.459 166 120.129 166 121.997V123.569C166 125.438 166.245 127.113 166.735 128.594C167.225 130.075 167.914 131.334 168.803 132.371C169.703 133.407 170.762 134.199 171.981 134.746C173.212 135.293 174.562 135.566 176.032 135.566C177.547 135.566 178.914 135.293 180.133 134.746ZM181.321 118.293L181.319 118.284C181.048 117.244 180.659 116.412 180.171 115.761C179.683 115.111 179.097 114.631 178.407 114.305L178.402 114.303C177.724 113.978 176.93 113.803 175.998 113.803C175.106 113.803 174.328 113.975 173.647 114.301C172.978 114.627 172.393 115.108 171.89 115.765C171.399 116.421 170.998 117.258 170.706 118.302C170.416 119.335 170.264 120.551 170.264 121.963V123.569C170.264 124.992 170.416 126.221 170.706 127.266C170.997 128.305 171.402 129.147 171.904 129.814C172.419 130.474 173.011 130.956 173.681 131.282C174.362 131.608 175.14 131.781 176.032 131.781C176.977 131.781 177.777 131.605 178.453 131.281C179.131 130.956 179.705 130.478 180.182 129.83L180.184 129.828C180.675 129.164 181.065 128.324 181.335 127.285C181.606 126.233 181.748 124.998 181.748 123.569V121.963C181.748 120.548 181.601 119.329 181.321 118.293ZM182.304 127.534C182.007 128.674 181.569 129.636 180.988 130.422C180.418 131.197 179.717 131.784 178.886 132.183C178.054 132.581 177.103 132.781 176.032 132.781C175.006 132.781 174.078 132.581 173.246 132.183C172.426 131.784 171.714 131.197 171.11 130.422C170.517 129.636 170.062 128.674 169.743 127.534C169.424 126.383 169.264 125.062 169.264 123.569V121.963C169.264 120.482 169.424 119.172 169.743 118.032C170.062 116.893 170.512 115.936 171.093 115.161C171.685 114.386 172.392 113.8 173.212 113.401C174.044 113.002 174.972 112.803 175.998 112.803C177.057 112.803 178.003 113.002 178.834 113.401C179.678 113.8 180.39 114.386 180.971 115.161C181.552 115.936 181.99 116.893 182.287 118.032C182.594 119.172 182.748 120.482 182.748 121.963V123.569C182.748 125.062 182.6 126.383 182.304 127.534Z" fill="white"/>
<path fill-rule="evenodd" clip-rule="evenodd" d="M79.1865 122.559H85.0654C86.3529 122.559 87.3953 122.354 88.1929 121.943C88.9904 121.533 89.5715 120.964 89.936 120.234C90.312 119.505 90.5 118.674 90.5 117.739C90.5 116.885 90.312 116.082 89.936 115.33C89.5715 114.578 88.9904 113.974 88.1929 113.518C87.3953 113.051 86.3529 112.817 85.0654 112.817H79.1865V122.559ZM80.1865 113.817V121.559H85.0654C86.2584 121.559 87.1275 121.367 87.7355 121.054C88.364 120.731 88.7816 120.307 89.0416 119.787L89.0472 119.776C89.3405 119.207 89.5 118.536 89.5 117.739C89.5 117.037 89.347 116.388 89.0416 115.777L89.0362 115.766C88.7682 115.213 88.3374 114.752 87.6967 114.386L87.6874 114.381C87.0919 114.032 86.2417 113.817 85.0654 113.817H80.1865ZM79.1865 125.242H85.0654C86.9453 125.242 88.5347 124.951 89.8335 124.37C91.1323 123.778 92.1178 122.917 92.79 121.79C93.4622 120.662 93.7983 119.3 93.7983 117.705C93.7983 116.235 93.4622 114.931 92.79 113.792C92.1178 112.641 91.1323 111.741 89.8335 111.091C88.5347 110.442 86.9453 110.117 85.0654 110.117H75.8882V135H79.1865V125.242ZM80.1865 126.242V136H74.8882V109.117H85.0654C87.0564 109.117 88.8083 109.461 90.2807 110.197C91.7363 110.925 92.8735 111.953 93.6524 113.285C94.4245 114.595 94.7983 116.078 94.7983 117.705C94.7983 119.442 94.4315 120.989 93.6491 122.301C92.8636 123.619 91.7154 124.611 90.2485 125.28L90.2419 125.283C88.7804 125.937 87.043 126.242 85.0654 126.242H80.1865ZM113.811 123.499H101.267V135H97.9683V110.117H101.267V120.815H113.811V110.117H117.092V135H113.811V123.499ZM112.811 119.815V109.117H118.092V136H112.811V124.499H102.267V136H96.9683V109.117H102.267V119.815H112.811ZM127.674 135.435L127.671 135.434C126.316 134.826 125.139 133.945 124.147 132.802L124.143 132.797C123.158 131.648 122.41 130.27 121.885 128.683C121.355 127.083 121.099 125.299 121.099 123.345V121.772C121.099 119.82 121.349 118.044 121.866 116.456L121.867 116.451C122.392 114.865 123.14 113.488 124.124 112.339C125.106 111.182 126.279 110.293 127.637 109.683L127.64 109.682C129.01 109.073 130.5 108.775 132.097 108.775C133.734 108.775 135.242 109.071 136.606 109.683C137.976 110.292 139.15 111.181 140.123 112.342C141.108 113.492 141.844 114.872 142.346 116.46C142.862 118.047 143.111 119.822 143.111 121.772V123.345C143.111 125.295 142.868 127.074 142.364 128.67C141.863 130.26 141.132 131.64 140.157 132.792C139.184 133.942 138.009 134.826 136.64 135.435C135.277 136.046 133.768 136.342 132.131 136.342C130.534 136.342 129.044 136.044 127.674 135.435ZM136.232 134.521C137.463 133.975 138.517 133.183 139.394 132.146C140.271 131.109 140.944 129.85 141.411 128.369C141.878 126.888 142.111 125.213 142.111 123.345V121.772C142.111 119.904 141.872 118.235 141.394 116.765C140.926 115.284 140.249 114.025 139.36 112.988C138.483 111.94 137.429 111.143 136.198 110.596C134.979 110.049 133.612 109.775 132.097 109.775C130.627 109.775 129.277 110.049 128.046 110.596C126.827 111.143 125.773 111.94 124.885 112.988C123.996 114.025 123.307 115.284 122.817 116.765C122.338 118.235 122.099 119.904 122.099 121.772V123.345C122.099 125.213 122.344 126.888 122.834 128.369C123.324 129.85 124.013 131.109 124.902 132.146C125.802 133.183 126.861 133.975 128.081 134.521C129.311 135.068 130.661 135.342 132.131 135.342C133.646 135.342 135.013 135.068 136.232 134.521ZM137.42 118.068L137.418 118.059C137.148 117.019 136.758 116.187 136.27 115.537C135.782 114.887 135.196 114.407 134.506 114.08L134.501 114.078C133.823 113.753 133.029 113.578 132.097 113.578C131.205 113.578 130.427 113.75 129.746 114.077C129.077 114.402 128.492 114.883 127.989 115.54C127.498 116.196 127.097 117.034 126.805 118.077C126.516 119.11 126.363 120.326 126.363 121.738V123.345C126.363 124.768 126.516 125.996 126.805 127.041C127.096 128.08 127.501 128.922 128.003 129.589C128.518 130.249 129.11 130.732 129.78 131.057C130.462 131.384 131.239 131.556 132.131 131.556C133.076 131.556 133.876 131.381 134.553 131.056C135.23 130.732 135.805 130.254 136.281 129.605L136.283 129.603C136.774 128.939 137.164 128.1 137.434 127.06C137.705 126.009 137.847 124.774 137.847 123.345V121.738C137.847 120.324 137.7 119.104 137.42 118.068ZM138.403 127.31C138.107 128.449 137.668 129.412 137.087 130.198C136.517 130.972 135.817 131.559 134.985 131.958C134.153 132.357 133.202 132.556 132.131 132.556C131.105 132.556 130.177 132.357 129.345 131.958C128.525 131.559 127.813 130.972 127.209 130.198C126.617 129.412 126.161 128.449 125.842 127.31C125.523 126.159 125.363 124.837 125.363 123.345V121.738C125.363 120.257 125.523 118.947 125.842 117.808C126.161 116.668 126.611 115.711 127.192 114.937C127.784 114.162 128.491 113.575 129.311 113.176C130.143 112.778 131.071 112.578 132.097 112.578C133.156 112.578 134.102 112.778 134.934 113.176C135.777 113.575 136.489 114.162 137.07 114.937C137.651 115.711 138.09 116.668 138.386 117.808C138.693 118.947 138.847 120.257 138.847 121.738V123.345C138.847 124.837 138.699 126.159 138.403 127.31ZM144.538 110.117V112.817H152.519V135H155.766V112.817H163.764V110.117H144.538ZM156.766 113.817V136H151.519V113.817H143.538V109.117H164.764V113.817H156.766Z" fill="white"/>
<defs>
<linearGradient id="paint0_linear_98_41" x1="131" y1="0" x2="131" y2="247" gradientUnits="userSpaceOnUse">
<stop offset="0.734375" stop-opacity="0"/>
<stop offset="0.864583"/>
</linearGradient>
</defs>
</svg>
