<svg width="17" height="15" viewBox="0 0 17 15" fill="none" xmlns="http://www.w3.org/2000/svg">
<path fill-rule="evenodd" clip-rule="evenodd" d="M0.870366 6.12535C0.927959 6.06458 0.996851 6.02206 1.07226 5.9856C1.14826 5.95521 1.22899 5.93701 1.31093 5.93701C1.39287 5.93701 1.47424 5.95521 1.54964 5.9856C1.62505 6.02206 1.6939 6.06458 1.7515 6.12535L8.78033 13.3503L15.8092 6.12535C15.9261 6.00381 16.0841 5.93701 16.2497 5.93701C16.4148 5.93701 16.5733 6.00381 16.6903 6.12535C16.8073 6.24688 16.8732 6.41094 16.8732 6.58108C16.8732 6.75123 16.8073 6.90921 16.6903 7.03074L9.2209 14.7054C9.16331 14.7662 9.09442 14.8148 9.01901 14.8451C8.94301 14.8816 8.86227 14.8938 8.78033 14.8938C8.6984 14.8938 8.61766 14.8816 8.54166 14.8451C8.46625 14.8148 8.39736 14.7662 8.33977 14.7054L0.870366 7.03074C0.812178 6.96998 0.766479 6.90315 0.73501 6.82416C0.703541 6.74517 0.6875 6.66008 0.6875 6.58108C0.6875 6.49601 0.703541 6.41092 0.73501 6.33193C0.766479 6.25901 0.812178 6.18611 0.870366 6.12535Z" fill="#F6BC54"/>
<path fill-rule="evenodd" clip-rule="evenodd" d="M0.870366 1.00897C0.927959 0.9482 0.996851 0.899525 1.07226 0.869142C1.14826 0.83876 1.22899 0.820557 1.31093 0.820557C1.39287 0.820557 1.47424 0.83876 1.54964 0.869142C1.62505 0.899525 1.6939 0.9482 1.7515 1.00897L8.78033 8.23393L15.8092 1.00897C15.8668 0.9482 15.9356 0.899525 16.011 0.869142C16.087 0.83876 16.1678 0.820557 16.2497 0.820557C16.3317 0.820557 16.4124 0.83876 16.4884 0.869142C16.5638 0.899525 16.6327 0.9482 16.6903 1.00897C16.7485 1.06973 16.7942 1.13655 16.8257 1.21555C16.8565 1.29454 16.8732 1.37963 16.8732 1.45863C16.8732 1.5437 16.8565 1.62872 16.8257 1.70771C16.7942 1.78671 16.7485 1.8536 16.6903 1.91437L9.2209 9.58907C9.16331 9.64984 9.09442 9.69844 9.01901 9.72882C8.94301 9.7592 8.86227 9.7774 8.78033 9.7774C8.6984 9.7774 8.61766 9.7592 8.54166 9.72882C8.46625 9.69844 8.39736 9.64984 8.33977 9.58907L0.870366 1.91437C0.812178 1.8536 0.766479 1.78671 0.73501 1.70771C0.703541 1.62872 0.6875 1.5437 0.6875 1.45863C0.6875 1.37963 0.703541 1.29454 0.73501 1.21555C0.766479 1.13655 0.812178 1.06973 0.870366 1.00897Z" fill="#F6BC54"/>
</svg>
