<svg width="44" height="45" viewBox="0 0 44 45" fill="none" xmlns="http://www.w3.org/2000/svg">
<path d="M1.46925 0C1.0764 0 0.707166 0.158454 0.432172 0.439334C0.157178 0.721014 0 1.10271 0 1.50043C0 1.89814 0.157178 2.27986 0.432172 2.56074C0.707166 2.84242 1.0764 3.00006 1.46925 3.00006H4.72205L5.90059 7.82143L10.2926 31.7762C10.3555 32.1195 10.5362 32.43 10.7955 32.6533C11.0626 32.8774 11.3927 32.9998 11.7305 32.9998H14.669C13.1133 32.9998 11.6205 33.632 10.5205 34.7571C9.42052 35.8822 8.79977 37.4082 8.79977 38.9999C8.79977 40.5907 9.42052 42.1176 10.5205 43.2427C11.6205 44.3678 13.1133 45 14.669 45C16.2247 45 17.7174 44.3678 18.8174 43.2427C19.9174 42.1176 20.5303 40.5907 20.5303 38.9999C20.5303 37.4082 19.9174 35.8822 18.8174 34.7571C17.7174 33.632 16.2247 32.9998 14.669 32.9998H35.1993C33.6436 32.9998 32.1508 33.632 31.0508 34.7571C29.9508 35.8822 29.33 37.4082 29.33 38.9999C29.33 40.5907 29.9508 42.1176 31.0508 43.2427C32.1508 44.3678 33.6436 45 35.1993 45C36.755 45 38.2477 44.3678 39.3477 43.2427C40.4477 42.1176 41.0684 40.5907 41.0684 38.9999C41.0684 37.4082 40.4477 35.8822 39.3477 34.7571C38.2477 33.632 36.755 32.9998 35.1993 32.9998H38.1299C38.4756 32.9998 38.8056 32.8774 39.0727 32.6533C39.332 32.43 39.5127 32.1195 39.5756 31.7762L43.9755 7.77661C44.0147 7.55975 44.0069 7.33729 43.9519 7.12363C43.8969 6.91077 43.8026 6.71232 43.6612 6.54267C43.5276 6.37302 43.3548 6.23698 43.1584 6.14255C42.962 6.04893 42.7498 6.00011 42.5377 6.00011H8.47771L7.29129 1.13713C7.21272 0.813035 7.02413 0.524157 6.77271 0.318499C6.51343 0.11204 6.19127 0.000800228 5.86914 0H1.46925ZM17.5996 38.9999C17.5996 39.7953 17.2932 40.5587 16.7433 41.1213C16.1933 41.6839 15.4468 41.9999 14.669 41.9999C13.8912 41.9999 13.1447 41.6839 12.5948 41.1213C12.0448 40.5587 11.7305 39.7953 11.7305 38.9999C11.7305 38.2045 12.0448 37.4411 12.5948 36.8785C13.1447 36.3159 13.8912 35.9998 14.669 35.9998C15.4468 35.9998 16.1933 36.3159 16.7433 36.8785C17.2932 37.4411 17.5996 38.2045 17.5996 38.9999ZM38.1299 38.9999C38.1299 39.7953 37.8234 40.5587 37.2734 41.1213C36.7234 41.6839 35.9771 41.9999 35.1993 41.9999C34.4214 41.9999 33.675 41.6839 33.125 41.1213C32.575 40.5587 32.2685 39.7953 32.2685 38.9999C32.2685 38.2045 32.575 37.4411 33.125 36.8785C33.675 36.3159 34.4214 35.9998 35.1993 35.9998C35.9771 35.9998 36.7234 36.3159 37.2734 36.8785C37.8234 37.4411 38.1299 38.2045 38.1299 38.9999ZM26.3994 13.4998V18.0003H30.7993C31.1921 18.0003 31.5615 18.158 31.8365 18.4396C32.1115 18.7205 32.2685 19.1022 32.2685 19.5C32.2685 19.8977 32.1115 20.2794 31.8365 20.561C31.5615 20.8419 31.1921 21.0004 30.7993 21.0004H26.3994V25.5001C26.3994 25.8978 26.2423 26.2795 25.9673 26.5604C25.6923 26.842 25.323 26.9997 24.9302 26.9997C24.5452 26.9997 24.1681 26.842 23.8931 26.5604C23.6181 26.2795 23.4688 25.8978 23.4688 25.5001V21.0004H19.0689C18.676 21.0004 18.3067 20.8419 18.0317 20.561C17.7567 20.2794 17.5996 19.8977 17.5996 19.5C17.5996 19.1022 17.7567 18.7205 18.0317 18.4396C18.3067 18.158 18.676 18.0003 19.0689 18.0003H23.4688V13.4998C23.4688 13.1021 23.6181 12.7204 23.8931 12.4395C24.1681 12.1579 24.5452 12.0002 24.9302 12.0002C25.323 12.0002 25.6923 12.1579 25.9673 12.4395C26.2423 12.7204 26.3994 13.1021 26.3994 13.4998Z" fill="#F6BC54"/>
</svg>
