<svg width="799" height="631" viewBox="0 0 799 631" fill="none" xmlns="http://www.w3.org/2000/svg">
<g opacity="0.3">
<path d="M431.596 555.543C428.241 551.155 424.596 546.963 421.597 542.356C391.446 496.257 418.551 434.016 472.962 425.062C495.537 421.376 518.289 418.406 541.048 416.002C579.861 411.911 617.071 441.287 622.831 480.263C626.019 501.755 628.964 523.32 631.321 544.927C634.587 574.597 623.864 598.744 599.491 615.791C574.856 633.033 548.297 635.557 520.777 622.257C519.732 621.871 518.646 621.586 517.535 621.408L431.596 555.543Z" fill="#E6E6E6"/>
<path d="M439.285 269.365C443.4 266.457 447.342 263.321 451.599 260.685C463.474 253.543 477.332 250.397 491.131 251.711C504.924 253.024 517.939 258.728 528.252 267.985C550.269 288.123 556.509 320.117 543.411 345.851C526.726 378.608 488.038 392.03 455.488 375.385C426.139 360.428 408.095 324.212 426.484 288.075C426.911 287.017 427.244 285.921 427.475 284.802L439.285 269.365Z" fill="#E6E6E6"/>
<path d="M693.184 558.5C663.61 535.837 658.586 496.566 681.381 466.788C702.886 438.727 744.122 433.365 772.474 454.976C800.825 476.586 806.644 518.47 784.919 546.548C761.97 576.093 722.753 581.205 693.184 558.5Z" fill="#E6E6E6"/>
<path d="M715.07 380.835C694.746 408.634 653.255 414.916 625.247 394.435C595.548 372.725 588.791 332.192 609.958 302.802C614.964 295.747 621.329 289.77 628.691 285.224C636.048 280.679 644.241 277.658 652.791 276.341C661.341 275.025 670.064 275.439 678.447 277.56C686.831 279.68 694.704 283.463 701.598 288.685C731.701 310.843 737.442 350.152 715.07 380.835Z" fill="#E6E6E6"/>
</g>
<path d="M40.8313 65.2388H17.96C16.7375 65.237 15.5654 64.7484 14.7015 63.8797C13.8376 63.011 13.3525 61.8337 13.3525 60.6058V39.1417C13.3525 37.9144 13.8376 36.737 14.7015 35.8684C15.5654 34.9997 16.7375 34.5111 17.96 34.5093H40.8313C42.0532 34.5122 43.2247 35.0015 44.088 35.8702C44.9513 36.7382 45.437 37.915 45.4388 39.1417V60.6058C45.437 61.8331 44.9513 63.0099 44.088 63.8779C43.2247 64.7466 42.0532 65.2358 40.8313 65.2388Z" fill="#E6E6E6"/>
<path d="M95.973 65.4233H73.1017C71.8797 65.4203 70.7088 64.9311 69.8449 64.0624C68.9816 63.1943 68.4959 62.0181 68.4941 60.7908V39.3268C68.4941 38.0995 68.9798 36.9227 69.8437 36.0552C70.7077 35.1872 71.8797 34.6997 73.1017 34.6997H95.973C96.5786 34.6991 97.1777 34.8185 97.737 35.0506C98.2963 35.2828 98.8045 35.6236 99.2326 36.0534C99.6607 36.4833 100 36.9933 100.231 37.555C100.463 38.1167 100.582 38.7188 100.58 39.3268V60.7908C100.58 62.0181 100.095 63.1955 99.2314 64.0642C98.3675 64.9328 97.1955 65.4215 95.973 65.4233Z" fill="#E6E6E6"/>
<path d="M151.114 65.5844H128.249C127.025 65.5827 125.853 65.094 124.988 64.2259C124.123 63.3573 123.637 62.1799 123.635 60.952V39.4879C123.637 38.26 124.124 37.0832 124.989 36.2158C125.854 35.3483 127.026 34.8608 128.249 34.8608H151.114C152.336 34.8608 153.509 35.3483 154.374 36.2158C155.239 37.0832 155.726 38.26 155.727 39.4879V60.952C155.726 62.1799 155.239 63.3573 154.375 64.2259C153.51 65.094 152.337 65.5827 151.114 65.5844Z" fill="#E6E6E6"/>
<path d="M40.8313 113.39H17.96C16.7375 113.388 15.5654 112.9 14.7015 112.031C13.8376 111.162 13.3525 109.985 13.3525 108.757V87.2931C13.3525 86.0658 13.8376 84.8884 14.7015 84.0197C15.5654 83.1511 16.7375 82.6618 17.96 82.6606H40.8313C42.0532 82.6636 43.2247 83.1529 44.088 84.0215C44.9513 84.8896 45.437 86.0658 45.4388 87.2931V108.757C45.437 109.984 44.9513 111.161 44.088 112.029C43.2247 112.897 42.0532 113.387 40.8313 113.39Z" fill="#E6E6E6"/>
<path d="M95.9729 113.575H73.1017C71.8797 113.571 70.7088 113.082 69.8449 112.214C68.9816 111.345 68.4959 110.169 68.4941 108.942V87.4777C68.4959 86.2504 68.9816 85.0741 69.8449 84.2061C70.7088 83.3374 71.8797 82.8482 73.1017 82.8452H95.9729C97.1955 82.8464 98.3675 83.3357 99.2314 84.2043C100.095 85.073 100.58 86.2504 100.58 87.4777V108.942C100.58 110.17 100.095 111.347 99.2314 112.216C98.3675 113.084 97.1955 113.573 95.9729 113.575Z" fill="#E6E6E6"/>
<path d="M151.114 113.76H128.249C127.64 113.762 127.037 113.643 126.473 113.41C125.91 113.178 125.398 112.835 124.967 112.403C124.536 111.971 124.194 111.458 123.962 110.892C123.729 110.327 123.611 109.721 123.612 109.109V87.6446C123.614 86.4168 124.1 85.2394 124.965 84.3707C125.83 83.5027 127.002 83.014 128.225 83.0122H151.091C152.314 83.014 153.486 83.5027 154.352 84.3707C155.216 85.2394 155.703 86.4168 155.704 87.6446V109.109C155.708 110.336 155.226 111.515 154.366 112.386C153.506 113.258 152.337 113.752 151.114 113.76Z" fill="#E6E6E6"/>
<path d="M40.8313 161.535H17.96C17.355 161.536 16.7553 161.416 16.196 161.184C15.6367 160.952 15.1285 160.611 14.7004 160.181C14.2723 159.752 13.9332 159.241 13.7017 158.68C13.4707 158.118 13.3519 157.516 13.3525 156.908V135.444C13.3525 134.217 13.8376 133.039 14.7015 132.171C15.5654 131.302 16.7375 130.813 17.96 130.812H40.8313C42.0532 130.814 43.2247 131.304 44.088 132.172C44.9513 133.04 45.437 134.217 45.4388 135.444V156.908C45.4388 158.135 44.9537 159.312 44.0892 160.18C43.2253 161.048 42.0532 161.535 40.8313 161.535Z" fill="#E6E6E6"/>
<path d="M95.973 161.72H73.1017C71.8797 161.72 70.7077 161.232 69.8437 160.365C68.9798 159.497 68.4941 158.321 68.4941 157.093V135.629C68.4959 134.402 68.9816 133.226 69.8449 132.357C70.7088 131.489 71.8797 131 73.1017 130.996H95.973C97.1955 130.998 98.3675 131.487 99.2314 132.355C100.095 133.224 100.58 134.401 100.58 135.629V157.093C100.582 157.701 100.463 158.303 100.231 158.864C100 159.426 99.6607 159.937 99.2326 160.367C98.8045 160.796 98.2963 161.137 97.737 161.369C97.1777 161.602 96.5786 161.721 95.973 161.72Z" fill="#E6E6E6"/>
<path d="M151.114 161.91H128.249C127.025 161.909 125.853 161.42 124.988 160.552C124.123 159.683 123.637 158.506 123.635 157.278V135.814C123.637 134.585 124.123 133.408 124.988 132.54C125.853 131.671 127.025 131.182 128.249 131.181H151.114C152.337 131.182 153.51 131.671 154.375 132.54C155.239 133.408 155.726 134.585 155.727 135.814V157.278C155.726 158.506 155.239 159.683 154.375 160.552C153.51 161.42 152.337 161.909 151.114 161.91Z" fill="#E6E6E6"/>
<path d="M207.099 198.012L189.399 212.56C188.453 213.336 187.239 213.703 186.024 213.581C184.809 213.459 183.691 212.858 182.916 211.91L169.36 195.287C168.587 194.336 168.222 193.116 168.343 191.895C168.464 190.673 169.063 189.55 170.008 188.77L187.707 174.223C188.654 173.447 189.869 173.079 191.086 173.201C192.302 173.323 193.421 173.924 194.197 174.873L207.746 191.495C208.519 192.446 208.885 193.666 208.763 194.888C208.642 196.109 208.044 197.233 207.099 198.012Z" fill="#F6BC54"/>
<path d="M162.574 227.227L162.235 219.476C158.656 217.545 154.661 216.522 150.598 216.495C156.185 221.086 155.484 229.928 159.279 236.099C160.474 238.015 162.083 239.636 163.988 240.841C165.893 242.047 168.043 242.806 170.28 243.063L174.959 245.937C175.6 242.344 175.458 238.654 174.543 235.122C173.628 231.589 171.961 228.298 169.657 225.474C168.35 223.9 166.849 222.497 165.192 221.3C164.076 224.293 162.574 227.227 162.574 227.227Z" fill="#F2F2F2"/>
<path d="M192.154 174.431C192.844 173.86 193.281 173.037 193.37 172.144C193.459 171.251 193.193 170.358 192.629 169.661C192.501 169.506 192.36 169.363 192.208 169.232L199.861 149.145L193.746 150.445L187.256 169.763C186.751 170.432 186.51 171.265 186.577 172.102C186.644 172.939 187.017 173.722 187.623 174.301C188.229 174.88 189.026 175.214 189.862 175.24C190.697 175.267 191.514 174.983 192.154 174.443V174.431Z" fill="#FFB8B8"/>
<path d="M189.002 152.436L195.871 123.741L198.84 115.393C199.322 114.032 200.323 112.919 201.622 112.298C202.921 111.678 204.413 111.601 205.769 112.084H205.805C206.687 112.408 207.471 112.956 208.08 113.675C208.689 114.394 209.102 115.259 209.278 116.186L210.02 120.085L196.269 168.38L196.239 168.493L187.286 167.897L189.002 152.436Z" fill="#2F2E41"/>
<path d="M216.878 104.53L201.583 135.588L191.893 168.607C212.277 172.601 237.849 181.127 239.69 168.893C238.556 134.753 234.982 123.866 227.601 109.067L216.878 104.53Z" fill="#2F2E41"/>
<path d="M203.198 241.346H198.395L196.115 222.75H203.198V241.346Z" fill="#FFB6B6"/>
<path d="M204.421 246.019H188.924V245.823C188.926 244.219 189.562 242.68 190.691 241.546C191.821 240.411 193.353 239.773 194.951 239.771L197.783 237.619L203.056 239.771H204.409L204.421 246.019Z" fill="#2F2E41"/>
<path d="M246.584 235.079L242.285 237.231L231.977 221.61L238.319 218.432L246.584 235.079Z" fill="#FFB6B6"/>
<path d="M249.754 238.711L235.896 245.645L235.807 245.466C235.095 244.029 234.979 242.367 235.488 240.845C235.995 239.323 237.084 238.067 238.515 237.351L240.088 234.155L245.77 233.72L246.958 233.124L249.754 238.711Z" fill="#2F2E41"/>
<path d="M201.066 156.884L227.547 157.815L229.524 161.511C229.524 161.511 231.597 176.613 230.534 177.681C229.471 178.748 228.943 178.742 229.471 180.608C230 182.474 231.377 200.283 231.377 200.283C231.377 200.283 242.314 223.065 242.848 224.395C243.383 225.724 243.905 225.194 243.377 225.73C242.906 226.24 242.462 226.773 242.047 227.329H233.396C233.396 227.329 228.735 215.529 224.49 210.962C220.723 206.93 218.339 201.795 217.685 196.307L214.123 179.254L206.404 205.381C206.404 205.381 205.074 231.234 205.341 232.569L205.608 233.905L195.408 234.018C195.408 234.018 194.345 231.77 194.873 230.971C195.402 230.172 195.372 230.375 194.725 229.081C194.078 227.787 194.345 225.551 194.345 225.551C194.345 225.551 198.175 173.126 198.175 172.321C198.191 171.911 198.114 171.503 197.949 171.128V170.043L198.97 166.197L201.066 156.884Z" fill="#2F2E41"/>
<path d="M218.671 109.139L216.89 104.81L211.315 104.906L205.495 113.169L199.369 138.92C199.369 138.92 197.178 157.755 199.369 158.745C201.559 159.734 228.111 159.21 228.111 159.21C226.882 149.045 225.962 138.7 225 132.517C221.806 112.09 220.304 116.413 218.671 109.139Z" fill="#F6BC54"/>
<path d="M211.291 104.935C211.291 104.935 199.274 111.911 198.822 115.548C198.371 119.185 196.78 163.747 196.78 163.747L201.031 160.992L202.189 144.751C201.381 130.323 203.376 119.567 207.372 111.506L211.291 104.935Z" fill="#2F2E41"/>
<path d="M214.129 102.879C218.651 102.879 222.317 99.1973 222.317 94.6568C222.317 90.1158 218.651 86.4346 214.129 86.4346C209.607 86.4346 205.941 90.1158 205.941 94.6568C205.941 99.1973 209.607 102.879 214.129 102.879Z" fill="#FFB8B8"/>
<path d="M224.217 94.1678C223.849 95.8332 223.19 97.4203 222.269 98.8542C222.021 99.3352 221.655 99.7454 221.207 100.046C220.976 100.19 220.704 100.249 220.435 100.216C220.166 100.182 219.917 100.057 219.728 99.8618L219.532 99.7009C219.921 99.4551 220.268 99.1517 220.565 98.8008C220.71 98.622 220.81 98.4119 220.857 98.1868C220.905 97.9618 220.898 97.7284 220.838 97.507C220.771 97.2855 220.621 97.0997 220.419 96.9886C220.217 96.877 219.98 96.8491 219.758 96.9103C219.277 97.1014 218.986 97.7991 218.481 97.6917C218.078 97.602 217.994 97.0658 217.994 96.6425C217.994 94.4361 216.943 91.2762 216.124 91.3955C215.293 91.4401 214.461 91.3267 213.672 91.0618C212.88 90.7982 212.046 90.6931 211.214 90.7513H211.03C210.899 90.3327 210.715 89.9319 210.483 89.5591C210.513 90.0115 210.491 90.4651 210.418 90.9122C209.758 91.1889 209.075 91.4062 208.376 91.5624C207.616 91.6699 205.947 93.9474 205.87 93.7206C205.734 93.3038 205.551 92.9036 205.324 92.5284C205.347 92.9802 205.325 93.4339 205.258 93.8816C205.258 93.8816 205.258 93.9178 205.258 93.9356C204.89 93.4404 204.665 92.8443 204.789 93.3033C203.554 90.4954 204.035 88.4796 205.977 86.1189C206.353 85.6011 206.856 85.1903 207.438 84.9266C207.724 84.7996 208.039 84.7491 208.351 84.7794C208.662 84.8097 208.962 84.9195 209.219 85.0994C210.011 84.3709 210.984 83.868 212.035 83.6423C213.086 83.4173 214.178 83.4773 215.198 83.8175C217.223 84.527 218.76 84.9444 219.093 87.079C219.938 86.984 220.793 87.1318 221.559 87.5053C222.324 87.8788 222.968 88.463 223.415 89.1897C224.305 90.686 224.591 92.4667 224.217 94.1678Z" fill="#2F2E41"/>
<path d="M247.159 172.398C247.493 171.562 247.482 170.627 247.129 169.798C246.776 168.969 246.11 168.316 245.277 167.98C245.084 167.906 244.885 167.848 244.683 167.807L241.714 146.51L236.964 150.612L240.562 170.681C240.454 171.507 240.65 172.343 241.112 173.034C241.574 173.725 242.272 174.222 243.074 174.433C243.876 174.644 244.727 174.554 245.467 174.179C246.207 173.804 246.785 173.171 247.093 172.398H247.159Z" fill="#FFB8B8"/>
<path d="M238.443 164.558L220.898 117.456L221.325 113.509C221.452 112.322 221.964 111.21 222.782 110.344C223.601 109.479 224.68 108.907 225.853 108.717C227.027 108.527 228.23 108.73 229.277 109.294C230.325 109.859 231.159 110.753 231.651 111.839V111.875L235.255 119.972L244.363 148.03L247.332 163.294L238.443 164.558Z" fill="#2F2E41"/>
<path d="M286.371 246.324C286.371 246.482 286.308 246.634 286.197 246.745C286.086 246.858 285.934 246.92 285.777 246.92H131.598C131.51 246.944 131.417 246.947 131.328 246.93C131.239 246.912 131.154 246.874 131.081 246.818C131.009 246.763 130.95 246.691 130.91 246.609C130.869 246.527 130.849 246.437 130.849 246.345C130.849 246.253 130.869 246.163 130.91 246.08C130.95 245.998 131.009 245.927 131.081 245.871C131.154 245.816 131.239 245.778 131.328 245.76C131.417 245.742 131.51 245.746 131.598 245.769H285.795C285.952 245.769 286.103 245.832 286.215 245.944C286.326 246.056 286.388 246.207 286.388 246.365L286.371 246.324Z" fill="#CCCCCC"/>
<path d="M168.434 11.7812H0.871926C0.705676 11.7658 0.551295 11.688 0.438482 11.5639C0.326264 11.4398 0.263916 11.2783 0.263916 11.1109C0.263916 10.9429 0.326264 10.7813 0.438482 10.6573C0.551295 10.5332 0.705676 10.456 0.871926 10.4399H168.434C168.6 10.456 168.755 10.5332 168.867 10.6573C168.98 10.7813 169.042 10.9429 169.042 11.1109C169.042 11.2783 168.98 11.4398 168.867 11.5639C168.755 11.688 168.6 11.7658 168.434 11.7812Z" fill="#CACACA"/>
<path d="M160.312 0H150.729C150.536 0 150.352 0.0765967 150.216 0.213155C150.08 0.349713 150.004 0.534363 150.004 0.727325C150.004 0.920288 150.08 1.10553 150.216 1.2415C150.352 1.37805 150.536 1.45465 150.729 1.45465H160.312C160.503 1.45465 160.687 1.37805 160.823 1.2415C160.959 1.10553 161.036 0.920288 161.036 0.727325C161.036 0.534363 160.959 0.349713 160.823 0.213155C160.687 0.0765967 160.503 0 160.312 0Z" fill="#3F3D56"/>
<path d="M160.312 2.73633H150.729C150.536 2.73633 150.352 2.81291 150.216 2.94947C150.08 3.08604 150.004 3.2713 150.004 3.46368C150.004 3.65665 150.08 3.84188 150.216 3.97845C150.352 4.11441 150.536 4.19101 150.729 4.19101H160.312C160.503 4.19101 160.687 4.11441 160.823 3.97845C160.959 3.84188 161.036 3.65665 161.036 3.46368C161.036 3.2713 160.959 3.08604 160.823 2.94947C160.687 2.81291 160.503 2.73633 160.312 2.73633Z" fill="#3F3D56"/>
<path d="M160.312 5.46729H150.729C150.536 5.46729 150.352 5.54387 150.216 5.68043C150.08 5.81699 150.004 6.00167 150.004 6.19463C150.004 6.3876 150.08 6.57285 150.216 6.70882C150.352 6.84539 150.536 6.92197 150.729 6.92197H160.312C160.503 6.92197 160.687 6.84539 160.823 6.70882C160.959 6.57285 161.036 6.3876 161.036 6.19463C161.036 6.00167 160.959 5.81699 160.823 5.68043C160.687 5.54387 160.503 5.46729 160.312 5.46729Z" fill="#3F3D56"/>
<text stroke="#F6BC54" xml:space="preserve" style="white-space: pre" font-family="Roboto" font-size="95" letter-spacing="0em"><tspan x="387" y="99.9707">&#x8cfc;&#x7269;&#10;</tspan><tspan x="387" y="210.971">&#x6e05;&#x55ae;</tspan></text>
</svg>
