<svg width="40" height="41" viewBox="0 0 40 41" fill="none" xmlns="http://www.w3.org/2000/svg">
<path d="M40 20.0218C40 31.0828 31.0456 40.05 20 40.05C8.95437 40.05 0 31.0828 0 20.0218C0 8.96709 8.95437 0 20 0C31.0456 0 40 8.96709 40 20.0218Z" fill="#6A5F4B"/>
<mask id="mask0_850_23" style="mask-type:alpha" maskUnits="userSpaceOnUse" x="0" y="0" width="40" height="41">
<path d="M40 20.0218C40 31.0828 31.0456 40.05 20 40.05C8.95437 40.05 0 31.0828 0 20.0218C0 8.96709 8.95437 0 20 0C31.0456 0 40 8.96709 40 20.0218Z" fill="#6A5F4B"/>
</mask>
<g mask="url(#mask0_850_23)">
<path d="M13.9221 22.1235C14.9747 21.6111 15.1294 21.5703 16.1294 21.0703C16.5838 21.5688 16.7181 22.3885 17.1794 22.8807C20.32 26.227 23.3037 29.6793 24.9025 34.0849C22.9156 37.7303 20.05 39.8054 15.6769 39.9051C12.2156 39.9861 9.34374 39.0826 7.02312 36.534C6.59999 36.0728 6.14312 35.6117 6 34.9574C6.975 33.8731 6.58625 32.471 6.805 31.2248C7.34749 28.1277 8.46812 25.4356 11.2431 23.6534C12.625 22.7686 12.4752 22.8775 13.9221 22.1235Z" fill="#F6BC54"/>
<path d="M24.9007 34.079C18.659 27.2513 17.6063 26.2258 15.8163 23.662C15.3513 23.1697 14.7982 22.3087 15.6294 21.5703C17.1294 20.0703 18.6457 18.1761 18.967 15.8829C19.4813 12.2 22.2001 10.0813 24.9338 8C25.2363 8.18695 25.0976 8.49223 25.0769 8.71657C24.9388 10.2433 25.0382 11.5707 26.9826 11.8822C27.5282 11.9695 27.8288 12.5241 28.1394 12.979C28.4726 13.4588 28.8344 13.9137 29.4013 14.1754C30.6788 14.7612 30.8982 15.5901 30.0932 16.7554C29.7775 17.204 29.36 17.5654 28.8744 17.8147C26.3176 19.1919 25.6707 20.4942 26.3619 23.3171C27.2963 27.1121 26.2076 30.6018 24.9007 34.079Z" fill="#F6BB54"/>
</g>
</svg>
