<svg width="17" height="17" viewBox="0 0 17 17" fill="none" xmlns="http://www.w3.org/2000/svg">
<path d="M8.25 15.8046C6.39338 15.8046 4.61308 15.0689 3.30046 13.757C1.98723 12.4451 1.25 10.6612 1.25 8.80371C1.25 6.94625 1.98723 5.16858 3.30046 3.85057C4.61308 2.5387 6.39338 1.80302 8.25 1.80302C10.1066 1.80302 11.8869 2.5387 13.1995 3.85057C14.5128 5.16858 15.25 6.94625 15.25 8.80371C15.25 10.6612 14.5128 12.4451 13.1995 13.757C11.8869 15.0689 10.1066 15.8046 8.25 15.8046ZM8.25 16.8037C10.3718 16.8037 12.4063 15.9638 13.9066 14.4619C15.4069 12.96 16.25 10.9248 16.25 8.80371C16.25 6.68265 15.4069 4.64742 13.9066 3.14551C12.4063 1.6436 10.3718 0.803711 8.25 0.803711C6.12815 0.803711 4.0937 1.6436 2.59339 3.14551C1.09309 4.64742 0.25 6.68265 0.25 8.80371C0.25 10.9248 1.09309 12.96 2.59339 14.4619C4.0937 15.9638 6.12815 16.8037 8.25 16.8037Z" fill="#F6BC54"/>
<path d="M11.2198 5.77551C11.2131 5.78164 11.2063 5.78778 11.2002 5.79391L7.72693 10.2198L5.634 8.12948C5.49185 7.99462 5.30355 7.92101 5.1097 7.92714C4.91524 7.92714 4.73001 8.0069 4.59216 8.14789C4.45493 8.28275 4.37617 8.46655 4.3731 8.66271C4.3694 8.85887 4.4414 9.04284 4.57432 9.18996L7.21985 11.8319C7.29123 11.9054 7.37616 11.9606 7.4697 11.9974C7.56323 12.0403 7.66292 12.0588 7.76385 12.0526C7.86415 12.0526 7.96385 12.028 8.05554 11.9913C8.14785 11.9484 8.23031 11.8872 8.29923 11.8136L12.2912 6.82371C12.4272 6.68272 12.5011 6.49277 12.498 6.29048C12.4943 6.09432 12.4137 5.91036 12.2728 5.76937C12.1325 5.63451 11.9429 5.55476 11.746 5.55476C11.5491 5.55476 11.3601 5.63452 11.2198 5.77551Z" fill="#F6BC54"/>
</svg>
