<svg width="40" height="41" viewBox="0 0 40 41" fill="none" xmlns="http://www.w3.org/2000/svg">
<path d="M40 20.024C40 31.0862 31.0456 40.0544 20 40.0544C8.95437 40.0544 0 31.0862 0 20.024C0 8.96808 8.95437 0 20 0C31.0456 0 40 8.96808 40 20.024Z" fill="#F6BC54"/>
<path fill-rule="evenodd" clip-rule="evenodd" d="M21.7292 39.9806C20.5913 39.8 19.6802 39.323 18.1907 38.1621C17.3144 37.479 16.0855 36.1108 15.4331 35.0999C16.1075 34.3499 16.1294 33.4477 16.1512 32.5503C16.161 32.1503 16.1707 31.7512 16.2381 31.3669C16.7806 28.2695 17.9012 25.5771 20.6762 23.7947C22.0581 22.9098 23.2488 22.2556 24.6957 21.5015C24.7009 21.5011 24.7063 21.5007 24.712 21.5003C24.7974 21.4938 24.9272 21.4841 25.0041 21.5016C25.0041 21.5016 25.8173 22.1746 26.6125 23.022C29.7122 26.3251 32.6591 29.7314 34.2725 34.0558C31.0216 37.3721 26.6274 39.5605 21.7292 39.9806Z" fill="#6A5F4B"/>
<path d="M24.9994 21.5014C23.5525 22.2555 23.4853 24.2366 22.1053 25.1278C19.3303 26.9102 17.9103 28.697 17.3684 31.7944C17.1497 33.0408 16.41 34.0157 15.435 35.1001C13.6669 32.7693 13.4681 30.0831 13.895 27.3534C14.0569 26.3251 14.0813 25.4215 13.7194 24.4617C13.1981 23.0595 12.6769 21.6572 12.2631 20.23C12.0356 19.4448 11.6563 19.0895 10.8419 19.1144C10.2994 19.1331 9.75439 19.0522 9.21001 19.0273C6.98377 18.9151 5.61877 17.463 5.62502 15.263C5.62502 14.7083 5.77501 14.4279 6.36189 14.3843C7.04001 14.3344 7.71003 14.1661 8.38753 14.1162C9.2044 14.0539 9.89002 13.8171 10.3125 13.063C10.5788 12.5894 11.0294 12.365 11.5425 12.3089C13.1769 12.1344 14.1231 11.2059 14.5819 9.67274C14.7194 9.21155 14.8719 8.5384 15.3731 8.50101C16.0325 8.44492 16.1494 9.19909 16.3144 9.67274C18.0075 14.4965 20.8613 18.4601 24.9994 21.5014Z" fill="#6A5F4B"/>
</svg>
