<svg width="99" height="32" viewBox="0 0 99 32" fill="none" xmlns="http://www.w3.org/2000/svg">
<path d="M0 16C0 7.16344 7.16344 0 16 0H83C91.8366 0 99 7.16344 99 16V16C99 24.8366 91.8366 32 83 32H16C7.16344 32 0 24.8366 0 16V16Z" fill="#F6BC54"/>
<path d="M26.2852 16.3115V21.3828C26.0859 21.623 25.7783 21.8838 25.3623 22.165C24.9463 22.4404 24.4102 22.6777 23.7539 22.877C23.0977 23.0762 22.3037 23.1758 21.3721 23.1758C20.5459 23.1758 19.793 23.041 19.1133 22.7715C18.4336 22.4961 17.8477 22.0947 17.3555 21.5674C16.8691 21.04 16.4941 20.3955 16.2305 19.6338C15.9668 18.8662 15.835 17.9902 15.835 17.0059V16.2061C15.835 15.2217 15.9609 14.3457 16.2129 13.5781C16.4707 12.8105 16.8369 12.1631 17.3115 11.6357C17.7861 11.1084 18.3516 10.707 19.0078 10.4316C19.6641 10.1562 20.3936 10.0186 21.1963 10.0186C22.3096 10.0186 23.2236 10.2002 23.9385 10.5635C24.6533 10.9209 25.1982 11.4189 25.5732 12.0576C25.9541 12.6904 26.1885 13.417 26.2764 14.2373H23.7188C23.6543 13.8037 23.5312 13.4258 23.3496 13.1035C23.168 12.7812 22.9072 12.5293 22.5674 12.3477C22.2334 12.166 21.7998 12.0752 21.2666 12.0752C20.8271 12.0752 20.4346 12.166 20.0889 12.3477C19.749 12.5234 19.4619 12.7842 19.2275 13.1299C18.9932 13.4756 18.8145 13.9033 18.6914 14.4131C18.5684 14.9229 18.5068 15.5146 18.5068 16.1885V17.0059C18.5068 17.6738 18.5713 18.2656 18.7002 18.7812C18.8291 19.291 19.0195 19.7217 19.2715 20.0732C19.5293 20.4189 19.8457 20.6797 20.2207 20.8555C20.5957 21.0312 21.0322 21.1191 21.5303 21.1191C21.9463 21.1191 22.292 21.084 22.5674 21.0137C22.8486 20.9434 23.0742 20.8584 23.2441 20.7588C23.4199 20.6533 23.5547 20.5537 23.6484 20.46V18.1924H21.2402V16.3115H26.2852ZM38.9238 16.3027V16.9092C38.9238 17.8818 38.792 18.7549 38.5283 19.5283C38.2646 20.3018 37.8926 20.9609 37.4121 21.5059C36.9316 22.0449 36.3574 22.458 35.6895 22.7451C35.0273 23.0322 34.292 23.1758 33.4834 23.1758C32.6807 23.1758 31.9453 23.0322 31.2773 22.7451C30.6152 22.458 30.041 22.0449 29.5547 21.5059C29.0684 20.9609 28.6904 20.3018 28.4209 19.5283C28.1572 18.7549 28.0254 17.8818 28.0254 16.9092V16.3027C28.0254 15.3242 28.1572 14.4512 28.4209 13.6836C28.6846 12.9102 29.0566 12.251 29.5371 11.7061C30.0234 11.1611 30.5977 10.7451 31.2598 10.458C31.9277 10.1709 32.6631 10.0273 33.4658 10.0273C34.2744 10.0273 35.0098 10.1709 35.6719 10.458C36.3398 10.7451 36.9141 11.1611 37.3945 11.7061C37.8809 12.251 38.2559 12.9102 38.5195 13.6836C38.7891 14.4512 38.9238 15.3242 38.9238 16.3027ZM36.2607 16.9092V16.2852C36.2607 15.6055 36.1992 15.0078 36.0762 14.4922C35.9531 13.9766 35.7715 13.543 35.5312 13.1914C35.291 12.8398 34.998 12.5762 34.6523 12.4004C34.3066 12.2188 33.9111 12.1279 33.4658 12.1279C33.0205 12.1279 32.625 12.2188 32.2793 12.4004C31.9395 12.5762 31.6494 12.8398 31.4092 13.1914C31.1748 13.543 30.9961 13.9766 30.873 14.4922C30.75 15.0078 30.6885 15.6055 30.6885 16.2852V16.9092C30.6885 17.583 30.75 18.1807 30.873 18.7021C30.9961 19.2178 31.1777 19.6543 31.418 20.0117C31.6582 20.3633 31.9512 20.6299 32.2969 20.8115C32.6426 20.9932 33.0381 21.084 33.4834 21.084C33.9287 21.084 34.3242 20.9932 34.6699 20.8115C35.0156 20.6299 35.3057 20.3633 35.54 20.0117C35.7744 19.6543 35.9531 19.2178 36.0762 18.7021C36.1992 18.1807 36.2607 17.583 36.2607 16.9092ZM54.9902 12.3916L51.5098 23H48.7061L53.4609 10.2031H55.2451L54.9902 12.3916ZM57.8818 23L54.3926 12.3916L54.1113 10.2031H55.9131L60.6943 23H57.8818ZM57.7236 18.2363V20.3018H50.9648V18.2363H57.7236ZM65.8096 23H63.0234L63.041 20.9434H65.8096C66.501 20.9434 67.084 20.7881 67.5586 20.4775C68.0332 20.1611 68.3906 19.7012 68.6309 19.0977C68.877 18.4941 69 17.7646 69 16.9092V16.2852C69 15.6289 68.9297 15.0518 68.7891 14.5537C68.6543 14.0557 68.4521 13.6367 68.1826 13.2969C67.9131 12.957 67.582 12.7021 67.1895 12.5322C66.7969 12.3564 66.3457 12.2686 65.8359 12.2686H62.9707V10.2031H65.8359C66.6914 10.2031 67.4736 10.3496 68.1826 10.6426C68.8975 10.9297 69.5156 11.3428 70.0371 11.8818C70.5586 12.4209 70.96 13.0654 71.2412 13.8154C71.5283 14.5596 71.6719 15.3887 71.6719 16.3027V16.9092C71.6719 17.8174 71.5283 18.6465 71.2412 19.3965C70.96 20.1465 70.5586 20.791 70.0371 21.3301C69.5215 21.8633 68.9033 22.2764 68.1826 22.5693C67.4678 22.8564 66.6768 23 65.8096 23ZM64.5176 10.2031V23H61.8809V10.2031H64.5176ZM77.5166 23H74.7305L74.748 20.9434H77.5166C78.208 20.9434 78.791 20.7881 79.2656 20.4775C79.7402 20.1611 80.0977 19.7012 80.3379 19.0977C80.584 18.4941 80.707 17.7646 80.707 16.9092V16.2852C80.707 15.6289 80.6367 15.0518 80.4961 14.5537C80.3613 14.0557 80.1592 13.6367 79.8896 13.2969C79.6201 12.957 79.2891 12.7021 78.8965 12.5322C78.5039 12.3564 78.0527 12.2686 77.543 12.2686H74.6777V10.2031H77.543C78.3984 10.2031 79.1807 10.3496 79.8896 10.6426C80.6045 10.9297 81.2227 11.3428 81.7441 11.8818C82.2656 12.4209 82.667 13.0654 82.9482 13.8154C83.2354 14.5596 83.3789 15.3887 83.3789 16.3027V16.9092C83.3789 17.8174 83.2354 18.6465 82.9482 19.3965C82.667 20.1465 82.2656 20.791 81.7441 21.3301C81.2285 21.8633 80.6104 22.2764 79.8896 22.5693C79.1748 22.8564 78.3838 23 77.5166 23ZM76.2246 10.2031V23H73.5879V10.2031H76.2246Z" fill="white"/>
</svg>
