<svg width="23" height="23" viewBox="0 0 23 23" fill="none" xmlns="http://www.w3.org/2000/svg">
<path fill-rule="evenodd" clip-rule="evenodd" d="M11.5 0.958496C5.67817 0.958496 0.958374 5.67829 0.958374 11.5002C0.958374 17.322 5.67817 22.0418 11.5 22.0418C17.3219 22.0418 22.0417 17.322 22.0417 11.5002C22.0417 5.67829 17.3219 0.958496 11.5 0.958496ZM7.66671 10.5418C7.41254 10.5418 7.16879 10.6428 6.98906 10.8225C6.80934 11.0022 6.70837 11.246 6.70837 11.5002C6.70837 11.7543 6.80934 11.9981 6.98906 12.1778C7.16879 12.3575 7.41254 12.4585 7.66671 12.4585H15.3334C15.5875 12.4585 15.8313 12.3575 16.011 12.1778C16.1907 11.9981 16.2917 11.7543 16.2917 11.5002C16.2917 11.246 16.1907 11.0022 16.011 10.8225C15.8313 10.6428 15.5875 10.5418 15.3334 10.5418H7.66671Z" fill="#F6BC54"/>
</svg>
