<svg width="58" height="89" viewBox="0 0 58 89" fill="none" xmlns="http://www.w3.org/2000/svg">
<path d="M54.8037 50.274L12.7261 87.0861C7.7677 91.4305 2.82236e-06 87.8997 2.82236e-06 81.3064V7.68217C-0.00126232 6.20658 0.422832 4.7619 1.2215 3.52114C2.02017 2.28038 3.15956 1.29613 4.50321 0.686264C5.84687 0.0763937 7.33785 -0.133245 8.79759 0.0824529C10.2573 0.298151 11.6239 0.930041 12.7338 1.90245L54.796 38.7146C55.6204 39.435 56.2812 40.3235 56.7339 41.3203C57.1867 42.3172 57.4209 43.3994 57.4209 44.4943C57.4209 45.5891 57.1867 46.6713 56.7339 47.6682C56.2812 48.6651 55.6204 49.5535 54.796 50.274H54.8037Z" fill="#6A5F4B"/>
</svg>
