<svg width="388" height="394" viewBox="0 0 388 394" fill="none" xmlns="http://www.w3.org/2000/svg">
<g opacity="0.3">
<path d="M18.5591 306.588C15.5607 301.841 12.2594 297.272 9.62908 292.33C-16.8047 242.873 15.1094 181.549 70.055 176.79C92.8491 174.845 115.762 173.644 138.639 173.022C177.654 171.969 212.436 204.932 215.12 245.16C216.61 267.346 217.851 289.585 218.504 311.815C219.425 342.347 206.843 366.126 181.205 381.558C155.288 397.166 128.611 397.605 102.224 381.825C101.209 381.343 100.152 380.965 99.0597 380.695L18.5591 306.588Z" fill="#E6E6E6"/>
<path d="M48.7097 15.2304C53.0441 12.5951 57.2182 9.71294 61.6713 7.36619C74.0748 1.03383 88.1347 -1.06135 101.785 1.38871C115.435 3.83816 127.958 10.7046 137.517 20.9776C157.883 43.2937 161.588 76.4382 146.506 101.64C127.304 133.718 87.6776 144.301 56.5354 124.701C28.451 107.081 13.3103 68.6815 34.4775 33.2911C34.9941 32.246 35.4097 31.1546 35.7244 30.0311L48.7097 15.2304Z" fill="#E6E6E6"/>
<path d="M279.108 330.638C251.41 305.138 249.486 264.667 274.548 236.121C298.192 209.221 339.718 207.067 366.283 231.395C392.853 255.723 395.359 298.925 371.496 325.823C346.303 354.121 306.801 356.179 279.108 330.638Z" fill="#E6E6E6"/>
<path d="M314.888 151.137C292.444 177.864 250.585 180.936 224.276 157.788C196.375 133.251 192.819 91.3523 216.23 63.0703C221.77 56.2749 228.592 50.6888 236.287 46.643C243.976 42.5973 252.384 40.1739 261.011 39.5183C269.632 38.862 278.301 39.9862 286.495 42.8239C294.682 45.6616 302.235 50.1552 308.701 56.0373C336.963 81.0647 339.6 121.63 314.888 151.137Z" fill="#E6E6E6"/>
</g>
</svg>
