<svg width="287" height="254" viewBox="0 0 287 254" fill="none" xmlns="http://www.w3.org/2000/svg">
<path d="M40.6125 67.2587H17.7413C16.5187 67.2568 15.3467 66.7567 14.4828 65.8677C13.6189 64.9788 13.1338 63.7738 13.1338 62.5171V40.5505C13.1338 39.2945 13.6189 38.0895 14.4828 37.2005C15.3467 36.3115 16.5187 35.8114 17.7413 35.8096H40.6125C41.8344 35.8126 43.0053 36.3133 43.8692 37.2023C44.7325 38.0907 45.2182 39.2951 45.22 40.5505V62.5171C45.2182 63.7732 44.7325 64.9775 43.8692 65.8659C43.0053 66.7549 41.8344 67.2556 40.6125 67.2587Z" fill="#E6E6E6"/>
<path d="M95.7541 67.4479H72.8828C71.6609 67.4449 70.49 66.9442 69.6261 66.0552C68.7628 65.1668 68.2771 63.963 68.2753 62.707V40.7403C68.2753 39.4843 68.761 38.2799 69.6249 37.3922C70.4888 36.5038 71.6609 36.0049 72.8828 36.0049H95.7541C96.3591 36.0043 96.9588 36.1264 97.5181 36.364C98.0774 36.6016 98.5857 36.9504 99.0137 37.3903C99.4418 37.8303 99.7809 38.3523 100.012 38.9271C100.243 39.5019 100.362 40.1181 100.362 40.7403V62.707C100.362 63.963 99.8765 65.168 99.0126 66.057C98.1486 66.946 96.9766 67.4461 95.7541 67.4479Z" fill="#E6E6E6"/>
<path d="M150.896 67.6124H128.03C126.807 67.6106 125.634 67.1105 124.77 66.2221C123.905 65.3331 123.419 64.1282 123.417 62.8715V40.9049C123.419 39.6483 123.905 38.4439 124.77 37.5561C125.635 36.6683 126.808 36.1694 128.03 36.1694H150.896C152.119 36.1694 153.288 36.6683 154.155 37.5561C155.022 38.4439 155.509 39.6483 155.509 40.9049V62.8715C155.509 64.1282 155.022 65.3331 154.155 66.2221C153.288 67.1105 152.119 67.6106 150.896 67.6124Z" fill="#E6E6E6"/>
<path d="M40.6125 116.537H17.7413C16.5187 116.536 15.3467 116.036 14.4828 115.147C13.6189 114.258 13.1338 113.053 13.1338 111.796V89.8293C13.1338 88.5733 13.6189 87.3683 14.4828 86.4793C15.3467 85.5903 16.5187 85.0896 17.7413 85.0884H40.6125C41.8344 85.0914 43.0053 85.5921 43.8692 86.4811C44.7325 87.3695 45.2182 88.5733 45.22 89.8293V111.796C45.2182 113.052 44.7325 114.256 43.8692 115.145C43.0053 116.033 41.8344 116.534 40.6125 116.537Z" fill="#E6E6E6"/>
<path d="M95.7541 116.726H72.8828C71.6609 116.723 70.49 116.222 69.6261 115.334C68.7628 114.445 68.2771 113.241 68.2753 111.985V90.0183C68.2771 88.7622 68.7628 87.5585 69.6261 86.6701C70.49 85.7811 71.6609 85.2804 72.8828 85.2773H95.7541C96.9766 85.2786 98.1486 85.7793 99.0126 86.6683C99.8765 87.5573 100.362 88.7622 100.362 90.0183V111.985C100.362 113.242 99.8765 114.447 99.0126 115.336C98.1486 116.225 96.9766 116.725 95.7541 116.726Z" fill="#E6E6E6"/>
<path d="M150.896 116.916H128.03C127.421 116.918 126.818 116.796 126.254 116.558C125.691 116.32 125.179 115.969 124.748 115.527C124.317 115.085 123.976 114.56 123.743 113.981C123.511 113.402 123.391 112.782 123.393 112.156V90.1892C123.395 88.9325 123.881 87.7275 124.746 86.8386C125.611 85.9502 126.783 85.4501 128.007 85.4482H150.872C152.095 85.4501 153.265 85.9502 154.131 86.8386C154.998 87.7275 155.485 88.9325 155.485 90.1892V112.156C155.491 113.412 155.004 114.618 154.149 115.51C153.288 116.402 152.119 116.908 150.896 116.916Z" fill="#E6E6E6"/>
<path d="M40.6125 165.81H17.7413C17.1356 165.81 16.5365 165.688 15.9772 165.451C15.4179 165.213 14.9097 164.864 14.4816 164.424C14.0535 163.985 13.7139 163.462 13.4829 162.887C13.2513 162.313 13.1332 161.696 13.1338 161.074V139.108C13.1338 137.852 13.6189 136.647 14.4828 135.758C15.3467 134.869 16.5187 134.369 17.7413 134.367H40.6125C41.8344 134.37 43.0053 134.87 43.8692 135.759C44.7325 136.648 45.2182 137.852 45.22 139.108V161.074C45.22 162.33 44.7343 163.535 43.8704 164.423C43.0065 165.311 41.8344 165.81 40.6125 165.81Z" fill="#E6E6E6"/>
<path d="M95.7541 165.999H72.8828C71.6609 165.999 70.4888 165.5 69.6249 164.612C68.761 163.724 68.2753 162.52 68.2753 161.264V139.297C68.2771 138.041 68.7628 136.837 69.6261 135.948C70.49 135.06 71.6609 134.559 72.8828 134.556H95.7541C96.9766 134.557 98.1486 135.058 99.0126 135.947C99.8765 136.836 100.362 138.041 100.362 139.297V161.264C100.362 161.886 100.243 162.502 100.012 163.076C99.7809 163.651 99.4418 164.174 99.0137 164.614C98.5857 165.054 98.0774 165.403 97.5181 165.64C96.9588 165.878 96.3591 166 95.7541 165.999Z" fill="#E6E6E6"/>
<path d="M150.896 166.194H128.03C126.807 166.192 125.634 165.692 124.77 164.803C123.905 163.914 123.419 162.709 123.417 161.453V139.486C123.419 138.229 123.905 137.024 124.77 136.135C125.634 135.246 126.807 134.746 128.03 134.745H150.896C152.119 134.746 153.288 135.246 154.155 136.135C155.022 137.024 155.509 138.229 155.509 139.486V161.453C155.509 162.709 155.022 163.914 154.155 164.803C153.288 165.692 152.119 166.192 150.896 166.194Z" fill="#E6E6E6"/>
<path d="M206.88 203.141L189.181 218.03C188.237 218.823 187.019 219.199 185.802 219.074C184.591 218.95 183.475 218.335 182.697 217.364L169.142 200.353C168.37 199.379 168.002 198.13 168.126 196.88C168.245 195.63 168.845 194.481 169.789 193.683L187.488 178.795C188.438 178.001 189.65 177.624 190.867 177.749C192.084 177.874 193.2 178.489 193.978 179.46L207.528 196.471C208.299 197.445 208.667 198.694 208.543 199.944C208.424 201.193 207.824 202.344 206.88 203.141Z" fill="#F6BC54"/>
<path d="M162.355 233.04L162.017 225.108C158.436 223.132 154.44 222.084 150.379 222.057C155.966 226.755 155.266 235.804 159.06 242.12C160.253 244.08 161.862 245.739 163.768 246.973C165.674 248.206 167.823 248.984 170.062 249.247L174.741 252.188C175.382 248.511 175.239 244.734 174.325 241.119C173.411 237.504 171.742 234.136 169.438 231.246C168.132 229.635 166.63 228.199 164.973 226.974C163.857 230.038 162.355 233.04 162.355 233.04Z" fill="#F2F2F2"/>
<path d="M191.936 179.008C192.624 178.424 193.064 177.582 193.153 176.668C193.242 175.753 192.975 174.84 192.411 174.127C192.28 173.968 192.143 173.821 191.989 173.687L199.642 153.13L193.527 154.461L187.037 174.231C186.533 174.916 186.289 175.768 186.36 176.624C186.426 177.481 186.8 178.283 187.405 178.875C188.011 179.467 188.807 179.81 189.644 179.836C190.481 179.864 191.294 179.573 191.936 179.02V179.008Z" fill="#FFB8B8"/>
<path d="M188.783 156.498L195.653 127.13L198.621 118.587C199.102 117.194 200.106 116.055 201.406 115.42C202.7 114.785 204.197 114.706 205.55 115.201H205.586C206.471 115.532 207.254 116.093 207.86 116.829C208.472 117.564 208.881 118.45 209.059 119.399L209.802 123.389L196.05 172.815L196.021 172.931L187.067 172.32L188.783 156.498Z" fill="#2F2E41"/>
<path d="M216.659 107.47L201.364 139.255L191.674 173.047C212.058 177.135 237.631 185.861 239.471 173.34C238.337 138.4 234.763 127.258 227.382 112.113L216.659 107.47Z" fill="#2F2E41"/>
<path d="M202.979 247.489H198.176L195.896 228.458H202.979V247.489Z" fill="#FFB6B6"/>
<path d="M204.203 252.273H188.706V252.072C188.706 250.43 189.341 248.855 190.475 247.694C191.603 246.533 193.135 245.88 194.732 245.879L197.564 243.676L202.837 245.879H204.191L204.203 252.273Z" fill="#2F2E41"/>
<path d="M246.365 241.076L242.066 243.279L231.758 227.292L238.1 224.04L246.365 241.076Z" fill="#FFB6B6"/>
<path d="M249.535 244.793L235.677 251.889L235.588 251.706C234.876 250.235 234.763 248.535 235.268 246.977C235.778 245.42 236.865 244.133 238.296 243.401L239.869 240.131L245.551 239.685L246.739 239.075L249.535 244.793Z" fill="#2F2E41"/>
<path d="M200.848 161.05L227.329 162.002L229.306 165.785C229.306 165.785 231.378 181.241 230.316 182.333C229.253 183.425 228.724 183.419 229.253 185.329C229.781 187.239 231.159 205.465 231.159 205.465C231.159 205.465 242.096 228.781 242.63 230.141C243.164 231.502 243.687 230.959 243.158 231.508C242.689 232.029 242.244 232.575 241.828 233.144H233.177C233.177 233.144 228.517 221.068 224.271 216.394C220.507 212.268 218.12 207.013 217.467 201.396L213.904 183.944L206.186 210.682C206.186 210.682 204.856 237.14 205.123 238.507L205.39 239.874L195.189 239.989C195.189 239.989 194.126 237.689 194.655 236.872C195.183 236.054 195.154 236.261 194.506 234.937C193.859 233.613 194.126 231.325 194.126 231.325C194.126 231.325 197.956 177.672 197.956 176.848C197.974 176.428 197.897 176.011 197.731 175.627V174.517L198.752 170.581L200.848 161.05Z" fill="#2F2E41"/>
<path d="M218.452 112.187L216.671 107.756L211.096 107.854L205.277 116.312L199.15 142.665C199.15 142.665 196.959 161.941 199.15 162.954C201.341 163.967 227.893 163.43 227.893 163.43C226.664 153.027 225.744 142.439 224.782 136.112C221.587 115.207 220.085 119.631 218.452 112.187Z" fill="#F6BC54"/>
<path d="M211.072 107.885C211.072 107.885 199.055 115.024 198.603 118.747C198.152 122.468 196.561 168.073 196.561 168.073L200.812 165.254L201.97 148.633C201.163 133.867 203.157 122.859 207.153 114.609L211.072 107.885Z" fill="#2F2E41"/>
<path d="M213.91 105.78C218.435 105.78 222.098 102.012 222.098 97.3655C222.098 92.7181 218.435 88.9507 213.91 88.9507C209.386 88.9507 205.723 92.7181 205.723 97.3655C205.723 102.012 209.386 105.78 213.91 105.78Z" fill="#FFB8B8"/>
<path d="M223.998 96.8646C223.63 98.5691 222.971 100.193 222.051 101.661C221.801 102.153 221.439 102.573 220.988 102.881C220.756 103.028 220.483 103.089 220.216 103.055C219.949 103.02 219.699 102.892 219.509 102.692L219.313 102.527C219.699 102.276 220.05 101.965 220.347 101.606C220.489 101.423 220.59 101.208 220.637 100.978C220.685 100.748 220.679 100.509 220.62 100.282C220.554 100.055 220.4 99.8652 220.198 99.7516C219.996 99.6373 219.759 99.6088 219.539 99.6714C219.058 99.867 218.767 100.581 218.262 100.471C217.859 100.379 217.776 99.8306 217.776 99.3973C217.776 97.1393 216.725 93.9053 215.905 94.0275C215.074 94.073 214.243 93.957 213.453 93.686C212.663 93.4162 211.826 93.3086 210.995 93.3682H210.811C210.68 92.9398 210.496 92.5296 210.265 92.148C210.294 92.611 210.271 93.0753 210.199 93.5328C209.54 93.816 208.857 94.0384 208.157 94.1982C207.397 94.3082 205.728 96.6392 205.651 96.4071C205.515 95.9805 205.331 95.5709 205.105 95.1869C205.129 95.6493 205.105 96.1136 205.04 96.5717C205.04 96.5717 205.04 96.6088 205.04 96.627C204.672 96.1202 204.446 95.5102 204.571 95.9799C203.336 93.1063 203.817 91.0433 205.758 88.6273C206.132 88.0974 206.637 87.6769 207.219 87.4071C207.504 87.2771 207.818 87.2254 208.133 87.2564C208.442 87.2874 208.745 87.3998 209 87.5839C209.796 86.8383 210.763 86.3236 211.814 86.0927C212.865 85.8624 213.958 85.9238 214.979 86.272C217.004 86.9981 218.542 87.4253 218.874 89.6098C219.717 89.5126 220.572 89.6639 221.338 90.0461C222.104 90.4284 222.751 91.0263 223.197 91.77C224.087 93.3013 224.372 95.1237 223.998 96.8646Z" fill="#2F2E41"/>
<path d="M246.941 176.927C247.273 176.071 247.261 175.114 246.911 174.266C246.555 173.418 245.89 172.749 245.058 172.406C244.868 172.33 244.667 172.271 244.465 172.229L241.496 150.433L236.746 154.631L240.344 175.17C240.237 176.015 240.433 176.871 240.896 177.578C241.353 178.285 242.054 178.794 242.856 179.01C243.657 179.226 244.506 179.133 245.248 178.75C245.991 178.366 246.567 177.718 246.875 176.927H246.941Z" fill="#FFB8B8"/>
<path d="M238.224 168.903L220.679 120.699L221.107 116.659C221.231 115.444 221.748 114.306 222.561 113.42C223.381 112.534 224.461 111.949 225.637 111.755C226.807 111.56 228.012 111.768 229.057 112.345C230.108 112.923 230.939 113.838 231.432 114.95V114.987L235.036 123.273L244.144 151.989L247.113 167.609L238.224 168.903Z" fill="#2F2E41"/>
<path d="M286.152 252.584C286.152 252.746 286.087 252.901 285.98 253.015C285.867 253.13 285.718 253.194 285.558 253.194H131.379C131.291 253.219 131.199 253.222 131.109 253.204C131.019 253.186 130.935 253.147 130.862 253.09C130.79 253.033 130.731 252.96 130.691 252.876C130.65 252.792 130.63 252.699 130.63 252.605C130.63 252.512 130.65 252.419 130.691 252.335C130.731 252.251 130.79 252.177 130.862 252.121C130.935 252.064 131.019 252.025 131.109 252.007C131.199 251.988 131.291 251.992 131.379 252.016H285.576C285.736 252.016 285.885 252.081 285.998 252.195C286.104 252.31 286.17 252.465 286.17 252.626L286.152 252.584Z" fill="#CCCCCC"/>
<path d="M168.215 12.5494H0.653127C0.486878 12.5336 0.332514 12.454 0.219702 12.327C0.107483 12.2 0.0451355 12.0348 0.0451355 11.8634C0.0451355 11.6914 0.107483 11.5262 0.219702 11.3992C0.332514 11.2722 0.486878 11.1932 0.653127 11.1768H168.215C168.382 11.1932 168.536 11.2722 168.649 11.3992C168.762 11.5262 168.821 11.6914 168.821 11.8634C168.821 12.0348 168.762 12.2 168.649 12.327C168.536 12.454 168.382 12.5336 168.215 12.5494Z" fill="#CACACA"/>
<path d="M160.093 0.492188H150.51C150.32 0.492188 150.136 0.570571 149.999 0.710332C149.863 0.850093 149.785 1.03908 149.785 1.23657C149.785 1.43406 149.863 1.62364 149.999 1.7628C150.136 1.90256 150.32 1.98094 150.51 1.98094H160.093C160.283 1.98094 160.467 1.90256 160.603 1.7628C160.74 1.62364 160.817 1.43406 160.817 1.23657C160.817 1.03908 160.74 0.850093 160.603 0.710332C160.467 0.570571 160.283 0.492188 160.093 0.492188Z" fill="#3F3D56"/>
<path d="M160.093 3.29297H150.51C150.32 3.29297 150.136 3.37136 149.999 3.51112C149.863 3.65088 149.785 3.84047 149.785 4.03735C149.785 4.23484 149.863 4.42443 149.999 4.56419C150.136 4.70334 150.32 4.78173 150.51 4.78173H160.093C160.283 4.78173 160.467 4.70334 160.603 4.56419C160.74 4.42443 160.817 4.23484 160.817 4.03735C160.817 3.84047 160.74 3.65088 160.603 3.51112C160.467 3.37136 160.283 3.29297 160.093 3.29297Z" fill="#3F3D56"/>
<path d="M160.093 6.0874H150.51C150.32 6.0874 150.136 6.1658 149.999 6.30556C149.863 6.44532 149.785 6.6343 149.785 6.83178C149.785 7.02927 149.863 7.21886 149.999 7.35801C150.136 7.49777 150.32 7.57616 150.51 7.57616H160.093C160.283 7.57616 160.467 7.49777 160.603 7.35801C160.74 7.21886 160.817 7.02927 160.817 6.83178C160.817 6.6343 160.74 6.44532 160.603 6.30556C160.467 6.1658 160.283 6.0874 160.093 6.0874Z" fill="#3F3D56"/>
</svg>
