<svg width="40" height="40" viewBox="0 0 40 40" fill="none" xmlns="http://www.w3.org/2000/svg">
<path d="M39.5312 20.0649C39.5312 31.0172 30.8916 39.8957 20.2344 39.8957C9.57716 39.8957 0.9375 31.0172 0.9375 20.0649C0.9375 9.11256 9.57716 0.234131 20.2344 0.234131C30.8916 0.234131 39.5312 9.11256 39.5312 20.0649Z" fill="#F6BC54"/>
<path d="M17.1718 29.9095V10.2234L28.0469 20.0661L17.1718 29.9095ZM18.4793 31.4548L29.3526 21.612C29.5657 21.4194 29.7367 21.1818 29.8537 20.915C29.9707 20.6482 30.0312 20.359 30.0312 20.0661C30.0312 19.7739 29.9707 19.4846 29.8537 19.2179C29.7367 18.9511 29.5657 18.7135 29.3526 18.5209L18.481 8.6781C17.1938 7.51627 15.1875 8.46058 15.1875 10.2234V29.9095C15.1869 30.3038 15.2967 30.6903 15.5034 31.0221C15.71 31.3539 16.0045 31.617 16.3518 31.7798C16.6992 31.9433 17.0845 31.9992 17.4616 31.9415C17.8392 31.8837 18.1925 31.7148 18.4793 31.4548Z" fill="white"/>
</svg>
