<svg width="23" height="23" viewBox="0 0 23 23" fill="none" xmlns="http://www.w3.org/2000/svg">
<path fill-rule="evenodd" clip-rule="evenodd" d="M11.5 0.958496C5.67817 0.958496 0.958374 5.67829 0.958374 11.5002C0.958374 17.322 5.67817 22.0418 11.5 22.0418C17.3219 22.0418 22.0417 17.322 22.0417 11.5002C22.0417 5.67829 17.3219 0.958496 11.5 0.958496ZM12.4584 15.3335C12.4584 15.5877 12.3574 15.8314 12.1777 16.0111C11.998 16.1909 11.7542 16.2918 11.5 16.2918C11.2459 16.2918 11.0021 16.1909 10.8224 16.0111C10.6427 15.8314 10.5417 15.5877 10.5417 15.3335V12.4585H7.66671C7.41254 12.4585 7.16879 12.3575 6.98906 12.1778C6.80934 11.9981 6.70837 11.7543 6.70837 11.5002C6.70837 11.246 6.80934 11.0022 6.98906 10.8225C7.16879 10.6428 7.41254 10.5418 7.66671 10.5418H10.5417V7.66683C10.5417 7.41266 10.6427 7.16891 10.8224 6.98919C11.0021 6.80946 11.2459 6.7085 11.5 6.7085C11.7542 6.7085 11.998 6.80946 12.1777 6.98919C12.3574 7.16891 12.4584 7.41266 12.4584 7.66683V10.5418H15.3334C15.5875 10.5418 15.8313 10.6428 16.011 10.8225C16.1907 11.0022 16.2917 11.246 16.2917 11.5002C16.2917 11.7543 16.1907 11.9981 16.011 12.1778C15.8313 12.3575 15.5875 12.4585 15.3334 12.4585H12.4584V15.3335Z" fill="#F6BC54"/>
</svg>
