<svg width="58" height="89" viewBox="0 0 58 89" fill="none" xmlns="http://www.w3.org/2000/svg">
<path d="M2.61722 50.274L44.6948 87.0861C49.6532 91.4305 57.4209 87.8997 57.4209 81.3064V7.68217C57.4221 6.20658 56.998 4.7619 56.1994 3.52114C55.4007 2.28038 54.2613 1.29613 52.9177 0.686264C51.574 0.0763937 50.083 -0.133245 48.6233 0.0824529C47.1636 0.298151 45.7969 0.930041 44.6871 1.90245L2.62489 38.7146C1.80046 39.435 1.1397 40.3235 0.686964 41.3203C0.234229 42.3172 0 43.3994 0 44.4943C0 45.5891 0.234229 46.6713 0.686964 47.6682C1.1397 48.6651 1.80046 49.5535 2.62489 50.274H2.61722Z" fill="#6A5F4B"/>
</svg>
