<svg width="32" height="33" viewBox="0 0 32 33" fill="none" xmlns="http://www.w3.org/2000/svg">
<path d="M32 16.5035C32 25.6133 24.8354 33 16 33C7.16453 33 0 25.6133 0 16.5035C0 7.38669 7.16453 0 16 0C24.8354 0 32 7.38669 32 16.5035Z" fill="#F6BC54"/>
<path d="M7.5366 9C7.39087 9 7.25834 9.06309 7.15897 9.16824C7.05961 9.2734 7 9.41356 7 9.56779C7 9.71501 7.05961 9.86227 7.15897 9.96743C7.25834 10.0726 7.39087 10.1357 7.5366 10.1357H8.72227L9.14623 11.9583L10.7427 21.0087C10.7692 21.1348 10.8354 21.254 10.9282 21.3381C11.0209 21.4223 11.1468 21.4713 11.266 21.4713H12.3325C11.7694 21.4713 11.2262 21.7097 10.8288 22.1303C10.4247 22.5579 10.1994 23.1327 10.1994 23.7356C10.1994 24.3385 10.4247 24.9134 10.8288 25.341C11.2262 25.7616 11.7694 26 12.3325 26C12.9022 26 13.4453 25.7616 13.8427 25.341C14.2468 24.9134 14.4721 24.3385 14.4721 23.7356C14.4721 23.1327 14.2468 22.5579 13.8427 22.1303C13.4453 21.7097 12.9022 21.4713 12.3325 21.4713H19.8045C19.2348 21.4713 18.6917 21.7097 18.2943 22.1303C17.8968 22.5579 17.6715 23.1327 17.6715 23.7356C17.6715 24.3385 17.8968 24.9134 18.2943 25.341C18.6917 25.7616 19.2348 26 19.8045 26C20.3676 26 20.9108 25.7616 21.3082 25.341C21.7123 24.9134 21.9375 24.3385 21.9375 23.7356C21.9375 23.1327 21.7123 22.5579 21.3082 22.1303C20.9108 21.7097 20.3676 21.4713 19.8045 21.4713H20.8711C20.9903 21.4713 21.1161 21.4223 21.2088 21.3381C21.3016 21.254 21.3678 21.1348 21.3943 21.0087L22.9908 11.9373C23.004 11.8602 23.004 11.7761 22.9841 11.6919C22.9643 11.6148 22.9311 11.5377 22.8781 11.4746C22.8318 11.4115 22.7656 11.3554 22.6927 11.3204C22.6265 11.2853 22.5469 11.2643 22.4674 11.2643H10.0869L9.64967 9.42762C9.62317 9.30844 9.55691 9.19623 9.46417 9.11912C9.37144 9.04201 9.2522 9 9.13297 9H7.5366ZM13.399 23.7356C13.399 24.037 13.293 24.3245 13.0877 24.5348C12.8889 24.7521 12.6173 24.8713 12.3325 24.8713C12.0543 24.8713 11.7827 24.7521 11.584 24.5348C11.3786 24.3245 11.266 24.037 11.266 23.7356C11.266 23.4342 11.3786 23.1468 11.584 22.9365C11.7827 22.7192 12.0543 22.5999 12.3325 22.5999C12.6173 22.5999 12.8889 22.7192 13.0877 22.9365C13.293 23.1468 13.399 23.4342 13.399 23.7356ZM20.8711 23.7356C20.8711 24.037 20.7584 24.3245 20.5597 24.5348C20.3543 24.7521 20.0827 24.8713 19.8045 24.8713C19.5197 24.8713 19.2481 24.7521 19.0494 24.5348C18.8507 24.3245 18.738 24.037 18.738 23.7356C18.738 23.4342 18.8507 23.1468 19.0494 22.9365C19.2481 22.7192 19.5197 22.5999 19.8045 22.5999C20.0827 22.5999 20.3543 22.7192 20.5597 22.9365C20.7584 23.1468 20.8711 23.4342 20.8711 23.7356ZM16.6051 14.1034V15.8H18.2015C18.3406 15.8 18.4797 15.8631 18.579 15.9682C18.6784 16.0734 18.738 16.2206 18.738 16.3678C18.738 16.5221 18.6784 16.6622 18.579 16.7674C18.4797 16.8725 18.3406 16.9356 18.2015 16.9356H16.6051V18.6322C16.6051 18.7864 16.5454 18.9266 16.4461 19.0387C16.3467 19.1439 16.2076 19.1999 16.0685 19.1999C15.9294 19.1999 15.7903 19.1439 15.6909 19.0387C15.5916 18.9266 15.5386 18.7864 15.5386 18.6322V16.9356H13.9355C13.7964 16.9356 13.6573 16.8725 13.558 16.7674C13.4586 16.6622 13.399 16.5221 13.399 16.3678C13.399 16.2206 13.4586 16.0734 13.558 15.9682C13.6573 15.8631 13.7964 15.8 13.9355 15.8H15.5386V14.1034C15.5386 13.9492 15.5916 13.809 15.6909 13.7039C15.7903 13.5917 15.9294 13.5356 16.0685 13.5356C16.2076 13.5356 16.3467 13.5917 16.4461 13.7039C16.5454 13.809 16.6051 13.9492 16.6051 14.1034Z" fill="white"/>
</svg>
