<svg width="573" height="247" viewBox="0 0 573 247" fill="none" xmlns="http://www.w3.org/2000/svg">
<path d="M40.8313 65.2393H17.96C16.7375 65.2375 15.5654 64.7488 14.7015 63.8802C13.8376 63.0115 13.3525 61.8341 13.3525 60.6063V39.1422C13.3525 37.9149 13.8376 36.7375 14.7015 35.8689C15.5654 35.0002 16.7375 34.5115 17.96 34.5098H40.8313C42.0532 34.5127 43.2247 35.002 44.088 35.8707C44.9513 36.7387 45.437 37.9155 45.4388 39.1422V60.6063C45.437 61.8336 44.9513 63.0104 44.088 63.8784C43.2247 64.7471 42.0532 65.2363 40.8313 65.2393Z" fill="#E6E6E6"/>
<path d="M95.973 65.4238H73.1017C71.8797 65.4208 70.7088 64.9316 69.8449 64.0629C68.9816 63.1948 68.4959 62.0186 68.4941 60.7913V39.3273C68.4941 38.1 68.9798 36.9232 69.8437 36.0557C70.7077 35.1876 71.8797 34.7002 73.1017 34.7002H95.973C96.5786 34.6996 97.1777 34.8189 97.737 35.0511C98.2963 35.2833 98.8045 35.6241 99.2326 36.0539C99.6607 36.4838 100 36.9938 100.231 37.5555C100.463 38.1172 100.582 38.7193 100.58 39.3273V60.7913C100.58 62.0186 100.095 63.196 99.2314 64.0647C98.3675 64.9333 97.1955 65.422 95.973 65.4238Z" fill="#E6E6E6"/>
<path d="M151.114 65.5849H128.249C127.025 65.5831 125.853 65.0945 124.988 64.2258C124.123 63.3577 123.637 62.1804 123.635 60.9519V39.4878C123.637 38.2605 124.124 37.0837 124.989 36.2163C125.854 35.3488 127.026 34.8613 128.249 34.8613H151.114C152.336 34.8613 153.509 35.3488 154.374 36.2163C155.239 37.0837 155.726 38.2605 155.727 39.4878V60.9519C155.726 62.1804 155.239 63.3577 154.375 64.2258C153.51 65.0945 152.337 65.5831 151.114 65.5849Z" fill="#E6E6E6"/>
<path d="M40.8313 113.391H17.96C16.7375 113.389 15.5654 112.9 14.7015 112.032C13.8376 111.163 13.3525 109.986 13.3525 108.758V87.2936C13.3525 86.0663 13.8376 84.8889 14.7015 84.0202C15.5654 83.1516 16.7375 82.6623 17.96 82.6611H40.8313C42.0532 82.6641 43.2247 83.1533 44.088 84.022C44.9513 84.8901 45.437 86.0663 45.4388 87.2936V108.758C45.437 109.985 44.9513 111.161 44.088 112.03C43.2247 112.898 42.0532 113.387 40.8313 113.391Z" fill="#E6E6E6"/>
<path d="M95.9729 113.575H73.1017C71.8797 113.572 70.7088 113.083 69.8449 112.214C68.9816 111.346 68.4959 110.169 68.4941 108.943V87.4787C68.4959 86.2514 68.9816 85.0746 69.8449 84.2066C70.7088 83.3385 71.8797 82.8493 73.1017 82.8457H95.9729C97.1955 82.8475 98.3675 83.3361 99.2314 84.2048C100.095 85.0735 100.58 86.2508 100.58 87.4787V108.943C100.58 110.17 100.095 111.347 99.2314 112.216C98.3675 113.085 97.1955 113.573 95.9729 113.575Z" fill="#E6E6E6"/>
<path d="M151.114 113.759H128.249C127.64 113.762 127.037 113.644 126.473 113.411C125.91 113.178 125.398 112.836 124.967 112.403C124.536 111.971 124.194 111.457 123.962 110.892C123.729 110.327 123.611 109.721 123.612 109.109V87.6451C123.614 86.4167 124.1 85.2399 124.965 84.3712C125.83 83.5026 127.002 83.0139 128.225 83.0127H151.091C152.314 83.0139 153.486 83.5026 154.352 84.3712C155.216 85.2399 155.703 86.4167 155.704 87.6451V109.109C155.708 110.337 155.226 111.514 154.366 112.386C153.506 113.258 152.337 113.752 151.114 113.759Z" fill="#E6E6E6"/>
<path d="M40.8313 161.535H17.96C17.355 161.536 16.7553 161.417 16.196 161.185C15.6367 160.953 15.1285 160.612 14.7004 160.182C14.2723 159.752 13.9332 159.241 13.7017 158.68C13.4707 158.118 13.3519 157.517 13.3525 156.909V135.445C13.3525 134.217 13.8376 133.039 14.7015 132.171C15.5654 131.302 16.7375 130.813 17.96 130.812H40.8313C42.0532 130.815 43.2247 131.304 44.088 132.172C44.9513 133.041 45.437 134.217 45.4388 135.445V156.909C45.4388 158.135 44.9537 159.313 44.0892 160.18C43.2253 161.048 42.0532 161.535 40.8313 161.535Z" fill="#E6E6E6"/>
<path d="M95.973 161.72H73.1017C71.8797 161.72 70.7077 161.232 69.8437 160.364C68.9798 159.497 68.4941 158.32 68.4941 157.093V135.629C68.4959 134.402 68.9816 133.225 69.8449 132.357C70.7088 131.488 71.8797 130.999 73.1017 130.996H95.973C97.1955 130.998 98.3675 131.487 99.2314 132.355C100.095 133.224 100.58 134.401 100.58 135.629V157.093C100.582 157.701 100.463 158.303 100.231 158.864C100 159.426 99.6607 159.936 99.2326 160.366C98.8045 160.796 98.2963 161.137 97.737 161.369C97.1777 161.602 96.5786 161.72 95.973 161.72Z" fill="#E6E6E6"/>
<path d="M151.114 161.911H128.249C127.025 161.909 125.853 161.421 124.988 160.552C124.123 159.683 123.637 158.506 123.635 157.278V135.814C123.637 134.586 124.123 133.408 124.988 132.54C125.853 131.671 127.025 131.183 128.249 131.182H151.114C152.337 131.183 153.51 131.671 154.375 132.54C155.239 133.408 155.726 134.586 155.727 135.814V157.278C155.726 158.506 155.239 159.683 154.375 160.552C153.51 161.421 152.337 161.909 151.114 161.911Z" fill="#E6E6E6"/>
<path d="M207.099 198.012L189.399 212.56C188.453 213.336 187.239 213.703 186.024 213.581C184.809 213.459 183.691 212.858 182.916 211.91L169.36 195.287C168.587 194.336 168.222 193.117 168.343 191.895C168.464 190.673 169.063 189.55 170.008 188.771L187.707 174.223C188.654 173.447 189.869 173.079 191.086 173.202C192.302 173.323 193.421 173.924 194.197 174.873L207.746 191.496C208.519 192.447 208.885 193.667 208.763 194.888C208.642 196.11 208.044 197.233 207.099 198.012Z" fill="#F6BC54"/>
<path d="M162.574 227.227L162.235 219.476C158.656 217.545 154.661 216.522 150.598 216.495C156.185 221.086 155.484 229.928 159.279 236.099C160.474 238.015 162.083 239.636 163.988 240.841C165.893 242.047 168.043 242.806 170.28 243.063L174.959 245.937C175.6 242.344 175.458 238.654 174.543 235.122C173.628 231.589 171.961 228.298 169.657 225.474C168.35 223.9 166.849 222.497 165.192 221.3C164.076 224.293 162.574 227.227 162.574 227.227Z" fill="#F2F2F2"/>
<path d="M192.154 174.431C192.844 173.86 193.281 173.038 193.37 172.145C193.459 171.251 193.193 170.359 192.629 169.662C192.501 169.507 192.36 169.363 192.208 169.233L199.861 149.146L193.746 150.446L187.256 169.763C186.751 170.433 186.51 171.266 186.577 172.102C186.644 172.939 187.017 173.723 187.623 174.301C188.229 174.88 189.026 175.215 189.862 175.241C190.697 175.267 191.514 174.983 192.154 174.443V174.431Z" fill="#FFB8B8"/>
<path d="M189.002 152.436L195.871 123.74L198.84 115.392C199.322 114.032 200.323 112.918 201.622 112.298C202.921 111.677 204.413 111.6 205.769 112.084H205.805C206.687 112.407 207.471 112.955 208.08 113.674C208.689 114.393 209.102 115.259 209.278 116.186L210.02 120.085L196.269 168.379L196.239 168.493L187.286 167.896L189.002 152.436Z" fill="#2F2E41"/>
<path d="M216.878 104.53L201.583 135.588L191.893 168.607C212.277 172.601 237.849 181.127 239.69 168.893C238.556 134.753 234.982 123.866 227.601 109.067L216.878 104.53Z" fill="#2F2E41"/>
<path d="M203.198 241.345H198.395L196.115 222.749H203.198V241.345Z" fill="#FFB6B6"/>
<path d="M204.421 246.02H188.924V245.824C188.926 244.219 189.562 242.68 190.691 241.546C191.821 240.411 193.353 239.773 194.951 239.771L197.783 237.619L203.056 239.771H204.409L204.421 246.02Z" fill="#2F2E41"/>
<path d="M246.584 235.079L242.285 237.231L231.977 221.61L238.319 218.433L246.584 235.079Z" fill="#FFB6B6"/>
<path d="M249.754 238.71L235.896 245.643L235.807 245.465C235.095 244.028 234.979 242.367 235.488 240.845C235.995 239.323 237.084 238.066 238.515 237.351L240.088 234.154L245.77 233.719L246.958 233.123L249.754 238.71Z" fill="#2F2E41"/>
<path d="M201.066 156.885L227.547 157.815L229.524 161.511C229.524 161.511 231.597 176.614 230.534 177.681C229.471 178.748 228.943 178.742 229.471 180.608C230 182.474 231.377 200.284 231.377 200.284C231.377 200.284 242.314 223.065 242.848 224.395C243.383 225.725 243.905 225.194 243.377 225.731C242.906 226.24 242.462 226.773 242.047 227.328H233.396C233.396 227.328 228.735 215.529 224.49 210.962C220.723 206.931 218.339 201.795 217.685 196.307L214.123 179.255L206.404 205.382C206.404 205.382 205.074 231.234 205.341 232.569L205.608 233.905L195.408 234.018C195.408 234.018 194.345 231.77 194.873 230.971C195.402 230.173 195.372 230.375 194.725 229.081C194.078 227.787 194.345 225.552 194.345 225.552C194.345 225.552 198.175 173.126 198.175 172.321C198.191 171.911 198.114 171.503 197.949 171.128V170.043L198.97 166.198L201.066 156.885Z" fill="#2F2E41"/>
<path d="M218.671 109.139L216.89 104.81L211.315 104.905L205.495 113.169L199.369 138.92C199.369 138.92 197.178 157.754 199.369 158.744C201.559 159.734 228.111 159.21 228.111 159.21C226.882 149.044 225.962 138.699 225 132.516C221.806 112.09 220.304 116.413 218.671 109.139Z" fill="#F6BC54"/>
<path d="M211.291 104.936C211.291 104.936 199.274 111.912 198.822 115.549C198.371 119.186 196.78 163.747 196.78 163.747L201.031 160.993L202.189 144.752C201.381 130.323 203.376 119.567 207.372 111.506L211.291 104.936Z" fill="#2F2E41"/>
<path d="M214.129 102.878C218.651 102.878 222.317 99.1972 222.317 94.6568C222.317 90.1158 218.651 86.4346 214.129 86.4346C209.607 86.4346 205.941 90.1158 205.941 94.6568C205.941 99.1972 209.607 102.878 214.129 102.878Z" fill="#FFB8B8"/>
<path d="M224.217 94.168C223.849 95.8335 223.19 97.42 222.269 98.8545C222.021 99.3355 221.655 99.7457 221.207 100.047C220.976 100.19 220.704 100.25 220.435 100.216C220.166 100.182 219.917 100.057 219.728 99.8621L219.532 99.7006C219.921 99.4554 220.268 99.1514 220.565 98.8005C220.71 98.6224 220.81 98.4116 220.857 98.1865C220.905 97.9621 220.898 97.7288 220.838 97.5067C220.771 97.2858 220.621 97.1 220.419 96.9884C220.217 96.8773 219.98 96.8494 219.758 96.9106C219.277 97.1012 218.986 97.7988 218.481 97.6914C218.078 97.6023 217.994 97.0655 217.994 96.6422C217.994 94.4364 216.943 91.2765 216.124 91.3952C215.293 91.4404 214.461 91.3269 213.672 91.0615C212.88 90.7985 212.046 90.6928 211.214 90.7516H211.03C210.899 90.3324 210.715 89.9316 210.483 89.5588C210.513 90.0112 210.491 90.4654 210.418 90.9125C209.758 91.1892 209.075 91.4065 208.376 91.5627C207.616 91.6695 205.947 93.9472 205.87 93.721C205.734 93.3035 205.551 92.9033 205.324 92.5281C205.347 92.9805 205.325 93.4336 205.258 93.8819C205.258 93.8819 205.258 93.9175 205.258 93.9353C204.89 93.4407 204.665 92.844 204.789 93.3035C203.554 90.4951 204.035 88.4799 205.977 86.1186C206.353 85.6014 206.856 85.1905 207.438 84.9263C207.724 84.7993 208.039 84.7488 208.351 84.7791C208.662 84.8094 208.962 84.9198 209.219 85.0991C210.011 84.3706 210.984 83.8677 212.035 83.6426C213.086 83.417 214.178 83.4776 215.198 83.8172C217.223 84.5267 218.76 84.9441 219.093 87.0787C219.938 86.9837 220.793 87.1315 221.559 87.505C222.324 87.879 222.968 88.4627 223.415 89.1894C224.305 90.6857 224.591 92.4664 224.217 94.168Z" fill="#2F2E41"/>
<path d="M247.159 172.398C247.493 171.561 247.482 170.626 247.129 169.797C246.776 168.969 246.11 168.315 245.277 167.98C245.084 167.906 244.885 167.848 244.683 167.807L241.714 146.51L236.964 150.612L240.562 170.681C240.454 171.506 240.65 172.343 241.112 173.033C241.574 173.724 242.272 174.222 243.074 174.433C243.876 174.643 244.727 174.553 245.467 174.179C246.207 173.803 246.785 173.17 247.093 172.398H247.159Z" fill="#FFB8B8"/>
<path d="M238.443 164.558L220.898 117.456L221.325 113.509C221.452 112.322 221.964 111.21 222.782 110.344C223.601 109.479 224.68 108.907 225.853 108.717C227.027 108.527 228.23 108.73 229.277 109.294C230.325 109.859 231.159 110.753 231.651 111.839V111.875L235.255 119.972L244.363 148.03L247.332 163.294L238.443 164.558Z" fill="#2F2E41"/>
<path d="M286.371 246.325C286.371 246.483 286.308 246.634 286.197 246.746C286.086 246.858 285.934 246.921 285.777 246.921H131.598C131.51 246.944 131.417 246.948 131.328 246.93C131.239 246.912 131.154 246.874 131.081 246.819C131.009 246.763 130.95 246.691 130.91 246.61C130.869 246.527 130.849 246.437 130.849 246.345C130.849 246.254 130.869 246.163 130.91 246.081C130.95 245.999 131.009 245.927 131.081 245.872C131.154 245.816 131.239 245.778 131.328 245.76C131.417 245.743 131.51 245.746 131.598 245.77H285.795C285.952 245.77 286.103 245.833 286.215 245.945C286.326 246.056 286.388 246.208 286.388 246.366L286.371 246.325Z" fill="#CCCCCC"/>
<path d="M168.434 11.7807H0.871926C0.705676 11.7653 0.551295 11.6875 0.438482 11.5634C0.326264 11.4393 0.263916 11.2778 0.263916 11.1104C0.263916 10.9424 0.326264 10.7809 0.438482 10.6568C0.551295 10.5327 0.705676 10.4555 0.871926 10.4395H168.434C168.6 10.4555 168.755 10.5327 168.867 10.6568C168.98 10.7809 169.042 10.9424 169.042 11.1104C169.042 11.2778 168.98 11.4393 168.867 11.5634C168.755 11.6875 168.6 11.7653 168.434 11.7807Z" fill="#CACACA"/>
<path d="M160.312 0H150.729C150.536 0 150.352 0.0765999 150.216 0.213164C150.08 0.349728 150.004 0.534385 150.004 0.727356C150.004 0.920327 150.08 1.10558 150.216 1.24155C150.352 1.37811 150.536 1.45471 150.729 1.45471H160.312C160.503 1.45471 160.687 1.37811 160.823 1.24155C160.959 1.10558 161.036 0.920327 161.036 0.727356C161.036 0.534385 160.959 0.349728 160.823 0.213164C160.687 0.0765999 160.503 0 160.312 0Z" fill="#3F3D56"/>
<path d="M160.312 2.73633H150.729C150.536 2.73633 150.352 2.81291 150.216 2.94947C150.08 3.08604 150.004 3.2713 150.004 3.46368C150.004 3.65665 150.08 3.84188 150.216 3.97845C150.352 4.11441 150.536 4.19101 150.729 4.19101H160.312C160.503 4.19101 160.687 4.11441 160.823 3.97845C160.959 3.84188 161.036 3.65665 161.036 3.46368C161.036 3.2713 160.959 3.08604 160.823 2.94947C160.687 2.81291 160.503 2.73633 160.312 2.73633Z" fill="#3F3D56"/>
<path d="M160.312 5.4668H150.729C150.536 5.4668 150.352 5.54338 150.216 5.67994C150.08 5.8165 150.004 6.00118 150.004 6.19415C150.004 6.38712 150.08 6.57237 150.216 6.70833C150.352 6.8449 150.536 6.92148 150.729 6.92148H160.312C160.503 6.92148 160.687 6.8449 160.823 6.70833C160.959 6.57237 161.036 6.38712 161.036 6.19415C161.036 6.00118 160.959 5.8165 160.823 5.67994C160.687 5.54338 160.503 5.4668 160.312 5.4668Z" fill="#3F3D56"/>
<text stroke="#F6BC54" xml:space="preserve" style="white-space: pre" font-family="Roboto" font-size="95" letter-spacing="0em"><tspan x="383" y="90.9707">&#x7d50;&#x5e33;&#10;</tspan><tspan x="383" y="201.971">&#x8cc7;&#x8a0a;</tspan></text>
</svg>
