<svg width="407" height="370" viewBox="0 0 407 370" fill="none" xmlns="http://www.w3.org/2000/svg">
<g opacity="0.3">
<path d="M261.538 365.243C256.162 366.507 250.847 368.116 245.417 368.971C191.018 377.64 145.301 327.45 159.379 274.138C165.246 252.026 171.838 230.052 178.951 208.297C191.088 171.205 233.111 149.26 271.036 159.936C291.953 165.82 312.838 171.947 333.517 178.633C361.926 187.783 379.583 207.442 385.173 236.66C390.832 266.193 382.275 291.457 358.888 311.134C358.103 311.93 357.399 312.809 356.785 313.741L261.538 365.243Z" fill="#E6E6E6"/>
<path d="M3.52037 241.209C2.5503 236.263 1.30075 231.382 0.636527 226.418C-1.02526 212.655 1.76928 198.726 8.61005 186.673C15.4506 174.619 25.9766 165.078 38.6413 159.449C66.0221 147.592 97.7711 154.978 115.899 177.458C138.97 206.076 135.399 246.873 106.898 269.774C81.2482 290.436 40.8204 292.093 15.3616 260.535C14.5719 259.71 13.708 258.962 12.78 258.291L3.52037 241.209Z" fill="#E6E6E6"/>
<path d="M371.2 127.725C338.425 145.448 300.532 133.977 282.68 100.994C265.866 69.8993 277.833 30.0765 309.147 13.0418C340.462 -3.99287 381.065 7.82279 397.803 39.1312C415.383 72.1497 404.008 110.031 371.2 127.725Z" fill="#E6E6E6"/>
<path d="M218.017 35.1059C235.075 65.025 223.84 105.459 193.698 122.637C161.743 140.865 121.988 130.462 103.824 99.1241C99.4325 91.6725 96.5819 83.4194 95.4425 74.8456C94.3031 66.2719 94.898 57.5556 97.1911 49.2134C99.4847 40.8772 103.431 33.0812 108.794 26.3006C114.158 19.514 120.83 13.8793 128.415 9.72308C160.944 -8.68912 199.163 2.14682 218.017 35.1059Z" fill="#E6E6E6"/>
</g>
</svg>
