<svg width="30" height="31" viewBox="0 0 30 31" fill="none" xmlns="http://www.w3.org/2000/svg">
<path d="M30 15.5C30 24.0629 23.2867 31 15 31C6.71333 31 0 24.0629 0 15.5C0 6.93711 6.71333 0 15 0C23.2867 0 30 6.93711 30 15.5Z" fill="#F6BC54"/>
<path fill-rule="evenodd" clip-rule="evenodd" d="M13.6667 19.1237C14.2934 19.1237 14.92 18.9927 15.5 18.7447C16.08 18.4899 16.6134 18.1247 17.06 17.6631C17.5 17.2016 17.8534 16.6575 18.0934 16.0513C18.3401 15.445 18.46 14.7975 18.46 14.1499C18.46 13.4955 18.3401 12.8479 18.0934 12.2417C17.8534 11.6424 17.5 11.0912 17.06 10.6296C16.6134 10.1681 16.08 9.80308 15.5 9.54819C14.92 9.30019 14.2934 9.16927 13.6667 9.16927C12.3934 9.16927 11.1734 9.69274 10.2734 10.6296C9.38003 11.5596 8.87338 12.8273 8.87338 14.1499C8.87338 15.4657 9.38003 16.7331 10.2734 17.6631C11.1734 18.6 12.3934 19.1237 13.6667 19.1237ZM19.3334 14.1499C19.3334 15.7068 18.7334 17.2017 17.6734 18.3039C16.6134 19.4061 15.1667 20.0261 13.6667 20.0261C12.1667 20.0261 10.72 19.4061 9.66 18.3039C8.6 17.2017 8 15.7068 8 14.1499C8 12.5861 8.6 11.0912 9.66 9.98901C10.72 8.88679 12.1667 8.26679 13.6667 8.26679C15.1667 8.26679 16.6134 8.88679 17.6734 9.98901C18.7334 11.0912 19.3334 12.5861 19.3334 14.1499Z" fill="white"/>
<path d="M17.3333 19.1513C17.36 19.1858 17.3867 19.2132 17.4133 19.2477L20.5933 22.5407C20.7467 22.706 20.9533 22.7956 21.1733 22.7956C21.3933 22.7956 21.6 22.706 21.76 22.5407C21.9133 22.3822 22 22.1687 22 21.9414C22 21.7141 21.9133 21.4935 21.76 21.3351L18.58 18.0352C18.5533 18.0077 18.52 17.9802 18.4867 17.9526C18.16 18.4073 17.7733 18.8138 17.3333 19.1513Z" fill="white"/>
</svg>
