<svg width="17" height="17" viewBox="0 0 17 17" fill="none" xmlns="http://www.w3.org/2000/svg">
<path d="M8.25 15.6511C6.39338 15.6511 4.61308 14.9096 3.30046 13.5982C1.98723 12.2868 1.25 10.5037 1.25 8.64691C1.25 6.79627 1.98723 5.01299 3.30046 3.70161C4.61308 2.39023 6.39338 1.64869 8.25 1.64869C10.1066 1.64869 11.8869 2.39023 13.1995 3.70161C14.5128 5.01299 15.25 6.79627 15.25 8.64691C15.25 10.5037 14.5128 12.2868 13.1995 13.5982C11.8869 14.9096 10.1066 15.6511 8.25 15.6511ZM8.25 16.6499C10.3718 16.6499 12.4063 15.8044 13.9066 14.3091C15.4069 12.8078 16.25 10.7733 16.25 8.64691C16.25 6.52664 15.4069 4.49202 13.9066 2.99067C12.4063 1.49545 10.3718 0.649902 8.25 0.649902C6.12815 0.649902 4.0937 1.49545 2.59339 2.99067C1.09309 4.49202 0.25 6.52664 0.25 8.64691C0.25 10.7733 1.09309 12.8078 2.59339 14.3091C4.0937 15.8044 6.12815 16.6499 8.25 16.6499Z" fill="#F6BC54"/>
</svg>
