<svg width="402" height="366" viewBox="0 0 402 366" fill="none" xmlns="http://www.w3.org/2000/svg">
<path opacity="0.3" d="M51.438 310.998C47.4735 307.253 43.2571 303.755 39.6026 299.746C2.89246 259.644 19.3761 194.701 70.9386 177.308C92.3382 170.123 114.021 163.6 135.803 157.635C172.952 147.467 213.869 170.152 225.692 207.195C232.22 227.624 238.524 248.158 244.26 268.828C252.167 297.203 245.574 322.437 224.553 342.925C203.305 363.647 177.842 370.333 148.925 361.766C147.84 361.555 146.737 361.449 145.632 361.455L51.438 310.998Z" fill="#E6E6E6"/>
<path opacity="0.3" d="M13.3315 31.0177C16.8782 27.5308 20.2175 23.8506 23.9452 20.604C34.3737 11.7491 47.3657 6.48075 61.0122 5.56068C74.6581 4.64062 88.239 8.12746 99.7597 15.4997C124.411 31.6037 135.586 61.7725 126.929 88.929C115.899 123.493 80.3587 142.732 46.0034 131.703C15.0401 121.811 -8.30421 89.4154 3.84697 51.2826C4.09833 50.1867 4.24775 49.0614 4.29228 47.9363L13.3315 31.0177Z" fill="#E6E6E6"/>
<path opacity="0.3" d="M306.672 272.191C274.259 254.827 263.11 217.374 280.566 184.738C297.038 153.984 336.341 142.187 367.395 158.719C398.45 175.25 410.789 215.124 394.104 245.931C376.466 278.368 339.083 289.591 306.672 272.191Z" fill="#E6E6E6"/>
<path opacity="0.3" d="M299.681 95.6507C284.317 125.966 244.906 138.694 214.369 123.212C181.987 106.797 168.944 68.3946 184.879 36.3916C188.628 28.7205 193.879 21.8874 200.32 16.285C206.762 10.6884 214.262 6.43981 222.378 3.79096C230.492 1.14798 239.056 0.163481 247.56 0.890155C256.063 1.62269 264.334 4.04881 271.88 8.03966C304.725 24.8235 316.579 62.2003 299.681 95.6507Z" fill="#E6E6E6"/>
</svg>
