<svg width="402" height="365" viewBox="0 0 402 365" fill="none" xmlns="http://www.w3.org/2000/svg">
<path opacity="0.3" d="M258.91 360.014C253.608 361.262 248.363 362.85 243.002 363.694C189.319 372.25 144.201 322.713 158.094 270.091C163.889 248.269 170.393 226.579 177.412 205.11C189.389 168.498 230.856 146.84 268.285 157.379C288.928 163.183 309.535 169.234 329.944 175.83C357.981 184.864 375.401 204.267 380.92 233.1C386.504 262.25 378.061 287.189 354.981 306.609C354.207 307.394 353.51 308.256 352.906 309.182L258.91 360.014Z" fill="#E6E6E6"/>
<path opacity="0.3" d="M4.28819 237.59C3.33077 232.708 2.09796 227.892 1.4423 222.992C-0.197741 209.412 2.56028 195.663 9.31087 183.766C16.0615 171.87 26.4489 162.452 38.947 156.897C65.9675 145.192 97.2971 152.484 115.186 174.668C137.955 202.916 134.434 243.18 106.303 265.783C80.9962 286.179 41.0974 287.817 15.9735 256.67C15.1948 255.854 14.3417 255.112 13.4259 254.454L4.28819 237.59Z" fill="#E6E6E6"/>
<path opacity="0.3" d="M367.127 125.587C334.783 143.078 297.395 131.753 279.775 99.204C263.182 68.5108 274.994 29.2077 305.891 12.3922C336.793 -4.42271 376.865 7.2416 393.383 38.1417C410.733 70.7319 399.506 108.119 367.127 125.587Z" fill="#E6E6E6"/>
<path opacity="0.3" d="M215.961 34.1723C232.795 63.6969 221.709 103.607 191.961 120.564C160.432 138.553 121.197 128.284 103.274 97.3554C98.9377 90.002 96.1252 81.8521 95.0002 73.3904C93.8752 64.9288 94.4611 56.3271 96.7287 48.0969C98.9904 39.8661 102.881 32.1745 108.178 25.478C113.469 18.7814 120.055 13.2177 127.537 9.11549C159.641 -9.0543 197.358 1.63896 215.961 34.1723Z" fill="#E6E6E6"/>
</svg>
