<svg width="225" height="44" viewBox="0 0 225 44" fill="none" xmlns="http://www.w3.org/2000/svg">
<path d="M16.5598 11.275C16.6 11.1925 16.6626 11.123 16.7404 11.0744C16.8182 11.0258 16.9081 11 16.9998 11C17.0916 11 17.1815 11.0258 17.2593 11.0744C17.3371 11.123 17.3996 11.1925 17.4398 11.275L19.1833 14.8088C19.2182 14.8802 19.27 14.9421 19.3342 14.9891C19.3985 15.036 19.4731 15.0667 19.5518 15.0782L23.4568 15.6448C23.8556 15.7025 24.0178 16.1948 23.7263 16.478L20.9048 19.2308C20.8479 19.2863 20.8054 19.3549 20.7809 19.4306C20.7565 19.5064 20.7509 19.5869 20.7646 19.6653L21.4301 23.5537C21.445 23.6435 21.4347 23.7357 21.4001 23.8199C21.3656 23.9041 21.3082 23.9771 21.2345 24.0305C21.1608 24.0839 21.0737 24.1157 20.9829 24.1223C20.8921 24.129 20.8013 24.1101 20.7206 24.068L17.2281 22.231C17.1581 22.1944 17.0802 22.1752 17.0012 22.1752C16.9222 22.1752 16.8444 22.1944 16.7743 22.231L13.2818 24.068C13.2012 24.1094 13.1107 24.1276 13.0204 24.1206C12.9301 24.1136 12.8435 24.0817 12.7702 24.0284C12.6969 23.9751 12.6399 23.9025 12.6055 23.8187C12.571 23.7349 12.5605 23.6432 12.5751 23.5537L13.2406 19.6653C13.2546 19.5871 13.2494 19.5067 13.2255 19.431C13.2015 19.3553 13.1595 19.2866 13.1031 19.2308L10.2706 16.478C10.2057 16.4143 10.1598 16.3338 10.1382 16.2455C10.1165 16.1572 10.1198 16.0646 10.1478 15.9781C10.1758 15.8916 10.2273 15.8146 10.2966 15.7557C10.3659 15.6968 10.4502 15.6584 10.5401 15.6448L14.4451 15.0782C14.5238 15.0667 14.5985 15.036 14.6627 14.9891C14.7269 14.9421 14.7787 14.8802 14.8136 14.8088L16.5598 11.275Z" fill="#F6BC54"/>
<path d="M0.5 5.5C0.5 4.04131 1.07946 2.64236 2.11091 1.61091C3.14236 0.579463 4.54131 0 6 0H28C29.4587 0 30.8576 0.579463 31.8891 1.61091C32.9205 2.64236 33.5 4.04131 33.5 5.5V42.625C33.4999 42.8737 33.4323 43.1177 33.3044 43.3311C33.1766 43.5444 32.9933 43.7191 32.774 43.8365C32.5547 43.9539 32.3077 44.0096 32.0593 43.9977C31.8109 43.9858 31.5703 43.9068 31.3632 43.769L17 36.0277L2.63675 43.769C2.42969 43.9068 2.18913 43.9858 1.9407 43.9977C1.69227 44.0096 1.44527 43.9539 1.226 43.8365C1.00673 43.7191 0.823411 43.5444 0.695564 43.3311C0.567716 43.1177 0.500128 42.8737 0.5 42.625V5.5ZM6 2.75C5.27065 2.75 4.57118 3.03973 4.05546 3.55546C3.53973 4.07118 3.25 4.77065 3.25 5.5V40.0565L16.2382 33.231C16.4639 33.0808 16.7289 33.0007 17 33.0007C17.2711 33.0007 17.5361 33.0808 17.7618 33.231L30.75 40.0565V5.5C30.75 4.77065 30.4603 4.07118 29.9445 3.55546C29.4288 3.03973 28.7293 2.75 28 2.75H6Z" fill="#F6BC54"/>
<path fill-rule="evenodd" clip-rule="evenodd" d="M52.17 13.6801H65.7284C66.0899 10.6204 66.1119 7.68497 66.1306 5.19335C66.1321 5.00181 66.1335 4.81289 66.135 4.62674L66.1433 3.63507H70.9854L70.9699 4.65034C70.9678 4.78527 70.9658 4.9219 70.9637 5.06016C70.9271 7.52108 70.8829 10.5001 70.5311 13.6801H84.935V18.3401H72.0695C74.5297 25.3031 78.8346 30.8431 84.9121 33.3559L86.3829 33.9641L85.1968 35.0253C84.6222 35.5394 83.8054 36.5777 83.3853 37.2564L82.9153 38.0156L82.108 37.6343C75.8703 34.6887 71.5118 29.2907 68.6383 22.4592C66.5621 28.4416 62.5793 34.1512 54.8811 37.6744L54.0677 38.0466L53.6075 37.2796C53.253 36.6888 52.5044 35.8485 51.8888 35.4088L50.4523 34.3827L52.0709 33.6782C59.9069 30.2672 63.3557 24.3722 64.8851 18.3401H52.17V13.6801ZM66.1449 17.3401C66.074 17.6732 65.9978 18.0067 65.916 18.3401C64.4284 24.4027 61.08 30.4477 53.4899 34.1264C53.1581 34.2872 52.8182 34.4435 52.47 34.5951C52.7425 34.7897 53.0295 35.0421 53.3041 35.3184C53.7702 35.7872 54.2007 36.3246 54.465 36.7651C62.3257 33.1675 66.1649 27.2033 68.0591 21.0105C68.2279 20.4585 68.3813 19.9047 68.5207 19.3506C68.7104 19.8994 68.9085 20.4398 69.115 20.9714C71.9121 28.1728 76.2586 33.7662 82.535 36.7301C82.8321 36.2502 83.3082 35.6062 83.7879 35.0514C84.043 34.7564 84.2992 34.4866 84.53 34.2801C84.196 34.142 83.8672 33.9953 83.5438 33.8404C77.556 30.9717 73.3855 25.2614 71.0109 18.3401C70.8974 18.0094 70.7881 17.6761 70.6829 17.3401H83.935V14.6801H69.4005C69.445 14.3451 69.4857 14.0117 69.523 13.6801C69.8496 10.7763 69.9166 8.01538 69.9547 5.63507C69.9585 5.40049 69.9619 5.1696 69.9653 4.94263C69.9669 4.83929 69.9684 4.73677 69.97 4.63507H67.135C67.1332 4.849 67.1317 5.06726 67.1301 5.28961C67.1128 7.71095 67.0921 10.6165 66.7372 13.6801C66.6988 14.0117 66.6564 14.3452 66.6098 14.6801H53.17V17.3401H66.1449ZM101.1 3.63507H105.795V6.75007H119.13V15.7151H114.47V11.1651H92.6V12.6651H114.23V16.9751H108.405C108.791 18.1631 109.234 19.3074 109.734 20.3976C111.633 19.1311 113.664 17.6267 115.013 16.4198L115.668 15.8342L119.27 18.9395L118.339 19.6926C116.459 21.2131 114.032 22.8776 111.853 24.1828C113.921 27.2233 116.581 29.5666 119.831 30.8666L121.34 31.47L120.122 32.5449C119.619 32.9886 118.881 33.9144 118.508 34.5662L118.055 35.3591L117.224 34.9797C110.569 31.9389 106.449 25.4669 104.158 17.5916C103.685 17.9405 103.191 18.279 102.678 18.6069C105.479 21.3761 106.997 24.696 107.493 27.7497C107.794 29.6059 107.722 31.3881 107.31 32.9048C106.904 34.4001 106.145 35.7103 105.009 36.5165C104.345 37.0403 103.699 37.4007 102.972 37.6213C102.249 37.8411 101.499 37.9051 100.665 37.9051C99.8017 37.9051 98.6602 37.8693 97.5556 37.798L96.7093 37.7434L96.625 36.8996C96.5621 36.2714 96.3411 35.3578 95.9997 34.8064L95.3349 33.7324C93.3695 34.6997 91.3852 35.5263 89.5344 36.1394L88.6949 36.4175L88.3163 35.6182C88.0359 35.0262 87.4848 34.1511 87.0481 33.6208L86.0564 32.4166L87.5646 32.0182C92.4759 30.7209 98.3473 27.686 101.746 24.7281C101.653 24.544 101.554 24.3596 101.45 24.1754C98.3768 26.2568 94.1518 28.3502 90.7808 29.552L89.966 29.8425L89.5612 29.078C89.2576 28.5045 88.7539 27.7032 88.3379 27.2872L87.1215 26.0708L88.7804 25.6157C92.0805 24.7104 96.3136 22.8043 99.0053 21.0093C98.9228 20.9283 98.8389 20.8477 98.7535 20.7675C96.0607 22.0548 93.179 23.0966 90.5122 23.8659L89.7568 24.0838L89.3668 23.4012C89.0951 22.9259 88.4411 21.9232 88.0672 21.5205L86.9054 20.2694L88.5649 19.8681C91.4245 19.1766 94.4283 18.1818 97.0588 16.9751H92.525V15.7151H88.045V6.75007H101.1V3.63507ZM102.1 7.75007H89.045V14.7151H91.6V10.1651H115.47V14.7151H118.13V7.75007H104.795V4.63507H102.1V7.75007ZM101.02 15.9751C100.739 16.1552 100.449 16.3323 100.15 16.5061C99.9517 16.6217 99.7495 16.7358 99.544 16.8484C99.5071 16.8686 99.4702 16.8888 99.4331 16.9089C99.3923 16.931 99.3514 16.9531 99.3103 16.9751C96.5071 18.478 93.114 19.7103 89.875 20.5678C89.5144 20.6632 89.1558 20.754 88.8 20.8401C88.9952 21.0503 89.2355 21.37 89.4684 21.7053C89.7783 22.1515 90.0751 22.6253 90.235 22.9051C92.7482 22.1801 95.4244 21.2179 97.9328 20.0491C98.1618 19.9424 98.3895 19.8339 98.6154 19.7238C98.7177 19.674 98.8195 19.6238 98.9211 19.5733C98.9242 19.576 98.9274 19.5787 98.9306 19.5815C99.2016 19.8158 99.4604 20.0546 99.7073 20.297C99.7498 20.3388 99.792 20.3808 99.8339 20.4228C100.074 20.6641 100.303 20.909 100.521 21.1567C100.268 21.3506 99.995 21.5466 99.7047 21.7437C97.1811 23.4566 93.3458 25.2403 90.1058 26.2659C89.7439 26.3805 89.3894 26.4856 89.045 26.5801C89.2734 26.8085 89.5084 27.1098 89.7271 27.4263C90.0109 27.8373 90.267 28.2739 90.445 28.6101C93.7738 27.4233 97.9406 25.3507 100.926 23.3229C101.21 23.1301 101.483 22.9377 101.743 22.7465C101.932 23.0292 102.109 23.3135 102.272 23.5985C102.354 23.7405 102.432 23.8827 102.508 24.025C102.675 24.3408 102.828 24.657 102.966 24.9721C102.718 25.2061 102.455 25.4407 102.177 25.6751C98.8549 28.4853 93.5408 31.2705 88.8581 32.6902C88.5082 32.7963 88.1618 32.8948 87.82 32.9851C88.021 33.2291 88.2396 33.5321 88.4494 33.8505C88.751 34.3082 89.0342 34.7978 89.22 35.1901C93.7393 33.6931 99.0564 30.8967 102.853 27.9417C103.154 27.7076 103.445 27.4726 103.726 27.2372C103.816 27.6191 103.885 27.9944 103.934 28.3605C104.276 30.885 103.689 32.9754 102.555 33.7901C101.855 34.3851 101.085 34.4551 100.14 34.4551C99.5868 34.4551 98.8517 34.4385 98.0256 34.3828C97.6497 34.3574 97.255 34.3239 96.85 34.2801C97.04 34.5869 97.1933 34.9548 97.3126 35.3302C97.4791 35.854 97.5792 36.3923 97.62 36.8001C98.705 36.8701 99.825 36.9051 100.665 36.9051C102.24 36.9051 103.22 36.6601 104.41 35.7151C106.479 34.2688 107.303 30.4359 106.16 26.3472C106.049 25.9488 105.919 25.548 105.77 25.1467C105.732 25.0443 105.692 24.9419 105.652 24.8395C105.28 23.9038 104.803 22.9683 104.212 22.058C104.163 21.983 104.113 21.9082 104.063 21.8336C103.434 20.9003 102.683 19.9958 101.8 19.1477C101.551 18.9087 101.292 18.6743 101.022 18.4449C101.328 18.2672 101.628 18.0861 101.922 17.9017C102.401 17.6016 102.864 17.2926 103.306 16.9751C103.498 16.8375 103.686 16.6984 103.87 16.5577C104.12 16.3664 104.363 16.1721 104.598 15.9751H104.75C104.753 15.9837 104.755 15.9924 104.757 16.001C104.839 16.3137 104.923 16.6241 105.009 16.9321C105.013 16.9464 105.017 16.9607 105.021 16.9751C105.538 18.8038 106.151 20.5474 106.867 22.1831C107.03 22.5545 107.198 22.9204 107.371 23.2804C107.473 23.4905 107.576 23.6985 107.68 23.9046C110.016 28.4941 113.273 32.0752 117.64 34.0701C117.899 33.6165 118.305 33.0562 118.718 32.5703C118.974 32.2689 119.232 31.9961 119.46 31.7951C119.123 31.6603 118.792 31.5151 118.468 31.36C115.432 29.9085 112.945 27.5841 110.988 24.6892C110.802 24.4139 110.621 24.1335 110.444 23.8482C110.726 23.6877 111.014 23.5191 111.307 23.3437C113.156 22.2381 115.196 20.8631 116.91 19.5455C117.186 19.3334 117.453 19.1228 117.71 18.9151L115.68 17.1651C114.262 18.434 112.136 20.0036 110.171 21.308C109.886 21.4972 109.604 21.6807 109.328 21.857C109.177 21.5591 109.031 21.257 108.889 20.9511C108.301 19.686 107.79 18.355 107.355 16.9751C107.251 16.6445 107.151 16.3111 107.055 15.9751H113.23V13.6651H93.525V15.9751H101.02ZM103.006 29.084C101.036 30.5648 98.7259 31.9872 96.3488 33.2201L96.9575 33.2859C98.2081 33.4211 99.3609 33.4551 100.14 33.4551C101.056 33.4551 101.5 33.374 101.907 33.0281L101.938 33.0017L101.972 32.9779C102.315 32.7312 102.684 32.1728 102.886 31.2315C103.017 30.6185 103.066 29.8903 103.006 29.084ZM123.08 7.69507H128.505V3.91507H132.955V7.69507H136.805C137.179 6.95773 137.531 6.20333 137.86 5.43259L138.209 4.61483L141.661 5.63007H152.233L152.955 5.38926L153.327 5.63007H153.535V5.76507L155.967 7.34149L155.618 8.12301C154.247 11.1911 152.505 14.9422 150.875 18.0682C154.252 21.2591 155.248 24.1139 155.25 26.8169C155.285 29.0967 154.743 31.156 153.014 32.2807C152.212 32.814 151.241 33.0923 150.235 33.2085L150.23 33.209C149.209 33.3225 147.886 33.3203 146.766 33.248L145.876 33.1906L145.831 32.3C145.82 32.082 145.771 31.7949 145.695 31.4935V37.8001H141.07V18.5501H134.628C134.201 19.0264 133.764 19.4914 133.317 19.9451H140.025V37.1701H135.47V35.5951H129.595V37.6601H125.18V26.3493C124.746 26.6096 124.306 26.862 123.862 27.1063L122.994 27.5836L122.508 26.7203C122.25 26.2612 121.472 25.2784 121.004 24.7774L120.089 23.7972L121.289 23.1998C123.827 21.937 126.18 20.3762 128.313 18.5501H121.505V14.2051H128.505V12.0051H123.08V7.69507ZM129.505 11.0051V15.2051H122.505V17.5501H130.872C130.818 17.6036 130.764 17.6569 130.71 17.7101C130.419 17.9953 130.123 18.2754 129.822 18.5501C129.295 19.0316 128.754 19.4967 128.2 19.9451C128.018 20.0921 127.835 20.2373 127.65 20.3806C127.541 20.4651 127.432 20.5489 127.322 20.632C126.746 21.0683 126.157 21.4869 125.554 21.8875C125.43 21.97 125.305 22.0517 125.18 22.1327C124.361 22.6621 123.519 23.1585 122.655 23.6206C122.351 23.783 122.044 23.9412 121.735 24.0951C121.924 24.2972 122.164 24.5771 122.407 24.8769C122.794 25.3559 123.186 25.8856 123.38 26.2301V26.2301C123.604 26.1071 123.826 25.9819 124.047 25.8548C124.115 25.8158 124.183 25.7766 124.25 25.7373C124.563 25.5551 124.873 25.3687 125.18 25.1782C125.516 24.9696 125.85 24.756 126.18 24.5375V36.6601H128.595V34.5951H136.47V36.1701H139.025V20.9451H130.824C131.187 20.6188 131.545 20.2855 131.897 19.9451C132.365 19.4924 132.823 19.0274 133.271 18.5501C133.578 18.2225 133.881 17.8891 134.179 17.5501H140.6V15.2051H136.089C136.337 14.8763 136.581 14.5429 136.821 14.2051C138.3 12.12 139.614 9.86317 140.743 7.44481C140.854 7.20752 140.963 6.96868 141.07 6.72829C141.085 6.69558 141.099 6.66284 141.114 6.63007C141.129 6.59511 141.145 6.56011 141.16 6.52507L138.78 5.82507C138.337 6.86277 137.853 7.87189 137.33 8.85067C137.011 9.44722 136.678 10.0325 136.33 10.6061V8.69507H131.955V4.91507H129.505V8.69507H124.08V11.0051H129.505ZM128.595 32.3551H136.47V28.6451H128.595V32.3551ZM136.47 23.1501H128.595V26.5451H136.47V23.1501ZM135.47 24.1501H129.595V25.5451H135.47V24.1501ZM129.595 29.6451V31.3551H135.47V29.6451H129.595ZM133.845 14.2051C134.401 13.4947 134.933 12.7611 135.439 12.0051C135.659 11.6759 135.874 11.3426 136.085 11.0051H131.955V15.2051H133.033C133.309 14.8771 133.58 14.5437 133.845 14.2051ZM132.955 13.7193C133.395 13.1627 133.82 12.5911 134.228 12.0051H132.955V13.7193ZM141.07 9.06335C140.161 10.8712 139.148 12.5867 138.04 14.2051H141.07V9.06335ZM144.695 9.08007H151.211C151.081 9.40188 150.944 9.73606 150.802 10.0801C149.701 12.7487 148.282 16.0087 146.9 18.6701C150.61 21.7151 151.73 24.3751 151.73 26.5801C151.73 27.8751 151.485 28.8901 150.645 29.3451C150.225 29.5901 149.63 29.7301 149 29.7651C148.505 29.8101 147.893 29.8117 147.222 29.7791C146.85 29.761 146.459 29.7325 146.06 29.6951C146.234 29.9857 146.391 30.3548 146.516 30.7371C146.693 31.2757 146.81 31.8407 146.83 32.2501C147.915 32.3201 149.175 32.3201 150.12 32.2151C151.03 32.1101 151.835 31.8651 152.465 31.4451C153.76 30.6051 154.285 28.9951 154.25 26.8251C154.25 24.3051 153.305 21.5401 149.63 18.2851C151.345 15.0651 153.235 11.0051 154.705 7.71507L152.815 6.49008L152.395 6.63007H142.07V36.8001H144.695V9.08007ZM149.72 10.0801H145.695V18.8208L146.012 18.2093C147.312 15.707 148.65 12.6572 149.72 10.0801ZM145.695 18.9748V28.6565L146.153 28.6994C147.25 28.8022 148.229 28.831 148.909 28.7692L148.927 28.7676L148.945 28.7666C149.487 28.7365 149.908 28.6174 150.141 28.4813L150.155 28.4733L150.169 28.4658C150.462 28.3071 150.73 27.866 150.73 26.5801C150.73 24.7712 149.831 22.3694 146.266 19.4431L145.695 18.9748ZM157.17 9.02507H167.153C167.775 7.46759 168.297 5.89213 168.72 4.33775L168.976 3.39519L173.645 4.54725L173.336 5.5574C172.984 6.71103 172.593 7.87026 172.162 9.02507H189.83V13.5801H180.555V20.1201H188.465V24.5701H180.555V32.5101H189.83V36.9951H166.655V32.5101H175.93V24.5701H168.02V20.1201H175.93V13.5801H170.22C169.127 15.839 167.855 18.0266 166.38 20.0621V37.6951H161.755V25.2526C160.97 25.9613 160.145 26.6298 159.279 27.2521L158.241 27.9977L157.767 26.8115C157.526 26.2106 156.908 25.1615 156.513 24.6018L155.936 23.7846L156.753 23.208C158.615 21.8948 160.282 20.272 161.755 18.4476V18.0201H162.094C163.173 16.633 164.143 15.1379 165.003 13.5801H157.17V9.02507ZM166.657 12.5801C166.49 12.9155 166.318 13.249 166.141 13.5801C165.316 15.125 164.385 16.6189 163.349 18.0201C163.155 18.2827 162.957 18.542 162.755 18.7979C162.696 18.8722 162.637 18.9463 162.578 19.0201C162.31 19.3536 162.036 19.6808 161.755 20.0012C160.429 21.5143 158.958 22.8744 157.343 24.0159C157.339 24.0189 157.334 24.022 157.33 24.0251C157.332 24.0273 157.333 24.0296 157.335 24.0318C157.597 24.4042 157.953 24.9782 158.252 25.5266C158.431 25.8569 158.59 26.1779 158.695 26.4401C158.974 26.2396 159.249 26.0341 159.519 25.8237C160.299 25.2165 161.044 24.569 161.755 23.8862C162.096 23.5584 162.429 23.2225 162.755 22.879V36.6951H165.38V19.7353C165.554 19.4991 165.726 19.2607 165.895 19.0201C166.059 18.7858 166.221 18.5495 166.38 18.3113C167.39 16.8003 168.296 15.2128 169.107 13.5801C169.271 13.2485 169.432 12.9151 169.589 12.5801H188.83V10.0251H170.701C170.835 9.69256 170.966 9.35914 171.093 9.02507C171.448 8.0937 171.776 7.15722 172.079 6.22087C172.182 5.90219 172.283 5.58352 172.38 5.26507L169.685 4.60007C169.287 6.06284 168.802 7.54865 168.228 9.02507C168.098 9.35901 167.964 9.69247 167.825 10.0251H158.17V12.5801H166.657ZM176.93 21.1201H169.02V23.5701H176.93V33.5101H167.655V35.9951H188.83V33.5101H179.555V23.5701H187.465V21.1201H179.555V14.3651H176.93V21.1201ZM191.61 5.14007H205.72V6.78202L206.862 7.23141C208.514 6.25836 210.429 4.91964 211.636 3.90471L212.282 3.36182L215.5 6.08507H224.41V27.0701C224.41 28.1489 224.234 29.3271 223.071 30.0005L223.062 30.006L223.052 30.0113C222.093 30.5389 220.887 30.5901 219.49 30.5901H218.845V37.8001H214.675V7.02965C213.414 8.00627 211.899 8.98895 210.458 9.83007H214.19V21.4701C214.19 24.4741 213.99 27.4832 212.95 30.2643C211.896 33.0792 210.004 35.6053 206.725 37.6801L205.914 38.1931L205.368 37.4043C205.243 37.2233 205.02 36.9452 204.766 36.6707C204.503 36.3876 204.26 36.1668 204.095 36.0571L203.795 35.8569V37.8351H199.52V31.3269C197.167 31.8569 194.876 32.3621 192.921 32.7736L191.933 32.9817L191.043 28.5331L192.056 28.3595C192.473 28.288 192.921 28.2082 193.395 28.1215V9.48507H191.61V5.14007ZM194.395 8.48507V28.953C194.05 29.0177 193.717 29.0795 193.395 29.138C193.333 29.1493 193.271 29.1604 193.21 29.1715C192.866 29.2336 192.537 29.2916 192.225 29.3451L192.715 31.7951C193.033 31.7282 193.359 31.6589 193.693 31.5874C195.474 31.2062 197.477 30.7627 199.52 30.3018C199.853 30.2268 200.186 30.1514 200.52 30.0757V36.8351H202.795V8.48507H204.72V6.14007H192.61V8.48507H194.395ZM196.6 8.48507V13.4901H200.52V8.48507H196.6ZM197.6 9.48507V12.4901H199.52V9.48507H197.6ZM200.52 15.6951H196.6V20.7001H200.52V15.6951ZM199.52 16.6951H197.6V19.7001H199.52V16.6951ZM200.52 22.9401H196.6V28.5279C196.928 28.4633 197.262 28.3971 197.6 28.3296C198.227 28.2043 198.869 28.0744 199.52 27.9415C199.851 27.8739 200.185 27.8054 200.52 27.7364V22.9401ZM199.52 23.9401H197.6V27.3097C198.227 27.1841 198.869 27.0539 199.52 26.9209V23.9401ZM204.805 9.48507H203.795V25.9105C204.116 25.8286 204.454 25.741 204.805 25.6483V9.48507ZM205.805 26.417C205.46 26.5095 205.126 26.5981 204.805 26.6823C204.716 26.7055 204.628 26.7284 204.541 26.751C204.284 26.8179 204.034 26.8818 203.795 26.9423C203.717 26.9619 203.641 26.9812 203.565 27.0001L204.44 29.2399C205.578 28.8546 206.84 28.4214 208.157 27.9651C208.416 27.8754 208.677 27.7847 208.94 27.6935C209.088 27.642 209.236 27.5904 209.385 27.5386C209.76 27.4082 210.137 27.2766 210.515 27.1444C210.425 27.5393 210.32 27.9294 210.198 28.3142C209.456 30.6501 208.073 32.7927 205.526 34.6336C205.248 34.8344 204.956 35.0316 204.65 35.2251C204.89 35.3853 205.167 35.6407 205.427 35.9143C205.735 36.2386 206.019 36.5883 206.19 36.8351C210.243 34.2707 211.989 31.0323 212.712 27.4335C212.758 27.2008 212.801 26.9666 212.839 26.7309C213.116 25.0401 213.19 23.276 213.19 21.4701V10.8301H211.02V21.4351C211.02 22.2799 211.003 23.1149 210.951 23.9363C210.931 24.2552 210.906 24.572 210.874 24.8866C210.87 24.9255 210.866 24.9643 210.862 25.0031C210.777 25.0275 210.693 25.0519 210.608 25.0762C210.344 25.1522 210.081 25.2275 209.821 25.3019C209.524 25.3864 209.231 25.4698 208.94 25.5519C208.602 25.6473 208.268 25.7409 207.94 25.8324V10.0754C208.26 9.91017 208.595 9.7314 208.94 9.5415C210.348 8.76586 211.915 7.80462 213.278 6.82425C213.562 6.61986 213.837 6.41463 214.1 6.21007L212.28 4.67007C211.192 5.58503 209.562 6.74458 208.033 7.69201C207.732 7.87827 207.435 8.05633 207.147 8.22272C207.079 8.262 207.012 8.30063 206.945 8.33856L205.805 7.89007V26.417ZM208.94 10.6794V24.5126C209.266 24.4203 209.596 24.3264 209.928 24.2311C209.997 23.3295 210.02 22.3973 210.02 21.4351V10.0825C209.651 10.2929 209.289 10.4927 208.94 10.6794ZM208.99 28.7348C207.489 29.2558 206.046 29.752 204.761 30.1872L203.856 30.4937L203.795 30.3372V34.5824L204.116 34.3797C206.738 32.7228 208.18 30.8108 208.99 28.7348ZM217.845 9.29007H221.205V27.0351C221.205 27.3501 221.1 27.4551 220.82 27.4551C220.68 27.4551 220.345 27.4551 219.907 27.4485C219.594 27.4438 219.229 27.4358 218.845 27.4221C218.827 27.4214 218.808 27.4208 218.79 27.4201C218.808 27.4547 218.827 27.4907 218.845 27.5278C218.974 27.7901 219.101 28.1101 219.209 28.434C219.347 28.8511 219.453 29.2747 219.49 29.5901C220.925 29.5901 221.87 29.5201 222.57 29.1351C223.235 28.7501 223.41 28.0851 223.41 27.0701V7.08507H215.675V36.8001H217.845V9.29007ZM218.845 26.4214C219.358 26.4402 219.838 26.4485 220.205 26.4522V10.2901H218.845V26.4214Z" fill="#F6BC54"/>
</svg>
