<svg width="23" height="23" viewBox="0 0 23 23" fill="none" xmlns="http://www.w3.org/2000/svg">
<path d="M21.9648 2.97312C22.1406 3.14893 22.2402 3.38327 22.2402 3.63526C22.2402 3.88139 22.1406 4.11587 21.9648 4.29168L20.0195 6.24305L16.2812 2.50427L18.2324 0.558619C18.4082 0.382811 18.6425 0.283203 18.8886 0.283203C19.1406 0.283203 19.375 0.382811 19.5507 0.558619L21.9648 2.97312ZM18.6952 7.56161L14.9628 3.82283L2.23633 16.5513C2.13672 16.6568 2.05469 16.7798 2.01367 16.9204L0.507853 21.4271C0.478556 21.5091 0.478544 21.597 0.496123 21.6849C0.51956 21.767 0.560553 21.8431 0.619146 21.9075C0.683599 21.9661 0.759773 22.0132 0.841804 22.0307C0.929695 22.0483 1.01762 22.0483 1.09965 22.019L5.60546 20.5187C5.74609 20.4719 5.86913 20.3956 5.9746 20.2901L18.6952 7.56161Z" fill="#6A5F4B"/>
</svg>
