<svg width="15" height="12" viewBox="0 0 15 12" fill="none" xmlns="http://www.w3.org/2000/svg">
<path d="M7.78196 1.92818C7.86106 1.84027 7.92902 1.76414 7.99582 1.68796C8.51906 1.10193 9.20871 0.691707 9.9716 0.510038C10.7345 0.33423 11.5343 0.39279 12.262 0.685804C12.9974 0.978817 13.6238 1.49453 14.0539 2.1626C14.4845 2.83067 14.6966 3.61593 14.6626 4.41293C14.6234 5.37987 14.287 6.22375 13.6027 6.90354C13.0331 7.46027 12.4185 7.97603 11.8138 8.50346C11.6023 8.69099 11.3696 8.66752 11.2243 8.47999C11.079 8.29246 11.1236 8.0815 11.3398 7.89397C11.8829 7.41342 12.4448 6.95635 12.9593 6.45236C13.8921 5.5323 14.14 4.41295 13.6946 3.19402C13.2628 2.0161 12.374 1.32459 11.1218 1.21324C9.8263 1.09604 8.84075 1.65278 8.17395 2.77209C7.94251 3.16473 7.62024 3.16473 7.39114 2.77209C6.70852 1.6059 5.51556 1.02573 4.23763 1.22497C3.61713 1.3246 3.04232 1.61178 2.5929 2.05716C2.1429 2.49668 1.84057 3.06507 1.72748 3.68626C1.53471 4.67079 1.76907 5.59676 2.46575 6.29999C3.24973 7.09113 4.11106 7.81775 4.98177 8.51512C5.82669 9.19491 6.72905 9.79855 7.59624 10.449C7.74624 10.5604 7.83939 10.5369 7.97533 10.4373C8.63568 9.93918 9.29896 9.44692 9.97572 8.97224C10.0982 8.89019 10.3062 8.83743 10.4415 8.87845C10.7398 8.97222 10.7497 9.34729 10.4691 9.55826C9.83508 10.0329 9.19525 10.5018 8.55658 10.9706C8.38314 11.0995 8.20675 11.2226 8.03097 11.3457C7.95949 11.4043 7.87104 11.4336 7.77963 11.4336C7.68823 11.4336 7.59974 11.4043 7.52825 11.3457C5.72005 10.0681 3.90717 8.80227 2.2935 7.27274C1.33022 6.35854 0.810482 5.26267 0.910678 3.90309C1.05482 1.9399 2.84485 0.33421 4.8095 0.416254C5.95442 0.463136 6.90072 0.914357 7.65013 1.78754C7.68939 1.82856 7.72864 1.86958 7.78196 1.92818Z" fill="#6A5F4B"/>
</svg>
