<svg width="22" height="13" viewBox="0 0 22 13" fill="none" xmlns="http://www.w3.org/2000/svg">
<g opacity="0.8">
<path opacity="0.8" d="M7.76461 11.495C7.76461 11.2664 7.85542 11.0496 8.01656 10.8914C8.17827 10.7273 8.39683 10.6393 8.62534 10.6393H13.7886C14.0171 10.6393 14.2357 10.7273 14.3974 10.8914C14.5585 11.0496 14.6493 11.2664 14.6493 11.495C14.6493 11.7235 14.5585 11.9461 14.3974 12.1043C14.2357 12.2684 14.0171 12.3564 13.7886 12.3564H8.62534C8.39683 12.3564 8.17827 12.2684 8.01656 12.1043C7.85542 11.9461 7.76461 11.7235 7.76461 11.495ZM4.32225 6.33203C4.32225 6.10348 4.41306 5.88663 4.57419 5.72254C4.73591 5.56431 4.95446 5.47058 5.18298 5.47058H17.231C17.4595 5.47058 17.678 5.56431 17.8397 5.72254C18.0009 5.88663 18.0917 6.10348 18.0917 6.33203C18.0917 6.56058 18.0009 6.77744 17.8397 6.94153C17.678 7.10562 17.4595 7.19348 17.231 7.19348H5.18298C4.95446 7.19348 4.73591 7.10562 4.57419 6.94153C4.41306 6.77744 4.32225 6.56058 4.32225 6.33203ZM0.879883 1.16907C0.879883 0.940513 0.970698 0.723659 1.13183 0.55957C1.29355 0.395482 1.5121 0.307617 1.74062 0.307617H20.6733C20.9018 0.307617 21.1204 0.395482 21.2821 0.55957C21.4432 0.723659 21.5341 0.940513 21.5341 1.16907C21.5341 1.39762 21.4432 1.61447 21.2821 1.77856C21.1204 1.93679 20.9018 2.03051 20.6733 2.03051H1.74062C1.5121 2.03051 1.29355 1.93679 1.13183 1.77856C0.970698 1.61447 0.879883 1.39762 0.879883 1.16907Z" fill="#F6BC54"/>
</g>
</svg>
