<svg width="16" height="15" viewBox="0 0 16 15" fill="none" xmlns="http://www.w3.org/2000/svg">
<path d="M0.546875 1.88301C0.546875 1.39661 0.739636 0.927818 1.083 0.587924C1.42636 0.24217 1.89219 0.0488281 2.37793 0.0488281H13.3643C13.85 0.0488281 14.3159 0.24217 14.6592 0.587924C15.0026 0.927818 15.1953 1.39661 15.1953 1.88301V9.22005C15.1953 9.70645 15.0026 10.1754 14.6592 10.5211C14.3159 10.861 13.85 11.0544 13.3643 11.0544H11.0756C10.9332 11.0544 10.7932 11.0895 10.666 11.154C10.5389 11.2184 10.4281 11.3063 10.3432 11.4235L8.60353 13.7443C8.51798 13.8615 8.40781 13.9552 8.28066 14.0138C8.15352 14.0783 8.01349 14.1134 7.87111 14.1134C7.72873 14.1134 7.5887 14.0783 7.46155 14.0138C7.3344 13.9552 7.22423 13.8615 7.13869 13.7443L5.39904 11.4235C5.31408 11.3063 5.20332 11.2184 5.07617 11.154C4.94902 11.0895 4.809 11.0544 4.66661 11.0544H2.37793C1.89219 11.0544 1.42636 10.861 1.083 10.5211C0.739636 10.1754 0.546875 9.70645 0.546875 9.22005V1.88301Z" fill="#6A5F4B"/>
</svg>
