<svg width="41" height="31" viewBox="0 0 41 31" fill="none" xmlns="http://www.w3.org/2000/svg">
<g opacity="0.8">
<path opacity="0.8" d="M38.0516 25.7537C38.0516 26.4218 37.785 27.0664 37.311 27.5411C36.8375 28.0158 36.1947 28.2795 35.5244 28.2795H5.20215C4.53184 28.2795 3.88906 28.0158 3.41562 27.5411C2.9416 27.0664 2.67501 26.4218 2.67501 25.7537V10.5932C2.67501 9.91924 2.9416 9.27473 3.41562 8.80591C3.88906 8.33123 4.53184 8.06165 5.20215 8.06165H8.16347C10.1732 8.06165 12.0998 7.26463 13.5207 5.84059L15.6178 3.74844C16.0906 3.27376 16.7311 3.01004 17.399 3.01004H23.3223C23.9926 3.01004 24.6348 3.27376 25.1088 3.74844L27.2012 5.84059C27.9049 6.54382 28.741 7.10644 29.661 7.48735C30.5809 7.86827 31.567 8.06165 32.5631 8.06165H35.5244C36.1947 8.06165 36.8375 8.33123 37.311 8.80591C37.785 9.27473 38.0516 9.91924 38.0516 10.5932V25.7537ZM5.20215 5.53584C3.86211 5.53584 2.57656 6.06914 1.62852 7.0185C0.681055 7.962 0.148438 9.25117 0.148438 10.5932V25.7537C0.148438 27.0957 0.681055 28.3792 1.62852 29.3285C2.57656 30.2779 3.86211 30.811 5.20215 30.811H35.5244C36.8645 30.811 38.15 30.2779 39.0981 29.3285C40.0455 28.3792 40.5781 27.0957 40.5781 25.7537V10.5932C40.5781 9.25117 40.0455 7.962 39.0981 7.0185C38.15 6.06914 36.8645 5.53584 35.5244 5.53584H32.5631C31.2225 5.53584 29.9375 5.00254 28.99 4.05318L26.8977 1.96103C25.9502 1.01167 24.6652 0.484376 23.3246 0.478516H17.402C16.0613 0.484376 14.7764 1.01167 13.8289 1.96103L11.7365 4.05318C10.7891 5.00254 9.5041 5.53584 8.16347 5.53584H5.20215Z" fill="white"/>
<path opacity="0.8" d="M20.3633 23.2281C18.6881 23.2281 17.0809 22.56 15.8967 21.3762C14.7119 20.1924 14.0463 18.5866 14.0463 16.9106C14.0463 15.2345 14.7119 13.623 15.8967 12.4392C17.0809 11.2554 18.6881 10.5931 20.3633 10.5931C22.0385 10.5931 23.6457 11.2554 24.8299 12.4392C26.0146 13.623 26.6803 15.2345 26.6803 16.9106C26.6803 18.5866 26.0146 20.1924 24.8299 21.3762C23.6457 22.56 22.0385 23.2281 20.3633 23.2281ZM20.3633 25.7539C22.7088 25.7539 24.9582 24.8222 26.617 23.1637C28.2758 21.5052 29.2074 19.2547 29.2074 16.9106C29.2074 14.5606 28.2758 12.3102 26.617 10.6518C24.9582 8.99327 22.7088 8.06152 20.3633 8.06152C18.0178 8.06152 15.7684 8.99327 14.1096 10.6518C12.4508 12.3102 11.5191 14.5606 11.5191 16.9106C11.5191 19.2547 12.4508 21.5052 14.1096 23.1637C15.7684 24.8222 18.0178 25.7539 20.3633 25.7539ZM7.72929 11.8532C7.72929 12.1872 7.5957 12.5095 7.35899 12.7498C7.12227 12.9842 6.80059 13.1189 6.46543 13.1189C6.13028 13.1189 5.80917 12.9842 5.57245 12.7498C5.33515 12.5095 5.20215 12.1872 5.20215 11.8532C5.20215 11.5191 5.33515 11.1968 5.57245 10.9624C5.80917 10.7221 6.13028 10.5931 6.46543 10.5931C6.80059 10.5931 7.12227 10.7221 7.35899 10.9624C7.5957 11.1968 7.72929 11.5191 7.72929 11.8532Z" fill="white"/>
</g>
</svg>
