<svg width="12" height="12" viewBox="0 0 12 12" fill="none" xmlns="http://www.w3.org/2000/svg">
<path d="M9.81211 0.9241C9.5414 0.9241 9.28241 1.02959 9.09081 1.22298C8.89979 1.41636 8.79197 1.6742 8.79197 1.94377C8.79197 2.21921 8.89979 2.47705 9.09081 2.67044C9.28241 2.86383 9.5414 2.96932 9.81211 2.96932C10.0828 2.96932 10.3418 2.86383 10.5334 2.67044C10.7244 2.47705 10.8322 2.21921 10.8322 1.94377C10.8322 1.6742 10.7244 1.41636 10.5334 1.22298C10.3418 1.02959 10.0828 0.9241 9.81211 0.9241ZM8.1123 1.94377C8.1123 1.54528 8.25232 1.15851 8.50838 0.847914C8.76443 0.543182 9.11952 0.338079 9.51209 0.267756C9.90467 0.197434 10.3096 0.26187 10.6559 0.461118C11.0021 0.660366 11.2676 0.97683 11.4064 1.35189C11.5447 1.72694 11.547 2.14301 11.4135 2.51807C11.2799 2.89312 11.018 3.21545 10.6746 3.4147C10.3307 3.61981 9.92694 3.69599 9.53319 3.63152C9.14003 3.5612 8.78204 3.36196 8.52247 3.05723L3.95449 5.19029C4.05937 5.52433 4.05937 5.8818 3.95449 6.21584L8.52247 8.3431C8.79668 8.02665 9.18047 7.81569 9.59825 7.76295C10.016 7.7102 10.4385 7.81569 10.7842 8.05596C11.1293 8.30209 11.373 8.65956 11.4674 9.07563C11.5623 9.48585 11.5013 9.91955 11.2963 10.2887C11.0912 10.6579 10.7572 10.9392 10.3582 11.074C9.95918 11.2088 9.52441 11.1912 9.13769 11.0271C8.75097 10.8572 8.43983 10.5524 8.26522 10.1656C8.09003 9.78471 8.06367 9.34521 8.19023 8.94086L3.62286 6.81359C3.39669 7.0773 3.09494 7.26485 2.75919 7.35276C2.42287 7.44066 2.06835 7.4231 1.74257 7.30004C1.41679 7.18283 1.13614 6.96011 0.937511 6.67882C0.738878 6.39166 0.632812 6.05175 0.632812 5.70013C0.632812 5.35438 0.738878 5.01454 0.937511 4.72739C1.13614 4.44023 1.41679 4.22336 1.74257 4.1003C2.06835 3.97724 2.42287 3.95967 2.75919 4.04758C3.09494 4.13548 3.39669 4.32303 3.62286 4.58675L8.19023 2.45948C8.13867 2.29539 8.1123 2.11958 8.1123 1.94377ZM2.33262 4.67459C2.0625 4.67459 1.80294 4.78595 1.61192 4.97933C1.42032 5.16686 1.31309 5.43056 1.31309 5.70013C1.31309 5.9697 1.42032 6.23348 1.61192 6.42687C1.80294 6.61439 2.0625 6.72567 2.33262 6.72567C2.60332 6.72567 2.8629 6.61439 3.05391 6.42687C3.24552 6.23348 3.35275 5.9697 3.35275 5.70013C3.35275 5.43056 3.24552 5.16686 3.05391 4.97933C2.8629 4.78595 2.60332 4.67459 2.33262 4.67459ZM9.81211 8.43102C9.5414 8.43102 9.28241 8.54237 9.09081 8.7299C8.89979 8.92329 8.79197 9.18699 8.79197 9.45656C8.79197 9.72613 8.89979 9.98984 9.09081 10.1832C9.28241 10.3708 9.5414 10.4821 9.81211 10.4821C10.0828 10.4821 10.3418 10.3708 10.5334 10.1832C10.7244 9.98984 10.8322 9.72613 10.8322 9.45656C10.8322 9.18699 10.7244 8.92329 10.5334 8.7299C10.3418 8.54237 10.0828 8.43102 9.81211 8.43102Z" fill="#6A5F4B"/>
</svg>
