<svg width="13" height="13" viewBox="0 0 13 13" fill="none" xmlns="http://www.w3.org/2000/svg">
<path fill-rule="evenodd" clip-rule="evenodd" d="M4.60436 7.88876C4.53581 7.8243 4.44267 7.78332 4.3454 7.78332C4.24814 7.78332 4.15496 7.8243 4.08641 7.88876L1.08642 10.8892V8.86159C1.08642 8.76782 1.04776 8.67409 0.979207 8.60377C0.910652 8.53931 0.817479 8.49825 0.720214 8.49825C0.622948 8.49825 0.530361 8.53931 0.46122 8.60377C0.392666 8.67409 0.354004 8.76782 0.354004 8.86159V11.7741C0.354004 11.8737 0.392666 11.9675 0.46122 12.0379C0.530361 12.1023 0.622948 12.1433 0.720214 12.1433H3.63172C3.72899 12.1433 3.82216 12.1023 3.89072 12.0379C3.95927 11.9675 3.99793 11.8737 3.99793 11.7741C3.99793 11.6803 3.95927 11.5866 3.89072 11.5163C3.82216 11.446 3.72899 11.4108 3.63172 11.4108H1.60437L4.60436 8.41033C4.67291 8.34001 4.71161 8.24628 4.71161 8.15252C4.71161 8.05289 4.67291 7.95909 4.60436 7.88876ZM7.78602 4.70669C7.85458 4.77701 7.94771 4.818 8.04498 4.818C8.14224 4.818 8.23542 4.77701 8.30397 4.70669L11.304 1.70624V3.73387C11.304 3.83349 11.3426 3.92723 11.4112 3.99755C11.4797 4.06201 11.5729 4.10307 11.6702 4.10307C11.7674 4.10307 11.86 4.06201 11.9292 3.99755C11.9977 3.92723 12.0364 3.83349 12.0364 3.73387V0.827206C12.0364 0.727582 11.9977 0.633775 11.9292 0.563452C11.86 0.49899 11.7674 0.458008 11.6702 0.458008H8.75866C8.66139 0.458008 8.56822 0.49899 8.49967 0.563452C8.43111 0.633775 8.39245 0.727582 8.39245 0.827206C8.39245 0.92097 8.43111 1.0147 8.49967 1.08502C8.56822 1.15535 8.66139 1.19054 8.75866 1.19054H10.786L7.78602 4.19098C7.71747 4.26131 7.67877 4.35504 7.67877 4.4488C7.67877 4.54842 7.71747 4.64223 7.78602 4.70669Z" fill="white"/>
</svg>
