<svg width="18" height="17" viewBox="0 0 18 17" fill="none" xmlns="http://www.w3.org/2000/svg">
<g opacity="0.8">
<path opacity="0.8" fill-rule="evenodd" clip-rule="evenodd" d="M9.20504 16.06C9.14645 16.0014 9.09958 15.937 9.07029 15.8608C9.04099 15.7847 9.02344 15.7084 9.02344 15.6263C9.02344 15.5443 9.04099 15.4682 9.07029 15.392C9.09958 15.3158 9.14645 15.2454 9.20504 15.1927L16.1426 8.25422L9.20504 1.31561C9.08785 1.20427 9.02344 1.04605 9.02344 0.881958C9.02344 0.717871 9.08785 0.559649 9.20504 0.448304C9.31637 0.331099 9.47457 0.266602 9.63863 0.266602C9.8027 0.266602 9.96089 0.331099 10.0722 0.448304L17.4434 7.82042C17.502 7.87903 17.5489 7.94354 17.5782 8.01973C17.6074 8.09591 17.625 8.17218 17.625 8.25422C17.625 8.33627 17.6074 8.41239 17.5782 8.48857C17.5489 8.56476 17.502 8.62927 17.4434 8.68788L10.0722 16.06C10.0136 16.1186 9.94919 16.1655 9.87302 16.1948C9.79685 16.2241 9.72066 16.2417 9.63863 16.2417C9.5566 16.2417 9.48041 16.2241 9.40424 16.1948C9.32807 16.1655 9.26364 16.1186 9.20504 16.06Z" fill="#F6BC54"/>
<path opacity="0.8" fill-rule="evenodd" clip-rule="evenodd" d="M0.603549 16.06C0.544956 16.0014 0.498021 15.937 0.468724 15.8608C0.439427 15.7847 0.421875 15.7084 0.421875 15.6263C0.421875 15.5443 0.439427 15.4682 0.468724 15.392C0.498021 15.3158 0.544956 15.2454 0.603549 15.1927L7.541 8.25422L0.603549 1.31561C0.544956 1.25701 0.498021 1.1925 0.468724 1.11631C0.439427 1.04013 0.421875 0.964002 0.421875 0.881958C0.421875 0.799915 0.439427 0.723645 0.468724 0.647462C0.498021 0.571278 0.544956 0.506907 0.603549 0.448304C0.662143 0.389702 0.726576 0.342831 0.802747 0.313529C0.878919 0.284228 0.955105 0.266602 1.03714 0.266602C1.11917 0.266602 1.19528 0.284228 1.27145 0.313529C1.34762 0.342831 1.41213 0.389702 1.47072 0.448304L8.84176 7.82042C8.90036 7.87903 8.94722 7.94354 8.97652 8.01973C9.00581 8.09591 9.02344 8.17218 9.02344 8.25422C9.02344 8.33627 9.00581 8.41239 8.97652 8.48857C8.94722 8.56476 8.90036 8.62927 8.84176 8.68788L1.47072 16.06C1.41799 16.1186 1.34762 16.1655 1.27145 16.1948C1.19528 16.2241 1.11917 16.2417 1.03714 16.2417C0.955105 16.2417 0.878919 16.2241 0.802747 16.1948C0.726576 16.1655 0.662143 16.1186 0.603549 16.06Z" fill="#F6BC54"/>
</g>
</svg>
