<svg width="39" height="38" viewBox="0 0 39 38" fill="none" xmlns="http://www.w3.org/2000/svg">
<g opacity="0.8">
<path opacity="0.8" d="M0.90625 3.99271V30.9498C0.90625 31.571 1.15293 32.1688 1.59297 32.6083C2.03242 33.0479 2.62832 33.2939 3.25 33.2939V3.99271C3.25 3.68212 3.37363 3.3833 3.59336 3.16647C3.81308 2.94378 4.11133 2.82066 4.42187 2.82066H33.7187C33.7187 2.19948 33.4721 1.60168 33.032 1.16217C32.5926 0.722647 31.9967 0.476562 31.375 0.476562H4.42187C3.48965 0.476562 2.5955 0.845764 1.93573 1.50797C1.27656 2.16432 0.90625 3.06093 0.90625 3.99271Z" fill="white"/>
<path opacity="0.8" d="M9.10938 5.16504C8.17715 5.16504 7.283 5.53424 6.62324 6.19645C5.96406 6.8528 5.59375 7.74941 5.59375 8.68119V34.4663C5.59375 35.3981 5.96406 36.2947 6.62324 36.951C7.283 37.6132 8.17715 37.9824 9.10938 37.9824H23.3734C24.3057 37.9824 25.1992 37.6132 25.8578 36.951L37.3773 25.4298C38.0359 24.7735 38.4062 23.8769 38.4062 22.9451V8.68119C38.4062 7.74941 38.0359 6.8528 37.3768 6.19645C36.717 5.53424 35.8229 5.16504 34.8906 5.16504H9.10938ZM23.1719 25.0899C23.1719 24.4687 23.4186 23.8709 23.8586 23.4314C24.298 22.9919 24.8939 22.7458 25.5156 22.7458H35.8188C35.9348 22.7458 36.0484 22.7809 36.1451 22.8454C36.2412 22.9098 36.3168 22.9978 36.3613 23.1092C36.4053 23.2147 36.417 23.3318 36.3941 23.449C36.3719 23.5603 36.3156 23.6658 36.2336 23.7479L24.1727 35.8083C24.0906 35.8903 23.9863 35.949 23.8727 35.9724C23.7584 35.9958 23.6406 35.9841 23.5334 35.9372C23.4262 35.8903 23.3348 35.8199 23.2703 35.7203C23.2059 35.6265 23.1719 35.5094 23.1719 35.3922V25.0899Z" fill="white"/>
</g>
</svg>
