<svg width="37" height="37" viewBox="0 0 37 37" fill="none" xmlns="http://www.w3.org/2000/svg">
<path d="M0 17.6328C0.0963542 16.8716 0.160911 16.1056 0.289063 15.3512C0.951979 11.497 2.68442 8.19493 5.44112 5.42667C5.71958 5.14725 6.03274 5.12702 6.26591 5.35827C6.49909 5.58952 6.4856 5.90844 6.18401 6.21291C4.25693 8.14771 2.83089 10.3966 1.98972 12.9953C0.555002 17.4276 0.817084 21.777 2.80102 25.9906C3.26063 26.9657 3.37914 27.8704 3.07562 28.9062C2.55049 30.6676 2.11208 32.4559 1.63802 34.2327C1.40292 35.1153 1.89047 35.6067 2.76825 35.3726C4.63752 34.8735 6.51161 34.3898 8.3751 33.8656C9.20857 33.6315 9.95917 33.723 10.7464 34.0853C17.2021 37.0559 23.3813 36.5288 29.0884 32.2835C33.0003 29.3736 35.2136 25.3614 35.7715 20.5032C36.8015 11.5423 30.8844 3.29917 22.0815 1.47133C17.0027 0.417215 12.3372 1.47133 8.13422 4.52865C8.01667 4.61344 7.9049 4.70593 7.78253 4.78205C7.5137 4.94874 7.21307 4.90442 7.03964 4.68569C6.9935 4.62868 6.95975 4.56268 6.94053 4.4919C6.92131 4.42112 6.91705 4.34711 6.92802 4.27459C6.93899 4.20207 6.96494 4.13264 7.00423 4.0707C7.04352 4.00877 7.09529 3.95568 7.15623 3.91486C7.64667 3.54679 8.14096 3.17968 8.65838 2.85496C11.1862 1.24433 14.0734 0.284363 17.0624 0.0606918C17.1569 0.0471234 17.2502 0.0268489 17.3418 0H19.5821C20.0465 0.0558854 20.5128 0.102135 20.9763 0.16862C24.763 0.713021 28.093 2.24795 30.9201 4.82832C34.0487 7.68425 35.9921 11.205 36.7119 15.3858C36.8401 16.1297 36.9046 16.8832 37.001 17.6328V19.3672C36.9748 19.4826 36.9551 19.5993 36.9422 19.7169C36.8458 21.355 36.5568 22.9689 35.9786 24.5087C33.4734 31.2111 28.7087 35.2945 21.6835 36.7109C20.9917 36.8497 20.2826 36.9036 19.5811 37H17.3438C17.2645 36.9746 17.1833 36.9556 17.1009 36.9431C14.6596 36.7675 12.279 36.1006 10.1018 34.9823C9.7017 34.779 9.23793 34.7402 8.80966 34.8744C6.86138 35.4034 4.91406 35.9343 2.95807 36.4277C2.58753 36.5215 2.19978 36.5245 1.82784 36.4363C0.817081 36.1742 0.277499 35.1587 0.553072 34.1084C1.05411 32.2035 1.55805 30.2986 2.08896 28.4014C2.1764 28.1153 2.20627 27.8147 2.17683 27.517C2.14739 27.2193 2.05924 26.9304 1.91745 26.667C1.04036 24.9243 0.462833 23.0465 0.209087 21.1122C0.13104 20.534 0.069375 19.9472 0 19.3653V17.6328Z" fill="#F6BC54"/>
</svg>
