<svg width="21" height="27" viewBox="0 0 21 27" fill="none" xmlns="http://www.w3.org/2000/svg">
<path d="M10.2891 7.10941C10.3125 7.06136 10.3494 7.02034 10.3945 6.99163C10.4402 6.9635 10.493 6.94826 10.5469 6.94826C10.6008 6.94826 10.6529 6.9635 10.6986 6.99163C10.7443 7.02034 10.7813 7.06136 10.8047 7.10941L11.826 9.18043C11.8465 9.22203 11.8769 9.25838 11.9144 9.28592C11.9519 9.31347 11.9959 9.33163 12.0422 9.33807L14.3303 9.67034C14.564 9.70433 14.659 9.99266 14.4879 10.1585L12.835 11.7718C12.8016 11.8041 12.7764 11.8445 12.7623 11.889C12.7482 11.933 12.7447 11.9805 12.7529 12.0262L13.1426 14.3052C13.1514 14.358 13.1455 14.4119 13.125 14.4611C13.1051 14.5103 13.0711 14.5531 13.0277 14.5842C12.985 14.6158 12.934 14.6346 12.8806 14.6381C12.8273 14.6422 12.774 14.6311 12.7272 14.6064L10.6805 13.5299C10.6395 13.5082 10.5937 13.4971 10.5475 13.4971C10.5012 13.4971 10.4555 13.5082 10.4144 13.5299L8.36836 14.6064C8.3209 14.6305 8.26818 14.6416 8.21486 14.6375C8.16213 14.6334 8.11115 14.6147 8.06838 14.583C8.02561 14.552 7.99218 14.5092 7.97168 14.4605C7.95175 14.4113 7.94533 14.3574 7.95412 14.3052L8.34436 12.0262C8.35256 11.9805 8.34902 11.9336 8.33495 11.889C8.32148 11.8445 8.2969 11.8046 8.2635 11.7718L6.60411 10.1585C6.56602 10.121 6.53907 10.0741 6.52618 10.022C6.51329 9.97039 6.51564 9.91648 6.53205 9.86549C6.54845 9.8151 6.57833 9.76998 6.61935 9.7354C6.65977 9.70083 6.70898 9.67796 6.76172 9.67034L9.04981 9.33807C9.0961 9.33163 9.13947 9.31347 9.17756 9.28592C9.21506 9.25838 9.24553 9.22203 9.26604 9.18043L10.2891 7.10941Z" fill="#F6BC54"/>
<path d="M0.878906 3.72511C0.878906 2.87009 1.21818 2.05023 1.82287 1.44604C2.42697 0.841259 3.24668 0.501953 4.10156 0.501953H16.9922C17.8471 0.501953 18.6668 0.841259 19.2709 1.44604C19.8756 2.05023 20.2148 2.87009 20.2148 3.72511V25.4814C20.2148 25.6273 20.175 25.7703 20.1 25.8951C20.0256 26.0199 19.9178 26.1225 19.7894 26.1911C19.6611 26.2602 19.5164 26.293 19.3705 26.286C19.2252 26.279 19.084 26.2327 18.9627 26.1518L10.5469 21.6154L2.13107 26.1518C2.00978 26.2327 1.86854 26.279 1.72323 26.286C1.57733 26.293 1.43262 26.2602 1.3043 26.1911C1.17598 26.1225 1.06815 26.0199 0.993741 25.8951C0.918741 25.7703 0.878906 25.6273 0.878906 25.4814V3.72511ZM4.10156 2.11353C3.67441 2.11353 3.26425 2.28347 2.96191 2.58528C2.66015 2.88767 2.49023 3.29789 2.49023 3.72511V23.9759L10.1004 19.9762C10.2328 19.8883 10.3881 19.8415 10.5469 19.8415C10.7057 19.8415 10.861 19.8883 10.9934 19.9762L18.6035 23.9759V3.72511C18.6035 3.29789 18.4336 2.88767 18.1318 2.58528C17.8295 2.28347 17.4193 2.11353 16.9922 2.11353H4.10156Z" fill="#F6BC54"/>
</svg>
