<svg width="14" height="19" viewBox="0 0 14 19" fill="none" xmlns="http://www.w3.org/2000/svg">
<g opacity="0.5">
<path opacity="0.5" d="M11.5527 10.3082C10.9609 11.5154 10.1524 12.7167 9.32618 13.795C8.54689 14.8088 7.70898 15.7875 6.82422 16.7134C5.93945 15.7875 5.10155 14.8088 4.32225 13.795C3.49608 12.7167 2.68753 11.5154 2.09573 10.3082C1.49222 9.08925 1.14652 7.95239 1.14652 6.96787C1.14652 5.46765 1.74415 4.02011 2.81056 2.95355C3.87697 1.89285 5.31836 1.29506 6.82422 1.29506C8.33008 1.29506 9.77147 1.89285 10.8379 2.95355C11.9043 4.02011 12.5019 5.46765 12.5019 6.96787C12.5019 7.95239 12.1562 9.08925 11.5527 10.3082ZM6.82422 18.325C6.82422 18.325 13.6328 11.867 13.6328 6.96787C13.6328 5.16292 12.918 3.42816 11.6406 2.15063C10.3633 0.873095 8.62891 0.158203 6.82422 0.158203C5.01953 0.158203 3.28517 0.873095 2.00783 2.15063C0.730483 3.42816 0.015625 5.16292 0.015625 6.96787C0.015625 11.867 6.82422 18.325 6.82422 18.325Z" fill="white"/>
<path opacity="0.5" d="M6.82425 9.24127C6.22073 9.24127 5.64652 9.00106 5.21879 8.57911C4.79105 8.15129 4.55081 7.57111 4.55081 6.96748C4.55081 6.36971 4.79105 5.78938 5.21879 5.36157C5.64652 4.93961 6.22073 4.6994 6.82425 4.6994C7.42776 4.6994 8.00198 4.93961 8.42971 5.36157C8.85744 5.78938 9.09769 6.36971 9.09769 6.96748C9.09769 7.57111 8.85744 8.15129 8.42971 8.57911C8.00198 9.00106 7.42776 9.24127 6.82425 9.24127ZM6.82425 10.3782C7.72659 10.3782 8.59377 10.0207 9.23244 9.38192C9.87111 8.74313 10.2286 7.87585 10.2286 6.96748C10.2286 6.06496 9.87111 5.19755 9.23244 4.55875C8.59377 3.91996 7.72659 3.5625 6.82425 3.5625C5.92191 3.5625 5.05473 3.91996 4.41606 4.55875C3.77739 5.19755 3.41992 6.06496 3.41992 6.96748C3.41992 7.87585 3.77739 8.74313 4.41606 9.38192C5.05473 10.0207 5.92191 10.3782 6.82425 10.3782Z" fill="white"/>
</g>
</svg>
