<svg width="35" height="34" viewBox="0 0 35 34" fill="none" xmlns="http://www.w3.org/2000/svg">
<path d="M34.2814 3.8386C34.4982 4.05484 34.6154 4.34785 34.6154 4.65317C34.6154 4.95849 34.4982 5.25151 34.2814 5.46775L31.8732 7.87632L27.2619 3.26135L29.6642 0.852784C29.881 0.63654 30.174 0.514648 30.4845 0.514648C30.7892 0.514648 31.0821 0.63654 31.2989 0.852784L34.2814 3.83625V3.8386ZM30.2443 9.50548L25.6271 4.89051L9.91216 20.6136C9.78326 20.7408 9.68952 20.8955 9.63092 21.0661L7.77354 26.6362C7.73839 26.7382 7.73838 26.8466 7.76181 26.9509C7.78525 27.0553 7.83799 27.1502 7.91416 27.2258C7.99033 27.3014 8.08407 27.3547 8.18954 27.3793C8.29501 27.4039 8.4005 27.3993 8.50597 27.3659L14.0724 25.5081C14.2423 25.4519 14.4004 25.3575 14.5235 25.231L30.2443 9.50782V9.50548Z" fill="#6A5F4B"/>
<path fill-rule="evenodd" clip-rule="evenodd" d="M0.824219 30.5128C0.824219 31.4311 1.18756 32.3113 1.83795 32.9607C2.48834 33.6094 3.3672 33.9739 4.28126 33.9739H29.6641C30.5782 33.9739 31.457 33.6094 32.1074 32.9607C32.7578 32.3113 33.1212 31.4311 33.1212 30.5128V16.6679C33.1212 16.362 33.0039 16.0684 32.7871 15.8522C32.5703 15.6359 32.2774 15.514 31.9668 15.514C31.6621 15.514 31.3691 15.6359 31.1523 15.8522C30.9355 16.0684 30.8125 16.362 30.8125 16.6679V30.5128C30.8125 30.8187 30.6954 31.1123 30.4786 31.3286C30.2618 31.5454 29.9688 31.6667 29.6641 31.6667H4.28126C3.97658 31.6667 3.6836 31.5454 3.4668 31.3286C3.25001 31.1123 3.13285 30.8187 3.13285 30.5128V5.13076C3.13285 4.82486 3.25001 4.53126 3.4668 4.31501C3.6836 4.09818 3.97658 3.97688 4.28126 3.97688H19.2812C19.5859 3.97688 19.8789 3.85557 20.0957 3.63874C20.3125 3.4225 20.4356 3.1289 20.4356 2.82299C20.4356 2.51708 20.3125 2.22349 20.0957 2.00724C19.8789 1.791 19.5859 1.66968 19.2812 1.66968H4.28126C3.3672 1.66968 2.48834 2.03419 1.83795 2.68292C1.18756 3.33224 0.824219 4.21246 0.824219 5.13076V30.5128Z" fill="#F6BC54"/>
</svg>
