<svg width="21" height="22" viewBox="0 0 21 22" fill="none" xmlns="http://www.w3.org/2000/svg">
<path fill-rule="evenodd" clip-rule="evenodd" d="M8.5 15.7577C9.44451 15.7577 10.3798 15.5709 11.2524 15.2079C12.125 14.8449 12.9179 14.313 13.5857 13.6423C14.2536 12.9717 14.7834 12.1755 15.1448 11.2992C15.5063 10.423 15.6923 9.48384 15.6923 8.5354C15.6923 7.58696 15.5063 6.64781 15.1448 5.77156C14.7834 4.89532 14.2536 4.09914 13.5857 3.42849C12.9179 2.75784 12.125 2.22585 11.2524 1.8629C10.3798 1.49995 9.44451 1.31314 8.5 1.31314C6.59248 1.31314 4.76309 2.07405 3.41427 3.42849C2.06545 4.78293 1.30769 6.61994 1.30769 8.5354C1.30769 10.4509 2.06545 12.2879 3.41427 13.6423C4.76309 14.9967 6.59248 15.7577 8.5 15.7577ZM17 8.5354C17 10.7991 16.1045 12.9701 14.5104 14.5708C12.9163 16.1715 10.7543 17.0708 8.5 17.0708C6.24566 17.0708 4.08365 16.1715 2.48959 14.5708C0.895533 12.9701 0 10.7991 0 8.5354C0 6.27167 0.895533 4.10066 2.48959 2.49996C4.08365 0.899263 6.24566 0 8.5 0C10.7543 0 12.9163 0.899263 14.5104 2.49996C16.1045 4.10066 17 6.27167 17 8.5354Z" fill="white"/>
<path d="M14 15.7967C14.0371 15.8464 14.0767 15.8936 14.1213 15.9396L18.8864 20.7233C19.1185 20.9565 19.4333 21.0875 19.7616 21.0876C20.0899 21.0878 20.4049 20.9569 20.6371 20.724C20.8693 20.491 20.9999 20.1749 21 19.8453C21.0001 19.5157 20.8698 19.1995 20.6377 18.9664L15.8726 14.1826C15.8284 14.1376 15.7808 14.0961 15.7303 14.0583C15.2448 14.723 14.6613 15.3095 14 15.7979V15.7967Z" fill="white"/>
</svg>
