<svg width="16" height="15" viewBox="0 0 16 15" fill="none" xmlns="http://www.w3.org/2000/svg">
<path d="M15.3281 12.711C15.3281 13.1974 15.1354 13.6662 14.792 14.0061C14.4486 14.3519 13.9828 14.5453 13.4971 14.5453H2.51074C2.025 14.5453 1.55917 14.3519 1.21581 14.0061C0.872448 13.6662 0.679688 13.1974 0.679688 12.711V5.37384C0.679688 4.88743 0.872448 4.41862 1.21581 4.07286C1.55917 3.73296 2.025 3.53955 2.51074 3.53955H4.79942C4.9418 3.53955 5.08182 3.50443 5.20897 3.43997C5.33612 3.37551 5.44688 3.28755 5.53184 3.17035L7.27148 0.849673C7.35703 0.732466 7.4672 0.638724 7.59435 0.58012C7.7215 0.515657 7.86152 0.480469 8.00391 0.480469C8.14629 0.480469 8.28631 0.515657 8.41346 0.58012C8.54061 0.638724 8.65078 0.732466 8.73633 0.849673L10.476 3.17035C10.5609 3.28755 10.6717 3.37551 10.7988 3.43997C10.926 3.50443 11.066 3.53955 11.2084 3.53955H13.4971C13.9828 3.53955 14.4486 3.73296 14.792 4.07286C15.1354 4.41862 15.3281 4.88743 15.3281 5.37384V12.711Z" fill="#6A5F4B"/>
</svg>
