<svg width="17" height="14" viewBox="0 0 17 14" fill="none" xmlns="http://www.w3.org/2000/svg">
<path fill-rule="evenodd" clip-rule="evenodd" d="M0.477334 5.24974C0.53417 5.197 0.602154 5.15013 0.676568 5.12083C0.751568 5.08567 0.831243 5.07397 0.912102 5.07397C0.992961 5.07397 1.07326 5.08567 1.14767 5.12083C1.22209 5.15013 1.29003 5.197 1.34687 5.24974L8.2832 12.1884L15.2195 5.24974C15.335 5.13839 15.4914 5.07397 15.6543 5.07397C15.8172 5.07397 15.9736 5.13839 16.0891 5.24974C16.2045 5.36695 16.2695 5.52517 16.2695 5.68926C16.2695 5.85335 16.2045 6.00578 16.0891 6.12299L8.71797 13.4952C8.66113 13.5538 8.59315 13.5948 8.51874 13.63C8.44374 13.6593 8.36406 13.6768 8.2832 13.6768C8.20234 13.6768 8.12267 13.6593 8.04767 13.63C7.97326 13.5948 7.90527 13.5538 7.84843 13.4952L0.477334 6.12299C0.419912 6.06438 0.374815 5.99987 0.34376 5.92369C0.312705 5.8475 0.296875 5.76544 0.296875 5.68926C0.296875 5.60722 0.312705 5.52523 0.34376 5.45491C0.374815 5.37872 0.419912 5.30834 0.477334 5.24974Z" fill="#F6BC54"/>
<path fill-rule="evenodd" clip-rule="evenodd" d="M0.477334 0.338929C0.53417 0.280327 0.602154 0.233384 0.676568 0.204083C0.751568 0.174782 0.831243 0.157227 0.912102 0.157227C0.992961 0.157227 1.07326 0.174782 1.14767 0.204083C1.22209 0.233384 1.29003 0.280327 1.34687 0.338929L8.2832 7.27747L15.2195 0.338929C15.2764 0.280327 15.3443 0.233384 15.4187 0.204083C15.4937 0.174782 15.5734 0.157227 15.6543 0.157227C15.7352 0.157227 15.8148 0.174782 15.8898 0.204083C15.9643 0.233384 16.0322 0.280327 16.0891 0.338929C16.1465 0.397532 16.1916 0.461975 16.2226 0.538158C16.2531 0.614342 16.2695 0.69054 16.2695 0.772583C16.2695 0.854627 16.2531 0.930753 16.2226 1.00694C16.1916 1.08312 16.1465 1.14763 16.0891 1.20624L8.71797 8.57843C8.66113 8.63703 8.59315 8.6839 8.51874 8.7132C8.44374 8.74251 8.36406 8.76013 8.2832 8.76013C8.20234 8.76013 8.12267 8.74251 8.04767 8.7132C7.97326 8.6839 7.90527 8.63703 7.84843 8.57843L0.477334 1.20624C0.419912 1.1535 0.374815 1.08312 0.34376 1.00694C0.312705 0.930753 0.296875 0.854627 0.296875 0.772583C0.296875 0.69054 0.312705 0.614342 0.34376 0.538158C0.374815 0.461975 0.419912 0.397532 0.477334 0.338929Z" fill="#F6BC54"/>
</svg>
