<svg width="684" height="708" viewBox="0 0 684 708" fill="none" xmlns="http://www.w3.org/2000/svg">
<path d="M440.2 699.359C431.146 701.49 422.195 704.203 413.049 705.64C321.43 720.236 244.433 635.707 268.142 545.916C278.024 508.678 289.127 471.666 301.107 435.031C321.548 372.557 392.323 335.6 456.197 353.584C491.427 363.488 526.6 373.813 561.427 385.069C609.275 400.484 639.014 433.593 648.429 482.794C657.959 532.535 643.546 575.092 604.158 608.226C602.836 609.572 601.651 611.045 600.617 612.622L440.2 699.359Z" fill="#E6E6E6"/>
<path d="M5.64429 490.456C4.01049 482.125 1.90601 473.907 0.787318 465.546C-2.01152 442.373 2.69511 418.912 14.2161 398.611C25.7372 378.311 43.4651 362.24 64.7954 352.76C110.91 332.788 164.382 345.232 194.914 383.086C233.77 431.288 227.755 499.995 179.753 538.565C136.555 573.369 68.4652 576.164 25.5872 523.014C24.2578 521.622 22.8024 520.357 21.2397 519.234L5.64429 490.456Z" fill="#E6E6E6"/>
<path d="M624.893 299.333C569.693 329.179 505.875 309.855 475.808 254.314C447.489 201.938 467.644 134.871 520.384 106.178C573.124 77.4843 641.509 97.3882 669.7 150.116C699.308 205.728 680.15 269.527 624.893 299.333Z" fill="#E6E6E6"/>
<path d="M366.902 143.343C395.631 193.724 376.709 261.827 325.944 290.763C272.124 321.458 205.169 303.936 174.577 251.159C167.18 238.611 162.379 224.705 160.46 210.265C158.541 195.826 159.543 181.149 163.406 167.104C167.269 153.059 173.914 139.934 182.948 128.507C191.981 117.081 203.218 107.586 215.992 100.586C270.778 69.5812 335.148 87.8277 366.902 143.343Z" fill="#E6E6E6"/>
<g clip-path="url(#clip0_9_1401)">
<path d="M148.87 293.89C148.448 293.908 148.031 293.797 147.675 293.571C147.318 293.345 147.04 293.015 146.878 292.625C146.715 292.236 146.676 291.806 146.766 291.394C146.856 290.981 147.07 290.606 147.38 290.32L147.52 289.76L147.46 289.62C147.036 288.616 146.326 287.759 145.418 287.156C144.51 286.553 143.444 286.232 142.355 286.232C141.265 286.232 140.199 286.553 139.291 287.156C138.383 287.759 137.673 288.616 137.25 289.62C135.58 293.62 133.46 297.67 132.94 301.92C132.707 303.799 132.802 305.704 133.22 307.55C129.292 298.997 127.246 289.701 127.22 280.29C127.218 277.928 127.352 275.567 127.62 273.22C127.826 271.3 128.126 269.39 128.52 267.49C130.619 257.199 135.133 247.554 141.69 239.35C144.858 237.62 147.42 234.961 149.03 231.73C149.617 230.57 150.032 229.33 150.26 228.05L149.18 228.15H148.8C148.398 228.189 147.994 228.106 147.641 227.912C147.287 227.717 147.001 227.42 146.819 227.06C146.637 226.7 146.569 226.293 146.623 225.893C146.676 225.494 146.849 225.119 147.12 224.82L147.58 224.25L148.29 223.38L148.37 223.29L149.18 222.29C148.686 221.525 148.022 220.885 147.24 220.42C144.54 218.84 140.81 219.93 138.86 222.42C137.944 223.695 137.321 225.157 137.036 226.7C136.751 228.244 136.81 229.832 137.21 231.35C137.881 233.95 138.987 236.418 140.48 238.65L140.04 239.2C137.355 242.631 135.011 246.315 133.04 250.2C133.519 245.829 132.95 241.407 131.38 237.3C129.8 233.47 126.82 230.3 124.2 226.94C123.509 226.047 122.568 225.38 121.498 225.023C120.427 224.666 119.274 224.636 118.186 224.936C117.097 225.236 116.123 225.853 115.387 226.708C114.65 227.564 114.185 228.619 114.05 229.74V229.88C114.44 230.1 114.82 230.33 115.19 230.58C115.657 230.893 116.018 231.34 116.228 231.862C116.437 232.384 116.485 232.957 116.364 233.507C116.243 234.056 115.959 234.556 115.55 234.942C115.141 235.328 114.625 235.581 114.07 235.67H114.01C114.147 237.07 114.391 238.457 114.74 239.82C115.754 243.632 117.544 247.194 119.997 250.282C122.451 253.371 125.516 255.92 129 257.77L129.68 258.12C127.711 263.693 126.477 269.498 126.01 275.39C125.725 278.867 125.725 282.362 126.01 285.84V285.72C125.265 281.853 123.201 278.364 120.17 275.85C115.68 272.16 109.34 270.85 104.49 267.85C103.975 267.521 103.377 267.346 102.766 267.346C102.155 267.345 101.557 267.519 101.041 267.847C100.526 268.174 100.114 268.642 99.8554 269.195C99.5965 269.748 99.5008 270.364 99.5796 270.97V271.1C100.298 271.393 100.999 271.727 101.68 272.1C102.07 272.32 102.45 272.55 102.83 272.8C103.298 273.112 103.661 273.559 103.871 274.081C104.081 274.604 104.128 275.178 104.005 275.727C103.883 276.277 103.598 276.776 103.186 277.161C102.774 277.545 102.256 277.796 101.7 277.88H101.64H101.53C102.761 280.822 104.494 283.529 106.65 285.88C109.309 288.735 112.524 291.018 116.098 292.586C119.671 294.154 123.527 294.976 127.43 295C128.488 299.603 130.023 304.084 132.01 308.37H148.37C148.43 308.19 148.48 308 148.53 307.82C147.018 307.91 145.5 307.82 144.01 307.55C145.22 306.06 146.43 304.55 147.65 303.07L147.72 302.98L149.58 300.7C149.609 298.362 149.34 296.03 148.78 293.76L148.87 293.89Z" fill="#F2F2F2"/>
<path d="M341.84 308.69C341.837 308.87 341.765 309.041 341.638 309.168C341.511 309.295 341.339 309.368 341.16 309.37H91.7698C91.5895 309.37 91.4165 309.298 91.289 309.171C91.1615 309.043 91.0898 308.871 91.0898 308.69C91.0898 308.51 91.1615 308.337 91.289 308.209C91.4165 308.082 91.5895 308.01 91.7698 308.01H341.21C341.389 308.013 341.561 308.085 341.688 308.212C341.815 308.339 341.887 308.511 341.89 308.69H341.84Z" fill="#CCCCCC"/>
<path d="M221.68 221.54C220.834 221.333 219.955 221.296 219.094 221.43C218.232 221.564 217.406 221.867 216.663 222.321C215.919 222.776 215.273 223.373 214.761 224.078C214.249 224.783 213.882 225.582 213.68 226.43C213.589 226.808 213.532 227.192 213.51 227.58L199.25 232.58L200.16 241.97L220.16 234.68C221.787 234.67 223.354 234.062 224.563 232.973C225.772 231.883 226.539 230.388 226.717 228.77C226.896 227.153 226.475 225.526 225.534 224.198C224.592 222.871 223.196 221.936 221.61 221.57L221.68 221.54Z" fill="#FFB6B6"/>
<path d="M198.45 248.86C192.78 252.81 182.79 254.86 169.2 254.74C168.449 254.742 167.706 254.588 167.018 254.289C166.33 253.989 165.711 253.551 165.2 253C161.57 249.21 161.71 240.56 161.73 239.73L157.73 224.73C157.65 224.5 155.44 218.33 157.73 214.03C158.204 213.128 158.869 212.34 159.679 211.722C160.49 211.104 161.425 210.67 162.42 210.45C170.85 208.22 178.77 230.78 179.78 233.76L191.61 231.76L199.78 231.42L208.09 226.83L212.77 238.03L201.19 246.5C200.378 247.397 199.458 248.19 198.45 248.86V248.86Z" fill="#2F2E41"/>
<path d="M221.279 373.09L229.989 373.49L235.709 340.07L222.849 339.47L221.279 373.09Z" fill="#FFB6B6"/>
<path d="M219.31 368.69L233.13 368.51L232.85 374.42L245.53 384.07C246.16 384.546 246.62 385.211 246.844 385.968C247.068 386.725 247.044 387.534 246.774 388.275C246.504 389.017 246.004 389.653 245.346 390.09C244.688 390.526 243.908 390.74 243.12 390.7L226.72 389.93L224.16 383.93L222.79 389.72L216.6 389.43L219.31 368.69Z" fill="#2F2E41"/>
<path d="M312.27 301.33L315.44 293.2L285.61 277.09L270.54 286.56L312.27 301.33Z" fill="#FFB6B6"/>
<path d="M307.47 301.77L311.72 288.63L317.22 290.78L330.43 281.86C331.082 281.42 331.857 281.201 332.643 281.233C333.428 281.265 334.183 281.548 334.797 282.039C335.411 282.53 335.852 283.204 336.055 283.964C336.259 284.723 336.215 285.527 335.93 286.26L329.93 301.56L323.45 302.07L328.45 305.22L326.2 310.99L307.47 301.77Z" fill="#2F2E41"/>
<path d="M140.879 277.14C140.879 277.14 144.499 300.25 161.609 301.96C178.719 303.67 194.489 295.96 194.489 295.96L242.389 281.21C242.389 281.21 293.389 295.68 301.899 297.97C301.899 297.97 307.799 284.57 307.599 283.71C305.779 275.71 303.409 281.13 303.409 281.13L249.229 257.13C249.229 257.13 240.679 254.85 225.849 261.13C211.019 267.41 171.299 282.53 171.299 282.53L140.879 277.14Z" fill="#2F2E41"/>
<path d="M141.079 275.69C141.079 275.69 138.219 303.37 154.889 307.6C170.729 311.6 192.589 307.5 192.589 307.5L218.589 304.78C218.589 304.78 219.729 338.25 219.729 354.78C225.033 355.501 230.377 355.882 235.729 355.92C236.869 355.92 236.939 355.32 236.939 355.32L239.149 297.47C239.442 292.691 237.825 287.992 234.654 284.404C231.483 280.817 227.018 278.636 222.239 278.34C221.65 278.31 221.059 278.31 220.469 278.34C219.239 278.34 217.949 278.47 216.599 278.6C200.599 280.14 180.679 276.87 180.679 276.87L141.079 275.69Z" fill="#2F2E41"/>
<path d="M187.299 235.57C187.299 235.57 194.069 276.48 189.499 279.75C184.929 283.02 178.649 283.03 178.649 283.03L177.209 260.44L187.299 235.57Z" fill="#2F2E41"/>
<path d="M176.02 185.32L185.07 193.92C189.275 197.915 192.062 203.173 193.008 208.896C193.953 214.619 193.006 220.494 190.31 225.63L185.99 233.87L176.02 185.32Z" fill="#2F2E41"/>
<path d="M174 186.76L186.21 200.69C188.9 203.751 190.567 207.576 190.98 211.63V211.63C191.172 213.474 191.098 215.337 190.76 217.16L186.21 242.31L182.74 278.58C182.74 278.58 155.93 286.7 153.19 274.16C150.45 261.62 174 186.76 174 186.76Z" fill="#F6BC54"/>
<path d="M162.49 281.98C144.87 279.05 140.55 278.46 140.28 278.36L140.02 278.26L141.78 267.66L149.24 249.33C149.72 243.33 152.87 235.22 151.07 228.69C145.84 209.69 154.33 182.93 158.21 180.87L168.97 173.87L172.75 177.33L179.3 186.5C184.69 210.5 188.41 232.88 188.23 234.24L184.9 257.74L180.99 266.74C169.1 272.45 177.09 284.42 162.49 281.98Z" fill="#2F2E41"/>
<path d="M194.39 264.74L222.06 257.34L224.5 256.76L226.23 256.35L228.23 255.87C228.375 255.835 228.526 255.829 228.674 255.853C228.822 255.877 228.963 255.931 229.09 256.01L239.37 268.33C239.461 268.39 239.543 268.464 239.61 268.55L239.68 268.62C239.863 268.871 239.939 269.184 239.892 269.491C239.845 269.798 239.679 270.075 239.43 270.26C239.31 270.354 239.169 270.419 239.02 270.45L197.75 279.95C197.536 279.999 197.313 279.987 197.106 279.914C196.899 279.842 196.716 279.712 196.58 279.54L196.16 279L193.88 268L193.71 266.57C193.61 266.436 193.539 266.283 193.5 266.12C193.468 265.971 193.465 265.817 193.492 265.667C193.52 265.517 193.576 265.374 193.659 265.245C193.741 265.117 193.849 265.007 193.974 264.92C194.1 264.833 194.241 264.772 194.39 264.74V264.74Z" fill="#E6E6E6"/>
<path opacity="0.17" d="M196.209 279L196.629 279.54C196.765 279.712 196.948 279.842 197.155 279.915C197.362 279.987 197.585 280 197.799 279.95L239.069 270.45C239.254 270.402 239.425 270.309 239.566 270.18C239.708 270.051 239.816 269.889 239.881 269.709C239.946 269.529 239.966 269.335 239.939 269.146C239.913 268.956 239.841 268.776 239.729 268.62L239.659 268.55L196.209 279Z" fill="black"/>
<path d="M228.049 255.79L227.309 203.17C227.292 203.013 227.305 202.855 227.35 202.704C227.395 202.553 227.469 202.412 227.569 202.29L232.859 191.29L233.409 190.62C233.614 190.378 233.904 190.224 234.219 190.19L235.369 190.08C235.687 190.052 236.003 190.149 236.249 190.351C236.496 190.553 236.654 190.843 236.689 191.16V191.16L237.689 246.83L238.209 252.19L238.819 258.55L239.819 268.46C239.835 268.629 239.815 268.799 239.76 268.96C239.705 269.12 239.616 269.267 239.499 269.39C239.384 269.513 239.245 269.611 239.09 269.679C238.935 269.746 238.768 269.78 238.599 269.78H237.849C237.561 269.778 237.284 269.671 237.069 269.48L236.649 269.1L236.459 268.92L228.459 256.57C228.228 256.372 228.081 256.093 228.049 255.79V255.79Z" fill="#E6E6E6"/>
<path opacity="0.17" d="M232.859 191.29L236.439 268.92L236.629 269.1L237.049 269.47C237.263 269.666 237.54 269.776 237.829 269.78H238.579C238.899 269.783 239.206 269.66 239.434 269.437C239.663 269.214 239.794 268.909 239.799 268.59V268.46L236.689 191.14C236.654 190.823 236.496 190.533 236.249 190.331C236.003 190.13 235.687 190.032 235.369 190.06L234.219 190.17C233.903 190.201 233.612 190.355 233.409 190.6L232.859 191.29Z" fill="black"/>
<path d="M233.17 194.43L228.33 206.37L228.93 242.08L234.16 249.66L233.17 194.43Z" fill="#F6BC54"/>
<path d="M197.579 264.43C197.446 264.463 197.321 264.523 197.212 264.607C197.103 264.69 197.012 264.795 196.946 264.915C196.879 265.036 196.838 265.168 196.825 265.305C196.812 265.441 196.827 265.579 196.869 265.71L198.999 274.59L200.999 274.02L198.859 265.14C198.826 265.007 198.766 264.882 198.683 264.773C198.599 264.664 198.494 264.573 198.374 264.506C198.254 264.44 198.121 264.399 197.985 264.385C197.848 264.372 197.71 264.387 197.579 264.43Z" fill="#2F2E41"/>
<path d="M201.57 263.29C201.436 263.323 201.311 263.384 201.202 263.467C201.093 263.551 201.003 263.656 200.936 263.776C200.869 263.896 200.828 264.028 200.815 264.165C200.802 264.302 200.817 264.44 200.86 264.57L201.32 266.17L203.32 265.6L202.87 264.01C202.838 263.874 202.778 263.746 202.694 263.634C202.609 263.522 202.502 263.429 202.38 263.361C202.257 263.293 202.122 263.252 201.982 263.24C201.843 263.227 201.702 263.245 201.57 263.29V263.29Z" fill="#2F2E41"/>
<path d="M205.57 262.15C205.305 262.229 205.082 262.408 204.948 262.649C204.813 262.89 204.778 263.173 204.85 263.44L205.31 265.03L207.31 264.47L206.85 262.87C206.818 262.736 206.758 262.61 206.675 262.499C206.592 262.389 206.487 262.297 206.367 262.23C206.247 262.162 206.114 262.12 205.977 262.107C205.839 262.093 205.701 262.107 205.57 262.15V262.15Z" fill="#2F2E41"/>
<path d="M209.56 261.02C209.427 261.053 209.302 261.113 209.193 261.197C209.084 261.28 208.993 261.385 208.926 261.505C208.86 261.625 208.819 261.758 208.805 261.895C208.792 262.031 208.807 262.169 208.85 262.3L209.3 263.9L211.3 263.33L210.84 261.73C210.807 261.597 210.747 261.471 210.663 261.362C210.58 261.253 210.474 261.163 210.354 261.096C210.234 261.03 210.102 260.988 209.965 260.975C209.828 260.962 209.69 260.977 209.56 261.02Z" fill="#2F2E41"/>
<path d="M213.55 259.88C213.417 259.913 213.292 259.973 213.183 260.057C213.074 260.141 212.983 260.246 212.917 260.366C212.85 260.486 212.809 260.618 212.796 260.755C212.782 260.892 212.798 261.03 212.84 261.16L213.29 262.76L215.29 262.19L214.84 260.59C214.807 260.456 214.747 260.33 214.662 260.22C214.578 260.11 214.472 260.019 214.351 259.952C214.23 259.885 214.096 259.844 213.958 259.832C213.82 259.82 213.681 259.836 213.55 259.88Z" fill="#2F2E41"/>
<path d="M217.549 258.74C217.284 258.817 217.059 258.995 216.924 259.237C216.789 259.478 216.755 259.763 216.829 260.03L217.289 261.62L219.289 261.05L218.839 259.46C218.808 259.325 218.748 259.197 218.664 259.086C218.581 258.975 218.475 258.883 218.353 258.815C218.232 258.748 218.098 258.706 217.959 258.693C217.821 258.68 217.681 258.696 217.549 258.74V258.74Z" fill="#2F2E41"/>
<path d="M221.54 257.61C221.407 257.643 221.282 257.703 221.173 257.787C221.064 257.87 220.973 257.976 220.907 258.096C220.84 258.216 220.799 258.348 220.786 258.485C220.773 258.622 220.788 258.76 220.83 258.89L221.28 260.49L223.28 259.92L222.82 258.32C222.787 258.187 222.727 258.062 222.644 257.953C222.56 257.844 222.455 257.753 222.335 257.686C222.215 257.62 222.082 257.579 221.946 257.566C221.809 257.552 221.671 257.568 221.54 257.61Z" fill="#2F2E41"/>
<path d="M225.53 256.47C225.396 256.503 225.271 256.563 225.162 256.647C225.053 256.73 224.963 256.835 224.896 256.955C224.829 257.076 224.788 257.208 224.775 257.345C224.762 257.482 224.777 257.62 224.82 257.75L225.27 259.35L227.27 258.78L226.82 257.18C226.787 257.046 226.726 256.92 226.642 256.81C226.558 256.7 226.452 256.609 226.33 256.542C226.209 256.475 226.075 256.434 225.938 256.422C225.8 256.41 225.661 256.426 225.53 256.47Z" fill="#2F2E41"/>
<path d="M202.41 266.93C202.275 266.963 202.149 267.024 202.039 267.108C201.929 267.192 201.838 267.298 201.771 267.419C201.705 267.541 201.664 267.674 201.651 267.812C201.639 267.95 201.656 268.089 201.7 268.22L202.15 269.81L204.15 269.24L203.7 267.65C203.621 267.386 203.442 267.163 203.201 267.028C202.96 266.894 202.676 266.859 202.41 266.93V266.93Z" fill="#2F2E41"/>
<path d="M206.409 265.8C206.275 265.832 206.149 265.892 206.039 265.975C205.928 266.058 205.837 266.163 205.769 266.283C205.701 266.403 205.659 266.536 205.646 266.673C205.632 266.81 205.647 266.949 205.689 267.08L206.149 268.68L208.149 268.11L207.699 266.51C207.666 266.376 207.606 266.25 207.521 266.14C207.437 266.03 207.331 265.939 207.21 265.872C207.089 265.805 206.955 265.764 206.817 265.752C206.679 265.74 206.54 265.756 206.409 265.8Z" fill="#2F2E41"/>
<path d="M210.399 264.69C210.265 264.722 210.139 264.781 210.029 264.864C209.919 264.948 209.827 265.052 209.759 265.173C209.692 265.293 209.65 265.426 209.636 265.563C209.622 265.7 209.637 265.839 209.679 265.97L210.139 267.57L212.139 267L211.679 265.4C211.646 265.267 211.586 265.142 211.502 265.033C211.419 264.924 211.314 264.833 211.194 264.767C211.074 264.7 210.941 264.659 210.804 264.646C210.668 264.633 210.53 264.648 210.399 264.69Z" fill="#2F2E41"/>
<path d="M214.39 263.52C214.257 263.553 214.132 263.613 214.023 263.697C213.914 263.78 213.823 263.885 213.756 264.005C213.69 264.126 213.649 264.258 213.635 264.395C213.622 264.532 213.637 264.67 213.68 264.8L214.13 266.4L216.13 265.83L215.67 264.24C215.638 264.106 215.579 263.98 215.496 263.87C215.413 263.76 215.308 263.668 215.187 263.6C215.067 263.533 214.934 263.49 214.797 263.477C214.66 263.463 214.521 263.478 214.39 263.52V263.52Z" fill="#2F2E41"/>
<path d="M218.39 262.38C218.254 262.412 218.127 262.471 218.016 262.555C217.905 262.639 217.813 262.745 217.745 262.866C217.677 262.988 217.636 263.122 217.623 263.26C217.61 263.398 217.626 263.538 217.67 263.67L218.13 265.26L220.13 264.7L219.68 263.1C219.648 262.965 219.588 262.837 219.504 262.726C219.421 262.615 219.315 262.523 219.193 262.455C219.072 262.388 218.938 262.346 218.799 262.333C218.661 262.32 218.521 262.336 218.39 262.38V262.38Z" fill="#2F2E41"/>
<path d="M222.38 261.25C222.245 261.282 222.119 261.341 222.009 261.425C221.899 261.508 221.807 261.612 221.74 261.733C221.672 261.853 221.63 261.986 221.616 262.123C221.603 262.26 221.617 262.399 221.66 262.53L222.12 264.13L224.12 263.56L223.66 261.96C223.627 261.827 223.566 261.702 223.483 261.593C223.399 261.484 223.294 261.393 223.174 261.327C223.054 261.26 222.921 261.219 222.785 261.206C222.648 261.193 222.51 261.208 222.38 261.25Z" fill="#2F2E41"/>
<path d="M226.369 260.11C226.236 260.143 226.111 260.203 226.002 260.287C225.893 260.37 225.802 260.476 225.736 260.596C225.669 260.716 225.628 260.848 225.615 260.985C225.602 261.122 225.617 261.26 225.659 261.39L226.109 262.99L228.109 262.42L227.649 260.82C227.616 260.687 227.556 260.562 227.473 260.453C227.389 260.344 227.284 260.253 227.164 260.186C227.044 260.12 226.911 260.079 226.775 260.066C226.638 260.052 226.5 260.068 226.369 260.11Z" fill="#2F2E41"/>
<path d="M203.209 270.57C203.075 270.603 202.949 270.663 202.839 270.747C202.729 270.832 202.638 270.938 202.571 271.059C202.504 271.18 202.464 271.314 202.451 271.452C202.439 271.59 202.455 271.729 202.499 271.86L202.949 273.45L204.949 272.89L204.489 271.29C204.458 271.156 204.398 271.029 204.315 270.919C204.232 270.809 204.127 270.717 204.007 270.65C203.887 270.582 203.754 270.54 203.617 270.527C203.479 270.513 203.341 270.527 203.209 270.57V270.57Z" fill="#2F2E41"/>
<path d="M207.21 269.44C207.077 269.473 206.952 269.534 206.843 269.617C206.734 269.701 206.643 269.806 206.577 269.926C206.51 270.046 206.469 270.178 206.456 270.315C206.443 270.452 206.458 270.59 206.5 270.72L206.95 272.32L208.95 271.75L208.5 270.15C208.467 270.016 208.407 269.89 208.323 269.78C208.239 269.67 208.132 269.579 208.011 269.512C207.89 269.445 207.756 269.405 207.618 269.392C207.48 269.38 207.341 269.396 207.21 269.44Z" fill="#2F2E41"/>
<path d="M211.21 268.3C211.076 268.332 210.949 268.392 210.839 268.475C210.729 268.558 210.637 268.663 210.57 268.783C210.502 268.903 210.46 269.036 210.446 269.173C210.433 269.31 210.447 269.449 210.49 269.58L210.95 271.18L212.95 270.61L212.5 269.01C212.467 268.876 212.406 268.75 212.322 268.64C212.238 268.53 212.132 268.439 212.011 268.372C211.889 268.305 211.756 268.264 211.618 268.252C211.48 268.24 211.341 268.256 211.21 268.3Z" fill="#2F2E41"/>
<path d="M215.209 267.16C215.075 267.193 214.949 267.254 214.839 267.338C214.729 267.422 214.638 267.528 214.571 267.649C214.504 267.771 214.464 267.904 214.451 268.042C214.439 268.18 214.455 268.319 214.499 268.45L214.949 270.04L216.949 269.47L216.489 267.88C216.458 267.746 216.398 267.62 216.315 267.51C216.232 267.4 216.127 267.308 216.007 267.24C215.887 267.173 215.754 267.131 215.617 267.117C215.479 267.103 215.341 267.118 215.209 267.16V267.16Z" fill="#2F2E41"/>
<path d="M219.21 266.03C219.077 266.063 218.952 266.124 218.843 266.207C218.734 266.291 218.643 266.396 218.577 266.516C218.51 266.636 218.469 266.768 218.456 266.905C218.443 267.042 218.458 267.18 218.5 267.31L218.95 268.91L220.95 268.34L220.5 266.74C220.467 266.606 220.407 266.48 220.323 266.37C220.239 266.26 220.132 266.169 220.011 266.102C219.89 266.035 219.756 265.994 219.618 265.982C219.48 265.97 219.341 265.986 219.21 266.03Z" fill="#2F2E41"/>
<path d="M223.21 264.89C223.076 264.922 222.949 264.981 222.839 265.064C222.729 265.147 222.637 265.252 222.57 265.373C222.502 265.493 222.46 265.626 222.446 265.763C222.433 265.9 222.447 266.039 222.49 266.17L222.95 267.77L224.95 267.2L224.5 265.6C224.467 265.466 224.406 265.339 224.322 265.23C224.238 265.12 224.132 265.029 224.011 264.962C223.889 264.895 223.756 264.854 223.618 264.842C223.48 264.83 223.341 264.846 223.21 264.89Z" fill="#2F2E41"/>
<path d="M227.21 263.75C227.077 263.783 226.952 263.843 226.843 263.927C226.734 264.01 226.643 264.115 226.577 264.235C226.51 264.356 226.469 264.488 226.456 264.625C226.443 264.762 226.458 264.9 226.5 265.03L226.95 266.63L228.95 266.06L228.49 264.47C228.458 264.336 228.399 264.21 228.316 264.1C228.233 263.99 228.128 263.898 228.008 263.83C227.888 263.763 227.755 263.72 227.617 263.707C227.48 263.693 227.342 263.708 227.21 263.75V263.75Z" fill="#2F2E41"/>
<path d="M215.48 256.86C214.507 255.404 212.996 254.393 211.278 254.05C209.561 253.707 207.777 254.059 206.32 255.03C205.993 255.242 205.688 255.487 205.41 255.76L191.58 249.69L185.85 257.19L205.5 265.47C206.696 266.587 208.263 267.223 209.9 267.256C211.536 267.288 213.127 266.715 214.367 265.646C215.607 264.578 216.408 263.089 216.617 261.465C216.826 259.842 216.428 258.198 215.5 256.85L215.48 256.86Z" fill="#FFB6B6"/>
<path d="M179.86 261.08C173.02 260.08 164.33 254.81 154.43 245.5C153.877 244.991 153.436 244.372 153.135 243.684C152.834 242.995 152.679 242.252 152.68 241.5C152.59 236.25 158.57 230.01 159.16 229.41L166.45 215.69C166.55 215.46 169.12 209.44 173.7 207.81C174.662 207.478 175.685 207.358 176.698 207.459C177.711 207.559 178.691 207.876 179.57 208.39C187.27 212.48 177.73 234.39 176.44 237.28L186.44 243.85L192.66 249.16L201.87 251.46L197.68 262.85L183.43 261.17C182.241 261.292 181.041 261.261 179.86 261.08Z" fill="#2F2E41"/>
<path d="M193.342 157.145C194.495 147.521 187.797 138.806 178.381 137.678C168.966 136.55 160.399 143.438 159.246 153.061C158.094 162.685 164.792 171.401 174.207 172.529C183.623 173.656 192.19 166.769 193.342 157.145Z" fill="#FFB6B6"/>
<path d="M131.589 142.21C134.889 139.21 136.809 134.86 139.589 131.3C142.369 127.74 146.809 124.78 150.969 126.19C153.829 127.19 155.789 130.02 156.589 133.04C157.233 136.127 157.389 139.295 157.049 142.43C157.749 136 162.719 130.29 168.789 128.95C171.86 128.345 175.044 128.731 177.882 130.052C180.72 131.373 183.065 133.561 184.579 136.3C186.357 135.021 188.541 134.434 190.72 134.649C192.9 134.865 194.926 135.868 196.419 137.47C197.834 139.223 198.615 141.402 198.637 143.654C198.659 145.906 197.92 148.1 196.539 149.88C195.116 151.551 193.13 152.644 190.957 152.953C188.784 153.263 186.573 152.767 184.739 151.56L183.209 152.69C183.4 154.059 183.104 155.452 182.373 156.625C181.642 157.799 180.522 158.678 179.209 159.11C177.099 159.68 174.269 159.21 173.269 161.23C172.569 162.64 173.359 164.33 174.269 165.59C175.179 166.85 176.269 168.17 176.219 169.75C176.129 172.14 173.479 173.5 171.219 173.75C168.428 173.965 165.636 173.343 163.2 171.965C160.763 170.586 158.793 168.513 157.539 166.01C157.492 165.91 157.438 165.814 157.379 165.72C155.913 163.294 154.957 160.595 154.568 157.788C154.18 154.98 154.367 152.123 155.119 149.39C155.419 148.32 155.339 147.49 154.619 147.14C151.499 145.63 142.089 146.88 139.069 148.68C136.049 150.48 133.509 153.01 130.579 154.95C127.649 156.89 124.039 158.23 120.739 157.21C119.415 156.723 118.202 155.975 117.172 155.012C116.142 154.048 115.314 152.888 114.739 151.6C113.577 148.97 112.806 146.183 112.449 143.33C115.292 145.345 118.737 146.332 122.216 146.128C125.695 145.925 129.001 144.543 131.589 142.21Z" fill="#2F2E41"/>
<path d="M583.209 19.6899H324.119C323.854 19.6899 323.6 19.5845 323.412 19.397C323.225 19.2094 323.119 18.9552 323.119 18.6899C323.119 18.4247 323.225 18.1704 323.412 17.9829C323.6 17.7954 323.854 17.6899 324.119 17.6899H583.209C583.482 17.6899 583.744 17.7985 583.937 17.9917C584.131 18.1849 584.239 18.4468 584.239 18.72C584.239 18.9931 584.131 19.2551 583.937 19.4482C583.744 19.6414 583.482 19.75 583.209 19.75V19.6899Z" fill="#CACACA"/>
<path d="M341.76 12.34C345.096 12.34 347.8 9.5776 347.8 6.17C347.8 2.7624 345.096 0 341.76 0C338.424 0 335.72 2.7624 335.72 6.17C335.72 9.5776 338.424 12.34 341.76 12.34Z" fill="#3F3D56"/>
<path d="M362.62 12.34C365.956 12.34 368.66 9.5776 368.66 6.17C368.66 2.7624 365.956 0 362.62 0C359.284 0 356.58 2.7624 356.58 6.17C356.58 9.5776 359.284 12.34 362.62 12.34Z" fill="#3F3D56"/>
<path d="M383.479 12.34C386.815 12.34 389.519 9.5776 389.519 6.17C389.519 2.7624 386.815 0 383.479 0C380.144 0 377.439 2.7624 377.439 6.17C377.439 9.5776 380.144 12.34 383.479 12.34Z" fill="#3F3D56"/>
<path d="M570.639 1.53027H555.829C555.532 1.53027 555.247 1.64811 555.037 1.85815C554.827 2.0682 554.709 2.3531 554.709 2.65015C554.709 2.94719 554.827 3.2321 555.037 3.44214C555.247 3.65218 555.532 3.77026 555.829 3.77026H570.639C570.786 3.76766 570.931 3.73595 571.066 3.67725C571.201 3.61854 571.323 3.53384 571.425 3.42798C571.527 3.32211 571.608 3.1972 571.661 3.0603C571.715 2.9234 571.742 2.77721 571.739 2.63013C571.736 2.3392 571.62 2.06095 571.414 1.85522C571.208 1.6495 570.93 1.53288 570.639 1.53027Z" fill="#3F3D56"/>
<path d="M570.639 5.74023H555.829C555.532 5.74023 555.247 5.85807 555.037 6.06812C554.827 6.27816 554.709 6.56306 554.709 6.86011C554.709 7.15715 554.827 7.44206 555.037 7.6521C555.247 7.86214 555.532 7.98022 555.829 7.98022H570.639C570.936 7.98022 571.221 7.86214 571.431 7.6521C571.641 7.44206 571.759 7.15715 571.759 6.86011C571.759 6.56306 571.641 6.27816 571.431 6.06812C571.221 5.85807 570.936 5.74023 570.639 5.74023Z" fill="#3F3D56"/>
<path d="M570.64 9.93994H555.829C555.549 9.96638 555.289 10.0964 555.1 10.3044C554.911 10.5125 554.806 10.7836 554.806 11.0649C554.806 11.3463 554.911 11.6174 555.1 11.8254C555.289 12.0335 555.549 12.1635 555.829 12.1899H570.64C570.937 12.1821 571.22 12.0567 571.426 11.8413C571.632 11.6259 571.745 11.3381 571.74 11.04C571.734 10.7499 571.617 10.473 571.412 10.2678C571.206 10.0626 570.93 9.94508 570.64 9.93994V9.93994Z" fill="#3F3D56"/>
<path d="M484.899 59.8101C489.019 59.8101 492.359 56.4702 492.359 52.3501C492.359 48.2301 489.019 44.8901 484.899 44.8901C480.779 44.8901 477.439 48.2301 477.439 52.3501C477.439 56.4702 480.779 59.8101 484.899 59.8101Z" fill="#E6E7E8"/>
<path d="M547.809 68.8801H479.649C479.085 68.8423 478.556 68.5916 478.17 68.1785C477.783 67.7654 477.568 67.2209 477.568 66.6553C477.568 66.0897 477.783 65.5452 478.17 65.1321C478.556 64.719 479.085 64.468 479.649 64.4302H547.819C548.383 64.468 548.912 64.719 549.299 65.1321C549.685 65.5452 549.9 66.0897 549.9 66.6553C549.9 67.2209 549.685 67.7654 549.299 68.1785C548.912 68.5916 548.383 68.8423 547.819 68.8801H547.809Z" fill="#E6E7E8"/>
<path d="M496.579 77.6902H479.649C479.085 77.6523 478.556 77.4014 478.17 76.9883C477.783 76.5752 477.568 76.0307 477.568 75.4651C477.568 74.8995 477.783 74.3552 478.17 73.9421C478.556 73.529 479.085 73.2781 479.649 73.2402H496.579C497.143 73.2781 497.672 73.529 498.059 73.9421C498.445 74.3552 498.66 74.8995 498.66 75.4651C498.66 76.0307 498.445 76.5752 498.059 76.9883C497.672 77.4014 497.143 77.6523 496.579 77.6902Z" fill="#E6E7E8"/>
<path d="M484.899 176.32C489.019 176.32 492.359 172.98 492.359 168.86C492.359 164.74 489.019 161.4 484.899 161.4C480.779 161.4 477.439 164.74 477.439 168.86C477.439 172.98 480.779 176.32 484.899 176.32Z" fill="#E6E7E8"/>
<path d="M547.809 185.39H479.649C479.085 185.352 478.556 185.101 478.17 184.688C477.783 184.275 477.568 183.731 477.568 183.165C477.568 182.599 477.783 182.055 478.17 181.642C478.556 181.229 479.085 180.978 479.649 180.94H547.809C548.373 180.978 548.902 181.229 549.289 181.642C549.675 182.055 549.89 182.599 549.89 183.165C549.89 183.731 549.675 184.275 549.289 184.688C548.902 185.101 548.373 185.352 547.809 185.39V185.39Z" fill="#E6E7E8"/>
<path d="M496.58 194.17H479.65C479.061 194.17 478.496 193.936 478.08 193.52C477.664 193.103 477.43 192.539 477.43 191.95C477.43 191.361 477.664 190.796 478.08 190.38C478.496 189.964 479.061 189.73 479.65 189.73H496.58C497.168 189.73 497.733 189.964 498.15 190.38C498.566 190.796 498.8 191.361 498.8 191.95C498.8 192.539 498.566 193.103 498.15 193.52C497.733 193.936 497.168 194.17 496.58 194.17V194.17Z" fill="#E6E7E8"/>
<path d="M364.76 158.64C368.88 158.64 372.22 155.3 372.22 151.18C372.22 147.06 368.88 143.72 364.76 143.72C360.64 143.72 357.3 147.06 357.3 151.18C357.3 155.3 360.64 158.64 364.76 158.64Z" fill="#E6E7E8"/>
<path d="M427.669 167.69H359.509C358.945 167.652 358.416 167.401 358.03 166.988C357.644 166.575 357.429 166.031 357.429 165.465C357.429 164.899 357.644 164.355 358.03 163.942C358.416 163.529 358.945 163.278 359.509 163.24H427.669C428.234 163.278 428.763 163.529 429.149 163.942C429.535 164.355 429.75 164.899 429.75 165.465C429.75 166.031 429.535 166.575 429.149 166.988C428.763 167.401 428.234 167.652 427.669 167.69V167.69Z" fill="#E6E7E8"/>
<path d="M376.44 176.49H359.51C358.921 176.49 358.357 176.256 357.94 175.84C357.524 175.424 357.29 174.859 357.29 174.27C357.29 173.681 357.524 173.117 357.94 172.7C358.357 172.284 358.921 172.05 359.51 172.05H376.44C377.029 172.05 377.593 172.284 378.01 172.7C378.426 173.117 378.66 173.681 378.66 174.27C378.66 174.859 378.426 175.424 378.01 175.84C377.593 176.256 377.029 176.49 376.44 176.49V176.49Z" fill="#E6E7E8"/>
<path d="M484.899 113.67C489.019 113.67 492.359 110.33 492.359 106.21C492.359 102.09 489.019 98.75 484.899 98.75C480.779 98.75 477.439 102.09 477.439 106.21C477.439 110.33 480.779 113.67 484.899 113.67Z" fill="#E6E7E8"/>
<path d="M547.809 122.74H479.649C479.085 122.702 478.556 122.451 478.17 122.038C477.783 121.625 477.568 121.08 477.568 120.515C477.568 119.949 477.783 119.405 478.17 118.992C478.556 118.579 479.085 118.328 479.649 118.29H547.809C548.373 118.328 548.902 118.579 549.289 118.992C549.675 119.405 549.89 119.949 549.89 120.515C549.89 121.08 549.675 121.625 549.289 122.038C548.902 122.451 548.373 122.702 547.809 122.74Z" fill="#E6E7E8"/>
<path d="M520.61 131.52H479.61C479.021 131.52 478.456 131.286 478.04 130.87C477.623 130.454 477.39 129.889 477.39 129.3C477.39 128.712 477.623 128.147 478.04 127.73C478.456 127.314 479.021 127.08 479.61 127.08H520.61C521.198 127.08 521.763 127.314 522.179 127.73C522.596 128.147 522.83 128.712 522.83 129.3C522.83 129.889 522.596 130.454 522.179 130.87C521.763 131.286 521.198 131.52 520.61 131.52V131.52Z" fill="#E6E7E8"/>
<path d="M509.21 140.31H479.66C479.095 140.272 478.567 140.021 478.18 139.608C477.794 139.195 477.579 138.651 477.579 138.085C477.579 137.519 477.794 136.975 478.18 136.562C478.567 136.149 479.095 135.898 479.66 135.86H509.21C509.774 135.898 510.303 136.149 510.689 136.562C511.076 136.975 511.291 137.519 511.291 138.085C511.291 138.651 511.076 139.195 510.689 139.608C510.303 140.021 509.774 140.272 509.21 140.31V140.31Z" fill="#E6E7E8"/>
<path d="M416.839 57.6903V136.07C416.834 136.617 416.614 137.139 416.226 137.525C415.839 137.91 415.316 138.128 414.769 138.13H373.479C368.911 133.894 365.162 128.854 362.419 123.26C362.239 122.89 362.069 122.53 361.909 122.16C359.41 116.745 357.896 110.927 357.439 104.98C357.439 104.62 357.389 104.25 357.369 103.88C357.369 102.94 357.289 101.98 357.289 101.02C357.28 94.6275 358.488 88.2912 360.849 82.3502C360.989 81.9802 361.139 81.6104 361.289 81.2504C364.399 73.9497 369.172 67.4772 375.229 62.3502L376.329 61.4603L376.409 61.3903C381.153 57.6367 387.03 55.6026 393.079 55.6202H414.769C415.317 55.6229 415.842 55.842 416.23 56.2296C416.617 56.6172 416.836 57.1421 416.839 57.6903V57.6903Z" fill="#F6BC54"/>
<path opacity="0.2" d="M416.949 82.3599V81.26H398.529V55.6299H397.429V81.26H376.329V61.47L375.229 62.3599V81.26H361.289C361.139 81.62 360.989 81.9899 360.849 82.3599H375.209V103.89H357.369C357.369 104.26 357.369 104.63 357.439 104.99H375.209V122.17H361.909C362.069 122.54 362.239 122.9 362.419 123.27H375.209V137.69H376.309V123.25H397.409V137.69H398.509V123.25H416.929V122.15H398.509C398.509 117.595 400.318 113.227 403.538 110.005C406.757 106.784 411.124 104.973 415.679 104.97H416.929V103.87H398.509V82.3398L416.949 82.3599ZM397.429 122.17H376.329V104.99H397.429V122.17ZM397.429 103.89H376.329V103.46C376.329 97.8639 378.552 92.4971 382.509 88.54C386.466 84.583 391.833 82.3599 397.429 82.3599V82.3599V103.89Z" fill="black"/>
<path d="M414.87 122.45C414.429 122.469 413.993 122.351 413.62 122.114C413.248 121.877 412.957 121.531 412.787 121.124C412.617 120.716 412.576 120.266 412.67 119.835C412.763 119.403 412.986 119.011 413.31 118.71L413.45 118.13V117.98C411.45 113.25 398.8 126.44 398.25 130.89C398.009 132.856 398.11 134.849 398.55 136.78C394.45 127.83 392.318 118.105 392.3 108.26C392.3 105.791 392.44 103.324 392.72 100.87C392.94 98.8702 393.26 96.8702 393.66 94.8702C395.859 84.1067 400.578 74.0177 407.43 65.4303C411.35 65.6503 414.79 65.0503 415.12 57.4303C415.18 56.0703 416.18 54.9002 416.4 53.5702C416.03 53.5702 415.65 53.6503 415.27 53.6803H414.92C414.36 53.705 413.813 53.5095 413.397 53.1356C412.98 52.7617 412.726 52.2391 412.69 51.6803C412.661 51.1584 412.828 50.6447 413.16 50.2403L413.65 49.6402L414.39 48.7303L414.47 48.6402L415.31 47.6402C414.812 46.8237 414.126 46.138 413.31 45.6402C410.48 43.9802 406.58 45.1302 404.54 47.6402C403.582 48.9757 402.93 50.5061 402.631 52.1222C402.332 53.7382 402.393 55.4005 402.81 56.9903C403.51 59.7105 404.67 62.2909 406.24 64.6202L405.77 65.2003C402.968 68.8082 400.523 72.6798 398.47 76.7603C399.05 72.2303 391.97 55.8902 389.23 52.4202C388.497 51.5038 387.511 50.8223 386.395 50.4603C385.279 50.0982 384.081 50.0713 382.95 50.3831C381.818 50.695 380.803 51.3318 380.03 52.2147C379.257 53.0975 378.76 54.1876 378.6 55.3502C378.6 55.4002 378.6 55.4503 378.6 55.5003C379 55.7303 379.4 55.9803 379.79 56.2403C380.418 56.6709 380.855 57.3293 381.006 58.076C381.157 58.8228 381.011 59.5991 380.6 60.2403C380.37 60.5767 380.074 60.8628 379.73 61.0811C379.387 61.2995 379.002 61.4455 378.6 61.5103H378.54C373.09 69.2903 390.54 89.5103 394.94 84.9903C392.882 90.8223 391.588 96.8962 391.09 103.06C390.816 106.699 390.833 110.354 391.14 113.99V113.86C390.14 105.95 373.5 94.1702 368.63 95.1602C365.82 95.7202 363.06 95.5903 363.49 98.4202V98.5604C364.246 98.8649 364.981 99.2189 365.69 99.6202C366.1 99.8502 366.5 100.09 366.89 100.35C367.376 100.679 367.753 101.148 367.97 101.693C368.187 102.239 368.235 102.838 368.108 103.411C367.981 103.985 367.684 104.507 367.257 104.91C366.829 105.313 366.29 105.578 365.71 105.67H365.65H365.53C363.05 114.2 381.44 127.98 392.62 123.59C393.73 128.409 395.335 133.101 397.41 137.59H414.53C414.59 137.4 414.65 137.21 414.7 137.02C413.117 137.114 411.529 137.017 409.97 136.73C411.24 135.17 412.5 133.6 413.77 132.05C413.802 132.022 413.829 131.988 413.85 131.95L415.79 129.57C415.83 127.124 415.551 124.684 414.96 122.31L414.87 122.45ZM391.48 118.07L391.33 117.74V117.01C391.33 116.95 391.33 116.88 391.33 116.81C391.33 117.23 391.43 117.66 391.49 118.08L391.48 118.07Z" fill="#2F2E41"/>
<g clip-path="url(#clip1_9_1401)">
<path d="M227.1 92.6328C227.196 91.8716 227.261 91.1056 227.389 90.3512C228.052 86.497 229.784 83.1949 232.541 80.4267C232.819 80.1472 233.132 80.127 233.366 80.3583C233.599 80.5895 233.585 80.9084 233.284 81.2129C231.357 83.1477 229.93 85.3966 229.089 87.9953C227.655 92.4276 227.917 96.777 229.901 100.991C230.36 101.966 230.479 102.87 230.175 103.906C229.65 105.668 229.212 107.456 228.738 109.233C228.503 110.115 228.99 110.607 229.868 110.373C231.737 109.873 233.611 109.39 235.475 108.866C236.308 108.631 237.059 108.723 237.846 109.085C244.302 112.056 250.481 111.529 256.188 107.283C260.1 104.374 262.313 100.361 262.871 95.5032C263.901 86.5423 257.984 78.2992 249.181 76.4713C244.102 75.4172 239.437 76.4713 235.234 79.5286C235.116 79.6134 235.005 79.7059 234.882 79.782C234.613 79.9487 234.313 79.9044 234.139 79.6857C234.093 79.6287 234.059 79.5627 234.04 79.4919C234.021 79.4211 234.017 79.3471 234.028 79.2746C234.039 79.2021 234.065 79.1326 234.104 79.0707C234.143 79.0088 234.195 78.9557 234.256 78.9149C234.746 78.5468 235.241 78.1797 235.758 77.855C238.286 76.2443 241.173 75.2844 244.162 75.0607C244.256 75.0471 244.35 75.0268 244.441 75H246.682C247.146 75.0559 247.612 75.1021 248.076 75.1686C251.863 75.713 255.193 77.248 258.02 79.8283C261.148 82.6843 263.092 86.205 263.812 90.3858C263.94 91.1297 264.004 91.8832 264.101 92.6328V94.3672C264.074 94.4826 264.055 94.5993 264.042 94.7169C263.945 96.355 263.656 97.9689 263.078 99.5087C260.573 106.211 255.808 110.295 248.783 111.711C248.091 111.85 247.382 111.904 246.681 112H244.443C244.364 111.975 244.283 111.956 244.201 111.943C241.759 111.768 239.379 111.101 237.201 109.982C236.801 109.779 236.338 109.74 235.909 109.874C233.961 110.403 232.014 110.934 230.058 111.428C229.687 111.522 229.299 111.524 228.927 111.436C227.917 111.174 227.377 110.159 227.653 109.108C228.154 107.203 228.658 105.299 229.189 103.401C229.276 103.115 229.306 102.815 229.276 102.517C229.247 102.219 229.159 101.93 229.017 101.667C228.14 99.9243 227.562 98.0465 227.309 96.1122C227.231 95.534 227.169 94.9472 227.1 94.3653V92.6328Z" fill="#F6BC54"/>
<path d="M245.599 88.7785C245.71 88.6561 245.805 88.552 245.899 88.447C246.631 87.6295 247.597 87.0568 248.665 86.8065C249.734 86.5563 250.853 86.6406 251.873 87.048C252.903 87.4589 253.78 88.18 254.382 89.1116C254.985 90.0431 255.282 91.1389 255.234 92.2472C255.179 93.5962 254.708 94.7717 253.75 95.716C252.953 96.4984 252.092 97.2181 251.245 97.9523C250.948 98.2096 250.623 98.1769 250.419 97.9167C250.216 97.6566 250.279 97.3656 250.581 97.1006C251.342 96.4338 252.129 95.7959 252.85 95.0887C254.155 93.8082 254.503 92.2453 253.879 90.5456C253.274 88.9018 252.03 87.944 250.276 87.788C248.462 87.6251 247.082 88.396 246.148 89.9588C245.823 90.5032 245.372 90.5071 245.052 89.9588C244.096 88.3362 242.425 87.5201 240.636 87.8034C239.767 87.9407 238.962 88.3445 238.332 88.959C237.702 89.5734 237.279 90.3682 237.12 91.2336C236.85 92.6085 237.178 93.8949 238.154 94.8767C239.252 95.9838 240.458 96.9917 241.677 97.9668C242.861 98.914 244.125 99.759 245.339 100.665C245.549 100.821 245.679 100.789 245.87 100.646C246.795 99.9546 247.724 99.2666 248.671 98.6056C248.842 98.4862 249.134 98.4129 249.323 98.4736C249.741 98.6037 249.755 99.1298 249.362 99.4237C248.474 100.087 247.578 100.737 246.684 101.391C246.441 101.569 246.193 101.74 245.948 101.913C245.848 101.992 245.723 102.036 245.596 102.036C245.468 102.036 245.343 101.992 245.243 101.913C242.711 100.135 240.172 98.3638 237.913 96.2343C236.564 94.9605 235.836 93.4305 235.976 91.5352C236.178 88.7949 238.685 86.5614 241.436 86.6731C243.04 86.7387 244.365 87.3707 245.414 88.5829C245.469 88.6417 245.524 88.7004 245.599 88.7785Z" fill="#F6BC54"/>
</g>
</g>
<path fill-rule="evenodd" clip-rule="evenodd" d="M384.499 349.721C383.503 349.929 382.502 350.136 381.499 350.34V373.809L438.799 365.9L440.449 376.4L381.499 384.613V408.07L448.999 399.35L450.499 409.85L381.499 418.933V440.75C381.499 448.7 383.449 450.5 393.949 450.5H431.449C439.962 450.5 441.853 447.124 442.921 432.642C443.001 431.558 443.076 430.412 443.149 429.2C443.977 429.81 444.97 430.395 446.046 430.94C448.674 432.27 451.801 433.361 454.249 434C452.299 454.85 448.399 461.45 431.899 461.45H393.499C375.199 461.45 369.949 457.1 369.949 440.6V420.454L320.599 426.95L318.949 416.15L369.949 409.562V386.222L325.249 392.45L323.599 381.8L369.949 375.403V352.574C368.951 352.758 367.951 352.94 366.949 353.12C352.654 355.688 338.069 357.853 324.199 359.6C323.89 357.743 323.083 355.034 322.122 352.694C321.685 351.632 321.217 350.646 320.749 349.85C321.805 349.71 322.865 349.568 323.929 349.422C360.509 344.433 401.656 336.379 424.249 327.05L433.849 336.05C432.824 336.445 431.779 336.835 430.713 337.222C417.637 341.973 401.605 346.149 384.499 349.721ZM366.949 356.168C352.744 358.709 338.292 360.848 324.574 362.576L321.714 362.937L321.24 360.093C320.841 357.697 319.449 353.557 318.163 351.371L315.869 347.471L320.355 346.876C357.7 341.927 400.251 333.713 423.104 324.277L424.891 323.539L439.389 337.132L434.927 338.85C420.993 344.215 403.355 348.869 384.499 352.786V370.366L441.306 362.526L443.887 378.95L384.499 387.224V404.657L451.55 395.996L453.898 412.428L384.499 421.564V440.75C384.499 444.783 385.085 445.802 385.664 446.266C386.019 446.551 386.697 446.893 388.096 447.14C389.495 447.387 391.378 447.5 393.949 447.5H431.449C433.579 447.5 434.897 447.263 435.778 446.874C436.54 446.538 437.137 446.018 437.679 444.983C438.276 443.844 438.786 442.109 439.199 439.414C439.608 436.746 439.893 433.355 440.155 429.019L440.487 423.512L444.929 426.785C447.325 428.551 451.694 430.233 455.006 431.097L457.473 431.741L457.236 434.279C456.268 444.626 454.786 452.343 450.906 457.375C446.766 462.746 440.467 464.45 431.899 464.45H393.499C384.363 464.45 377.409 463.428 372.886 459.47C368.227 455.393 366.949 448.961 366.949 440.6V423.874L318.077 430.308L315.52 413.568L366.949 406.924V389.669L322.737 395.829L320.167 379.245L366.949 372.788V356.168ZM461.068 393.244L464.191 392.652C470.176 391.518 477.463 390.092 485.449 388.485V362.6H490.748C494.59 358.685 498.553 353.753 502.011 348.8H466.099V332.15H514.512L517.7 331.087L529.028 338.712L527.66 341.128C527.205 341.931 526.735 342.738 526.251 343.55H552.649V323H569.749V343.55H606.499V359.75H567.34L566.916 360.327C560.776 368.678 553.217 377.958 546.413 385.249C549.339 387.895 552.082 390.514 554.472 392.967C563.359 385.027 571.027 376.251 576.648 367.171L578.012 364.967L593.68 371.749L591.774 374.72C576.138 399.094 550.479 420.603 523.317 433.269L521.044 434.329L519.598 432.28C517.884 429.851 515.035 426.447 512.714 424.4L509.19 421.29L513.494 419.403C522.938 415.261 532.307 409.9 541.029 403.688C536.327 398.769 530.473 393.255 524.774 388.354L525.381 396.61L522.857 397.177C516.037 398.71 509.067 400.262 502.249 401.774V450.35C502.249 453.618 501.951 456.519 500.894 458.951C499.769 461.542 497.897 463.353 495.301 464.603L495.259 464.623L495.217 464.641C492.739 465.743 489.648 466.304 486.185 466.613C482.686 466.926 478.56 467 473.899 467H471.297L470.929 464.424C470.525 461.592 469.121 456.952 467.616 453.942L465.394 449.497L470.362 449.601C477.049 449.74 483.089 449.749 485.449 449.75V405.49C485.26 405.532 485.071 405.573 484.882 405.615C478.81 406.956 473.126 408.212 468.1 409.329L465.247 409.962L461.068 393.244ZM485.449 402.417C486.44 402.199 487.44 401.978 488.449 401.755V450.35C488.449 452.15 487.999 452.75 485.899 452.75C484.257 452.75 479.423 452.75 473.638 452.66C472.553 452.644 471.435 452.624 470.299 452.6C470.753 453.508 471.196 454.541 471.608 455.626C472.695 458.487 473.573 461.717 473.899 464C483.199 464 489.949 463.7 493.999 461.9C498.049 459.95 499.249 456.65 499.249 450.35V399.366C500.245 399.145 501.246 398.924 502.249 398.701C508.856 397.236 515.597 395.734 522.199 394.25L521.449 384.05C520.965 384.154 520.481 384.259 519.996 384.363C519.494 384.471 518.991 384.579 518.488 384.687C513.052 385.853 507.592 387.003 502.249 388.113C501.245 388.321 500.244 388.528 499.249 388.734V372.924C499.383 372.796 499.518 372.667 499.652 372.537C500.512 371.708 501.379 370.842 502.249 369.946C507.14 364.909 512.151 358.884 516.649 352.651C517.678 351.224 518.681 349.786 519.649 348.347V356.75H551.892C551.244 357.729 550.561 358.732 549.851 359.75C545.91 365.398 541.105 371.531 536.523 376.77C535.852 377.539 535.185 378.288 534.526 379.013C533.745 378.378 532.963 377.749 532.183 377.131C530.691 375.947 529.207 374.798 527.749 373.7L520.849 381.2C521.616 381.811 522.396 382.444 523.184 383.093C523.489 383.344 523.796 383.598 524.103 383.855C524.224 383.955 524.344 384.056 524.465 384.157C531.008 389.636 538.012 396.163 543.478 401.909C544.192 402.66 544.88 403.397 545.537 404.117C544.73 404.717 543.917 405.311 543.099 405.896C535.017 411.682 526.393 416.744 517.667 420.808C516.679 421.268 515.689 421.716 514.699 422.15C515.444 422.807 516.227 423.58 517.008 424.408C518.899 426.414 520.775 428.745 522.049 430.55C547.796 418.544 572.148 398.449 587.573 375.644C588.144 374.799 588.703 373.951 589.249 373.1L579.199 368.75C573.43 378.07 565.597 387.042 556.538 395.144C555.794 395.809 555.042 396.469 554.282 397.122C553.629 396.416 552.937 395.689 552.212 394.946C549.885 392.564 547.209 390.011 544.347 387.425C543.611 386.76 542.863 386.093 542.106 385.426C542.785 384.725 543.475 383.999 544.174 383.25C550.23 376.767 556.934 368.634 562.677 361C562.991 360.582 563.303 360.165 563.612 359.75C563.911 359.348 564.206 358.948 564.499 358.55L560.793 356.75H603.499V346.55H566.749V326H555.649V346.55H520.839C521.493 345.548 522.128 344.547 522.742 343.55C523.549 342.24 524.32 340.938 525.049 339.65L517.249 334.4L514.999 335.15H469.099V345.8H507.611C506.983 346.791 506.328 347.794 505.649 348.8C502.412 353.599 498.648 358.479 494.878 362.6C494.062 363.492 493.246 364.348 492.435 365.16C492.287 365.308 492.139 365.455 491.992 365.6H488.449V390.941C487.439 391.145 486.438 391.347 485.449 391.545C478.948 392.852 472.922 394.036 467.701 395.037C466.686 395.232 465.701 395.42 464.749 395.6L467.449 406.4C472.482 405.281 478.171 404.025 484.245 402.683C484.645 402.595 485.046 402.506 485.449 402.417ZM516.97 381.944L516.461 381.539L527.382 369.668L529.554 371.304C531.073 372.448 532.624 373.649 534.184 374.889C538.256 370.238 542.523 364.85 546.177 359.75H516.649V357.693C512.048 363.757 507.057 369.494 502.249 374.197V385.049C507.099 384.04 512.041 382.999 516.97 381.944ZM589.819 393.075L605.006 400.551L603.164 403.385C597.025 412.83 589.447 421.701 580.812 429.803C590.858 437.773 601.746 447.352 607.694 454.06L609.684 456.304L595.825 468.598L593.844 466.221C588.287 459.552 577.441 449.479 567.441 441.106C553.695 451.59 538.153 460.294 521.943 466.643L519.601 467.561L518.289 465.414C516.759 462.91 513.904 459.198 511.378 456.671L508.036 453.329L512.482 451.728C543.676 440.492 572.764 419.693 588.373 395.332L589.819 393.075ZM565.07 439.14C565.889 438.52 566.702 437.894 567.508 437.262C568.287 437.904 569.073 438.559 569.865 439.224C578.736 446.681 588.244 455.439 594.182 462.035C594.891 462.823 595.549 463.58 596.149 464.3L605.449 456.05C604.826 455.347 604.145 454.61 603.414 453.845C597.272 447.415 587.579 438.981 578.578 431.861C577.772 431.223 576.972 430.597 576.18 429.983C576.936 429.303 577.685 428.618 578.425 427.928C586.257 420.621 593.202 412.683 598.969 404.267C599.541 403.432 600.101 402.594 600.649 401.75L590.899 396.95C575.369 421.188 547.06 441.775 516.57 453.411C515.549 453.801 514.525 454.181 513.499 454.55C514.224 455.275 514.971 456.087 515.707 456.938C517.713 459.258 519.642 461.875 520.849 463.85C536.609 457.677 551.702 449.253 565.07 439.14ZM367.849 621.7H405.949V565H373.699V548.2H405.949V500.2H423.349V548.2H455.449V565H423.349V621.7H458.599V638.8H367.849V621.7ZM420.349 624.7V562H452.449V551.2H420.349V503.2H408.949V551.2H376.699V562H408.949V624.7H370.849V635.8H455.599V624.7H420.349ZM315.349 527.2H339.049V499.15H356.149V527.2H365.881L368.891 526.555L369.881 527.2H371.149V528.026L378.472 532.794L377.522 535.095C372.948 546.169 366.57 556.801 359.184 566.484C364.996 571.261 373.213 578.409 378.028 582.597C379.321 583.722 380.368 584.633 381.058 585.228L383.186 587.063L372.353 601.428L369.925 598.607C367.039 595.253 361.562 589.681 356.149 584.394V643.15H339.049V588.453C332.968 593.988 326.712 598.823 320.572 602.773L317.57 604.705L316.184 601.414C315.629 600.097 314.704 598.172 313.686 596.351C312.623 594.448 311.632 592.975 310.978 592.321L308.236 589.58L311.578 587.614C327.859 578.037 344.828 561.376 355.243 543.55H315.349V527.2ZM360.319 540.55C359.8 541.553 359.26 542.553 358.7 543.55C348.62 561.491 332.016 578.33 315.713 588.607C314.84 589.157 313.969 589.688 313.099 590.2C313.666 590.767 314.297 591.614 314.936 592.599C315.894 594.078 316.871 595.869 317.679 597.499C318.183 598.518 318.622 599.473 318.949 600.25C319.794 599.706 320.642 599.145 321.491 598.567C327.358 594.575 333.299 589.784 339.049 584.365C340.055 583.416 341.056 582.448 342.049 581.462V640.15H353.149V577.335C354.122 578.26 355.128 579.225 356.149 580.211C361.174 585.067 366.558 590.458 370.161 594.371C370.928 595.204 371.614 595.97 372.199 596.65L379.099 587.5C378.375 586.876 377.29 585.932 375.96 584.776C371.117 580.564 363.031 573.531 357.343 568.852C356.932 568.513 356.533 568.187 356.149 567.875C355.754 567.555 355.375 567.249 355.013 566.961C355.394 566.48 355.773 565.996 356.149 565.51C356.385 565.205 356.619 564.9 356.853 564.593C361.899 557.97 366.462 550.898 370.275 543.55C370.571 542.98 370.862 542.408 371.149 541.835C372.448 539.236 373.652 536.606 374.749 533.95L368.299 529.75L366.199 530.2H353.149V502.15H342.049V530.2H318.349V540.55H360.319ZM536.599 528.25H547.931C546.15 522.012 542.725 514.031 538.972 507.736L537.073 504.55L551.597 499.626L552.88 501.513C558.149 509.262 562.83 519.659 564.428 526.849L564.739 528.25H573.171L574 526.691C577.689 519.757 582.539 508.712 584.712 501.033L585.502 498.243L602.811 502.511L601.268 505.819C600.317 507.856 599.341 509.985 598.354 512.139C595.795 517.721 593.159 523.472 590.675 528.25H604.249V544.6H578.299V559H601.699V575.5H578.299V591.25H607.699V607.9H578.299V643.15H561.349V607.9H534.199V635.05H495.649V643.15H479.299V609.35C477.617 611.452 475.833 613.469 473.942 615.399L471.225 618.174L469.227 614.843C468.69 613.949 467.518 612.421 466.099 610.782C464.699 609.163 463.226 607.628 462.174 606.708L459.685 604.53L462.094 602.264C470.358 594.494 476.23 584.227 480.434 571.75H470.449V556H484.669C485.277 553.129 485.827 550.178 486.326 547.15H463.549V531.4H488.422C488.734 528.457 489.014 525.456 489.266 522.4H471.349V506.65H532.099V531.4H536.599V528.25ZM539.599 541.6H564.349V562H541.699V572.5H564.349V594.25H536.149V604.9H564.349V640.15H575.299V604.9H604.699V594.25H575.299V572.5H598.699V562H575.299V541.6H601.249V531.25H551.749L561.499 527.5C559.999 520.75 555.499 510.7 550.399 503.2L541.549 506.2C542.06 507.057 542.565 507.944 543.062 508.855C546.471 515.102 549.474 522.424 551.044 528.25C551.049 528.267 551.053 528.284 551.058 528.302C551.336 529.337 551.568 530.324 551.749 531.25H539.599V541.6ZM561.349 591.25V575.5H538.699V559H561.349V544.6H540.949V547.15H532.099V571.75H497.767C496.815 575.049 495.775 578.25 494.638 581.35H534.199V591.25H561.349ZM490.261 584.35C490.664 583.362 491.056 582.362 491.438 581.35C492.602 578.26 493.667 575.059 494.642 571.75C494.934 570.76 495.217 569.76 495.493 568.75H529.099V544.15H537.949V534.4H529.099V509.65H474.349V519.4H492.512C492.436 520.405 492.357 521.405 492.276 522.4C492.026 525.451 491.749 528.452 491.439 531.4C491.333 532.406 491.224 533.406 491.111 534.4H466.549V544.15H489.833C489.683 545.158 489.527 546.158 489.366 547.15C488.874 550.172 488.333 553.123 487.734 556C487.524 557.009 487.307 558.009 487.083 559H473.449V568.75H484.536C484.232 569.762 483.919 570.762 483.596 571.75C482.502 575.09 481.29 578.293 479.946 581.35C479.734 581.833 479.518 582.312 479.299 582.787C475.864 590.248 471.6 596.806 466.287 602.335C465.592 603.058 464.88 603.763 464.149 604.45C464.786 605.008 465.529 605.734 466.302 606.543C467.575 607.876 468.929 609.431 470.026 610.82C470.771 611.764 471.398 612.631 471.799 613.3C472.521 612.562 473.228 611.811 473.919 611.047C475.829 608.933 477.62 606.717 479.299 604.401C480.341 602.963 481.341 601.486 482.299 599.97V640.15H492.649V632.05H531.199V584.35H490.261ZM518.599 544.15H500.531C500.38 545.157 500.225 546.157 500.066 547.15C499.581 550.166 499.054 553.117 498.479 556C498.278 557.008 498.071 558.008 497.859 559H518.599V544.15ZM515.599 556V547.15H503.106C502.628 550.16 502.107 553.111 501.539 556H515.599ZM503.311 519.4C503.229 520.406 503.144 521.406 503.056 522.4C502.787 525.453 502.492 528.453 502.169 531.4C502.059 532.406 501.945 533.406 501.828 534.4H518.599V519.4H503.311ZM515.599 522.4H506.068C505.801 525.448 505.509 528.448 505.188 531.4H515.599V522.4ZM492.649 622H520.099V594.25H492.649V622ZM495.649 619H517.099V597.25H495.649V619ZM587.283 528.25C589.918 523.341 592.767 517.126 595.577 510.995C596.142 509.764 596.704 508.536 597.264 507.323C597.695 506.388 598.123 505.462 598.549 504.55L587.599 501.85C585.621 508.84 581.556 518.38 578.054 525.374C577.573 526.335 577.102 527.248 576.649 528.1L585.949 530.65C586.386 529.893 586.831 529.091 587.283 528.25Z" fill="#F6BC54"/>
<defs>
<clipPath id="clip0_9_1401">
<rect width="493.11" height="390.69" fill="white" transform="translate(91.0996)"/>
</clipPath>
<clipPath id="clip1_9_1401">
<rect width="37" height="37" fill="white" transform="translate(227.1 75)"/>
</clipPath>
</defs>
</svg>
