<svg width="286" height="327" viewBox="0 0 286 327" fill="none" xmlns="http://www.w3.org/2000/svg">
<path d="M60.9007 320.61L60.8997 320.609C-0.423082 299.092 -19.703 221.405 24.8216 174.01C43.4137 154.269 62.687 135.075 82.3785 116.407C115.777 84.7567 171.709 85.5575 205.075 117.895L205.075 117.896C223.584 135.821 241.915 153.985 259.718 172.608L259.718 172.608C284.079 198.043 291.365 228.31 280.771 261.749C270.065 295.57 247.017 316.964 211.69 324.256L211.667 324.26L211.644 324.267C210.383 324.656 209.163 325.163 207.999 325.782H79.7293C77.741 325.245 75.7495 324.748 73.7642 324.253C69.4138 323.168 65.0932 322.091 60.9007 320.61Z" fill="#F6BC54" stroke="#F6BC54"/>
<path d="M36.9613 123.841L36.9607 123.841C21.6677 126.653 4.55528 118.298 1.07674 99.589L1.07289 99.5683L1.06734 99.5481C0.925078 99.0297 0.738157 98.5246 0.508739 98.0384L0.500073 88.9538C0.732655 88.207 0.94927 87.4656 1.16419 86.7301C1.61359 85.1921 2.05556 83.6795 2.62054 82.1956C5.01582 76.1435 9.29602 71.0156 14.8329 67.5654C20.3701 64.1151 26.8721 62.5246 33.384 63.0276C47.4098 64.2467 58.9097 74.3983 61.3844 87.7147C64.5365 104.704 53.9048 120.748 36.9613 123.841Z" fill="#F6BC54" stroke="#F6BC54"/>
<path d="M254.689 124.373H254.689C272.22 124.391 285.386 111.251 285.5 93.6128C285.578 76.8962 271.429 62.893 254.672 62.9366C237.915 62.9802 224.063 76.806 224.063 93.4552L254.689 124.373ZM254.689 124.373C237.17 124.373 224.072 111.14 224.063 93.4555L254.689 124.373Z" fill="#F6BC54" stroke="#F6BC54"/>
<path d="M143.145 61.9281L143.145 61.9281C125.879 62.3207 111.799 49.0978 111.296 32.0444L111.295 32.0407C111.145 27.9695 111.811 23.9094 113.254 20.1017C114.696 16.2941 116.886 12.8164 119.693 9.87522C122.5 6.934 125.866 4.58913 129.592 2.9798C133.319 1.37048 137.329 0.529493 141.385 0.506591V0.506639L141.392 0.506505C158.924 0.166426 172.278 13.2042 172.704 31.1135C173.068 47.3184 159.408 61.5621 143.145 61.9281Z" fill="#F6BC54" stroke="#F6BC54"/>
</svg>
