<svg width="145" height="113" viewBox="0 0 145 113" fill="none" xmlns="http://www.w3.org/2000/svg">
<path d="M0 93.6328C0.0963542 92.8716 0.160911 92.1056 0.289062 91.3512C0.951979 87.497 2.68442 84.1949 5.44112 81.4267C5.71958 81.1472 6.03274 81.127 6.26591 81.3583C6.49909 81.5895 6.4856 81.9084 6.18401 82.2129C4.25693 84.1477 2.83089 86.3966 1.98972 88.9953C0.555002 93.4276 0.817084 97.777 2.80102 101.991C3.26063 102.966 3.37914 103.87 3.07562 104.906C2.55049 106.668 2.11208 108.456 1.63802 110.233C1.40292 111.115 1.89047 111.607 2.76825 111.373C4.63752 110.873 6.51161 110.39 8.3751 109.866C9.20857 109.631 9.95917 109.723 10.7464 110.085C17.2021 113.056 23.3813 112.529 29.0884 108.283C33.0003 105.374 35.2136 101.361 35.7715 96.5032C36.8015 87.5423 30.8844 79.2992 22.0815 77.4713C17.0027 76.4172 12.3372 77.4713 8.13422 80.5286C8.01667 80.6134 7.9049 80.7059 7.78253 80.782C7.5137 80.9487 7.21307 80.9044 7.03964 80.6857C6.9935 80.6287 6.95975 80.5627 6.94053 80.4919C6.92131 80.4211 6.91705 80.3471 6.92802 80.2746C6.93899 80.2021 6.96494 80.1326 7.00423 80.0707C7.04352 80.0088 7.09529 79.9557 7.15623 79.9149C7.64667 79.5468 8.14096 79.1797 8.65838 78.855C11.1862 77.2443 14.0734 76.2844 17.0624 76.0607C17.1569 76.0471 17.2502 76.0268 17.3418 76H19.5821C20.0465 76.0559 20.5128 76.1021 20.9763 76.1686C24.763 76.713 28.093 78.248 30.9201 80.8283C34.0487 83.6843 35.9921 87.205 36.7119 91.3858C36.8401 92.1297 36.9046 92.8832 37.001 93.6328V95.3672C36.9748 95.4826 36.9551 95.5993 36.9422 95.7169C36.8458 97.355 36.5568 98.9689 35.9786 100.509C33.4734 107.211 28.7087 111.295 21.6835 112.711C20.9917 112.85 20.2826 112.904 19.5811 113H17.3438C17.2645 112.975 17.1833 112.956 17.1009 112.943C14.6596 112.768 12.279 112.101 10.1018 110.982C9.7017 110.779 9.23793 110.74 8.80966 110.874C6.86138 111.403 4.91406 111.934 2.95807 112.428C2.58753 112.522 2.19978 112.524 1.82784 112.436C0.81708 112.174 0.277499 111.159 0.553072 110.108C1.05411 108.203 1.55805 106.299 2.08896 104.401C2.1764 104.115 2.20627 103.815 2.17683 103.517C2.14739 103.219 2.05924 102.93 1.91745 102.667C1.04036 100.924 0.462833 99.0465 0.209087 97.1122C0.13104 96.534 0.069375 95.9472 0 95.3653V93.6328Z" fill="#F6BC54"/>
<path d="M18.5 89.7785C18.6108 89.6561 18.7062 89.552 18.7997 89.447C19.5319 88.6295 20.4977 88.0568 21.5663 87.8065C22.6349 87.5563 23.7545 87.6406 24.7736 88.048C25.804 88.4589 26.6812 89.18 27.2835 90.1116C27.8858 91.0431 28.1835 92.1389 28.1354 93.2472C28.0805 94.5962 27.6093 95.7717 26.6516 96.716C25.8538 97.4984 24.9933 98.2181 24.1464 98.9523C23.8496 99.2096 23.5239 99.1769 23.3206 98.9167C23.1173 98.6566 23.1799 98.3656 23.4825 98.1006C24.2427 97.4338 25.0299 96.7959 25.7507 96.0887C27.0563 94.8082 27.4041 93.2453 26.7797 91.5456C26.1756 89.9018 24.9307 88.944 23.177 88.788C21.3627 88.6251 19.9829 89.396 19.0492 90.9588C18.7245 91.5032 18.2736 91.5071 17.9527 90.9588C16.9969 89.3362 15.3261 88.5201 13.5368 88.8034C12.6677 88.9407 11.8627 89.3445 11.2329 89.959C10.6032 90.5734 10.1796 91.3682 10.0208 92.2336C9.75104 93.6085 10.0796 94.8949 11.0547 95.8767C12.1531 96.9838 13.3595 97.9917 14.5784 98.9668C15.7616 99.914 17.0258 100.759 18.2398 101.665C18.4499 101.821 18.58 101.789 18.7708 101.646C19.6958 100.955 20.6246 100.267 21.5718 99.6056C21.7433 99.4861 22.0352 99.4129 22.2241 99.4736C22.6423 99.6037 22.6558 100.13 22.2626 100.424C21.3752 101.087 20.4791 101.737 19.585 102.391C19.3421 102.569 19.0945 102.74 18.8488 102.913C18.7488 102.992 18.6246 103.036 18.4966 103.036C18.3687 103.036 18.2445 102.992 18.1445 102.913C15.6123 101.135 13.0733 99.3638 10.8138 97.2343C9.46487 95.9605 8.73739 94.4305 8.87711 92.5352C9.07945 89.7949 11.5856 87.5614 14.3375 87.6731C15.9408 87.7386 17.2657 88.3707 18.315 89.5829C18.3699 89.6416 18.4248 89.7004 18.5 89.7785Z" fill="#F6BC54"/>
<path d="M37 17.6328C37.0964 16.8716 37.1609 16.1056 37.2891 15.3512C37.952 11.497 39.6844 8.19493 42.4411 5.42667C42.7196 5.14725 43.0327 5.12702 43.2659 5.35827C43.4991 5.58952 43.4856 5.90844 43.184 6.21291C41.2569 8.14771 39.8309 10.3966 38.9897 12.9953C37.555 17.4276 37.8171 21.777 39.801 25.9906C40.2606 26.9657 40.3791 27.8704 40.0756 28.9062C39.5505 30.6676 39.1121 32.4559 38.638 34.2327C38.4029 35.1153 38.8905 35.6067 39.7683 35.3726C41.6375 34.8735 43.5116 34.3898 45.3751 33.8656C46.2086 33.6315 46.9592 33.723 47.7464 34.0853C54.2021 37.0559 60.3813 36.5288 66.0884 32.2835C70.0003 29.3736 72.2136 25.3614 72.7715 20.5032C73.8015 11.5423 67.8844 3.29917 59.0815 1.47133C54.0027 0.417215 49.3372 1.47133 45.1342 4.52865C45.0167 4.61344 44.9049 4.70593 44.7825 4.78205C44.5137 4.94874 44.2131 4.90442 44.0396 4.68569C43.9935 4.62868 43.9597 4.56268 43.9405 4.4919C43.9213 4.42112 43.9171 4.34711 43.928 4.27459C43.939 4.20207 43.9649 4.13264 44.0042 4.0707C44.0435 4.00877 44.0953 3.95568 44.1562 3.91486C44.6467 3.54679 45.141 3.17968 45.6584 2.85496C48.1862 1.24433 51.0734 0.284363 54.0624 0.0606918C54.1569 0.0471234 54.2502 0.0268489 54.3418 0H56.5821C57.0465 0.0558854 57.5128 0.102135 57.9763 0.16862C61.763 0.713021 65.093 2.24795 67.9201 4.82832C71.0487 7.68426 72.9921 11.205 73.7119 15.3858C73.84 16.1297 73.9046 16.8832 74.001 17.6328V19.3672C73.9747 19.4826 73.9551 19.5993 73.9422 19.7169C73.8458 21.355 73.5568 22.9689 72.9786 24.5087C70.4734 31.2111 65.7087 35.2945 58.6835 36.7109C57.9917 36.8497 57.2826 36.9036 56.5811 37H54.3438C54.2645 36.9746 54.1833 36.9556 54.1009 36.9431C51.6596 36.7675 49.279 36.1006 47.1018 34.9823C46.7017 34.779 46.2379 34.7402 45.8097 34.8744C43.8614 35.4034 41.9141 35.9343 39.9581 36.4277C39.5875 36.5215 39.1998 36.5245 38.8278 36.4363C37.8171 36.1742 37.2775 35.1587 37.5531 34.1084C38.0541 32.2035 38.558 30.2986 39.089 28.4014C39.1764 28.1153 39.2063 27.8147 39.1768 27.517C39.1474 27.2193 39.0592 26.9304 38.9174 26.667C38.0404 24.9243 37.4628 23.0465 37.2091 21.1122C37.131 20.534 37.0694 19.9472 37 19.3653V17.6328Z" fill="#F6BC54"/>
<path d="M55.5 13.7785C55.6108 13.6561 55.7062 13.552 55.7997 13.447C56.5319 12.6295 57.4977 12.0568 58.5663 11.8065C59.6349 11.5563 60.7545 11.6406 61.7736 12.048C62.804 12.4589 63.6812 13.18 64.2835 14.1116C64.8858 15.0431 65.1835 16.1389 65.1354 17.2472C65.0805 18.5962 64.6093 19.7717 63.6516 20.716C62.8538 21.4984 61.9933 22.2181 61.1464 22.9523C60.8496 23.2096 60.5239 23.1769 60.3206 22.9167C60.1173 22.6566 60.1799 22.3656 60.4825 22.1006C61.2427 21.4338 62.0299 20.7959 62.7507 20.0887C64.0563 18.8082 64.4041 17.2453 63.7797 15.5456C63.1756 13.9018 61.9307 12.944 60.177 12.788C58.3627 12.6251 56.9829 13.396 56.0492 14.9588C55.7245 15.5032 55.2736 15.5071 54.9527 14.9588C53.9969 13.3362 52.3261 12.5201 50.5368 12.8034C49.6677 12.9407 48.8627 13.3445 48.2329 13.959C47.6032 14.5734 47.1796 15.3682 47.0208 16.2336C46.751 17.6086 47.0796 18.8949 48.0547 19.8767C49.1531 20.9838 50.3595 21.9917 51.5784 22.9668C52.7616 23.914 54.0258 24.759 55.2398 25.6647C55.4499 25.8208 55.58 25.789 55.7708 25.6464C56.6958 24.9546 57.6246 24.2666 58.5718 23.6056C58.7433 23.4861 59.0352 23.4129 59.2241 23.4736C59.6423 23.6037 59.6558 24.1298 59.2626 24.4237C58.3752 25.0866 57.4791 25.737 56.585 26.3912C56.3421 26.5685 56.0945 26.74 55.8488 26.9125C55.7488 26.9923 55.6246 27.0358 55.4966 27.0358C55.3687 27.0358 55.2445 26.9923 55.1445 26.9125C52.6123 25.1348 50.0733 23.3638 47.8138 21.2343C46.4649 19.9605 45.7374 18.4305 45.8771 16.5352C46.0795 13.7949 48.5856 11.5614 51.3375 11.6731C52.9408 11.7386 54.2657 12.3707 55.315 13.5829C55.3699 13.6417 55.4248 13.7004 55.5 13.7785Z" fill="#F6BC54"/>
<path d="M108 62.6329C108.096 61.8718 108.161 61.1059 108.289 60.3516C108.952 56.4979 110.684 53.1963 113.441 50.4284C113.72 50.149 114.033 50.1288 114.266 50.36C114.499 50.5912 114.486 50.9101 114.184 51.2145C112.257 53.1491 110.831 55.3977 109.99 57.996C108.555 62.4277 108.817 66.7766 110.801 70.9896C111.261 71.9646 111.379 72.8692 111.076 73.9049C110.55 75.666 110.112 77.4541 109.638 79.2306C109.403 80.1131 109.89 80.6045 110.768 80.3704C112.638 79.8713 114.512 79.3877 116.375 78.8636C117.209 78.6295 117.959 78.721 118.746 79.0832C125.202 82.0534 131.381 81.5265 137.088 77.2816C141 74.3721 143.214 70.3605 143.771 65.5029C144.802 56.5432 138.884 48.3012 130.081 46.4736C125.003 45.4196 120.337 46.4736 116.134 49.5305C116.017 49.6153 115.905 49.7077 115.783 49.7839C115.514 49.9505 115.213 49.9062 115.04 49.6875C114.993 49.6305 114.96 49.5645 114.941 49.4938C114.921 49.423 114.917 49.349 114.928 49.2765C114.939 49.204 114.965 49.1345 115.004 49.0726C115.044 49.0107 115.095 48.9576 115.156 48.9168C115.647 48.5488 116.141 48.1817 116.658 47.857C119.186 46.2466 122.073 45.2868 125.062 45.0631C125.157 45.0496 125.25 45.0293 125.342 45.0024H127.582C128.046 45.0583 128.513 45.1046 128.976 45.171C132.763 45.7154 136.093 47.2501 138.92 49.8301C142.049 52.6857 143.992 56.206 144.712 60.3862C144.84 61.13 144.905 61.8834 145.001 62.6329V64.3671C144.975 64.4824 144.955 64.5992 144.942 64.7168C144.846 66.3546 144.557 67.9683 143.979 69.5079C141.473 76.2094 136.709 80.2923 129.684 81.7085C128.992 81.8473 128.283 81.9012 127.581 81.9976H125.344C125.264 81.9721 125.183 81.9531 125.101 81.9407C122.66 81.7651 120.279 81.0983 118.102 79.9802C117.702 79.7768 117.238 79.7381 116.81 79.8723C114.861 80.4012 112.914 80.932 110.958 81.4253C110.588 81.5192 110.2 81.5221 109.828 81.434C108.817 81.1719 108.277 80.1565 108.553 79.1064C109.054 77.2017 109.558 75.297 110.089 73.4C110.176 73.114 110.206 72.8135 110.177 72.5158C110.147 72.2182 110.059 71.9293 109.917 71.6659C109.04 69.9235 108.463 68.0459 108.209 66.1118C108.131 65.5338 108.069 64.947 108 64.3651V62.6329Z" fill="#F6BC54"/>
<path d="M126.5 58.7791C126.611 58.6567 126.706 58.5527 126.8 58.4477C127.532 57.6303 128.498 57.0576 129.566 56.8074C130.635 56.5572 131.755 56.6415 132.774 57.0488C133.804 57.4597 134.681 58.1807 135.283 59.1122C135.886 60.0436 136.184 61.1393 136.135 62.2474C136.08 63.5962 135.609 64.7715 134.652 65.7157C133.854 66.498 132.993 67.2176 132.146 67.9518C131.85 68.209 131.524 68.1762 131.321 67.9161C131.117 67.656 131.18 67.3651 131.482 67.1001C132.243 66.4334 133.03 65.7956 133.751 65.0885C135.056 63.8081 135.404 62.2455 134.78 60.546C134.176 58.9024 132.931 57.9448 131.177 57.7887C129.363 57.6259 127.983 58.3966 127.049 59.9593C126.725 60.5036 126.274 60.5075 125.953 59.9593C124.997 58.3369 123.326 57.5209 121.537 57.8041C120.668 57.9415 119.863 58.3452 119.233 58.9595C118.603 59.5739 118.18 60.3686 118.021 61.2339C117.751 62.6087 118.08 63.8948 119.055 64.8765C120.153 65.9835 121.36 66.9913 122.578 67.9662C123.762 68.9133 125.026 69.7582 126.24 70.6638C126.45 70.8199 126.58 70.788 126.771 70.6455C127.696 69.9537 128.625 69.2659 129.572 68.605C129.743 68.4855 130.035 68.4123 130.224 68.473C130.642 68.603 130.656 69.129 130.263 69.4229C129.375 70.0857 128.479 70.736 127.585 71.3902C127.342 71.5674 127.095 71.7389 126.849 71.9114C126.749 71.9912 126.625 72.0347 126.497 72.0347C126.369 72.0347 126.244 71.9912 126.144 71.9114C123.612 70.1339 121.073 68.3631 118.814 66.234C117.465 64.9604 116.737 63.4305 116.877 61.5354C117.079 58.7955 119.586 56.5623 122.337 56.674C123.941 56.7395 125.266 57.3715 126.315 58.5835C126.37 58.6423 126.425 58.7011 126.5 58.7791Z" fill="#F6BC54"/>
</svg>
