<svg width="290" height="230" viewBox="0 0 290 230" fill="none" xmlns="http://www.w3.org/2000/svg">
<path d="M34.2092 172.397C33.9631 172.408 33.7169 172.343 33.506 172.21C33.3009 172.078 33.1369 171.884 33.0431 171.656C32.9494 171.428 32.926 171.176 32.9787 170.934C33.0314 170.692 33.1545 170.473 33.3361 170.305L33.4182 169.977L33.383 169.895C33.1369 169.307 32.7208 168.804 32.1876 168.451C31.6544 168.098 31.0275 167.909 30.3888 167.909C29.756 167.909 29.1291 168.098 28.5959 168.451C28.0627 168.804 27.6467 169.307 27.4006 169.895C26.422 172.239 25.1799 174.612 24.8752 177.103C24.7404 178.204 24.7931 179.321 25.0392 180.402C22.7365 175.39 21.5412 169.942 21.5236 164.427C21.5236 163.043 21.5998 161.659 21.758 160.284C21.881 159.159 22.0568 158.04 22.2853 156.926C23.5158 150.895 26.1584 145.243 30.0021 140.435C31.8596 139.421 33.3596 137.863 34.3029 135.97C34.6486 135.29 34.8889 134.563 35.0236 133.813L34.3908 133.872H34.1681C33.9337 133.895 33.6935 133.846 33.4885 133.732C33.2834 133.618 33.1134 133.444 33.008 133.233C32.9025 133.022 32.8615 132.784 32.8908 132.549C32.926 132.315 33.0256 132.096 33.1838 131.92L33.4533 131.586L33.8693 131.076L33.9162 131.024L34.3908 130.438C34.1037 129.989 33.7111 129.614 33.2541 129.342C31.672 128.416 29.4865 129.055 28.3439 130.514C27.8049 131.261 27.4416 132.118 27.2775 133.022C27.1076 133.927 27.1427 134.857 27.3771 135.747C27.7697 137.271 28.4201 138.717 29.2931 140.025L29.0353 140.347C27.465 142.358 26.088 144.517 24.9338 146.794C25.215 144.232 24.881 141.641 23.9611 139.234C23.0353 136.989 21.2892 135.132 19.754 133.163C19.3497 132.639 18.799 132.248 18.172 132.039C17.5433 131.83 16.8677 131.812 16.2302 131.988C15.5927 132.164 15.0214 132.526 14.5902 133.027C14.1583 133.528 13.8859 134.147 13.8068 134.804V134.886C14.0353 135.015 14.258 135.149 14.4748 135.296C14.7484 135.479 14.9605 135.741 15.083 136.047C15.206 136.353 15.2335 136.689 15.1626 137.011C15.0917 137.333 14.9259 137.626 14.6863 137.852C14.446 138.078 14.1437 138.227 13.8185 138.279H13.7833C13.8642 139.099 14.0072 139.912 14.2111 140.711C14.8052 142.945 15.8541 145.032 17.292 146.842C18.7287 148.652 20.5275 150.146 22.5666 151.23L22.965 151.435C21.8107 154.701 21.09 158.103 20.8146 161.556C20.6505 163.593 20.6505 165.642 20.8146 167.68V167.609C20.381 165.343 19.1681 163.299 17.3927 161.825C14.7619 159.663 11.047 158.895 8.20523 157.137C7.90347 156.944 7.55308 156.842 7.19507 156.842C6.83706 156.841 6.48667 156.943 6.18492 157.135C5.88257 157.327 5.64173 157.601 5.48997 157.925C5.33822 158.249 5.28196 158.61 5.32825 158.965V159.042C5.74896 159.213 6.16031 159.409 6.55875 159.628C6.78726 159.757 7.0099 159.891 7.23255 160.038C7.50677 160.221 7.71948 160.483 7.84252 160.789C7.96557 161.095 7.99311 161.431 7.92163 161.753C7.85015 162.076 7.68256 162.368 7.44116 162.594C7.20034 162.819 6.89681 162.966 6.57044 163.015H6.53528H6.47084C7.19272 164.739 8.20756 166.325 9.47084 167.703C11.0294 169.376 12.9132 170.714 15.0068 171.633C17.1003 172.552 19.3615 173.034 21.6466 173.048C22.2677 175.745 23.1642 178.371 24.3302 180.883H33.9162C33.9513 180.777 33.9807 180.666 34.01 180.561C33.1252 180.613 32.2345 180.561 31.3615 180.402C32.0705 179.529 32.7795 178.644 33.4943 177.777L33.5353 177.724L34.6252 176.388C34.6427 175.018 34.4846 173.651 34.1564 172.321L34.2092 172.397Z" fill="#F2F2F2"/>
<path d="M147.277 181.07C147.277 181.176 147.236 181.276 147.16 181.351C147.084 181.425 146.984 181.468 146.879 181.469H0.751949C0.64648 181.469 0.545138 181.427 0.470138 181.352C0.395724 181.277 0.353516 181.176 0.353516 181.07C0.353516 180.965 0.395724 180.863 0.470138 180.788C0.545138 180.714 0.64648 180.672 0.751949 180.672H146.908C147.014 180.674 147.113 180.716 147.189 180.79C147.266 180.865 147.307 180.965 147.307 181.07H147.277Z" fill="#CCCCCC"/>
<path d="M76.871 129.998C76.373 129.877 75.8574 129.855 75.3535 129.933C74.8496 130.012 74.3691 130.189 73.9297 130.456C73.4961 130.722 73.1152 131.072 72.8164 131.485C72.5176 131.898 72.3007 132.367 72.1835 132.864C72.1308 133.085 72.0957 133.31 72.084 133.537L63.7285 136.468L64.2617 141.97L75.9804 137.698C76.9355 137.692 77.8495 137.336 78.5585 136.698C79.2675 136.059 79.7187 135.183 79.8242 134.235C79.9296 133.287 79.6836 132.334 79.1269 131.556C78.5761 130.778 77.7617 130.23 76.83 130.015L76.871 129.998Z" fill="#FFB6B6"/>
<path d="M63.2596 146.008C59.9374 148.323 54.0839 149.524 46.121 149.454C45.6816 149.455 45.248 149.365 44.8437 149.19C44.4394 149.014 44.0761 148.757 43.7773 148.434C41.6503 146.213 41.7324 141.144 41.7441 140.658L39.4004 131.867C39.3535 131.733 38.0586 128.117 39.4004 125.597C39.6758 125.068 40.0683 124.606 40.5429 124.244C41.0175 123.882 41.5683 123.628 42.1484 123.499C47.0878 122.192 51.7285 135.413 52.3203 137.159L59.2519 135.987L64.039 135.788L68.9081 133.098L71.6503 139.662L64.8651 144.625C64.3905 145.151 63.8514 145.616 63.2596 146.008Z" fill="#2F2E41"/>
<path d="M76.6367 218.811L81.7402 219.045L85.0917 199.46L77.5566 199.108L76.6367 218.811Z" fill="#FFB6B6"/>
<path d="M75.4824 216.232L83.5801 216.126L83.416 219.59L90.8457 225.245C91.2149 225.524 91.4844 225.914 91.6133 226.357C91.748 226.801 91.7305 227.275 91.5723 227.709C91.4141 228.144 91.1211 228.517 90.7402 228.773C90.3535 229.028 89.8965 229.154 89.4336 229.13L79.8242 228.679L78.3243 225.163L77.5214 228.556L73.8945 228.386L75.4824 216.232Z" fill="#2F2E41"/>
<path d="M129.951 176.757L131.809 171.993L114.33 162.552L105.5 168.101L129.951 176.757Z" fill="#FFB6B6"/>
<path d="M127.139 177.015L129.629 169.315L132.852 170.575L140.592 165.347C140.973 165.089 141.43 164.961 141.887 164.98C142.35 164.999 142.789 165.164 143.152 165.452C143.51 165.74 143.768 166.135 143.891 166.58C144.008 167.025 143.984 167.496 143.814 167.926L140.299 176.892L136.502 177.191L139.432 179.037L138.113 182.418L127.139 177.015Z" fill="#2F2E41"/>
<path d="M29.5273 162.581C29.5273 162.581 31.6484 176.124 41.6738 177.126C51.6992 178.128 60.9394 173.61 60.9394 173.61L89.0058 164.966C89.0058 164.966 118.889 173.446 123.875 174.788C123.875 174.788 127.332 166.935 127.215 166.431C126.148 161.743 124.76 164.919 124.76 164.919L93.0136 150.855C93.0136 150.855 88.0039 149.518 79.3144 153.199C70.625 156.879 47.3515 165.74 47.3515 165.74L29.5273 162.581Z" fill="#2F2E41"/>
<path d="M29.6445 161.731C29.6445 161.731 27.9688 177.953 37.7364 180.432C47.0176 182.776 59.8262 180.373 59.8262 180.373L75.0606 178.779C75.0606 178.779 75.7285 198.393 75.7285 208.08C78.834 208.503 81.9688 208.726 85.1035 208.748C85.7715 208.748 85.8125 208.397 85.8125 208.397L87.1075 174.495C87.2774 171.694 86.334 168.941 84.4708 166.838C82.6133 164.736 80 163.458 77.1992 163.284C76.8535 163.267 76.5078 163.267 76.1621 163.284C75.4414 163.284 74.6856 163.361 73.8946 163.437C64.5196 164.339 52.8476 162.423 52.8476 162.423L29.6445 161.731Z" fill="#2F2E41"/>
<path d="M56.7265 138.22C56.7265 138.22 60.6933 162.195 58.0156 164.111C55.3379 166.027 51.6582 166.033 51.6582 166.033L50.8145 152.795L56.7265 138.22Z" fill="#2F2E41"/>
<path d="M50.1172 108.772L55.4199 113.812C57.8867 116.153 59.5156 119.234 60.0723 122.588C60.623 125.942 60.0722 129.385 58.4902 132.395L55.959 137.224L50.1172 108.772Z" fill="#2F2E41"/>
<path d="M48.9337 109.616L56.088 117.78C57.6642 119.573 58.6427 121.815 58.8829 124.191C58.9943 125.271 58.9533 126.363 58.754 127.431L56.088 142.17L54.0548 163.425C54.0548 163.425 38.3458 168.184 36.7403 160.835C35.1348 153.486 48.9337 109.616 48.9337 109.616Z" fill="#F6BC54"/>
<path d="M42.1895 165.417C31.8653 163.7 29.334 163.355 29.1758 163.296L29.0234 163.237L30.0547 157.026L34.4258 146.284C34.7071 142.767 36.5528 138.015 35.4981 134.188C32.4336 123.054 37.4082 107.371 39.6817 106.164L45.9864 102.062L48.2013 104.09L52.0391 109.464C55.1973 123.528 57.3771 136.643 57.2716 137.44L55.3204 151.212L53.0294 156.486C46.0626 159.833 50.7442 166.847 42.1895 165.417Z" fill="#2F2E41"/>
<path d="M60.8807 155.315L77.0936 150.978L78.5234 150.638L79.537 150.398L80.7089 150.117C80.7968 150.096 80.8847 150.093 80.9667 150.107C81.0546 150.121 81.1366 150.152 81.2128 150.199L87.2363 157.418C87.289 157.454 87.3359 157.497 87.3769 157.547L87.4179 157.588C87.5234 157.736 87.5703 157.919 87.541 158.099C87.5175 158.279 87.4179 158.441 87.2714 158.55C87.2011 158.605 87.1191 158.643 87.0312 158.661L62.8495 164.228C62.7264 164.257 62.5917 164.25 62.4745 164.207C62.3514 164.165 62.2459 164.089 62.1639 163.988L61.9179 163.671L60.5819 157.225L60.4823 156.387C60.4237 156.309 60.3827 156.219 60.3592 156.123C60.3417 156.036 60.3417 155.946 60.3534 155.858C60.371 155.77 60.4061 155.686 60.453 155.611C60.4999 155.536 60.5643 155.471 60.6346 155.42C60.7108 155.369 60.7928 155.333 60.8807 155.315Z" fill="#E6E6E6"/>
<path opacity="0.17" d="M61.9473 163.671L62.1934 163.988C62.2754 164.089 62.3809 164.165 62.4981 164.208C62.6211 164.25 62.7558 164.257 62.8789 164.228L87.0605 158.661C87.166 158.633 87.2714 158.578 87.3535 158.503C87.4355 158.427 87.5 158.332 87.5351 158.227C87.5762 158.121 87.5878 158.007 87.5703 157.897C87.5527 157.785 87.5117 157.68 87.4472 157.588L87.4063 157.547L61.9473 163.671Z" fill="black"/>
<path d="M80.6035 150.069L80.1699 119.232C80.1582 119.14 80.1699 119.048 80.1933 118.959C80.2226 118.871 80.2636 118.788 80.3222 118.717L83.4218 112.27L83.7441 111.878C83.8613 111.736 84.0312 111.646 84.2187 111.626L84.8925 111.561C85.08 111.545 85.2616 111.602 85.4081 111.72C85.5546 111.839 85.6425 112.008 85.6659 112.194L86.2518 144.818L86.5565 147.96L86.9139 151.687L87.4999 157.494C87.5116 157.593 87.4999 157.693 87.4648 157.787C87.4296 157.881 87.3827 157.967 87.3124 158.039C87.2421 158.111 87.16 158.169 87.0722 158.209C86.9843 158.248 86.8847 158.268 86.7851 158.268H86.3456C86.1757 158.267 86.0116 158.204 85.8886 158.092L85.6425 157.869L85.5312 157.764L80.8437 150.526C80.7089 150.41 80.621 150.247 80.6035 150.069Z" fill="#E6E6E6"/>
<path opacity="0.17" d="M83.4219 112.271L85.5195 157.764L85.6309 157.87L85.8769 158.087C85.9999 158.201 86.164 158.266 86.3339 158.268H86.7734C86.9609 158.27 87.1425 158.198 87.2714 158.067C87.4062 157.937 87.4824 157.758 87.4882 157.571V157.495L85.666 112.183C85.6425 111.997 85.5547 111.827 85.4082 111.709C85.2617 111.591 85.0801 111.534 84.8926 111.55L84.2187 111.615C84.0312 111.633 83.8614 111.723 83.7442 111.867L83.4219 112.271Z" fill="black"/>
<path d="M83.6035 114.111L80.7676 121.108L81.1191 142.035L84.1836 146.477L83.6035 114.111Z" fill="#F6BC54"/>
<path d="M62.7499 155.133C62.6738 155.152 62.5976 155.187 62.5332 155.236C62.4687 155.285 62.416 155.346 62.3808 155.417C62.3398 155.488 62.3164 155.565 62.3105 155.645C62.2988 155.725 62.3105 155.806 62.334 155.883L63.582 161.087L64.7538 160.753L63.5 155.549C63.4824 155.471 63.4472 155.397 63.3945 155.334C63.3476 155.27 63.2832 155.216 63.2129 155.177C63.1425 155.138 63.0664 155.114 62.9843 155.106C62.9082 155.099 62.8261 155.107 62.7499 155.133Z" fill="#2F2E41"/>
<path d="M65.0878 154.465C65.0116 154.484 64.9355 154.52 64.871 154.569C64.8066 154.618 64.7538 154.679 64.7187 154.75C64.6777 154.82 64.6543 154.897 64.6484 154.978C64.6367 155.058 64.6484 155.139 64.6718 155.215L64.9413 156.153L66.1131 155.819L65.8495 154.887C65.8319 154.807 65.7967 154.732 65.744 154.666C65.6971 154.601 65.6327 154.546 65.5624 154.506C65.4921 154.467 65.4101 154.443 65.328 154.436C65.246 154.428 65.164 154.438 65.0878 154.465Z" fill="#2F2E41"/>
<path d="M67.4316 153.797C67.2793 153.843 67.1446 153.948 67.0684 154.089C66.9864 154.23 66.9688 154.396 67.0098 154.553L67.2793 155.485L68.4511 155.156L68.1816 154.219C68.164 154.14 68.1289 154.066 68.082 154.001C68.0293 153.937 67.9707 153.883 67.9004 153.844C67.8301 153.804 67.7481 153.779 67.6719 153.772C67.5899 153.763 67.5078 153.772 67.4316 153.797Z" fill="#2F2E41"/>
<path d="M69.7695 153.135C69.6933 153.154 69.6172 153.189 69.5527 153.238C69.4882 153.287 69.4355 153.348 69.4003 153.419C69.3593 153.489 69.3359 153.567 69.33 153.647C69.3183 153.727 69.3301 153.808 69.3535 153.885L69.6171 154.822L70.7891 154.488L70.5195 153.551C70.502 153.473 70.4668 153.399 70.4141 153.335C70.3672 153.271 70.3027 153.218 70.2324 153.179C70.1621 153.14 70.0859 153.116 70.0098 153.108C69.9277 153.1 69.8457 153.109 69.7695 153.135Z" fill="#2F2E41"/>
<path d="M72.1074 152.466C72.0312 152.486 71.955 152.521 71.8906 152.57C71.8261 152.619 71.7734 152.681 71.7382 152.751C71.6972 152.822 71.6738 152.899 71.6679 152.979C71.6562 153.059 71.6679 153.14 71.6914 153.217L71.955 154.154L73.127 153.82L72.8633 152.883C72.8457 152.804 72.8106 152.73 72.7579 152.666C72.711 152.601 72.6465 152.548 72.5762 152.509C72.5059 152.469 72.4297 152.445 72.3477 152.438C72.2656 152.431 72.1836 152.441 72.1074 152.466Z" fill="#2F2E41"/>
<path d="M74.4512 151.798C74.293 151.843 74.1641 151.948 74.0821 152.089C74.0059 152.231 73.9883 152.398 74.0293 152.554L74.2988 153.486L75.4706 153.152L75.207 152.22C75.1894 152.141 75.1543 152.066 75.1016 152.001C75.0547 151.936 74.9961 151.882 74.9199 151.842C74.8496 151.803 74.7734 151.778 74.6914 151.771C74.6094 151.763 74.5273 151.772 74.4512 151.798Z" fill="#2F2E41"/>
<path d="M76.789 151.136C76.7128 151.155 76.6367 151.191 76.5722 151.24C76.5078 151.288 76.4551 151.351 76.4199 151.421C76.3789 151.491 76.3554 151.569 76.3496 151.649C76.3378 151.729 76.3496 151.81 76.373 151.886L76.6367 152.824L77.8086 152.49L77.539 151.552C77.5214 151.474 77.4863 151.401 77.4336 151.337C77.3867 151.273 77.3281 151.22 77.2578 151.181C77.1875 151.142 77.1054 151.118 77.0293 151.11C76.9472 151.102 76.8652 151.111 76.789 151.136Z" fill="#2F2E41"/>
<path d="M79.1269 150.468C79.0507 150.487 78.9746 150.522 78.9101 150.572C78.8457 150.62 78.7929 150.682 78.7578 150.752C78.7168 150.823 78.6933 150.9 78.6875 150.981C78.6757 151.061 78.6874 151.142 78.7109 151.218L78.9746 152.156L80.1464 151.822L79.8827 150.884C79.8651 150.805 79.83 150.732 79.7773 150.667C79.7304 150.603 79.6659 150.549 79.5956 150.51C79.5253 150.471 79.4491 150.447 79.3671 150.44C79.2851 150.433 79.2031 150.442 79.1269 150.468Z" fill="#2F2E41"/>
<path d="M65.5801 156.598C65.504 156.617 65.4277 156.653 65.3633 156.702C65.2988 156.751 65.2461 156.813 65.2051 156.884C65.17 156.956 65.1407 157.034 65.1348 157.115C65.1289 157.195 65.1406 157.277 65.1641 157.354L65.4278 158.285L66.5997 157.951L66.336 157.02C66.2891 156.865 66.1836 156.734 66.043 156.655C65.9023 156.577 65.7383 156.556 65.5801 156.598Z" fill="#2F2E41"/>
<path d="M67.924 155.936C67.8479 155.954 67.7716 155.99 67.7072 156.038C67.6427 156.087 67.59 156.148 67.549 156.219C67.508 156.289 67.4846 156.367 67.4787 156.447C67.467 156.528 67.4787 156.609 67.5021 156.686L67.7717 157.623L68.9435 157.289L68.6798 156.352C68.6622 156.273 68.6271 156.199 68.5744 156.135C68.5275 156.07 68.463 156.017 68.3927 155.978C68.3224 155.939 68.2462 155.915 68.1642 155.908C68.0822 155.901 68.0002 155.91 67.924 155.936Z" fill="#2F2E41"/>
<path d="M70.2619 155.285C70.1858 155.304 70.1096 155.339 70.0451 155.387C69.9807 155.436 69.9279 155.497 69.8869 155.568C69.8459 155.639 69.8225 155.717 69.8166 155.797C69.8049 155.877 69.8166 155.959 69.84 156.035L70.1096 156.973L71.2814 156.639L71.0119 155.701C70.9943 155.623 70.9592 155.55 70.9064 155.486C70.8596 155.422 70.7951 155.369 70.7248 155.33C70.6544 155.291 70.5783 155.267 70.4962 155.259C70.4201 155.252 70.3381 155.261 70.2619 155.285Z" fill="#2F2E41"/>
<path d="M72.5996 154.599C72.5234 154.619 72.4472 154.654 72.3828 154.703C72.3183 154.752 72.2656 154.813 72.2304 154.884C72.1894 154.955 72.166 155.032 72.1601 155.112C72.1484 155.193 72.1601 155.273 72.1835 155.35L72.4472 156.287L73.6191 155.953L73.3495 155.021C73.3319 154.943 73.2968 154.869 73.2499 154.805C73.1972 154.74 73.1386 154.686 73.0683 154.646C72.998 154.607 72.9159 154.582 72.8397 154.574C72.7577 154.566 72.6757 154.575 72.5996 154.599Z" fill="#2F2E41"/>
<path d="M74.9434 153.931C74.8614 153.95 74.7911 153.985 74.7266 154.034C74.6622 154.083 74.6035 154.145 74.5684 154.216C74.5274 154.288 74.5039 154.366 74.4922 154.447C74.4864 154.528 74.498 154.61 74.5215 154.687L74.791 155.619L75.9629 155.291L75.6992 154.353C75.6816 154.274 75.6465 154.199 75.5938 154.134C75.5469 154.069 75.4883 154.015 75.4121 153.975C75.3418 153.936 75.2656 153.912 75.1836 153.904C75.1015 153.896 75.0196 153.906 74.9434 153.931Z" fill="#2F2E41"/>
<path d="M77.2812 153.269C77.205 153.288 77.1289 153.322 77.0644 153.372C77 153.42 76.9472 153.481 76.9062 153.552C76.8652 153.623 76.8418 153.7 76.8359 153.781C76.8242 153.861 76.8359 153.943 76.8594 154.019L77.1289 154.957L78.3007 154.623L78.0312 153.685C78.0136 153.607 77.9784 153.534 77.9257 153.47C77.8788 153.406 77.8144 153.353 77.744 153.314C77.6737 153.275 77.5976 153.251 77.5214 153.243C77.4394 153.236 77.3574 153.245 77.2812 153.269Z" fill="#2F2E41"/>
<path d="M79.6191 152.601C79.5429 152.62 79.4668 152.655 79.4023 152.705C79.3378 152.753 79.2851 152.815 79.25 152.886C79.2089 152.956 79.1855 153.033 79.1796 153.114C79.1679 153.194 79.1797 153.275 79.2031 153.351L79.4667 154.289L80.6386 153.955L80.3691 153.017C80.3515 152.939 80.3163 152.866 80.2636 152.802C80.2167 152.738 80.1523 152.685 80.082 152.645C80.0117 152.607 79.9355 152.583 79.8593 152.575C79.7773 152.567 79.6953 152.576 79.6191 152.601Z" fill="#2F2E41"/>
<path d="M66.0489 158.731C65.9727 158.75 65.8965 158.785 65.8321 158.835C65.7676 158.884 65.7149 158.947 65.6739 159.017C65.6328 159.088 65.6094 159.167 65.6035 159.248C65.5977 159.329 65.6094 159.41 65.6329 159.487L65.8965 160.419L67.0684 160.09L66.7989 159.153C66.7813 159.074 66.7461 159 66.6993 158.935C66.6465 158.871 66.588 158.817 66.5177 158.778C66.4473 158.738 66.3653 158.713 66.2891 158.706C66.2071 158.697 66.125 158.706 66.0489 158.731Z" fill="#2F2E41"/>
<path d="M68.3925 158.069C68.3164 158.088 68.2402 158.124 68.1757 158.173C68.1113 158.222 68.0585 158.283 68.0234 158.354C67.9824 158.424 67.9589 158.501 67.9531 158.582C67.9414 158.662 67.9531 158.743 67.9765 158.819L68.2402 159.757L69.412 159.423L69.1484 158.485C69.1308 158.407 69.0956 158.333 69.0429 158.268C68.996 158.204 68.9316 158.15 68.8613 158.111C68.791 158.072 68.7148 158.048 68.6328 158.041C68.5508 158.034 68.4687 158.043 68.3925 158.069Z" fill="#2F2E41"/>
<path d="M70.7363 157.4C70.6601 157.419 70.5839 157.454 70.5195 157.503C70.455 157.552 70.4023 157.613 70.3613 157.684C70.3203 157.754 70.2968 157.832 70.291 157.912C70.2793 157.992 70.291 158.074 70.3144 158.151L70.5839 159.088L71.7558 158.754L71.4922 157.817C71.4746 157.738 71.4394 157.664 71.3867 157.6C71.3398 157.535 71.2754 157.482 71.2051 157.443C71.1347 157.403 71.0586 157.379 70.9765 157.372C70.8945 157.365 70.8125 157.375 70.7363 157.4Z" fill="#2F2E41"/>
<path d="M73.0801 156.733C73.0039 156.752 72.9278 156.788 72.8633 156.837C72.7989 156.886 72.7461 156.948 72.7051 157.019C72.6641 157.091 72.6407 157.169 72.6348 157.25C72.6289 157.331 72.6407 157.412 72.6641 157.489L72.9278 158.421L74.0997 158.087L73.8302 157.155C73.8126 157.076 73.7774 157.002 73.7305 156.938C73.6778 156.873 73.6192 156.82 73.5489 156.78C73.4786 156.74 73.3966 156.716 73.3204 156.708C73.2383 156.699 73.1563 156.708 73.0801 156.733Z" fill="#2F2E41"/>
<path d="M75.4238 156.07C75.3476 156.09 75.2714 156.125 75.207 156.174C75.1425 156.223 75.0898 156.285 75.0546 156.355C75.0136 156.426 74.9902 156.503 74.9843 156.583C74.9726 156.664 74.9844 156.744 75.0078 156.821L75.2714 157.758L76.4433 157.424L76.1797 156.487C76.1621 156.408 76.1269 156.334 76.0742 156.27C76.0273 156.205 75.9629 156.152 75.8926 156.113C75.8222 156.073 75.7461 156.049 75.664 156.042C75.582 156.035 75.5 156.045 75.4238 156.07Z" fill="#2F2E41"/>
<path d="M77.7675 155.402C77.6913 155.421 77.6152 155.456 77.5507 155.504C77.4863 155.553 77.4335 155.615 77.3925 155.686C77.3515 155.756 77.3281 155.834 77.3222 155.914C77.3105 155.994 77.3222 156.076 77.3457 156.153L77.6152 157.09L78.787 156.756L78.5234 155.819C78.5058 155.74 78.4706 155.666 78.4179 155.602C78.371 155.537 78.3066 155.484 78.2363 155.445C78.166 155.405 78.0898 155.381 78.0078 155.374C77.9257 155.367 77.8437 155.377 77.7675 155.402Z" fill="#2F2E41"/>
<path d="M80.1113 154.734C80.0351 154.754 79.9589 154.789 79.8945 154.838C79.83 154.887 79.7773 154.948 79.7421 155.018C79.7011 155.089 79.6777 155.167 79.6718 155.247C79.6601 155.327 79.6719 155.408 79.6953 155.484L79.9589 156.422L81.1308 156.088L80.8613 155.156C80.8437 155.078 80.8085 155.004 80.7617 154.939C80.7089 154.875 80.6504 154.821 80.5801 154.781C80.5097 154.742 80.4336 154.717 80.3515 154.709C80.2695 154.701 80.1875 154.71 80.1113 154.734Z" fill="#2F2E41"/>
<path d="M73.2384 150.696C72.67 149.843 71.7853 149.251 70.7774 149.05C69.7696 148.849 68.7266 149.055 67.8711 149.624C67.6778 149.748 67.502 149.892 67.338 150.052L59.2344 146.495L55.877 150.89L67.3907 155.742C68.0938 156.397 69.0079 156.769 69.9688 156.789C70.9298 156.808 71.8614 156.472 72.588 155.845C73.3145 155.219 73.7833 154.347 73.9063 153.395C74.0294 152.444 73.795 151.481 73.2501 150.691L73.2384 150.696Z" fill="#FFB6B6"/>
<path d="M52.3673 153.169C48.3595 152.583 43.2677 149.495 37.4669 144.039C37.1446 143.741 36.8869 143.378 36.7111 142.975C36.5294 142.571 36.4415 142.136 36.4415 141.695C36.3888 138.618 39.8927 134.961 40.2384 134.61L44.5099 126.57C44.5685 126.435 46.0743 122.907 48.7579 121.952C49.3204 121.757 49.9239 121.687 50.5157 121.746C51.1075 121.805 51.6817 121.99 52.1974 122.292C56.7091 124.688 51.1192 137.528 50.3634 139.222L56.2228 143.072L59.8673 146.184L65.2638 147.532L62.8087 154.207L54.4591 153.222C53.7618 153.294 53.0587 153.275 52.3673 153.169Z" fill="#2F2E41"/>
<path d="M60.2657 92.2608C60.9454 86.6209 57.0196 81.5137 51.5001 80.8526C45.9864 80.1916 40.9649 84.2281 40.2911 89.8675C39.6114 95.5074 43.5372 100.615 49.0567 101.276C54.5704 101.937 59.5918 97.9008 60.2657 92.2608Z" fill="#FFB6B6"/>
<path d="M24.084 83.5087C26.0176 81.7506 27.1426 79.2014 28.7715 77.1151C30.4004 75.0289 33.002 73.2942 35.4395 74.1205C37.1153 74.7065 38.2637 76.365 38.7324 78.1348C39.1074 79.9439 39.2012 81.8004 39.002 83.6376C39.4121 79.8694 42.3242 76.5232 45.8809 75.738C47.6797 75.3834 49.543 75.6096 51.2071 76.3838C52.8712 77.1579 54.2481 78.4401 55.1328 80.0452C56.1758 79.2957 57.4532 78.9517 58.7305 79.0777C60.0079 79.2043 61.1973 79.7921 62.0703 80.7309C62.8965 81.7582 63.3594 83.0352 63.3712 84.3549C63.3829 85.6746 62.9492 86.9604 62.1406 88.0035C61.3086 88.9828 60.1426 89.6233 58.8711 89.8044C57.5938 89.986 56.2989 89.6954 55.2266 88.988L54.3301 89.6502C54.4414 90.4525 54.2657 91.2689 53.8379 91.9563C53.4102 92.6443 52.7539 93.1594 51.9864 93.4125C50.75 93.7466 49.0919 93.4711 48.5059 94.6549C48.0958 95.4812 48.5587 96.4716 49.0919 97.21C49.6251 97.9484 50.2637 98.722 50.2344 99.6479C50.1817 101.048 48.6289 101.845 47.3047 101.992C45.67 102.118 44.0352 101.753 42.6055 100.946C41.1758 100.138 40.0215 98.923 39.2891 97.4561C39.2598 97.3975 39.2305 97.3413 39.1954 97.2862C38.334 95.8645 37.7774 94.2828 37.5488 92.6378C37.3203 90.9923 37.4317 89.318 37.8711 87.7164C38.0469 87.0893 38 86.6029 37.5782 86.3978C35.75 85.5129 30.2363 86.2454 28.4668 87.3003C26.6973 88.3551 25.209 89.8378 23.4922 90.9747C21.7754 92.1116 19.6602 92.8969 17.7266 92.2991C16.9508 92.0137 16.2401 91.5754 15.636 91.011C15.0325 90.4461 14.5479 89.7663 14.211 89.0115C13.5295 87.4702 13.0777 85.837 12.8691 84.165C14.535 85.3459 16.5529 85.9243 18.5938 85.8047C20.6328 85.6858 22.5664 84.8759 24.084 83.5087Z" fill="#2F2E41"/>
<path d="M288.705 11.7082H136.895C136.736 11.7082 136.59 11.6466 136.479 11.5365C136.367 11.4263 136.309 11.2774 136.309 11.1222C136.309 10.9669 136.367 10.8174 136.479 10.7078C136.59 10.5977 136.736 10.5361 136.895 10.5361H288.705C288.863 10.5361 289.016 10.6 289.133 10.7131C289.244 10.8262 289.309 10.9797 289.309 11.1397C289.309 11.2997 289.244 11.4533 289.133 11.5664C289.016 11.6795 288.863 11.7433 288.705 11.7433V11.7082Z" fill="#CACACA"/>
<path d="M147.231 7.401C149.188 7.401 150.77 5.78241 150.77 3.78523C150.77 1.78805 149.188 0.169434 147.231 0.169434C145.273 0.169434 143.691 1.78805 143.691 3.78523C143.691 5.78241 145.273 7.401 147.231 7.401Z" fill="#3F3D56"/>
<path d="M159.453 7.401C161.41 7.401 162.992 5.78241 162.992 3.78523C162.992 1.78805 161.41 0.169434 159.453 0.169434C157.496 0.169434 155.914 1.78805 155.914 3.78523C155.914 5.78241 157.496 7.401 159.453 7.401Z" fill="#3F3D56"/>
<path d="M171.676 7.401C173.633 7.401 175.215 5.78241 175.215 3.78523C175.215 1.78805 173.633 0.169434 171.676 0.169434C169.719 0.169434 168.137 1.78805 168.137 3.78523C168.137 5.78241 169.719 7.401 171.676 7.401Z" fill="#3F3D56"/>
<path d="M281.34 1.06592H272.662C272.486 1.06592 272.322 1.13507 272.199 1.25814C272.076 1.3812 272.006 1.54822 272.006 1.72227C272.006 1.89632 272.076 2.06333 272.199 2.1864C272.322 2.30946 272.486 2.37862 272.662 2.37862H281.34C281.428 2.37744 281.51 2.3587 281.592 2.32412C281.668 2.29013 281.738 2.24033 281.803 2.17821C281.861 2.11609 281.908 2.04283 281.938 1.96254C281.973 1.88226 281.984 1.7967 281.984 1.71055C281.984 1.54002 281.914 1.37711 281.791 1.25638C281.674 1.13566 281.51 1.06768 281.34 1.06592Z" fill="#3F3D56"/>
<path d="M281.34 3.5332H272.662C272.486 3.5332 272.322 3.60236 272.199 3.72542C272.076 3.84849 272.006 4.01551 272.006 4.18956C272.006 4.36361 272.076 4.53064 272.199 4.65371C272.322 4.77678 272.486 4.84593 272.662 4.84593H281.34C281.516 4.84593 281.68 4.77678 281.803 4.65371C281.926 4.53064 281.996 4.36361 281.996 4.18956C281.996 4.01551 281.926 3.84849 281.803 3.72542C281.68 3.60236 281.516 3.5332 281.34 3.5332Z" fill="#3F3D56"/>
<path d="M281.34 5.99463H272.662C272.498 6.00987 272.346 6.08604 272.234 6.20793C272.123 6.32982 272.064 6.48923 272.064 6.6539C272.064 6.81857 272.123 6.97739 272.234 7.09928C272.346 7.22117 272.498 7.29793 272.662 7.31317H281.34C281.516 7.30848 281.68 7.23523 281.803 7.10865C281.92 6.98266 281.99 6.81389 281.984 6.63925C281.978 6.46931 281.914 6.30698 281.791 6.18684C281.674 6.06671 281.51 5.99756 281.34 5.99463Z" fill="#3F3D56"/>
<path d="M231.102 35.2196C233.516 35.2196 235.473 33.2623 235.473 30.8478C235.473 28.4334 233.516 26.4761 231.102 26.4761C228.688 26.4761 226.73 28.4334 226.73 30.8478C226.73 33.2623 228.688 35.2196 231.102 35.2196Z" fill="#E6E7E8"/>
<path d="M267.963 40.5351H228.025C227.697 40.5128 227.387 40.3663 227.158 40.1237C226.93 39.8817 226.807 39.5629 226.807 39.2312C226.807 38.9001 226.93 38.5807 227.158 38.3386C227.387 38.0966 227.697 37.9495 228.025 37.9272H267.969C268.297 37.9495 268.607 38.0966 268.836 38.3386C269.064 38.5807 269.188 38.9001 269.188 39.2312C269.188 39.5629 269.064 39.8817 268.836 40.1237C268.607 40.3663 268.297 40.5128 267.969 40.5351H267.963Z" fill="#E6E7E8"/>
<path d="M237.945 45.6982H228.025C227.697 45.6759 227.387 45.5288 227.158 45.2868C226.93 45.0447 226.807 44.7259 226.807 44.3942C226.807 44.0626 226.93 43.7437 227.158 43.5017C227.387 43.2597 227.697 43.1126 228.025 43.0903H237.945C238.273 43.1126 238.584 43.2597 238.813 43.5017C239.041 43.7437 239.164 44.0626 239.164 44.3942C239.164 44.7259 239.041 45.0447 238.813 45.2868C238.584 45.5288 238.273 45.6759 237.945 45.6982Z" fill="#E6E7E8"/>
<path d="M231.102 103.498C233.516 103.498 235.473 101.541 235.473 99.1261C235.473 96.7117 233.516 94.7544 231.102 94.7544C228.688 94.7544 226.73 96.7117 226.73 99.1261C226.73 101.541 228.688 103.498 231.102 103.498Z" fill="#E6E7E8"/>
<path d="M267.963 108.813H228.025C227.697 108.791 227.387 108.644 227.158 108.402C226.93 108.16 226.807 107.841 226.807 107.509C226.807 107.177 226.93 106.859 227.158 106.616C227.387 106.374 227.697 106.227 228.025 106.205H267.963C268.291 106.227 268.602 106.374 268.83 106.616C269.059 106.859 269.182 107.177 269.182 107.509C269.182 107.841 269.059 108.16 268.83 108.402C268.602 108.644 268.291 108.791 267.963 108.813Z" fill="#E6E7E8"/>
<path d="M237.945 113.958H228.025C227.68 113.958 227.352 113.821 227.105 113.578C226.859 113.333 226.725 113.003 226.725 112.657C226.725 112.312 226.859 111.981 227.105 111.737C227.352 111.494 227.68 111.356 228.025 111.356H237.945C238.291 111.356 238.619 111.494 238.865 111.737C239.111 111.981 239.246 112.312 239.246 112.657C239.246 113.003 239.111 113.333 238.865 113.578C238.619 113.821 238.291 113.958 237.945 113.958Z" fill="#E6E7E8"/>
<path d="M160.707 93.1371C163.121 93.1371 165.078 91.1798 165.078 88.7653C165.078 86.3509 163.121 84.3936 160.707 84.3936C158.293 84.3936 156.336 86.3509 156.336 88.7653C156.336 91.1798 158.293 93.1371 160.707 93.1371Z" fill="#E6E7E8"/>
<path d="M197.568 98.4404H157.631C157.303 98.4181 156.992 98.271 156.764 98.029C156.535 97.7869 156.412 97.4682 156.412 97.1365C156.412 96.8048 156.535 96.486 156.764 96.2439C156.992 96.0019 157.303 95.8548 157.631 95.8325H197.568C197.896 95.8548 198.207 96.0019 198.436 96.2439C198.664 96.486 198.787 96.8048 198.787 97.1365C198.787 97.4682 198.664 97.7869 198.436 98.029C198.207 98.271 197.896 98.4181 197.568 98.4404Z" fill="#E6E7E8"/>
<path d="M167.551 103.598H157.631C157.285 103.598 156.957 103.46 156.711 103.217C156.465 102.973 156.33 102.642 156.33 102.297C156.33 101.951 156.465 101.621 156.711 101.377C156.957 101.133 157.285 100.996 157.631 100.996H167.551C167.896 100.996 168.225 101.133 168.471 101.377C168.717 101.621 168.852 101.951 168.852 102.297C168.852 102.642 168.717 102.973 168.471 103.217C168.225 103.46 167.896 103.598 167.551 103.598Z" fill="#E6E7E8"/>
<path d="M231.102 66.7831C233.516 66.7831 235.473 64.8258 235.473 62.4113C235.473 59.9969 233.516 58.0396 231.102 58.0396C228.688 58.0396 226.73 59.9969 226.73 62.4113C226.73 64.8258 228.688 66.7831 231.102 66.7831Z" fill="#E6E7E8"/>
<path d="M267.963 72.0985H228.025C227.697 72.0763 227.387 71.9292 227.158 71.6872C226.93 71.4451 226.807 71.1258 226.807 70.7946C226.807 70.463 226.93 70.1442 227.158 69.9021C227.387 69.6601 227.697 69.513 228.025 69.4907H267.963C268.291 69.513 268.602 69.6601 268.83 69.9021C269.059 70.1442 269.182 70.463 269.182 70.7946C269.182 71.1258 269.059 71.4451 268.83 71.6872C268.602 71.9292 268.291 72.0763 267.963 72.0985Z" fill="#E6E7E8"/>
<path d="M252.025 77.244H228.002C227.656 77.244 227.328 77.1069 227.082 76.8631C226.836 76.6193 226.701 76.2882 226.701 75.9431C226.701 75.5985 226.836 75.2674 227.082 75.023C227.328 74.7792 227.656 74.6421 228.002 74.6421H252.025C252.371 74.6421 252.699 74.7792 252.945 75.023C253.191 75.2674 253.326 75.5985 253.326 75.9431C253.326 76.2882 253.191 76.6193 252.945 76.8631C252.699 77.1069 252.371 77.244 252.025 77.244Z" fill="#E6E7E8"/>
<path d="M245.346 82.3949H228.031C227.703 82.3727 227.393 82.2256 227.164 81.9835C226.936 81.7415 226.812 81.4227 226.812 81.091C226.812 80.7593 226.936 80.4405 227.164 80.1985C227.393 79.9565 227.703 79.8094 228.031 79.7871H245.346C245.674 79.8094 245.984 79.9565 246.213 80.1985C246.441 80.4405 246.564 80.7593 246.564 81.091C246.564 81.4227 246.441 81.7415 246.213 81.9835C245.984 82.2256 245.674 82.3727 245.346 82.3949Z" fill="#E6E7E8"/>
<path d="M191.223 33.9773V79.9102C191.217 80.2307 191.088 80.5367 190.865 80.7629C190.637 80.9885 190.332 81.1162 190.01 81.1174H165.816C163.139 78.635 160.941 75.6814 159.336 72.4032C159.231 72.1863 159.131 71.9753 159.037 71.7585C157.572 68.5852 156.688 65.1757 156.418 61.6906C156.418 61.4796 156.389 61.2628 156.377 61.0459C156.377 60.4951 156.33 59.9325 156.33 59.3699C156.324 55.624 157.033 51.9104 158.416 48.4288C158.498 48.2119 158.586 47.9951 158.674 47.7841C160.496 43.5061 163.291 39.7128 166.842 36.7082L167.486 36.1866L167.533 36.1456C170.311 33.9463 173.756 32.7543 177.301 32.7642H190.01C190.332 32.766 190.637 32.8943 190.865 33.1217C191.094 33.3485 191.223 33.6562 191.223 33.9773Z" fill="#F6BC54"/>
<path opacity="0.2" d="M191.287 48.4345V47.7899H180.494V32.77H179.85V47.7899H167.486V36.1924L166.842 36.714V47.7899H158.674C158.586 48.0009 158.498 48.2177 158.416 48.4345H166.83V61.0517H156.377C156.377 61.2686 156.377 61.4854 156.418 61.6963H166.83V71.7643H159.037C159.131 71.9811 159.23 72.1921 159.336 72.409H166.83V80.8595H167.475V72.3972H179.838V80.8595H180.482V72.3972H191.275V71.7526H180.482C180.482 69.0832 181.543 66.5235 183.43 64.6353C185.316 62.7477 187.871 61.6864 190.543 61.6846H191.275V61.04H180.482V48.4228L191.287 48.4345ZM179.85 71.7643H167.486V61.6963H179.85V71.7643ZM179.85 61.0517H167.486V60.7997C167.486 57.5203 168.787 54.3751 171.107 52.0562C173.428 49.7373 176.568 48.4345 179.85 48.4345V61.0517Z" fill="black"/>
<path d="M190.068 71.9287C189.811 71.9398 189.553 71.8707 189.336 71.7318C189.119 71.5929 188.949 71.3901 188.85 71.1516C188.75 70.9125 188.727 70.6488 188.779 70.3962C188.832 70.1431 188.967 69.9133 189.154 69.7369L189.236 69.397V69.3091C188.064 66.5372 180.652 74.2669 180.33 76.8748C180.189 78.0269 180.248 79.1948 180.506 80.3265C178.103 75.0815 176.855 69.3824 176.844 63.6129C176.844 62.166 176.926 60.7203 177.09 59.2822C177.219 58.1101 177.406 56.9381 177.641 55.766C178.93 49.4586 181.695 43.5461 185.709 38.5133C188.006 38.6423 190.022 38.2906 190.215 33.8251C190.25 33.0281 190.836 32.3425 190.965 31.563C190.748 31.563 190.525 31.6099 190.303 31.6275H190.098C189.77 31.6421 189.447 31.5273 189.207 31.3087C188.961 31.0895 188.814 30.783 188.791 30.4554C188.773 30.1495 188.873 29.8489 189.066 29.6116L189.354 29.26L189.787 28.7267L189.834 28.6739L190.326 28.0879C190.033 27.6097 189.635 27.2077 189.154 26.9158C187.496 25.943 185.211 26.617 184.016 28.0879C183.453 28.8708 183.072 29.7675 182.897 30.7145C182.721 31.6615 182.756 32.6355 183.002 33.5672C183.412 35.1612 184.092 36.6738 185.012 38.0386L184.736 38.3786C183.096 40.4929 181.66 42.762 180.459 45.153C180.799 42.4983 176.65 32.9226 175.045 30.8891C174.617 30.3523 174.037 29.9526 173.387 29.7405C172.73 29.5283 172.027 29.5125 171.365 29.6954C170.703 29.8782 170.105 30.2515 169.654 30.769C169.203 31.2864 168.91 31.9252 168.816 32.6062C168.816 32.6355 168.816 32.6648 168.816 32.6941C169.051 32.8289 169.285 32.9754 169.514 33.1277C169.883 33.3803 170.135 33.7659 170.229 34.2037C170.316 34.6414 170.228 35.0962 169.988 35.4718C169.853 35.6693 169.678 35.8369 169.478 35.9647C169.279 36.0924 169.051 36.1786 168.816 36.2161H168.781C165.588 40.7754 175.812 52.6249 178.391 49.976C177.184 53.3938 176.428 56.9533 176.135 60.5656C175.977 62.6981 175.982 64.8401 176.164 66.9709V66.8947C175.578 62.2592 165.828 55.3558 162.975 55.936C161.328 56.2641 159.711 56.188 159.963 57.8464V57.9284C160.408 58.1072 160.836 58.3146 161.252 58.5496C161.492 58.6844 161.727 58.8251 161.955 58.9774C162.242 59.1702 162.459 59.4451 162.588 59.7645C162.717 60.0844 162.746 60.4355 162.67 60.7713C162.594 61.1077 162.418 61.4136 162.172 61.6497C161.92 61.8859 161.603 62.0412 161.264 62.0951H161.228H161.158C159.705 67.0939 170.48 75.1694 177.031 72.5968C177.682 75.4208 178.625 78.1705 179.838 80.8011H189.869C189.904 80.6898 189.939 80.5785 189.969 80.4671C189.043 80.5222 188.111 80.4653 187.197 80.2971C187.941 79.3829 188.68 78.4629 189.424 77.5545C189.441 77.5381 189.459 77.5182 189.471 77.4959L190.607 76.1012C190.631 74.6678 190.467 73.2379 190.121 71.8466L190.068 71.9287ZM176.363 69.3619L176.275 69.1685V68.7407C176.275 68.7055 176.275 68.6645 176.275 68.6235C176.275 68.8696 176.334 69.1216 176.369 69.3677L176.363 69.3619Z" fill="#2F2E41"/>
<path d="M80.0469 54.455C80.1055 54.009 80.1406 53.5602 80.2168 53.1177C80.6035 50.8592 81.6172 48.9241 83.2343 47.302C83.3984 47.1379 83.5801 47.1261 83.7207 47.2615C83.8555 47.3975 83.8497 47.5838 83.668 47.7626C82.543 48.8965 81.7051 50.2145 81.2129 51.737C80.375 54.3349 80.5274 56.8835 81.6875 59.353C81.9571 59.9244 82.0273 60.4542 81.8515 61.0613C81.541 62.0939 81.2832 63.1417 81.0078 64.1831C80.8672 64.6999 81.1543 64.9883 81.6699 64.8512C82.7656 64.5581 83.8613 64.2751 84.957 63.968C85.4434 63.8303 85.8828 63.8842 86.3457 64.0964C90.125 65.8375 93.7461 65.5286 97.0918 63.0403C99.3828 61.3356 100.678 58.9838 101.006 56.1369C101.609 50.8855 98.1407 46.0549 92.9844 44.9836C90.0078 44.366 87.2774 44.9836 84.8106 46.7757C84.7461 46.8249 84.6758 46.8794 84.6055 46.924C84.4473 47.0218 84.2715 46.9955 84.1719 46.8677C84.1426 46.8343 84.125 46.7956 84.1133 46.754C84.1015 46.7124 84.1016 46.669 84.1075 46.6268C84.1133 46.5841 84.125 46.5436 84.1484 46.5073C84.1719 46.471 84.2071 46.4399 84.2422 46.4159C84.5293 46.2002 84.8164 45.9852 85.1211 45.7947C86.6036 44.8506 88.2911 44.288 90.043 44.1573C90.1016 44.1491 90.1543 44.1374 90.207 44.1216H91.5195C91.7949 44.1544 92.0645 44.1814 92.3399 44.2206C94.5547 44.5394 96.5059 45.439 98.1641 46.9509C99.9981 48.6246 101.135 50.688 101.557 53.1382C101.633 53.5742 101.668 54.0155 101.727 54.455V55.4712C101.709 55.5392 101.703 55.6072 101.691 55.6763C101.639 56.6362 101.469 57.5821 101.129 58.4845C99.6582 62.4121 96.8692 64.8054 92.7501 65.6353C92.3458 65.7167 91.9297 65.7484 91.5195 65.8046H90.207C90.1602 65.79 90.1133 65.7788 90.0664 65.7712C88.6367 65.6687 87.2422 65.2778 85.9648 64.622C85.7305 64.5031 85.461 64.4802 85.209 64.5587C84.0665 64.8688 82.9238 65.1799 81.7812 65.4694C81.5644 65.5245 81.3359 65.5257 81.1191 65.4741C80.5273 65.3206 80.211 64.7257 80.3692 64.1098C80.6621 62.9934 80.9609 61.8777 81.2715 60.7654C81.3242 60.5978 81.3418 60.422 81.3243 60.2473C81.3067 60.0727 81.2539 59.9033 81.1719 59.7492C80.6563 58.7277 80.3164 57.6278 80.1699 56.4938C80.123 56.1551 80.0879 55.8111 80.0469 55.47V54.455Z" fill="#F6BC54"/>
<path d="M90.8868 52.1959C90.9512 52.1244 91.0099 52.0635 91.0626 52.0019C91.4903 51.5226 92.0586 51.1874 92.6856 51.0409C93.3067 50.8938 93.963 50.9436 94.5606 51.1821C95.1641 51.4229 95.6798 51.8455 96.0313 52.3916C96.3887 52.9372 96.5587 53.5795 96.5294 54.2288C96.5001 55.0194 96.2247 55.7085 95.6622 56.2617C95.1934 56.72 94.6895 57.1419 94.1973 57.5721C94.0216 57.7233 93.8282 57.7039 93.711 57.5516C93.5938 57.3992 93.629 57.2287 93.8047 57.0734C94.25 56.6825 94.7129 56.3086 95.1348 55.8943C95.9024 55.1436 96.1016 54.2276 95.7384 53.232C95.3809 52.2686 94.6544 51.7072 93.629 51.6157C92.5626 51.5202 91.754 51.972 91.2091 52.888C91.0157 53.2068 90.752 53.2091 90.5645 52.888C90.0079 51.9369 89.0294 51.4587 87.9806 51.6245C87.4708 51.7054 86.9962 51.9422 86.627 52.302C86.2579 52.6618 86.0118 53.1277 85.9181 53.6352C85.7599 54.441 85.9532 55.1946 86.5216 55.7701C87.1661 56.4188 87.875 57.0095 88.5899 57.5809C89.2813 58.1359 90.0255 58.631 90.7344 59.162C90.8575 59.2534 90.9337 59.2346 91.045 59.1508C91.5899 58.7459 92.1289 58.3427 92.6856 57.9553C92.7852 57.885 92.9551 57.8422 93.0665 57.878C93.3125 57.9542 93.3243 58.2624 93.0899 58.4347C92.5684 58.8233 92.0469 59.2042 91.5196 59.5874C91.3789 59.6917 91.2325 59.792 91.0918 59.8933C91.0333 59.9396 90.9571 59.9654 90.8868 59.9654C90.8106 59.9654 90.7344 59.9396 90.6759 59.8933C89.1934 58.8514 87.7052 57.8135 86.381 56.5653C85.59 55.8193 85.168 54.9221 85.2501 53.8116C85.3673 52.2059 86.8321 50.8967 88.4493 50.9623C89.3868 51.001 90.1603 51.3714 90.7755 52.0816C90.8106 52.1162 90.8399 52.1502 90.8868 52.1959Z" fill="#F6BC54"/>
</svg>
