<svg width="15" height="149" viewBox="0 0 15 149" fill="none" xmlns="http://www.w3.org/2000/svg">
<path fill-rule="evenodd" clip-rule="evenodd" d="M4.9258 7.35659H4.93753C5.05472 7.30971 5.17777 7.22767 5.30667 7.06945L5.31254 7.06358C5.44144 6.90535 5.59378 6.65919 5.74613 6.30172V6.29585C5.89847 5.94423 6.06257 5.4812 6.22664 4.90689C6.42 4.26812 6.63091 3.68211 6.86529 3.16054V3.15468C7.11138 2.61553 7.39848 2.14676 7.7266 1.74827C8.06645 1.33219 8.46491 1.00978 8.92194 0.781233C9.39069 0.540962 9.91799 0.435568 10.4805 0.435568C11.0489 0.435568 11.588 0.552694 12.086 0.792965C12.5782 1.03324 13 1.37312 13.3575 1.80678C13.7149 2.2463 13.9844 2.76208 14.1778 3.34224C14.3712 3.93413 14.4649 4.57879 14.4649 5.2703C14.4649 6.27827 14.2715 7.18078 13.8555 7.93676C13.4571 8.67515 12.918 9.25529 12.2383 9.65965C11.5821 10.0581 10.8614 10.2574 10.1056 10.2574H9.51961V7.43858H10.1056C10.4864 7.43858 10.8028 7.35659 11.0606 7.21009H11.0664C11.3184 7.06944 11.5235 6.8584 11.6817 6.5478L11.6876 6.54194C11.8399 6.24306 11.9395 5.83289 11.9395 5.2703C11.9395 4.73115 11.8574 4.33848 11.7227 4.05718C11.5879 3.75831 11.418 3.57076 11.2305 3.45356C11.0254 3.33049 10.7911 3.26026 10.4981 3.26026C10.3223 3.26026 10.1758 3.29538 10.0469 3.35984C9.92385 3.43017 9.78913 3.54144 9.6485 3.72311C9.50202 3.91063 9.3614 4.16853 9.22078 4.50257C9.07429 4.84247 8.93361 5.26435 8.79885 5.76247H8.79298C8.5879 6.49501 8.35356 7.13967 8.08988 7.69639C7.82621 8.24726 7.52155 8.72203 7.16413 9.10881C6.8067 9.50145 6.39069 9.80034 5.92194 9.99959C5.45319 10.1988 4.93756 10.2926 4.38678 10.2926C3.79498 10.2926 3.24416 10.1753 2.74026 9.92333C2.24807 9.6772 1.82618 9.31969 1.48047 8.86845C1.14063 8.42307 0.888705 7.89568 0.707063 7.29793C0.537141 6.70019 0.455078 6.04965 0.455078 5.34642C0.455078 4.7135 0.543012 4.09235 0.718794 3.47702C0.894575 2.86169 1.1641 2.29331 1.52153 1.78346V1.7776C1.89067 1.26189 2.34768 0.839871 2.88674 0.523415H2.89261L2.89847 0.517549C3.47269 0.195234 4.12311 0.0371094 4.8321 0.0371094H5.41804V2.86166H4.8321C4.48054 2.86166 4.21098 2.92615 4.0059 3.0375C3.78325 3.16056 3.60156 3.32471 3.44922 3.53568C3.29102 3.76423 3.17384 4.02786 3.0918 4.3326C3.01563 4.65491 2.97465 4.9948 2.97465 5.34642C2.97465 5.87384 3.04494 6.28413 3.17384 6.59473C3.29689 6.91118 3.46099 7.11621 3.64849 7.24514H3.65436C3.84186 7.37993 4.07035 7.45617 4.36918 7.45617C4.60356 7.45617 4.77931 7.42106 4.91993 7.36246L4.9258 7.35659ZM2.52346 4.18609C2.62307 3.82275 2.76956 3.49462 2.96878 3.2016C3.168 2.91445 3.41998 2.68595 3.72466 2.52186C4.03521 2.35777 4.40436 2.27563 4.8321 2.27563V0.623137C4.62702 0.623137 4.43366 0.640621 4.24616 0.669922C3.85944 0.728525 3.50784 0.845794 3.18558 1.02746C2.71682 1.3029 2.31837 1.66615 2.00197 2.11739C1.6797 2.5745 1.43948 3.08439 1.28127 3.63526C1.11721 4.19785 1.04102 4.76625 1.04102 5.34642C1.04102 6.00277 1.1172 6.60054 1.26954 7.13383C1.43361 7.66712 1.65628 8.13014 1.94925 8.51692C2.24222 8.89784 2.59381 9.19085 3.00397 9.39596C3.41413 9.60693 3.87701 9.70657 4.38678 9.70657C4.87311 9.70657 5.30669 9.62443 5.69341 9.46034C6.08013 9.29626 6.42585 9.05011 6.73054 8.71021C7.04108 8.38204 7.31643 7.95428 7.56252 7.43858C7.80862 6.92873 8.03128 6.31347 8.2305 5.60438C8.37699 5.08867 8.52348 4.64328 8.67582 4.27408C8.83403 3.90488 9.00395 3.60598 9.18559 3.36571C9.36723 3.1313 9.56645 2.9554 9.77739 2.8382C9.99419 2.73271 10.2344 2.67424 10.4981 2.67424C10.8848 2.67424 11.2305 2.76798 11.5352 2.94965C11.8399 3.14304 12.0801 3.42432 12.2559 3.8111C12.4375 4.19201 12.5255 4.67841 12.5255 5.2703C12.5255 5.89149 12.42 6.40713 12.2032 6.81149C11.9981 7.2217 11.711 7.52647 11.3477 7.72572C10.9845 7.92497 10.5743 8.0246 10.1056 8.0246V9.67138C10.3048 9.67138 10.4981 9.65961 10.6915 9.62445C11.1251 9.55413 11.5411 9.39587 11.9395 9.1556C12.5196 8.8157 12.9825 8.31183 13.3399 7.65547C13.6973 7.00498 13.879 6.20795 13.879 5.2703C13.879 4.62567 13.7911 4.04551 13.6212 3.52395C13.4513 3.00824 13.211 2.55697 12.9004 2.17605C12.5957 1.80686 12.2383 1.51973 11.8282 1.32048C11.418 1.12123 10.9668 1.0216 10.4805 1.0216C9.99416 1.0216 9.56059 1.11535 9.18559 1.30288C8.80473 1.49041 8.47076 1.76578 8.17779 2.11739C7.89068 2.47487 7.62703 2.90278 7.39852 3.39504C7.17586 3.89316 6.97076 4.45567 6.78912 5.071C6.61919 5.66289 6.44928 6.14929 6.28522 6.5302C6.11529 6.92284 5.94536 7.22175 5.75786 7.43858C5.57622 7.66127 5.37111 7.81952 5.14259 7.90743C4.91994 7.99533 4.66215 8.0422 4.36918 8.0422C3.96489 8.0422 3.61329 7.93669 3.31446 7.72572C3.01564 7.52061 2.78716 7.21584 2.62896 6.81149C2.4649 6.41299 2.38871 5.92658 2.38871 5.34642C2.38871 4.94792 2.42971 4.56115 2.52346 4.18609ZM13.709 16.8326L1.21096 21.6146V19.9151L4.48048 18.7255V13.4982L1.21096 12.3085V10.6148L13.709 15.3793V16.8326ZM11.67 16.106L5.8399 13.9903V18.2273L11.67 16.106ZM6.42584 17.3952L9.9532 16.106L6.42584 14.8226V17.3952ZM14.295 14.975L0.625023 9.76509V12.7187L3.89454 13.9083V18.3153L0.625023 19.5049V22.4643L6.32034 20.2843H6.42584V20.2492L14.295 17.2369V14.975ZM14.295 23.4137L8.70515 26.3028L14.295 29.1979V32.4268L5.72853 27.7093H0.625023V24.8846H5.72853L14.295 20.1671V23.4137ZM5.88088 25.4707H1.21096V27.1233H5.88088L13.709 31.4364V29.5553L7.43363 26.3028L13.709 23.0562V21.1574L5.88088 25.4707ZM4.9258 56.4598H4.93753C5.05472 56.4129 5.17777 56.3308 5.30667 56.1726L5.31254 56.1668C5.44144 56.0085 5.59378 55.7625 5.74613 55.405V55.3992C5.89847 55.0476 6.06257 54.5845 6.22664 54.0102C6.42 53.3714 6.63091 52.7854 6.86529 52.258C7.11138 51.7188 7.39848 51.2501 7.7266 50.8516C8.06645 50.4355 8.46491 50.1131 8.92194 49.8846C9.39069 49.6443 9.91799 49.5389 10.4805 49.5389C11.0489 49.5389 11.588 49.656 12.086 49.8963C12.5782 50.1366 13 50.4764 13.3575 50.9101L12.9004 51.2794L4.9258 56.4598ZM13.3399 56.7586C12.9825 57.415 12.5196 57.919 11.9395 58.2589C11.5411 58.4992 11.1251 58.6574 10.6915 58.7278C10.4981 58.7571 10.3048 58.7747 10.1056 58.7747V57.1279C10.5743 57.1279 10.9845 57.0283 11.3477 56.829C11.711 56.6239 11.9981 56.325 12.2032 55.9148C12.42 55.5104 12.5255 54.9948 12.5255 54.3736C12.5255 53.7817 12.4375 53.2953 12.2559 52.9144C12.0801 52.5276 11.8399 52.2405 11.5352 52.053C11.2305 51.8713 10.8848 51.7774 10.4981 51.7774C10.2344 51.7774 9.99419 51.836 9.77739 51.9415C9.56645 52.0587 9.36723 52.2288 9.18559 52.469C9.00395 52.7093 8.83403 53.0081 8.67582 53.3773C8.52348 53.7465 8.37699 54.1918 8.2305 54.7076C8.03128 55.4166 7.80862 56.0262 7.56252 56.5419C7.31643 57.0576 7.04108 57.4795 6.73054 57.8135C6.42585 58.1534 6.08013 58.3996 5.69341 58.5637C5.30669 58.7277 4.87311 58.8097 4.38678 58.8097C3.87701 58.8097 3.41413 58.7044 3.00397 58.4993C2.59381 58.2942 2.24222 58.0011 1.94925 57.6144C1.65628 57.2335 1.43361 56.7704 1.26954 56.2371C1.1172 55.7039 1.04102 55.1061 1.04102 54.4497C1.04102 53.8696 1.11721 53.3012 1.28127 52.7386C1.43948 52.1877 1.6797 51.6778 2.00197 51.2207C2.31837 50.7695 2.71682 50.4062 3.18558 50.1308C3.50784 49.9491 3.85944 49.8318 4.24616 49.7732C4.43366 49.7439 4.62702 49.7263 4.8321 49.7263V51.3731C4.40436 51.3731 4.03521 51.4609 3.72466 51.625C3.41998 51.7891 3.168 52.0178 2.96878 52.3049C2.76956 52.5921 2.62307 52.9261 2.52346 53.2894C2.42971 53.6645 2.38871 54.0512 2.38871 54.4497C2.38871 55.0299 2.4649 55.5163 2.62896 55.9148C2.78716 56.3192 3.01564 56.6239 3.31446 56.829C3.61329 57.04 3.96489 57.1455 4.36918 57.1455C4.66215 57.1455 4.91994 57.0986 5.14259 57.0049C5.37111 56.9228 5.57622 56.7646 5.75786 56.5419C5.94536 56.3251 6.11529 56.0203 6.28522 55.6335C6.44928 55.2526 6.61919 54.7662 6.78912 54.1743C6.97076 53.559 7.17586 52.9963 7.39852 52.4982L13.3399 56.7586ZM3.0918 53.4359C3.01563 53.7582 2.97465 54.0981 2.97465 54.4497C2.97465 54.9772 3.04494 55.3875 3.17384 55.698C3.29689 56.0145 3.46099 56.2137 3.64849 56.3426L3.65436 56.3485C3.84186 56.4832 4.07035 56.5595 4.36918 56.5595C4.60356 56.5595 4.77931 56.5242 4.91993 56.4656L4.9258 56.4598L3.0918 53.4359ZM3.0918 53.4359C3.17384 53.1312 3.29102 52.8675 3.44922 52.639C3.60156 52.428 3.78325 52.2639 4.0059 52.1408C4.21098 52.0295 4.48054 51.9591 4.8321 51.9591H5.41804V49.1403H4.8321C4.12311 49.1403 3.47269 49.2985 2.89847 49.6209H2.89261L2.88674 49.6267C2.34768 49.9432 1.89067 50.3652 1.52153 50.8809V50.8866C1.1641 51.3965 0.894575 51.965 0.718794 52.5803C0.543012 53.1898 0.455078 53.8168 0.455078 54.4497C0.455078 55.153 0.537141 55.8035 0.707063 56.3954V56.4013C0.888705 56.999 1.14063 57.5264 1.48047 57.9718C1.82618 58.423 2.24807 58.7747 2.74026 59.0266C3.24416 59.2786 3.79498 59.3958 4.38678 59.3958C4.93756 59.3958 5.45319 59.302 5.92194 59.1028C6.39069 58.9035 6.8067 58.6046 7.16413 58.212C7.52155 57.8252 7.82621 57.3506 8.08988 56.7938C8.35356 56.243 8.5879 55.5983 8.79298 54.8658H8.79885C8.93361 54.3677 9.07429 53.9458 9.22078 53.6C9.3614 53.2718 9.50202 53.014 9.6485 52.8264C9.78913 52.6448 9.92385 52.5335 10.0469 52.4632C10.1758 52.3987 10.3223 52.3634 10.4981 52.3634C10.7911 52.3634 11.0254 52.4338 11.2305 52.551C11.418 52.6741 11.5879 52.8616 11.7227 53.1605C11.8574 53.4418 11.9395 53.8345 11.9395 54.3736C11.9395 54.9362 11.8399 55.3464 11.6876 55.6453L11.6817 55.6511C11.5235 55.9617 11.3184 56.1726 11.0664 56.3133H11.0606C10.8028 56.4598 10.4864 56.5419 10.1056 56.5419H9.51961V59.3607H10.1056C10.8614 59.3607 11.5762 59.1615 12.2383 58.763C12.918 58.3586 13.4512 57.7783 13.8555 57.0399L3.0918 53.4359ZM0.917993 63.2578C1.22854 62.5662 1.67974 61.9626 2.25982 61.4586L2.26568 61.4527C2.85162 60.9546 3.54886 60.5737 4.35745 60.3041C5.17191 60.0346 6.07425 59.9057 7.06449 59.9057H7.85549C8.83987 59.9057 9.7422 60.0346 10.5508 60.2983C11.3594 60.562 12.0626 60.9429 12.6485 61.4469C13.2344 61.945 13.6914 62.5486 14.002 63.2402C14.3125 63.9434 14.4649 64.6994 14.4649 65.514C14.4649 66.3462 14.3125 67.1138 14.002 67.8112V67.8171L13.4688 67.5769L14.002 67.8112C13.6914 68.5144 13.2344 69.1122 12.6426 69.6104H12.6485L12.2676 69.165L12.6426 69.6104C12.0567 70.1143 11.3536 70.4893 10.545 70.7413C10.5509 70.7413 10.5508 70.7413 10.5508 70.7413L10.3692 70.1846L10.545 70.7413C9.74227 71.0051 8.83987 71.1281 7.85549 71.1281H7.06449C6.08011 71.1281 5.17777 71.0051 4.36332 70.7531C3.55472 70.4952 2.85162 70.1261 2.26568 69.6279C1.67974 69.1298 1.22854 68.532 0.917993 67.8288L1.45122 67.5943C1.17583 66.979 1.04102 66.2934 1.04102 65.5316C1.04102 64.7932 1.17583 64.1133 1.45122 63.498C1.72661 62.8826 2.125 62.3552 2.64649 61.8981C3.16211 61.4527 3.79499 61.107 4.53913 60.8608C5.28327 60.6147 6.12699 60.4917 7.06449 60.4917H7.85549C8.793 60.4917 9.63091 60.6147 10.3692 60.855C11.1133 61.1011 11.7461 61.4469 12.2676 61.8923C12.795 62.3376 13.1934 62.8652 13.4688 63.4805L0.917993 63.2578ZM9.69535 68.1101V68.1042C10.211 67.9753 10.6211 67.7819 10.9375 67.5416C11.2539 67.3072 11.4825 67.0201 11.6407 66.6861C11.7989 66.3579 11.8868 65.9711 11.8868 65.514C11.8868 65.0804 11.7989 64.6993 11.6466 64.3711C11.4884 64.0488 11.2539 63.7617 10.9317 63.5156C10.6153 63.2812 10.2051 63.0819 9.68949 62.9354C9.17972 62.7948 8.57622 62.7187 7.87309 62.7187H7.06449C6.3555 62.7187 5.74612 62.7948 5.2305 62.9354L9.69535 68.1101ZM12.1739 64.1133C12.3731 64.5353 12.4727 64.9983 12.4727 65.514C12.4727 66.0473 12.3731 66.5219 12.1739 66.938C11.9688 67.3658 11.6758 67.7234 11.2891 68.0105C10.8965 68.3035 10.4161 68.5261 9.8477 68.6726C9.27348 68.8309 8.61723 68.907 7.87309 68.907H7.06449C6.31449 68.907 5.65236 68.8309 5.07228 68.6844C4.50392 68.532 4.01761 68.3152 3.62503 68.0222C3.23245 67.7351 2.93947 67.3834 2.74026 66.9674C2.54104 66.5454 2.43556 66.0708 2.43556 65.5316C2.43556 65.0159 2.54104 64.5529 2.74026 64.1309C2.93947 63.7207 3.23245 63.3632 3.62503 63.0585C4.01761 62.7596 4.50392 62.5311 5.07228 62.3728C5.65236 62.2146 6.31449 62.1326 7.06449 62.1326H7.87309C8.61723 62.1326 9.27348 62.2146 9.8477 62.3728C10.4161 62.5311 10.8965 62.7596 11.2891 63.0526C11.6758 63.3456 11.9688 63.7031 12.1739 64.1133ZM5.2305 62.9354C4.71487 63.0819 4.3047 63.2812 3.97658 63.5273C3.66017 63.7734 3.42582 64.0664 3.26762 64.3887C3.10941 64.7169 3.02149 65.098 3.02149 65.5316C3.02149 65.9946 3.10941 66.3871 3.26762 66.7094C3.42582 67.0376 3.65431 67.319 3.97071 67.5475C4.29298 67.7878 4.70314 67.9812 5.21877 68.116C5.74025 68.2507 6.34964 68.321 7.06449 68.321H7.87309C8.57622 68.321 9.17972 68.2449 9.69535 68.1101L5.2305 62.9354ZM14.295 72.4408H0.625023V75.2596H6.09768L8.07815 75.2011L0.625023 78.2191V80.2643L8.07229 83.2882L6.09768 83.2296H0.625023V86.0483H14.295V82.9366L5.08988 79.2505L14.295 75.5526V72.4408ZM13.709 73.0268H1.21096V74.6736H6.08595L11.3243 74.5153L1.21096 78.6117V79.8658L11.3125 83.9739L6.08595 83.8157H1.21096V85.4623H13.709V83.3351L3.51953 79.2505L13.709 75.1542V73.0268ZM3.14459 96.9016H0.625023V87.7889H14.295V96.8137H11.7637V90.6194H8.92194V96.0284H6.40238V90.6194H3.14459V96.9016ZM2.55865 90.0333V96.3155H1.21096V88.375H13.709V96.2277H12.3497V90.0333H8.336V95.4424H6.98831V90.0333H2.55865ZM13.709 97.5169H12.3497V101.525H1.21096V103.155H12.3497V107.175H13.709V97.5169ZM11.7637 103.741H0.625023V100.939H11.7637V96.9309H14.295V107.761H11.7637V103.741ZM6.98831 116.985V110.685H1.21096V109.027H13.709V110.685H8.336V116.985H13.709V118.637H1.21096V116.985H6.98831ZM8.92194 116.399H14.295V119.223H0.625023V116.399H6.40238V111.271H0.625023V108.441H14.295V111.271H8.92194V116.399ZM14.295 123.941H0.625023V121.11H14.295V123.941ZM14.295 136.57H0.625023V134.003L8.88089 128.612H0.625023V125.781H14.295V128.342L6.00977 133.757H14.295V136.57ZM4.04102 134.343L13.709 128.026V126.367H1.21096V128.026H10.8496L1.21096 134.32V135.984H13.709V134.343H4.04102ZM8.01957 148.742H2.68168L2.52933 148.642C2.24222 148.443 1.94338 148.156 1.63869 147.798L1.63282 147.792C1.29884 147.382 1.02348 146.849 0.794969 146.216V146.21C0.560593 145.536 0.455078 144.704 0.455078 143.737C0.455078 142.905 0.595704 142.125 0.894533 141.411V141.405C1.19336 140.69 1.63281 140.068 2.20703 139.547V139.541C2.78711 139.019 3.4844 138.621 4.27541 138.34H4.28128C5.09573 138.064 5.99221 137.929 6.97658 137.929H7.94926C8.92778 137.929 9.81844 138.047 10.6153 138.281C11.4122 138.527 12.1094 138.885 12.6836 139.371C13.2696 139.863 13.7149 140.461 14.0137 141.17C14.3184 141.879 14.4649 142.676 14.4649 143.549C14.4649 144.563 14.2891 145.46 13.9024 146.21C13.5333 146.943 13.0118 147.529 12.3379 147.951C11.6817 148.361 10.9434 148.625 10.1348 148.736L9.46683 148.83V146.005L9.95907 145.923C10.3399 145.858 10.6798 145.735 10.9845 145.548H10.9903C11.2656 145.39 11.4883 145.155 11.6641 144.833L11.67 144.827C11.834 144.54 11.9395 144.124 11.9395 143.549C11.9395 143.04 11.8458 142.635 11.6817 142.307C11.5118 141.973 11.2774 141.698 10.961 141.481C10.6387 141.252 10.2286 141.071 9.72468 140.948C9.22077 140.83 8.63483 140.766 7.96686 140.766H6.97658C6.30275 140.766 5.71681 140.848 5.2129 140.994C4.70899 141.147 4.29297 141.358 3.95898 141.621C3.63086 141.879 3.39062 142.184 3.22656 142.536C3.0625 142.887 2.97465 143.292 2.97465 143.743C2.97465 144.305 3.0215 144.727 3.09767 145.02C3.19142 145.354 3.29102 145.571 3.37891 145.706C3.4375 145.794 3.49025 145.864 3.54299 145.923H5.50587V143.028H8.01957V148.742ZM6.09181 146.509H3.29694C3.16803 146.398 3.03909 146.239 2.89261 146.034C2.75784 145.829 2.6348 145.542 2.53519 145.179C2.43558 144.809 2.38871 144.335 2.38871 143.743C2.38871 143.21 2.48833 142.723 2.69341 142.284C2.90434 141.85 3.20312 141.475 3.5957 141.158C4 140.848 4.48053 140.602 5.04889 140.432C5.61139 140.262 6.25588 140.18 6.97658 140.18H7.96686C8.66999 140.18 9.30279 140.25 9.8653 140.379C10.4219 140.514 10.9024 140.725 11.295 140.994C11.6934 141.27 11.9923 141.621 12.2032 142.043C12.42 142.465 12.5255 142.969 12.5255 143.549C12.5255 144.188 12.4082 144.71 12.1797 145.12C11.9571 145.524 11.6582 145.835 11.2891 146.052C10.9141 146.275 10.5039 146.427 10.0528 146.497V148.156C10.252 148.126 10.4453 148.091 10.6387 148.044C11.1426 147.915 11.6055 147.716 12.0274 147.452C12.6016 147.089 13.0528 146.591 13.3809 145.941C13.7149 145.302 13.879 144.505 13.879 143.549C13.879 142.741 13.7442 142.026 13.4747 141.399C13.211 140.778 12.8242 140.25 12.3086 139.822C11.7989 139.394 11.1778 139.066 10.4454 138.844C9.71295 138.627 8.88091 138.515 7.94926 138.515H6.97658C6.04494 138.515 5.2129 138.644 4.47461 138.896C3.74219 139.154 3.11526 139.512 2.59964 139.975C2.08987 140.443 1.70315 140.994 1.43362 141.633C1.16995 142.272 1.04102 142.975 1.04102 143.737C1.04102 144.669 1.14064 145.431 1.34572 146.017C1.56251 146.614 1.80861 147.083 2.08401 147.417C2.37112 147.757 2.62897 148.003 2.85749 148.156H7.43363V143.614H6.09181V146.509ZM13.709 123.355V121.696H1.21096V123.355H13.709Z" fill="white"/>
</svg>
