<svg width="175" height="36" viewBox="0 0 175 36" fill="none" xmlns="http://www.w3.org/2000/svg">
<path fill-rule="evenodd" clip-rule="evenodd" d="M2.16987 10.6801H15.7283C16.0898 7.62045 16.1118 4.68497 16.1305 2.19335C16.1319 2.00181 16.1334 1.81289 16.1349 1.62674L16.1432 0.635074H20.9853L20.9698 1.65034C20.9677 1.78527 20.9657 1.9219 20.9636 2.06016C20.927 4.52108 20.8827 7.50008 20.531 10.6801H34.9349V15.3401H22.0694C24.5295 22.3031 28.8345 27.8431 34.912 30.3559L36.3828 30.9641L35.1967 32.0253C34.6221 32.5394 33.8053 33.5777 33.3851 34.2564L32.9152 35.0156L32.1079 34.6343C25.8701 31.6887 21.5116 26.2907 18.6381 19.4592C16.562 25.4416 12.5792 31.1512 4.88103 34.6744L4.06762 35.0466L3.60738 34.2796C3.2529 33.6888 2.50426 32.8485 1.88864 32.4088L0.452148 31.3827L2.07075 30.6782C9.90673 27.2672 13.3556 21.3722 14.885 15.3401H2.16987V10.6801ZM16.1448 14.3401C16.0739 14.6732 15.9977 15.0067 15.9159 15.3401C14.4283 21.4027 11.0799 27.4477 3.48982 31.1264C3.15801 31.2872 2.8181 31.4435 2.46987 31.5951C2.7424 31.7897 3.02936 32.0421 3.304 32.3184C3.77005 32.7872 4.2006 33.3246 4.46487 33.7651C12.3256 30.1675 16.1648 24.2033 18.0589 18.0105C18.2278 17.4585 18.3811 16.9047 18.5205 16.3506C18.7103 16.8994 18.9083 17.4398 19.1148 17.9714C21.912 25.1728 26.2585 30.7662 32.5349 33.7301C32.8319 33.2502 33.308 32.6062 33.7878 32.0514C34.0429 31.7564 34.299 31.4866 34.5299 31.2801C34.1958 31.142 33.8671 30.9953 33.5437 30.8404C27.5559 27.9717 23.3854 22.2614 21.0108 15.3401C20.8973 15.0094 20.788 14.6761 20.6827 14.3401H33.9349V11.6801H19.4004C19.4448 11.3451 19.4855 11.0117 19.5228 10.6801C19.8495 7.77629 19.9164 5.01538 19.9546 2.63507C19.9583 2.40049 19.9618 2.1696 19.9652 1.94263C19.9668 1.83929 19.9683 1.73677 19.9699 1.63507H17.1349C17.1331 1.849 17.1315 2.06726 17.1299 2.28961C17.1127 4.71095 17.092 7.61654 16.7371 10.6801C16.6986 11.0117 16.6563 11.3452 16.6096 11.6801H3.16987V14.3401H16.1448ZM51.0999 0.635074H55.7949V3.75007H69.1299V12.7151H64.4699V8.16507H42.5999V9.66507H64.2299V13.9751H58.4044C58.7908 15.1631 59.2339 16.3074 59.7336 17.3976C61.6327 16.1311 63.6642 14.6267 65.0131 13.4198L65.6676 12.8342L69.2698 15.9395L68.3387 16.6926C66.4588 18.2131 64.0316 19.8776 61.8524 21.1828C63.9212 24.2233 66.5812 26.5666 69.8313 27.8666L71.3397 28.47L70.1215 29.5449C69.6187 29.9886 68.8806 30.9144 68.5081 31.5662L68.055 32.3591L67.2243 31.9797C60.5685 28.9389 56.449 22.4669 54.1579 14.5916C53.6852 14.9405 53.1905 15.279 52.6776 15.6069C55.4786 18.3761 56.9964 21.696 57.4926 24.7497C57.7941 26.6059 57.7221 28.3881 57.3103 29.9048C56.9043 31.4001 56.1453 32.7103 55.0086 33.5165C54.3446 34.0403 53.6986 34.4007 52.9723 34.6213C52.2484 34.8411 51.4994 34.9051 50.6649 34.9051C49.8016 34.9051 48.66 34.8693 47.5555 34.798L46.7092 34.7434L46.6248 33.8996C46.562 33.2714 46.341 32.3579 45.9996 31.8064L45.3348 30.7324C43.3694 31.6997 41.3851 32.5263 39.5343 33.1394L38.6948 33.4175L38.3161 32.6182C38.0357 32.0262 37.4847 31.1511 37.0479 30.6208L36.0563 29.4166L37.5645 29.0182C42.4758 27.7209 48.3472 24.686 51.7456 21.7281C51.6526 21.544 51.5541 21.3596 51.4499 21.1754C48.3767 23.2568 44.1517 25.3502 40.7807 26.552L39.9658 26.8425L39.5611 26.078C39.2575 25.5045 38.7537 24.7032 38.3378 24.2872L37.1214 23.0708L38.7803 22.6157C42.0804 21.7104 46.3135 19.8043 49.0052 18.0093C48.9227 17.9283 48.8387 17.8477 48.7534 17.7675C46.0605 19.0548 43.1788 20.0966 40.512 20.8659L39.7567 21.0838L39.3666 20.4012C39.095 19.9259 38.441 18.9232 38.0671 18.5205L36.9053 17.2694L38.5648 16.8681C41.4244 16.1766 44.4281 15.1818 47.0587 13.9751H42.5249V12.7151H38.0449V3.75007H51.0999V0.635074ZM52.0999 4.75007H39.0449V11.7151H41.5999V7.16507H65.4699V11.7151H68.1299V4.75007H54.7949V1.63507H52.0999V4.75007ZM51.02 12.9751C50.739 13.1552 50.4487 13.3323 50.1501 13.5061C49.9516 13.6217 49.7494 13.7358 49.5438 13.8484C49.507 13.8686 49.4701 13.8888 49.433 13.9089C49.3922 13.931 49.3513 13.9531 49.3102 13.9751C46.5069 15.478 43.1139 16.7103 39.8749 17.5678C39.5143 17.6632 39.1556 17.754 38.7999 17.8401C38.9951 18.0503 39.2354 18.37 39.4682 18.7053C39.7782 19.1515 40.075 19.6253 40.2349 19.9051C42.748 19.1801 45.4243 18.2179 47.9327 17.0491C48.1617 16.9424 48.3893 16.8339 48.6153 16.7238C48.7175 16.674 48.8194 16.6238 48.9209 16.5733C48.9241 16.576 48.9273 16.5787 48.9304 16.5815C49.2015 16.8158 49.4602 17.0546 49.7071 17.297C49.7497 17.3388 49.7919 17.3808 49.8337 17.4228C50.0741 17.6641 50.3029 17.909 50.5204 18.1567C50.2678 18.3506 49.9948 18.5466 49.7046 18.7437C47.181 20.4566 43.3457 22.2403 40.1057 23.2659C39.7438 23.3805 39.3893 23.4856 39.0449 23.5801C39.2733 23.8085 39.5083 24.1098 39.7269 24.4263C40.0108 24.8373 40.2669 25.2739 40.4449 25.6101C43.7737 24.4233 47.9405 22.3507 50.9256 20.3229C51.2094 20.1301 51.4825 19.9377 51.7432 19.7465C51.9323 20.0292 52.1084 20.3135 52.2721 20.5985C52.3537 20.7405 52.4322 20.8827 52.5076 21.025C52.6751 21.3408 52.8276 21.657 52.9656 21.9721C52.7177 22.2061 52.4544 22.4407 52.1773 22.6751C48.8547 25.4853 43.5407 28.2705 38.858 29.6902C38.5081 29.7963 38.1617 29.8948 37.8199 29.9851C38.0209 30.2291 38.2395 30.5321 38.4493 30.8505C38.7509 31.3082 39.0341 31.7978 39.2199 32.1901C43.7392 30.6931 49.0563 27.8967 52.8534 24.9417C53.154 24.7076 53.4452 24.4726 53.7257 24.2372C53.8156 24.6191 53.8847 24.9944 53.9343 25.3605C54.2764 27.885 53.689 29.9754 52.5549 30.7901C51.8549 31.3851 51.0849 31.4551 50.1399 31.4551C49.5866 31.4551 48.8515 31.4385 48.0255 31.3828C47.6496 31.3574 47.2549 31.3239 46.8499 31.2801C47.0398 31.5869 47.1932 31.9548 47.3125 32.3302C47.4789 32.854 47.5791 33.3923 47.6199 33.8001C48.7049 33.8701 49.8249 33.9051 50.6649 33.9051C52.2399 33.9051 53.2199 33.6601 54.4099 32.7151C56.4789 31.2688 57.3028 27.4359 56.1603 23.3472C56.049 22.9488 55.919 22.548 55.7697 22.1467C55.7316 22.0443 55.6922 21.9419 55.6516 21.8395C55.2804 20.9038 54.8031 19.9683 54.2114 19.058C54.1627 18.983 54.1132 18.9082 54.0629 18.8336C53.4338 17.9003 52.6825 16.9958 51.7996 16.1477C51.5509 15.9087 51.2918 15.6743 51.022 15.4449C51.3278 15.2672 51.6282 15.0861 51.9223 14.9017C52.4011 14.6016 52.8635 14.2926 53.306 13.9751C53.4977 13.8375 53.6857 13.6984 53.8697 13.5577C54.1199 13.3664 54.3627 13.1721 54.5974 12.9751H54.7503C54.7526 12.9837 54.7548 12.9924 54.7571 13.001C54.8384 13.3137 54.9224 13.6241 55.0092 13.9321C55.0132 13.9464 55.0172 13.9607 55.0213 13.9751C55.5382 15.8038 56.1511 17.5474 56.8674 19.1831C57.03 19.5545 57.1979 19.9204 57.3713 20.2804C57.4724 20.4905 57.5754 20.6985 57.6803 20.9046C60.0156 25.4941 63.2733 29.0752 67.6399 31.0701C67.8991 30.6165 68.3049 30.0562 68.7176 29.5703C68.9735 29.2689 69.2321 28.9961 69.4599 28.7951C69.1229 28.6603 68.7921 28.5151 68.4677 28.36C65.4316 26.9085 62.9445 24.5841 60.9877 21.6892C60.8017 21.4139 60.6204 21.1335 60.4439 20.8482C60.7255 20.6877 61.014 20.5191 61.3072 20.3437C63.156 19.2381 65.1958 17.8631 66.9097 16.5455C67.1856 16.3334 67.453 16.1228 67.7099 15.9151L65.6799 14.1651C64.2617 15.434 62.136 17.0036 60.1704 18.308C59.8854 18.4972 59.6038 18.6807 59.3282 18.857C59.1771 18.5591 59.0305 18.257 58.8885 17.9511C58.3009 16.686 57.79 15.355 57.3547 13.9751C57.2504 13.6445 57.1505 13.3111 57.0548 12.9751H63.2299V10.6651H43.5249V12.9751H51.02ZM53.0056 26.084C51.0361 27.5648 48.7258 28.9872 46.3487 30.2201L46.9574 30.2859C48.208 30.4211 49.3608 30.4551 50.1399 30.4551C51.0557 30.4551 51.5003 30.374 51.9072 30.0281L51.9383 30.0017L51.9715 29.9779C52.3149 29.7312 52.6839 29.1728 52.8858 28.2315C53.0173 27.6185 53.066 26.8903 53.0056 26.084ZM73.0799 4.69507H78.5049V0.915074H82.9549V4.69507H86.8046C87.1791 3.95773 87.5312 3.20333 87.8601 2.43259L88.2091 1.61483L91.6609 2.63007H102.233L102.955 2.38926L103.327 2.63007H103.535V2.76507L105.967 4.34149L105.618 5.12301C104.247 8.19107 102.505 11.9422 100.875 15.0682C104.252 18.2591 105.248 21.1139 105.25 23.8169C105.285 26.0967 104.743 28.156 103.014 29.2807C102.212 29.814 101.241 30.0923 100.234 30.2085L100.23 30.209C99.2085 30.3225 97.8864 30.3203 96.7655 30.248L95.8756 30.1906L95.8311 29.3C95.8202 29.082 95.7709 28.7949 95.6949 28.4935V34.8001H91.0699V15.5501H84.6281C84.2007 16.0264 83.7636 16.4914 83.3172 16.9451H90.0249V34.1701H85.4699V32.5951H79.5949V34.6601H75.1799V23.3493C74.7454 23.6096 74.306 23.862 73.8618 24.1063L72.9939 24.5836L72.5083 23.7203C72.25 23.2612 71.4715 22.2784 71.0038 21.7774L70.089 20.7972L71.2893 20.1998C73.8267 18.937 76.18 17.3762 78.3129 15.5501H71.5049V11.2051H78.5049V9.00508H73.0799V4.69507ZM79.5049 8.00508V12.2051H72.5049V14.5501H80.8719C80.818 14.6036 80.7639 14.6569 80.7096 14.7101C80.4184 14.9953 80.1225 15.2754 79.8219 15.5501C79.2952 16.0316 78.7542 16.4967 78.1997 16.9451C78.0179 17.0921 77.8346 17.2373 77.6499 17.3806C77.5411 17.4651 77.4317 17.5489 77.3219 17.632C76.746 18.0683 76.1565 18.4869 75.5538 18.8875C75.4297 18.97 75.3051 19.0517 75.1799 19.1327C74.3611 19.6621 73.5188 20.1585 72.6544 20.6206C72.3506 20.783 72.0441 20.9412 71.7349 21.0951C71.9235 21.2972 72.164 21.5771 72.4064 21.8769C72.7938 22.3559 73.1861 22.8856 73.3799 23.2301C73.3798 23.2301 73.3799 23.23 73.3799 23.2301C73.6035 23.1071 73.826 22.9819 74.0471 22.8548C74.1149 22.8158 74.1825 22.7766 74.25 22.7373C74.5625 22.5551 74.8725 22.3687 75.1799 22.1782C75.5164 21.9696 75.8497 21.756 76.1799 21.5375V33.6601H78.5949V31.5951H86.4699V33.1701H89.0249V17.9451H80.824C81.1871 17.6188 81.5447 17.2855 81.8968 16.9451C82.3649 16.4924 82.823 16.0274 83.271 15.5501C83.5784 15.2225 83.881 14.8891 84.1786 14.5501H90.5999V12.2051H86.0884C86.3367 11.8763 86.5808 11.5429 86.8205 11.2051C88.2999 9.11995 89.6142 6.86317 90.743 4.44481C90.8537 4.20752 90.9627 3.96868 91.0699 3.72829C91.0844 3.69558 91.099 3.66284 91.1135 3.63007C91.129 3.59511 91.1445 3.56011 91.1599 3.52507L88.7799 2.82507C88.3371 3.86277 87.8531 4.87189 87.3299 5.85067C87.011 6.44722 86.6775 7.0325 86.3299 7.60612V5.69507H81.9549V1.91507H79.5049V5.69507H74.0799V8.00508H79.5049ZM78.5949 29.3551H86.4699V25.6451H78.5949V29.3551ZM86.4699 20.1501H78.5949V23.5451H86.4699V20.1501ZM85.4699 21.1501H79.5949V22.5451H85.4699V21.1501ZM79.5949 26.6451V28.3551H85.4699V26.6451H79.5949ZM83.845 11.2051C84.4012 10.4947 84.9328 9.76107 85.4386 9.00508C85.6589 8.67595 85.8742 8.34259 86.0846 8.00508H81.9549V12.2051H83.0329C83.3091 11.8771 83.5799 11.5437 83.845 11.2051ZM82.9549 10.7193C83.3949 10.1627 83.8194 9.59111 84.2278 9.00508H82.9549V10.7193ZM91.0699 6.06335C90.1613 7.87124 89.1484 9.58665 88.0395 11.2051H91.0699V6.06335ZM94.6949 6.08007H101.211C101.081 6.40188 100.944 6.73606 100.802 7.08008C99.701 9.74872 98.2817 13.0087 96.8999 15.6701C100.61 18.7151 101.73 21.3751 101.73 23.5801C101.73 24.8751 101.485 25.8901 100.645 26.3451C100.225 26.5901 99.6299 26.7301 98.9999 26.7651C98.5044 26.8101 97.8929 26.8117 97.2215 26.7791C96.8495 26.761 96.4591 26.7325 96.0599 26.6951C96.2343 26.9857 96.3905 27.3548 96.5162 27.7371C96.6932 28.2757 96.8094 28.8407 96.8299 29.2501C97.9149 29.3201 99.1749 29.3201 100.12 29.2151C101.03 29.1101 101.835 28.8651 102.465 28.4451C103.76 27.6051 104.285 25.9951 104.25 23.8251C104.25 21.3051 103.305 18.5401 99.6299 15.2851C101.345 12.0651 103.235 8.00508 104.705 4.71507L102.815 3.49008L102.395 3.63007H92.0699V33.8001H94.6949V6.08007ZM99.7197 7.08008H95.6949V15.8208L96.0124 15.2093C97.3116 12.707 98.6495 9.65716 99.7197 7.08008ZM95.6949 15.9748V25.6565L96.1532 25.6994C97.2497 25.8022 98.2292 25.831 98.9093 25.7692L98.9268 25.7676L98.9444 25.7666C99.4867 25.7365 99.9077 25.6174 100.141 25.4813L100.155 25.4733L100.169 25.4658C100.461 25.3071 100.73 24.866 100.73 23.5801C100.73 21.7712 99.8309 19.3694 96.2654 16.4431L95.6949 15.9748ZM107.17 6.02507H117.153C117.775 4.46759 118.297 2.89213 118.72 1.33775L118.976 0.395194L123.645 1.54725L123.336 2.5574C122.984 3.71103 122.593 4.87026 122.162 6.02507H139.83V10.5801H130.555V17.1201H138.465V21.5701H130.555V29.5101H139.83V33.9951H116.655V29.5101H125.93V21.5701H118.02V17.1201H125.93V10.5801H120.22C119.127 12.839 117.854 15.0266 116.38 17.0621V34.6951H111.755V22.2526C110.969 22.9613 110.144 23.6298 109.278 24.2521L108.241 24.9977L107.766 23.8115C107.526 23.2106 106.908 22.1615 106.513 21.6018L105.936 20.7846L106.753 20.208C108.615 18.8948 110.282 17.272 111.755 15.4476V15.0201H112.094C113.172 13.633 114.142 12.1379 115.003 10.5801H107.17V6.02507ZM116.657 9.58007C116.49 9.91548 116.318 10.249 116.141 10.5801C115.316 12.125 114.385 13.6189 113.349 15.0201C113.155 15.2827 112.957 15.542 112.755 15.7979C112.696 15.8722 112.637 15.9463 112.578 16.0201C112.31 16.3536 112.036 16.6808 111.755 17.0012C110.429 18.5143 108.958 19.8744 107.343 21.0159C107.339 21.0189 107.334 21.022 107.33 21.0251C107.331 21.0273 107.333 21.0296 107.335 21.0318C107.597 21.4042 107.953 21.9782 108.251 22.5266C108.431 22.8569 108.59 23.1779 108.695 23.4401C108.974 23.2396 109.248 23.0341 109.519 22.8237C110.299 22.2165 111.044 21.569 111.755 20.8862C112.096 20.5584 112.429 20.2225 112.755 19.879V33.6951H115.38V16.7353C115.554 16.4991 115.726 16.2607 115.895 16.0201C116.059 15.7858 116.221 15.5495 116.38 15.3113C117.39 13.8003 118.296 12.2128 119.107 10.5801C119.271 10.2485 119.432 9.9151 119.589 9.58007H138.83V7.02507H120.7C120.835 6.69256 120.965 6.35914 121.093 6.02507C121.448 5.0937 121.776 4.15722 122.079 3.22087C122.182 2.90219 122.283 2.58352 122.38 2.26507L119.685 1.60007C119.287 3.06284 118.802 4.54865 118.228 6.02507C118.098 6.35901 117.964 6.69247 117.825 7.02507H108.17V9.58007H116.657ZM126.93 18.1201H119.02V20.5701H126.93V30.5101H117.655V32.9951H138.83V30.5101H129.555V20.5701H137.465V18.1201H129.555V11.3651H126.93V18.1201ZM141.61 2.14007H155.72V3.78202L156.862 4.23141C158.514 3.25836 160.429 1.91964 161.636 0.904711L162.282 0.361816L165.5 3.08507H174.41V24.0701C174.41 25.1489 174.234 26.3271 173.071 27.0005L173.061 27.006L173.052 27.0113C172.092 27.5389 170.887 27.5901 169.49 27.5901H168.845V34.8001H164.675V4.02965C163.414 5.00627 161.899 5.98895 160.458 6.83007H164.19V18.4701C164.19 21.4741 163.99 24.4832 162.95 27.2643C161.896 30.0792 160.004 32.6053 156.725 34.6801L155.914 35.1931L155.368 34.4043C155.242 34.2233 155.02 33.9452 154.765 33.6707C154.503 33.3876 154.26 33.1668 154.095 33.0571L153.795 32.8569V34.8351H149.52V28.3269C147.167 28.8569 144.876 29.3621 142.921 29.7736L141.932 29.9817L141.043 25.5331L142.056 25.3595C142.473 25.288 142.921 25.2082 143.395 25.1215V6.48507H141.61V2.14007ZM144.395 5.48507V25.953C144.05 26.0177 143.716 26.0795 143.395 26.138C143.333 26.1493 143.271 26.1604 143.21 26.1715C142.866 26.2336 142.537 26.2916 142.225 26.3451L142.715 28.7951C143.032 28.7282 143.359 28.6589 143.693 28.5874C145.474 28.2062 147.477 27.7627 149.52 27.3018C149.852 27.2268 150.186 27.1514 150.52 27.0757V33.8351H152.795V5.48507H154.72V3.14007H142.61V5.48507H144.395ZM146.6 5.48507V10.4901H150.52V5.48507H146.6ZM147.6 6.48507V9.49007H149.52V6.48507H147.6ZM150.52 12.6951H146.6V17.7001H150.52V12.6951ZM149.52 13.6951H147.6V16.7001H149.52V13.6951ZM150.52 19.9401H146.6V25.5279C146.928 25.4633 147.262 25.3971 147.6 25.3296C148.227 25.2043 148.869 25.0744 149.52 24.9415C149.851 24.8739 150.185 24.8054 150.52 24.7364V19.9401ZM149.52 20.9401H147.6V24.3097C148.227 24.1841 148.869 24.0539 149.52 23.9209V20.9401ZM154.805 6.48507H153.795V22.9105C154.116 22.8286 154.453 22.741 154.805 22.6483V6.48507ZM155.805 23.417C155.46 23.5095 155.126 23.5981 154.805 23.6823C154.716 23.7055 154.628 23.7284 154.541 23.751C154.283 23.8179 154.034 23.8818 153.795 23.9423C153.717 23.9619 153.641 23.9812 153.565 24.0001L154.44 26.2399C155.577 25.8546 156.84 25.4214 158.157 24.9651C158.416 24.8754 158.677 24.7847 158.94 24.6935C159.088 24.642 159.236 24.5904 159.385 24.5386C159.759 24.4082 160.136 24.2766 160.515 24.1444C160.425 24.5393 160.32 24.9294 160.198 25.3142C159.456 27.6501 158.073 29.7927 155.526 31.6336C155.248 31.8344 154.956 32.0316 154.65 32.2251C154.89 32.3853 155.167 32.6407 155.427 32.9143C155.735 33.2386 156.019 33.5883 156.19 33.8351C160.242 31.2707 161.988 28.0323 162.711 24.4335C162.758 24.2008 162.801 23.9666 162.839 23.7309C163.116 22.0401 163.19 20.276 163.19 18.4701V7.83007H161.02V18.4351C161.02 19.2799 161.003 20.1149 160.951 20.9363C160.931 21.2552 160.906 21.572 160.874 21.8866C160.87 21.9255 160.866 21.9643 160.862 22.0031C160.777 22.0275 160.692 22.0519 160.608 22.0762C160.344 22.1522 160.081 22.2275 159.821 22.3019C159.524 22.3864 159.231 22.4698 158.94 22.5519C158.602 22.6473 158.268 22.7409 157.94 22.8324V7.07538C158.26 6.91017 158.595 6.7314 158.94 6.5415C160.348 5.76586 161.915 4.80462 163.278 3.82425C163.562 3.61986 163.837 3.41463 164.1 3.21007L162.28 1.67007C161.192 2.58503 159.562 3.74458 158.033 4.69201C157.732 4.87827 157.435 5.05633 157.147 5.22272C157.079 5.262 157.012 5.30063 156.945 5.33856L155.805 4.89007V23.417ZM158.94 7.67943V21.5126C159.266 21.4203 159.595 21.3264 159.928 21.2311C159.997 20.3295 160.02 19.3973 160.02 18.4351V7.08252C159.651 7.29289 159.289 7.49272 158.94 7.67943ZM158.99 25.7348C157.489 26.2558 156.046 26.752 154.761 27.1872L153.856 27.4937L153.795 27.3372V31.5824L154.116 31.3797C156.738 29.7228 158.18 27.8108 158.99 25.7348ZM167.845 6.29007H171.205V24.0351C171.205 24.3501 171.1 24.4551 170.82 24.4551C170.68 24.4551 170.345 24.4551 169.907 24.4485C169.594 24.4438 169.229 24.4358 168.845 24.4221C168.827 24.4214 168.808 24.4208 168.79 24.4201C168.808 24.4547 168.827 24.4907 168.845 24.5278C168.974 24.7901 169.101 25.1101 169.209 25.434C169.347 25.8511 169.453 26.2747 169.49 26.5901C170.925 26.5901 171.87 26.5201 172.57 26.1351C173.235 25.7501 173.41 25.0851 173.41 24.0701V4.08507H165.675V33.8001H167.845V6.29007ZM168.845 23.4214C169.358 23.4402 169.838 23.4485 170.205 23.4522V7.29007H168.845V23.4214Z" fill="#F6BC54"/>
</svg>
