<svg width="302" height="321" viewBox="0 0 302 321" fill="none" xmlns="http://www.w3.org/2000/svg">
<path fill-rule="evenodd" clip-rule="evenodd" d="M76.4004 26.7214C75.404 26.9295 74.4038 27.1356 73.4004 27.3396V50.8086L130.7 42.9L132.35 53.4L73.4004 61.6131V85.0697L140.9 76.35L142.4 86.85L73.4004 95.9331V117.75C73.4004 125.7 75.3504 127.5 85.8504 127.5H123.35C131.863 127.5 133.754 124.124 134.822 109.642C134.902 108.558 134.977 107.412 135.05 106.2C135.878 106.81 136.871 107.395 137.947 107.94C140.576 109.27 143.703 110.361 146.15 111C144.2 131.85 140.3 138.45 123.8 138.45H85.4005C67.1004 138.45 61.8504 134.1 61.8504 117.6V97.4536L12.5004 103.95L10.8504 93.15L61.8504 86.5618V63.2223L17.1507 69.45L15.5004 58.8L61.8504 52.4027V29.5744C60.8521 29.7583 59.852 29.9402 58.8504 30.1201C44.5554 32.6878 29.9701 34.8526 16.1004 36.6C15.7909 34.7428 14.9845 32.0338 14.0231 29.6937C13.5868 28.6319 13.1186 27.6459 12.6504 26.85C13.7062 26.7101 14.7663 26.5675 15.8304 26.4224C52.41 21.4325 93.5576 13.3786 116.15 4.05L125.75 13.05C124.726 13.4446 123.68 13.8355 122.615 14.2225C109.538 18.9735 93.5061 23.1488 76.4004 26.7214ZM58.8504 33.1681C44.6453 35.7086 30.1934 37.8482 16.4754 39.5765L13.6152 39.9368L13.1413 37.0932C12.7419 34.697 11.3503 30.5566 10.0646 28.3711L7.77022 24.4705L12.2563 23.876C49.6014 18.9267 92.1527 10.7131 115.006 1.27707L116.792 0.539371L131.291 14.1316L126.828 15.8496C112.894 21.2147 95.2562 25.8689 76.4004 29.7857V47.3661L133.207 39.5256L135.788 55.9501L76.4004 64.2241V81.6573L143.452 72.9955L145.799 89.4285L76.4004 98.5641V117.75C76.4004 121.783 76.9865 122.802 77.565 123.266C77.9201 123.551 78.5984 123.893 79.997 124.14C81.3959 124.387 83.279 124.5 85.8504 124.5H123.35C125.48 124.5 126.799 124.263 127.679 123.874C128.441 123.538 129.038 123.018 129.58 121.983C130.177 120.844 130.688 119.109 131.101 116.414C131.51 113.746 131.794 110.355 132.056 106.019L132.388 100.512L136.83 103.785C139.227 105.551 143.596 107.233 146.908 108.097L149.375 108.741L149.137 111.279C148.17 121.626 146.687 129.343 142.808 134.375C138.668 139.746 132.369 141.45 123.8 141.45H85.4005C76.2641 141.45 69.3103 140.428 64.7874 136.47C60.1283 132.393 58.8504 125.961 58.8504 117.6V100.874L9.97864 107.308L7.42117 90.5681L58.8504 83.9244V66.6692L14.6382 72.829L12.0688 56.2452L58.8504 49.7884V33.1681ZM152.969 70.2441L156.092 69.6525C162.077 68.5184 169.365 67.0921 177.35 65.4854V39.6H182.65C186.492 35.6853 190.454 30.7526 193.912 25.8H158V9.15H206.414L209.602 8.08736L220.929 15.7118L219.561 18.1282C219.107 18.9307 218.636 19.7385 218.152 20.55H244.55V0H261.65V20.55H298.4V36.75H259.242L258.817 37.3272C252.677 45.6776 245.119 54.9582 238.314 62.2487C241.241 64.895 243.983 67.5137 246.373 69.9672C255.261 62.027 262.928 53.2512 268.55 44.1709L269.914 41.9674L285.581 48.7489L283.676 51.7199C268.039 76.094 242.381 97.6033 215.218 110.269L212.946 111.329L211.5 109.28C209.785 106.851 206.936 103.447 204.616 101.4L201.092 98.2902L205.395 96.4026C214.839 92.2608 224.208 86.9002 232.931 80.6883C228.228 75.7691 222.374 70.2548 216.675 65.3537L217.282 73.6096L214.758 74.177C207.939 75.7101 200.968 77.2623 194.15 78.7739V127.35C194.15 130.618 193.852 133.519 192.796 135.951C191.671 138.542 189.799 140.353 187.202 141.603L187.161 141.623L187.119 141.641C184.641 142.743 181.55 143.304 178.086 143.613C174.588 143.926 170.461 144 165.8 144H163.199L162.831 141.424C162.426 138.592 161.022 133.952 159.517 130.942L157.295 126.497L162.263 126.601C168.95 126.74 174.991 126.749 177.35 126.75V82.4898C177.161 82.5316 176.972 82.5733 176.784 82.615C170.711 83.9562 165.027 85.2117 160.001 86.3286L157.149 86.9625L152.969 70.2441ZM177.35 79.4175C178.341 79.1986 179.342 78.9776 180.35 78.7548V127.35C180.35 129.15 179.9 129.75 177.8 129.75C176.158 129.75 171.324 129.75 165.539 129.66C164.455 129.644 163.337 129.624 162.2 129.6C162.654 130.508 163.097 131.541 163.509 132.626C164.596 135.487 165.474 138.717 165.8 141C175.1 141 181.85 140.7 185.9 138.9C189.95 136.95 191.15 133.65 191.15 127.35V76.366C192.147 76.1453 193.147 75.9236 194.15 75.7011C200.757 74.2357 207.499 72.7341 214.1 71.25L213.35 61.05C212.867 61.1544 212.382 61.2588 211.898 61.363C211.395 61.4712 210.892 61.5792 210.389 61.6871C204.954 62.8527 199.493 64.0034 194.15 65.1127C193.146 65.3213 192.146 65.5284 191.15 65.7339V49.9245C191.285 49.7962 191.419 49.6671 191.554 49.5371C192.413 48.7075 193.28 47.8423 194.15 46.9458C199.042 41.9085 204.053 35.8843 208.55 29.6508C209.58 28.2241 210.582 26.7865 211.55 25.3472V33.75H243.793C243.145 34.7288 242.463 35.7315 241.752 36.75C237.811 42.398 233.006 48.5308 228.425 53.7705C227.753 54.5386 227.086 55.2876 226.428 56.013C225.646 55.3775 224.864 54.7493 224.085 54.1307C222.592 52.947 221.108 51.7983 219.65 50.7L212.75 58.2C213.518 58.8115 214.297 59.4436 215.085 60.093C215.391 60.3444 215.697 60.5984 216.005 60.8548C216.125 60.9552 216.246 61.056 216.366 61.1571C222.91 66.6363 229.913 73.1629 235.379 78.9094C236.093 79.66 236.781 80.3972 237.438 81.1171C236.631 81.7175 235.818 82.3107 235 82.8965C226.918 88.6821 218.294 93.7436 209.569 97.8078C208.58 98.2681 207.591 98.7157 206.6 99.15C207.345 99.8073 208.129 100.58 208.909 101.408C210.801 103.414 212.676 105.745 213.95 107.55C239.697 95.5444 264.049 75.4489 279.474 52.6436C280.046 51.7993 280.604 50.9514 281.15 50.1L271.1 45.75C265.331 55.07 257.498 64.0416 248.44 72.1438C247.696 72.8092 246.944 73.4687 246.184 74.1221C245.531 73.416 244.839 72.6892 244.113 71.9459C241.786 69.5635 239.11 67.0113 236.248 64.4248C235.512 63.7601 234.765 63.0932 234.007 62.4263C234.687 61.7252 235.377 60.9988 236.076 60.2504C242.131 53.7673 248.836 45.6344 254.578 38C254.893 37.5817 255.204 37.1649 255.513 36.75C255.812 36.3482 256.108 35.948 256.4 35.55L252.695 33.75H295.4V23.55H258.65V3H247.55V23.55H212.741C213.394 22.5479 214.029 21.5468 214.643 20.55C215.45 19.2403 216.221 17.9379 216.95 16.65L209.15 11.4L206.9 12.15H161V22.8H199.512C198.885 23.7912 198.229 24.7938 197.55 25.8C194.313 30.5986 190.549 35.4794 186.779 39.6C185.963 40.4919 185.147 41.3482 184.336 42.1603C184.188 42.3083 184.04 42.4549 183.893 42.6H180.35V67.9407C179.34 68.145 178.34 68.3466 177.35 68.5454C170.849 69.8518 164.824 71.036 159.602 72.0373C158.587 72.2319 157.602 72.4196 156.65 72.6L159.35 83.3997C164.384 82.2812 170.072 81.0251 176.146 79.6834C176.546 79.5951 176.947 79.5065 177.35 79.4175ZM208.871 58.9442L208.362 58.5387L219.284 46.6676L221.456 48.3039C222.975 49.4485 224.525 50.6491 226.085 51.8887C230.157 47.2385 234.425 41.8504 238.078 36.75H208.55V34.6934C203.949 40.7569 198.958 46.4944 194.15 51.1969V62.0487C199 61.0405 203.943 59.9991 208.871 58.9442ZM281.721 70.0745L296.908 77.5513L295.066 80.385C288.926 89.8301 281.349 98.701 272.713 106.803C282.759 114.773 293.647 124.352 299.595 131.06L301.585 133.304L287.727 145.598L285.746 143.221C280.189 136.552 269.342 126.479 259.342 118.106C245.596 128.59 230.055 137.294 213.845 143.643L211.502 144.561L210.191 142.414C208.66 139.91 205.806 136.198 203.279 133.671L199.937 130.329L204.384 128.728C235.577 117.492 264.666 96.6931 280.274 72.3316L281.721 70.0745ZM256.971 116.14C257.791 115.52 258.604 114.894 259.41 114.262C260.188 114.904 260.975 115.559 261.766 116.224C270.637 123.681 280.145 132.439 286.083 139.035C286.792 139.823 287.45 140.58 288.05 141.3L297.35 133.05C296.727 132.347 296.046 131.61 295.315 130.845C289.173 124.415 279.481 115.981 270.479 108.861C269.674 108.223 268.873 107.597 268.082 106.983C268.838 106.303 269.586 105.618 270.326 104.928C278.158 97.6212 285.103 89.6825 290.87 81.2667C291.442 80.4325 292.002 79.5935 292.55 78.75L282.8 73.95C267.271 98.1881 238.961 118.775 208.471 130.411C207.45 130.801 206.426 131.181 205.4 131.55C206.126 132.275 206.872 133.087 207.609 133.938C209.614 136.258 211.544 138.875 212.75 140.85C228.511 134.677 243.603 126.253 256.971 116.14ZM59.7504 298.7H97.8504V242H65.6004V225.2H97.8504V177.2H115.25V225.2H147.35V242H115.25V298.7H150.5V315.8H59.7504V298.7ZM112.25 301.7V239H144.35V228.2H112.25V180.2H100.85V228.2H68.6004V239H100.85V301.7H62.7504V312.8H147.5V301.7H112.25ZM7.25044 204.2H30.9504V176.15H48.0504V204.2H57.7826L60.7919 203.555L61.7822 204.2H63.0504V205.026L70.3736 209.794L69.4232 212.095C64.8493 223.169 58.4709 233.801 51.0855 243.484C56.897 248.261 65.1143 255.409 69.9291 259.597C71.222 260.722 72.2695 261.633 72.9593 262.228L75.0877 264.063L64.2544 278.428L61.8264 275.607C58.9408 272.253 53.4631 266.681 48.0504 261.394V320.15H30.9504V265.453C24.869 270.988 18.6131 275.823 12.4736 279.773L9.47102 281.705L8.08554 278.414C7.53085 277.097 6.60526 275.172 5.58786 273.351C4.52455 271.448 3.5332 269.975 2.87912 269.321L0.137695 266.58L3.47938 264.614C19.7606 255.037 36.7296 238.376 47.144 220.55H7.25044V204.2ZM52.2201 217.55C51.7015 218.553 51.1615 219.553 50.6014 220.55C40.5211 238.491 23.9169 255.33 7.61396 265.607C6.74158 266.157 5.87006 266.688 5.00044 267.2C5.56771 267.767 6.19844 268.614 6.83725 269.599C7.79567 271.078 8.77228 272.869 9.58001 274.499C10.0846 275.518 10.5233 276.473 10.8504 277.25C11.6957 276.706 12.5433 276.145 13.3925 275.567C19.2599 271.575 25.2003 266.784 30.9504 261.365C31.9567 260.416 32.9572 259.448 33.9504 258.462V317.15H45.0504V254.335C46.0236 255.26 47.0296 256.225 48.0504 257.211C53.0752 262.067 58.4598 267.458 62.0619 271.371C62.8292 272.204 63.5156 272.97 64.1004 273.65L71.0004 264.5C70.2766 263.876 69.1913 262.932 67.8615 261.776C63.0187 257.564 54.9323 250.531 49.2446 245.852C48.8333 245.513 48.4345 245.187 48.0504 244.875C47.6556 244.555 47.2763 244.249 46.9148 243.961C47.2958 243.48 47.6744 242.996 48.0504 242.51C48.2861 242.205 48.5207 241.9 48.7542 241.593C53.8003 234.97 58.3635 227.898 62.1766 220.55C62.4724 219.98 62.7638 219.408 63.0504 218.835C64.3496 216.236 65.5535 213.606 66.6504 210.95L60.2004 206.75L58.1004 207.2H45.0504V179.15H33.9504V207.2H10.2504V217.55H52.2201ZM228.5 205.25H239.832C238.052 199.012 234.626 191.031 230.874 184.736L228.974 181.55L243.498 176.626L244.781 178.513C250.051 186.262 254.731 196.659 256.329 203.849L256.64 205.25H265.073L265.902 203.691C269.59 196.757 274.441 185.712 276.614 178.033L277.403 175.243L294.713 179.511L293.169 182.819C292.218 184.856 291.242 186.985 290.255 189.139C287.697 194.721 285.061 200.472 282.576 205.25H296.15V221.6H270.2V236H293.6V252.5H270.2V268.25H299.6V284.9H270.2V320.15H253.25V284.9H226.1V312.05H187.55V320.15H171.2V286.35C169.518 288.452 167.734 290.469 165.844 292.399L163.126 295.174L161.128 291.843C160.591 290.949 159.419 289.421 158 287.782C156.6 286.163 155.127 284.628 154.075 283.708L151.586 281.53L153.995 279.264C162.259 271.494 168.132 261.227 172.336 248.75H162.35V233H176.57C177.178 230.129 177.728 227.178 178.227 224.15H155.45V208.4H180.324C180.636 205.457 180.915 202.456 181.167 199.4H163.25V183.65H224V208.4H228.5V205.25ZM231.5 218.6H256.25V239H233.6V249.5H256.25V271.25H228.05V281.9H256.25V317.15H267.2V281.9H296.6V271.25H267.2V249.5H290.6V239H267.2V218.6H293.15V208.25H243.65L253.4 204.5C251.9 197.75 247.4 187.7 242.3 180.2L233.45 183.2C233.961 184.057 234.467 184.944 234.963 185.855C238.372 192.102 241.375 199.424 242.945 205.25C242.95 205.267 242.955 205.284 242.959 205.302C243.237 206.337 243.469 207.324 243.65 208.25H231.5V218.6ZM253.25 268.25V252.5H230.6V236H253.25V221.6H232.85V224.15H224V248.75H189.668C188.716 252.049 187.676 255.25 186.539 258.35H226.1V268.25H253.25ZM182.163 261.35C182.566 260.362 182.958 259.362 183.339 258.35C184.504 255.26 185.569 252.059 186.543 248.75C186.835 247.76 187.119 246.76 187.395 245.75H221V221.15H229.85V211.4H221V186.65H166.25V196.4H184.413C184.337 197.405 184.259 198.405 184.177 199.4C183.927 202.451 183.65 205.452 183.341 208.4C183.235 209.406 183.125 210.406 183.012 211.4H158.45V221.15H181.735C181.584 222.158 181.428 223.158 181.267 224.15C180.776 227.172 180.234 230.123 179.635 233C179.425 234.009 179.208 235.009 178.984 236H165.35V245.75H176.437C176.134 246.762 175.82 247.762 175.497 248.75C174.403 252.09 173.191 255.293 171.847 258.35C171.635 258.833 171.419 259.312 171.2 259.787C167.765 267.248 163.502 273.806 158.188 279.335C157.494 280.058 156.781 280.763 156.05 281.45C156.688 282.008 157.431 282.734 158.204 283.543C159.477 284.876 160.831 286.431 161.928 287.82C162.673 288.764 163.299 289.631 163.7 290.3C164.423 289.562 165.129 288.811 165.82 288.047C167.73 285.933 169.521 283.717 171.2 281.401C172.243 279.963 173.242 278.486 174.2 276.97V317.15H184.55V309.05H223.1V261.35H182.163ZM210.5 221.15H192.432C192.282 222.157 192.127 223.157 191.967 224.15C191.483 227.166 190.955 230.117 190.381 233C190.18 234.008 189.973 235.008 189.76 236H210.5V221.15ZM207.5 233V224.15H195.007C194.529 227.16 194.008 230.111 193.44 233H207.5ZM195.213 196.4C195.13 197.406 195.045 198.406 194.957 199.4C194.688 202.453 194.393 205.453 194.07 208.4C193.96 209.406 193.846 210.406 193.729 211.4H210.5V196.4H195.213ZM207.5 199.4H197.969C197.702 202.448 197.41 205.448 197.089 208.4H207.5V199.4ZM184.55 299H212V271.25H184.55V299ZM187.55 296H209V274.25H187.55V296ZM279.184 205.25C281.819 200.341 284.668 194.126 287.479 187.995C288.043 186.764 288.606 185.536 289.165 184.323C289.596 183.388 290.025 182.462 290.45 181.55L279.5 178.85C277.522 185.84 273.457 195.38 269.955 202.374C269.474 203.335 269.003 204.248 268.55 205.1L277.85 207.65C278.288 206.893 278.733 206.091 279.184 205.25Z" fill="#F6BC54"/>
</svg>
