<svg width="448" height="256" viewBox="0 0 448 256" fill="none" xmlns="http://www.w3.org/2000/svg">
<path d="M40 33C40 14.7746 54.7746 0 73 0H415C433.225 0 448 14.7746 448 33V223C448 241.225 433.225 256 415 256H73C54.7746 256 40 241.225 40 223V33Z" fill="white"/>
<path fill-rule="evenodd" clip-rule="evenodd" d="M415 1H73C55.3269 1 41 15.3269 41 33V223C41 240.673 55.3269 255 73 255H415C432.673 255 447 240.673 447 223V33C447 15.3269 432.673 1 415 1ZM73 0C54.7746 0 40 14.7746 40 33V223C40 241.225 54.7746 256 73 256H415C433.225 256 448 241.225 448 223V33C448 14.7746 433.225 0 415 0H73Z" fill="#F6BC54"/>
<path fill-rule="evenodd" clip-rule="evenodd" d="M32 218.18H9.04L9.04 227.385H4.31L4.31 203.685H9.04V212.89H32V218.18ZM31 213.89V217.18H8.04V226.385H5.31L5.31 204.685H8.04L8.04 213.89H31ZM28.5172 170.794C31.0544 173.177 32.42 176.552 32.42 180.5C32.42 184.398 31.0531 187.786 28.5223 190.197C25.9946 192.605 22.3894 193.96 18.05 193.96C13.7446 193.96 10.1883 192.613 7.70282 190.204C5.21561 187.794 3.89 184.406 3.89 180.5C3.89 176.61 5.2167 173.239 7.70498 170.842C10.1909 168.447 13.7465 167.11 18.05 167.11C22.3801 167.11 25.9856 168.416 28.5172 170.794ZM25.0951 186.342C26.6982 184.952 27.62 182.961 27.62 180.5C27.62 178.059 26.6996 176.076 25.0961 174.69C23.4791 173.292 21.0868 172.435 18.05 172.435C15.0302 172.435 12.6961 173.283 11.1309 174.669C9.57799 176.043 8.69 178.026 8.69 180.5C8.69 182.994 9.57932 184.985 11.1319 186.363C12.6968 187.752 15.0302 188.6 18.05 188.6C21.0868 188.6 23.4785 187.743 25.0951 186.342ZM32 155.18H4.31L4.31 145.955C4.31 142.551 4.80205 139.599 6.14433 137.472C7.54119 135.259 9.77361 134.07 12.87 134.07C15.8666 134.07 18.1693 135.268 19.6826 137.427C21.159 139.534 21.815 142.453 21.815 145.815L21.815 149.925H32V155.18ZM31 150.925V154.18H5.31L5.31 145.955C5.31 139.27 7.27 135.07 12.87 135.07C18.26 135.07 20.815 139.305 20.815 145.815L20.815 150.925H31ZM8.935 149.925H17.19L17.19 146.27C17.19 143.693 16.7906 141.933 16.0825 140.843C15.4288 139.836 14.4414 139.29 12.87 139.29C12.049 139.29 11.4421 139.444 10.983 139.694C10.5308 139.941 10.1607 140.314 9.85968 140.857C9.22993 141.994 8.935 143.81 8.935 146.445V149.925ZM18.0836 114.705C17.3294 114.072 16.6008 113.498 15.985 113.055L16.685 111.515C16.9276 111.719 17.1764 111.932 17.429 112.151C17.4446 112.164 17.4603 112.178 17.4759 112.192C17.8471 112.514 18.2261 112.85 18.6055 113.194C18.8312 113.398 19.0569 113.606 19.2812 113.815C19.397 113.922 19.5125 114.031 19.6273 114.139C19.7106 114.218 19.7936 114.297 19.8762 114.376C20.064 114.555 20.2498 114.735 20.4325 114.915C20.4413 114.924 20.45 114.932 20.4588 114.941C20.6578 115.137 20.8531 115.332 21.0435 115.526C21.2058 115.691 21.3645 115.856 21.5188 116.018C21.5118 115.885 21.5046 115.751 21.4973 115.617C21.4776 115.251 21.4571 114.879 21.4356 114.501C21.4306 114.414 21.4256 114.326 21.4205 114.238C21.3991 113.867 21.3769 113.491 21.3536 113.112C21.1667 113.22 20.9808 113.332 20.7983 113.448C20.7088 113.504 20.6201 113.562 20.5324 113.62C20.484 113.652 20.436 113.684 20.3883 113.717C20.2345 113.821 20.0846 113.928 19.94 114.035L19.45 112.565C19.7113 112.365 19.9911 112.167 20.2798 111.977C20.3459 111.933 20.4124 111.89 20.4793 111.847C20.5739 111.787 20.6693 111.727 20.765 111.669C20.9327 111.567 21.1017 111.468 21.27 111.374C21.4171 111.291 21.5637 111.213 21.7087 111.138C21.7386 111.123 21.7684 111.107 21.7981 111.092C22.016 110.982 22.2295 110.882 22.4348 110.795C22.4781 110.777 22.5211 110.759 22.5636 110.741C22.6169 110.72 22.6695 110.699 22.7214 110.679C22.7297 110.676 22.7379 110.673 22.7462 110.67C22.9293 110.6 23.1034 110.543 23.265 110.5L23.86 112.005C23.8504 112.007 23.8408 112.01 23.8311 112.013C23.5537 112.086 23.2431 112.195 22.914 112.332C22.8961 112.34 22.8781 112.347 22.86 112.355C22.8585 112.355 22.8571 112.356 22.8556 112.357C22.8571 112.375 22.8585 112.394 22.86 112.412C22.8868 112.748 22.9127 113.082 22.9378 113.414C22.9447 113.504 22.9515 113.595 22.9582 113.685C22.9834 114.021 23.0077 114.355 23.0312 114.685C23.0707 115.24 23.1079 115.784 23.1432 116.317C23.1526 116.458 23.1619 116.599 23.171 116.739C23.1891 117.016 23.2066 117.29 23.2237 117.56C23.2353 117.743 23.2466 117.924 23.2577 118.102C23.2977 118.745 23.335 119.363 23.37 119.95L21.725 120.195L21.7089 119.855C21.7043 119.76 21.6997 119.663 21.695 119.564C21.6892 119.442 21.6833 119.317 21.6772 119.191C21.6689 119.018 21.6605 118.841 21.6518 118.661C21.6443 118.506 21.6367 118.349 21.6289 118.189C21.6257 118.125 21.6226 118.06 21.6194 117.995C21.5 117.868 21.3761 117.74 21.2484 117.61C21.0983 117.457 20.9428 117.301 20.7831 117.145C20.7112 117.075 20.6385 117.004 20.565 116.933C20.4285 116.801 20.2895 116.669 20.1484 116.537C20.116 116.506 20.0835 116.476 20.051 116.445C19.9427 116.529 19.832 116.619 19.7195 116.714C19.5767 116.834 19.4309 116.962 19.2837 117.097C18.9362 117.416 18.5802 117.772 18.2335 118.145C18.1283 118.258 18.0241 118.373 17.9212 118.489C17.7851 118.642 17.6514 118.797 17.5213 118.952C17.3891 119.11 17.2605 119.268 17.1368 119.425C17.0539 119.531 16.9732 119.636 16.895 119.74L15.845 118.69C15.8918 118.623 15.9397 118.556 15.9884 118.489C16.1463 118.27 16.3142 118.05 16.4888 117.831C16.5248 117.786 16.5611 117.741 16.5976 117.696C16.5112 117.628 16.4228 117.56 16.3328 117.492C16.1596 117.36 15.9805 117.226 15.7988 117.093C15.4967 116.872 15.1872 116.652 14.885 116.445C14.5341 116.204 14.1931 115.979 13.885 115.787V122.435H33.835V124.955H3.105L3.105 112.11H13.885V114.735L14.235 113.895C14.4504 114.057 14.6679 114.223 14.885 114.393C14.9418 114.437 14.9985 114.482 15.0551 114.527C15.6559 115.001 16.2487 115.495 16.7813 115.962C17.0454 116.194 17.2946 116.42 17.5227 116.634C17.717 116.426 17.9122 116.226 18.1052 116.039C18.1457 116 18.1861 115.961 18.2264 115.923C18.4407 115.719 18.6512 115.531 18.8534 115.365C18.5961 115.14 18.3384 114.919 18.0836 114.705ZM14.885 113.058V111.11H2.105L2.105 125.955H34.835V121.435H14.885V119.144L17.0032 121.262L17.695 120.34C18.3724 119.437 19.2321 118.495 20.0103 117.788C20.2288 118.001 20.4393 118.211 20.6388 118.417C20.6642 118.941 20.6879 119.439 20.7101 119.905L20.7787 121.347L24.4228 120.804L24.3682 119.89C24.3663 119.859 24.3644 119.827 24.3625 119.795H30.32V116.5C30.5923 116.97 30.8552 117.574 31.0939 118.353L31.6613 120.205L32.8426 118.67C32.9541 118.525 33.1631 118.316 33.4196 118.103C33.675 117.891 33.9159 117.725 34.0641 117.645L34.8173 117.24L34.5333 116.433C33.7144 114.107 32.6118 112.635 31.2378 111.774C29.8759 110.921 28.3893 110.76 27.01 110.76H24.4431L24.3896 110.625L24.3793 110.485H34.17V106.525H30.32V103.996L31.5522 103.379C32.1411 103.085 33.2616 102.761 33.8783 102.669L34.73 102.541V101.68C34.73 100.6 34.7218 99.6398 34.652 98.8252C34.5829 98.0188 34.4474 97.2626 34.141 96.6262C33.8164 95.9521 33.329 95.4632 32.6473 95.173C32.0172 94.9048 31.2853 94.835 30.51 94.835H2.105L2.105 109.995H14.6365L14.5232 110.151L15.6454 111.386L14.885 113.058ZM16.86 111.235C16.9637 111.093 17.0725 110.95 17.1855 110.806C17.2132 110.77 17.2412 110.735 17.2693 110.7C17.3396 110.612 17.4113 110.523 17.4842 110.435C17.633 110.255 17.7871 110.075 17.9446 109.898C18.1873 109.625 18.4382 109.357 18.6904 109.103C18.894 108.897 19.0985 108.701 19.3004 108.516C19.4654 108.365 19.6286 108.223 19.7882 108.091C19.8825 108.013 19.9756 107.938 20.067 107.868C20.0962 107.897 20.1252 107.926 20.1542 107.954C20.3069 108.107 20.4572 108.259 20.6042 108.41C20.6616 108.469 20.7185 108.527 20.7748 108.586C20.956 108.774 21.1316 108.961 21.3002 109.144C21.426 109.281 21.5479 109.415 21.6652 109.548C21.6688 109.619 21.6724 109.69 21.6759 109.76C21.6759 109.762 21.676 109.763 21.6761 109.764C21.6806 109.855 21.685 109.945 21.6894 110.033C21.6922 110.089 21.6949 110.145 21.6975 110.2C21.7072 110.399 21.7163 110.592 21.725 110.78L23.37 110.395C23.3516 110.145 23.3332 109.889 23.3148 109.627C23.3114 109.58 23.3081 109.533 23.3048 109.485C23.3041 109.475 23.3034 109.465 23.3027 109.455C23.2953 109.35 23.2879 109.244 23.2805 109.137C23.2621 108.872 23.2436 108.601 23.2249 108.326C23.2148 108.179 23.2047 108.03 23.1945 107.881C23.1904 107.82 23.1863 107.759 23.1821 107.698C23.1782 107.64 23.1743 107.583 23.1704 107.525C23.1481 107.196 23.1254 106.863 23.1022 106.525C23.0413 105.638 22.9768 104.722 22.9067 103.796C22.8799 103.441 22.8522 103.085 22.8235 102.728C22.9039 102.691 22.9834 102.656 23.062 102.622C23.1718 102.574 23.2796 102.53 23.385 102.488C23.5265 102.433 23.6637 102.383 23.7953 102.339C23.8256 102.329 23.8556 102.319 23.8854 102.31C23.9241 102.298 23.9623 102.286 24 102.275L23.405 100.735C23.0929 100.827 22.7447 100.964 22.3786 101.135C22.0093 101.307 21.6218 101.513 21.235 101.74C20.9964 101.88 20.7581 102.027 20.5245 102.18C20.4313 102.241 20.3389 102.302 20.2475 102.365C19.9039 102.598 19.5748 102.84 19.275 103.08L19.765 104.585C19.845 104.522 19.9267 104.46 20.0099 104.398C20.1233 104.313 20.2396 104.229 20.358 104.147C20.4431 104.087 20.5293 104.028 20.6164 103.97C20.8466 103.816 21.0831 103.666 21.3216 103.523C21.3453 103.907 21.3683 104.285 21.3908 104.658C21.4161 105.079 21.4407 105.494 21.4645 105.899C21.4862 106.271 21.5072 106.635 21.5273 106.992C21.5368 107.159 21.5461 107.324 21.5552 107.488C21.4075 107.32 21.2556 107.15 21.1002 106.98C20.901 106.761 20.6962 106.54 20.4872 106.32C20.3145 106.137 20.1391 105.954 19.9617 105.772C19.9488 105.758 19.9358 105.745 19.9229 105.732C19.7406 105.545 19.5564 105.358 19.3712 105.173C19.2551 105.057 19.1386 104.942 19.022 104.827C18.9097 104.716 18.7973 104.607 18.6849 104.498C18.3189 104.143 17.9534 103.797 17.5956 103.466C17.3337 103.223 17.0759 102.989 16.825 102.765L16.055 104.34C16.6725 104.8 17.3906 105.394 18.1295 106.05C18.3776 106.27 18.6281 106.497 18.8779 106.729C18.6833 106.886 18.4813 107.064 18.2759 107.257C18.2268 107.303 18.1775 107.35 18.1281 107.397C17.9425 107.576 17.755 107.767 17.5683 107.964C17.3378 107.746 17.0896 107.52 16.8287 107.291C16.2579 106.789 15.6264 106.269 14.9874 105.771C14.9533 105.745 14.9191 105.718 14.885 105.692C14.6447 105.505 14.4038 105.323 14.165 105.145L13.885 105.817V98.39H30.51C30.965 98.39 31.14 98.53 31.14 98.985C31.1664 99.3544 31.1729 100.281 31.1445 101.374C31.1352 101.731 31.1222 102.106 31.105 102.485C31.3832 102.346 31.7444 102.207 32.1225 102.083C32.6958 101.896 33.3082 101.743 33.73 101.68C33.73 99.51 33.695 98.005 33.24 97.06C32.785 96.115 31.98 95.835 30.51 95.835H3.105L3.105 108.995H13.885L13.885 107.089C14.1939 107.287 14.5345 107.515 14.885 107.757C15.1963 107.972 15.5154 108.199 15.8271 108.427C16.0752 108.609 16.3186 108.793 16.5495 108.972C16.5749 108.992 16.6001 109.012 16.6252 109.031C16.573 109.094 16.5212 109.158 16.4701 109.221C16.3085 109.42 16.1528 109.62 16.0052 109.816C15.9384 109.905 15.8732 109.993 15.81 110.08L16.86 111.235ZM15.2074 109.213C15.1006 109.135 14.9929 109.057 14.885 108.979V109.652L15.0004 109.493C15.0672 109.401 15.1362 109.307 15.2074 109.213ZM5.03 98.39L5.03 106.51H7.655L7.655 98.39H5.03ZM9.44 106.51H11.96V98.39H9.44V106.51ZM10.44 105.51H10.96V99.39H10.44V105.51ZM6.655 99.39H6.03L6.03 105.51H6.655L6.655 99.39ZM14.885 99.39V104.435C14.8876 104.437 14.8902 104.438 14.8928 104.44L16.5064 101.14L17.491 102.019C17.7214 102.225 17.9578 102.439 18.1981 102.661L18.6503 102.299C19.104 101.936 19.6275 101.563 20.1749 101.216L20.1699 101.135H20.303C21.2612 100.537 22.2814 100.023 23.1228 99.7756L24.006 99.5159L24.6992 101.31H30.1458C30.166 100.512 30.1669 99.8202 30.1564 99.39H14.885ZM24.385 102.31V104.13H27.675V107.525H23.86V109.485H33.17V107.525H29.32V102.31H24.385ZM24.1045 106.525H26.675V105.13H24.0072C24.0408 105.601 24.0731 106.067 24.1045 106.525ZM20.6842 109.952C20.6941 110.153 20.7036 110.349 20.7127 110.54C20.5669 110.622 20.4215 110.708 20.2774 110.795H20.2019L20.2048 110.839C19.7232 111.135 19.2577 111.453 18.8426 111.771L18.6662 111.906C18.4523 111.716 18.2399 111.53 18.0306 111.349C18.6341 110.588 19.3457 109.826 20.0043 109.227C20.2418 109.473 20.4697 109.716 20.6842 109.952ZM23.86 112.005V111.76H27.01C27.2333 111.76 27.4551 111.765 27.675 111.776C28.2383 111.804 28.7889 111.875 29.32 112.02C29.6621 112.114 29.996 112.239 30.32 112.403C31.6046 113.055 32.7329 114.33 33.59 116.765C33.3802 116.878 33.1109 117.065 32.8472 117.279C32.5391 117.529 32.2386 117.815 32.05 118.06C31.9307 117.67 31.8036 117.315 31.6696 116.991C31.2733 116.032 30.8165 115.346 30.32 114.857C30.0012 114.544 29.666 114.311 29.32 114.14L29.32 118.795H24.385V117.01H27.675L27.675 113.712C27.4421 113.692 27.2083 113.685 26.975 113.685H23.86V112.005ZM24.0337 114.685C24.0655 115.134 24.0959 115.576 24.125 116.01H26.675L26.675 114.685H24.0337ZM14.885 118.318L15.0258 118.117C15.0791 118.04 15.1338 117.964 15.1897 117.887C15.0888 117.813 14.987 117.739 14.885 117.666V118.318ZM5.03 114.595L5.03 122.435H7.655L7.655 114.595H5.03ZM11.96 122.435V114.595H9.44V122.435H11.96ZM10.44 121.435H10.96V115.595H10.44V121.435ZM6.655 115.595H6.03L6.03 121.435H6.655L6.655 115.595ZM2.91 80.735L2.91 75.4662L2.72967 74.9703L2.91 74.1768V73.975H2.95587L3.37693 72.1223L3.61 72.1867L3.61 69.15H0.705003L0.705003 64.945H3.61L3.61 60.045H8.125V58.155H12.47L12.47 60.045H17.125V64.945H17.785V59.59H21.99V64.945H22.72V58.61H26.925V64.945H29.8945C29.8928 63.0444 29.8864 59.9079 29.8604 58.9728L29.8076 57.073L31.4033 58.1054C31.6042 58.2355 31.9387 58.3878 32.324 58.5189C32.7072 58.6493 33.0616 58.7318 33.2804 58.7561L34.17 58.855V66.4C34.17 69.9201 33.5999 72.9981 31.3484 75.4273C31.1308 75.6621 30.899 75.8891 30.6524 76.1086C32.3371 77.2486 33.6727 78.598 34.705 80.1648L35.2164 80.9409L34.4797 81.5076C34.3199 81.6306 34.0503 81.8876 33.7663 82.1966C33.4825 82.5055 33.2476 82.7975 33.1362 82.9708L32.3485 84.196C32.7257 86.0067 33.086 87.7538 33.4104 89.3268C33.5211 89.8639 33.6277 90.3807 33.7293 90.8728L33.9227 91.8091L29.6052 92.9046L29.4199 91.8418C29.2039 90.6035 28.9281 89.1017 28.6147 87.455H28.0458L28.8038 90.487L27.5734 90.5343C25.8516 90.6005 23.167 91.0729 21.1226 91.6521L20.1103 91.939L19.505 89.2977V92.285H15.23L15.23 87.455H13.52V90.5869L13.8812 90.9727L12.8997 91.6271C12.4846 91.9038 11.8088 92.5796 11.5321 92.9947L10.8112 94.076L9.95067 93.1022C7.42108 90.2398 3.96348 88.2198 1.27368 87.1775L0.63512 86.93L0.635001 83.6608L0.927895 83.3679C1.78137 82.5144 2.79919 81.5905 3.82589 80.735H2.91ZM6.255 79.735L6.255 76.1743C6.57593 76.2701 6.91012 76.3704 7.255 76.4748C9.11935 77.039 11.2958 77.7193 13.375 78.406C13.6249 78.4885 13.8735 78.5712 14.1199 78.6537C14.5511 78.7981 14.9759 78.9422 15.3903 79.085C15.5462 79.1387 15.7006 79.1922 15.8534 79.2455C15.9302 79.2723 16.0066 79.299 16.0826 79.3257C16.1319 79.343 16.1811 79.3603 16.23 79.3775C16.5049 79.4745 16.7736 79.5704 17.035 79.665L17.455 77.53C17.1585 77.427 16.8548 77.3225 16.545 77.217L16.545 74.9541C16.8842 74.9892 17.2175 75.0268 17.545 75.0671C19.2282 75.274 20.7584 75.5495 22.1478 75.8942C22.7637 76.0471 23.3519 76.2135 23.9135 76.3935C23.3693 76.5841 22.7846 76.7621 22.1564 76.9273C21.4636 77.1095 20.718 77.276 19.9158 77.4267C19.5947 77.487 19.2645 77.5448 18.925 77.6L19.45 79.42C19.4684 79.4169 19.4867 79.4137 19.505 79.4106C19.5458 79.4036 19.5865 79.3965 19.627 79.3895C19.914 79.3395 20.1951 79.2881 20.4704 79.2353C22.331 78.8783 23.9297 78.4559 25.3012 77.9661C25.7589 77.8027 26.1913 77.6318 26.5997 77.4532C26.9868 77.6396 27.3572 77.8353 27.7115 78.0401C28.0443 78.2326 28.3629 78.4332 28.6677 78.6419C29.0814 78.9252 29.4698 79.2236 29.8341 79.537L28.095 79.7C28.1627 80.0279 28.2301 80.3567 28.2973 80.6854C28.4726 81.5438 28.6457 82.4028 28.8143 83.25C28.8811 83.5854 28.9471 83.919 29.0123 84.25H18.505L18.505 80.085H16.23V84.25H12.52V80.645H10.315V88.8581C9.98398 88.5749 9.65007 88.303 9.315 88.0423C7.87761 86.9236 6.41865 86.0082 5.07244 85.2676C4.75106 85.0908 4.43611 84.9239 4.12941 84.7667C4.3898 84.5324 4.66399 84.2975 4.94699 84.0645C6.21242 83.0226 7.65392 82.0191 8.82428 81.2876C8.99401 81.1815 9.15804 81.0811 9.315 80.9872C9.45604 80.9027 9.59137 80.8235 9.72 80.75L7.83 79.035C7.64792 79.1428 7.45559 79.2636 7.255 79.3956C7.09373 79.5018 6.92712 79.6152 6.75623 79.735C6.59277 79.8496 6.42539 79.97 6.255 80.0955C5.98152 80.2968 5.70028 80.5111 5.41508 80.735C4.47488 81.4732 3.49158 82.316 2.60066 83.145C2.46307 83.273 2.32769 83.4007 2.195 83.5277C2.0714 83.6459 1.95015 83.7635 1.83164 83.88C1.76521 83.9454 1.69964 84.0104 1.635 84.075L1.635 86.245C2.13968 86.4406 2.67051 86.6691 3.21724 86.93C5.44652 87.9938 7.94023 89.5956 10.0037 91.6937C10.2419 91.9359 10.4743 92.1847 10.7 92.44C10.8536 92.2096 11.0882 91.9319 11.3474 91.6633C11.4217 91.5863 11.498 91.5101 11.5751 91.4359C11.8112 91.2085 12.054 91.0004 12.2653 90.85C12.2924 90.8307 12.319 90.8123 12.345 90.795C12.1125 90.5466 11.8764 90.3051 11.6374 90.0701C11.5621 89.9961 11.4865 89.9227 11.4107 89.85H12.52V86.455H16.23V91.285H18.505V86.455H29.4415C29.4486 86.4916 29.4556 86.5282 29.4626 86.5646C29.5204 86.8657 29.5771 87.1627 29.6326 87.455C29.8538 88.6202 30.0557 89.7103 30.2302 90.6827C30.292 91.0272 30.3504 91.3569 30.405 91.67L32.75 91.075C32.6482 90.5822 32.5415 90.0647 32.4307 89.5271C31.9727 87.3065 31.4437 84.7411 30.8967 82.1406C30.7554 81.4688 30.6129 80.7946 30.4701 80.1235C30.9212 80.5696 31.3301 81.0431 31.6995 81.544C31.7441 81.6044 31.788 81.6652 31.8314 81.7264C31.9938 81.9553 32.1482 82.1899 32.295 82.43C32.4392 82.2056 32.6862 81.9005 32.9553 81.6021C33.2739 81.2488 33.6234 80.9047 33.87 80.715C32.8695 79.1966 31.5484 77.8801 29.836 76.7681C29.5367 76.5737 29.2253 76.3855 28.9017 76.2037C29.2117 75.9934 29.5007 75.7754 29.7699 75.5496C32.4563 73.2969 33.17 70.2722 33.17 66.4V59.75C32.8222 59.7114 32.3356 59.5874 31.8694 59.4192C31.4912 59.2828 31.1265 59.1174 30.86 58.945C30.867 59.1951 30.8725 59.5982 30.877 60.0911C30.895 62.0818 30.895 65.5376 30.895 66.295C30.895 67.178 30.8511 68.0179 30.74 68.8131C30.7242 68.9263 30.707 69.0386 30.6884 69.15C30.3365 71.2562 29.4735 73.0367 27.6446 74.459C27.3452 74.6919 27.0198 74.9151 26.6666 75.1287C26.2732 74.9671 25.8656 74.8124 25.4433 74.6645C24.9295 74.4845 24.3941 74.3147 23.8361 74.155C23.7975 74.144 23.7588 74.133 23.72 74.122C23.3943 74.0302 23.061 73.9417 22.72 73.8567C21.9772 73.6715 21.1977 73.5026 20.3799 73.35C19.8636 73.2537 19.3321 73.1639 18.785 73.0806C18.4573 73.0307 18.124 72.9832 17.785 72.938C17.4893 72.8985 17.1893 72.8609 16.8848 72.825C16.6345 72.7955 16.3813 72.7672 16.125 72.7402C15.6232 72.6871 15.11 72.6388 14.585 72.595L14.305 73.96L14.375 74.345L14.375 76.4917C14.0446 76.3832 13.7108 76.2744 13.375 76.1658C11.3217 75.5014 9.19011 74.8408 7.255 74.2665C6.91835 74.1665 6.58764 74.0693 6.26432 73.975C5.8583 73.8566 5.46394 73.7431 5.08409 73.6352C4.75091 73.5406 4.4289 73.4503 4.12 73.365L3.77 74.905L3.91 75.29L3.91 79.735H6.255ZM13.375 75.115V74.4352L13.2865 73.9486L13.375 73.5173V72.995H13.4821L13.517 72.825H13.06V69.15H12.365V74.47H11.3454C12.0225 74.6823 12.7021 74.8982 13.375 75.115ZM8.23 73.5139V69.15H7.64L7.64 72.86H6.00977C6.71453 73.0632 7.45993 73.2828 8.23 73.5139ZM6.64 68.15H9.23V73.47H11.365V68.15H14.06V71.825H16.125V68.15H18.785V72.35H20.99V68.15H23.72V73.155H25.925V68.15H29.74V65.945H25.925V59.61H23.72V65.945H20.99V60.59H18.785V65.945H16.125V61.045H11.47L11.47 59.155H9.125L9.125 61.045H4.61L4.61 65.945H1.705L1.705 68.15H4.61L4.61 71.86H6.64L6.64 68.15ZM11.365 63.04V65.945H14.06V63.04H11.365ZM13.06 64.04H12.365V64.945H13.06V64.04ZM9.23 63.04H6.64L6.64 65.945H9.23V63.04ZM8.23 64.04V64.945H7.64V64.04H8.23ZM26.925 69.15V73.7503C27.3236 73.4505 27.6669 73.1368 27.9628 72.8109C28.8866 71.7935 29.4104 70.589 29.6733 69.15H26.925ZM22.72 72.8273V69.15H21.99V72.658C22.2368 72.7128 22.4801 72.7692 22.72 72.8273ZM17.785 71.9293V69.15H17.125V71.8466C17.3471 71.8732 17.5671 71.9008 17.785 71.9293ZM19.505 87.455V88.2759L20.1488 88.0613C20.8238 87.8363 21.5592 87.6325 22.3083 87.455H19.505ZM7.255 78.2136C7.27702 78.2004 7.29891 78.1873 7.32068 78.1744L7.95561 77.7987L9.99037 79.645H13.52V83.25H15.23V80.0876C12.6872 79.2078 9.72383 78.2698 7.255 77.5197V78.2136ZM9.315 82.1601C8.27664 82.8112 7.02696 83.6774 5.89633 84.5819C6.99077 85.1993 8.15251 85.9297 9.315 86.7877V82.1601ZM18.1683 79.085H18.3126L18.2268 78.7876L18.1683 79.085ZM18.1501 76.7129L18.7645 76.613C19.135 76.5527 19.4929 76.4895 19.8388 76.4235C19.1118 76.2917 18.3478 76.1753 17.545 76.0746V76.5029C17.6249 76.5305 17.7043 76.558 17.7832 76.5854L18.1501 76.7129ZM19.505 83.0116V83.25H21.0999C20.6875 83.1792 20.2976 83.1183 19.9466 83.0711L19.505 83.0116ZM27.4381 83.25H27.7947C27.7409 82.9804 27.6867 82.7098 27.6322 82.4384L27.4381 83.25ZM27.3177 80.8862C27.2506 80.5579 27.1832 80.2296 27.1156 79.9021L26.89 78.8086L27.0176 78.7966C26.8699 78.7141 26.719 78.633 26.565 78.5535C25.4523 79.0085 24.1952 79.4078 22.7796 79.7561C24.3274 80.1032 25.8981 80.4633 27.0505 80.8066L27.3177 80.8862ZM26.38 83.375C26.2299 83.3344 26.0708 83.2926 25.9042 83.25C25.7461 83.2096 25.5813 83.1685 25.4111 83.1271C24.0912 82.8055 22.445 82.4602 21.0702 82.2308C20.7191 82.1722 20.3857 82.1212 20.08 82.08L20.465 80.2602C20.4651 80.2602 20.4648 80.2601 20.465 80.2602C20.7828 80.3331 21.1096 80.4068 21.4404 80.481C21.6457 80.5271 21.8527 80.5735 22.0604 80.6199C23.7654 81.0014 25.517 81.3933 26.765 81.765L26.38 83.375ZM27.535 89.535L27.08 87.715C25.295 87.82 22.565 88.31 20.465 89.01L20.85 90.69C21.1597 90.6023 21.4839 90.5168 21.8174 90.4346C23.3568 90.0553 25.0944 89.7462 26.5221 89.6066C26.8822 89.5714 27.2225 89.547 27.535 89.535ZM10.75 50.845L10.75 33.2661L10.5291 32.3271L12.6411 29.53H8.9L8.9 51.61H14.64V56.2H4.415L4.415 42.935H0.565002L0.565002 38.17H4.415L4.415 24.835H14.64L14.64 29.53H12.9472L13.5756 30.0982C15.6679 31.9899 17.8653 34.6194 19.535 37.2893V24.38H24.02V38.1H30.545C31.3859 38.1 32.1865 38.1969 32.8586 38.5828C33.5744 38.9939 33.9958 39.6426 34.2571 40.4242C34.5098 41.1628 34.6301 42.0371 34.6931 43.0544C34.7565 44.0788 34.765 45.3164 34.765 46.8V47.5982L33.9866 47.7751C33.3634 47.9168 32.3488 48.3828 31.6664 48.8053L30.0858 49.7837L30.1404 47.9256C30.2057 45.7054 30.2088 43.6099 30.1826 42.865H24.02L24.02 56.55H19.535L19.535 42.865H18.3025L18.151 43.0469L18.0531 42.865H16.91V40.8102C16.3984 39.9782 15.7987 39.1301 15.165 38.3229L15.165 50.845H10.75ZM14.165 35.6267C14.4977 35.979 14.8331 36.3534 15.165 36.7433C15.7715 37.4558 16.3661 38.2198 16.91 38.9946C16.9347 39.0297 16.9592 39.0648 16.9837 39.1C17.2737 39.5171 17.5485 39.9366 17.8022 40.3524C17.8385 40.412 17.8745 40.4716 17.91 40.5311V41.865H20.535L20.535 55.55H23.02L23.02 41.865H30.51C31 41.865 31.14 42.04 31.175 42.67C31.2042 43.1954 31.209 44.8646 31.1693 46.7847C31.1613 47.1672 31.1516 47.5596 31.14 47.955C31.4328 47.7737 31.7868 47.5814 32.1553 47.4044C32.7119 47.1373 33.3018 46.9053 33.765 46.8C33.765 43.825 33.73 41.97 33.31 40.745C32.89 39.485 32.12 39.1 30.545 39.1H23.02V25.38H20.535V39.1H19.4433C19.2589 38.7676 19.0642 38.4338 18.8605 38.1C17.8073 36.3743 16.5133 34.6498 15.165 33.1336C15.1387 33.104 15.1123 33.0745 15.0859 33.045C14.7808 32.7043 14.4731 32.3744 14.165 32.0578C14.1609 32.0535 14.1567 32.0493 14.1526 32.045C13.9809 31.8688 13.8092 31.6968 13.6376 31.5292C13.3926 31.2898 13.148 31.0597 12.905 30.84L11.61 32.555L11.75 33.15L11.75 49.845H14.165L14.165 35.6267ZM5.415 39.17H1.565L1.565 41.935H5.415L5.415 55.2H13.64V52.61H7.9L7.9 28.53H13.64L13.64 25.835H5.415L5.415 39.17ZM18.05 168.11C26.31 168.11 31.42 173.08 31.42 180.5C31.42 187.815 26.31 192.96 18.05 192.96C9.86 192.96 4.89 187.85 4.89 180.5C4.89 173.185 9.86 168.11 18.05 168.11ZM18.05 189.6C24.49 189.6 28.62 185.96 28.62 180.5C28.62 175.075 24.49 171.435 18.05 171.435C11.645 171.435 7.69 175.04 7.69 180.5C7.69 185.995 11.645 189.6 18.05 189.6ZM18.19 150.925L18.19 146.27C18.19 140.985 16.58 138.29 12.87 138.29C9.09 138.29 7.935 141.125 7.935 146.445V150.925H18.19Z" fill="#F6BC54"/>
</svg>
