<svg width="67" height="17" viewBox="0 0 67 17" fill="none" xmlns="http://www.w3.org/2000/svg">
<path fill-rule="evenodd" clip-rule="evenodd" d="M3.25015 8.71509H6.69429C7.44897 8.71509 8.05951 8.59196 8.52709 8.35169C8.99409 8.11142 9.3345 7.77741 9.54837 7.34961C9.76868 6.92767 9.87885 6.43542 9.87885 5.89041C9.87885 5.38643 9.76868 4.91759 9.54837 4.47807C9.3345 4.03855 8.99409 3.68111 8.52709 3.4174C8.05951 3.14197 7.44897 3.00714 6.69429 3.00714H3.25015V8.71509ZM3.83609 3.59317V8.12907H6.69429C7.39331 8.12907 7.90307 8.01772 8.25932 7.83019C8.62729 7.64266 8.87221 7.39652 9.02455 7.09179L9.02749 7.08593C9.19917 6.75189 9.29292 6.35923 9.29292 5.89041C9.29292 5.48019 9.20326 5.0993 9.02455 4.74183L9.02105 4.73596C8.86402 4.40778 8.61147 4.13821 8.23647 3.92724L8.23062 3.92138C7.88199 3.71627 7.38393 3.59317 6.69429 3.59317H3.83609ZM3.25015 10.2856H6.69429C7.79585 10.2856 8.72749 10.1157 9.48804 9.77576C10.2492 9.43001 10.8269 8.92605 11.2206 8.26384C11.6144 7.60163 11.8113 6.80459 11.8113 5.87281C11.8113 5.01136 11.6144 4.24371 11.2206 3.57564C10.8269 2.90171 10.2492 2.37425 9.48804 1.99333C8.72749 1.61241 7.79585 1.4249 6.69429 1.4249H1.31714V16.0052H3.25015V10.2856ZM3.83609 10.8716V16.5912H0.731201V0.838877H6.69429C7.86089 0.838877 8.88745 1.0381 9.75054 1.47176C10.6031 1.8937 11.2699 2.49735 11.7257 3.28263C12.1786 4.04446 12.3972 4.91759 12.3972 5.87281C12.3972 6.88664 12.1828 7.79503 11.724 8.56272C11.264 9.33627 10.5908 9.91643 9.7318 10.3091H9.72768C8.87105 10.6958 7.85327 10.8716 6.69429 10.8716H3.83609ZM23.5376 9.26592H16.1877V16.0052H14.2546V1.4249H16.1877V7.69534H23.5376V1.4249H25.4601V16.0052H23.5376V9.26592ZM22.9517 7.10932V0.838877H26.046V16.5912H22.9517V9.85195H16.7736V16.5912H13.6687V0.838877H16.7736V7.10932H22.9517ZM31.6605 16.263L31.6587 16.2572C30.8648 15.9056 30.1751 15.3841 29.5939 14.716H29.5915C29.0144 14.0421 28.5761 13.2333 28.2685 12.3016C27.958 11.3639 27.8079 10.3207 27.8079 9.17214V8.25211C27.8079 7.10936 27.9545 6.0662 28.2574 5.14028L28.258 5.13442C28.5656 4.20264 29.0039 3.39979 29.5804 2.72586C30.1558 2.04607 30.8431 1.52456 31.6388 1.16709H31.6406C32.4433 0.80961 33.3163 0.639648 34.2521 0.639648C35.2113 0.639648 36.0949 0.80961 36.8941 1.16709C37.6968 1.52456 38.3847 2.04607 38.9548 2.72586C39.532 3.39979 39.9632 4.2085 40.2574 5.14028C40.5597 6.07206 40.7056 7.10936 40.7056 8.25211V9.17214C40.7056 10.3207 40.5632 11.3581 40.2679 12.2957C39.9744 13.2275 39.546 14.0362 38.9747 14.7101C38.4046 15.384 37.7162 15.9056 36.914 16.2572C36.1154 16.6206 35.2312 16.7905 34.272 16.7905C33.3363 16.7905 32.4632 16.6146 31.6605 16.263ZM36.6749 15.7239C37.3962 15.4016 38.0138 14.9387 38.5277 14.3351C39.0415 13.7256 39.4359 12.9872 39.7095 12.1199C39.9831 11.2525 40.1197 10.268 40.1197 9.17214V8.25211C40.1197 7.15624 39.9796 6.17758 39.6995 5.32198C39.4253 4.44881 39.0286 3.71626 38.5077 3.10679C37.9939 2.49147 37.3763 2.02264 36.655 1.70618C35.9408 1.38387 35.1398 1.22567 34.2521 1.22567C33.3908 1.22567 32.5998 1.38387 31.8785 1.70618C31.1642 2.02264 30.5466 2.49147 30.0263 3.10679C29.5054 3.71626 29.1017 4.44881 28.8146 5.32198C28.5339 6.17758 28.3939 7.15624 28.3939 8.25211V9.17214C28.3939 10.268 28.5374 11.2525 28.8245 12.1199C29.1117 12.9872 29.5154 13.7256 30.0363 14.3351C30.5636 14.9387 31.1841 15.4016 31.899 15.7239C32.6197 16.0462 33.4107 16.2044 34.272 16.2044C35.1597 16.2044 35.9607 16.0462 36.6749 15.7239ZM37.371 6.08377L37.3699 6.07798C37.2117 5.46851 36.9832 4.9821 36.6972 4.60118C36.4113 4.22027 36.0679 3.93893 35.6636 3.74554H35.6607C35.2634 3.55215 34.7982 3.45253 34.2521 3.45253C33.7294 3.45253 33.2736 3.55215 32.8745 3.74554C32.4825 3.93307 32.1398 4.21441 31.8451 4.60118C31.5574 4.98796 31.3224 5.47431 31.1513 6.08964C30.982 6.69325 30.8923 7.40822 30.8923 8.23451V9.17214C30.8923 10.0102 30.982 10.731 31.1513 11.3405C31.3218 11.9499 31.5591 12.4422 31.8533 12.8348C32.155 13.2216 32.5019 13.5029 32.8945 13.6963C33.2941 13.8838 33.7493 13.9893 34.272 13.9893C34.8257 13.9893 35.2945 13.8838 35.6911 13.6963C36.0878 13.5029 36.4247 13.2216 36.7037 12.8465L36.7048 12.8407C36.9925 12.4539 37.221 11.9617 37.3792 11.3522C37.538 10.7369 37.6212 10.0102 37.6212 9.17214V8.23451C37.6212 7.40236 37.5351 6.68738 37.371 6.08377ZM37.947 11.4987C37.7736 12.1668 37.5163 12.7293 37.1759 13.1923C36.8419 13.6435 36.4318 13.9893 35.9443 14.2237C35.4568 14.4581 34.8995 14.5753 34.272 14.5753C33.6708 14.5753 33.1271 14.4581 32.6396 14.2237C32.1591 13.9893 31.7419 13.6435 31.388 13.1923C31.0411 12.7293 30.774 12.1668 30.587 11.4987C30.4001 10.8248 30.3064 10.0512 30.3064 9.17214V8.23451C30.3064 7.3672 30.4001 6.59954 30.587 5.93147C30.774 5.2634 31.0376 4.70075 31.3781 4.24951C31.725 3.79241 32.1392 3.45258 32.6197 3.21817C33.1072 2.98376 33.6509 2.8665 34.2521 2.8665C34.8726 2.8665 35.4269 2.98376 35.9144 3.21817C36.4084 3.45258 36.8255 3.79241 37.166 4.24951C37.5064 4.70075 37.7636 5.2634 37.937 5.93147C38.1169 6.59954 38.2072 7.3672 38.2072 8.23451V9.17214C38.2072 10.0512 38.1205 10.8248 37.947 11.4987ZM41.5417 1.4249V3.00714H46.2181V16.0052H48.1206V3.00714H52.807V1.4249H41.5417ZM48.7066 3.59317V16.5912H45.6322V3.59317H40.9558V0.838877H53.3929V3.59317H48.7066ZM57.4558 16.263L57.454 16.2572C56.6595 15.9056 55.9704 15.3841 55.3886 14.716H55.3863C54.8091 14.0421 54.3708 13.2333 54.0632 12.3016C53.7533 11.3639 53.6032 10.3207 53.6032 9.17214V8.25211C53.6032 7.10936 53.7491 6.0662 54.0521 5.14028L54.0532 5.13442C54.3609 4.20264 54.7985 3.39979 55.3751 2.72586C55.3757 2.72586 55.3757 2.72586 55.3763 2.72586L55.821 3.10679L55.374 2.72586C55.3746 2.72586 55.3745 2.72586 55.3751 2.72586C55.9505 2.04607 56.6378 1.52456 57.4341 1.16709H57.4359C58.238 0.80961 59.1111 0.639648 60.0468 0.639648C61.006 0.639648 61.8902 0.80961 62.6888 1.16709C62.6894 1.16709 62.6894 1.16709 62.69 1.16709L62.4503 1.70618L62.6882 1.16709H62.6888C63.4916 1.52456 64.18 2.04607 64.7501 2.72586C64.7489 2.72586 64.7484 2.72586 64.7478 2.72586L64.3025 3.10679L64.7519 2.73173C64.7513 2.73173 64.7507 2.72586 64.7501 2.72586C65.3267 3.39979 65.7585 4.2085 66.0521 5.14028H66.0515L65.4943 5.32198L66.0532 5.14028C66.0527 5.14028 66.0527 5.14028 66.0521 5.14028C66.3544 6.07206 66.5009 7.10936 66.5009 8.25211V9.17214C66.5009 10.3207 66.3579 11.3581 66.0632 12.2957C65.7691 13.2275 65.3408 14.0362 64.7701 14.7101C64.1999 15.384 63.5115 15.9056 62.7093 16.2572C62.7099 16.2572 62.7099 16.2572 62.7099 16.2572L62.4702 15.7239L62.7081 16.263C62.7087 16.2572 62.7087 16.2572 62.7093 16.2572C61.9101 16.6206 61.0259 16.7905 60.0667 16.7905C59.1316 16.7905 58.2585 16.6146 57.4558 16.263ZM57.6937 15.7239C56.9794 15.4016 56.3583 14.9387 55.831 14.3351C55.3107 13.7256 54.9064 12.9872 54.6193 12.1199C54.3327 11.2525 54.1892 10.268 54.1892 9.17214V8.25211C54.1892 7.15624 54.3292 6.17758 54.6093 5.32198L57.6937 15.7239ZM63.1663 6.08377L63.1646 6.07798C63.0064 5.46851 62.7779 4.9821 62.4919 4.60118C62.2066 4.22027 61.8632 3.93893 61.4583 3.74554H61.456C61.0587 3.55215 60.5929 3.45253 60.0468 3.45253C59.5247 3.45253 59.0689 3.55215 58.6699 3.74554C58.2779 3.93307 57.9351 4.21441 57.6404 4.60118C57.3527 4.98796 57.1171 5.47431 56.946 6.08964C56.7767 6.69325 56.6876 7.40822 56.6876 8.23451V9.17214C56.6876 10.0102 56.7767 10.731 56.946 11.3405L63.1663 6.08377ZM58.4144 3.21817C58.9019 2.98376 59.4462 2.8665 60.0468 2.8665C60.6679 2.8665 61.2216 2.98376 61.7091 3.21817C62.203 3.45258 62.6203 3.79241 62.9607 4.24951C63.3011 4.70075 63.5583 5.2634 63.7318 5.93147C63.9122 6.59954 64.0025 7.3672 64.0025 8.23451V9.17214C64.0025 10.0512 63.9152 10.8248 63.7417 11.4987C63.5683 12.1668 63.3111 12.7293 62.9706 13.1923C62.6372 13.6435 62.2265 13.9893 61.739 14.2237C61.2521 14.4581 60.6943 14.5753 60.0667 14.5753C59.4661 14.5753 58.9218 14.4581 58.4349 14.2237C57.9538 13.9893 57.5366 13.6435 57.1827 13.1923C56.8359 12.7293 56.5687 12.1668 56.3818 11.4987C56.1949 10.8248 56.1017 10.0512 56.1017 9.17214V8.23451C56.1017 7.3672 56.1949 6.59954 56.3818 5.93147C56.5687 5.2634 56.8324 4.70075 57.1728 4.24951C57.5203 3.79241 57.9339 3.45258 58.4144 3.21817ZM56.9466 11.3405C57.1171 11.9499 57.3544 12.4422 57.648 12.8348C57.9503 13.2216 58.2972 13.5029 58.6898 13.6963C59.0888 13.8838 59.5447 13.9893 60.0667 13.9893C60.621 13.9893 61.0892 13.8838 61.4859 13.6963C61.8825 13.5029 62.2195 13.2216 62.499 12.8465L62.4996 12.8407C62.7873 12.4539 63.0158 11.9617 63.1745 11.3522C63.3333 10.7369 63.4165 10.0102 63.4165 9.17214V8.23451C63.4165 7.40236 63.3298 6.68738 63.1663 6.08377" fill="white"/>
</svg>
