<svg width="36" height="204" viewBox="0 0 36 204" fill="none" xmlns="http://www.w3.org/2000/svg">
<path fill-rule="evenodd" clip-rule="evenodd" d="M32.0004 194.18H9.04043L9.04043 203.385H4.31043L4.31043 179.685H9.04043V188.89H32.0004V194.18ZM31.0004 189.89V193.18H8.04043V202.385H5.31043L5.31043 180.685H8.04043L8.04043 189.89H31.0004ZM28.5176 146.794C31.0548 149.177 32.4204 152.552 32.4204 156.5C32.4204 160.398 31.0535 163.786 28.5227 166.197C25.995 168.605 22.3898 169.96 18.0504 169.96C13.745 169.96 10.1887 168.613 7.70325 166.204C5.21604 163.794 3.89043 160.406 3.89043 156.5C3.89043 152.61 5.21713 149.239 7.7054 146.842C10.1913 144.447 13.747 143.11 18.0504 143.11C22.3805 143.11 25.986 144.416 28.5176 146.794ZM25.0955 162.342C26.6986 160.952 27.6204 158.961 27.6204 156.5C27.6204 154.059 26.7 152.076 25.0965 150.69C23.4796 149.292 21.0872 148.435 18.0504 148.435C15.0307 148.435 12.6966 149.283 11.1313 150.669C9.57842 152.043 8.69043 154.026 8.69043 156.5C8.69043 158.994 9.57974 160.985 11.1324 162.363C12.6972 163.752 15.0307 164.6 18.0504 164.6C21.0872 164.6 23.4789 163.743 25.0955 162.342ZM32.0004 131.18H4.31043L4.31043 121.955C4.31043 118.551 4.80248 115.599 6.14475 113.472C7.54162 111.259 9.77404 110.07 12.8704 110.07C15.867 110.07 18.1697 111.268 19.6831 113.427C21.1595 115.534 21.8154 118.453 21.8154 121.815L21.8154 125.925H32.0004V131.18ZM31.0004 126.925V130.18H5.31043L5.31043 121.955C5.31043 115.27 7.27043 111.07 12.8704 111.07C18.2604 111.07 20.8154 115.305 20.8154 121.815L20.8154 126.925H31.0004ZM8.93543 125.925H17.1904L17.1904 122.27C17.1904 119.693 16.791 117.933 16.0829 116.843C15.4292 115.836 14.4418 115.29 12.8704 115.29C12.0494 115.29 11.4426 115.444 10.9834 115.694C10.5312 115.941 10.1611 116.314 9.86011 116.857C9.23036 117.994 8.93543 119.81 8.93543 122.445V125.925ZM18.0841 90.7051C17.3298 90.0718 16.6013 89.4984 15.9854 89.055L16.6854 87.515C16.928 87.7193 17.1768 87.9318 17.4294 88.1509C17.445 88.1644 17.4607 88.178 17.4764 88.1916C17.8475 88.514 18.2266 88.85 18.606 89.1938C18.8316 89.3984 19.0573 89.6057 19.2816 89.8145C19.3975 89.9224 19.5129 90.0307 19.6277 90.1392C19.711 90.218 19.794 90.2969 19.8766 90.3758C20.0644 90.5554 20.2502 90.7353 20.4329 90.9149C20.4417 90.9235 20.4504 90.9321 20.4592 90.9408C20.6582 91.1367 20.8536 91.332 21.0439 91.5259C21.2062 91.6913 21.3649 91.8557 21.5192 92.0183C21.5122 91.8853 21.505 91.7514 21.4978 91.6165C21.4781 91.2511 21.4575 90.8789 21.436 90.5011C21.431 90.4136 21.426 90.3257 21.4209 90.2375C21.3996 89.8669 21.3773 89.4913 21.3541 89.1118C21.1671 89.2197 20.9812 89.332 20.7987 89.4475C20.7092 89.5042 20.6205 89.5617 20.5329 89.6198C20.4845 89.6518 20.4364 89.6841 20.3887 89.7166C20.2349 89.8212 20.085 89.9276 19.9404 90.035L19.4504 88.565C19.7117 88.3652 19.9915 88.1671 20.2802 87.9767C20.3463 87.9331 20.4128 87.8899 20.4797 87.8471C20.5744 87.7867 20.6697 87.7272 20.7654 87.6689C20.9332 87.5666 21.1021 87.4678 21.2704 87.3736C21.4175 87.2913 21.5641 87.2125 21.7091 87.1379C21.739 87.1226 21.7688 87.1074 21.7985 87.0924C22.0164 86.9825 22.23 86.8825 22.4352 86.795C22.4785 86.7765 22.5215 86.7586 22.564 86.7413C22.6173 86.7196 22.6699 86.6988 22.7218 86.679C22.7301 86.6758 22.7384 86.6727 22.7466 86.6695C22.9298 86.6003 23.1038 86.5431 23.2654 86.5L23.8604 88.005C23.8508 88.0075 23.8412 88.01 23.8315 88.0126C23.5541 88.0861 23.2435 88.1953 22.9145 88.3322C22.8965 88.3397 22.8785 88.3472 22.8604 88.3548C22.859 88.3555 22.8575 88.3561 22.856 88.3567C22.8575 88.3752 22.859 88.3937 22.8604 88.4121C22.8872 88.7483 22.9131 89.0824 22.9382 89.4138C22.9451 89.5044 22.9519 89.5948 22.9586 89.685C22.9838 90.0214 23.0081 90.3549 23.0316 90.685C23.0711 91.2396 23.1084 91.7844 23.1437 92.317C23.1531 92.4584 23.1623 92.599 23.1714 92.7386C23.1895 93.0162 23.2071 93.2902 23.2242 93.5602C23.2357 93.7429 23.2471 93.9236 23.2582 94.1025C23.2982 94.7454 23.3354 95.363 23.3704 95.95L21.7254 96.195L21.7093 95.8554C21.7047 95.7597 21.7001 95.6627 21.6954 95.5643C21.6896 95.4419 21.6837 95.3175 21.6776 95.1911C21.6694 95.0181 21.6609 94.8414 21.6522 94.6614C21.6447 94.5064 21.6371 94.3488 21.6293 94.1889C21.6261 94.1246 21.623 94.06 21.6198 93.9949C21.5005 93.8685 21.3766 93.7399 21.2488 93.6097C21.0987 93.4567 20.9433 93.3015 20.7835 93.145C20.7116 93.0745 20.6389 93.0038 20.5654 92.9329C20.429 92.8013 20.2899 92.669 20.1488 92.5365C20.1164 92.5062 20.084 92.4758 20.0514 92.4454C19.9431 92.5292 19.8324 92.6188 19.7199 92.7135C19.5771 92.8338 19.4314 92.9622 19.2841 93.0973C18.9367 93.4161 18.5806 93.7721 18.2339 94.1453C18.1288 94.2585 18.0245 94.3732 17.9216 94.4889C17.7856 94.6419 17.6519 94.7967 17.5217 94.952C17.3895 95.1097 17.2609 95.268 17.1372 95.4254C17.0543 95.5307 16.9736 95.6358 16.8954 95.74L15.8454 94.69C15.8922 94.6231 15.9401 94.556 15.9889 94.4886C16.1468 94.2704 16.3146 94.05 16.4892 93.8308C16.5252 93.7857 16.5615 93.7405 16.598 93.6955C16.5117 93.6283 16.4232 93.5602 16.3332 93.4917C16.1601 93.3598 15.981 93.2262 15.7992 93.0931C15.4971 92.8719 15.1876 92.6522 14.8854 92.4446C14.5346 92.2036 14.1935 91.9789 13.8854 91.787V98.435H33.8354V100.955H3.10543L3.10543 88.11H13.8854V90.735L14.2354 89.895C14.4509 90.0566 14.6683 90.2233 14.8854 90.393C14.9422 90.4374 14.9989 90.4819 15.0556 90.5267C15.6564 91.0012 16.2492 91.4946 16.7817 91.9623C17.0458 92.1942 17.2951 92.4198 17.5231 92.6336C17.7174 92.4259 17.9127 92.2265 18.1056 92.039C18.1461 91.9996 18.1865 91.9608 18.2268 91.9225C18.4411 91.7189 18.6517 91.5312 18.8538 91.3646C18.5965 91.1397 18.3388 90.919 18.0841 90.7051ZM14.8854 89.0584V87.11H2.10543L2.10543 101.955H34.8354V97.435H14.8854V95.1442L17.0036 97.2624L17.6954 96.34C18.3728 95.4369 19.2325 94.4954 20.0107 93.7879C20.2292 94.0008 20.4397 94.2112 20.6392 94.4167C20.6647 94.941 20.6883 95.4388 20.7105 95.9048L20.7792 97.347L24.4232 96.8042L24.3687 95.8904C24.3668 95.8587 24.3649 95.8269 24.363 95.795H30.3204V92.5C30.5927 92.97 30.8556 93.5738 31.0943 94.3529L31.6617 96.2054L32.8431 94.6697C32.9545 94.5248 33.1635 94.3161 33.4201 94.103C33.6754 93.8908 33.9164 93.7253 34.0645 93.6455L34.8177 93.2399L34.5337 92.433C33.7149 90.1067 32.6123 88.6352 31.2382 87.7744C29.8764 86.9213 28.3897 86.76 27.0104 86.76H24.4435L24.39 86.6246L24.3797 86.485H34.1704V82.525H30.3204V79.9955L31.5526 79.3794C32.1416 79.085 33.262 78.7615 33.8788 78.6689L34.7304 78.5412V77.68C34.7304 76.5999 34.7222 75.6398 34.6524 74.8252C34.5833 74.0188 34.4478 73.2626 34.1414 72.6262C33.8169 71.9521 33.3294 71.4632 32.6478 71.173C32.0176 70.9048 31.2857 70.835 30.5104 70.835H2.10543L2.10543 85.995H14.6369L14.5237 86.1512L15.6458 87.3855L14.8854 89.0584ZM16.8604 87.235C16.9641 87.0933 17.073 86.9499 17.186 86.8058C17.2136 86.7704 17.2416 86.7351 17.2698 86.6997C17.34 86.6116 17.4117 86.5233 17.4846 86.435C17.6335 86.255 17.7875 86.0754 17.945 85.8982C18.1878 85.6249 18.4386 85.3574 18.6908 85.1028C18.8944 84.8974 19.0989 84.7005 19.3008 84.516C19.4658 84.3653 19.629 84.2228 19.7886 84.0908C19.883 84.0127 19.9761 83.9382 20.0675 83.8678C20.0966 83.8967 20.1257 83.9256 20.1546 83.9545C20.3073 84.1067 20.4576 84.2586 20.6047 84.4097C20.662 84.4686 20.7189 84.5273 20.7752 84.5859C20.9564 84.7743 21.1321 84.9608 21.3006 85.1439C21.4264 85.2806 21.5483 85.4155 21.6656 85.5479C21.6692 85.6193 21.6728 85.6902 21.6763 85.7605C21.6764 85.7618 21.6764 85.7631 21.6765 85.7644C21.681 85.855 21.6855 85.9447 21.6898 86.0334C21.6926 86.0894 21.6953 86.145 21.698 86.2002C21.7076 86.3985 21.7167 86.5919 21.7254 86.78L23.3704 86.395C23.352 86.145 23.3337 85.8888 23.3152 85.6271C23.3119 85.5799 23.3085 85.5325 23.3052 85.485C23.3045 85.475 23.3038 85.465 23.3031 85.455C23.2957 85.3499 23.2884 85.2439 23.281 85.1371C23.2626 84.8716 23.244 84.6011 23.2253 84.3262C23.2152 84.1789 23.2051 84.0303 23.195 83.8805C23.1909 83.8198 23.1867 83.759 23.1826 83.6979C23.1787 83.6404 23.1748 83.5828 23.1708 83.525C23.1485 83.1965 23.1258 82.8628 23.1026 82.525C23.0417 81.6379 22.9773 80.7222 22.9071 79.7959C22.8803 79.4412 22.8526 79.0849 22.8239 78.7281C22.9043 78.6913 22.9839 78.6559 23.0624 78.6219C23.1722 78.5745 23.28 78.5299 23.3854 78.4885C23.527 78.4329 23.6641 78.3829 23.7957 78.3392C23.826 78.3292 23.8561 78.3194 23.8858 78.31C23.9245 78.2978 23.9628 78.2861 24.0004 78.275L23.4054 76.735C23.0933 76.8268 22.7451 76.9643 22.3791 77.135C22.0097 77.3072 21.6222 77.5131 21.2354 77.7398C20.9969 77.8796 20.7586 78.0273 20.5249 78.1799C20.4318 78.2407 20.3393 78.3023 20.2479 78.3645C19.9043 78.5983 19.5752 78.8402 19.2754 79.08L19.7654 80.585C19.8454 80.5223 19.9271 80.4599 20.0103 80.3979C20.1238 80.3133 20.24 80.2295 20.3584 80.1467C20.4435 80.0872 20.5297 80.0282 20.6168 79.9699C20.847 79.8158 21.0835 79.6662 21.3221 79.5234C21.3457 79.9066 21.3687 80.2849 21.3912 80.6575C21.4166 81.0792 21.4412 81.4935 21.4649 81.8994C21.4866 82.2709 21.5076 82.6353 21.5278 82.9916C21.5372 83.1589 21.5465 83.3243 21.5557 83.4879C21.4079 83.32 21.256 83.1504 21.1007 82.9798C20.9014 82.7609 20.6966 82.5404 20.4876 82.3195C20.315 82.1369 20.1395 81.9541 19.9621 81.7717C19.9492 81.7584 19.9362 81.7451 19.9233 81.7318C19.741 81.5448 19.5568 81.3584 19.3716 81.1732C19.2555 81.0572 19.139 80.9417 19.0224 80.8269C18.9101 80.7165 18.7977 80.6067 18.6853 80.4977C18.3193 80.1428 17.9538 79.7968 17.596 79.4657C17.3341 79.2234 17.0763 78.989 16.8254 78.765L16.0554 80.34C16.673 80.8001 17.391 81.3943 18.1299 82.05C18.378 82.2703 18.6285 82.4974 18.8783 82.7288C18.6837 82.8863 18.4817 83.064 18.2763 83.2568C18.2272 83.3028 18.1779 83.3497 18.1285 83.3974C17.943 83.5764 17.7554 83.7665 17.5688 83.9639C17.3382 83.7457 17.09 83.52 16.8291 83.2907C16.2583 82.7889 15.6268 82.2694 14.9878 81.7713C14.9537 81.7447 14.9196 81.7182 14.8854 81.6917C14.6452 81.5055 14.4042 81.3226 14.1654 81.145L13.8854 81.817V74.39H30.5104C30.9654 74.39 31.1404 74.53 31.1404 74.985C31.1668 75.3544 31.1733 76.2806 31.1449 77.3739C31.1357 77.731 31.1227 78.1059 31.1054 78.485C31.3836 78.3459 31.7448 78.2068 32.1229 78.0831C32.6962 77.8955 33.3086 77.7433 33.7304 77.68C33.7304 75.51 33.6954 74.005 33.2404 73.06C32.7854 72.115 31.9804 71.835 30.5104 71.835H3.10543L3.10543 84.995H13.8854L13.8854 83.089C14.1943 83.2875 14.5349 83.5148 14.8854 83.7569C15.1967 83.9719 15.5159 84.1987 15.8275 84.4273C16.0756 84.6094 16.319 84.7926 16.5499 84.9721C16.5753 84.9919 16.6006 85.0116 16.6257 85.0312C16.5734 85.0943 16.5216 85.1575 16.4705 85.2207C16.3089 85.4202 16.1532 85.6196 16.0056 85.8158C15.9388 85.9046 15.8737 85.9928 15.8104 86.08L16.8604 87.235ZM15.2078 85.2129C15.101 85.1348 14.9934 85.0568 14.8854 84.9795V85.6522L15.0008 85.493C15.0676 85.4009 15.1367 85.3074 15.2078 85.2129ZM5.03043 74.39L5.03043 82.51H7.65543L7.65543 74.39H5.03043ZM9.44043 82.51H11.9604V74.39H9.44043V82.51ZM10.4404 81.51H10.9604V75.39H10.4404V81.51ZM6.65543 75.39H6.03043L6.03043 81.51H6.65543L6.65543 75.39ZM14.8854 75.39V80.4345C14.888 80.4365 14.8906 80.4384 14.8932 80.4404L16.5068 77.1399L17.4914 78.0191C17.7218 78.2247 17.9582 78.4393 18.1985 78.6609L18.6507 78.2991C19.1044 77.9362 19.6279 77.5634 20.1754 77.2156L20.1703 77.135H20.3034C21.2616 76.5372 22.2818 76.0231 23.1233 75.7756L24.0064 75.5159L24.6996 77.31H30.1462C30.1664 76.5124 30.1673 75.8202 30.1568 75.39H14.8854ZM24.3854 78.31V80.13H27.6754V83.525H23.8604V85.485H33.1704V83.525H29.3204V78.31H24.3854ZM24.105 82.525H26.6754V81.13H24.0076C24.0412 81.6012 24.0736 82.0671 24.105 82.525ZM20.6846 85.952C20.6945 86.1528 20.7041 86.3488 20.7131 86.5398C20.5673 86.6223 20.422 86.7076 20.2779 86.795H20.2023L20.2052 86.8393C19.7236 87.1348 19.2581 87.4532 18.843 87.7707L18.6666 87.9055C18.4527 87.716 18.2404 87.5301 18.031 87.349C18.6345 86.5881 19.3461 85.8261 20.0047 85.2274C20.2422 85.4734 20.4701 85.7161 20.6846 85.952ZM23.8604 88.005V87.76H27.0104C27.2338 87.76 27.4556 87.7646 27.6754 87.7756C28.2387 87.8039 28.7894 87.8747 29.3204 88.0202C29.6625 88.114 29.9964 88.2388 30.3204 88.4032C31.6051 89.055 32.7333 90.3299 33.5904 92.765C33.3806 92.878 33.1113 93.0653 32.8477 93.2791C32.5395 93.5289 32.2391 93.8148 32.0504 94.06C31.9311 93.6704 31.804 93.3149 31.67 92.9907C31.2737 92.032 30.8169 91.3461 30.3204 90.8574C30.0016 90.5436 29.6664 90.311 29.3204 90.1398L29.3204 94.795H24.3854V93.01H27.6754L27.6754 89.7118C27.4425 89.6922 27.2087 89.685 26.9754 89.685H23.8604V88.005ZM24.0341 90.685C24.066 91.1337 24.0964 91.5758 24.1254 92.01H26.6754L26.6754 90.685H24.0341ZM14.8854 94.3176L15.0262 94.1165C15.0795 94.0403 15.1342 93.9636 15.1902 93.8866C15.0892 93.8127 14.9874 93.7391 14.8854 93.6661V94.3176ZM5.03043 90.595L5.03043 98.435H7.65543L7.65543 90.595H5.03043ZM11.9604 98.435V90.595H9.44043V98.435H11.9604ZM10.4404 97.435H10.9604V91.595H10.4404V97.435ZM6.65543 91.595H6.03043L6.03043 97.435H6.65543L6.65543 91.595ZM2.91043 56.735L2.91043 51.4662L2.7301 50.9703L2.91043 50.1768V49.975H2.95629L3.37735 48.1223L3.61043 48.1867L3.61043 45.15H0.70543L0.70543 40.945H3.61043L3.61043 36.045H8.12543V34.155H12.4704L12.4704 36.045H17.1254V40.945H17.7854V35.59H21.9904V40.945H22.7204V34.61H26.9254V40.945H29.8949C29.8933 39.0444 29.8868 35.9079 29.8608 34.9728L29.808 33.073L31.4037 34.1054C31.6046 34.2355 31.9391 34.3878 32.3244 34.5189C32.7077 34.6493 33.062 34.7318 33.2809 34.7561L34.1704 34.855V42.4C34.1704 45.9201 33.6003 48.9981 31.3489 51.4273C31.1312 51.6621 30.8994 51.8891 30.6529 52.1086C32.3375 53.2486 33.6731 54.598 34.7055 56.1648L35.2169 56.9409L34.4801 57.5076C34.3203 57.6306 34.0507 57.8876 33.7668 58.1966C33.483 58.5055 33.248 58.7975 33.1366 58.9708L32.349 60.196C32.7262 62.0067 33.0865 63.7538 33.4108 65.3268C33.5216 65.8639 33.6281 66.3807 33.7298 66.8728L33.9231 67.8091L29.6057 68.9046L29.4203 67.8418C29.2043 66.6035 28.9285 65.1017 28.6151 63.455H28.0462L28.8042 66.487L27.5739 66.5343C25.8521 66.6005 23.1674 67.0729 21.123 67.6521L20.1107 67.939L19.5054 65.2977V68.285H15.2304L15.2304 63.455H13.5204V66.5869L13.8816 66.9727L12.9001 67.6271C12.485 67.9038 11.8092 68.5796 11.5325 68.9947L10.8116 70.076L9.9511 69.1022C7.42151 66.2398 3.96391 64.2198 1.27411 63.1775L0.635547 62.93L0.635429 59.6608L0.928322 59.3679C1.7818 58.5144 2.79962 57.5905 3.82631 56.735H2.91043ZM6.25543 55.735L6.25543 52.1743C6.57635 52.2701 6.91055 52.3704 7.25543 52.4748C9.11977 53.039 11.2962 53.7193 13.3754 54.406C13.6254 54.4885 13.8739 54.5712 14.1203 54.6537C14.5515 54.7981 14.9763 54.9422 15.3907 55.085C15.5466 55.1387 15.701 55.1922 15.8538 55.2455C15.9306 55.2723 16.007 55.299 16.083 55.3257C16.1323 55.343 16.1815 55.3603 16.2304 55.3775C16.5053 55.4745 16.7741 55.5704 17.0354 55.665L17.4554 53.53C17.1589 53.427 16.8552 53.3225 16.5454 53.217L16.5454 50.9541C16.8846 50.9892 17.2179 51.0268 17.5454 51.0671C19.2286 51.274 20.7589 51.5495 22.1482 51.8942C22.7641 52.0471 23.3524 52.2135 23.9139 52.3935C23.3697 52.5841 22.785 52.7621 22.1569 52.9273C21.464 53.1095 20.7184 53.276 19.9162 53.4267C19.5951 53.487 19.2649 53.5448 18.9254 53.6L19.4504 55.42C19.4688 55.4169 19.4871 55.4137 19.5054 55.4106C19.5462 55.4036 19.5869 55.3965 19.6275 55.3895C19.9144 55.3395 20.1955 55.2881 20.4708 55.2353C22.3314 54.8783 23.9301 54.4559 25.3016 53.9661C25.7593 53.8027 26.1917 53.6318 26.6001 53.4532C26.9872 53.6396 27.3576 53.8353 27.7119 54.0401C28.0447 54.2326 28.3633 54.4332 28.6682 54.6419C29.0818 54.9252 29.4702 55.2236 29.8345 55.537L28.0954 55.7C28.1631 56.0279 28.2306 56.3567 28.2977 56.6854C28.473 57.5438 28.6462 58.4028 28.8148 59.25C28.8815 59.5854 28.9476 59.919 29.0128 60.25H18.5054L18.5054 56.085H16.2304V60.25H12.5204V56.645H10.3154V64.8581C9.9844 64.5749 9.6505 64.303 9.31543 64.0423C7.87804 62.9236 6.41908 62.0082 5.07286 61.2676C4.75149 61.0908 4.43654 60.9239 4.12984 60.7667C4.39023 60.5324 4.66442 60.2975 4.94742 60.0645C6.21285 59.0226 7.65435 58.0191 8.82471 57.2876C8.99444 57.1815 9.15847 57.0811 9.31543 56.9872C9.45646 56.9027 9.59179 56.8235 9.72043 56.75L7.83043 55.035C7.64835 55.1428 7.45601 55.2636 7.25543 55.3956C7.09415 55.5018 6.92755 55.6152 6.75665 55.735C6.59319 55.8496 6.42582 55.97 6.25543 56.0955C5.98194 56.2968 5.70071 56.5111 5.41551 56.735C4.47531 57.4732 3.49201 58.316 2.60109 59.145C2.4635 59.273 2.32811 59.4007 2.19543 59.5277C2.07183 59.6459 1.95058 59.7635 1.83207 59.88C1.76564 59.9454 1.70006 60.0104 1.63543 60.075L1.63543 62.245C2.14011 62.4406 2.67093 62.6691 3.21767 62.93C5.44695 63.9938 7.94065 65.5956 10.0041 67.6937C10.2423 67.9359 10.4748 68.1847 10.7004 68.44C10.854 68.2096 11.0886 67.9319 11.3478 67.6633C11.4221 67.5863 11.4984 67.5101 11.5755 67.4359C11.8117 67.2085 12.0545 67.0004 12.2657 66.85C12.2928 66.8307 12.3194 66.8123 12.3454 66.795C12.1129 66.5466 11.8768 66.3051 11.6378 66.0701C11.5625 65.9961 11.487 65.9227 11.4111 65.85H12.5204V62.455H16.2304V67.285H18.5054V62.455H29.442C29.449 62.4916 29.456 62.5282 29.463 62.5646C29.5208 62.8657 29.5775 63.1627 29.633 63.455C29.8543 64.6202 30.0561 65.7103 30.2306 66.6827C30.2924 67.0272 30.3508 67.3569 30.4054 67.67L32.7504 67.075C32.6487 66.5822 32.542 66.0647 32.4311 65.5271C31.9732 63.3065 31.4442 60.7411 30.8971 58.1406C30.7558 57.4688 30.6133 56.7946 30.4705 56.1235C30.9216 56.5696 31.3305 57.0431 31.6999 57.544C31.7445 57.6044 31.7885 57.6652 31.8319 57.7264C31.9942 57.9553 32.1487 58.1899 32.2954 58.43C32.4397 58.2056 32.6867 57.9005 32.9557 57.6021C33.2743 57.2488 33.6238 56.9047 33.8704 56.715C32.8699 55.1966 31.5488 53.8801 29.8365 52.7681C29.5371 52.5737 29.2258 52.3855 28.9021 52.2037C29.2122 51.9934 29.5012 51.7754 29.7704 51.5496C32.4567 49.2969 33.1704 46.2722 33.1704 42.4V35.75C32.8226 35.7114 32.336 35.5874 31.8698 35.4192C31.4917 35.2828 31.1269 35.1174 30.8604 34.945C30.8674 35.1951 30.8729 35.5982 30.8774 36.0911C30.8954 38.0818 30.8954 41.5376 30.8954 42.295C30.8954 43.178 30.8515 44.0179 30.7404 44.8131C30.7246 44.9263 30.7074 45.0386 30.6888 45.15C30.3369 47.2562 29.474 49.0367 27.6451 50.459C27.3456 50.6919 27.0203 50.9151 26.667 51.1287C26.2736 50.9671 25.866 50.8124 25.4437 50.6645C24.93 50.4845 24.3945 50.3147 23.8365 50.155C23.7979 50.144 23.7592 50.133 23.7204 50.122C23.3947 50.0302 23.0615 49.9417 22.7204 49.8567C21.9776 49.6715 21.1981 49.5026 20.3803 49.35C19.864 49.2537 19.3326 49.1639 18.7854 49.0806C18.4577 49.0307 18.1244 48.9832 17.7854 48.938C17.4897 48.8985 17.1897 48.8609 16.8853 48.825C16.635 48.7955 16.3817 48.7672 16.1254 48.7402C15.6237 48.6871 15.1104 48.6388 14.5854 48.595L14.3054 49.96L14.3754 50.345L14.3754 52.4917C14.045 52.3832 13.7113 52.2744 13.3754 52.1658C11.3221 51.5014 9.19054 50.8408 7.25543 50.2665C6.91877 50.1665 6.58807 50.0693 6.26475 49.975C5.85873 49.8566 5.46436 49.7431 5.08452 49.6352C4.75134 49.5406 4.42933 49.4503 4.12043 49.365L3.77043 50.905L3.91043 51.29L3.91043 55.735H6.25543ZM13.3754 51.115V50.4352L13.287 49.9486L13.3754 49.5173V48.995H13.4826L13.5174 48.825H13.0604V45.15H12.3654V50.47H11.3458C12.0229 50.6823 12.7026 50.8982 13.3754 51.115ZM8.23043 49.5139V45.15H7.64043L7.64043 48.86H6.0102C6.71495 49.0632 7.46036 49.2828 8.23043 49.5139ZM6.64043 44.15H9.23043V49.47H11.3654V44.15H14.0604V47.825H16.1254V44.15H18.7854V48.35H20.9904V44.15H23.7204V49.155H25.9254V44.15H29.7404V41.945H25.9254V35.61H23.7204V41.945H20.9904V36.59H18.7854V41.945H16.1254V37.045H11.4704L11.4704 35.155H9.12543L9.12543 37.045H4.61043L4.61043 41.945H1.70543L1.70543 44.15H4.61043L4.61043 47.86H6.64043L6.64043 44.15ZM11.3654 39.04V41.945H14.0604V39.04H11.3654ZM13.0604 40.04H12.3654V40.945H13.0604V40.04ZM9.23043 39.04H6.64043L6.64043 41.945H9.23043V39.04ZM8.23043 40.04V40.945H7.64043V40.04H8.23043ZM26.9254 45.15V49.7503C27.324 49.4505 27.6673 49.1368 27.9632 48.8109C28.8871 47.7935 29.4108 46.589 29.6737 45.15H26.9254ZM22.7204 48.8273V45.15H21.9904V48.658C22.2372 48.7128 22.4805 48.7692 22.7204 48.8273ZM17.7854 47.9293V45.15H17.1254V47.8466C17.3476 47.8732 17.5676 47.9008 17.7854 47.9293ZM19.5054 63.455V64.2759L20.1492 64.0613C20.8243 63.8363 21.5596 63.6325 22.3087 63.455H19.5054ZM7.25543 54.2136C7.27745 54.2004 7.29934 54.1873 7.32111 54.1744L7.95604 53.7987L9.99079 55.645H13.5204V59.25H15.2304V56.0876C12.6877 55.2078 9.72426 54.2698 7.25543 53.5197V54.2136ZM9.31543 58.1601C8.27707 58.8112 7.02738 59.6774 5.89675 60.5819C6.9912 61.1993 8.15294 61.9297 9.31543 62.7877V58.1601ZM18.1687 55.085H18.313L18.2272 54.7876L18.1687 55.085ZM18.1505 52.7129L18.7649 52.613C19.1354 52.5527 19.4934 52.4895 19.8392 52.4235C19.1122 52.2917 18.3482 52.1753 17.5454 52.0746V52.5029C17.6253 52.5305 17.7047 52.558 17.7836 52.5854L18.1505 52.7129ZM19.5054 59.0116V59.25H21.1003C20.688 59.1792 20.2981 59.1183 19.947 59.0711L19.5054 59.0116ZM27.4385 59.25H27.7951C27.7414 58.9804 27.6872 58.7098 27.6326 58.4384L27.4385 59.25ZM27.3181 56.8862C27.251 56.5579 27.1836 56.2296 27.1161 55.9021L26.8904 54.8086L27.0181 54.7966C26.8703 54.7141 26.7195 54.633 26.5654 54.5535C25.4527 55.0085 24.1956 55.4078 22.78 55.7561C24.3278 56.1032 25.8985 56.4633 27.0509 56.8066L27.3181 56.8862ZM26.3804 59.375C26.2303 59.3344 26.0712 59.2926 25.9046 59.25C25.7466 59.2096 25.5818 59.1685 25.4115 59.1271C24.0917 58.8055 22.4455 58.4602 21.0707 58.2308C20.7196 58.1722 20.3862 58.1212 20.0804 58.08L20.4654 56.2602C20.4655 56.2602 20.4653 56.2601 20.4654 56.2602C20.7832 56.3331 21.1101 56.4068 21.4408 56.481C21.6461 56.5271 21.8531 56.5735 22.0608 56.6199C23.7659 57.0014 25.5174 57.3933 26.7654 57.765L26.3804 59.375ZM27.5354 65.535L27.0804 63.715C25.2954 63.82 22.5654 64.31 20.4654 65.01L20.8504 66.69C21.1602 66.6023 21.4843 66.5168 21.8178 66.4346C23.3572 66.0553 25.0948 65.7462 26.5226 65.6066C26.8826 65.5714 27.2229 65.547 27.5354 65.535ZM10.7504 26.845L10.7504 9.26608L10.5295 8.32707L12.6415 5.53001H8.90043L8.90043 27.61H14.6404V32.2H4.41543L4.41543 18.935H0.56543L0.56543 14.17H4.41543L4.41543 0.835007H14.6404L14.6404 5.53001H12.9476L13.5761 6.09824C15.6684 7.98988 17.8657 10.6194 19.5354 13.2893V0.38002H24.0204V14.1H30.5454C31.3863 14.1 32.1869 14.1969 32.859 14.5828C33.5749 14.9939 33.9963 15.6426 34.2576 16.4242C34.5103 17.1628 34.6305 18.0371 34.6935 19.0544C34.757 20.0788 34.7654 21.3164 34.7654 22.8V23.5982L33.9871 23.7751C33.3638 23.9168 32.3492 24.3828 31.6668 24.8053L30.0862 25.7837L30.1409 23.9256C30.2062 21.7054 30.2092 19.6099 30.1831 18.865H24.0204L24.0204 32.55H19.5354L19.5354 18.865H18.303L18.1514 19.0469L18.0535 18.865H16.9104V16.8102C16.3989 15.9782 15.7991 15.1301 15.1654 14.3229L15.1654 26.845H10.7504ZM14.1654 11.6267C14.4981 11.979 14.8336 12.3534 15.1654 12.7433C15.7719 13.4558 16.3665 14.2198 16.9104 14.9946C16.9351 15.0297 16.9597 15.0648 16.9841 15.1C17.2741 15.5171 17.5489 15.9366 17.8026 16.3524C17.839 16.412 17.8749 16.4716 17.9104 16.5311V17.865H20.5354L20.5354 31.55H23.0204L23.0204 17.865H30.5104C31.0004 17.865 31.1404 18.04 31.1754 18.67C31.2046 19.1954 31.2095 20.8646 31.1697 22.7847C31.1618 23.1672 31.1521 23.5596 31.1404 23.955C31.4333 23.7737 31.7872 23.5814 32.1558 23.4044C32.7123 23.1373 33.3022 22.9053 33.7654 22.8C33.7654 19.825 33.7304 17.97 33.3104 16.745C32.8904 15.485 32.1204 15.1 30.5454 15.1H23.0204V1.38002H20.5354V15.1H19.4437C19.2593 14.7676 19.0646 14.4338 18.8609 14.1C17.8077 12.3743 16.5137 10.6498 15.1654 9.13362C15.1391 9.104 15.1127 9.07448 15.0864 9.04501C14.7813 8.7043 14.4736 8.37442 14.1654 8.05777C14.1613 8.05351 14.1571 8.04927 14.153 8.04501C13.9814 7.86884 13.8096 7.69676 13.6381 7.52922C13.393 7.28984 13.1484 7.05971 12.9054 6.84001L11.6104 8.55501L11.7504 9.15001L11.7504 25.845H14.1654L14.1654 11.6267ZM5.41543 15.17H1.56543L1.56543 17.935H5.41543L5.41543 31.2H13.6404V28.61H7.90043L7.90043 4.53001H13.6404L13.6404 1.83501H5.41543L5.41543 15.17ZM18.0504 144.11C26.3104 144.11 31.4204 149.08 31.4204 156.5C31.4204 163.815 26.3104 168.96 18.0504 168.96C9.86043 168.96 4.89043 163.85 4.89043 156.5C4.89043 149.185 9.86043 144.11 18.0504 144.11ZM18.0504 165.6C24.4904 165.6 28.6204 161.96 28.6204 156.5C28.6204 151.075 24.4904 147.435 18.0504 147.435C11.6454 147.435 7.69043 151.04 7.69043 156.5C7.69043 161.995 11.6454 165.6 18.0504 165.6ZM18.1904 126.925L18.1904 122.27C18.1904 116.985 16.5804 114.29 12.8704 114.29C9.09043 114.29 7.93543 117.125 7.93543 122.445V126.925H18.1904Z" fill="#F6BC54"/>
</svg>
