<svg width="44" height="13" viewBox="0 0 44 13" fill="none" xmlns="http://www.w3.org/2000/svg">
<path fill-rule="evenodd" clip-rule="evenodd" d="M7.07981 7.77175H9.55248L9.48157 8.42217C9.40481 9.13128 9.2009 9.77595 8.86223 10.3561C8.51242 10.948 8.0185 11.4169 7.39506 11.7568L7.39152 11.7626C6.74816 12.1083 5.97707 12.2607 5.10871 12.2607C4.44777 12.2607 3.83019 12.1377 3.26535 11.8799H3.2636C2.7093 11.622 2.23176 11.2586 1.83391 10.7957L1.83158 10.7898C1.43491 10.321 1.13549 9.76418 0.926894 9.13712L0.925141 9.13126C0.720649 8.49248 0.622803 7.79519 0.622803 7.03921V6.04297C0.622803 5.29285 0.720635 4.60129 0.925714 3.96252H0.926894C1.1349 3.32373 1.43783 2.76694 1.84095 2.29225H1.84389C2.25287 1.81756 2.74623 1.4543 3.31928 1.19644C3.89819 0.938583 4.53744 0.81543 5.22533 0.81543C6.05267 0.81543 6.79329 0.973717 7.42142 1.31362C8.03548 1.64766 8.52005 2.11643 8.86341 2.71418C9.20384 3.29436 9.406 3.95665 9.48217 4.68919L9.54955 5.33375H7.06987L7.00013 4.82984C6.94329 4.41375 6.84017 4.07972 6.70423 3.81601H6.70248C6.57884 3.56987 6.41009 3.39396 6.19153 3.27089C5.98821 3.15368 5.68002 3.07173 5.22533 3.07173C4.85736 3.07173 4.55911 3.14196 4.31477 3.26502C4.06634 3.39395 3.856 3.56986 3.68081 3.81014C3.50561 4.05041 3.36437 4.35505 3.26535 4.73011C3.16574 5.11104 3.11304 5.54483 3.11304 6.03124V7.03921C3.11304 7.49046 3.15873 7.90647 3.24779 8.2874C3.33978 8.66246 3.47394 8.97313 3.64386 9.23685C3.805 9.48298 4.00482 9.67637 4.24564 9.81701C4.46713 9.94008 4.74777 10.0103 5.10871 10.0103C5.61906 10.0103 5.96069 9.92836 6.17866 9.81701C6.40776 9.69395 6.57298 9.52392 6.68724 9.29536L6.69017 9.2895C6.82846 9.02578 6.93626 8.69174 7.00188 8.2698L7.07981 7.77175ZM3.955 10.3268C3.63039 10.1393 3.36263 9.88151 3.1517 9.55333C2.94135 9.23101 2.78315 8.84998 2.67827 8.42217C2.57749 7.99437 2.5271 7.53148 2.5271 7.03921V6.03124C2.5271 5.50381 2.5845 5.01727 2.69876 4.58361C2.81302 4.14994 2.98236 3.77493 3.20677 3.46433C3.43587 3.15373 3.71713 2.91346 4.0517 2.74351C4.39037 2.57356 4.78178 2.48569 5.22533 2.48569C5.74271 2.48569 6.16167 2.57944 6.48218 2.76111C6.80269 2.94864 7.04995 3.20655 7.22397 3.54645C7.39741 3.88049 7.51694 4.27888 7.58081 4.74771H8.89917C8.87808 4.5426 8.84642 4.34921 8.80365 4.16168C8.70873 3.73973 8.55931 3.35297 8.35658 3.01307C8.0683 2.50908 7.66343 2.11056 7.14136 1.82926C6.61929 1.54796 5.98119 1.40147 5.22533 1.40147C4.60775 1.40147 4.05171 1.51285 3.55718 1.73555C3.06264 1.95238 2.63899 2.2689 2.28685 2.67326C1.9388 3.08349 1.67104 3.56976 1.48354 4.14408C1.30014 4.71253 1.20874 5.34559 1.20874 6.04297V7.03921C1.20874 7.74245 1.30014 8.38124 1.48354 8.94969C1.67104 9.51815 1.93644 10.0046 2.2798 10.4148C2.62316 10.8191 3.03274 11.1297 3.50911 11.3465C3.98958 11.5692 4.52277 11.6747 5.10871 11.6747C5.90968 11.6747 6.57824 11.5341 7.11378 11.2469C7.64933 10.9539 8.06361 10.5554 8.35658 10.0572C8.5558 9.71734 8.70345 9.34819 8.79896 8.94383C8.84349 8.75629 8.8769 8.5629 8.89917 8.35779H7.58081C7.50757 8.82662 7.3839 9.22515 7.20988 9.55919C7.04054 9.89909 6.78859 10.151 6.4546 10.3327C6.12062 10.5085 5.67179 10.5963 5.10871 10.5963C4.66457 10.5963 4.2802 10.5085 3.955 10.3268ZM14.7152 1.54211L18.5396 11.5399H17.1802L16.2281 8.92623H12.0468L11.0964 11.5399H9.74349L13.5544 1.54211H14.7152ZM12.4405 7.83614H15.8331L14.1351 3.17131L12.4405 7.83614ZM14.1357 4.88836L13.2767 7.2501H14.9964L14.1357 4.88836ZM13.1507 0.956073L8.8933 12.126H11.5072L12.457 9.51226H15.8173L16.7701 12.126H26.5277V9.96939C26.5693 10.0632 26.6155 10.1569 26.6677 10.2507H26.6701L26.6718 10.2565C26.9343 10.7078 27.2824 11.0828 27.7107 11.3876H27.7136C28.1343 11.6806 28.5984 11.9033 29.1023 12.0498H29.104C29.6044 12.1905 30.1142 12.2607 30.6316 12.2607C31.2029 12.2607 31.7355 12.1962 32.223 12.0556H32.2271C32.714 11.9091 33.1488 11.6982 33.5202 11.4169C33.8947 11.1297 34.19 10.7781 34.3962 10.3679C34.5544 10.0514 34.6499 9.71151 34.6874 9.35402C34.7507 9.67048 34.8597 9.96938 35.0173 10.2507H35.0197L35.0214 10.2565C35.2839 10.7078 35.632 11.0828 36.0603 11.3876H36.0632C36.4839 11.6806 36.948 11.9033 37.4519 12.0498H37.4536C37.954 12.1905 38.4638 12.2607 38.9812 12.2607C39.5525 12.2607 40.0851 12.1962 40.5726 12.0556H40.5767C41.0636 11.9091 41.4984 11.6982 41.8699 11.4169C42.2443 11.1297 42.5396 10.7781 42.7458 10.3679C42.9556 9.94591 43.0552 9.48875 43.0552 8.99648C43.0552 8.54523 42.9779 8.11747 42.8097 7.72482C42.6462 7.33218 42.3954 6.98641 42.0685 6.69339C41.7503 6.39452 41.3595 6.14249 40.9089 5.93152C40.4601 5.71468 39.9374 5.52716 39.3462 5.35721H39.3439C38.949 5.24587 38.6185 5.13448 38.349 5.02313C38.0906 4.91765 37.8954 4.80641 37.7525 4.69506C37.6201 4.58957 37.5415 4.49582 37.4958 4.41377C37.4554 4.33173 37.4314 4.23209 37.4314 4.10902C37.4314 3.89805 37.48 3.72802 37.565 3.58737C37.6452 3.45844 37.7777 3.33546 37.998 3.23584C38.2037 3.13621 38.5013 3.07173 38.9191 3.07173C39.3562 3.07173 39.6679 3.14782 39.8847 3.26502H39.89C40.1197 3.38223 40.2708 3.52874 40.3693 3.71042L40.371 3.71628C40.4765 3.90381 40.5374 4.13249 40.5374 4.42551V5.01154H43.0277V4.42551C43.0277 3.79259 42.8607 3.20068 42.5331 2.65566L42.0298 2.95455L42.532 2.65566C42.5325 2.65566 42.5331 2.65566 42.5331 2.65566C42.1992 2.09307 41.7163 1.64766 41.1087 1.31948C40.4812 0.973723 39.7429 0.81543 38.9191 0.81543C38.3548 0.81543 37.8269 0.8917 37.3417 1.04993C36.866 1.20816 36.4411 1.43666 36.0773 1.72968C35.7169 2.02856 35.4327 2.38022 35.2335 2.79044C35.0326 3.20067 34.9347 3.65193 34.9347 4.12076C34.9347 4.58959 35.0255 5.0291 35.223 5.42174C35.414 5.80266 35.6853 6.13668 36.0269 6.41797C36.3562 6.68755 36.7423 6.92194 37.1777 7.12119H37.183C37.6083 7.31458 38.08 7.48461 38.5951 7.63698H38.5974C39.0556 7.77176 39.4195 7.90064 39.696 8.01784H39.6989C39.9802 8.14091 40.1654 8.25229 40.279 8.34606L40.2849 8.35192C40.398 8.44569 40.4525 8.52769 40.4789 8.59801L40.4818 8.60975L40.4853 8.61561C40.524 8.70938 40.5515 8.83827 40.5515 9.01408C40.5515 9.23091 40.4964 9.3892 40.4056 9.51813L40.4015 9.524C40.3136 9.65292 40.1724 9.77003 39.9374 9.8638C39.7054 9.95757 39.3925 10.0103 38.9812 10.0103C38.7076 10.0103 38.4474 9.98107 38.1996 9.92246C37.9699 9.858 37.7712 9.77011 37.5984 9.65291C37.4443 9.54156 37.3259 9.40681 37.2374 9.24858C37.1601 9.10207 37.1085 8.90865 37.1085 8.63908V8.05304H34.6183V8.21128C34.5796 8.04133 34.5269 7.88305 34.4601 7.72482C34.2966 7.33218 34.0458 6.98641 33.7189 6.69339C33.4007 6.39452 33.0099 6.14249 32.5593 5.93152C32.1105 5.71468 31.5878 5.52716 30.9966 5.35721H30.9943C30.5994 5.24587 30.2689 5.13448 29.9994 5.02313C29.741 4.91765 29.5458 4.80641 29.4029 4.69506C29.2704 4.58957 29.1919 4.49582 29.1462 4.41377C29.1058 4.33173 29.0818 4.23209 29.0818 4.10902C29.0818 3.89805 29.1304 3.72802 29.2154 3.58737C29.2956 3.45844 29.4281 3.33546 29.6484 3.23584C29.854 3.13621 30.1517 3.07173 30.5695 3.07173C31.0066 3.07173 31.3183 3.14782 31.5351 3.26502H31.5404C31.7701 3.38223 31.9212 3.52874 32.0197 3.71042L32.0214 3.71628C32.1269 3.90381 32.1878 4.13249 32.1878 4.42551V5.01154H34.6781V4.42551C34.6781 3.79259 34.5105 3.20068 34.1829 2.65566C33.8489 2.09307 33.3667 1.64766 32.7591 1.31948C32.1316 0.973723 31.3933 0.81543 30.5695 0.81543C30.0052 0.81543 29.4773 0.8917 28.9921 1.04993C28.5164 1.20816 28.0915 1.43666 27.7277 1.72968C27.3673 2.02856 27.0831 2.38022 26.8839 2.79044C26.6829 3.20067 26.5851 3.65193 26.5851 4.12076C26.5851 4.58959 26.6759 5.0291 26.8734 5.42174C27.0644 5.80266 27.3357 6.13668 27.6773 6.41797C28.0066 6.68755 28.3927 6.92194 28.8281 7.12119H28.8333C29.2587 7.31458 29.7304 7.48461 30.2454 7.63698H30.2478C30.706 7.77176 31.0699 7.90064 31.3464 8.01784H31.3493C31.6306 8.14091 31.8158 8.25229 31.9294 8.34606L31.9353 8.35192C32.0484 8.44569 32.1029 8.52769 32.1292 8.59801L32.1321 8.60975L32.1357 8.61561C32.1744 8.70938 32.2019 8.83827 32.2019 9.01408C32.2019 9.23091 32.1468 9.3892 32.056 9.51813L32.0519 9.524C31.964 9.65292 31.8228 9.77003 31.5878 9.8638C31.3558 9.95757 31.0429 10.0103 30.6316 10.0103C30.3579 10.0103 30.0978 9.98107 29.8499 9.92246C29.6203 9.858 29.4216 9.77011 29.2488 9.65291C29.0947 9.54156 28.9763 9.40681 28.8878 9.24858C28.8105 9.10207 28.7589 8.90865 28.7589 8.63908V8.05304H26.2687V8.63908C26.2687 9.0786 26.3402 9.49461 26.4902 9.87553H21.7898V0.956073H19.2925V11.8681L17.5945 7.42594V7.2501H17.5271L15.1183 0.956073H13.1507ZM17.5945 7.42594L17.5271 7.2501L17.5945 7.42594ZM21.7898 10.4616V9.87553H21.2039V10.4616H21.7898ZM20.3572 11.5399H20.9431H20.3572ZM21.7898 11.5399H20.9431H21.7898ZM25.3558 11.5399H25.9417V10.4616L25.3558 11.5399ZM28.3722 9.52986L28.8867 9.24858C28.8867 9.24858 28.8872 9.24858 28.8878 9.24858H28.8884L28.3722 9.52986ZM28.9148 10.1335L29.2464 9.64704C29.247 9.64704 29.2482 9.64705 29.2488 9.65291C29.2494 9.65291 29.2499 9.65291 29.2511 9.65291L28.9148 10.1335ZM29.7046 10.4909L29.8446 9.92246C29.8464 9.92246 29.8482 9.92246 29.8499 9.92246C29.8517 9.92246 29.8534 9.92246 29.8552 9.92246L29.7046 10.4909ZM26.9097 9.22511C26.8734 9.04344 26.8546 8.85005 26.8546 8.63908V9.22511H26.9097ZM28.7155 3.27675L29.2171 3.58151C29.2165 3.58151 29.216 3.58151 29.2154 3.58737C29.2148 3.58737 29.2136 3.58737 29.213 3.58737L28.7155 3.27675ZM34.0318 3.83947C34.0722 4.027 34.0921 4.22625 34.0921 4.42551V3.83947H34.0318ZM28.098 2.18681L27.7265 1.73555C27.7271 1.72969 27.7271 1.72968 27.7277 1.72968L28.098 2.18681ZM32.4784 1.83513L32.7568 1.31948C32.7574 1.31948 32.7585 1.31948 32.7591 1.31948C32.7603 1.31948 32.7609 1.32535 32.762 1.32535L32.4784 1.83513ZM33.6802 2.95455L34.1824 2.65566C34.1829 2.65566 34.1829 2.65566 34.1829 2.65566C34.1835 2.65566 34.1835 2.65566 34.1841 2.65566L33.6802 2.95455ZM28.6265 4.68333L29.1421 4.40791C29.1433 4.40791 29.1451 4.41377 29.1462 4.41377C29.148 4.41964 29.1491 4.41965 29.1503 4.42551L28.6265 4.68333ZM29.0455 5.15805L29.4005 4.69506C29.4011 4.69506 29.4023 4.69506 29.4029 4.69506C29.404 4.69506 29.4052 4.69506 29.4058 4.69506L29.0455 5.15805ZM29.7732 5.56238L29.9982 5.02313C29.9982 5.02313 29.9988 5.02313 29.9994 5.02313C29.9999 5.02313 30.0005 5.02313 30.0011 5.02313L29.7732 5.56238ZM33.3234 7.12119L33.7148 6.68753C33.716 6.68753 33.7171 6.68753 33.7189 6.69339C33.72 6.69339 33.7212 6.69339 33.7224 6.69339L33.3234 7.12119ZM33.9204 7.95332L34.4583 7.72482C34.4589 7.72482 34.4595 7.72482 34.4601 7.72482C34.4613 7.73068 34.4619 7.73069 34.4624 7.73069L33.9204 7.95332ZM36.7218 9.52986L37.2363 9.24858C37.2363 9.24858 37.2368 9.24858 37.2374 9.24858H37.238L36.7218 9.52986ZM37.2644 10.1335L37.596 9.64704C37.5966 9.64704 37.5978 9.64705 37.5984 9.65291C37.599 9.65291 37.5995 9.65291 37.6007 9.65291L37.2644 10.1335ZM38.0542 10.4909L38.1943 9.92246C38.196 9.92246 38.1978 9.92246 38.1996 9.92246C38.2013 9.92246 38.203 9.92246 38.2048 9.92246L38.0542 10.4909ZM35.2593 9.22511C35.223 9.04344 35.2042 8.85005 35.2042 8.63908V9.22511H35.2593ZM37.0652 3.27675C36.9187 3.52289 36.8454 3.79842 36.8454 4.10902C36.8454 4.32 36.8894 4.51338 36.9761 4.68333C37.0675 4.85328 37.207 5.01154 37.3951 5.15805C37.5873 5.30456 37.8298 5.43932 38.1228 5.56238C38.4205 5.69131 38.7749 5.80844 39.1869 5.91979C39.7546 6.08388 40.2445 6.25978 40.6564 6.45904C41.0683 6.65243 41.407 6.87505 41.673 7.12119L37.0652 3.27675ZM42.3814 3.83947C42.4218 4.027 42.4417 4.22625 42.4417 4.42551V3.83947H42.3814ZM36.4476 2.18681L36.0761 1.73555C36.0767 1.72969 36.0767 1.72968 36.0773 1.72968L36.4476 2.18681ZM40.828 1.83513L41.1064 1.31948C41.107 1.31948 41.1081 1.31948 41.1087 1.31948C41.1099 1.31948 41.1105 1.32535 41.1116 1.32535L40.828 1.83513Z" fill="white"/>
</svg>
