<svg width="205" height="41" viewBox="0 0 205 41" fill="none" xmlns="http://www.w3.org/2000/svg">
<path fill-rule="evenodd" clip-rule="evenodd" d="M0.385986 3.21139H29.1907V39.6975H24.686V37.1248H4.8063V39.8674H0.385986V3.21139ZM4.22037 36.5388H25.2719V39.1114H28.6047V3.79742H0.971924V39.2813H4.22037V36.5388ZM4.22037 33.3742H25.2719V21.5599H4.22037V33.3742ZM4.8063 32.7882H24.686V22.1459H4.8063V32.7882ZM4.22037 18.4364H25.2719V7.00297H4.22037V18.4364ZM4.8063 17.8503H24.686V7.589H4.8063V17.8503ZM58.9375 22.2338V25.7382H72.0157V34.5521C72.0157 36.1989 71.6782 37.0838 70.3704 37.5526C69.0204 38.0566 66.8688 38.0565 63.5782 38.0565C63.4464 37.4002 63.1346 36.5329 62.7831 35.7828C62.6846 35.5718 62.5833 35.3725 62.4813 35.185C62.7081 35.1967 62.9331 35.2026 63.1546 35.2085C65.4081 35.2729 67.351 35.2671 67.9657 35.2319C68.5985 35.185 68.8094 35.0209 68.8094 34.5521V28.6039H58.9375V39.7853H55.7313V28.6039H45.2688V37.8456H42.1048V25.7382H55.7313V22.2338H45.8594V13.291H68.1345V22.2338H58.9375ZM55.1454 22.8198H45.2735V12.705H68.7204V22.8198H59.5235V25.1522H72.6016V34.5521C72.6016 35.4019 72.5184 36.1461 72.2055 36.7615C71.8751 37.4061 71.3302 37.828 70.5714 38.1034C69.812 38.3847 68.8657 38.5137 67.7354 38.5781C66.6004 38.6426 65.2264 38.6426 63.594 38.6426H63.0977L63.004 38.1737C62.8493 37.4002 62.4104 36.275 61.968 35.4721L61.4717 34.5697L62.5007 34.599C65.0307 34.6869 67.2825 34.6869 67.9282 34.6459C68.0653 34.6342 68.1555 34.6224 68.2136 34.6048C68.2165 34.6048 68.2194 34.6048 68.2223 34.6048C68.2229 34.5873 68.2235 34.5756 68.2235 34.5521V29.19H59.5235V40.3713H55.1454V29.19H45.8547V38.4316H41.5188V25.1522H55.1454V22.8198ZM54.8501 0.339844H59.2704V6.87993H63.8331L63.369 6.69236L63.8911 6.07707C65.0471 4.71163 66.5835 2.46711 67.3633 0.990325L67.5977 0.544939L72.1229 2.10966L71.6407 2.75427C70.5696 4.18418 69.3708 5.66685 68.2897 6.87993H75.1751V17.1647H70.8391V10.8766H42.986V17.1647H38.7344V6.87993H45.1387C44.4286 5.60239 43.3663 4.04936 42.3731 2.86558L41.8551 2.24443L45.8061 0.650455L46.0803 0.949335C47.4966 2.49645 49.0077 4.56507 49.7553 6.01841L50.0366 6.56345L49.3417 6.87993H54.8501V0.339844ZM55.436 7.46596V0.925871H58.6845V7.46596H66.8079L64.3376 6.45207C64.4635 6.30556 64.5936 6.14737 64.7272 5.97742C65.8434 4.58268 67.1653 2.61946 67.8813 1.26574L71.1719 2.40267C71.0495 2.56676 70.9252 2.73083 70.7999 2.89491C69.7141 4.31896 68.5335 5.7489 67.5011 6.87993C67.3124 7.08504 67.129 7.28429 66.952 7.46596H74.5891V16.5786H71.4251V10.2906H42.4001V16.5786H39.3204V7.46596H46.1003C46.0956 7.45423 46.0909 7.44249 46.0856 7.43663C46.0018 7.25496 45.9086 7.07332 45.8061 6.87993C45.1628 5.67271 44.1766 4.18417 43.2092 2.96523C43.0797 2.80115 42.9503 2.64295 42.8219 2.48472L45.6485 1.34779C46.8772 2.6898 48.1715 4.42447 48.9514 5.77233C49.0557 5.94814 49.1501 6.11808 49.2344 6.28217L46.6575 7.46596H55.436ZM64.3001 16.2798H49.5251V19.1982H64.3001V16.2798ZM85.9633 16.3326C85.913 16.3853 85.862 16.438 85.811 16.4907C85.671 16.6314 85.5303 16.7779 85.3891 16.9186C85.3346 16.9713 85.2796 17.024 85.2251 17.0826C84.0462 18.2488 82.828 19.3095 81.5922 20.253C81.1094 19.6963 80.1186 18.7821 79.3352 18.1434C79.1606 17.9968 78.9965 17.8679 78.8501 17.7624C79.0206 17.6452 79.1905 17.528 79.3592 17.4108C84.5436 13.7657 89.0167 8.10471 91.5907 1.81078L94.9235 2.78353C94.8462 2.9652 94.7682 3.14689 94.6885 3.3227C92.5153 8.23947 89.4286 12.7285 85.9633 16.3326ZM85.2251 17.8972C84.1569 18.9227 83.06 19.8663 81.9473 20.716L81.512 21.05L81.1516 20.634C80.5921 19.9952 79.2743 18.7997 78.5026 18.2313L77.8323 17.739L78.5231 17.276C83.8212 13.713 88.4319 7.9875 91.0487 1.58808L91.2479 1.10164L95.7215 2.40267L95.4626 3.01209C93.3309 8.01676 90.2559 12.6113 86.7714 16.3326H111.885C108.409 12.5468 105.03 7.74139 102.753 3.21726L102.467 2.64289L106.602 0.978593L106.841 1.47084C109.543 7.0381 114.921 13.3789 119.435 16.5669L120.071 17.0123L119.463 17.4987C118.665 18.1434 117.52 19.3682 116.916 20.212L116.554 20.716L116.07 20.3234C114.984 19.4443 113.867 18.4071 112.751 17.2526C112.747 17.3405 112.742 17.4401 112.737 17.5456C112.722 17.8621 112.701 18.2488 112.679 18.4774C112.383 25.0057 112.087 29.524 111.673 32.6065C111.465 34.1536 111.225 35.3608 110.933 36.2926C110.645 37.2127 110.294 37.91 109.836 38.3964C109.365 38.9824 108.85 39.3809 108.236 39.6388C107.629 39.8966 106.956 40.008 106.196 40.0724C104.758 40.2072 102.064 40.1604 99.41 40.0315L98.8756 40.008L98.8522 39.4748C98.8147 38.6133 98.4292 37.406 97.8883 36.5563L97.2485 35.5483L98.4362 35.6597C101.197 35.9117 103.794 35.9527 104.795 35.9527C105.619 35.9527 105.892 35.859 106.134 35.5953L106.143 35.5835L106.153 35.5718C106.328 35.4019 106.548 35.0092 106.769 34.2239C106.986 33.4562 107.185 32.3897 107.368 30.948C107.67 28.5629 107.923 25.205 108.157 20.5812H98.3337C97.8092 24.2615 96.9456 27.8421 95.1831 31.0242C92.9682 35.0268 89.3606 38.3555 83.3512 40.5062L82.8508 40.6878L82.6235 40.2073C82.2772 39.4748 81.3942 38.2675 80.7268 37.6405L80.0114 36.9665L80.9436 36.6559C86.3465 34.8627 89.4075 32.0791 91.238 28.8149C92.6331 26.3243 93.3309 23.5231 93.7704 20.5812H85.2251V17.8972ZM85.811 19.9952H94.446C94.419 20.1945 94.3915 20.3879 94.3628 20.5812C93.3591 27.3792 90.9766 33.7023 81.7463 37.0017C81.5436 37.072 81.3374 37.1423 81.1282 37.2126C81.2717 37.3474 81.4235 37.5057 81.5776 37.6815C82.1946 38.373 82.8497 39.3165 83.1532 39.9553C93.7165 36.1695 96.5665 28.7446 97.7413 20.5812C97.7694 20.3879 97.7969 20.1945 97.8227 19.9952H108.773C108.763 20.1945 108.753 20.3879 108.743 20.5812C108.226 30.8426 107.608 34.9506 106.567 35.9879C106.145 36.4508 105.639 36.5388 104.795 36.5388C103.87 36.5388 101.606 36.5036 99.0977 36.3043C98.8616 36.2868 98.6231 36.2633 98.3829 36.2399C98.5053 36.4333 98.6202 36.6442 98.7257 36.861C99.1317 37.6991 99.4042 38.6777 99.4376 39.4513C102.095 39.5744 104.753 39.6154 106.145 39.4923C107.622 39.3634 108.55 39.0704 109.394 38.0156C110.913 36.4098 111.503 31.5165 112.094 18.4364C112.116 18.2195 112.137 17.8328 112.152 17.5046C112.168 17.1823 112.178 16.9186 112.178 16.9186H85.811V19.9952ZM112.783 16.438C113.857 17.5749 114.936 18.6063 115.987 19.497C116.138 19.626 116.289 19.749 116.439 19.8721C116.544 19.7256 116.664 19.5674 116.794 19.4033C117.319 18.7528 118.019 18.0027 118.639 17.4401C118.799 17.2936 118.953 17.1588 119.097 17.0416C118.935 16.9303 118.771 16.8131 118.607 16.69C114.118 13.3438 108.96 7.18464 106.314 1.72873L103.277 2.9535C103.365 3.12345 103.454 3.29927 103.544 3.47508C105.876 7.96404 109.256 12.6757 112.684 16.3326C112.717 16.3677 112.75 16.4028 112.783 16.438ZM121.802 28.2699H138.888V26.3887L138.86 26.3595L138.888 26.3536V25.7851H141.108C142.585 25.3749 144.111 24.8768 145.566 24.3376H125.767V20.5929H153.049L153.981 20.4289L156.93 22.8492L156.236 23.2828C153.09 25.2402 148.827 27.0158 144.641 28.2699H160.647V32.2314H143.35V36.5388C143.35 37.4647 143.222 38.2382 142.813 38.8477C142.394 39.4747 141.749 39.8264 140.942 40.0549H140.935L140.927 40.0608C140.125 40.2659 139.091 40.3596 137.813 40.4065C136.532 40.4593 134.962 40.4592 133.072 40.4592H132.586L132.488 39.9905C132.339 39.2814 131.87 38.291 131.452 37.5408L130.952 36.6383L131.982 36.6677C134.327 36.738 136.697 36.7204 137.874 36.7145C138.119 36.7145 138.313 36.7087 138.444 36.7087C138.61 36.7028 138.724 36.6852 138.801 36.6677C138.835 36.6559 138.858 36.6501 138.871 36.6442C138.878 36.6208 138.888 36.5622 138.888 36.4508V32.2314H121.802V28.2699ZM139.473 31.6454V36.4508C139.473 37.0838 139.22 37.2537 138.461 37.2947C138.333 37.2947 138.136 37.3006 137.883 37.3006C136.822 37.3064 134.768 37.324 132.64 37.2713C132.415 37.2654 132.19 37.2596 131.964 37.2537C132.066 37.4412 132.173 37.6405 132.279 37.8515C132.611 38.5078 132.933 39.2638 133.061 39.8732C136.858 39.8732 139.305 39.8732 140.781 39.4923C142.258 39.0703 142.764 38.3086 142.764 36.5388V31.6454H160.061V28.856H142.764V28.1996C142.959 28.1469 143.154 28.0941 143.35 28.0355C146.704 27.0979 150.172 25.8086 153.118 24.3376C153.266 24.2673 153.414 24.1911 153.559 24.1149C154.201 23.7868 154.816 23.4469 155.396 23.107C155.576 22.9956 155.753 22.8901 155.927 22.7846L153.817 21.05L153.1 21.1789H126.353V23.7516H148.578C148.131 23.9509 147.667 24.1442 147.191 24.3376C145.906 24.8592 144.534 25.3514 143.164 25.7851C143.03 25.8261 142.897 25.8672 142.764 25.9082C142.235 26.0723 141.708 26.2246 141.187 26.3711H139.473V28.856H122.388V31.6454H139.473ZM138.863 36.6677C138.863 36.6677 138.864 36.6618 138.867 36.6618C138.865 36.6677 138.863 36.6677 138.863 36.6677ZM138.845 0.339844H143.308V4.05524H160.099V7.96993H122.181V4.05524H138.845V0.339844ZM139.431 4.64126H122.767V7.3839H159.513V4.64126H142.722V0.925871H139.431V4.64126ZM127.539 9.49359H155.078V19.1923H127.539V9.49359ZM150.616 13.0332H131.833V15.6586H150.616V13.0332ZM128.125 18.6063V10.0796H154.492V18.6063H128.125ZM192.32 11.2223H174.149C174.221 11.4157 174.295 11.615 174.369 11.8084C176.389 17.0885 179.212 21.7357 182.892 25.5976C183.026 25.7383 183.162 25.8789 183.299 26.0195C183.437 25.8847 183.574 25.7441 183.708 25.6035C187.282 21.8705 190.05 17.3229 192.106 11.8084C192.178 11.615 192.25 11.4157 192.32 11.2223ZM191.48 11.8084H174.997C176.981 16.9244 179.732 21.4251 183.301 25.1815C186.761 21.5658 189.46 17.1588 191.48 11.8084ZM195.983 11.2223C195.982 11.2223 195.981 11.2223 195.981 11.2282C195.912 11.4216 195.842 11.615 195.772 11.8084C193.397 18.3191 190.229 23.5875 186.146 27.8597C186.011 28.0062 185.875 28.1468 185.737 28.2816C185.887 28.4105 186.037 28.5336 186.189 28.6625C190.575 32.2549 195.928 34.9272 202.307 36.5036C202.526 36.5622 202.745 36.6149 202.966 36.6618C202.822 36.8083 202.67 36.9782 202.513 37.1599C201.842 37.9452 201.098 39.0352 200.688 39.7853C193.829 37.9921 188.192 35.0561 183.589 31.0828C183.439 30.9539 183.291 30.8191 183.143 30.6902C182.993 30.8191 182.841 30.9422 182.688 31.0711C178.094 34.8451 172.547 37.6815 165.925 39.8264C165.65 39.1759 164.928 38.0507 164.306 37.242C164.163 37.0603 164.025 36.8904 163.9 36.7497C164.107 36.6911 164.313 36.6266 164.518 36.568C170.777 34.7162 175.996 32.1552 180.287 28.727C180.441 28.6039 180.592 28.4808 180.743 28.3519C180.609 28.2113 180.476 28.0706 180.344 27.9241C176.301 23.5055 173.214 18.0964 170.898 11.8084C170.853 11.6853 170.808 11.5622 170.763 11.4333C170.737 11.363 170.711 11.2927 170.685 11.2223H164.406V8.09884H181.703V0.925871H184.952V8.09884H202.544V11.2223H195.983ZM185.538 7.51281H203.13V11.8084H196.396C193.994 18.4598 190.773 23.8571 186.598 28.2406C191.061 31.8857 196.539 34.5638 203.099 36.0934L204.126 36.3336L203.38 37.0779C202.669 37.787 201.688 39.1759 201.202 40.0667L200.983 40.471L200.539 40.3538C193.551 38.5254 187.813 35.5249 183.133 31.4637C178.457 35.3257 172.816 38.2089 166.106 40.3889L165.594 40.553L165.385 40.0549C165.238 39.7092 164.924 39.1642 164.55 38.5957C164.179 38.0331 163.774 37.4881 163.462 37.1365L162.843 36.4391L163.739 36.1871C170.199 34.3411 175.536 31.7626 179.888 28.2933C175.759 23.7692 172.617 18.2371 170.274 11.8084H163.82V7.51281H181.117V0.339844H185.538V7.51281ZM48.9391 15.6937V19.7842H64.886V15.6937H48.9391ZM131.247 12.4472V16.2446H151.202V12.4472H131.247Z" fill="#F6BC54"/>
</svg>
