<svg width="124" height="130" viewBox="0 0 124 130" fill="none" xmlns="http://www.w3.org/2000/svg">
<path fill-rule="evenodd" clip-rule="evenodd" d="M9.36624 11.8541C23.7853 9.85063 39.7942 6.68068 48.66 3.01997L52.5 6.61997C51.8215 6.88123 51.1203 7.13832 50.3984 7.39121C45.5387 9.09362 39.7383 10.6059 33.56 11.9199C32.8974 12.0608 32.2305 12.1995 31.56 12.3358V21.7234L54.48 18.56L55.14 22.76L31.56 26.0452V35.4279L58.56 31.94L59.16 36.14L31.56 39.7732V48.5C31.56 51.68 32.34 52.4 36.54 52.4H51.54C54.7651 52.4 55.6142 51.1887 56.0578 46.1389C56.1176 45.4579 56.1701 44.7071 56.22 43.88C56.7435 44.2657 57.4316 44.6262 58.1563 44.9381C59.0096 45.3054 59.9138 45.6053 60.66 45.8C59.88 54.14 58.32 56.78 51.72 56.78H36.36C29.04 56.78 26.94 55.04 26.94 48.44V40.3814L7.19999 42.98L6.53999 38.66L26.94 36.0247V26.6889L9.05999 29.18L8.39999 24.92L26.94 22.3611V13.2297C26.2751 13.3522 25.6082 13.4725 24.94 13.5905C19.4789 14.5554 13.9294 15.3736 8.63999 16.04C8.54907 15.4945 8.35099 14.7652 8.09989 14.0456C7.85386 13.3406 7.55693 12.6448 7.25999 12.14C7.95757 12.0475 8.66 11.9522 9.36624 11.8541ZM24.94 15.6214C19.5417 16.5685 14.0805 17.3704 8.88998 18.0243L6.98316 18.2645L6.6672 16.3688C6.52096 15.4913 5.99321 13.9311 5.53612 13.154L4.00651 10.5537L6.99723 10.1573C21.934 8.17774 38.8615 4.90202 47.8967 1.17136L49.0878 0.679558L56.1934 7.34105L53.2186 8.48641C47.7555 10.5899 40.8963 12.4183 33.56 13.9642V19.4284L56.151 16.3104L57.4317 24.46L33.56 27.7859V33.1529L60.2608 29.7036L61.4259 37.859L33.56 41.5272V48.5C33.56 49.2457 33.6097 49.675 33.6786 49.9303C33.7037 50.0237 33.7257 50.0708 33.7351 50.0883C33.7387 50.0907 33.7438 50.0938 33.7505 50.0975C33.7687 50.1078 33.7995 50.1233 33.8471 50.1419C33.9451 50.1802 34.1003 50.2263 34.3377 50.2682C34.8278 50.3548 35.5257 50.4 36.54 50.4H51.54C52.3497 50.4 52.7464 50.3071 52.9484 50.2179C53.0712 50.1637 53.1817 50.0923 53.3233 49.822C53.5012 49.4823 53.6889 48.8908 53.8493 47.8444C54.0071 46.8156 54.1192 45.4902 54.2236 43.7595L54.4452 40.0879L57.4064 42.2699C58.2442 42.8872 59.8767 43.5287 61.1648 43.8647L62.8096 44.2938L62.6513 45.9862C62.2662 50.1042 61.6677 53.4188 59.9564 55.6386C58.0714 58.0838 55.2322 58.78 51.72 58.78H36.36C32.7091 58.78 29.6432 58.3885 27.588 56.5901C25.4419 54.7123 24.94 51.8138 24.94 48.44V42.6619L5.51879 45.2185L4.25381 36.9387L24.94 34.2664V28.9868L7.38513 31.4326L6.11225 23.2168L24.94 20.6182V15.6214ZM62.4058 28.8694L64.4877 28.4749C66.7175 28.0524 69.4002 27.5283 72.34 26.9388V19.4852L71.9799 19.1971L72.34 18.8698V16.44H74.9213C76.0255 15.2887 77.1519 13.9297 78.2015 12.52H64.6V4.25997H84.6354L86.1607 3.75155L91.6326 7.43452L90.848 8.81998H99.22V0.599976H107.66V8.81998H122.36V16.9H106.301C104.01 20.0088 101.234 23.4348 98.6593 26.251C99.4072 26.9399 100.12 27.6211 100.78 28.2799C104.042 25.2879 106.854 22.0166 108.939 18.6473L109.849 17.1782L117.614 20.5393L116.343 22.5199C109.999 32.4093 99.6136 41.1088 88.6252 46.2326L87.1101 46.9391L86.1461 45.5733C85.483 44.6341 84.384 43.3249 83.5167 42.5597L81.1675 40.4868L84.0367 39.2284C87.494 37.712 90.9232 35.7829 94.1451 33.5587C92.8309 32.2202 91.3335 30.7955 89.811 29.4321L89.9611 31.4731L88.2787 31.8513C85.759 32.4177 83.1873 32.9908 80.66 33.5515V52.34C80.66 53.6786 80.5412 54.9728 80.0519 56.0993C79.5167 57.3315 78.6188 58.1884 77.4276 58.762L77.4001 58.7752L77.3723 58.7876C76.26 59.2819 74.9194 59.5157 73.5056 59.642C72.0681 59.7705 70.3872 59.8 68.52 59.8H66.7854L66.5401 58.0828C66.3903 57.0345 65.8545 55.2611 65.2911 54.1344L63.8096 51.1714L67.1217 51.2404C69.2144 51.284 71.1489 51.2957 72.34 51.2988V35.3919C70.1909 35.8666 68.176 36.3119 66.3738 36.7123L64.4722 37.1349L62.4058 28.8694ZM72.34 33.3437C72.4458 33.3203 72.552 33.2968 72.6585 33.2733C73.2114 33.1512 73.7723 33.0273 74.34 32.9019V52.34C74.34 53.06 74.16 53.3 73.32 53.3C72.7478 53.3 71.207 53.3 69.2896 53.2763C68.5933 53.2677 67.8473 53.256 67.08 53.24C67.3714 53.8228 67.6511 54.5344 67.8882 55.2558C68.188 56.1681 68.4195 57.0963 68.52 57.8C72.24 57.8 74.94 57.68 76.56 56.96C78.18 56.18 78.66 54.86 78.66 52.34V31.9464C79.3228 31.7996 79.99 31.6516 80.66 31.5029C83.0454 30.9733 85.4653 30.4338 87.84 29.9L87.54 25.82C87.0786 25.9196 86.6163 26.0189 86.1537 26.118C86.0859 26.1326 86.018 26.1471 85.9501 26.1616C85.822 26.189 85.6939 26.2164 85.5658 26.2438C83.9241 26.5944 82.2807 26.9408 80.66 27.2786C79.9888 27.4185 79.3216 27.5569 78.66 27.6935V21.3698C78.9039 21.1369 79.1494 20.8966 79.3959 20.6497C79.815 20.23 80.2372 19.7908 80.66 19.3354C82.071 17.8155 83.4889 16.1139 84.82 14.3456C85.2734 13.7433 85.7168 13.1332 86.1464 12.52C86.3612 12.2133 86.5725 11.9059 86.78 11.5983C86.7933 11.5785 86.8067 11.5587 86.82 11.5389V14.9H99.717C99.2897 15.5455 98.8248 16.217 98.3339 16.9C97.0324 18.7104 95.5478 20.6013 94.0931 22.3027C93.6475 22.8239 93.2047 23.3273 92.7709 23.8052C92.2472 23.3793 91.723 22.9617 91.2032 22.5564C90.819 22.2569 90.4373 21.9642 90.06 21.68L87.3 24.68C87.6353 24.9473 87.9766 25.2244 88.3219 25.5097C88.4149 25.5865 88.5081 25.6639 88.6017 25.7419C88.6842 25.8107 88.7669 25.8799 88.8497 25.9495C89.0991 26.159 89.3501 26.3722 89.6019 26.5884C89.8384 26.7915 90.0756 26.9973 90.3131 27.2052C90.3559 27.2428 90.3988 27.2804 90.4416 27.318C92.311 28.961 94.187 30.7338 95.7921 32.3825C96.2808 32.8845 96.7444 33.375 97.175 33.8468C96.6368 34.2473 96.0919 34.6399 95.5412 35.024C92.7405 36.9773 89.7888 38.7116 86.7974 40.1576C86.1465 40.4723 85.4936 40.7733 84.84 41.06C85.3191 41.4827 85.8379 42.0246 86.328 42.5861C86.8814 43.22 87.3982 43.8791 87.78 44.42C91.3829 42.7399 94.9176 40.6639 98.255 38.2839C98.888 37.8325 99.5139 37.3701 100.132 36.8975C100.605 36.5354 101.074 36.1672 101.538 35.7932C106.174 32.0541 110.303 27.7385 113.527 23.1291C113.919 22.5702 114.296 22.007 114.66 21.44L110.64 19.7C108.459 23.2232 105.541 26.6219 102.168 29.7202C101.679 30.1696 101.181 30.6126 100.673 31.0488C100.247 30.5883 99.7803 30.1059 99.2803 29.6087C98.6618 28.9937 97.993 28.356 97.2904 27.7092C96.8087 27.2658 96.3111 26.8181 95.8027 26.3705C96.249 25.9098 96.7073 25.4218 97.1732 24.9124C99.2745 22.6152 101.531 19.8819 103.539 17.2501C103.628 17.1332 103.716 17.0165 103.805 16.9C104.131 16.4691 104.45 16.0417 104.76 15.62L103.278 14.9H120.36V10.82H105.66V2.59998H101.22V10.82H87.2961C87.7327 10.1501 88.149 9.48151 88.5401 8.81998C88.6905 8.56548 88.8373 8.31204 88.98 8.05998L85.86 5.95997L84.96 6.25997H66.6V10.52H82.0048C81.5876 11.1788 81.1395 11.8502 80.6693 12.52C79.7197 13.8727 78.68 15.2185 77.623 16.44C77.2477 16.8737 76.8702 17.2917 76.4938 17.6887C76.2474 17.9486 76.0015 18.1995 75.757 18.44H74.34V28.5763C73.6615 28.7134 72.9941 28.8477 72.34 28.9786C70.3604 29.3747 68.5026 29.7401 66.8274 30.0635C66.1394 30.1963 65.4822 30.3221 64.86 30.44L65.94 34.76C67.8651 34.3322 70.0298 33.8539 72.34 33.3437ZM84.893 24.3423L89.8156 18.9917L91.2635 20.0826C91.6802 20.3965 92.103 20.7212 92.5292 21.0544C93.6506 19.7451 94.7945 18.315 95.8534 16.9H85.3741C83.8428 18.8331 82.2319 20.6532 80.66 22.2135V25.2356C82.0608 24.943 83.477 24.6443 84.893 24.3423ZM114.6 28.3963L122.125 32.1008L120.897 33.99C118.564 37.5788 115.723 40.9594 112.501 44.0687C116.333 47.1508 120.358 50.7235 122.636 53.293L123.963 54.7891L117.204 60.785L115.884 59.2003C113.792 56.691 109.751 52.9123 105.91 49.6654C100.475 53.7351 94.3755 57.1164 88.0294 59.6022L86.4679 60.2139L85.5934 58.7829C85.013 57.8331 83.9102 56.3986 82.9458 55.4342L80.7177 53.2061L83.6822 52.1383C96.0377 47.688 107.51 39.462 113.636 29.901L114.6 28.3963ZM104.328 48.3493C104.791 48.0079 105.248 47.6615 105.7 47.3102C105.788 47.2419 105.876 47.1733 105.964 47.1046C106.028 47.158 106.093 47.2116 106.158 47.2655C106.61 47.6399 107.069 48.0246 107.53 48.4166C110.645 51.0668 113.88 54.0517 116.118 56.4518C116.602 56.9717 117.04 57.4643 117.42 57.92L121.14 54.62C120.738 54.1669 120.277 53.6784 119.767 53.164C117.461 50.8345 114.177 47.9727 111.026 45.4492C110.489 45.0192 109.956 44.5991 109.433 44.1931C109.937 43.7401 110.432 43.2808 110.919 42.8152C113.608 40.2422 116.022 37.4803 118.085 34.5705C118.476 34.0189 118.855 33.462 119.22 32.9L115.32 30.98C109.244 40.4626 98.2785 48.5481 86.3894 53.2531C85.7156 53.5197 85.0389 53.7754 84.36 54.02C84.831 54.491 85.3248 55.0532 85.7866 55.6271C86.3839 56.3693 86.9278 57.131 87.3 57.74C93.3461 55.3717 99.1463 52.1754 104.328 48.3493ZM25.3 119.68H40.54V98.6H27.64V92.3403C26.458 94.3863 25.1439 96.3685 23.7327 98.2646C26.026 100.172 28.9635 102.727 30.7217 104.257C31.2294 104.699 31.6387 105.055 31.9059 105.285L33.3248 106.508L27.9426 113.646L26.324 111.764C25.4278 110.723 23.8864 109.128 22.22 107.469V129.86H13.78V108.957C11.7394 110.712 9.66522 112.268 7.6221 113.582L5.62038 114.87L4.69672 112.676C4.48693 112.178 4.12987 111.434 3.7366 110.731C3.31273 109.972 2.96183 109.47 2.78578 109.294L0.95816 107.467L3.18595 106.156C9.22763 102.602 15.5106 96.5605 19.6356 90.02H4.29999V81.88H13.78V70.66H22.22V81.88H25.2281L26.6743 81.5701L27.1502 81.88H28.22V82.5766L31.3421 84.6096L30.7085 86.1435C30.1308 87.5422 29.4825 88.923 28.7734 90.28H40.54V71.08H49.1V90.28H61.94V98.6H49.1V119.68H63.2V128.12H25.3V119.68ZM47.1 121.68V96.6H59.94V92.28H47.1V73.08H42.54V92.28H29.64V96.6H42.54V121.68H27.3V126.12H61.2V121.68H47.1ZM26.28 83.7L25.44 83.88H20.22V72.66H15.78V83.88H6.29999V88.02H23.0879C22.7413 88.69 22.371 89.3572 21.9791 90.02C18.0601 96.6469 11.981 102.824 5.92414 106.806C5.3486 107.184 4.77326 107.543 4.19999 107.88C4.55028 108.23 4.96107 108.847 5.35086 109.523C5.4571 109.707 5.56178 109.896 5.66325 110.085C6.01846 110.747 6.33431 111.411 6.53999 111.9C7.10003 111.54 7.66263 111.16 8.22634 110.763C10.0829 109.455 11.9514 107.952 13.78 106.287C14.4529 105.674 15.1204 105.04 15.78 104.385V127.86H20.22V102.734C20.8617 103.344 21.5391 103.997 22.22 104.662C23.7386 106.144 25.2745 107.687 26.4705 108.954C27.0057 109.521 27.4729 110.033 27.84 110.46L30.6 106.8C30.3105 106.55 29.8765 106.173 29.3447 105.71C27.5767 104.173 24.7278 101.695 22.514 99.851C22.4146 99.7682 22.3166 99.6868 22.22 99.6068C21.802 99.2605 21.4109 98.9407 21.0591 98.659C21.0277 98.6339 20.9965 98.609 20.9657 98.5844C21.1923 98.2984 21.4166 98.0101 21.6387 97.7196C21.8215 97.4805 22.0026 97.2399 22.1822 96.998C22.1948 96.981 22.2074 96.964 22.22 96.947C23.8522 94.7425 25.3476 92.4207 26.6465 90.02C27.0041 89.359 27.3468 88.6921 27.6733 88.02C27.8609 87.6338 28.0432 87.2459 28.22 86.8565C28.4423 86.3667 28.6558 85.8744 28.86 85.38L26.28 83.7ZM92.8 82.3H97.0482C96.3089 80.0693 95.1362 77.4413 93.8621 75.3041L92.5957 73.1798L99.9185 70.6975L100.774 71.9554C102.911 75.0982 104.819 79.3103 105.498 82.3H107.748L107.854 82.1008C109.313 79.3581 111.227 74.9945 112.076 71.9953L112.602 70.1354L121.221 72.2607L120.192 74.4657C119.819 75.2655 119.434 76.1063 119.042 76.9609C118.216 78.7634 117.362 80.6277 116.532 82.3H121.46V90.44H111.08V94.6H120.44V102.8H111.08V107.5H122.84V115.76H111.08V129.86H102.7V115.76H93.44V126.62H78.02V129.86H69.88V117.705C69.628 117.98 69.3709 118.252 69.1088 118.519L67.2971 120.369L65.965 118.149C65.7873 117.853 65.3557 117.284 64.795 116.636C64.2463 116.002 63.6845 115.419 63.303 115.085L61.6437 113.633L63.2499 112.123C66.2023 109.347 68.3858 105.722 70.0052 101.3H66.34V93.4H72.1766C72.3054 92.7633 72.4274 92.1165 72.543 91.46H63.58V83.56H73.6077C73.6741 82.9007 73.7367 82.234 73.7957 81.56H66.7V73.66H92.6V83.56H92.8V82.3ZM94.8 84.3V88.44H104.7V96.6H95.64V100.8H104.7V109.5H93.42V113.76H104.7V127.86H109.08V113.76H120.84V109.5H109.08V100.8H118.44V96.6H109.08V88.44H119.46V84.3H99.66L103.56 82.8C103.524 82.6379 103.484 82.4711 103.439 82.3C102.743 79.621 101.038 75.8999 99.12 73.08L95.58 74.28C95.9162 74.844 96.2466 75.4413 96.5653 76.0577C97.6215 78.1001 98.5508 80.3527 99.1472 82.3C99.1522 82.3162 99.1571 82.3325 99.1621 82.3487C99.3745 83.0471 99.5437 83.7056 99.66 84.3H94.8ZM93.44 107.5H102.7V102.8H93.64V94.6H102.7V90.44H96.14V91.46H92.6V101.3H78.666C78.4389 102.059 78.1999 102.806 77.948 103.54H93.44V107.5ZM75.0649 105.54C75.3315 104.886 75.5861 104.22 75.8292 103.54C76.091 102.808 76.3395 102.062 76.5755 101.3C76.7787 100.644 76.9726 99.9776 77.1577 99.3H90.6V89.46H94.14V85.56H90.6V75.66H68.7V79.56H75.9651C75.9144 80.2326 75.8606 80.8993 75.8034 81.56C75.7451 82.233 75.6834 82.8997 75.6178 83.56C75.5508 84.2334 75.4799 84.9002 75.4046 85.56H65.58V89.46H74.8937C74.7928 90.1351 74.686 90.8019 74.5729 91.46C74.4603 92.1153 74.3415 92.7621 74.2159 93.4C74.0828 94.0767 73.9421 94.7434 73.7934 95.4H68.34V99.3H72.7746C72.5707 99.9801 72.3556 100.647 72.1286 101.3C71.8624 102.066 71.5798 102.813 71.2795 103.54C70.9971 104.224 70.6992 104.891 70.3847 105.54C70.221 105.878 70.0528 106.211 69.88 106.539C68.7887 108.611 67.5134 110.487 66.0198 112.148C65.573 112.645 65.1067 113.122 64.62 113.58C65.0223 113.932 65.5301 114.453 66.0239 115.005C66.1716 115.17 66.3179 115.338 66.4599 115.505C66.9762 116.113 67.434 116.71 67.68 117.12C68.1618 116.628 68.6259 116.121 69.0728 115.599C69.3483 115.278 69.6173 114.951 69.88 114.618C70.5921 113.716 71.2576 112.772 71.88 111.788V127.86H76.02V124.62H91.44V105.54H75.0649ZM86.4 95.4V89.46H79.1727C79.0719 90.1347 78.9661 90.8013 78.855 91.46C78.7446 92.1146 78.6289 92.7613 78.5077 93.4C78.3794 94.0756 78.2449 94.7423 78.1038 95.4H86.4ZM80.285 79.56C80.2297 80.2329 80.1716 80.8996 80.1104 81.56C80.0481 82.2332 79.9826 82.8999 79.9136 83.56C79.8432 84.2335 79.7692 84.9002 79.6914 85.56H86.4V79.56H80.285ZM84.4 81.56H82.1192C82.0577 82.2322 81.993 82.8989 81.9249 83.56H84.4V81.56ZM76.02 120.6H87V109.5H76.02V120.6ZM78.02 111.5V118.6H85V111.5H78.02ZM80.5437 93.4H84.4V91.46H80.8839C80.7758 92.1134 80.6625 92.7601 80.5437 93.4ZM114.293 82.3C115.227 80.4835 116.215 78.328 117.191 76.198C117.303 75.9546 117.414 75.7114 117.526 75.4692C117.813 74.8438 118.098 74.2243 118.38 73.62L114 72.54C113.276 75.0993 111.852 78.5135 110.542 81.2189C110.36 81.5943 110.18 81.956 110.005 82.3C109.874 82.5572 109.745 82.8044 109.62 83.04L113.34 84.06C113.649 83.5247 113.968 82.9329 114.293 82.3Z" fill="#F6BC54"/>
</svg>
