<svg width="211" height="42" viewBox="0 0 211 42" fill="none" xmlns="http://www.w3.org/2000/svg">
<path fill-rule="evenodd" clip-rule="evenodd" d="M17.6017 35.6264H28.3173V19.1591H19.247V14.9513H28.3173V1.44935H32.6954V14.9513H41.7235V19.1591H32.6954V35.6264H42.6095V39.9161H17.6017V35.6264ZM32.1095 36.2124V18.5731H41.1376V15.5373H32.1095V2.03538H28.9032V15.5373H19.8329V18.5731H28.9032V36.2124H18.1876V39.3301H42.0235V36.2124H32.1095ZM2.83603 9.04425H9.50166V1.15047H13.7954V9.04425H16.8177L17.5858 8.87428L17.839 9.04425H18.0142V9.15556L20.0116 10.4565L19.8259 10.9078C18.5175 14.0723 16.6788 17.1138 14.5501 19.874C16.1802 21.2043 18.6159 23.3257 20.0286 24.5564C20.3954 24.8728 20.6937 25.1307 20.8905 25.3006L21.306 25.658L18.5972 29.2505L18.1231 28.6996C17.2278 27.6624 15.4571 25.8691 13.7954 24.2634V41.141H9.50166V25.4237C7.66768 27.1408 5.76865 28.6293 3.90772 29.8248L3.32119 30.1998L3.05048 29.5611C2.89052 29.1802 2.62626 28.6293 2.33564 28.1077C2.03622 27.5745 1.74268 27.1291 1.53115 26.9181L0.995605 26.3847L1.64835 25.998C6.37804 23.2202 11.3122 18.3269 14.2436 13.123H2.83603V9.04425ZM15.2257 12.5369C15.1249 12.7362 15.0206 12.9296 14.914 13.123C12.0499 18.3503 7.19249 23.273 2.4587 26.1973C2.2876 26.3028 2.11651 26.4024 1.94541 26.5079C2.06201 26.6251 2.18798 26.7832 2.31806 26.9649C2.67783 27.4806 3.06397 28.2015 3.34697 28.7934C3.44131 28.9926 3.5245 29.1742 3.59071 29.3324C3.75654 29.227 3.92235 29.1157 4.08818 29.0044C5.89696 27.7972 7.73389 26.3144 9.50166 24.6208C9.69795 24.4332 9.89307 24.2399 10.0876 24.0465V40.555H13.2095V22.8861C13.4011 23.0678 13.5968 23.2553 13.7954 23.4487C15.3634 24.9548 17.1048 26.6953 18.1706 27.8732C18.3165 28.0315 18.4489 28.1838 18.5673 28.3186L20.5079 25.746C20.3046 25.5702 19.9993 25.3065 19.6249 24.9783C18.2052 23.7418 15.7946 21.6497 14.1898 20.337C14.0521 20.2257 13.9202 20.1202 13.7954 20.0205C13.7749 20.003 13.7544 19.9853 13.7339 19.9677C13.7544 19.9443 13.7749 19.9151 13.7954 19.8916C13.8956 19.7627 13.9952 19.6337 14.0942 19.5048C16.189 16.7914 17.9984 13.797 19.2845 10.6852L17.4704 9.50137L16.8798 9.63028H13.2095V1.7365H10.0876V9.63028H3.42197V12.5369H15.2257ZM65.0626 9.33726H68.3298C67.8528 7.51472 66.8245 5.07097 65.6937 3.17811L65.3228 2.55688L68.9198 1.33203L69.1706 1.7013C70.6378 3.86375 71.9392 6.75873 72.3798 8.7395L72.4894 9.23167L72.2216 9.33726H75.2456L75.5515 8.76297C76.5944 6.79977 77.9667 3.67616 78.5849 1.49614L78.739 0.951172L83.0609 2.01192L82.7591 2.66233C82.4896 3.23663 82.2136 3.84027 81.9347 4.44974C81.1466 6.1668 80.3368 7.93666 79.5863 9.33726H83.5736V13.4219H76.2751V17.987H82.8564V22.1127H76.2751V27.0587H84.5439V31.2253H76.2751V41.141H72.0235V31.2253H64.0923V27.0587H72.0235V22.1127H65.6532V17.987H72.0235V13.4219H65.7704V14.1368H63.2814V21.0578H53.689C53.3731 22.1713 53.0222 23.2437 52.6319 24.2751H63.872V38.8613H53.0298V41.141H48.947V31.1375C48.3476 31.9403 47.6995 32.6962 46.9981 33.4112L46.4679 33.9563L46.0776 33.3057C45.9148 33.0362 45.5726 32.5908 45.1718 32.1278C44.7739 31.6649 44.3509 31.2253 44.0421 30.9558L43.5564 30.528L44.0269 30.0884C46.4655 27.7912 48.1665 24.7498 49.3653 21.0578H46.4579V17.143H50.4077C50.6175 16.1702 50.8032 15.1682 50.9685 14.1368H44.5173V10.2222H51.487C51.5942 9.23178 51.6886 8.21212 51.7718 7.17485H46.711V3.26009H63.2814V10.2222H65.0626V9.33726ZM65.6486 12.8358H72.6095V18.5731H66.2392V21.5267H72.6095V27.6448H64.6782V30.6393H72.6095V40.555H75.6892V30.6393H83.9579V27.6448H75.6892V21.5267H82.2704V18.5731H75.6892V12.8358H82.9876V9.92329H69.0657L71.8079 8.86841C71.386 6.96968 70.1204 4.14508 68.686 2.03538L66.197 2.87923C66.2972 3.04331 66.3974 3.21905 66.4958 3.39486C67.5581 5.29359 68.498 7.5909 68.9345 9.33726C68.9351 9.33726 68.9357 9.34313 68.9362 9.34313C68.9866 9.54824 69.0294 9.74162 69.0657 9.92329H65.6486V12.8358ZM62.6954 10.8082V3.84611H47.297V6.58883H52.4052C52.3905 6.78808 52.3753 6.98146 52.3601 7.17485C52.2769 8.21212 52.1831 9.22592 52.0759 10.2222C52.0548 10.4214 52.0331 10.6148 52.0114 10.8082H45.1032V13.5508H51.6517C51.6224 13.75 51.5925 13.9434 51.562 14.1368C51.3985 15.1682 51.2146 16.1702 51.0071 17.143C50.965 17.3423 50.9222 17.5357 50.8782 17.7291H47.0438V20.4718H50.1622C50.103 20.671 50.0427 20.8644 49.9806 21.0578C48.8269 24.6795 47.1933 27.7385 44.8489 30.106C44.7112 30.2408 44.5712 30.3815 44.4282 30.5162C44.5571 30.6276 44.7019 30.7623 44.8542 30.9206C45.323 31.3894 45.8632 32.0107 46.2405 32.5147C46.38 32.6964 46.4972 32.8662 46.5798 33.001C46.721 32.8603 46.8599 32.7138 46.9964 32.5673C47.7019 31.8055 48.3505 30.9968 48.947 30.1354C49.148 29.8482 49.3437 29.5552 49.5329 29.2563V40.555H52.4439V38.2752H63.286V24.8611H51.7724C51.8515 24.6677 51.9288 24.4685 52.005 24.2751C52.4017 23.2437 52.7585 22.1713 53.0796 21.0578C53.1353 20.8644 53.1903 20.671 53.2437 20.4718H62.6954V13.5508H65.1845V10.8082H62.6954ZM55.4427 6.58883C55.4263 6.78808 55.4099 6.98146 55.3935 7.17485C55.3038 8.21212 55.2042 9.23178 55.0929 10.2222C55.0706 10.4214 55.0484 10.6148 55.0255 10.8082H59.7423V6.58883H55.4427ZM59.1564 7.17485H55.9817C55.8927 8.21212 55.7937 9.22592 55.6823 10.2222H59.1564V7.17485ZM54.6605 13.5508C54.6312 13.75 54.6013 13.9434 54.5708 14.1368C54.4091 15.1682 54.2304 16.1702 54.0318 17.143C53.9913 17.3423 53.9509 17.5357 53.9093 17.7291H59.7423V13.5508H54.6605ZM55.1644 14.1368C55.0038 15.1623 54.8269 16.1644 54.63 17.143H59.1564V14.1368H55.1644ZM52.4439 35.4507H60.1642V27.6448H52.4439V35.4507ZM53.0298 28.2308V34.8647H59.5782V28.2308H53.0298ZM78.9195 9.33726C79.6993 7.91907 80.5519 6.06138 81.3921 4.22712C81.5884 3.79932 81.7835 3.37142 81.9769 2.95534C82.0612 2.77367 82.145 2.59204 82.2282 2.41037L79.1486 1.65438C78.5696 3.69961 77.3556 6.51837 76.3454 8.505C76.2511 8.69253 76.1591 8.86843 76.0688 9.03838L78.6845 9.75332C78.7618 9.61853 78.8404 9.48377 78.9195 9.33726ZM117.206 1.15047H121.458V10.855H126.647V15.0217H121.458V36.1656C121.458 37.3142 121.331 38.2226 120.965 38.9258C120.582 39.6642 119.977 40.1155 119.189 40.4261C118.406 40.7366 117.362 40.8949 116.094 40.9886C114.816 41.0765 113.258 41.0999 111.422 41.0999H110.937L110.847 40.6252C110.688 39.7931 110.199 38.3222 109.759 37.4431L109.321 36.5641L110.3 36.5934C112.614 36.6637 114.812 36.6461 116.02 36.6402C116.295 36.6402 116.518 36.6343 116.68 36.6343C116.853 36.6285 116.97 36.611 117.051 36.5875C117.09 36.5758 117.116 36.5641 117.131 36.5582C117.145 36.5524 117.15 36.5465 117.15 36.5465C117.151 36.5465 117.152 36.5465 117.154 36.5406C117.158 36.5348 117.165 36.523 117.173 36.4937C117.19 36.4351 117.206 36.3356 117.206 36.1656V15.0217H103.791V11.9451H86.4939V8.15347H104.372V10.855H117.206V1.15047ZM117.792 11.441H104.377V14.4357H117.792V36.1656C117.792 36.9685 117.497 37.1793 116.695 37.2204C116.536 37.2204 116.31 37.2262 116.029 37.2262C114.938 37.2321 113.02 37.2439 110.94 37.197C110.723 37.1912 110.503 37.1853 110.283 37.1794C110.373 37.3611 110.463 37.5604 110.553 37.7772C110.93 38.668 111.286 39.799 111.422 40.5139C115.092 40.5139 117.581 40.4318 118.974 39.8809C120.366 39.3301 120.872 38.4042 120.872 36.1656V14.4357H126.061V11.441H120.872V1.7365H117.792V11.441ZM105.539 19.8154L109.201 18.0456L109.49 18.4383C111.706 21.4622 114.017 25.5643 115.011 28.3304L115.183 28.8109L111.344 30.8444L111.121 30.1998C110.216 27.5626 107.968 23.437 105.915 20.3779L105.539 19.8154ZM88.4767 13.8966H102.811V17.6002H88.4767V13.8966ZM88.7298 2.62727H102.853V6.33087H88.7298V2.62727ZM88.4767 19.5458H102.811V23.2496H88.4767V19.5458ZM88.4345 25.242V40.678H92.4329V38.7382H102.684V25.242H88.4345ZM89.0204 25.828V40.092H91.847V38.1522H102.099V25.828H89.0204ZM91.847 35.4916H99.272V28.4475H91.847V35.4916ZM92.4329 29.0336V34.9056H98.6861V29.0336H92.4329ZM111.675 30.0065L114.459 28.5297C113.489 25.8281 111.211 21.7786 109.017 18.784L106.402 20.0499C106.51 20.214 106.619 20.3779 106.728 20.542C108.566 23.355 110.503 26.9063 111.473 29.4496C111.546 29.643 111.614 29.8307 111.675 30.0065ZM89.0626 17.0141V14.4826H102.225V17.0141H89.0626ZM89.3157 5.74484V3.2133H102.267V5.74484H89.3157ZM89.0626 22.6635V20.1318H102.225V22.6635H89.0626ZM103.786 11.359V8.7395H87.0798V11.359H103.786ZM166.41 15.5843C165.469 14.9455 164.51 14.213 163.561 13.4277C163.527 13.3984 163.493 13.369 163.459 13.3397C163.297 13.2049 163.136 13.0702 162.975 12.9295C162.907 12.8709 162.839 12.8123 162.771 12.7537C160.117 10.4506 157.607 7.74916 155.871 5.2644C155.746 5.08859 155.625 4.90683 155.508 4.73102C155.4 4.91269 155.287 5.10018 155.17 5.28185C153.635 7.70801 151.382 10.392 148.792 12.7537C148.682 12.8533 148.573 12.953 148.463 13.0526C148.354 13.1463 148.245 13.246 148.136 13.3397C148.05 13.4159 147.963 13.4922 147.877 13.5625C146.866 14.4298 145.813 15.2445 144.739 15.9653C144.574 16.0766 144.409 16.1878 144.244 16.2933C144.172 16.1351 144.083 15.9535 143.982 15.766C143.726 15.2913 143.392 14.758 143.058 14.3009C143.028 14.2599 142.999 14.2189 142.969 14.1837C142.894 14.0782 142.819 13.9845 142.745 13.8966C142.695 13.8321 142.647 13.7735 142.599 13.7207C142.766 13.6211 142.934 13.5156 143.101 13.4043C147.562 10.5386 151.831 5.80934 153.905 1.82435H156.858C159.653 6.07891 164.044 10.3687 168.162 12.871C168.332 12.9765 168.502 13.0761 168.67 13.1699C168.557 13.3164 168.44 13.4745 168.319 13.6445C167.933 14.1895 167.527 14.8283 167.189 15.4026C167.085 15.5842 166.987 15.7542 166.899 15.9125C166.736 15.807 166.573 15.7015 166.41 15.5843ZM141.972 13.8966L141.699 13.5801L142.294 13.2226C142.93 12.8299 143.564 12.4022 144.189 11.9451H128.681V8.15347H144.281V11.8747C148.096 9.03829 151.592 4.99477 153.385 1.54893L153.549 1.23832H157.174L157.348 1.502C160.213 5.86205 164.788 10.269 168.962 12.6659L169.547 12.9999L169.133 13.5332C168.567 14.2598 167.866 15.3733 167.412 16.1996L167.107 16.7505L166.577 16.4048C165.586 15.7543 164.57 15.0042 163.561 14.1837V16.5863H147.877V14.3302C146.807 15.2269 145.695 16.0531 144.561 16.7856L143.987 17.1606L143.708 16.5337C143.558 16.1938 143.323 15.766 143.058 15.3499V17.6002H130.495V13.8966H141.972ZM142.472 14.4826H131.081V17.0141H142.472V14.4826ZM148.463 16.0003H162.975V13.3397H148.463V16.0003ZM149.653 12.7537H161.884C159.455 10.5854 157.178 8.11245 155.533 5.8035C154.07 8.06556 152.014 10.5327 149.653 12.7537ZM144.755 19.0828H166.852V37.4783C166.852 38.1464 166.8 38.7558 166.593 39.2715C166.374 39.8165 165.997 40.215 165.437 40.4846C164.919 40.7659 164.309 40.9066 163.633 40.9769C162.949 41.0472 162.15 41.0589 161.245 41.0589H160.725L160.664 40.5374C160.621 40.1799 160.487 39.6876 160.313 39.2012V40.508H156.863V31.5242H154.406V40.508H150.999V31.5242H148.627V41.0179H144.755V19.0828ZM148.041 30.9382H151.584V39.922H153.82V30.9382H157.449V39.922H159.727V30.9382H163.481V37.4314C163.481 37.8123 163.397 37.9413 163.017 37.9413C162.709 37.9765 161.983 37.9822 161.066 37.9588C160.854 37.9529 160.631 37.9472 160.402 37.9413C160.497 38.1171 160.591 38.3221 160.681 38.5331C160.952 39.1777 161.182 39.9337 161.245 40.4728C163.06 40.4728 164.325 40.4319 165.169 39.9631C166.055 39.5411 166.266 38.7852 166.266 37.4783V19.6689H145.341V40.4319H148.041V30.9382ZM163.481 22.3294H159.727V28.3186H163.481V22.3294ZM162.895 22.9155H160.313V27.7326H162.895V22.9155ZM148.041 22.3294V28.3186H151.584V22.3294H148.041ZM153.82 28.3186H157.449V22.3294H153.82V28.3186ZM154.406 27.7326H156.863V22.9155H154.406V27.7326ZM150.999 22.9155H148.627V27.7326H150.999V22.9155ZM162.895 31.5242H160.313V37.3494L160.422 37.3553C161.59 37.3963 162.52 37.3962 162.895 37.361V31.5242ZM130.706 2.62727H142.889V6.33087H130.706V2.62727ZM130.495 19.5458H143.058V23.2496H130.495V19.5458ZM130.411 25.242V40.678H134.283V38.6972H143.058V25.242H130.411ZM130.997 25.828V40.092H133.697V38.1111H142.472V25.828H130.997ZM133.697 35.4916H139.814V28.4475H133.697V35.4916ZM134.283 29.0336V34.9056H139.228V29.0336H134.283ZM131.292 5.74484V3.2133H142.303V5.74484H131.292ZM131.081 22.6635V20.1318H142.472V22.6635H131.081ZM143.695 11.359V8.7395H129.267V11.359H143.695ZM184.538 8.66324H201.488V19.2411H184.538V8.66324ZM179.897 20.9406H192.164V33.001H179.897V20.9406ZM193.861 20.9406H206.424V33.001H193.861V20.9406ZM173.189 2.96707H209.63V6.96382H177.441V34.9936H210.727V39.0723H177.441V41.141H173.189V2.96707ZM176.855 38.4863H210.141V35.5796H176.855V6.37779H209.044V3.5531H173.775V40.555H176.855V38.4863ZM197.194 12.115H188.663V15.7953H197.194V12.115ZM200.902 18.655V9.24927H185.124V18.655H200.902ZM188.208 24.4333H183.769V29.5083H188.208V24.4333ZM180.483 32.415V21.5267H191.578V32.415H180.483ZM202.467 24.4333H197.733V29.5083H202.467V24.4333ZM194.447 32.415V21.5267H205.838V32.415H194.447ZM188.077 11.529V16.3813H197.78V11.529H188.077ZM183.183 23.8473V30.0943H188.794V23.8473H183.183ZM197.147 23.8473V30.0943H203.053V23.8473H197.147Z" fill="#F6BC54"/>
</svg>
