<svg width="13" height="108" viewBox="0 0 13 108" fill="none" xmlns="http://www.w3.org/2000/svg">
<path fill-rule="evenodd" clip-rule="evenodd" d="M1.61987 106.579H2.70444V103.373H11.6171V102.066H2.70444V98.855H1.61987V106.579ZM3.29038 101.48H12.2031V103.959H3.29038V107.165H1.03394V98.2689H3.29038V101.48ZM1.61987 93.9089L11.6171 90.0822V91.4416L9.00093 92.3969V96.5752L11.6171 97.5305V98.8784L1.61987 95.0693V93.9089ZM7.91635 96.1826V92.7895L3.25112 94.4891L7.91635 96.1826ZM4.96615 94.4891L7.33042 95.3447V93.6277L4.96615 94.4891ZM1.03394 95.4736L12.2031 99.734V97.1145L9.58687 96.1651V92.8071L12.2031 91.852V86.8355H8.47182L7.86246 86.2437L12.2031 82.9501V72.9761H9.95308V78.0041H7.58179V73.6734H5.33179V78.0041H3.29038V73.0404H1.03394V83.2373L4.9609 86.7652L4.96324 86.771L5.03296 86.8355H1.03394V89.332H11.9459L7.50621 91.0314H7.33042V91.096L1.03394 93.5045V95.4736ZM6.54995 87.4216H1.61987V88.746H11.6171V87.4216H8.23511L6.96304 86.1909L11.6171 82.6571V81.0807L6.0314 85.3118L1.61987 81.3796V82.9736L5.35465 86.3315L6.54995 87.4216ZM6.06128 84.5558L11.4144 80.5006H1.50854L6.06128 84.5558ZM1.61987 79.9145H11.6171V73.5621H10.539V78.5901H6.99585V74.2594H5.91773V78.5901H2.70444V73.6265H1.61987V79.9145ZM1.61987 64.42L11.6171 60.5932V61.9529L9.00093 62.908V67.0865L11.6171 68.0416V69.3895L1.61987 65.5803V64.42ZM7.91635 66.6937V63.3007L3.25112 65.0002L7.91635 66.6937ZM4.96615 65.0002L7.33042 65.8557V64.1387L4.96615 65.0002ZM1.03394 65.9847L12.2031 70.2451V67.6256L9.58687 66.6763V63.3182L12.2031 62.363V59.7435L7.50621 61.5427H7.33042V61.607L1.03394 64.0157V65.9847ZM11.6171 54.4399V55.7644H1.61987V52.0782C1.61987 51.3223 1.74995 50.6835 2.01069 50.1619C2.27202 49.6404 2.63354 49.2477 3.09585 48.9723C3.55347 48.7027 4.07788 48.5679 4.6685 48.5679C5.30893 48.5679 5.85621 48.7027 6.30914 48.9723C6.76265 49.2477 7.10835 49.6404 7.34624 50.1619C7.57944 50.6835 7.69663 51.3223 7.69663 52.0782V54.4399H11.6171ZM6.6185 52.0782C6.6185 51.5625 6.53589 51.1407 6.37124 50.8242C6.20659 50.5019 5.97749 50.2675 5.68452 50.121C5.39155 49.9686 5.05757 49.8924 4.68198 49.8924C4.33862 49.8924 4.01577 49.9686 3.71401 50.121C3.41167 50.2675 3.16909 50.5019 2.98628 50.8242C2.7982 51.1407 2.70444 51.5625 2.70444 52.0782V54.4399H6.6185V52.0782ZM6.03257 53.8539V52.0782C6.03257 51.6153 5.95756 51.2989 5.85034 51.0879C5.73608 50.8711 5.59312 50.7304 5.42261 50.6484L5.41616 50.6425C5.21694 50.537 4.9773 50.4784 4.68198 50.4784C4.42827 50.4784 4.19507 50.537 3.97593 50.6484H3.96948C3.78432 50.7363 3.62554 50.8828 3.49487 51.1114L3.49136 51.1172C3.373 51.3223 3.29038 51.627 3.29038 52.0782V53.8539H6.03257ZM8.28256 53.8539H12.2031V56.3504H1.03394V52.0782C1.03394 51.2578 1.17514 50.5253 1.48686 49.8982C1.79389 49.2888 2.23101 48.8024 2.80054 48.4684C3.35776 48.1402 3.98588 47.9819 4.6685 47.9819C5.39213 47.9819 6.04781 48.1343 6.60913 48.4742C7.17398 48.8083 7.59644 49.3005 7.87945 49.9217H7.8812C8.15718 50.5429 8.28256 51.2637 8.28256 52.0782V53.8539ZM6.99585 40.5277V45.5676H11.6171V46.892H1.61987V45.5676H5.91773V40.5277H1.61987V39.2091H11.6171V40.5277H6.99585ZM5.33179 41.1137H1.03394V38.6231H12.2031V41.1137H7.58179V44.9815H12.2031V47.478H1.03394V44.9815H5.33179V41.1137ZM1.81206 34.808C1.59234 34.3099 1.48218 33.7708 1.48218 33.1789C1.48218 32.5694 1.59234 32.0185 1.81206 31.5321C2.03179 31.034 2.3523 30.6121 2.773 30.2605C3.1896 29.903 3.69526 29.6335 4.29058 29.4459C4.8812 29.2526 5.55151 29.1529 6.30268 29.1529H6.93432C7.68491 29.1529 8.35816 29.2467 8.95288 29.4342C9.5482 29.6217 10.0539 29.8971 10.4705 30.2487C10.8871 30.6003 11.2052 31.0224 11.425 31.5146C11.6447 32.0069 11.7543 32.5577 11.7543 33.1671C11.7543 33.759 11.6447 34.2982 11.425 34.7904C11.2052 35.2827 10.8871 35.7105 10.4705 36.0679C10.0539 36.4254 9.5482 36.7068 8.95288 36.9002C8.35816 37.0994 7.68491 37.1991 6.93432 37.1991H6.30268C5.55151 37.1991 4.8812 37.0994 4.29058 36.9061C3.69526 36.7127 3.1896 36.4371 2.773 36.0797C2.3523 35.7222 2.03179 35.2944 1.81206 34.808ZM2.39331 36.5251C1.90756 36.109 1.53374 35.6167 1.2771 35.0483L1.27652 35.0424C1.02046 34.4681 0.89624 33.8469 0.89624 33.1789C0.89624 32.4991 1.01928 31.8662 1.2771 31.2919L2.39331 36.5251ZM2.39331 36.5251C2.87495 36.9353 3.44976 37.2459 4.1066 37.4628L4.10953 37.4686C4.76929 37.6796 5.50288 37.7851 6.30268 37.7851H6.93432C7.7353 37.7851 8.47183 37.6796 9.13687 37.4569C9.79429 37.2401 10.3697 36.9294 10.8519 36.5133H10.8548C11.3336 36.0972 11.7039 35.6051 11.9593 35.0308H11.9605C12.2166 34.4565 12.3402 33.8293 12.3402 33.1671C12.3402 32.4873 12.2177 31.8545 11.9599 31.2801C11.7039 30.7058 11.3324 30.2077 10.849 29.7975C10.365 29.3873 9.78784 29.0885 9.12925 28.8775C8.46714 28.6665 7.73296 28.5669 6.93432 28.5669H6.30268C5.50346 28.5669 4.77105 28.6723 4.11187 28.8832C3.45386 29.0942 2.8773 29.399 2.3939 29.8151L2.39331 36.5251ZM9.68765 31.1747C9.99878 31.4032 10.2349 31.6845 10.3949 32.0185C10.5554 32.3526 10.6351 32.7335 10.6351 33.1671C10.6351 33.5774 10.5554 33.9525 10.3949 34.2865C10.2349 34.6147 9.99878 34.9018 9.68765 35.1421C9.37183 35.3824 8.9851 35.564 8.52749 35.6929C8.06518 35.8219 7.53374 35.8864 6.93432 35.8864H6.28863C5.6939 35.8864 5.16714 35.8219 4.70952 35.6929C4.2519 35.564 3.86695 35.3824 3.55581 35.148C3.24468 34.9136 3.00913 34.6264 2.84859 34.2983C2.68862 33.9642 2.60835 33.5891 2.60835 33.1789C2.60835 32.7511 2.68862 32.376 2.84859 32.042C3.00913 31.7021 3.24468 31.415 3.55581 31.1806C3.86695 30.9462 4.2519 30.7703 4.70952 30.6531C5.16714 30.53 5.6939 30.4656 6.28863 30.4656H6.93432C7.53374 30.4656 8.06518 30.5241 8.52749 30.6472C8.9851 30.7644 9.37183 30.9403 9.68765 31.1747ZM8.381 31.2158C7.97671 31.1103 7.49683 31.0517 6.93432 31.0517H6.28863C5.73257 31.0517 5.25912 31.1103 4.86244 31.2158L4.85719 31.2216C4.45758 31.3213 4.14643 31.4736 3.90737 31.6494C3.66948 31.8311 3.49604 32.042 3.37827 32.2881L3.3771 32.294C3.25991 32.5342 3.19429 32.8272 3.19429 33.1789C3.19429 33.5129 3.25874 33.8 3.37652 34.0462C3.4937 34.2864 3.66713 34.4975 3.90971 34.685C4.15112 34.8667 4.46576 35.019 4.86772 35.1304C5.26264 35.2417 5.73433 35.3004 6.28863 35.3004H6.93432C7.49272 35.3004 7.96909 35.2417 8.36929 35.1304C8.76831 35.019 9.08472 34.8608 9.3314 34.6791C9.57515 34.4857 9.74976 34.2688 9.86754 34.0286C9.98531 33.7824 10.0492 33.5012 10.0492 33.1671C10.0492 32.8097 9.98296 32.5166 9.86636 32.2705C9.74975 32.0302 9.57807 31.8194 9.34077 31.6435H9.33961C9.09468 31.4619 8.78003 31.3154 8.381 31.2158ZM1.61987 28.18H2.70444V24.9745H11.6171V23.6677H2.70444V20.4562H1.61987V28.18ZM3.29038 23.0816H12.2031V25.5605H3.29038V28.7661H1.03394V19.8702H3.29038V23.0816ZM2.84859 14.3499C2.68862 14.6839 2.60835 15.0648 2.60835 15.4867C2.60835 15.9028 2.68862 16.272 2.84859 16.606C3.00913 16.94 3.24468 17.2213 3.55581 17.4616C3.86695 17.696 4.2519 17.8719 4.70952 18.0008C5.16714 18.1297 5.6939 18.1941 6.28863 18.1941H6.93432C7.53374 18.1941 8.06518 18.1297 8.52749 18.0008C8.9851 17.8719 9.37183 17.6903 9.68765 17.45C9.99878 17.2097 10.2349 16.9224 10.3949 16.5943C10.5554 16.2602 10.6351 15.8852 10.6351 15.475C10.6351 15.0472 10.5554 14.6605 10.3949 14.3264C10.2349 13.9924 9.99878 13.7111 9.68765 13.4826C9.37183 13.2482 8.9851 13.0723 8.52749 12.9551C8.06518 12.8379 7.53374 12.7734 6.93432 12.7734H6.28863C5.6939 12.7734 5.16714 12.8379 4.70952 12.9609C4.2519 13.0781 3.86695 13.254 3.55581 13.4884C3.24468 13.7228 3.00913 14.01 2.84859 14.3499ZM1.81206 17.1159C1.59234 16.6236 1.48218 16.0786 1.48218 15.4867C1.48218 14.8773 1.59234 14.3322 1.81206 13.84C2.03179 13.3477 2.3523 12.92 2.773 12.5683C3.1896 12.2109 3.69526 11.9412 4.29058 11.7537C4.8812 11.5603 5.55151 11.4665 6.30268 11.4665H6.93432C7.68491 11.4665 8.35816 11.5603 8.95288 11.7478C9.5482 11.9353 10.0539 12.205 10.4705 12.5566C10.8871 12.9082 11.2052 13.3301 11.425 13.8282C11.6447 14.3146 11.7543 14.8655 11.7543 15.475C11.7543 16.0669 11.6447 16.6061 11.425 17.1042C11.2052 17.5906 10.8871 18.0183 10.4705 18.3817C10.0539 18.7392 9.5482 19.0147 8.95288 19.2081C8.35816 19.4073 7.68491 19.5068 6.93432 19.5068H6.30268C5.55151 19.5068 4.8812 19.4072 4.29058 19.2197C3.69526 19.0204 3.1896 18.745 2.773 18.3875C2.3523 18.0301 2.03179 17.6082 1.81206 17.1159ZM2.39273 18.8329C1.90757 18.4227 1.53374 17.9304 1.2771 17.3561H1.27652C1.02046 16.776 0.89624 16.1548 0.89624 15.4867C0.89624 14.8069 1.01928 14.1741 1.2771 13.5998L2.39273 18.8329ZM2.39273 18.8329C2.87437 19.2432 3.44976 19.5597 4.1066 19.7765H4.10953C4.76929 19.9875 5.50288 20.0928 6.30268 20.0928H6.93432C7.7353 20.0928 8.47183 19.9875 9.13687 19.7648C9.79429 19.5479 10.3697 19.2373 10.8519 18.8271L10.8548 18.8212C11.3336 18.4051 11.7039 17.9128 11.9593 17.3444L11.9605 17.3385C12.2166 16.7642 12.3402 16.1372 12.3402 15.475C12.3402 14.7952 12.2177 14.1623 11.9599 13.588C11.7039 13.0137 11.3324 12.5156 10.849 12.1112C10.365 11.701 9.78784 11.3962 9.12925 11.1852C8.46714 10.9801 7.73296 10.8805 6.93432 10.8805H6.30268C5.50346 10.8805 4.77105 10.9802 4.11187 11.197C3.45386 11.4021 2.8773 11.7069 2.3939 12.123L2.39273 18.8329ZM8.381 13.5235C7.97671 13.418 7.49683 13.3594 6.93432 13.3594H6.28863C5.73257 13.3594 5.25912 13.418 4.86244 13.5294H4.85719C4.45758 13.6348 4.14643 13.7813 3.90737 13.9571C3.66948 14.1388 3.49604 14.3498 3.37827 14.6018H3.3771C3.25991 14.848 3.19429 15.1351 3.19429 15.4867C3.19429 15.8208 3.25874 16.1079 3.37652 16.354C3.4937 16.5943 3.66713 16.8053 3.90971 16.9929C4.15112 17.1745 4.46576 17.3269 4.86772 17.4383C5.26264 17.5496 5.73433 17.6081 6.28863 17.6081H6.93432C7.49272 17.6081 7.96909 17.5496 8.36929 17.4383C8.76831 17.3269 9.08472 17.1745 9.3314 16.987C9.57515 16.7995 9.74976 16.5826 9.86754 16.3423C9.98531 16.0903 10.0492 15.809 10.0492 15.475C10.0492 15.1175 9.98296 14.8245 9.86636 14.5842C9.74975 14.3381 9.57807 14.1271 9.34077 13.9571H9.33961C9.09468 13.7755 8.78003 13.629 8.381 13.5235ZM9.38765 2.83436V5.28993L8.79585 5.28406C8.33062 5.2782 7.9187 5.24291 7.57534 5.14914H7.5689C7.21558 5.04952 6.89038 4.8914 6.59799 4.67457C6.33784 4.48118 6.0525 4.22918 5.74371 3.9303H5.74135C5.52983 3.72519 5.33179 3.53182 5.14897 3.36187C4.99546 3.22123 4.83491 3.10984 4.66909 3.0278C4.54253 2.96333 4.36792 2.92235 4.12593 2.92235C3.87983 2.92235 3.70171 2.9692 3.57105 3.03366H3.56635L3.56226 3.03953C3.44097 3.09813 3.35483 3.17428 3.29096 3.29148L3.28804 3.29735C3.22827 3.39697 3.18081 3.56113 3.18081 3.80726C3.18081 4.00065 3.21538 4.1764 3.28217 4.34049C3.33842 4.48114 3.41987 4.58665 3.53003 4.66284L3.53471 4.6687C3.60678 4.72144 3.73452 4.77415 3.96948 4.78001L4.54721 4.78588V7.23543L3.95073 7.2237C3.3396 7.21198 2.78237 7.05971 2.30366 6.7374H2.29956C1.83667 6.42094 1.4851 5.99892 1.24546 5.48322C1.00932 4.96751 0.89624 4.41087 0.89624 3.80726C0.89624 3.15677 1.01401 2.56489 1.2771 2.05504H1.27769L1.798 2.32459L1.27652 2.05504H1.2771C1.53901 1.5452 1.9228 1.14083 2.42261 0.871258C2.42202 0.871258 2.42143 0.871258 2.42084 0.871258L2.70444 1.38103L2.4232 0.871258H2.42261C2.91421 0.595825 3.4773 0.472656 4.09136 0.472656C4.58589 0.472656 5.05405 0.578164 5.48647 0.789134C5.48588 0.789134 5.4853 0.783268 5.48472 0.783268L5.23159 1.31664L5.48765 0.789134C5.48765 0.789134 5.48705 0.789134 5.48647 0.789134C5.87846 0.976662 6.2435 1.21692 6.58276 1.50994C6.90034 1.78537 7.20327 2.07252 7.49214 2.38311H7.49448C7.66557 2.57064 7.84078 2.67618 8.02125 2.72892C8.25445 2.79924 8.51343 2.83436 8.80172 2.83436H9.38765ZM7.06441 2.78171C7.2982 3.0337 7.56128 3.20358 7.85425 3.29148C8.14722 3.37939 8.46304 3.42039 8.80172 3.42039V4.69803C8.58726 4.69803 8.39215 4.68628 8.21578 4.6687C8.03121 4.65112 7.86715 4.62173 7.72359 4.58071C7.44 4.50453 7.1816 4.38153 6.94781 4.20572C6.7146 4.02991 6.44917 3.8014 6.15151 3.51425C5.93647 3.30328 5.73491 3.10989 5.54741 2.93408C5.35463 2.75828 5.14897 2.61178 4.92925 2.50043C4.70483 2.39495 4.43706 2.33633 4.12593 2.33633C3.81011 2.33633 3.53765 2.39495 3.30855 2.5063C3.08003 2.61764 2.90366 2.78164 2.78003 3.00433C2.6564 3.22116 2.59488 3.48494 2.59488 3.80726C2.59488 4.07097 2.64292 4.32284 2.73902 4.56311C2.83511 4.80339 2.98393 4.99105 3.18491 5.13755C3.38178 5.28406 3.64077 5.36018 3.96128 5.36604V6.63767C3.75386 6.63181 3.55874 6.60845 3.37534 6.56742C3.09995 6.50296 2.85152 6.39745 2.62886 6.25095L7.06441 2.78171ZM10.9785 5.34258C10.6398 5.34258 10.3222 5.23132 10.0638 4.99691C9.76792 4.72734 9.65777 4.36975 9.65777 4.00642C9.65777 3.64308 9.76558 3.27977 10.0638 3.0102C10.3222 2.77579 10.6398 2.66439 10.9785 2.66439C11.316 2.66439 11.6265 2.78165 11.8796 3.0102C12.1779 3.27977 12.2857 3.64308 12.2857 4.00642C12.2857 4.36975 12.1755 4.72734 11.8796 4.99691C11.6265 5.22546 11.316 5.34258 10.9785 5.34258ZM10.457 4.56311C10.5988 4.69204 10.7728 4.75655 10.9785 4.75655C11.1753 4.75655 11.3447 4.69204 11.4865 4.56311C11.6289 4.43419 11.6998 4.24669 11.6998 4.00642C11.6998 3.76029 11.6289 3.57278 11.4865 3.44385C11.3447 3.31493 11.1753 3.25042 10.9785 3.25042C10.7728 3.25042 10.5988 3.31493 10.457 3.44385C10.3146 3.57278 10.2437 3.76029 10.2437 4.00642C10.2437 4.24669 10.3146 4.43419 10.457 4.56311Z" fill="white"/>
</svg>
