<svg width="54" height="620" viewBox="0 0 54 620" fill="none" xmlns="http://www.w3.org/2000/svg">
<path opacity="0.5" fill-rule="evenodd" clip-rule="evenodd" d="M52.4015 0.158691H1.24214V7.92356H21.3374L39.0392 7.38559L1.24214 22.7038V28.506L38.9935 43.8582L21.3374 43.3214H1.24214V51.0863H52.4015V41.5879L12.6363 25.6392L52.4015 9.65645V0.158691ZM51.8156 0.744719H1.82807V7.33753H21.3287L42.2894 6.70053L1.82807 23.0988V28.1122L42.2332 44.5427L21.3287 43.9074H1.82807V50.5002H51.8156V41.9841L11.0636 25.6398L51.8156 9.26088V0.744719ZM43.6576 79.9118L20.3332 71.4384V88.4022L43.6576 79.9118ZM20.9191 87.5654L41.9425 79.9124L20.9191 72.2747V87.5654ZM51.8162 82.8115L1.82807 101.938V95.1392L14.9085 90.3771V69.4676L1.82807 64.7155V57.9516L51.8156 77.0086L51.8162 82.8115ZM52.4015 76.6049L1.24214 57.1007V65.1263L14.3226 69.8784V89.9669L1.24214 94.7284V102.789L52.4021 83.2153L52.4015 76.6049ZM2.25405 118.285L2.25464 118.283C3.38901 115.754 5.03198 113.556 7.17769 111.693L7.18003 111.691C9.32866 109.849 11.9273 108.43 14.9648 107.425C18.0105 106.417 21.4382 105.919 25.2427 105.919H28.4015C32.2042 105.919 35.6203 106.406 38.642 107.39L38.6449 107.391C41.6818 108.395 44.2804 109.814 46.4285 111.656C48.5982 113.496 50.2541 115.684 51.389 118.214L51.3902 118.216C52.5252 120.77 53.0882 123.564 53.0882 126.592C53.0882 129.708 52.5263 132.538 51.3896 135.072C50.2546 137.626 48.5988 139.814 46.4273 141.632C44.2775 143.475 41.6771 144.871 38.6384 145.83C35.6173 146.813 32.2025 147.3 28.4015 147.3H25.2427C21.4412 147.3 18.0152 146.824 14.973 145.865C11.9337 144.906 9.33335 143.521 7.18296 141.701C5.03374 139.882 3.38902 137.694 2.25405 135.141C1.11792 132.606 0.55542 129.776 0.55542 126.661C0.55542 123.634 1.11909 120.839 2.25405 118.285ZM2.7896 134.902C3.88823 137.374 5.47847 139.492 7.56148 141.254C9.64448 143.017 12.1734 144.367 15.1488 145.306C18.1248 146.245 21.4892 146.714 25.2427 146.714H28.4015C32.155 146.714 35.5078 146.233 38.4609 145.272C41.4363 144.333 43.9652 142.971 46.0482 141.186C48.1541 139.423 49.756 137.306 50.8546 134.833C51.9533 132.384 52.5023 129.637 52.5023 126.592C52.5023 123.639 51.9533 120.926 50.8546 118.454C49.756 116.005 48.1541 113.887 46.0482 112.102C43.9652 110.316 41.4363 108.931 38.4609 107.947C35.5078 106.985 32.155 106.505 28.4015 106.505H25.2427C21.4892 106.505 18.1248 106.997 15.1488 107.981C12.1734 108.965 9.64448 110.351 7.56148 112.136C5.47847 113.944 3.88823 116.073 2.7896 118.523C1.69097 120.995 1.14136 123.708 1.14136 126.661C1.14136 129.705 1.69097 132.452 2.7896 134.902ZM36.2138 138.663L36.2191 138.661C38.4492 138.081 40.299 137.228 41.7826 136.115C43.2656 135.003 44.3818 133.646 45.1406 132.041L45.1418 132.039C45.9 130.458 46.2861 128.646 46.2861 126.592C46.2861 124.611 45.9017 122.833 45.1429 121.25C44.3847 119.691 43.2679 118.343 41.7808 117.204C40.2937 116.09 38.4416 115.214 36.2085 114.589C33.982 113.965 31.405 113.649 28.4701 113.649H25.2427C22.2855 113.649 19.6851 113.965 17.4357 114.589C15.205 115.214 13.3417 116.1 11.8318 117.237C10.3429 118.399 9.22494 119.759 8.46674 121.319C7.70795 122.902 7.32358 124.679 7.32358 126.661C7.32358 128.739 7.7103 130.562 8.46733 132.142C9.22553 133.723 10.34 135.056 11.8224 136.146L11.8236 136.148C13.3318 137.262 15.1933 138.115 17.4234 138.695C19.6775 139.275 22.2814 139.569 25.2427 139.569H28.4701C31.4062 139.569 33.9855 139.264 36.2138 138.663ZM17.2775 139.263C14.9888 138.668 13.0546 137.786 11.4755 136.619C9.91928 135.474 8.74038 134.066 7.9394 132.395C7.13842 130.724 6.73764 128.813 6.73764 126.661C6.73764 124.601 7.13842 122.735 7.9394 121.064C8.74038 119.415 9.91928 117.985 11.4755 116.772C13.0546 115.581 14.9888 114.666 17.2775 114.025C19.5896 113.383 22.2445 113.063 25.2427 113.063H28.4701C31.4455 113.063 34.0775 113.383 36.3662 114.025C38.6554 114.666 40.5779 115.57 42.1341 116.737C43.6904 117.927 44.8693 119.347 45.6703 120.995C46.4712 122.666 46.872 124.532 46.872 126.592C46.872 128.721 46.4712 130.621 45.6703 132.292C44.8693 133.986 43.6904 135.417 42.1341 136.584C40.5779 137.752 38.6554 138.633 36.3662 139.228C34.0775 139.847 31.4455 140.155 28.4701 140.155H25.2427C22.2445 140.155 19.5896 139.858 17.2775 139.263ZM18.3099 238.649V246.396L17.6607 246.326C14.4281 245.975 11.5201 245.047 8.94721 243.536C6.35561 242.014 4.30307 239.863 2.79018 237.097L2.78843 237.093C1.28843 234.307 0.55542 230.863 0.55542 226.789C0.55542 223.784 1.11909 221.033 2.2564 218.545L2.25757 218.543C3.39194 216.084 5.00034 213.967 7.07866 212.196L7.081 212.194C9.18159 210.424 11.6871 209.062 14.5875 208.102L14.5927 208.101C17.5201 207.164 20.7632 206.7 24.3158 206.7H29.2939C32.8464 206.7 36.0785 207.164 38.9835 208.101L38.9865 208.102C41.9109 209.061 44.4298 210.435 46.5316 212.231L46.5345 212.233C48.6369 214.052 50.2564 216.24 51.3902 218.791C52.5263 221.348 53.0882 224.212 53.0882 227.373C53.0882 231.222 52.3652 234.517 50.8886 237.233C49.4191 239.935 47.3753 242.041 44.7621 243.538C42.1863 245.05 39.2091 245.976 35.8435 246.326L35.1966 246.394V238.64L35.7029 238.57C37.9869 238.257 39.9222 237.678 41.5201 236.845L41.523 236.844C43.1191 236.024 44.3384 234.866 45.1963 233.366C46.0447 231.881 46.4923 229.896 46.4923 227.373C46.4923 225.229 46.0834 223.364 45.2841 221.765C44.4808 220.179 43.3412 218.843 41.8576 217.751C40.3693 216.679 38.5728 215.86 36.4576 215.304C34.3394 214.746 31.9763 214.464 29.3625 214.464H24.3158C21.9076 214.464 19.6535 214.712 17.5511 215.203C15.4558 215.717 13.6306 216.483 12.0685 217.495C10.5199 218.499 9.30463 219.769 8.41401 221.31C7.55737 222.832 7.11734 224.651 7.11734 226.789C7.11734 229.552 7.55679 231.688 8.38765 233.243C9.22378 234.81 10.4185 235.982 11.9806 236.774L11.9865 236.777C13.5884 237.611 15.5279 238.213 17.8148 238.572L18.3099 238.649ZM7.90483 221.02C8.84351 219.395 10.1249 218.056 11.7503 217.003C13.3751 215.95 15.2636 215.16 17.4152 214.634C19.5662 214.13 21.8666 213.878 24.3158 213.878H29.3625C32.0173 213.878 34.4326 214.164 36.6064 214.737C38.7808 215.309 40.6464 216.156 42.2027 217.278C43.7595 218.422 44.9607 219.83 45.808 221.501C46.6546 223.195 47.0783 225.152 47.0783 227.373C47.0783 229.96 46.6201 232.054 45.7048 233.657C44.789 235.259 43.4847 236.496 41.7908 237.365C40.1203 238.235 38.1175 238.83 35.7826 239.151V245.744C35.9794 245.723 36.1746 245.7 36.3685 245.676C39.423 245.29 42.123 244.409 44.4685 243.031C46.9863 241.589 48.955 239.563 50.3742 236.953C51.7927 234.344 52.5023 231.15 52.5023 227.373C52.5023 224.283 51.9533 221.501 50.8546 219.029C49.756 216.557 48.188 214.439 46.1513 212.676C44.114 210.937 41.6648 209.597 38.8037 208.659C35.966 207.743 32.796 207.286 29.2939 207.286H24.3158C20.8136 207.286 17.6326 207.743 14.7714 208.659C11.9332 209.597 9.49566 210.925 7.45835 212.642C5.44449 214.359 3.88823 216.408 2.7896 218.789C1.69097 221.192 1.14136 223.859 1.14136 226.789C1.14136 230.795 1.86264 234.137 3.30463 236.816C4.76947 239.494 6.74878 241.566 9.2437 243.031C11.5834 244.405 14.2148 245.285 17.138 245.673C17.332 245.699 17.5271 245.722 17.724 245.744V239.151C15.3896 238.785 13.3869 238.166 11.7158 237.297C10.0447 236.449 8.76322 235.19 7.87084 233.519C6.97787 231.848 6.5314 229.605 6.5314 226.789C6.5314 224.569 6.9896 222.646 7.90483 221.02ZM2.25405 264.838L2.25464 264.836C3.38901 262.307 5.03198 260.109 7.17769 258.246L7.18003 258.244C9.32866 256.402 11.9273 254.982 14.9648 253.977C18.0105 252.97 21.4382 252.471 25.2427 252.471H28.4015C32.2042 252.471 35.6203 252.958 38.642 253.942L38.6449 253.943C41.6812 254.948 44.2793 256.367 46.4273 258.208C48.5976 260.048 50.2541 262.236 51.389 264.767L51.3902 264.769C52.5252 267.323 53.0882 270.118 53.0882 273.145C53.0882 276.261 52.5257 279.092 51.389 281.626C50.2541 284.179 48.5982 286.367 46.4267 288.186C44.2769 290.027 41.6771 291.425 38.6384 292.383C35.6173 293.366 32.2025 293.852 28.4015 293.852H25.2427C21.4412 293.852 18.0152 293.378 14.973 292.418C11.9337 291.459 9.33335 290.074 7.18296 288.254C5.03374 286.436 3.3896 284.247 2.25464 281.695C1.11792 279.16 0.55542 276.33 0.55542 273.214C0.55542 270.186 1.11909 267.392 2.25405 264.838ZM2.7896 281.454C3.88823 283.927 5.47847 286.044 7.56148 287.807C9.64448 289.57 12.1734 290.921 15.1488 291.859C18.1248 292.798 21.4892 293.266 25.2427 293.266H28.4015C32.155 293.266 35.5078 292.786 38.4609 291.825C41.4363 290.886 43.9652 289.524 46.0482 287.738C48.1541 285.976 49.756 283.858 50.8546 281.386C51.9533 278.936 52.5023 276.19 52.5023 273.145C52.5023 270.192 51.9533 267.479 50.8546 265.007C49.756 262.557 48.1541 260.44 46.0482 258.654C43.9652 256.869 41.4363 255.484 38.4609 254.499C35.5078 253.538 32.155 253.057 28.4015 253.057H25.2427C21.4892 253.057 18.1248 253.55 15.1488 254.534C12.1734 255.518 9.64448 256.903 7.56148 258.689C5.47847 260.498 3.88823 262.626 2.7896 265.076C1.69097 267.548 1.14136 270.261 1.14136 273.214C1.14136 276.258 1.69097 279.005 2.7896 281.454ZM36.2138 285.216L36.2191 285.214C38.4492 284.634 40.299 283.782 41.7826 282.668C43.2656 281.556 44.3818 280.199 45.1406 278.595L45.1418 278.592C45.9 277.011 46.2861 275.199 46.2861 273.145C46.2861 271.163 45.9011 269.386 45.1423 267.802C44.3841 266.243 43.2673 264.894 41.7796 263.756C40.2931 262.642 38.441 261.767 36.2085 261.142C33.982 260.518 31.405 260.202 28.4701 260.202H25.2427C22.2849 260.202 19.6839 260.518 17.4339 261.142C15.2044 261.767 13.3412 262.653 11.8318 263.79C10.3429 264.951 9.22553 266.311 8.46733 267.871C7.70854 269.454 7.32358 271.231 7.32358 273.214C7.32358 275.292 7.7103 277.114 8.46733 278.695C9.22553 280.275 10.34 281.609 11.8224 282.699L11.8236 282.7C13.3318 283.815 15.1945 284.668 17.4251 285.248C19.6787 285.829 22.282 286.122 25.2427 286.122H28.4701C31.4062 286.122 33.9855 285.817 36.2138 285.216ZM17.2775 285.816C14.9888 285.22 13.0546 284.339 11.4755 283.172C9.91928 282.027 8.74038 280.619 7.9394 278.948C7.13842 277.277 6.73764 275.366 6.73764 273.214C6.73764 271.153 7.13842 269.288 7.9394 267.617C8.74038 265.968 9.91928 264.538 11.4755 263.324C13.0546 262.134 14.9888 261.218 17.2775 260.577C19.5896 259.937 22.2445 259.616 25.2427 259.616H28.4701C31.4455 259.616 34.0775 259.937 36.3662 260.577C38.6554 261.218 40.5779 262.123 42.1341 263.29C43.6904 264.48 44.8693 265.9 45.6703 267.548C46.4712 269.219 46.872 271.085 46.872 273.145C46.872 275.274 46.4712 277.174 45.6703 278.845C44.8693 280.539 43.6904 281.97 42.1341 283.137C40.5779 284.305 38.6554 285.186 36.3662 285.781C34.0775 286.399 31.4455 286.708 28.4701 286.708H25.2427C22.2445 286.708 19.5896 286.41 17.2775 285.816ZM52.4021 302.604H1.24214V310.369H21.3374H21.3468L39.0392 309.831L1.24214 325.149V330.952L38.9935 346.304L21.3468 345.767L21.3374 345.766H1.24214V353.531H52.4021V344.033L12.6363 328.085L52.4021 312.102V302.604ZM51.8162 303.19H1.82807V309.783H21.3287L42.2894 309.145L1.82807 325.544V330.557L42.2332 346.988L21.3287 346.352H1.82807V352.945H51.8162V344.43L11.0636 328.085L51.8162 311.706V303.19ZM52.4021 364H1.24214V371.765H21.3374L21.3468 371.764L39.0392 371.226L1.24214 386.544V392.347L38.9935 407.699L21.3468 407.163L21.3374 407.162H1.24214V414.927H52.4021V405.429L12.6363 389.48L52.4021 373.498V364ZM51.8162 364.586H1.82807V371.179H21.3287L42.2894 370.541L1.82807 386.939V391.953L42.2332 408.384L21.3287 407.748H1.82807V414.341H51.8162V405.825L11.0636 389.48L51.8162 373.102V364.586ZM52.4021 453.999V461.764H17.9988C14.158 461.764 10.9125 460.908 8.29976 459.157C5.71343 457.425 3.76518 455.12 2.46206 452.252L2.46089 452.25C1.18882 449.422 0.55542 446.352 0.55542 443.047C0.55542 439.586 1.18706 436.436 2.46089 433.604L2.46323 433.599C3.7687 430.775 5.71929 428.525 8.30913 426.862L8.31264 426.86C10.9236 425.207 14.1638 424.4 17.9988 424.4H52.4021V432.13H17.9988C15.4576 432.13 13.4138 432.599 11.8335 433.496C10.2415 434.4 9.06792 435.65 8.29683 437.255C7.51636 438.903 7.11734 440.829 7.11734 443.047C7.11734 445.29 7.51694 447.214 8.29565 448.837L8.29683 448.84C9.0691 450.469 10.2433 451.73 11.8335 452.633C13.4138 453.53 15.4576 453.999 17.9988 453.999H52.4021ZM7.76772 437.004C8.59155 435.287 9.85015 433.948 11.5441 432.986C13.238 432.025 15.3896 431.544 17.9988 431.544H51.8162V424.986H17.9988C14.2447 424.986 11.1205 425.776 8.62612 427.355C6.13119 428.957 4.25444 431.121 2.99526 433.845C1.75952 436.592 1.14136 439.659 1.14136 443.047C1.14136 446.275 1.75952 449.262 2.99526 452.009C4.25444 454.779 6.13119 457 8.62612 458.671C11.1205 460.342 14.2447 461.177 17.9988 461.177H51.8162V454.585H17.9988C15.3896 454.585 13.238 454.104 11.5441 453.142C9.85015 452.181 8.59155 450.831 7.76772 449.091C6.94331 447.374 6.5314 445.359 6.5314 443.047C6.5314 440.758 6.94331 438.744 7.76772 437.004ZM52.4021 510.623H1.24214V503.063L38.4134 478.795H1.24214V470.996H52.4021V478.526L15.1253 502.895H52.4021V510.623ZM13.1578 503.479L51.8162 478.209V471.582H1.82807V478.209H40.3834L1.82807 503.38V510.037H51.8162V503.479H13.1578ZM52.4021 529.476H1.24214V521.675H52.4021V529.476ZM51.8162 535.828H46.3916V551.862H1.82807V558.384H46.3916V574.459H51.8162V535.828ZM45.8056 558.97H1.24214V551.276H45.8056V535.242H52.4021V575.045H45.8056V558.97ZM52.4021 585.078L27.9931 597.707L52.4021 610.359V619.232L20.3543 601.586H1.24214V593.786H20.3543L52.4021 576.147V585.078ZM20.5048 594.372H1.82807V601H20.5048L51.8162 618.235V610.717L26.7187 597.701L51.8162 584.726V577.137L20.5048 594.372ZM51.8162 528.89V522.261H1.82807V528.89H51.8162Z" fill="#F6BC54"/>
</svg>
