<svg width="28" height="12" viewBox="0 0 28 12" fill="none" xmlns="http://www.w3.org/2000/svg">
<path fill-rule="evenodd" clip-rule="evenodd" d="M1.55298 0.956172V2.0404H4.75983V10.954H6.06414V2.0404H9.278V0.956172H1.55298ZM6.65007 2.62643V11.54H4.17389V2.62643H0.967041V0.370135H9.86393V2.62643H6.65007ZM14.2216 0.956172L18.046 10.954H16.6866L15.7344 8.34029H11.5532L10.6028 10.954H9.25046L13.0614 0.956172H14.2216ZM11.9475 7.2502H15.3395L13.6415 2.58537L11.9475 7.2502ZM13.6421 4.30242L12.7837 6.66416H14.5028L13.6421 4.30242ZM12.6577 0.370135L8.3997 11.54H11.0136L11.9639 8.92633H15.3243L16.2765 11.54H18.8979L17.1009 6.84V6.66416H17.0335L14.6247 0.370135H12.6577ZM27.2768 5.38664V9.81711L27.1766 9.96362C27.0108 10.2098 26.7688 10.4559 26.4794 10.702H26.4747C26.1343 10.9892 25.6925 11.2118 25.178 11.3935L25.1745 11.3994C24.6184 11.5928 23.9376 11.6748 23.1548 11.6748C22.4774 11.6748 21.8399 11.5577 21.2499 11.3174H21.244C20.6587 11.0654 20.1483 10.7079 19.7165 10.239L19.7118 10.2332C19.2835 9.75849 18.9583 9.18995 18.7292 8.53945L18.7274 8.53373C18.5018 7.87151 18.394 7.13896 18.394 6.33609V5.56248C18.394 4.77133 18.486 4.05054 18.6794 3.40004L18.6805 3.39418C18.8786 2.74368 19.1739 2.17514 19.5747 1.70045C19.9778 1.21404 20.4747 0.844905 21.0571 0.59877C21.6413 0.346774 22.294 0.229492 23.0036 0.229492C23.8315 0.229492 24.5681 0.376024 25.1862 0.692484C25.7909 0.997223 26.2761 1.43087 26.6241 1.9876C26.9651 2.52676 27.1784 3.13629 27.2716 3.79851L27.3647 4.46653H24.8686L24.7878 3.97435C24.7397 3.68133 24.6448 3.42343 24.5065 3.19487L24.503 3.18901C24.3864 2.98975 24.2177 2.81975 23.978 2.69082L23.9727 2.68495C23.7624 2.56774 23.4518 2.48579 23.0036 2.48579C22.6128 2.48579 22.3057 2.56188 22.0643 2.67909C21.8147 2.80801 21.6102 2.98392 21.4456 3.21834C21.2745 3.46447 21.1362 3.775 21.0401 4.16764C20.9476 4.56615 20.8983 5.02332 20.8983 5.55075V6.33609C20.8983 6.86938 20.9593 7.32641 21.0729 7.71906C21.1919 8.1117 21.3554 8.42824 21.5546 8.68024C21.7526 8.93223 21.9817 9.11388 22.2442 9.23694C22.5114 9.36001 22.8143 9.42437 23.1618 9.42437C23.6048 9.42437 23.9294 9.38926 24.1544 9.33066C24.4099 9.26033 24.5716 9.18409 24.6659 9.12549C24.7122 9.09033 24.7526 9.06108 24.7866 9.03177V7.63121H22.4727V5.38664H27.2768ZM25.3725 7.04517V9.28373C25.2858 9.38336 25.1599 9.49473 24.9952 9.60608C24.8306 9.71743 24.6015 9.81119 24.3085 9.8991C24.0155 9.97528 23.6335 10.0104 23.1618 10.0104C22.7358 10.0104 22.3468 9.92841 21.9946 9.76432C21.6466 9.60023 21.3466 9.35997 21.0952 9.04351C20.8433 8.72705 20.6487 8.34027 20.511 7.88316C20.3786 7.43192 20.3124 6.91627 20.3124 6.33609V5.55075C20.3124 4.98816 20.3645 4.47825 20.47 4.03286C20.5802 3.58162 20.7448 3.20072 20.9645 2.88426C21.1843 2.5678 21.4637 2.32753 21.8024 2.15758C22.1411 1.98763 22.5413 1.89975 23.0036 1.89975C23.5163 1.89975 23.9352 1.9935 24.2604 2.17517C24.5856 2.35685 24.8346 2.59124 25.0087 2.89012C25.1874 3.189 25.3063 3.51715 25.3661 3.88049H26.6909C26.6628 3.67538 26.6223 3.48198 26.569 3.29445C26.4671 2.93697 26.3206 2.60296 26.1278 2.29822C25.8395 1.84111 25.437 1.47771 24.9196 1.21399C24.4069 0.950277 23.7682 0.815529 23.0036 0.815529C22.3585 0.815529 21.786 0.926904 21.2874 1.13788C20.7882 1.34885 20.3669 1.65951 20.0235 2.07559C19.6807 2.47996 19.4194 2.97797 19.2413 3.56401C19.0673 4.15004 18.9799 4.81822 18.9799 5.56248V6.33609C18.9799 7.08622 19.0808 7.75426 19.2823 8.34616C19.488 8.93219 19.7768 9.43035 20.1471 9.84058C20.5227 10.2508 20.9645 10.5613 21.4725 10.7782C21.9852 10.9833 22.546 11.0888 23.1548 11.0888C23.9012 11.0888 24.51 11.0068 24.9811 10.8427C25.4575 10.6727 25.8307 10.4793 26.1009 10.2508C26.3704 10.0222 26.5673 9.81708 26.6909 9.63541V5.97268H23.0587V7.04517H25.3725Z" fill="white"/>
</svg>
