<svg width="36" height="36" viewBox="0 0 36 36" fill="none" xmlns="http://www.w3.org/2000/svg">
<path fill-rule="evenodd" clip-rule="evenodd" d="M0.330442 35.6696C0.542089 35.8811 0.829104 36 1.12837 36C1.42764 36 1.71465 35.8811 1.9263 35.6696L11.1719 26.424V32.672C11.1719 32.9713 11.2908 33.2584 11.5025 33.47C11.7141 33.6817 12.0012 33.8006 12.3005 33.8006C12.5998 33.8006 12.8869 33.6817 13.0986 33.47C13.3102 33.2584 13.4291 32.9713 13.4291 32.672V23.6995C13.4291 23.4002 13.3102 23.1131 13.0986 22.9014C12.8869 22.6898 12.5998 22.5709 12.3005 22.5709H3.32804C3.02871 22.5709 2.74164 22.6898 2.52999 22.9014C2.31833 23.1131 2.19942 23.4002 2.19942 23.6995C2.19942 23.9988 2.31833 24.2859 2.52999 24.4975C2.74164 24.7092 3.02871 24.8281 3.32804 24.8281H9.57604L0.330442 34.0737C0.11886 34.2853 0 34.5724 0 34.8716C0 35.1709 0.11886 35.4579 0.330442 35.6696ZM35.6696 0.330442C35.4579 0.11886 35.1709 0 34.8716 0C34.5724 0 34.2853 0.11886 34.0737 0.330442L24.8281 9.57604V3.32804C24.8281 3.02871 24.7092 2.74164 24.4975 2.52999C24.2859 2.31833 23.9988 2.19942 23.6995 2.19942C23.4002 2.19942 23.1131 2.31833 22.9014 2.52999C22.6898 2.74164 22.5709 3.02871 22.5709 3.32804V12.3005C22.5709 12.5998 22.6898 12.8869 22.9014 13.0986C23.1131 13.3102 23.4002 13.4291 23.6995 13.4291H32.672C32.9713 13.4291 33.2584 13.3102 33.47 13.0986C33.6817 12.8869 33.8006 12.5998 33.8006 12.3005C33.8006 12.0012 33.6817 11.7141 33.47 11.5025C33.2584 11.2908 32.9713 11.1719 32.672 11.1719H26.424L35.6696 1.9263C35.8811 1.71465 36 1.42764 36 1.12837C36 0.829104 35.8811 0.542089 35.6696 0.330442Z" fill="#F6BC54"/>
</svg>
