<svg width="87" height="81" viewBox="0 0 87 81" fill="none" xmlns="http://www.w3.org/2000/svg">
<g id="Frame" clip-path="url(#clip0_159_1563)">
<path id="Vector" d="M39.9058 9.81051C40.7639 9.70866 41.6188 9.552 42.4782 9.51524C51.0894 9.12819 57.3116 17.739 54.1815 25.7799C52.8789 29.1141 51.4659 32.4146 49.9759 35.6712C47.4338 41.2244 40.5125 43.8943 34.8043 41.5645C31.6557 40.2808 28.5167 38.9589 25.4195 37.5547C21.1638 35.63 18.7655 32.2617 18.412 27.6208C18.0537 22.9288 19.8303 19.151 23.814 16.5051C23.9501 16.3947 24.075 16.2711 24.187 16.1363L39.9058 9.81051Z" fill="#E6E6E6"/>
<path id="Vector_2" d="M77.8337 33.6516C77.8972 34.4378 78.0053 35.2185 78.021 36.0022C78.0364 38.1709 77.356 40.2874 76.0796 42.0408C74.8031 43.7942 72.998 45.0919 70.9295 45.7435C66.4628 47.104 61.6568 45.3946 59.2349 41.5799C56.153 36.7226 57.4285 30.4427 62.2644 27.3851C66.6173 24.6248 72.9326 25.0805 76.3339 30.4368C76.442 30.5792 76.5631 30.7113 76.6956 30.8314L77.8337 33.6516Z" fill="#E6E6E6"/>
<path id="Vector_3" d="M18.6616 44.8044C24.0705 42.6277 29.7596 45.0807 31.9531 50.5234C34.0185 55.6555 31.4547 61.6359 26.285 63.732C21.1153 65.8281 15.0107 63.2737 12.9609 58.1103C10.8105 52.6659 13.2479 46.9769 18.6616 44.8044Z" fill="#E6E6E6"/>
<path id="Vector_4" d="M40.8439 61.9098C38.7198 56.9574 41.1806 50.8686 46.1705 48.7294C51.4609 46.4598 57.4585 48.7794 59.7294 53.9724C60.2808 55.2083 60.5782 56.5425 60.604 57.8956C60.6298 59.2488 60.3835 60.5933 59.8796 61.8494C59.3758 63.1055 58.6247 64.2475 57.6709 65.2078C56.7172 66.168 55.5802 66.9267 54.3276 67.439C48.9448 69.7271 43.1934 67.3678 40.8439 61.9098Z" fill="#E6E6E6"/>
</g>
<defs>
<clipPath id="clip0_159_1563">
<rect width="69.302" height="58.846" fill="white" transform="translate(86.2606 54.5912) rotate(158.078)"/>
</clipPath>
</defs>
</svg>
