<svg width="39" height="37" viewBox="0 0 39 37" fill="none" xmlns="http://www.w3.org/2000/svg">
<g opacity="0.5">
<g clip-path="url(#clip0_198_7825)">
<path d="M22.6895 29.6225C22.3726 29.7237 22.061 29.8455 21.7389 29.9223C18.5128 30.6988 15.5311 27.8999 16.1256 24.6319C16.3739 23.2765 16.6664 21.9257 16.9912 20.5859C17.5455 18.3012 19.9658 16.7856 22.2937 17.2484C23.5775 17.5031 24.8606 17.7729 26.1339 18.077C27.8831 18.4929 29.036 19.5904 29.5092 21.3184C29.988 23.0655 29.593 24.6232 28.2811 25.9147C28.2378 25.9664 28.1996 26.0222 28.1672 26.0814L22.6895 29.6225Z" fill="white"/>
<path d="M6.61065 23.3879C6.52912 23.0954 6.43111 22.8083 6.36786 22.5133C6.2033 21.6948 6.30557 20.8451 6.65964 20.089C7.01372 19.333 7.60094 18.7104 8.33503 18.3128C9.92355 17.4717 11.865 17.766 13.0595 19.0305C14.5797 20.6406 14.5572 23.1074 12.9534 24.6168C11.5103 25.9785 9.09019 26.2685 7.41275 24.4931C7.36146 24.4472 7.30603 24.4062 7.24717 24.3705L6.61065 23.3879Z" fill="white"/>
<path d="M28.1573 14.8426C26.2724 16.0611 23.9428 15.5504 22.7155 13.6539C21.5594 11.8655 22.0906 9.41774 23.891 8.24723C25.6914 7.07672 28.1854 7.59534 29.338 9.3967C30.5492 11.2969 30.0443 13.6254 28.1573 14.8426Z" fill="white"/>
<path d="M18.5221 10.0014C19.6873 11.7176 19.2029 14.1988 17.4736 15.3725C15.6404 16.6174 13.2039 16.1797 11.9656 14.3833C11.6668 13.9566 11.4568 13.4741 11.348 12.9646C11.2392 12.4551 11.2339 11.929 11.3324 11.4174C11.4309 10.9058 11.6312 10.4192 11.9214 9.98651C12.2115 9.55382 12.5857 9.18385 13.0216 8.89856C14.8885 7.63992 17.2347 8.11066 18.5221 10.0014Z" fill="white"/>
</g>
</g>
<defs>
<clipPath id="clip0_198_7825">
<rect width="26.6778" height="22.6527" fill="white" transform="translate(1.89346 16.0911) rotate(-32.8811)"/>
</clipPath>
</defs>
</svg>
