<svg width="44" height="44" viewBox="0 0 44 44" fill="none" xmlns="http://www.w3.org/2000/svg">
<g opacity="0.5">
<g clip-path="url(#clip0_198_7831)">
<path d="M11.8731 28.7035C11.6802 28.4325 11.4694 28.1726 11.2983 27.8891C9.57753 25.052 11.3371 21.3603 14.6311 20.9328C15.9978 20.7572 17.3735 20.625 18.7486 20.5269C21.0938 20.3601 23.2736 22.205 23.5407 24.5633C23.6885 25.8638 23.8216 27.1681 23.9192 28.4736C24.0549 30.2664 23.36 31.6985 21.8577 32.6748C20.3391 33.6623 18.735 33.7597 17.1057 32.9027C17.0432 32.8771 16.9785 32.8578 16.9122 32.8448L11.8731 28.7035Z" fill="white"/>
<path d="M12.9225 11.4902C13.1764 11.3236 13.4201 11.1429 13.6819 10.9929C14.4116 10.5873 15.2521 10.4263 16.0801 10.5337C16.908 10.641 17.6797 11.0111 18.2817 11.5895C19.566 12.847 19.8761 14.786 19.0348 16.3084C17.9632 18.2463 15.6065 18.9751 13.6807 17.9062C11.9446 16.9456 10.9325 14.7283 12.1136 12.5904C12.1417 12.5276 12.164 12.4623 12.1801 12.3954L12.9225 11.4902Z" fill="white"/>
<path d="M27.6158 29.4176C25.8818 27.9926 25.6599 25.618 27.0932 23.8721C28.4454 22.2268 30.9388 21.9885 32.6013 23.3476C34.2639 24.7068 34.5283 27.2404 33.1628 28.8862C31.7209 30.6179 29.3493 30.845 27.6158 29.4176Z" fill="white"/>
<path d="M29.2976 18.7664C28.017 20.3984 25.506 20.6915 23.862 19.401C22.1186 18.0332 21.7946 15.5791 23.1293 13.8531C23.445 13.4387 23.8407 13.0918 24.293 12.8333C24.7453 12.5747 25.2449 12.4096 25.7622 12.3479C26.2795 12.2861 26.804 12.3289 27.3044 12.4738C27.8048 12.6186 28.2711 12.8626 28.6754 13.1911C30.4422 14.5868 30.7073 16.965 29.2976 18.7664Z" fill="white"/>
</g>
</g>
<defs>
<clipPath id="clip0_198_7831">
<rect width="26.6778" height="22.6527" fill="white" transform="translate(18.4393 4.77734) rotate(39.4141)"/>
</clipPath>
</defs>
</svg>
