<svg width="750" height="637" viewBox="0 0 750 637" fill="none" xmlns="http://www.w3.org/2000/svg">
<g id="Frame" opacity="0.3" clip-path="url(#clip0_159_1317)">
<path id="Vector" d="M286.119 635.296C277.132 632.897 267.96 631.06 259.221 628.005C171.575 597.586 143.647 486.709 206.964 418.771C233.266 390.619 260.537 363.244 288.403 336.614C335.934 291.209 415.772 292.073 463.572 338.099C489.944 363.472 516.067 389.189 541.444 415.563C576.334 451.754 586.902 494.985 571.956 542.797C556.856 591.139 524.048 621.839 473.679 632.434C471.879 632.996 470.138 633.733 468.481 634.635L286.119 635.296Z" fill="#E6E6E6"/>
<path id="Vector_2" d="M1.80758 245.878C4.30323 237.764 6.33081 229.527 9.29485 221.629C17.776 199.882 33.0079 181.428 52.7528 168.979C72.4977 156.53 95.7147 150.741 118.993 152.463C169.073 156.645 210.322 192.875 219.349 240.663C230.823 301.503 193.063 359.218 132.533 370.535C78.017 380.801 16.6846 351.097 4.00317 283.995C3.48894 282.141 2.80401 280.338 1.9573 278.61L1.80758 245.878Z" fill="#E6E6E6"/>
<path id="Vector_3" d="M637.885 369.982C575.134 370.209 528.016 323.027 527.756 259.871C527.54 200.33 576.988 150.741 637.027 150.367C697.066 149.994 747.935 199.844 747.871 259.635C747.694 322.637 700.668 369.816 637.885 369.982Z" fill="#E6E6E6"/>
<path id="Vector_4" d="M484.195 110.614C485.715 168.591 436.864 219.675 378.45 221.196C316.514 222.823 265.78 175.747 263.751 114.779C263.16 100.225 265.498 85.7003 270.628 72.0675C275.758 58.4346 283.575 45.9715 293.615 35.4181C303.655 24.8646 315.713 16.4358 329.073 10.6323C342.433 4.82892 356.823 1.76927 371.389 1.63458C434.323 0.190758 482.436 46.6831 484.195 110.614Z" fill="#E6E6E6"/>
</g>
<defs>
<clipPath id="clip0_159_1317">
<rect width="745.884" height="633.348" fill="white" transform="translate(0.927246 2.9458) rotate(-0.207626)"/>
</clipPath>
</defs>
</svg>
