<svg width="70" height="60" viewBox="0 0 70 60" fill="none" xmlns="http://www.w3.org/2000/svg">
<g id="Frame" clip-path="url(#clip0_1190_7)">
<path id="Vector" d="M43.3102 0.75368C44.1457 0.974314 44.9984 1.14274 45.8111 1.42434C53.9621 4.22865 56.5849 14.5234 50.7191 20.8516C48.2824 23.4739 45.7554 26.0242 43.173 28.5055C38.7682 32.7361 31.35 32.6759 26.8973 28.4116C24.4407 26.0607 22.007 23.6779 19.6425 21.2338C16.3918 17.88 15.399 13.8659 16.7756 9.41987C18.1664 4.92446 21.2069 2.06382 25.8842 1.0668C26.0513 1.01414 26.2129 0.945149 26.3666 0.860935L43.3102 0.75368Z" fill="#E6E6E6"/>
<path id="Vector_2" d="M69.824 36.8639C69.5942 37.6184 69.4079 38.3843 69.1345 39.1188C68.3519 41.1415 66.9413 42.8599 65.1099 44.0216C63.2785 45.1832 61.1228 45.7269 58.9595 45.5728C54.3054 45.1968 50.4638 41.8409 49.6131 37.4032C48.5317 31.7532 52.0256 26.3814 57.6466 25.3146C62.7093 24.347 68.4153 27.0915 69.6104 33.3229C69.6587 33.4951 69.7228 33.6624 69.8019 33.8228L69.824 36.8639Z" fill="#E6E6E6"/>
<path id="Vector_3" d="M10.6934 25.4931C16.5238 25.4562 20.9135 29.8281 20.9535 35.6961C20.9885 41.2281 16.4066 45.848 10.8284 45.8977C5.25013 45.9475 0.511257 41.3287 0.502159 35.7733C0.502757 29.9196 4.86016 25.5242 10.6934 25.4931Z" fill="#E6E6E6"/>
<path id="Vector_4" d="M25.0383 49.5529C24.8826 44.1665 29.4086 39.4079 34.8355 39.2519C40.5897 39.0851 45.3154 43.4462 45.5192 49.1104C45.5779 50.4625 45.3642 51.8127 44.891 53.0806C44.4178 54.3486 43.6946 55.5085 42.7645 56.4916C41.8343 57.4746 40.7161 58.2608 39.4762 58.8034C38.2364 59.346 36.9001 59.6338 35.5468 59.65C29.6999 59.8 25.2178 55.4924 25.0383 49.5529Z" fill="#E6E6E6"/>
</g>
<defs>
<clipPath id="clip0_1190_7">
<rect width="69.302" height="58.846" fill="white" transform="translate(69.9669 59.4351) rotate(179.637)"/>
</clipPath>
</defs>
</svg>
