<svg width="361" height="310" viewBox="0 0 361 310" fill="none" xmlns="http://www.w3.org/2000/svg">
<g id="Group 419">
<path id="Vector" d="M63.7322 106.033C60.0446 106.041 56.5102 107.511 53.9027 110.122C51.2951 112.733 49.8268 116.271 49.819 119.964C44.533 158.937 42.7701 198.308 44.5518 237.599C44.655 240.11 44.7731 242.4 44.9058 244.616C45.1124 248.265 45.3485 252.135 45.6583 256.094C45.8206 258.428 45.9977 260.763 46.2042 263.097C46.5288 266.893 46.8829 270.764 47.2813 274.575C47.5174 276.909 47.7681 279.258 48.0337 281.592C48.5501 286.172 49.1403 290.869 49.819 295.951C49.8151 297.784 50.172 299.599 50.8693 301.293C51.5666 302.988 52.5906 304.528 53.8827 305.826C55.1749 307.124 56.7098 308.154 58.3999 308.857C60.0899 309.561 61.9019 309.924 63.7322 309.926H296.981C300.666 309.922 304.199 308.455 306.804 305.846C309.41 303.237 310.876 299.7 310.88 296.01V295.907C311.912 291.18 312.886 286.349 313.83 281.563C314.288 279.036 314.686 276.747 315.055 274.545C315.704 270.557 316.294 266.701 316.781 263.082C317.121 260.644 317.43 258.281 317.681 256.065C318.124 252.431 318.507 248.678 318.891 244.601C319.098 242.37 319.275 240.081 319.466 237.584C322.317 198.201 319.449 158.612 310.953 120.052V119.964C310.949 116.273 309.484 112.734 306.879 110.123C304.274 107.511 300.741 106.041 297.055 106.033H63.7322Z" fill="#3F3D56"/>
<path id="Vector_2" d="M189.408 165.641C138.875 165.641 85.3175 161.047 15.3089 151.843C11.6772 151.835 8.17596 150.487 5.47546 148.055C2.77497 145.624 1.06492 142.281 0.672701 138.666C0.601564 138.122 0.567094 137.575 0.569456 137.026V94.8057C0.562134 94.7172 0.562134 94.6283 0.569456 94.5398C0.650139 90.6677 2.23736 86.9799 4.99314 84.2621C7.74893 81.5442 11.4556 80.0108 15.3236 79.9886C137.252 63.384 211.333 63.384 345.507 79.9886C349.39 79.9883 353.116 81.5205 355.878 84.2527C358.64 86.9849 360.215 90.6969 360.262 94.584C360.269 94.6577 360.269 94.732 360.262 94.8057V137.026C360.262 137.574 360.232 138.121 360.173 138.666C359.779 142.301 358.052 145.661 355.326 148.095C352.601 150.529 349.071 151.865 345.419 151.843C287.45 161.047 239.927 165.641 189.408 165.641Z" fill="#F6BC54"/>
<path id="Vector_3" d="M197.508 194.965H166.849C162.936 194.965 159.183 193.408 156.416 190.638C153.649 187.868 152.095 184.11 152.095 180.192V68.6137C152.095 64.6957 153.649 60.9382 156.416 58.1678C159.183 55.3974 162.936 53.8409 166.849 53.8409H197.508C201.421 53.8409 205.174 55.3974 207.941 58.1678C210.708 60.9382 212.263 64.6957 212.263 68.6137V180.163C212.266 182.105 211.888 184.029 211.148 185.825C210.408 187.621 209.322 189.253 207.952 190.628C206.581 192.002 204.953 193.093 203.161 193.837C201.369 194.582 199.448 194.965 197.508 194.965Z" fill="#3F3D56"/>
<path id="Vector_4" d="M267.133 32.5977C266.909 30.5068 266.519 28.4371 265.968 26.4079C265.362 24.3832 264.602 22.4078 263.696 20.4988C260.41 13.4921 254.893 7.77636 248.012 4.24883C239.455 0.0386053 229.672 -0.3012 220.481 1.72266C212.75 3.46126 205.49 6.8639 199.205 11.6943C195.956 14.1519 192.987 16.961 190.353 20.0705C187.324 24.2352 184.592 28.609 182.179 33.1591C179.314 26.6399 175.198 20.7474 170.066 15.8159C164.105 10.1558 156.994 5.85226 149.218 3.19994C145.082 1.81118 140.79 0.938007 136.441 0.600012C131.837 0.22045 127.203 0.625042 122.734 1.7966C114.71 4.05777 107.769 9.14019 103.185 16.1114C98.8301 22.5958 96.6921 30.3189 97.0913 38.1227C97.3087 42.0633 98.1556 45.9437 99.5996 49.6159C100.387 51.5782 101.309 53.4835 102.359 55.3182C103.451 57.152 104.674 58.9047 106.018 60.5625C111.274 67.0318 118.361 71.759 126.349 74.1239C134.908 76.5478 143.895 77.0522 152.67 75.6011C161.626 74.1122 170.389 71.635 178.8 68.2148L182.193 66.9147C189.674 69.9679 197.366 72.4711 205.21 74.4045C214.086 76.5469 223.296 76.9135 232.313 75.483C240.719 74.1068 248.533 70.2843 254.784 64.4921C260.57 59.0409 264.62 52.0003 266.425 44.2534C267.316 40.436 267.556 36.4951 267.133 32.5977ZM150.31 66.9295C145.444 67.5278 140.524 67.5278 135.659 66.9295C132.168 66.425 128.747 65.5179 125.464 64.2262C117.734 61.0216 111.561 54.92 108.26 47.2228C107.281 44.7893 106.583 42.2515 106.18 39.6591C105.929 37.3515 105.929 35.0235 106.18 32.7159C106.561 30.2914 107.215 27.9176 108.127 25.6397C109.115 23.4197 110.342 21.3144 111.787 19.3613C113.186 17.6156 114.769 16.0258 116.508 14.6193C118.153 13.4001 119.924 12.3601 121.79 11.517C124.021 10.6455 126.342 10.0261 128.71 9.6704C131.91 9.28629 135.144 9.28629 138.344 9.6704C142.154 10.2508 145.883 11.2772 149.454 12.7284C153.252 14.3839 156.842 16.4813 160.151 18.9773C163.208 21.398 165.975 24.164 168.398 27.2204C170.812 30.4128 172.834 33.8848 174.418 37.5613C175.963 41.4032 177.048 45.415 177.649 49.5125C177.414 51.5723 177.296 53.6438 177.295 55.7171C177.295 56.5148 177.295 57.3125 177.369 58.1103C176.989 58.472 176.675 58.8968 176.439 59.3659C170.188 61.82 163.781 63.8534 157.259 65.4523C154.987 66.1614 152.656 66.5898 150.31 66.9295ZM258.163 39.6591C257.753 42.25 257.055 44.787 256.082 47.2228C252.818 54.9514 246.65 61.085 238.909 64.3C235.625 65.5896 232.204 66.4967 228.713 67.0034C223.835 67.5796 218.904 67.5499 214.033 66.9147C205.415 65.4906 196.976 63.1379 188.862 59.8977L187.859 59.5137C187.63 59.0488 187.325 58.6246 186.959 58.2579C187.107 55.3699 187.018 52.4747 186.694 49.6011C187.295 45.5084 188.38 41.5016 189.925 37.6648C191.51 33.9915 193.526 30.5202 195.93 27.3238C198.362 24.2705 201.134 21.5049 204.192 19.0806C207.5 16.5847 211.091 14.4873 214.889 12.8318C218.455 11.3807 222.179 10.3543 225.984 9.77382C229.189 9.3898 232.428 9.3898 235.633 9.77382C237.996 10.1295 240.312 10.7489 242.538 11.6204C244.41 12.4601 246.186 13.5003 247.835 14.7227C249.574 16.1292 251.157 17.719 252.556 19.4647C254.001 21.4178 255.228 23.5231 256.215 25.7431C257.128 28.021 257.781 30.3948 258.163 32.8193C258.406 35.0928 258.406 37.3857 258.163 39.6591Z" fill="#3F3D56"/>
<path id="Vector_5" d="M88.8586 199.899C91.8328 199.899 94.2438 197.485 94.2438 194.507C94.2438 191.529 91.8328 189.115 88.8586 189.115C85.8843 189.115 83.4733 191.529 83.4733 194.507C83.4733 197.485 85.8843 199.899 88.8586 199.899Z" fill="#F6BC54"/>
<path id="Vector_6" d="M127.426 186.426C130.4 186.426 132.811 184.012 132.811 181.034C132.811 178.056 130.4 175.642 127.426 175.642C124.452 175.642 122.041 178.056 122.041 181.034C122.041 184.012 124.452 186.426 127.426 186.426Z" fill="#F6BC54"/>
<path id="Vector_7" d="M110.385 228.647C113.359 228.647 115.77 226.233 115.77 223.255C115.77 220.277 113.359 217.863 110.385 217.863C107.411 217.863 105 220.277 105 223.255C105 226.233 107.411 228.647 110.385 228.647Z" fill="#F6BC54"/>
<path id="Vector_8" d="M270.069 199.899C273.044 199.899 275.455 197.485 275.455 194.507C275.455 191.529 273.044 189.115 270.069 189.115C267.095 189.115 264.684 191.529 264.684 194.507C264.684 197.485 267.095 199.899 270.069 199.899Z" fill="#F6BC54"/>
<path id="Vector_9" d="M231.487 186.426C234.461 186.426 236.872 184.012 236.872 181.034C236.872 178.056 234.461 175.642 231.487 175.642C228.513 175.642 226.102 178.056 226.102 181.034C226.102 184.012 228.513 186.426 231.487 186.426Z" fill="#F6BC54"/>
<path id="Vector_10" d="M248.543 228.647C251.517 228.647 253.928 226.233 253.928 223.255C253.928 220.277 251.517 217.863 248.543 217.863C245.569 217.863 243.158 220.277 243.158 223.255C243.158 226.233 245.569 228.647 248.543 228.647Z" fill="#F6BC54"/>
<path id="Vector_11" d="M274.555 294.223C277.529 294.223 279.94 291.809 279.94 288.831C279.94 285.853 277.529 283.439 274.555 283.439C271.58 283.439 269.169 285.853 269.169 288.831C269.169 291.809 271.58 294.223 274.555 294.223Z" fill="#F6BC54"/>
<path id="Vector_12" d="M288.011 255.592C290.985 255.592 293.396 253.178 293.396 250.2C293.396 247.222 290.985 244.808 288.011 244.808C285.036 244.808 282.625 247.222 282.625 250.2C282.625 253.178 285.036 255.592 288.011 255.592Z" fill="#F6BC54"/>
<path id="Vector_13" d="M245.843 272.655C248.817 272.655 251.228 270.241 251.228 267.263C251.228 264.285 248.817 261.87 245.843 261.87C242.869 261.87 240.458 264.285 240.458 267.263C240.458 270.241 242.869 272.655 245.843 272.655Z" fill="#F6BC54"/>
<path id="Vector_14" d="M120.255 294.223C123.23 294.223 125.641 291.809 125.641 288.831C125.641 285.853 123.23 283.439 120.255 283.439C117.281 283.439 114.87 285.853 114.87 288.831C114.87 291.809 117.281 294.223 120.255 294.223Z" fill="#F6BC54"/>
<path id="Vector_15" d="M133.711 255.592C136.685 255.592 139.096 253.178 139.096 250.2C139.096 247.222 136.685 244.808 133.711 244.808C130.737 244.808 128.326 247.222 128.326 250.2C128.326 253.178 130.737 255.592 133.711 255.592Z" fill="#F6BC54"/>
<path id="Vector_16" d="M91.5437 272.655C94.5179 272.655 96.929 270.241 96.929 267.263C96.929 264.285 94.5179 261.87 91.5437 261.87C88.5695 261.87 86.1584 264.285 86.1584 267.263C86.1584 270.241 88.5695 272.655 91.5437 272.655Z" fill="#F6BC54"/>
<path id="Vector_17" d="M67.5239 117.482C67.1554 117.892 66.6427 118.144 66.0929 118.186C65.5431 118.227 64.9987 118.054 64.5731 117.703C64.3378 117.48 64.1505 117.211 64.0224 116.912C63.8944 116.614 63.8284 116.292 63.8284 115.968C63.8284 115.643 63.8944 115.321 64.0224 115.023C64.1505 114.724 64.3378 114.455 64.5731 114.232C67.1403 111.159 71.3748 114.409 71.9502 117.467C72.1608 118.961 71.9309 120.484 71.2887 121.848C70.6465 123.213 69.62 124.36 68.3354 125.149C66.8491 125.896 65.1733 126.179 63.5244 125.963C61.8755 125.747 60.3291 125.042 59.0845 123.937C53.8321 119.594 55.2632 110.908 61.0911 107.776C64.8091 105.767 69.5157 106.653 73.1895 108.323C77.3207 110.214 80.8617 113.109 84.683 115.517C93.0554 120.771 102.529 124.012 112.362 124.986C114.088 125.164 114.073 122.46 112.362 122.298C106.914 121.725 101.566 120.433 96.4569 118.457C91.401 116.405 86.6027 113.768 82.1601 110.598C77.7338 107.525 72.9682 104.526 67.4059 104.009C65.1602 103.745 62.8848 104.082 60.8113 104.985C58.7379 105.888 56.9406 107.325 55.6025 109.15C54.4108 110.781 53.6133 112.666 53.2728 114.658C52.9323 116.65 53.0581 118.693 53.6402 120.628C54.337 122.653 55.5576 124.457 57.1775 125.856C58.7974 127.255 60.7587 128.198 62.8616 128.591C64.8862 128.972 66.9792 128.712 68.849 127.846C70.7188 126.98 72.2722 125.552 73.2928 123.76C74.3849 122.03 74.8692 119.985 74.6687 117.949C74.4683 115.912 73.5946 114.001 72.1862 112.518C71.3008 111.612 70.19 110.959 68.9683 110.627C67.7467 110.294 66.4586 110.294 65.237 110.627C64.1126 111.007 63.1231 111.707 62.3895 112.641C61.6558 113.575 61.2098 114.703 61.1059 115.886C60.8108 120.481 67.3321 122.785 69.8256 118.841C70.7551 117.364 68.4239 116.019 67.5092 117.482H67.5239Z" fill="#3F3D56"/>
<path id="Vector_18" d="M297.675 117.482C298.043 117.892 298.556 118.144 299.106 118.186C299.655 118.227 300.2 118.054 300.625 117.703C300.859 117.479 301.044 117.209 301.171 116.911C301.298 116.612 301.363 116.292 301.363 115.968C301.363 115.643 301.298 115.323 301.171 115.024C301.044 114.726 300.859 114.456 300.625 114.232C298.058 111.159 293.809 114.409 293.248 117.467C293.037 118.962 293.268 120.487 293.913 121.852C294.559 123.218 295.589 124.364 296.878 125.149C298.364 125.896 300.04 126.179 301.689 125.963C303.338 125.747 304.884 125.042 306.129 123.937C311.381 119.594 309.95 110.908 304.107 107.776C300.389 105.767 295.683 106.653 292.024 108.323C287.892 110.214 284.337 113.109 280.515 115.517C272.145 120.775 262.67 124.017 252.837 124.986C251.11 125.164 251.125 122.46 252.837 122.298C258.284 121.725 263.632 120.433 268.742 118.457C273.799 116.408 278.598 113.771 283.038 110.598C287.538 107.525 292.23 104.526 297.793 104.009C300.038 103.748 302.312 104.086 304.385 104.989C306.458 105.892 308.256 107.327 309.596 109.15C310.781 110.784 311.575 112.669 311.916 114.66C312.256 116.65 312.134 118.693 311.558 120.628C310.856 122.653 309.632 124.456 308.01 125.854C306.388 127.252 304.426 128.196 302.322 128.591C300.298 128.972 298.205 128.712 296.335 127.846C294.465 126.98 292.911 125.552 291.891 123.76C290.801 122.029 290.319 119.983 290.522 117.946C290.725 115.91 291.602 113.999 293.012 112.518C293.894 111.612 295.003 110.959 296.222 110.626C297.441 110.294 298.727 110.294 299.947 110.627C301.073 111.004 302.065 111.703 302.799 112.637C303.533 113.572 303.978 114.701 304.078 115.886C304.373 120.481 297.852 122.785 295.358 118.841C294.429 117.364 296.76 116.019 297.689 117.482H297.675Z" fill="#3F3D56"/>
</g>
</svg>
