<svg width="557" height="429" viewBox="0 0 557 429" fill="none" xmlns="http://www.w3.org/2000/svg">
<g id="gift pic">
<path id="Vector" d="M373.266 120.797C385.217 88.6215 413.442 60.834 447.554 57.5249C427.04 88.6893 418.202 126.117 422.604 163.18C424.345 177.465 427.768 193.168 420.081 205.326C415.301 212.89 406.802 217.558 398.171 219.656C389.54 221.753 380.466 221.591 371.466 221.414L369.46 222.403C363.174 188.677 361.315 152.957 373.266 120.797Z" fill="#F0F0F0"/>
<path id="Vector_2" d="M447.731 58.2193C424.467 74.4868 406.915 97.6801 397.566 124.505C395.446 130.243 394.246 136.281 394.011 142.394C393.974 148.355 395.533 154.216 398.525 159.368C401.211 164.243 404.53 168.897 405.991 174.333C406.699 177.125 406.81 180.036 406.317 182.875C405.824 185.713 404.737 188.415 403.129 190.804C399.263 196.861 393.465 201.145 387.651 205.178C381.189 209.61 374.373 214.145 370.463 221.148C369.991 222.004 368.692 221.148 369.179 220.365C376.055 208.177 390.484 203.76 399.307 193.419C403.424 188.589 406.124 182.487 404.84 176.061C403.734 170.448 400.325 165.632 397.552 160.727C394.559 155.746 392.831 150.105 392.52 144.3C392.454 138.194 393.417 132.121 395.368 126.336C399.574 113.255 405.807 100.917 413.84 89.7739C422.938 77.0002 434.15 65.8785 446.993 56.8898C447.79 56.3432 448.468 57.6727 447.716 58.2193H447.731Z" fill="white"/>
<path id="Vector_3" d="M400.075 115.7C395.795 113.517 392.429 109.882 390.578 105.445C388.727 101.007 388.51 96.0553 389.968 91.4728C390.263 90.5421 391.709 90.9706 391.443 91.8865C390.078 96.1539 390.281 100.769 392.015 104.9C393.749 109.031 396.901 112.406 400.901 114.415C401.771 114.843 400.901 116.129 400.104 115.7H400.075Z" fill="white"/>
<path id="Vector_4" d="M396.843 157.093C406.203 154.126 414.105 147.739 418.975 139.203C419.462 138.361 420.745 139.203 420.258 140.001C415.177 148.865 406.949 155.489 397.212 158.556C396.283 158.851 395.943 157.374 396.858 157.078L396.843 157.093Z" fill="white"/>
<path id="Vector_5" d="M423.991 78.7091C425.471 79.9002 427.223 80.7046 429.09 81.0501C430.957 81.3956 432.881 81.2714 434.688 80.6886C435.617 80.3784 435.957 81.8557 435.042 82.1659C433.049 82.7957 430.932 82.9297 428.876 82.5565C426.819 82.1833 424.884 81.314 423.239 80.0238C423.076 79.9099 422.961 79.7393 422.918 79.5452C422.874 79.3512 422.904 79.1479 423.003 78.975C423.109 78.8078 423.276 78.6881 423.468 78.6413C423.661 78.5945 423.864 78.6241 424.035 78.7238L423.991 78.7091Z" fill="white"/>
<path id="Vector_6" d="M529.793 139.514L528.067 140.149C520.386 142.952 512.945 146.376 505.818 150.386C505.257 150.682 504.696 150.992 504.15 151.317C487.079 161.158 471.98 174.086 459.622 189.445C454.708 195.562 450.269 202.047 446.344 208.842C440.914 218.223 435.78 228.815 427.812 235.655C426.986 236.374 426.119 237.045 425.216 237.664L370.832 224.782L370.492 224.516L368.309 224.102L368.855 222.994L369.164 222.359L369.371 221.96C369.389 221.913 369.414 221.868 369.445 221.827L369.622 221.458C370.684 219.36 371.771 217.272 372.883 215.194C381.161 199.201 391.31 184.249 403.114 170.655C403.483 170.256 403.837 169.842 404.22 169.443C409.601 163.472 415.458 157.948 421.734 152.927C425.182 150.187 428.767 147.623 432.475 145.245C442.064 139.126 452.554 134.555 463.562 131.699C485.501 126.011 509.005 127.415 528.362 138.642L529.793 139.514Z" fill="#F0F0F0"/>
<path id="Vector_7" d="M529.513 140.179C501.157 139.148 473.198 147.087 449.604 162.869C444.466 166.178 439.881 170.276 436.016 175.012C432.41 179.745 430.128 185.354 429.406 191.262C428.639 196.773 428.476 202.49 426.381 207.705C425.271 210.362 423.611 212.754 421.51 214.722C419.409 216.69 416.916 218.191 414.194 219.124C407.466 221.635 400.252 221.576 393.199 221.281C385.365 220.941 377.22 220.468 369.858 223.674C368.973 224.058 368.382 222.655 369.312 222.197C382.119 216.613 396.297 221.783 409.576 218.843C415.758 217.469 421.586 214.219 424.434 208.325C426.912 203.169 427.089 197.275 427.827 191.691C428.447 185.902 430.474 180.354 433.729 175.53C437.346 170.617 441.765 166.352 446.801 162.914C458.031 155.001 470.433 148.904 483.554 144.847C498.498 140.135 514.136 138.017 529.793 138.583C530.752 138.583 530.516 140.06 529.557 140.06L529.513 140.179Z" fill="white"/>
<path id="Vector_8" d="M456.908 157.344C454.799 153.022 454.294 148.091 455.484 143.43C456.673 138.77 459.479 134.685 463.4 131.906C464.196 131.344 465.096 132.556 464.299 133.117C460.654 135.698 458.049 139.496 456.951 143.829C455.853 148.162 456.334 152.745 458.309 156.753C458.737 157.625 457.336 158.231 456.908 157.3V157.344Z" fill="white"/>
<path id="Vector_9" d="M429.435 188.456C438.694 191.735 448.846 191.397 457.867 187.51C458.767 187.126 459.342 188.544 458.427 188.988C449.027 193.007 438.458 193.329 428.83 189.889C427.916 189.505 428.521 188.116 429.435 188.456Z" fill="white"/>
<path id="Vector_10" d="M498.234 142.232C498.707 144.075 499.628 145.772 500.915 147.172C502.202 148.571 503.816 149.63 505.611 150.253C506.541 150.564 505.921 151.952 505.006 151.642C503.027 150.943 501.25 149.77 499.827 148.225C498.405 146.68 497.382 144.81 496.847 142.778C496.783 142.592 496.791 142.388 496.87 142.207C496.949 142.026 497.094 141.882 497.275 141.803C497.461 141.731 497.668 141.736 497.85 141.816C498.033 141.896 498.176 142.046 498.249 142.232H498.234Z" fill="white"/>
<path id="Vector_11" d="M58.161 415.645C27.0297 401.286 1.49017 371.002 0.767212 336.685C30.2419 359.503 66.8225 371.155 104.046 369.584C118.402 368.919 134.307 366.63 145.83 375.286C153.001 380.634 157.014 389.409 158.445 398.243C159.876 407.077 159.035 416.118 158.18 425.041L159.021 427.109C125.012 430.847 89.3071 430.005 58.161 415.645Z" fill="#F0F0F0"/>
<path id="Vector_12" d="M1.47539 336.582C15.9435 361.037 37.7394 380.307 63.7675 391.655C69.3226 394.196 75.2427 395.846 81.3103 396.544C87.2437 397.034 93.1996 395.922 98.5579 393.324C103.604 391.005 108.502 388.05 114.02 386.986C116.862 386.486 119.777 386.593 122.574 387.301C125.371 388.009 127.987 389.301 130.25 391.093C135.989 395.407 139.84 401.523 143.396 407.639C147.335 414.419 151.334 421.525 158.003 426.001C158.814 426.548 157.929 427.774 157.117 427.227C145.52 419.442 142.201 404.699 132.566 395.111C128.066 390.68 122.238 387.489 115.702 388.272C110.022 388.951 104.976 392.009 99.8858 394.402C94.6968 397.014 88.9459 398.308 83.1398 398.169C77.0429 397.789 71.0555 396.37 65.4348 393.974C52.7233 388.786 40.9039 381.633 30.4083 372.775C18.3794 362.724 8.15503 350.688 0.177012 337.188C-0.32463 336.346 1.06227 335.71 1.54916 336.582H1.47539Z" fill="white"/>
<path id="Vector_13" d="M55.1217 388.523C52.624 392.63 48.75 395.715 44.191 397.228C39.632 398.74 34.6845 398.582 30.2314 396.781C30.1345 396.746 30.0454 396.692 29.9693 396.623C29.8931 396.553 29.8314 396.47 29.7875 396.376C29.7437 396.283 29.7186 396.182 29.7138 396.079C29.7089 395.976 29.7244 395.873 29.7592 395.776C29.7941 395.679 29.8477 395.59 29.917 395.514C29.9863 395.437 30.0699 395.376 30.1631 395.332C30.2563 395.288 30.3572 395.263 30.46 395.258C30.5629 395.253 30.6657 395.268 30.7625 395.303C34.9067 396.991 39.517 397.138 43.76 395.718C48.0031 394.298 51.5988 391.406 53.8971 387.563C54.3987 386.735 55.6086 387.562 55.1217 388.464V388.523Z" fill="white"/>
<path id="Vector_14" d="M96.0941 394.831C93.8682 385.265 88.1198 376.893 79.9972 371.386C79.2005 370.84 80.0858 369.614 80.8825 370.16C89.338 375.903 95.3183 384.629 97.6285 394.594C97.8498 395.555 96.3596 395.776 96.1531 394.831H96.0941Z" fill="white"/>
<path id="Vector_15" d="M20.0952 361.814C21.3912 360.425 22.3219 358.735 22.8036 356.896C23.2852 355.057 23.3026 353.128 22.8543 351.281C22.633 350.335 24.1231 350.099 24.3297 351.044C24.8101 353.088 24.7843 355.218 24.2546 357.25C23.7249 359.281 22.7073 361.152 21.2903 362.7C21.1675 362.857 20.9903 362.963 20.7936 362.996C20.597 363.028 20.3951 362.986 20.228 362.877C20.0673 362.757 19.9602 362.578 19.9298 362.379C19.8995 362.18 19.9483 361.977 20.0657 361.814H20.0952Z" fill="white"/>
<path id="Vector_16" d="M88.6431 260.783L89.1301 262.541C91.3414 270.421 94.1884 278.109 97.6432 285.527C97.9088 286.118 98.1744 286.694 98.4547 287.27C106.968 305.039 118.705 321.069 133.068 334.543C138.781 339.927 144.897 344.866 151.363 349.316C160.304 355.447 170.47 361.37 176.681 369.85C177.337 370.728 177.938 371.646 178.481 372.598L161.544 425.913L161.263 426.223L160.673 428.38L159.626 427.744L159.021 427.39L158.622 427.153L158.504 427.08L158.194 426.932C156.227 425.691 154.225 424.445 152.189 423.194C136.899 413.735 122.784 402.494 110.14 389.705C109.771 389.321 109.373 388.922 109.019 388.508C103.472 382.687 98.409 376.422 93.8809 369.776C91.4127 366.128 89.1326 362.356 87.0497 358.475C81.6762 348.442 77.9169 337.624 75.9103 326.418C71.8972 304.082 75.0693 280.711 87.7137 262.231C87.9792 261.699 88.3038 261.241 88.6431 260.783Z" fill="#F0F0F0"/>
<path id="Vector_17" d="M89.2777 261.108C86.1063 289.339 91.904 317.852 105.847 342.594C108.744 347.977 112.48 352.864 116.912 357.071C121.35 361.042 126.772 363.746 132.611 364.901C138.04 366.098 143.721 366.689 148.767 369.17C151.328 370.486 153.583 372.328 155.386 374.576C157.188 376.823 158.497 379.426 159.227 382.215C161.204 389.099 160.614 396.308 159.773 403.325C158.844 411.125 157.767 419.22 160.393 426.814C160.717 427.73 159.271 428.173 158.917 427.257C154.329 413.961 160.555 400.267 158.637 386.809C157.737 380.516 154.934 374.474 149.283 371.179C144.326 368.225 138.468 367.693 132.965 366.541C127.252 365.489 121.883 363.054 117.325 359.45C112.694 355.478 108.777 350.742 105.743 345.445C98.708 333.643 93.5698 320.806 90.517 307.406C86.9607 292.129 86.0326 276.357 87.7727 260.768C87.9203 259.793 89.3809 260.148 89.2777 261.108Z" fill="white"/>
<path id="Vector_18" d="M100.889 334.898C96.4244 336.671 91.476 336.799 86.9257 335.26C82.3753 333.72 78.5187 330.613 76.0431 326.492C75.5414 325.65 76.8103 324.837 77.3119 325.679C79.6078 329.525 83.2016 332.423 87.4442 333.848C91.6869 335.273 96.2986 335.132 100.446 333.45C101.346 333.081 101.789 334.528 100.889 334.927V334.898Z" fill="white"/>
<path id="Vector_19" d="M129.792 364.665C133.759 355.671 134.191 345.511 131.002 336.213C130.944 336.017 130.965 335.805 131.062 335.625C131.159 335.445 131.323 335.311 131.519 335.252C131.714 335.193 131.925 335.215 132.105 335.312C132.285 335.409 132.419 335.574 132.478 335.769C135.753 345.436 135.279 355.982 131.15 365.315C130.752 366.201 129.424 365.492 129.822 364.606L129.792 364.665Z" fill="white"/>
<path id="Vector_20" d="M88.953 292.5C90.8235 292.175 92.5839 291.39 94.0753 290.213C95.5667 289.037 96.7421 287.508 97.4957 285.763C97.8793 284.862 99.2219 285.572 98.8383 286.473C97.9935 288.396 96.6912 290.083 95.0452 291.386C93.3991 292.689 91.4595 293.568 89.3956 293.948C89.204 293.996 89.0013 293.972 88.8269 293.879C88.6524 293.786 88.5186 293.631 88.4514 293.445C88.4218 293.35 88.4114 293.25 88.4206 293.151C88.4299 293.052 88.4586 292.956 88.5053 292.868C88.5519 292.78 88.6155 292.702 88.6924 292.639C88.7692 292.576 88.8578 292.529 88.953 292.5Z" fill="white"/>
<path id="Vector_21" d="M129.852 226.023C102.335 198.915 90.7235 170.625 97.1416 146.368C105.36 115.257 141.921 93.733 197.47 87.2773L197.677 89.0648C142.939 95.3727 106.938 116.409 98.9121 146.767C92.6711 170.403 104.12 198.043 131.15 224.693L129.852 226.023Z" fill="#F0F0F0"/>
<path id="Vector_22" d="M395.279 322.282C360.946 322.282 323.633 317.17 286.571 307.347C240.744 295.203 198.724 276.856 165.055 254.312L166.058 252.835C199.55 275.275 241.393 293.519 287.043 305.618C328.354 316.55 369.843 321.617 407.201 320.288V322.075C403.306 322.208 399.307 322.282 395.279 322.282Z" fill="#F0F0F0"/>
<path id="Vector_23" d="M474.037 310.981L473.462 309.282C504.18 298.941 523.375 282.144 529.011 260.857C536.167 233.793 520.616 202.386 485.236 172.427C449.855 142.468 398.393 117.325 340.851 102.08L341.309 100.336C399.115 115.656 450.637 140.769 486.401 171.053C522.165 201.338 538.041 233.542 530.664 261.315C524.954 283.208 505.346 300.389 474.037 310.981Z" fill="#F0F0F0"/>
<path id="Vector_24" d="M192.129 323.035C124.658 293.076 72.62 254.194 45.7379 213.584L47.2133 212.594C73.9479 252.924 125.661 291.569 192.822 321.381L192.129 323.035Z" fill="#F0F0F0"/>
<path id="Vector_25" d="M429.273 374.932C422.319 374.932 415.242 374.774 408.042 374.459L408.116 372.672C461.821 374.991 509.211 368.565 545.167 354.058L545.831 355.727C514.464 368.373 474.495 374.932 429.273 374.932Z" fill="#F0F0F0"/>
<path id="Vector_26" d="M390.13 88.9467C378.976 85.3126 367.512 81.9297 356.048 78.8865C290.038 61.3956 225.164 55.2501 168.419 60.9376L168.227 59.091C225.193 53.3149 290.289 59.549 356.505 77.099C367.999 80.1422 379.507 83.5399 390.691 87.1888L390.13 88.9467Z" fill="#F0F0F0"/>
<path id="Vector_27" d="M87.6841 228.726C60.1823 201.603 48.5561 173.314 54.9741 149.072C63.1922 117.945 99.7531 96.4364 155.303 89.9807L155.509 91.7682C100.771 98.0762 64.7856 119.098 56.7446 149.471C50.5036 173.107 61.9676 200.732 88.9973 227.382L87.6841 228.726Z" fill="#F0F0F0"/>
<path id="Vector_28" d="M353.112 325C318.779 325 281.466 319.889 244.403 310.065C198.577 297.922 156.557 279.589 122.888 257.045L123.891 255.568C157.398 277.993 199.226 296.252 244.875 308.351C286.187 319.283 327.676 324.35 365.033 323.006V324.808C361.128 324.936 357.154 325 353.112 325Z" fill="#F0F0F0"/>
<path id="Vector_29" d="M431.884 313.669L431.309 311.971C462.013 301.63 481.222 284.833 486.844 263.546C494 236.482 478.449 205.075 443.068 175.116C407.688 145.157 356.24 120.028 298.684 104.768L299.141 103.04C356.948 118.359 408.47 143.473 444.234 173.757C479.998 204.041 495.873 236.231 488.585 264.003C482.786 285.897 463.178 303.077 431.884 313.669Z" fill="#F0F0F0"/>
<path id="Vector_30" d="M149.917 325.724C82.4464 295.765 30.4084 256.898 3.54102 216.273L5.01643 215.283C31.7658 255.627 83.4792 294.258 150.625 324.084L149.917 325.724Z" fill="#F0F0F0"/>
<path id="Vector_31" d="M387.12 377.62C380.156 377.62 373.079 377.468 365.889 377.163L365.963 375.36C419.668 377.694 467.044 371.253 503 356.747L503.664 358.416C472.311 371.076 432.342 377.62 387.12 377.62Z" fill="#F0F0F0"/>
<path id="Vector_32" d="M347.978 91.5908C336.823 87.9567 325.345 84.5737 313.881 81.5306C247.885 64.0397 182.996 57.8204 126.252 63.567L126.075 61.7794C183.026 56.0181 248.136 62.2374 314.338 79.7874C325.846 82.8453 337.34 86.2283 348.523 89.8772L347.978 91.5908Z" fill="#F0F0F0"/>
<path id="Vector_33" d="M169.732 225.033C166.045 225.041 162.51 226.511 159.903 229.122C157.295 231.733 155.827 235.271 155.819 238.964C150.533 277.937 148.77 317.308 150.552 356.599C150.655 359.11 150.773 361.4 150.906 363.616C151.112 367.265 151.348 371.135 151.658 375.094C151.821 377.429 151.998 379.763 152.204 382.097C152.529 385.893 152.883 389.764 153.281 393.575C153.517 395.909 153.768 398.258 154.034 400.592C154.55 405.172 155.14 409.869 155.819 414.951C155.815 416.784 156.172 418.599 156.869 420.294C157.567 421.988 158.591 423.528 159.883 424.826C161.175 426.124 162.71 427.154 164.4 427.857C166.09 428.561 167.902 428.924 169.732 428.926H402.981C406.666 428.922 410.199 427.455 412.804 424.846C415.41 422.237 416.876 418.7 416.88 415.01V414.907C417.912 410.18 418.886 405.349 419.83 400.563C420.288 398.036 420.686 395.747 421.055 393.546C421.704 389.557 422.294 385.701 422.781 382.082C423.121 379.644 423.43 377.281 423.681 375.065C424.124 371.431 424.507 367.678 424.891 363.601C425.098 361.371 425.275 359.081 425.466 356.584C428.317 317.201 425.449 277.612 416.953 239.052V238.964C416.949 235.273 415.484 231.734 412.879 229.123C410.274 226.511 406.741 225.041 403.055 225.033H169.732Z" fill="#3F3D56"/>
<path id="Vector_34" d="M295.408 284.641C244.875 284.641 191.317 280.047 121.309 270.843C117.677 270.835 114.176 269.487 111.475 267.055C108.775 264.624 107.065 261.281 106.673 257.666C106.602 257.122 106.567 256.575 106.569 256.026V213.806C106.562 213.717 106.562 213.628 106.569 213.54C106.65 209.668 108.237 205.98 110.993 203.262C113.749 200.544 117.456 199.011 121.324 198.989C243.252 182.384 317.333 182.384 451.507 198.989C455.39 198.988 459.116 200.52 461.878 203.253C464.64 205.985 466.215 209.697 466.262 213.584C466.269 213.658 466.269 213.732 466.262 213.806V256.026C466.262 256.574 466.232 257.121 466.173 257.666C465.779 261.301 464.052 264.661 461.326 267.095C458.601 269.529 455.071 270.865 451.419 270.843C393.45 280.047 345.927 284.641 295.408 284.641Z" fill="#F6BC54"/>
<path id="Vector_35" d="M303.508 313.965H272.849C268.936 313.965 265.183 312.408 262.416 309.638C259.649 306.867 258.095 303.11 258.095 299.192V187.614C258.095 183.696 259.649 179.938 262.416 177.168C265.183 174.397 268.936 172.841 272.849 172.841H303.508C307.421 172.841 311.174 174.397 313.941 177.168C316.708 179.938 318.263 183.696 318.263 187.614V299.162C318.266 301.105 317.888 303.029 317.148 304.825C316.408 306.621 315.322 308.252 313.952 309.627C312.581 311.002 310.953 312.093 309.161 312.837C307.369 313.582 305.448 313.965 303.508 313.965Z" fill="#3F3D56"/>
<path id="Vector_36" d="M373.133 151.598C372.909 149.507 372.519 147.437 371.968 145.408C371.362 143.383 370.602 141.408 369.696 139.499C366.41 132.492 360.893 126.776 354.012 123.249C345.455 119.039 335.672 118.699 326.481 120.723C318.75 122.461 311.49 125.864 305.205 130.694C301.956 133.152 298.987 135.961 296.353 139.07C293.324 143.235 290.592 147.609 288.179 152.159C285.314 145.64 281.198 139.747 276.066 134.816C270.105 129.156 262.994 124.852 255.218 122.2C251.082 120.811 246.79 119.938 242.441 119.6C237.837 119.22 233.203 119.625 228.734 120.797C220.71 123.058 213.769 128.14 209.185 135.111C204.83 141.596 202.692 149.319 203.091 157.123C203.309 161.063 204.156 164.944 205.6 168.616C206.387 170.578 207.309 172.483 208.359 174.318C209.451 176.152 210.674 177.905 212.018 179.562C217.274 186.032 224.361 190.759 232.349 193.124C240.908 195.548 249.895 196.052 258.67 194.601C267.626 193.112 276.389 190.635 284.8 187.215L288.193 185.915C295.674 188.968 303.366 191.471 311.21 193.404C320.086 195.547 329.296 195.913 338.313 194.483C346.719 193.107 354.533 189.284 360.784 183.492C366.57 178.041 370.62 171 372.425 163.253C373.316 159.436 373.556 155.495 373.133 151.598ZM256.31 185.929C251.444 186.528 246.524 186.528 241.659 185.929C238.168 185.425 234.747 184.518 231.464 183.226C223.734 180.022 217.561 173.92 214.26 166.223C213.281 163.789 212.583 161.251 212.18 158.659C211.929 156.351 211.929 154.023 212.18 151.716C212.561 149.291 213.215 146.918 214.127 144.64C215.115 142.42 216.342 140.314 217.787 138.361C219.186 136.615 220.769 135.026 222.508 133.619C224.153 132.4 225.924 131.36 227.79 130.517C230.021 129.645 232.342 129.026 234.71 128.67C237.91 128.286 241.144 128.286 244.344 128.67C248.154 129.251 251.883 130.277 255.454 131.728C259.252 133.384 262.842 135.481 266.151 137.977C269.208 140.398 271.975 143.164 274.398 146.22C276.812 149.413 278.834 152.885 280.418 156.561C281.963 160.403 283.048 164.415 283.649 168.512C283.414 170.572 283.296 172.644 283.295 174.717C283.295 175.515 283.295 176.312 283.369 177.11C282.989 177.472 282.675 177.897 282.439 178.366C276.188 180.82 269.781 182.853 263.259 184.452C260.987 185.161 258.656 185.59 256.31 185.929ZM364.163 158.659C363.753 161.25 363.055 163.787 362.082 166.223C358.818 173.951 352.65 180.085 344.909 183.3C341.625 184.59 338.204 185.497 334.713 186.003C329.835 186.58 324.904 186.55 320.033 185.915C311.415 184.491 302.976 182.138 294.862 178.898L293.859 178.514C293.63 178.049 293.325 177.625 292.959 177.258C293.107 174.37 293.018 171.475 292.694 168.601C293.295 164.508 294.38 160.502 295.925 156.665C297.51 152.991 299.526 149.52 301.93 146.324C304.362 143.27 307.134 140.505 310.192 138.081C313.5 135.585 317.091 133.487 320.889 131.832C324.455 130.381 328.179 129.354 331.984 128.774C335.189 128.39 338.428 128.39 341.633 128.774C343.996 129.129 346.312 129.749 348.538 130.62C350.41 131.46 352.186 132.5 353.835 133.723C355.574 135.129 357.157 136.719 358.556 138.465C360.001 140.418 361.228 142.523 362.215 144.743C363.128 147.021 363.781 149.395 364.163 151.819C364.406 154.093 364.406 156.386 364.163 158.659Z" fill="#3F3D56"/>
<path id="Vector_37" d="M194.859 318.899C197.833 318.899 200.244 316.485 200.244 313.507C200.244 310.529 197.833 308.115 194.859 308.115C191.884 308.115 189.473 310.529 189.473 313.507C189.473 316.485 191.884 318.899 194.859 318.899Z" fill="#F6BC54"/>
<path id="Vector_38" d="M233.426 305.426C236.4 305.426 238.811 303.012 238.811 300.034C238.811 297.056 236.4 294.642 233.426 294.642C230.452 294.642 228.041 297.056 228.041 300.034C228.041 303.012 230.452 305.426 233.426 305.426Z" fill="#F6BC54"/>
<path id="Vector_39" d="M216.385 347.647C219.359 347.647 221.77 345.233 221.77 342.255C221.77 339.277 219.359 336.863 216.385 336.863C213.411 336.863 211 339.277 211 342.255C211 345.233 213.411 347.647 216.385 347.647Z" fill="#F6BC54"/>
<path id="Vector_40" d="M376.069 318.899C379.044 318.899 381.455 316.485 381.455 313.507C381.455 310.529 379.044 308.115 376.069 308.115C373.095 308.115 370.684 310.529 370.684 313.507C370.684 316.485 373.095 318.899 376.069 318.899Z" fill="#F6BC54"/>
<path id="Vector_41" d="M337.487 305.426C340.461 305.426 342.872 303.012 342.872 300.034C342.872 297.056 340.461 294.642 337.487 294.642C334.513 294.642 332.102 297.056 332.102 300.034C332.102 303.012 334.513 305.426 337.487 305.426Z" fill="#F6BC54"/>
<path id="Vector_42" d="M354.543 347.647C357.517 347.647 359.928 345.233 359.928 342.255C359.928 339.277 357.517 336.863 354.543 336.863C351.569 336.863 349.158 339.277 349.158 342.255C349.158 345.233 351.569 347.647 354.543 347.647Z" fill="#F6BC54"/>
<path id="Vector_43" d="M380.555 413.223C383.529 413.223 385.94 410.808 385.94 407.831C385.94 404.853 383.529 402.438 380.555 402.438C377.58 402.438 375.169 404.853 375.169 407.831C375.169 410.808 377.58 413.223 380.555 413.223Z" fill="#F6BC54"/>
<path id="Vector_44" d="M394.011 374.592C396.985 374.592 399.396 372.178 399.396 369.2C399.396 366.222 396.985 363.808 394.011 363.808C391.036 363.808 388.625 366.222 388.625 369.2C388.625 372.178 391.036 374.592 394.011 374.592Z" fill="#F6BC54"/>
<path id="Vector_45" d="M351.843 391.655C354.817 391.655 357.228 389.24 357.228 386.262C357.228 383.284 354.817 380.87 351.843 380.87C348.869 380.87 346.458 383.284 346.458 386.262C346.458 389.24 348.869 391.655 351.843 391.655Z" fill="#F6BC54"/>
<path id="Vector_46" d="M226.255 413.223C229.23 413.223 231.641 410.808 231.641 407.831C231.641 404.853 229.23 402.438 226.255 402.438C223.281 402.438 220.87 404.853 220.87 407.831C220.87 410.808 223.281 413.223 226.255 413.223Z" fill="#F6BC54"/>
<path id="Vector_47" d="M239.711 374.592C242.685 374.592 245.096 372.178 245.096 369.2C245.096 366.222 242.685 363.808 239.711 363.808C236.737 363.808 234.326 366.222 234.326 369.2C234.326 372.178 236.737 374.592 239.711 374.592Z" fill="#F6BC54"/>
<path id="Vector_48" d="M197.544 391.655C200.518 391.655 202.929 389.24 202.929 386.262C202.929 383.284 200.518 380.87 197.544 380.87C194.57 380.87 192.158 383.284 192.158 386.262C192.158 389.24 194.57 391.655 197.544 391.655Z" fill="#F6BC54"/>
<path id="e3b13650-ec26-4d46-b148-6e027bc06f3e-369" d="M352.197 32.5886C354.236 33.4384 356.46 33.7489 358.653 33.4902C360.847 33.2315 362.937 32.4123 364.724 31.1113C369.268 27.7136 370.979 21.775 372.41 16.3386L376.63 0.088623L369.489 4.41702C364.369 7.53406 359.161 10.7545 355.414 15.4966C351.666 20.2386 349.851 26.8568 352.286 32.3523" fill="#F2F2F2"/>
<path id="fe24b413-2f3e-41ab-87c6-b6db4596196d-370" d="M161.47 171.615C162.843 169.886 163.748 167.832 164.1 165.651C164.451 163.47 164.236 161.235 163.476 159.161C161.455 153.843 156.232 150.578 151.334 147.683L136.86 139.159L139.073 147.225C140.652 153.016 142.319 158.94 145.845 163.8C149.371 168.66 155.229 172.28 161.175 171.438" fill="#F2F2F2"/>
<path id="a5193a92-e661-4e54-a5ba-e6f2c93163f3-371" d="M501.465 422.22C502.842 420.489 503.75 418.433 504.101 416.249C504.453 414.065 504.236 411.827 503.472 409.751C501.465 404.448 496.228 401.168 491.329 398.288L476.855 389.764L479.068 397.83C480.662 403.621 482.314 409.544 485.841 414.405C489.367 419.265 495.239 422.884 501.17 422.042" fill="#F2F2F2"/>
<path id="Vector_49" d="M228.041 104.222C232.001 104.222 235.211 101.007 235.211 97.0421C235.211 93.0769 232.001 89.8625 228.041 89.8625C224.08 89.8625 220.87 93.0769 220.87 97.0421C220.87 101.007 224.08 104.222 228.041 104.222Z" fill="#FD6584"/>
<path id="Vector_50" d="M36.9592 316.195C40.9194 316.195 44.1298 312.981 44.1298 309.016C44.1298 305.051 40.9194 301.836 36.9592 301.836C32.9991 301.836 29.7887 305.051 29.7887 309.016C29.7887 312.981 32.9991 316.195 36.9592 316.195Z" fill="#FD6584"/>
<path id="Vector_51" d="M530.369 257.814C534.329 257.814 537.539 254.599 537.539 250.634C537.539 246.669 534.329 243.455 530.369 243.455C526.409 243.455 523.198 246.669 523.198 250.634C523.198 254.599 526.409 257.814 530.369 257.814Z" fill="#FD6584"/>
<path id="Vector_52" d="M29.7887 135.658C33.7489 135.658 36.9592 132.444 36.9592 128.478C36.9592 124.513 33.7489 121.299 29.7887 121.299C25.8285 121.299 22.6182 124.513 22.6182 128.478C22.6182 132.444 25.8285 135.658 29.7887 135.658Z" fill="#E6E6E6"/>
<path id="Vector_53" d="M473.845 340.452C477.806 340.452 481.016 337.238 481.016 333.273C481.016 329.308 477.806 326.093 473.845 326.093C469.885 326.093 466.675 329.308 466.675 333.273C466.675 337.238 469.885 340.452 473.845 340.452Z" fill="#E6E6E6"/>
<path id="Vector_54" d="M488.201 122.185C492.161 122.185 495.372 118.971 495.372 115.006C495.372 111.041 492.161 107.826 488.201 107.826C484.241 107.826 481.031 111.041 481.031 115.006C481.031 118.971 484.241 122.185 488.201 122.185Z" fill="#E6E6E6"/>
<path id="Vector_55" d="M173.524 236.482C173.155 236.892 172.643 237.144 172.093 237.186C171.543 237.227 170.999 237.054 170.573 236.703C170.338 236.48 170.15 236.211 170.022 235.912C169.894 235.614 169.828 235.292 169.828 234.968C169.828 234.643 169.894 234.321 170.022 234.023C170.15 233.725 170.338 233.455 170.573 233.232C173.14 230.159 177.375 233.409 177.95 236.467C178.161 237.961 177.931 239.484 177.289 240.848C176.647 242.213 175.62 243.36 174.335 244.149C172.849 244.896 171.173 245.179 169.524 244.963C167.876 244.747 166.329 244.042 165.085 242.937C159.832 238.594 161.263 229.908 167.091 226.776C170.809 224.767 175.516 225.653 179.19 227.323C183.321 229.214 186.862 232.109 190.683 234.517C199.055 239.771 208.529 243.012 218.362 243.986C220.088 244.164 220.073 241.46 218.362 241.298C212.914 240.725 207.566 239.433 202.457 237.457C197.401 235.405 192.603 232.768 188.16 229.598C183.734 226.525 178.968 223.526 173.406 223.009C171.16 222.745 168.885 223.082 166.811 223.985C164.738 224.888 162.941 226.325 161.603 228.15C160.411 229.781 159.613 231.666 159.273 233.658C158.932 235.65 159.058 237.694 159.64 239.628C160.337 241.653 161.558 243.457 163.178 244.856C164.797 246.255 166.759 247.198 168.862 247.591C170.886 247.972 172.979 247.712 174.849 246.846C176.719 245.98 178.272 244.552 179.293 242.76C180.385 241.03 180.869 238.985 180.669 236.949C180.468 234.912 179.595 233.001 178.186 231.518C177.301 230.612 176.19 229.959 174.968 229.627C173.747 229.294 172.459 229.295 171.237 229.627C170.113 230.007 169.123 230.707 168.389 231.641C167.656 232.575 167.21 233.703 167.106 234.886C166.811 239.481 173.332 241.785 175.826 237.841C176.755 236.364 174.424 235.019 173.509 236.482H173.524Z" fill="#3F3D56"/>
<path id="Vector_56" d="M403.675 236.482C404.043 236.892 404.556 237.144 405.106 237.186C405.655 237.227 406.2 237.054 406.625 236.703C406.859 236.479 407.044 236.209 407.171 235.911C407.298 235.612 407.363 235.292 407.363 234.968C407.363 234.643 407.298 234.323 407.171 234.024C407.044 233.726 406.859 233.456 406.625 233.232C404.058 230.159 399.809 233.409 399.248 236.467C399.037 237.962 399.268 239.487 399.913 240.852C400.559 242.218 401.589 243.364 402.878 244.149C404.364 244.896 406.04 245.179 407.689 244.963C409.338 244.747 410.884 244.042 412.129 242.937C417.381 238.594 415.95 229.908 410.107 226.776C406.389 224.767 401.683 225.653 398.024 227.323C393.892 229.214 390.337 232.109 386.515 234.517C378.145 239.775 368.67 243.017 358.837 243.986C357.11 244.164 357.125 241.46 358.837 241.298C364.284 240.725 369.632 239.433 374.742 237.457C379.799 235.408 384.598 232.771 389.038 229.598C393.538 226.525 398.23 223.526 403.793 223.009C406.038 222.748 408.312 223.086 410.385 223.989C412.458 224.892 414.256 226.327 415.596 228.15C416.781 229.784 417.575 231.669 417.916 233.66C418.256 235.65 418.134 237.693 417.558 239.628C416.856 241.653 415.632 243.456 414.01 244.854C412.388 246.252 410.426 247.196 408.322 247.591C406.298 247.972 404.205 247.712 402.335 246.846C400.465 245.98 398.911 244.552 397.891 242.76C396.801 241.029 396.319 238.983 396.522 236.946C396.725 234.91 397.602 232.999 399.012 231.518C399.894 230.612 401.003 229.959 402.222 229.626C403.441 229.294 404.727 229.294 405.947 229.627C407.073 230.004 408.065 230.703 408.799 231.637C409.533 232.572 409.978 233.701 410.078 234.886C410.373 239.481 403.852 241.785 401.358 237.841C400.429 236.364 402.76 235.019 403.689 236.482H403.675Z" fill="#3F3D56"/>
<path id="Vector_57" d="M79.8644 32.6625L76.3234 37.1239L63.738 29.6784L67.2938 25.217L79.8644 32.6625Z" fill="#E4E4E4"/>
<path id="Vector_58" d="M92.9956 51.8523L96.1235 56.5353L82.9185 63.1239L79.7906 58.4262L92.9956 51.8523Z" fill="#E4E4E4"/>
<path id="Vector_59" d="M106.658 31.4512L112.943 31.6728L112.309 44.8205L106.038 44.5989L106.658 31.4512Z" fill="#E4E4E4"/>
<path id="Vector_60" d="M523.936 307.509L520.38 311.985L507.81 304.54L511.365 300.078L523.936 307.509Z" fill="#E4E4E4"/>
<path id="Vector_61" d="M537.052 326.699L540.195 331.397L526.99 337.971L523.847 333.273L537.052 326.699Z" fill="#E4E4E4"/>
<path id="Vector_62" d="M550.715 306.312L557 306.534L556.366 319.682L550.095 319.46L550.715 306.312Z" fill="#E4E4E4"/>
</g>
</svg>
