<svg width="327" height="251" viewBox="0 0 327 251" fill="none" xmlns="http://www.w3.org/2000/svg">
<g id="Group">
<path id="Vector" d="M218.986 70.7639C225.969 52.0238 242.46 35.8402 262.393 33.9126C250.408 52.0645 245.242 73.862 247.813 95.444C248.836 103.76 250.834 112.909 246.34 119.99C243.547 124.393 238.58 127.112 233.537 128.335C228.494 129.552 223.193 129.459 217.934 129.354L216.759 129.931C213.084 110.294 212.003 89.4924 218.986 70.7639Z" fill="#F0F0F0"/>
<path id="Vector_2" d="M262.498 34.3204C248.906 43.7953 238.644 57.3 233.186 72.9188C231.947 76.2615 231.246 79.7788 231.106 83.337C231.082 86.8078 231.994 90.2205 233.741 93.2255C235.313 96.0615 237.253 98.7753 238.106 101.937C238.521 103.562 238.586 105.263 238.299 106.911C238.007 108.565 237.376 110.137 236.435 111.529C234.174 115.058 230.784 117.55 227.389 119.903C223.614 122.483 219.629 125.121 217.344 129.203C217.069 129.698 216.309 129.203 216.596 128.743C220.61 121.65 229.043 119.076 234.203 113.054C236.605 110.242 238.182 106.689 237.434 102.945C236.786 99.6779 234.793 96.8709 233.174 94.0174C231.427 91.1114 230.416 87.827 230.235 84.4494C230.194 80.8912 230.761 77.3563 231.9 73.9903C234.355 66.3673 238.001 59.1869 242.694 52.6936C248.012 45.257 254.562 38.7812 262.066 33.5458C262.533 33.2255 262.931 34.0001 262.492 34.3204H262.498Z" fill="white"/>
<path id="Vector_3" d="M234.647 67.7937C232.146 66.5242 230.182 64.4044 229.101 61.8187C228.02 59.2389 227.891 56.3504 228.745 53.6832C228.914 53.1416 229.761 53.392 229.604 53.9277C228.809 56.4086 228.926 59.0991 229.937 61.5042C230.954 63.9094 232.794 65.8719 235.132 67.0425C235.64 67.2929 235.132 68.0441 234.664 67.7937H234.647Z" fill="white"/>
<path id="Vector_4" d="M232.759 91.8973C238.229 90.1736 242.846 86.4523 245.691 81.4791C245.978 80.9899 246.726 81.4791 246.445 81.945C243.477 87.1046 238.667 90.9655 232.976 92.7533C232.432 92.9222 232.233 92.0604 232.771 91.8915L232.759 91.8973Z" fill="white"/>
<path id="Vector_5" d="M248.625 46.2529C249.49 46.9458 250.512 47.4117 251.605 47.6155C252.698 47.8193 253.82 47.7436 254.878 47.4058C255.421 47.2253 255.62 48.0871 255.082 48.2676C253.919 48.6345 252.68 48.7103 251.483 48.4948C250.279 48.2735 249.145 47.7669 248.187 47.0157C248.093 46.9517 248.023 46.8527 248 46.7362C247.971 46.6256 247.988 46.5091 248.046 46.4043C248.111 46.3111 248.21 46.2412 248.321 46.2121C248.432 46.1829 248.549 46.2005 248.654 46.2587L248.625 46.2529Z" fill="white"/>
<path id="Vector_6" d="M310.452 81.6595L309.447 82.0322C304.959 83.6628 300.605 85.6603 296.445 87.9955C296.117 88.1644 295.79 88.345 295.469 88.5372C285.494 94.2676 276.669 101.797 269.447 110.737C266.577 114.301 263.983 118.08 261.686 122.035C258.513 127.497 255.515 133.664 250.858 137.647C250.379 138.067 249.87 138.457 249.344 138.818L217.56 131.317L217.361 131.166L216.087 130.921L216.403 130.275L216.584 129.908L216.707 129.675C216.718 129.646 216.73 129.623 216.748 129.599L216.853 129.384C217.472 128.161 218.109 126.944 218.758 125.732C223.597 116.42 229.528 107.714 236.424 99.7941C236.64 99.567 236.85 99.3224 237.072 99.0895C240.216 95.6128 243.641 92.3982 247.305 89.4747C249.321 87.8791 251.419 86.3825 253.581 84.9964C259.185 81.4382 265.315 78.771 271.749 77.1113C284.57 73.7977 298.303 74.6129 309.617 81.1528L310.452 81.6595Z" fill="#F0F0F0"/>
<path id="Vector_7" d="M310.289 82.0499C293.722 81.4501 277.382 86.0741 263.591 95.2636C260.593 97.1912 257.911 99.5788 255.655 102.333C253.546 105.088 252.214 108.355 251.793 111.797C251.343 115.005 251.249 118.336 250.022 121.37C249.373 122.919 248.403 124.311 247.176 125.459C245.949 126.606 244.494 127.479 242.899 128.021C238.972 129.483 234.752 129.454 230.633 129.279C226.051 129.081 221.294 128.807 216.993 130.671C216.473 130.898 216.128 130.077 216.672 129.815C224.158 126.559 232.444 129.57 240.205 127.858C243.816 127.06 247.223 125.167 248.883 121.732C250.332 118.732 250.437 115.296 250.869 112.047C251.232 108.675 252.412 105.443 254.317 102.636C256.433 99.7768 259.016 97.2901 261.955 95.2868C268.518 90.6804 275.764 87.1281 283.431 84.7696C292.167 82.0209 301.307 80.7921 310.452 81.1182C311.013 81.1182 310.879 81.9801 310.318 81.9801L310.289 82.0499Z" fill="white"/>
<path id="Vector_8" d="M267.863 92.0431C266.63 89.5274 266.332 86.6562 267.027 83.9425C267.723 81.2287 269.365 78.8468 271.656 77.2337C272.123 76.9018 272.649 77.6124 272.182 77.9385C270.049 79.441 268.529 81.6539 267.886 84.1755C267.243 86.6971 267.524 89.3642 268.681 91.6995C268.932 92.2062 268.114 92.5614 267.863 92.0198V92.0431Z" fill="white"/>
<path id="Vector_9" d="M251.81 110.166C257.215 112.07 263.153 111.878 268.424 109.613C268.95 109.391 269.283 110.212 268.751 110.475C263.258 112.816 257.081 113.002 251.453 110.999C250.922 110.771 251.272 109.968 251.81 110.166Z" fill="white"/>
<path id="Vector_10" d="M292.009 83.2435C292.29 84.315 292.827 85.305 293.575 86.1203C294.329 86.9356 295.276 87.553 296.322 87.914C296.865 88.0945 296.503 88.904 295.971 88.7234C294.814 88.3158 293.774 87.6345 292.944 86.7318C292.108 85.835 291.512 84.746 291.203 83.5638C291.162 83.4532 291.168 83.3367 291.214 83.2318C291.261 83.127 291.343 83.0397 291.448 82.9931C291.559 82.9524 291.682 82.9524 291.787 83.0048C291.892 83.0514 291.98 83.1387 292.021 83.2435H292.009Z" fill="white"/>
<path id="Vector_11" d="M34.8437 242.465C16.6515 234.108 1.72719 216.469 1.30469 196.482C18.5285 209.772 39.9055 216.556 61.6583 215.642C70.0476 215.258 79.3421 213.924 86.0758 218.967C90.2658 222.077 92.6109 227.19 93.4477 232.332C94.2839 237.48 93.7925 242.745 93.2922 247.939L93.7837 249.145C73.9103 251.323 53.0446 250.828 34.8437 242.465Z" fill="#F0F0F0"/>
<path id="Vector_12" d="M1.71799 196.424C10.1733 210.669 22.9098 221.891 38.1205 228.495C41.3667 229.98 44.8262 230.941 48.3716 231.342C51.8393 231.628 55.3198 230.981 58.4509 229.467C61.3996 228.116 64.2619 226.398 67.4865 225.781C69.1473 225.49 70.8507 225.548 72.4852 225.961C74.1197 226.375 75.6485 227.126 76.9709 228.169C80.3246 230.684 82.5751 234.242 84.6531 237.806C86.955 241.755 89.2919 245.89 93.1891 248.499C93.663 248.819 93.1458 249.529 92.6713 249.215C85.8943 244.678 83.9548 236.094 78.3243 230.51C75.6946 227.93 72.2889 226.072 68.4694 226.526C65.1502 226.922 62.2014 228.704 59.2269 230.096C56.1946 231.616 52.8339 232.373 49.441 232.292C45.8781 232.07 42.3788 231.243 39.0946 229.846C31.6661 226.829 24.7593 222.659 18.6257 217.5C11.5963 211.647 5.62163 204.641 0.959484 196.78C0.666128 196.29 1.47666 195.918 1.76125 196.424H1.71799Z" fill="white"/>
<path id="Vector_13" d="M33.0681 226.672C31.6083 229.065 29.3444 230.859 26.6803 231.744C24.0161 232.623 21.1252 232.53 18.5224 231.482C18.4663 231.465 18.4137 231.43 18.3693 231.389C18.3249 231.348 18.2887 231.301 18.2635 231.249C18.2378 231.191 18.2232 231.133 18.2203 231.074C18.2174 231.016 18.2261 230.952 18.2466 230.9C18.267 230.841 18.2986 230.789 18.3389 230.742C18.3792 230.702 18.4283 230.667 18.4827 230.638C18.537 230.614 18.596 230.597 18.6562 230.597C18.7164 230.591 18.7766 230.603 18.8333 230.62C21.2549 231.604 23.9489 231.692 26.4284 230.865C28.9079 230.038 31.0093 228.355 32.3522 226.113C32.6455 225.629 33.3527 226.113 33.0681 226.637V226.672Z" fill="white"/>
<path id="Vector_14" d="M57.0112 230.346C55.7104 224.773 52.3514 219.899 47.6045 216.696C47.1388 216.376 47.6566 215.659 48.1217 215.98C53.0632 219.322 56.5578 224.406 57.9077 230.207C58.0374 230.766 57.1667 230.9 57.0457 230.346H57.0112Z" fill="white"/>
<path id="Vector_15" d="M12.5988 211.117C13.3562 210.308 13.9002 209.324 14.1813 208.258C14.463 207.186 14.4729 206.062 14.2111 204.985C14.082 204.432 14.9527 204.298 15.0737 204.845C15.3542 206.039 15.339 207.28 15.0293 208.462C14.7201 209.644 14.1252 210.733 13.2971 211.636C13.2253 211.729 13.1218 211.787 13.0073 211.81C12.8922 211.828 12.7741 211.805 12.6765 211.74C12.5825 211.671 12.5199 211.566 12.5024 211.449C12.4843 211.333 12.5129 211.216 12.5819 211.117H12.5988Z" fill="white"/>
<path id="Vector_16" d="M52.6576 152.282L52.9416 153.307C54.2342 157.896 55.8979 162.374 57.9169 166.695C58.0718 167.039 58.2273 167.371 58.3909 167.708C63.3657 178.057 70.2245 187.392 78.6178 195.236C81.957 198.375 85.531 201.252 89.3096 203.844C94.5345 207.413 100.475 210.861 104.105 215.799C104.488 216.312 104.839 216.848 105.157 217.401L95.2585 248.446L95.0949 248.627L94.7495 249.885L94.1377 249.512L93.7841 249.308L93.5515 249.168L93.4826 249.128L93.3014 249.04C92.152 248.318 90.9821 247.59 89.7923 246.862C80.8572 241.359 72.6087 234.807 65.2193 227.359C65.0043 227.138 64.7711 226.905 64.5642 226.666C61.3227 223.277 58.364 219.625 55.7179 215.759C54.2757 213.633 52.9433 211.437 51.7261 209.172C48.5862 203.331 46.389 197.03 45.2167 190.508C42.8716 177.498 44.7253 163.888 52.1141 153.126C52.2696 152.817 52.4589 152.55 52.6576 152.282Z" fill="#F0F0F0"/>
<path id="Vector_17" d="M53.027 152.474C51.174 168.914 54.5622 185.517 62.7096 199.924C64.4031 203.063 66.5857 205.905 69.1762 208.357C71.7697 210.669 74.9382 212.247 78.3498 212.917C81.5229 213.615 84.8422 213.959 87.7909 215.403C89.2881 216.172 90.6059 217.244 91.6595 218.554C92.7125 219.858 93.4775 221.378 93.9041 222.997C95.0594 227.01 94.7146 231.208 94.2231 235.291C93.6797 239.833 93.0503 244.55 94.5855 248.97C94.7748 249.506 93.9298 249.762 93.7229 249.232C91.0418 241.487 94.6801 233.514 93.5593 225.676C93.0334 222.013 91.3954 218.49 88.0931 216.574C85.1957 214.85 81.7731 214.541 78.5572 213.872C75.2187 213.26 72.0812 211.839 69.4176 209.743C66.7114 207.431 64.4224 204.67 62.6494 201.584C58.5383 194.712 55.5358 187.241 53.7517 179.437C51.6731 170.539 51.1307 161.355 52.1476 152.276C52.234 151.705 53.0878 151.915 53.027 152.474Z" fill="white"/>
<path id="Vector_18" d="M59.8128 195.446C57.2036 196.476 54.3121 196.552 51.6532 195.655C48.9937 194.758 46.7404 192.947 45.2935 190.548C45.0001 190.059 45.7417 189.587 46.035 190.076C47.3768 192.313 49.4764 194.001 51.9559 194.834C54.4354 195.661 57.13 195.58 59.554 194.601C60.0799 194.386 60.3388 195.23 59.8128 195.463V195.446Z" fill="white"/>
<path id="Vector_19" d="M76.7034 212.777C79.0216 207.542 79.274 201.625 77.4105 196.209C77.376 196.098 77.3888 195.97 77.4455 195.866C77.5022 195.761 77.598 195.685 77.7126 195.65C77.8265 195.615 77.9498 195.627 78.055 195.685C78.1602 195.743 78.2385 195.836 78.273 195.953C80.1862 201.584 79.9092 207.722 77.497 213.155C77.2638 213.674 76.4878 213.26 76.7209 212.748L76.7034 212.777Z" fill="white"/>
<path id="Vector_20" d="M52.8378 170.754C53.9305 170.568 54.9596 170.108 55.831 169.421C56.7023 168.739 57.3895 167.848 57.8295 166.829C58.0539 166.305 58.8387 166.719 58.6143 167.243C58.1205 168.367 57.3597 169.345 56.3978 170.108C55.4359 170.865 54.3022 171.377 53.0961 171.599C52.9844 171.628 52.8658 171.61 52.7635 171.558C52.6619 171.506 52.5835 171.412 52.5444 171.308C52.5269 171.249 52.521 171.191 52.5263 171.133C52.5321 171.075 52.5485 171.022 52.576 170.97C52.6034 170.918 52.6402 170.871 52.6852 170.836C52.7302 170.801 52.7817 170.772 52.8378 170.754Z" fill="white"/>
<path id="Vector_21" d="M76.7381 132.039C60.6578 116.251 53.8727 99.7767 57.6232 85.6546C62.4256 67.5375 83.7909 54.9994 116.252 51.2432L116.373 52.2798C84.3858 55.9544 63.3477 68.2072 58.6575 85.8874C55.0104 99.6485 61.701 115.745 77.4966 131.264L76.7381 132.039Z" fill="#F0F0F0"/>
<path id="Vector_22" d="M231.848 188.097C211.786 188.097 189.979 185.121 168.32 179.402C141.541 172.327 116.985 161.646 97.3101 148.514L97.8962 147.652C117.468 160.72 141.92 171.348 168.596 178.395C192.738 184.76 216.981 187.712 238.814 186.938V187.974C236.54 188.056 234.203 188.097 231.848 188.097Z" fill="#F0F0F0"/>
<path id="Vector_23" d="M277.873 181.516L277.534 180.526C295.486 174.504 306.706 164.721 309.996 152.328C314.18 136.564 305.093 118.278 284.418 100.83C263.743 83.3831 233.665 68.737 200.04 59.8619L200.309 58.8486C234.092 67.7703 264.199 82.3932 285.096 100.027C305.999 117.666 315.273 136.418 310.96 152.59C307.623 165.344 296.17 175.349 277.873 181.516Z" fill="#F0F0F0"/>
<path id="Vector_24" d="M113.131 188.533C73.7029 171.092 43.2932 148.444 27.584 124.794L28.4465 124.218C44.0692 147.704 74.2896 170.212 113.537 187.572L113.131 188.533Z" fill="#F0F0F0"/>
<path id="Vector_25" d="M251.711 218.757C247.65 218.757 243.512 218.664 239.305 218.484L239.351 217.441C270.732 218.792 298.426 215.048 319.44 206.604L319.826 207.576C301.494 214.937 278.136 218.757 251.711 218.757Z" fill="#F0F0F0"/>
<path id="Vector_26" d="M228.838 52.2157C222.322 50.0959 215.619 48.1275 208.923 46.3572C170.347 36.166 132.436 32.5904 99.2757 35.904L99.1641 34.8267C132.453 31.4607 170.493 35.0946 209.191 45.3149C215.906 47.0852 222.632 49.0652 229.165 51.1907L228.838 52.2157Z" fill="#F0F0F0"/>
<path id="Vector_27" d="M52.0968 133.617C36.0253 117.818 29.2308 101.343 32.9813 87.2269C37.7843 69.0982 59.1491 56.5774 91.6111 52.8154L91.7321 53.8579C59.744 57.5325 38.7152 69.7736 34.0163 87.4598C30.3692 101.227 37.0684 117.311 52.8641 132.831L52.0968 133.617Z" fill="#F0F0F0"/>
<path id="Vector_28" d="M207.205 189.681C187.143 189.681 165.338 186.705 143.679 180.981C116.9 173.911 92.3443 163.236 72.6689 150.11L73.2551 149.248C92.8357 162.304 117.279 172.938 143.955 179.985C168.097 186.35 192.342 189.302 214.171 188.522V189.57C211.892 189.646 209.566 189.681 207.205 189.681Z" fill="#F0F0F0"/>
<path id="Vector_29" d="M253.236 183.083L252.903 182.093C270.843 176.071 282.069 166.288 285.353 153.889C289.537 138.131 280.45 119.839 259.775 102.398C239.1 84.9502 209.034 70.3156 175.399 61.4288L175.666 60.4214C209.449 69.3431 239.556 83.966 260.453 101.605C281.356 119.239 290.63 137.985 286.37 154.157C282.986 166.911 271.527 176.916 253.236 183.083Z" fill="#F0F0F0"/>
<path id="Vector_30" d="M88.4637 190.1C49.0354 172.652 18.6257 150.022 2.92529 126.361L3.78723 125.785C19.4193 149.283 49.639 171.779 88.8775 189.145L88.4637 190.1Z" fill="#F0F0F0"/>
<path id="Vector_31" d="M227.079 220.324C223.012 220.324 218.875 220.237 214.673 220.056L214.714 219.008C246.101 220.365 273.782 216.614 294.797 208.17L295.182 209.143C276.862 216.515 253.505 220.324 227.079 220.324Z" fill="#F0F0F0"/>
<path id="Vector_32" d="M204.207 53.7537C197.687 51.6397 190.979 49.6655 184.279 47.8951C145.714 37.7097 107.794 34.0875 74.6337 37.436L74.5303 36.3936C107.811 33.0392 145.86 36.6615 184.547 46.8818C191.272 48.658 197.988 50.6321 204.522 52.7577L204.207 53.7537Z" fill="#F0F0F0"/>
<path id="Vector_33" d="M100.043 131.463C97.8884 131.469 95.8227 132.325 94.2992 133.845C92.7752 135.365 91.9173 137.426 91.9126 139.575C88.8236 162.275 87.7933 185.203 88.8347 208.083C88.8949 209.545 88.9639 210.879 89.0416 212.171C89.1625 214.291 89.3005 216.545 89.481 218.851C89.5763 220.214 89.6797 221.571 89.8001 222.933C89.99 225.141 90.1969 227.394 90.4295 229.613C90.5674 230.976 90.7141 232.344 90.8695 233.701C91.171 236.368 91.5158 239.105 91.9126 242.064C91.9103 243.129 92.1189 244.189 92.5262 245.173C92.9341 246.163 93.5325 247.06 94.2875 247.817C95.0425 248.569 95.9395 249.168 96.9271 249.582C97.9147 249.99 98.9736 250.199 100.043 250.205H236.347C238.504 250.199 240.567 249.343 242.086 247.829C243.611 246.309 244.47 244.248 244.47 242.099V242.04C245.072 239.286 245.645 236.473 246.194 233.684C246.463 232.216 246.697 230.882 246.913 229.595C247.287 227.278 247.632 225.03 247.918 222.922C248.117 221.501 248.298 220.126 248.444 218.834C248.701 216.72 248.929 214.536 249.151 212.16C249.274 210.861 249.373 209.528 249.49 208.072C251.155 185.139 249.478 162.083 244.511 139.628V139.575C244.511 137.426 243.652 135.365 242.133 133.845C240.607 132.325 238.545 131.469 236.388 131.463H100.043Z" fill="#3F3D56"/>
<path id="Vector_34" d="M173.486 166.177C143.955 166.177 112.658 163.504 71.7461 158.14C69.6242 158.135 67.5777 157.354 65.9999 155.933C64.4215 154.518 63.4222 152.573 63.1931 150.471C63.1516 150.15 63.1318 149.83 63.133 149.516V124.929C63.1289 124.876 63.1289 124.824 63.133 124.771C63.1803 122.518 64.1077 120.369 65.7182 118.785C67.3282 117.201 69.4944 116.31 71.7548 116.298C143.007 106.625 186.298 106.625 264.707 116.298C266.975 116.298 269.154 117.189 270.767 118.779C272.38 120.369 273.303 122.535 273.327 124.795C273.333 124.841 273.333 124.882 273.327 124.929V149.516C273.327 149.83 273.309 150.15 273.274 150.471C273.046 152.585 272.035 154.542 270.446 155.957C268.85 157.378 266.788 158.152 264.655 158.14C230.778 163.504 203.009 166.177 173.486 166.177Z" fill="#F6BC54"/>
<path id="Vector_35" d="M178.218 183.251H160.302C158.015 183.251 155.822 182.349 154.205 180.735C152.588 179.122 151.68 176.933 151.68 174.65V109.671C151.68 107.394 152.588 105.204 154.205 103.591C155.822 101.978 158.015 101.069 160.302 101.069H178.218C180.505 101.069 182.698 101.978 184.315 103.591C185.932 105.204 186.84 107.394 186.84 109.671V174.632C186.843 175.762 186.621 176.886 186.189 177.929C185.757 178.977 185.122 179.926 184.321 180.73C183.521 181.527 182.569 182.162 181.522 182.599C180.475 183.03 179.352 183.251 178.218 183.251Z" fill="#3F3D56"/>
<path id="Vector_36" d="M218.904 88.7006C218.775 87.4835 218.547 86.2779 218.226 85.0957C217.87 83.9136 217.425 82.7664 216.899 81.6541C214.977 77.5718 211.751 74.2465 207.731 72.1908C202.728 69.7391 197.014 69.541 191.643 70.7174C187.126 71.7307 182.883 73.7107 179.21 76.5235C177.311 77.9561 175.577 79.5926 174.037 81.4037C172.267 83.8263 170.671 86.3769 169.261 89.0267C167.586 85.2297 165.181 81.7997 162.182 78.9287C158.699 75.6325 154.543 73.1225 149.999 71.5793C147.582 70.7698 145.074 70.2632 142.532 70.0652C139.842 69.8439 137.134 70.0769 134.522 70.764C129.833 72.0802 125.777 75.0386 123.099 79.0976C120.554 82.8771 119.304 87.3729 119.537 91.9153C119.665 94.2097 120.159 96.4693 121.003 98.6124C121.463 99.7538 122.002 100.86 122.615 101.932C123.254 102.997 123.969 104.017 124.754 104.983C127.826 108.751 131.967 111.506 136.635 112.88C141.636 114.295 146.888 114.586 152.016 113.742C157.25 112.874 162.371 111.43 167.286 109.438L169.269 108.681C173.641 110.463 178.136 111.919 182.719 113.043C187.906 114.295 193.288 114.505 198.556 113.672C203.471 112.874 208.035 110.644 211.687 107.272C215.07 104.098 217.437 99.9983 218.495 95.485C219.015 93.2663 219.155 90.966 218.904 88.7006ZM150.637 108.693C147.794 109.042 144.919 109.042 142.076 108.693C140.035 108.396 138.036 107.872 136.118 107.121C131.601 105.251 127.993 101.699 126.064 97.2146C125.492 95.7995 125.084 94.3203 124.849 92.812C124.702 91.4667 124.702 90.1099 124.849 88.7705C125.071 87.3553 125.453 85.9751 125.987 84.6473C126.564 83.3545 127.281 82.1258 128.125 80.9902C128.943 79.9769 129.868 79.051 130.884 78.2299C131.845 77.5194 132.88 76.9137 133.971 76.4245C135.274 75.9121 136.63 75.5568 138.014 75.3471C139.884 75.1258 141.775 75.1258 143.645 75.3471C145.871 75.6849 148.05 76.2847 150.137 77.1292C152.356 78.09 154.454 79.313 156.388 80.7689C158.174 82.1782 159.791 83.7855 161.207 85.5675C162.618 87.4252 163.8 89.446 164.725 91.5891C165.628 93.8254 166.262 96.1606 166.613 98.5482C166.476 99.7479 166.407 100.953 166.407 102.165C166.407 102.625 166.407 103.091 166.45 103.557C166.228 103.766 166.044 104.017 165.906 104.29C162.253 105.717 158.509 106.899 154.698 107.831C153.37 108.244 152.008 108.495 150.637 108.693ZM213.662 92.812C213.422 94.3203 213.013 95.7995 212.447 97.2146C210.541 101.716 206.936 105.286 202.413 107.161C200.49 107.913 198.492 108.442 196.454 108.734C193.603 109.071 190.722 109.054 187.875 108.681C182.839 107.854 177.908 106.486 173.166 104.599L172.58 104.372C172.445 104.104 172.268 103.854 172.054 103.644C172.14 101.961 172.088 100.272 171.899 98.6007C172.25 96.2189 172.884 93.8835 173.787 91.6473C174.713 89.51 175.891 87.4893 177.296 85.6258C178.718 83.8496 180.337 82.2365 182.125 80.8272C184.058 79.3713 186.156 78.1542 188.376 77.1874C190.459 76.343 192.636 75.7432 194.859 75.4054C196.732 75.1841 198.626 75.1841 200.496 75.4054C201.881 75.615 203.231 75.9762 204.534 76.4828C205.627 76.972 206.667 77.5776 207.625 78.288C208.642 79.1092 209.571 80.0351 210.39 81.0484C211.231 82.1898 211.95 83.4128 212.528 84.7056C213.06 86.0334 213.44 87.4136 213.662 88.8287C213.808 90.1507 213.808 91.49 213.662 92.812Z" fill="#3F3D56"/>
<path id="Vector_37" d="M114.727 186.128C116.465 186.128 117.874 184.719 117.874 182.989C117.874 181.254 116.465 179.845 114.727 179.845C112.989 179.845 111.58 181.254 111.58 182.989C111.58 184.719 112.989 186.128 114.727 186.128Z" fill="#F6BC54"/>
<path id="Vector_38" d="M137.265 178.284C139.003 178.284 140.412 176.875 140.412 175.139C140.412 173.41 139.003 172 137.265 172C135.527 172 134.118 173.41 134.118 175.139C134.118 176.875 135.527 178.284 137.265 178.284Z" fill="#F6BC54"/>
<path id="Vector_39" d="M127.306 202.871C129.045 202.871 130.453 201.462 130.453 199.726C130.453 197.997 129.045 196.587 127.306 196.587C125.568 196.587 124.159 197.997 124.159 199.726C124.159 201.462 125.568 202.871 127.306 202.871Z" fill="#F6BC54"/>
<path id="Vector_40" d="M220.622 186.128C222.357 186.128 223.772 184.719 223.772 182.989C223.772 181.254 222.357 179.845 220.622 179.845C218.886 179.845 217.472 181.254 217.472 182.989C217.472 184.719 218.886 186.128 220.622 186.128Z" fill="#F6BC54"/>
<path id="Vector_41" d="M198.075 178.284C199.812 178.284 201.221 176.875 201.221 175.139C201.221 173.41 199.812 172 198.075 172C196.337 172 194.928 173.41 194.928 175.139C194.928 176.875 196.337 178.284 198.075 178.284Z" fill="#F6BC54"/>
<path id="Vector_42" d="M208.04 202.871C209.782 202.871 211.19 201.462 211.19 199.726C211.19 197.997 209.782 196.587 208.04 196.587C206.305 196.587 204.896 197.997 204.896 199.726C204.896 201.462 206.305 202.871 208.04 202.871Z" fill="#F6BC54"/>
<path id="Vector_43" d="M223.246 241.056C224.982 241.056 226.39 239.653 226.39 237.917C226.39 236.182 224.982 234.778 223.246 234.778C221.505 234.778 220.096 236.182 220.096 237.917C220.096 239.653 221.505 241.056 223.246 241.056Z" fill="#F6BC54"/>
<path id="Vector_44" d="M231.106 218.559C232.841 218.559 234.256 217.156 234.256 215.421C234.256 213.685 232.841 212.282 231.106 212.282C229.37 212.282 227.956 213.685 227.956 215.421C227.956 217.156 229.37 218.559 231.106 218.559Z" fill="#F6BC54"/>
<path id="Vector_45" d="M206.462 228.495C208.204 228.495 209.612 227.091 209.612 225.356C209.612 223.62 208.204 222.217 206.462 222.217C204.727 222.217 203.318 223.62 203.318 225.356C203.318 227.091 204.727 228.495 206.462 228.495Z" fill="#F6BC54"/>
<path id="Vector_46" d="M133.074 241.056C134.812 241.056 136.221 239.653 136.221 237.917C136.221 236.182 134.812 234.778 133.074 234.778C131.336 234.778 129.927 236.182 129.927 237.917C129.927 239.653 131.336 241.056 133.074 241.056Z" fill="#F6BC54"/>
<path id="Vector_47" d="M140.937 218.559C142.675 218.559 144.084 217.156 144.084 215.421C144.084 213.685 142.675 212.282 140.937 212.282C139.199 212.282 137.79 213.685 137.79 215.421C137.79 217.156 139.199 218.559 140.937 218.559Z" fill="#F6BC54"/>
<path id="Vector_48" d="M116.295 228.495C118.034 228.495 119.443 227.091 119.443 225.356C119.443 223.62 118.034 222.217 116.295 222.217C114.557 222.217 113.148 223.62 113.148 225.356C113.148 227.091 114.557 228.495 116.295 228.495Z" fill="#F6BC54"/>
<path id="Vector_49" d="M206.673 19.3943C207.865 19.8893 209.162 20.0697 210.442 19.9183C211.728 19.7669 212.949 19.2894 213.989 18.5324C216.648 16.5524 217.647 13.0932 218.483 9.93102L220.949 0.467773L216.777 2.98927C213.785 4.80039 210.74 6.67561 208.549 9.44179C206.363 12.2021 205.299 16.0574 206.725 19.2545" fill="#F2F2F2"/>
<path id="Vector_50" d="M95.2145 100.353C96.0168 99.3516 96.5463 98.1518 96.7514 96.8823C96.9571 95.6127 96.8314 94.3083 96.3873 93.1028C95.2063 90.0046 92.1541 88.1061 89.2912 86.4173L80.833 81.4556L82.1268 86.1494C83.049 89.5271 84.0231 92.9747 86.0842 95.805C88.1447 98.6353 91.5674 100.743 95.0421 100.254" fill="#F2F2F2"/>
<path id="Vector_51" d="M293.902 246.297C294.703 245.29 295.235 244.09 295.439 242.82C295.644 241.545 295.521 240.246 295.071 239.035C293.902 235.948 290.84 234.038 287.977 232.361L279.521 227.394L280.812 232.093C281.742 235.465 282.706 238.913 284.769 241.743C286.832 244.573 290.262 246.681 293.727 246.192" fill="#F2F2F2"/>
<path id="Vector_52" d="M134.117 61.1082C136.431 61.1082 138.307 59.2388 138.307 56.9269C138.307 54.6208 136.431 52.7456 134.117 52.7456C131.803 52.7456 129.927 54.6208 129.927 56.9269C129.927 59.2388 131.803 61.1082 134.117 61.1082Z" fill="#FD6584"/>
<path id="Vector_53" d="M22.4547 184.55C24.7688 184.55 26.6447 182.681 26.6447 180.375C26.6447 178.063 24.7688 176.193 22.4547 176.193C20.14 176.193 18.2642 178.063 18.2642 180.375C18.2642 182.681 20.14 184.55 22.4547 184.55Z" fill="#FD6584"/>
<path id="Vector_54" d="M310.791 150.552C313.105 150.552 314.981 148.683 314.981 146.371C314.981 144.065 313.105 142.189 310.791 142.189C308.477 142.189 306.601 144.065 306.601 146.371C306.601 148.683 308.477 150.552 310.791 150.552Z" fill="#FD6584"/>
<path id="Vector_55" d="M18.2638 79.4177C20.578 79.4177 22.4538 77.5426 22.4538 75.2365C22.4538 72.9245 20.578 71.0552 18.2638 71.0552C15.9497 71.0552 14.0732 72.9245 14.0732 75.2365C14.0732 77.5426 15.9497 79.4177 18.2638 79.4177Z" fill="#E6E6E6"/>
<path id="Vector_56" d="M277.762 198.678C280.076 198.678 281.952 196.809 281.952 194.497C281.952 192.191 280.076 190.315 277.762 190.315C275.448 190.315 273.566 192.191 273.566 194.497C273.566 196.809 275.448 198.678 277.762 198.678Z" fill="#E6E6E6"/>
<path id="Vector_57" d="M286.148 71.5677C288.462 71.5677 290.338 69.6984 290.338 67.3923C290.338 65.0803 288.462 63.2109 286.148 63.2109C283.834 63.2109 281.958 65.0803 281.958 67.3923C281.958 69.6984 283.834 71.5677 286.148 71.5677Z" fill="#E6E6E6"/>
<path id="Vector_58" d="M102.259 138.131C102.044 138.369 101.744 138.515 101.423 138.544C101.102 138.567 100.784 138.463 100.535 138.259C100.397 138.131 100.288 137.973 100.213 137.799C100.138 137.624 100.099 137.438 100.099 137.251C100.099 137.059 100.138 136.873 100.213 136.698C100.288 136.523 100.397 136.366 100.535 136.238C102.035 134.45 104.51 136.343 104.846 138.125C104.969 138.993 104.834 139.878 104.459 140.676C104.084 141.468 103.484 142.137 102.734 142.597C101.865 143.028 100.885 143.197 99.9222 143.069C98.9586 142.947 98.0546 142.533 97.3276 141.893C94.2579 139.359 95.0941 134.305 98.4999 132.482C100.673 131.311 103.423 131.824 105.57 132.796C107.984 133.897 110.054 135.586 112.286 136.989C117.179 140.047 122.715 141.933 128.461 142.504C129.47 142.603 129.461 141.031 128.461 140.938C125.278 140.6 122.152 139.849 119.167 138.701C116.212 137.502 113.408 135.97 110.812 134.124C108.226 132.331 105.44 130.589 102.19 130.286C100.878 130.129 99.5482 130.327 98.3362 130.851C97.1248 131.381 96.0747 132.214 95.2928 133.28C94.5963 134.229 94.1299 135.33 93.9312 136.488C93.7319 137.647 93.8056 138.835 94.1457 139.965C94.553 141.141 95.2665 142.196 96.2132 143.011C97.1599 143.82 98.3059 144.374 99.5348 144.601C100.718 144.822 101.941 144.671 103.033 144.17C104.126 143.663 105.034 142.83 105.63 141.788C106.269 140.78 106.551 139.587 106.435 138.404C106.317 137.216 105.807 136.104 104.983 135.242C104.466 134.712 103.817 134.334 103.103 134.142C102.389 133.944 101.637 133.944 100.923 134.142C100.266 134.363 99.6873 134.77 99.259 135.312C98.83 135.854 98.5694 136.512 98.5086 137.205C98.3362 139.878 102.147 141.217 103.604 138.923C104.147 138.061 102.785 137.28 102.25 138.131H102.259Z" fill="#3F3D56"/>
<path id="Vector_59" d="M236.757 138.131C236.967 138.369 237.271 138.515 237.592 138.544C237.914 138.567 238.229 138.463 238.48 138.259C238.615 138.131 238.72 137.973 238.796 137.799C238.872 137.624 238.907 137.438 238.907 137.251C238.907 137.059 238.872 136.873 238.796 136.698C238.72 136.529 238.615 136.372 238.48 136.238C236.979 134.45 234.495 136.343 234.168 138.125C234.045 138.993 234.18 139.884 234.554 140.676C234.933 141.474 235.535 142.137 236.289 142.597C237.154 143.034 238.136 143.197 239.1 143.069C240.064 142.947 240.964 142.533 241.695 141.893C244.763 139.359 243.927 134.305 240.514 132.482C238.34 131.311 235.588 131.824 233.449 132.796C231.036 133.897 228.961 135.586 226.729 136.989C221.837 140.047 216.298 141.939 210.553 142.504C209.542 142.603 209.554 141.031 210.553 140.938C213.732 140.6 216.859 139.849 219.845 138.701C222.802 137.508 225.607 135.97 228.201 134.124C230.831 132.33 233.572 130.589 236.821 130.286C238.136 130.135 239.462 130.333 240.678 130.857C241.887 131.381 242.939 132.22 243.722 133.28C244.412 134.229 244.879 135.329 245.078 136.488C245.277 137.647 245.201 138.835 244.868 139.965C244.459 141.141 243.74 142.196 242.793 143.005C241.847 143.82 240.701 144.374 239.468 144.601C238.288 144.822 237.066 144.671 235.973 144.17C234.881 143.663 233.969 142.83 233.373 141.788C232.736 140.78 232.456 139.587 232.572 138.404C232.695 137.216 233.204 136.104 234.028 135.242C234.542 134.712 235.19 134.334 235.903 134.141C236.616 133.943 237.37 133.943 238.083 134.141C238.738 134.357 239.322 134.765 239.749 135.312C240.175 135.854 240.438 136.512 240.497 137.205C240.666 139.878 236.856 141.217 235.401 138.923C234.857 138.061 236.219 137.28 236.762 138.131H236.757Z" fill="#3F3D56"/>
<path id="Vector_60" d="M47.5273 19.4352L45.458 22.0326L38.103 17.6998L40.1811 15.1025L47.5273 19.4352Z" fill="#E4E4E4"/>
<path id="Vector_61" d="M55.2005 30.6104L57.0285 33.3357L49.3118 37.1735L47.4839 34.4421L55.2005 30.6104Z" fill="#E4E4E4"/>
<path id="Vector_62" d="M63.1841 18.7305L66.8569 18.8586L66.4864 26.5165L62.8218 26.3884L63.1841 18.7305Z" fill="#E4E4E4"/>
<path id="Vector_63" d="M307.033 179.495L304.953 182.098L297.607 177.766L299.688 175.168L307.033 179.495Z" fill="#E4E4E4"/>
<path id="Vector_64" d="M314.695 190.67L316.535 193.407L308.816 197.234L306.981 194.497L314.695 190.67Z" fill="#E4E4E4"/>
<path id="Vector_65" d="M322.677 178.796L326.353 178.924L325.985 186.582L322.315 186.454L322.677 178.796Z" fill="#E4E4E4"/>
</g>
</svg>
