<svg width="557" height="429" viewBox="0 0 557 429" fill="none" xmlns="http://www.w3.org/2000/svg">
<g id="gift pic">
<path id="Vector" d="M373.266 120.797C385.217 88.6217 413.442 60.8341 447.554 57.525C427.04 88.6894 418.202 126.117 422.604 163.18C424.345 177.465 427.768 193.168 420.081 205.326C415.301 212.89 406.802 217.558 398.171 219.656C389.54 221.753 380.466 221.591 371.466 221.414L369.46 222.404C363.174 188.677 361.315 152.957 373.266 120.797Z" fill="#F0F0F0"/>
<path id="Vector_2" d="M447.731 58.2193C424.467 74.4868 406.915 97.6801 397.566 124.505C395.446 130.243 394.246 136.281 394.011 142.394C393.974 148.355 395.533 154.216 398.525 159.368C401.211 164.243 404.53 168.897 405.991 174.333C406.699 177.125 406.81 180.036 406.317 182.875C405.824 185.713 404.737 188.415 403.129 190.804C399.263 196.861 393.465 201.145 387.651 205.178C381.189 209.61 374.373 214.145 370.463 221.148C369.991 222.004 368.692 221.148 369.179 220.365C376.055 208.177 390.484 203.76 399.307 193.419C403.424 188.589 406.124 182.487 404.84 176.061C403.734 170.448 400.325 165.632 397.552 160.727C394.559 155.746 392.831 150.105 392.52 144.3C392.454 138.194 393.417 132.121 395.368 126.336C399.574 113.255 405.807 100.917 413.84 89.7739C422.938 77.0002 434.15 65.8785 446.993 56.8898C447.79 56.3432 448.468 57.6727 447.716 58.2193H447.731Z" fill="white"/>
<path id="Vector_3" d="M400.075 115.7C395.795 113.517 392.429 109.882 390.578 105.445C388.727 101.007 388.51 96.0551 389.968 91.4727C390.263 90.542 391.709 90.9705 391.443 91.8864C390.078 96.1538 390.281 100.769 392.015 104.9C393.749 109.031 396.901 112.406 400.901 114.415C401.771 114.843 400.901 116.128 400.104 115.7H400.075Z" fill="white"/>
<path id="Vector_4" d="M396.843 157.093C406.203 154.126 414.105 147.739 418.975 139.203C419.461 138.361 420.745 139.203 420.258 140.001C415.176 148.865 406.949 155.489 397.212 158.556C396.283 158.851 395.943 157.374 396.858 157.078L396.843 157.093Z" fill="white"/>
<path id="Vector_5" d="M423.991 78.7091C425.471 79.9002 427.223 80.7046 429.09 81.0501C430.957 81.3956 432.881 81.2714 434.688 80.6886C435.617 80.3784 435.957 81.8557 435.042 82.1659C433.049 82.7957 430.932 82.9297 428.876 82.5565C426.819 82.1833 424.884 81.314 423.239 80.0238C423.076 79.9099 422.961 79.7393 422.918 79.5452C422.874 79.3512 422.904 79.1479 423.003 78.975C423.109 78.8078 423.276 78.6881 423.468 78.6413C423.661 78.5945 423.864 78.6241 424.035 78.7238L423.991 78.7091Z" fill="white"/>
<path id="Vector_6" d="M529.793 139.514L528.067 140.149C520.386 142.952 512.945 146.376 505.818 150.386C505.257 150.682 504.696 150.992 504.15 151.317C487.079 161.158 471.98 174.086 459.622 189.445C454.708 195.562 450.269 202.047 446.344 208.842C440.914 218.223 435.78 228.815 427.812 235.654C426.986 236.374 426.119 237.045 425.216 237.664L370.832 224.782L370.492 224.516L368.309 224.102L368.855 222.994L369.164 222.359L369.371 221.96C369.389 221.913 369.414 221.868 369.445 221.827L369.622 221.458C370.684 219.36 371.771 217.272 372.883 215.194C381.161 199.201 391.31 184.249 403.114 170.655C403.483 170.256 403.837 169.842 404.22 169.443C409.601 163.472 415.458 157.948 421.734 152.927C425.182 150.187 428.767 147.623 432.475 145.245C442.064 139.126 452.554 134.555 463.562 131.699C485.501 126.011 509.005 127.415 528.362 138.642L529.793 139.514Z" fill="#F0F0F0"/>
<path id="Vector_7" d="M529.513 140.178C501.157 139.148 473.198 147.087 449.604 162.869C444.466 166.178 439.881 170.276 436.016 175.012C432.41 179.745 430.128 185.354 429.406 191.262C428.639 196.773 428.476 202.49 426.381 207.704C425.271 210.362 423.611 212.754 421.51 214.722C419.409 216.69 416.916 218.19 414.194 219.124C407.466 221.635 400.252 221.576 393.199 221.281C385.365 220.941 377.22 220.468 369.858 223.674C368.973 224.058 368.382 222.655 369.312 222.197C382.119 216.612 396.297 221.783 409.576 218.843C415.758 217.469 421.586 214.219 424.434 208.325C426.912 203.169 427.089 197.275 427.827 191.691C428.447 185.902 430.474 180.354 433.729 175.53C437.346 170.617 441.765 166.352 446.801 162.914C458.031 155.001 470.433 148.904 483.554 144.847C498.498 140.135 514.136 138.017 529.793 138.583C530.752 138.583 530.516 140.06 529.557 140.06L529.513 140.178Z" fill="white"/>
<path id="Vector_8" d="M456.908 157.344C454.799 153.022 454.294 148.091 455.484 143.43C456.673 138.77 459.479 134.685 463.4 131.906C464.196 131.344 465.096 132.556 464.299 133.117C460.654 135.698 458.049 139.496 456.951 143.829C455.853 148.162 456.334 152.745 458.309 156.753C458.737 157.625 457.336 158.231 456.908 157.3V157.344Z" fill="white"/>
<path id="Vector_9" d="M429.435 188.456C438.693 191.735 448.846 191.397 457.867 187.51C458.767 187.126 459.342 188.544 458.427 188.987C449.027 193.007 438.458 193.329 428.83 189.889C427.916 189.504 428.521 188.116 429.435 188.456Z" fill="white"/>
<path id="Vector_10" d="M498.234 142.232C498.707 144.075 499.628 145.772 500.915 147.172C502.202 148.571 503.816 149.63 505.611 150.253C506.541 150.564 505.921 151.952 505.006 151.642C503.027 150.943 501.249 149.77 499.827 148.225C498.405 146.68 497.382 144.81 496.847 142.778C496.782 142.592 496.791 142.388 496.87 142.207C496.949 142.026 497.094 141.882 497.275 141.803C497.461 141.731 497.668 141.736 497.85 141.816C498.033 141.896 498.176 142.046 498.249 142.232H498.234Z" fill="white"/>
<path id="Vector_11" d="M58.161 415.645C27.0297 401.286 1.49017 371.002 0.767212 336.685C30.2419 359.503 66.8225 371.155 104.046 369.584C118.402 368.919 134.307 366.63 145.83 375.286C153.001 380.634 157.014 389.409 158.445 398.243C159.876 407.077 159.035 416.118 158.18 425.041L159.021 427.109C125.012 430.847 89.3071 430.005 58.161 415.645Z" fill="#F0F0F0"/>
<path id="Vector_12" d="M1.47539 336.582C15.9435 361.037 37.7394 380.307 63.7675 391.655C69.3226 394.196 75.2427 395.846 81.3103 396.544C87.2437 397.034 93.1996 395.922 98.5579 393.324C103.604 391.005 108.502 388.05 114.02 386.986C116.862 386.486 119.777 386.593 122.574 387.301C125.371 388.009 127.987 389.301 130.25 391.093C135.989 395.407 139.84 401.523 143.396 407.639C147.335 414.419 151.334 421.525 158.003 426.001C158.814 426.548 157.929 427.774 157.117 427.227C145.52 419.442 142.201 404.699 132.566 395.111C128.066 390.68 122.238 387.489 115.702 388.272C110.022 388.951 104.976 392.009 99.8858 394.402C94.6968 397.014 88.9459 398.308 83.1398 398.169C77.0429 397.789 71.0555 396.37 65.4348 393.974C52.7233 388.786 40.9039 381.633 30.4083 372.775C18.3794 362.724 8.15503 350.688 0.177012 337.188C-0.32463 336.346 1.06227 335.71 1.54916 336.582H1.47539Z" fill="white"/>
<path id="Vector_13" d="M55.1217 388.523C52.624 392.63 48.75 395.715 44.191 397.228C39.632 398.74 34.6845 398.582 30.2314 396.781C30.1345 396.746 30.0454 396.692 29.9693 396.623C29.8931 396.553 29.8314 396.47 29.7875 396.376C29.7437 396.283 29.7186 396.182 29.7138 396.079C29.7089 395.976 29.7244 395.873 29.7592 395.776C29.7941 395.679 29.8477 395.59 29.917 395.514C29.9863 395.437 30.0699 395.376 30.1631 395.332C30.2563 395.288 30.3572 395.263 30.46 395.258C30.5629 395.253 30.6657 395.268 30.7625 395.303C34.9067 396.991 39.517 397.138 43.76 395.718C48.0031 394.298 51.5988 391.406 53.8971 387.563C54.3987 386.735 55.6086 387.562 55.1217 388.464V388.523Z" fill="white"/>
<path id="Vector_14" d="M96.0941 394.831C93.8682 385.265 88.1198 376.893 79.9972 371.386C79.2005 370.84 80.0858 369.614 80.8825 370.16C89.338 375.903 95.3183 384.629 97.6285 394.594C97.8498 395.555 96.3596 395.776 96.1531 394.831H96.0941Z" fill="white"/>
<path id="Vector_15" d="M20.0952 361.814C21.3912 360.425 22.3219 358.735 22.8036 356.896C23.2852 355.057 23.3026 353.128 22.8543 351.281C22.633 350.335 24.1231 350.099 24.3297 351.044C24.8101 353.088 24.7843 355.218 24.2546 357.25C23.7249 359.281 22.7073 361.152 21.2903 362.7C21.1675 362.857 20.9903 362.963 20.7936 362.996C20.597 363.028 20.3951 362.986 20.228 362.877C20.0673 362.757 19.9602 362.578 19.9298 362.379C19.8995 362.18 19.9483 361.977 20.0657 361.814H20.0952Z" fill="white"/>
<path id="Vector_16" d="M88.6431 260.783L89.1301 262.541C91.3414 270.421 94.1884 278.109 97.6432 285.527C97.9088 286.118 98.1744 286.694 98.4547 287.27C106.968 305.039 118.705 321.069 133.068 334.543C138.781 339.927 144.897 344.866 151.363 349.316C160.304 355.447 170.47 361.37 176.681 369.85C177.337 370.728 177.938 371.646 178.481 372.598L161.544 425.913L161.263 426.223L160.673 428.38L159.626 427.744L159.021 427.39L158.622 427.153L158.504 427.08L158.194 426.932C156.227 425.691 154.225 424.445 152.189 423.194C136.899 413.735 122.784 402.494 110.14 389.705C109.771 389.321 109.373 388.922 109.019 388.508C103.472 382.687 98.409 376.422 93.8809 369.776C91.4127 366.128 89.1326 362.356 87.0497 358.475C81.6762 348.442 77.9169 337.624 75.9103 326.418C71.8972 304.082 75.0693 280.711 87.7137 262.231C87.9792 261.699 88.3038 261.241 88.6431 260.783Z" fill="#F0F0F0"/>
<path id="Vector_17" d="M89.2777 261.108C86.1063 289.339 91.904 317.852 105.847 342.594C108.744 347.978 112.48 352.864 116.912 357.072C121.35 361.042 126.772 363.746 132.611 364.901C138.04 366.098 143.721 366.689 148.767 369.171C151.328 370.486 153.583 372.328 155.386 374.576C157.188 376.824 158.497 379.426 159.227 382.215C161.204 389.099 160.614 396.308 159.773 403.325C158.844 411.125 157.767 419.221 160.393 426.814C160.717 427.73 159.271 428.173 158.917 427.257C154.329 413.961 160.555 400.267 158.637 386.809C157.737 380.516 154.934 374.474 149.283 371.18C144.326 368.225 138.468 367.693 132.965 366.541C127.252 365.489 121.883 363.055 117.325 359.45C112.694 355.478 108.777 350.742 105.743 345.445C98.708 333.643 93.5698 320.806 90.517 307.406C86.9607 292.129 86.0326 276.357 87.7727 260.768C87.9203 259.793 89.3809 260.148 89.2777 261.108Z" fill="white"/>
<path id="Vector_18" d="M100.889 334.898C96.4244 336.671 91.476 336.799 86.9257 335.259C82.3753 333.72 78.5187 330.613 76.0431 326.492C75.5414 325.65 76.8103 324.837 77.3119 325.679C79.6078 329.525 83.2016 332.422 87.4442 333.847C91.6869 335.272 96.2986 335.131 100.446 333.45C101.346 333.081 101.789 334.528 100.889 334.927V334.898Z" fill="white"/>
<path id="Vector_19" d="M129.792 364.665C133.759 355.671 134.191 345.511 131.002 336.213C130.944 336.017 130.965 335.805 131.062 335.625C131.159 335.445 131.323 335.311 131.519 335.252C131.714 335.193 131.925 335.215 132.105 335.312C132.285 335.409 132.419 335.574 132.478 335.769C135.753 345.436 135.279 355.982 131.15 365.315C130.752 366.201 129.424 365.492 129.822 364.606L129.792 364.665Z" fill="white"/>
<path id="Vector_20" d="M88.953 292.5C90.8235 292.175 92.5839 291.39 94.0753 290.213C95.5667 289.037 96.7421 287.508 97.4957 285.763C97.8793 284.862 99.2219 285.572 98.8383 286.473C97.9935 288.396 96.6912 290.083 95.0452 291.386C93.3991 292.689 91.4595 293.568 89.3956 293.948C89.204 293.996 89.0013 293.972 88.8269 293.879C88.6524 293.786 88.5186 293.631 88.4514 293.445C88.4218 293.35 88.4114 293.25 88.4206 293.151C88.4299 293.052 88.4586 292.956 88.5053 292.868C88.5519 292.78 88.6155 292.702 88.6924 292.639C88.7692 292.576 88.8578 292.529 88.953 292.5Z" fill="white"/>
<path id="Vector_21" d="M129.852 226.023C102.335 198.915 90.7235 170.625 97.1416 146.368C105.36 115.257 141.921 93.733 197.47 87.2773L197.677 89.0647C142.939 95.3727 106.938 116.409 98.9121 146.767C92.6711 170.403 104.12 198.043 131.15 224.693L129.852 226.023Z" fill="#F0F0F0"/>
<path id="Vector_22" d="M395.279 322.282C360.946 322.282 323.633 317.171 286.571 307.347C240.744 295.203 198.724 276.856 165.055 254.313L166.058 252.835C199.55 275.275 241.393 293.519 287.043 305.618C328.354 316.55 369.843 321.617 407.201 320.288V322.075C403.306 322.208 399.307 322.282 395.279 322.282Z" fill="#F0F0F0"/>
<path id="Vector_23" d="M474.037 310.981L473.462 309.282C504.18 298.941 523.375 282.144 529.011 260.857C536.167 233.793 520.616 202.386 485.236 172.427C449.855 142.468 398.393 117.325 340.851 102.08L341.309 100.336C399.115 115.656 450.637 140.769 486.401 171.053C522.165 201.338 538.041 233.542 530.664 261.315C524.954 283.208 505.346 300.389 474.037 310.981Z" fill="#F0F0F0"/>
<path id="Vector_24" d="M192.129 323.035C124.658 293.076 72.62 254.194 45.7379 213.584L47.2133 212.594C73.9479 252.924 125.661 291.569 192.822 321.381L192.129 323.035Z" fill="#F0F0F0"/>
<path id="Vector_25" d="M429.273 374.932C422.319 374.932 415.242 374.774 408.042 374.459L408.116 372.672C461.821 374.991 509.211 368.565 545.167 354.058L545.831 355.727C514.464 368.373 474.495 374.932 429.273 374.932Z" fill="#F0F0F0"/>
<path id="Vector_26" d="M390.13 88.9467C378.976 85.3126 367.512 81.9296 356.048 78.8864C290.038 61.3955 225.164 55.25 168.419 60.9375L168.227 59.091C225.193 53.3148 290.289 59.5489 356.505 77.0989C367.999 80.1421 379.507 83.5398 390.691 87.1887L390.13 88.9467Z" fill="#F0F0F0"/>
<path id="Vector_27" d="M87.6841 228.726C60.1823 201.603 48.5561 173.314 54.9741 149.072C63.1922 117.945 99.7531 96.4363 155.303 89.9807L155.509 91.7682C100.771 98.0761 64.7856 119.098 56.7446 149.47C50.5036 173.107 61.9676 200.732 88.9973 227.382L87.6841 228.726Z" fill="#F0F0F0"/>
<path id="Vector_28" d="M353.112 325C318.779 325 281.466 319.889 244.403 310.065C198.577 297.922 156.557 279.589 122.888 257.045L123.891 255.568C157.398 277.993 199.226 296.252 244.875 308.351C286.187 319.283 327.676 324.35 365.033 323.006V324.808C361.128 324.936 357.154 325 353.112 325Z" fill="#F0F0F0"/>
<path id="Vector_29" d="M431.884 313.669L431.309 311.971C462.013 301.63 481.222 284.833 486.844 263.546C494 236.482 478.449 205.075 443.068 175.116C407.688 145.157 356.24 120.028 298.684 104.768L299.141 103.04C356.948 118.359 408.47 143.473 444.234 173.757C479.998 204.041 495.873 236.231 488.585 264.003C482.786 285.897 463.178 303.077 431.884 313.669Z" fill="#F0F0F0"/>
<path id="Vector_30" d="M149.917 325.724C82.4464 295.765 30.4084 256.898 3.54102 216.273L5.01643 215.283C31.7658 255.627 83.4792 294.258 150.625 324.084L149.917 325.724Z" fill="#F0F0F0"/>
<path id="Vector_31" d="M387.12 377.62C380.156 377.62 373.079 377.468 365.889 377.163L365.963 375.36C419.668 377.694 467.044 371.253 503 356.747L503.664 358.416C472.311 371.076 432.342 377.62 387.12 377.62Z" fill="#F0F0F0"/>
<path id="Vector_32" d="M347.978 91.5909C336.823 87.9568 325.345 84.5739 313.881 81.5307C247.885 64.0398 182.996 57.8205 126.252 63.5671L126.075 61.7796C183.026 56.0182 248.136 62.2375 314.338 79.7875C325.846 82.8455 337.34 86.2285 348.523 89.8773L347.978 91.5909Z" fill="#F0F0F0"/>
<path id="e3b13650-ec26-4d46-b148-6e027bc06f3e-369" d="M352.197 32.5886C354.236 33.4384 356.46 33.7489 358.653 33.4902C360.847 33.2315 362.937 32.4123 364.724 31.1113C369.268 27.7136 370.979 21.775 372.41 16.3386L376.63 0.088623L369.489 4.41702C364.369 7.53406 359.161 10.7545 355.414 15.4966C351.666 20.2386 349.851 26.8568 352.286 32.3523" fill="#F2F2F2"/>
<path id="fe24b413-2f3e-41ab-87c6-b6db4596196d-370" d="M161.47 171.615C162.843 169.885 163.748 167.832 164.1 165.651C164.451 163.47 164.236 161.235 163.476 159.161C161.455 153.843 156.232 150.578 151.334 147.683L136.86 139.159L139.073 147.225C140.652 153.016 142.319 158.94 145.845 163.8C149.371 168.66 155.229 172.28 161.175 171.437" fill="#F2F2F2"/>
<path id="a5193a92-e661-4e54-a5ba-e6f2c93163f3-371" d="M501.465 422.219C502.842 420.489 503.75 418.433 504.101 416.249C504.453 414.065 504.236 411.827 503.472 409.751C501.465 404.448 496.228 401.168 491.329 398.287L476.855 389.764L479.068 397.83C480.662 403.62 482.314 409.544 485.841 414.405C489.367 419.265 495.239 422.884 501.17 422.042" fill="#F2F2F2"/>
<path id="Vector_33" d="M228.041 104.222C232.001 104.222 235.211 101.007 235.211 97.042C235.211 93.0769 232.001 89.8625 228.041 89.8625C224.08 89.8625 220.87 93.0769 220.87 97.042C220.87 101.007 224.08 104.222 228.041 104.222Z" fill="#FD6584"/>
<path id="Vector_34" d="M36.9592 316.195C40.9194 316.195 44.1298 312.981 44.1298 309.016C44.1298 305.051 40.9194 301.836 36.9592 301.836C32.9991 301.836 29.7887 305.051 29.7887 309.016C29.7887 312.981 32.9991 316.195 36.9592 316.195Z" fill="#FD6584"/>
<path id="Vector_35" d="M530.369 257.814C534.329 257.814 537.539 254.599 537.539 250.634C537.539 246.669 534.329 243.455 530.369 243.455C526.409 243.455 523.198 246.669 523.198 250.634C523.198 254.599 526.409 257.814 530.369 257.814Z" fill="#FD6584"/>
<path id="Vector_36" d="M29.7887 135.658C33.7489 135.658 36.9592 132.444 36.9592 128.478C36.9592 124.513 33.7489 121.299 29.7887 121.299C25.8285 121.299 22.6182 124.513 22.6182 128.478C22.6182 132.444 25.8285 135.658 29.7887 135.658Z" fill="#E6E6E6"/>
<path id="Vector_37" d="M473.845 340.452C477.806 340.452 481.016 337.238 481.016 333.273C481.016 329.308 477.806 326.093 473.845 326.093C469.885 326.093 466.675 329.308 466.675 333.273C466.675 337.238 469.885 340.452 473.845 340.452Z" fill="#E6E6E6"/>
<path id="Vector_38" d="M488.201 122.185C492.161 122.185 495.372 118.971 495.372 115.006C495.372 111.041 492.161 107.826 488.201 107.826C484.241 107.826 481.031 111.041 481.031 115.006C481.031 118.971 484.241 122.185 488.201 122.185Z" fill="#E6E6E6"/>
<path id="Vector_39" d="M79.8644 32.6625L76.3234 37.1239L63.738 29.6784L67.2938 25.217L79.8644 32.6625Z" fill="#E4E4E4"/>
<path id="Vector_40" d="M92.9956 51.8523L96.1235 56.5353L82.9185 63.1239L79.7906 58.4262L92.9956 51.8523Z" fill="#E4E4E4"/>
<path id="Vector_41" d="M106.658 31.4511L112.943 31.6727L112.309 44.8204L106.038 44.5988L106.658 31.4511Z" fill="#E4E4E4"/>
<path id="Vector_42" d="M523.936 307.509L520.38 311.985L507.81 304.54L511.365 300.078L523.936 307.509Z" fill="#E4E4E4"/>
<path id="Vector_43" d="M537.052 326.699L540.195 331.397L526.99 337.97L523.847 333.273L537.052 326.699Z" fill="#E4E4E4"/>
<path id="Vector_44" d="M550.715 306.312L557 306.534L556.366 319.682L550.095 319.46L550.715 306.312Z" fill="#E4E4E4"/>
</g>
</svg>
