<svg width="525" height="407" viewBox="0 0 525 407" fill="none" xmlns="http://www.w3.org/2000/svg">
<g id="Frame" clip-path="url(#clip0_2_88)">
<path id="Vector" d="M68.36 178.999C48.8518 170.808 33.2141 155.467 24.65 136.12C19.86 125.12 17.52 113.279 16.19 101.389C14.88 89.7294 14.61 77.3896 19.63 66.8197C22.3774 61.0119 26.5827 56.015 31.8358 52.3158C37.0889 48.6167 43.2108 46.3413 49.6048 45.7119C55.9988 45.0824 62.4468 46.1202 68.3204 48.7241C74.194 51.3279 79.2928 55.4091 83.12 60.5697C86.42 65.0097 88.73 70.34 88.79 75.8699C88.92 87.4699 79.59 96.7794 75.5 107.639C71.27 118.849 72.79 131.28 73.5 143.25C74.21 155.22 73.77 168.189 66.5 177.719" fill="#F2F2F2"/>
<path id="Vector_2" d="M418.21 325.669C438.813 320.842 456.79 308.321 468.46 290.669C475.01 280.669 479.3 269.339 482.6 257.839C485.83 246.559 488.14 234.479 484.97 223.179C483.226 216.996 479.91 211.37 475.346 206.849C470.782 202.327 465.125 199.064 458.926 197.378C452.727 195.691 446.197 195.639 439.971 197.225C433.745 198.811 428.036 201.982 423.4 206.429C419.4 210.259 416.24 215.129 415.26 220.569C413.2 231.989 420.85 242.719 423.07 254.109C425.37 265.869 421.8 277.869 419.07 289.549C416.34 301.229 414.65 314.089 420.22 324.709" fill="#F2F2F2"/>
<path id="Vector_3" d="M261.1 307.039C231.739 307.137 203.172 297.509 179.86 279.658C157.027 262.213 140.347 237.946 132.24 210.379L133.4 210.039C149.8 266.429 202.31 305.819 261.1 305.819C278.679 305.846 296.088 302.372 312.31 295.599L312.78 296.709C296.413 303.558 278.843 307.07 261.1 307.039Z" fill="#E6E6E6"/>
<path id="Vector_4" d="M388.04 133.12C382.52 115.538 373.409 99.2932 361.284 85.4157C349.159 71.5382 334.285 60.3295 317.603 52.4998C300.92 44.6701 282.794 40.3902 264.372 39.9305C245.949 39.4708 227.632 42.8419 210.58 49.8299L210.12 48.7098C227.327 41.6557 245.811 38.2524 264.401 38.7152C282.992 39.178 301.284 43.4968 318.118 51.3982C334.953 59.2997 349.962 70.6115 362.196 84.6168C374.431 98.6222 383.623 115.016 389.19 132.759L388.04 133.12Z" fill="#E6E6E6"/>
<path id="Vector_5" d="M424.3 349.378C404.575 349.378 385.294 343.529 368.893 332.571C352.492 321.612 339.71 306.037 332.162 287.814C324.613 269.591 322.638 249.538 326.486 230.192C330.334 210.847 339.833 193.077 353.78 179.129C367.728 165.182 385.498 155.683 404.844 151.835C424.189 147.987 444.242 149.962 462.465 157.511C480.688 165.059 496.264 177.841 507.222 194.242C518.181 210.642 524.03 229.924 524.03 249.649C524.001 276.09 513.484 301.44 494.788 320.136C476.091 338.833 450.741 349.349 424.3 349.378ZM424.3 151.129C404.815 151.129 385.767 156.907 369.565 167.733C353.364 178.558 340.736 193.945 333.279 211.947C325.823 229.949 323.872 249.758 327.673 268.869C331.474 287.98 340.858 305.534 354.636 319.313C368.414 333.091 385.969 342.474 405.08 346.275C424.191 350.077 444 348.126 462.002 340.669C480.004 333.212 495.391 320.585 506.216 304.383C517.042 288.182 522.82 269.134 522.82 249.649C522.799 223.524 512.413 198.474 493.943 179.998C475.472 161.522 450.425 151.129 424.3 151.099V151.129Z" fill="#3F3D56"/>
<path id="Vector_6" d="M99.7201 199.459C79.9953 199.459 60.7135 193.61 44.313 182.651C27.9125 171.693 15.1299 156.117 7.58153 137.894C0.0331955 119.671 -1.94178 99.6186 1.90632 80.2729C5.75443 60.9273 15.2528 43.1571 29.2003 29.2096C43.1478 15.2622 60.918 5.7639 80.2637 1.91581C99.6094 -1.93228 119.662 0.0427845 137.885 7.59108C156.108 15.1394 171.684 27.9219 182.643 44.3224C193.601 60.7228 199.45 80.0047 199.45 99.7294C199.421 126.17 188.904 151.52 170.208 170.216C151.511 188.913 126.161 199.43 99.7201 199.459ZM99.7201 1.20976C80.2347 1.20976 61.1868 6.98773 44.9853 17.8132C28.7837 28.6387 16.1562 44.0253 8.69942 62.0274C1.24267 80.0295 -0.708358 99.8386 3.09306 118.95C6.89448 138.06 16.2776 155.615 30.0559 169.393C43.8341 183.171 61.3887 192.555 80.4997 196.356C99.6107 200.157 119.42 198.206 137.422 190.75C155.424 183.293 170.811 170.665 181.636 154.464C192.462 138.263 198.24 119.215 198.24 99.7294C198.211 73.6093 187.822 48.567 169.352 30.0973C150.882 11.6276 125.84 1.23887 99.7201 1.20976Z" fill="#3F3D56"/>
<path id="Vector_7" d="M91.95 100.29L83.14 117.389L91.84 122.389C91.84 122.389 97.84 103.179 97.98 102.449C98.8587 102.09 99.6112 101.479 100.142 100.692C100.674 99.9053 100.96 98.9791 100.964 98.0299C100.969 97.0807 100.692 96.1514 100.169 95.3595C99.6451 94.5676 98.8986 93.9484 98.0235 93.5807C97.1484 93.213 96.1838 93.1132 95.2519 93.2936C94.32 93.474 93.4625 93.9266 92.7878 94.5944C92.1131 95.2621 91.6515 96.115 91.4615 97.045C91.2714 97.975 91.3614 98.9405 91.72 99.8194C91.79 99.9794 91.87 100.139 91.95 100.299V100.29Z" fill="#A0616A"/>
<path id="Vector_8" d="M46.77 102.62C50.7 117.17 64.82 126.409 76.55 137.499C79.3004 138.458 82.319 138.287 84.9436 137.024C87.5682 135.76 89.5844 133.507 90.55 130.759C90.66 130.439 90.76 130.109 90.84 129.759L94.84 114.299L84.84 114.029L80.68 118.549L67.23 108.959L46.77 102.62Z" fill="#3F3D56"/>
<path id="Vector_9" d="M409.47 265.119C411.176 265.233 412.77 266.006 413.914 267.275C415.059 268.545 415.664 270.211 415.6 271.919C415.577 272.255 415.53 272.589 415.46 272.919L434.82 285.119L424.12 289.849L407.37 277.539C405.988 277.117 404.785 276.249 403.948 275.071C403.11 273.894 402.686 272.473 402.74 271.029C402.773 270.203 402.97 269.392 403.318 268.643C403.667 267.893 404.16 267.22 404.77 266.662C405.38 266.104 406.094 265.673 406.872 265.393C407.649 265.112 408.474 264.989 409.3 265.029H409.47V265.119Z" fill="#FFB6B6"/>
<path id="Vector_10" d="M428.15 279.599L423.35 289.509L442.35 301.718C443.701 302.594 445.254 303.109 446.861 303.216C448.467 303.323 450.075 303.018 451.53 302.329C453.299 301.486 454.745 300.088 455.648 298.348C456.55 296.608 456.86 294.621 456.53 292.689L450.37 257.529C449.956 255.068 448.615 252.86 446.623 251.357C444.632 249.854 442.14 249.171 439.66 249.449C437.222 249.718 434.991 250.943 433.456 252.855C431.92 254.768 431.206 257.211 431.47 259.649C431.465 259.745 431.465 259.842 431.47 259.939C431.513 260.276 431.577 260.61 431.66 260.939L438.38 285.939L428.15 279.599Z" fill="#F6BC54"/>
<path id="Vector_11" d="M410.95 283.619L403.8 265.179C403.679 264.866 403.621 264.533 403.629 264.198C403.637 263.863 403.71 263.533 403.846 263.226C403.982 262.92 404.176 262.643 404.419 262.412C404.662 262.181 404.947 262 405.26 261.879L409.26 260.319C409.573 260.198 409.906 260.14 410.241 260.148C410.576 260.156 410.906 260.229 411.213 260.365C411.519 260.501 411.796 260.696 412.027 260.938C412.258 261.181 412.439 261.466 412.56 261.779L419.71 280.219C419.952 280.85 419.934 281.552 419.66 282.17C419.387 282.788 418.88 283.273 418.25 283.519L414.25 285.079C413.619 285.321 412.917 285.303 412.299 285.029C411.681 284.756 411.196 284.249 410.95 283.619Z" fill="#3F3D56"/>
<path id="Vector_12" d="M406.04 262.629C405.702 262.763 405.43 263.025 405.284 263.359C405.137 263.692 405.129 264.069 405.26 264.409L412.4 282.849C412.534 283.188 412.796 283.46 413.129 283.608C413.461 283.756 413.839 283.766 414.18 283.639L418.18 282.079C418.52 281.947 418.795 281.686 418.943 281.352C419.091 281.019 419.101 280.64 418.97 280.299L411.82 261.859C411.755 261.691 411.657 261.537 411.532 261.406C411.407 261.276 411.258 261.171 411.092 261.099C410.927 261.026 410.749 260.988 410.568 260.984C410.388 260.981 410.208 261.013 410.04 261.079L406.04 262.629Z" fill="#F6BC54"/>
<path id="Vector_13" d="M453.94 294.959H426.8V322.099H453.94V294.959Z" fill="#FFB8B8"/>
<path id="Vector_14" d="M362.44 374.888L352.07 371.398L346.3 399.608L353.32 401.978L362.44 374.888Z" fill="#FFB6B6"/>
<path id="Vector_15" d="M380.82 369.519L370.18 372.039L380.19 399.038L387.4 397.328L380.82 369.519Z" fill="#FFB6B6"/>
<path id="Vector_16" d="M452.95 329.189C458.39 365.448 385.95 344.008 385.95 344.008L363.25 375.378L349.95 372.968C349.95 372.968 355.95 354.158 366.62 328.968C371.37 317.768 425.25 320.509 425.25 320.509L426.37 311.729L457.19 311.119L452.95 329.189Z" fill="#2F2E41"/>
<path id="Vector_17" d="M383.68 336.229L363.95 336.678C367.11 363.888 369.95 374.738 369.95 374.738L381.43 371.108L383.68 336.229Z" fill="#2F2E41"/>
<path id="Vector_18" d="M437.46 250.849L442.92 243.849L450.71 243.509L451.49 250.119L455.35 251.899C459.206 266.544 459.804 281.857 457.1 296.759C456.582 297.246 456.204 297.862 456.003 298.544C455.803 299.226 455.788 299.949 455.96 300.638L456.21 301.638C455.39 302.934 455.11 304.499 455.43 305.999L457.28 309.279C458.487 311.431 458.79 313.975 458.122 316.35C457.455 318.726 455.871 320.74 453.72 321.948C453.273 322.199 452.804 322.41 452.32 322.579C440.99 326.689 430.32 328.219 422.5 316.689L420.03 276.519L437.46 250.849Z" fill="#F6BC54"/>
<path id="Vector_19" d="M443.19 245.699C451.148 245.699 457.6 239.247 457.6 231.289C457.6 223.33 451.148 216.879 443.19 216.879C435.232 216.879 428.78 223.33 428.78 231.289C428.78 239.247 435.232 245.699 443.19 245.699Z" fill="#FFB8B8"/>
<path id="Vector_20" d="M450.41 213.919C456.52 214.039 461.35 219.689 461.22 226.559C465.74 231.269 464.22 237.029 460.47 243.199C453.57 243.999 451.96 244.329 445.91 246.799L445.11 243.069L443.3 247.919C441.77 248.629 440.24 249.409 438.73 250.259C437.64 245.259 437.91 240.409 440.83 236.189C443.43 232.429 437.11 227.969 432.58 228.599L432.65 225.149L431.51 228.579C429.75 229.879 427.8 229.409 425.8 228.469C422.56 211.619 447.67 207.009 450.41 213.919Z" fill="#2F2E41"/>
<path id="Vector_21" d="M356.51 406.748L351.89 406.138L351.64 401.678L348.96 405.758L336.71 404.158C336.125 404.079 335.581 403.815 335.156 403.406C334.731 402.996 334.447 402.463 334.346 401.881C334.245 401.3 334.331 400.701 334.592 400.172C334.854 399.643 335.277 399.211 335.8 398.938L346.47 393.458L347.04 389.048L357.25 391.048L356.51 406.748Z" fill="#2F2E41"/>
<path id="Vector_22" d="M390.04 404.198L385.42 404.798L384.04 400.539L382.49 405.178L370.24 406.748C369.653 406.822 369.059 406.706 368.542 406.418C368.026 406.131 367.614 405.686 367.368 405.148C367.122 404.611 367.053 404.009 367.172 403.43C367.291 402.851 367.592 402.325 368.03 401.928L376.94 393.928L376.37 389.519L386.74 388.809L390.04 404.198Z" fill="#2F2E41"/>
<path id="Vector_23" d="M411.21 268.489C412.916 268.602 414.51 269.376 415.654 270.646C416.799 271.915 417.404 273.581 417.34 275.289C417.318 275.626 417.268 275.961 417.19 276.289L436.56 288.489L425.85 293.219L409.1 280.909C407.718 280.488 406.515 279.62 405.679 278.442C404.843 277.264 404.422 275.842 404.48 274.399C404.52 273.578 404.721 272.772 405.072 272.028C405.423 271.284 405.918 270.617 406.527 270.065C407.136 269.512 407.848 269.085 408.623 268.808C409.397 268.531 410.219 268.409 411.04 268.449H411.21V268.489Z" fill="#FFB6B6"/>
<path id="Vector_24" d="M429.88 282.969L425.08 292.879L444.08 305.089C445.431 305.964 446.984 306.48 448.591 306.586C450.197 306.693 451.805 306.388 453.26 305.699C455.029 304.856 456.475 303.458 457.378 301.718C458.28 299.978 458.59 297.991 458.26 296.059L452.11 260.899C451.696 258.439 450.355 256.232 448.363 254.731C446.37 253.23 443.879 252.549 441.4 252.829C440.192 252.96 439.022 253.328 437.956 253.911C436.89 254.495 435.95 255.283 435.189 256.23C434.429 257.178 433.862 258.266 433.523 259.433C433.183 260.599 433.077 261.821 433.21 263.029C433.205 263.122 433.205 263.216 433.21 263.309C433.253 263.646 433.317 263.98 433.4 264.309L440.12 289.309L429.88 282.969Z" fill="#F6BC54"/>
<path id="Vector_25" d="M66.74 281.059L72.82 283.809L86.31 261.639L77.33 257.579L66.74 281.059Z" fill="#A0616A"/>
<path id="Vector_26" d="M63.65 287.319L82.37 295.758L82.48 295.529C83.3521 293.595 83.4205 291.394 82.6704 289.41C81.9203 287.426 80.4131 285.821 78.48 284.948L76.23 280.809L68.68 280.529L67.05 279.789L63.65 287.319Z" fill="#2F2E41"/>
<path id="Vector_27" d="M142.13 250.909L148.56 249.099L144.66 223.439L135.17 226.109L142.13 250.909Z" fill="#A0616A"/>
<path id="Vector_28" d="M143.79 257.679L163.56 252.129L163.49 251.879C162.916 249.837 161.556 248.107 159.707 247.068C157.858 246.029 155.672 245.767 153.63 246.339L149.25 244.619L143.25 249.249L141.53 249.729L143.79 257.679Z" fill="#2F2E41"/>
<path id="Vector_29" d="M44.8201 175.929C44.9801 180.689 55.1001 193.519 60.4201 195.359C61.3201 195.679 61.8501 195.849 61.8501 195.849L63.7001 195.289L86.1301 188.499C90.0601 190.809 101.77 191.989 111.38 192.569C115.732 192.734 119.913 194.302 123.3 197.039C125.55 214.199 132.06 226.719 139.56 242.099L148.56 240.529L140.05 183.239C139.866 182.002 139.323 180.847 138.487 179.917C137.651 178.987 136.56 178.323 135.35 178.009L74.1601 162.009C74.1601 162.009 70.78 161.399 63.67 164.829C51.95 170.479 44.7001 172.469 44.8201 175.929Z" fill="#2F2E41"/>
<path id="Vector_30" d="M56.51 175.009C54.46 179.309 57.51 195.359 61.37 199.449L62.37 200.149L62.71 200.329C65.03 208.179 89.93 231.139 89.93 231.139C81.52 241.849 74.03 254.919 70.68 269.569L80.41 273.119L107.78 232.249C108.498 231.181 108.876 229.92 108.863 228.633C108.851 227.346 108.449 226.093 107.71 225.039L96.54 209.129L78.34 173.879C65.36 173.469 58.01 171.889 56.51 175.009Z" fill="#2F2E41"/>
<path id="Vector_31" d="M45.18 177.799C45.18 177.799 44.44 175.939 44.43 175.929C44.18 175.859 40.9 175.539 41.64 170.109L42.59 164.109L41.66 158.829L40.11 157.279L42.6 154.789L41.08 143.489L40.49 120.859C39.02 113.089 39.4 105.98 46.49 102.56L54.66 94.9795L63.96 94.8696L74.51 101.12L79.62 111.31L81.62 138.929L83.11 142.379L82.9801 142.499C82.9801 142.499 81.9801 143.399 81.5401 143.889C81.3201 144.189 81.7301 146.469 82.2201 148.399L82.86 153.169L81.26 154.319L83.34 156.779L89.0401 166.409L88.7 166.329C88.31 166.229 84.7 171.599 45.43 177.579C45.27 177.629 45.26 177.799 45.18 177.799Z" fill="#3F3D56"/>
<path id="Vector_32" d="M90.1899 118.04L86.9499 116.38C86.6961 116.249 86.4706 116.069 86.2867 115.85C86.1028 115.632 85.9641 115.379 85.8785 115.107C85.793 114.834 85.7623 114.547 85.7883 114.263C85.8142 113.978 85.8964 113.702 86.03 113.449L93.8199 98.5198C93.9518 98.2668 94.1322 98.0423 94.3508 97.8591C94.5695 97.6759 94.8221 97.5378 95.0942 97.4524C95.3664 97.3669 95.6527 97.3358 95.9368 97.3611C96.2209 97.3864 96.4972 97.4676 96.7499 97.5998L99.9999 99.2995C100.253 99.4314 100.477 99.6116 100.661 99.8303C100.844 100.049 100.982 100.302 101.067 100.574C101.153 100.846 101.184 101.132 101.159 101.416C101.133 101.7 101.052 101.977 100.92 102.23L93.1299 117.159C92.8548 117.664 92.3916 118.04 91.841 118.205C91.2904 118.37 90.697 118.31 90.1899 118.04Z" fill="#3F3D56"/>
<path id="Vector_33" d="M95.95 98.1196C95.8135 98.0485 95.6642 98.0046 95.5108 97.9912C95.3575 97.9778 95.203 97.9951 95.0562 98.0415C94.9094 98.088 94.7732 98.163 94.6555 98.2622C94.5377 98.3614 94.4407 98.4829 94.37 98.6196L86.58 113.549C86.5088 113.686 86.4653 113.835 86.4519 113.988C86.4386 114.142 86.4556 114.296 86.502 114.443C86.5485 114.59 86.6234 114.726 86.7226 114.844C86.8218 114.961 86.9432 115.059 87.08 115.129L90.33 116.819C90.4647 116.899 90.614 116.951 90.7691 116.972C90.9242 116.993 91.0819 116.983 91.233 116.942C91.3841 116.901 91.5254 116.83 91.6485 116.733C91.7717 116.637 91.8742 116.516 91.95 116.379L99.74 101.449C99.8125 101.313 99.8571 101.164 99.8712 101.01C99.8853 100.857 99.8686 100.701 99.822 100.554C99.7754 100.407 99.6999 100.271 99.6 100.153C99.5001 100.036 99.3777 99.9393 99.24 99.8696L95.95 98.1196Z" fill="#F6BC54"/>
<path id="Vector_34" d="M61.45 92.8497C68.7899 92.8497 74.74 86.8996 74.74 79.5597C74.74 72.2199 68.7899 66.2698 61.45 66.2698C54.1102 66.2698 48.16 72.2199 48.16 79.5597C48.16 86.8996 54.1102 92.8497 61.45 92.8497Z" fill="#A0616A"/>
<path id="Vector_35" d="M54.9501 88.1199C54.3653 87.656 53.6363 87.4114 52.8901 87.4295C52.6603 87.4703 52.4414 87.5583 52.247 87.6873C52.0526 87.8164 51.8869 87.9836 51.7601 88.1795C51.692 88.2663 51.6032 88.3351 51.5019 88.3787C51.4006 88.4224 51.2899 88.4396 51.1801 88.4295C49.7601 88.4795 46.7401 85.8499 46.5301 80.7699C46.4301 78.3599 44.9901 74.2799 47.2801 72.0599C47.4401 71.1699 49.2301 61.9499 57.2801 61.6899C65.5701 61.4299 71.0801 63.0899 72.4101 66.2499C73.3302 68.7575 74.0295 71.3403 74.5001 73.9696L74.7701 75.5297L74.1301 74.08C73.4194 72.5713 72.2219 71.3455 70.7301 70.6C70.6968 71.0213 70.5919 71.4336 70.42 71.8197C69.9699 72.6357 69.3007 73.3096 68.4879 73.7655C67.6751 74.2214 66.7511 74.4411 65.8201 74.3998C64.3841 74.3524 62.9683 74.0477 61.6401 73.4999C61.7859 73.7178 61.8665 73.9727 61.8727 74.2347C61.8789 74.4968 61.8104 74.7553 61.675 74.9799C61.5397 75.2044 61.3432 75.3854 61.1085 75.5023C60.8739 75.6192 60.6108 75.6667 60.3501 75.6395L59.9601 75.5897C59.8235 75.5727 59.6858 75.6104 59.5771 75.6947C59.4684 75.779 59.3975 75.9034 59.3801 76.0399C59.3669 76.1451 59.3856 76.2516 59.4337 76.3461C59.4818 76.4405 59.5572 76.5185 59.6501 76.5697L59.9901 76.7499L59.5801 76.9496C57.9273 77.6847 56.5652 78.9478 55.7073 80.5404C54.8495 82.133 54.5445 83.9652 54.8401 85.7498L55.3201 88.4495L54.9501 88.1199Z" fill="#2F2E41"/>
<path id="Vector_36" d="M265.4 293.548C265.039 293.561 264.682 293.465 264.377 293.27C264.073 293.075 263.834 292.792 263.694 292.459C263.554 292.126 263.519 291.758 263.593 291.404C263.668 291.05 263.848 290.727 264.11 290.479L264.24 289.988V289.878C263.994 289.299 263.635 288.774 263.185 288.334C262.735 287.894 262.202 287.548 261.617 287.315C261.032 287.083 260.407 286.969 259.777 286.979C259.148 286.99 258.527 287.126 257.95 287.378C257.379 287.616 256.86 287.965 256.424 288.404C255.988 288.844 255.644 289.365 255.41 289.938C253.97 293.398 252.14 296.868 251.69 300.528C251.496 302.148 251.584 303.789 251.95 305.378C248.575 298.01 246.822 290.003 246.81 281.898C246.808 279.867 246.922 277.837 247.15 275.818C247.34 274.158 247.59 272.508 247.93 270.879C249.738 262.015 253.625 253.707 259.27 246.638C262.003 245.148 264.212 242.855 265.6 240.069C266.086 239.066 266.422 237.998 266.6 236.899C266.3 236.899 265.98 236.959 265.67 236.979H265.38C265.149 236.99 264.918 236.954 264.7 236.876C264.482 236.797 264.282 236.676 264.112 236.52C263.941 236.364 263.802 236.176 263.704 235.967C263.606 235.757 263.55 235.53 263.54 235.299C263.52 234.871 263.659 234.451 263.93 234.119C264.06 233.949 264.2 233.789 264.33 233.629C264.46 233.469 264.74 233.129 264.94 232.869C264.966 232.848 264.989 232.824 265.01 232.799L265.7 231.939C265.28 231.28 264.712 230.728 264.04 230.329C261.71 228.959 258.5 229.909 256.81 232.009C256.025 233.11 255.49 234.371 255.245 235.701C255 237.031 255.049 238.4 255.39 239.709C255.968 241.947 256.922 244.07 258.21 245.988L257.83 246.468C255.525 249.439 253.516 252.628 251.83 255.988C252.24 252.224 251.75 248.416 250.4 244.879C249.03 241.579 246.47 238.798 244.21 235.949C243.615 235.18 242.806 234.606 241.884 234.299C240.961 233.991 239.969 233.965 239.032 234.223C238.095 234.482 237.256 235.013 236.622 235.749C235.988 236.486 235.587 237.394 235.47 238.359V238.489C235.81 238.669 236.14 238.879 236.47 239.089C236.872 239.361 237.183 239.749 237.361 240.2C237.539 240.652 237.577 241.147 237.469 241.621C237.36 242.094 237.112 242.524 236.755 242.854C236.399 243.183 235.951 243.398 235.47 243.468C235.59 244.676 235.8 245.873 236.1 247.049C236.971 250.333 238.511 253.401 240.625 256.062C242.738 258.722 245.378 260.917 248.38 262.508L248.97 262.809C247.272 267.61 246.207 272.612 245.8 277.689C245.565 280.684 245.565 283.693 245.8 286.688V286.579C245.162 283.254 243.396 280.252 240.8 278.079C236.93 274.899 231.47 273.728 227.3 271.178C226.857 270.895 226.342 270.744 225.815 270.743C225.289 270.741 224.773 270.89 224.328 271.171C223.883 271.452 223.528 271.854 223.303 272.33C223.079 272.806 222.994 273.336 223.06 273.858V273.979C223.682 274.228 224.287 274.519 224.87 274.849C225.21 275.035 225.543 275.235 225.87 275.448C226.272 275.721 226.583 276.108 226.761 276.56C226.939 277.012 226.977 277.507 226.869 277.981C226.76 278.454 226.512 278.884 226.155 279.214C225.798 279.544 225.351 279.758 224.87 279.829H224.77C225.829 282.367 227.321 284.701 229.18 286.729C231.471 289.189 234.241 291.155 237.319 292.506C240.397 293.858 243.718 294.566 247.08 294.588C247.99 298.555 249.311 302.415 251.02 306.108H265.12C265.12 305.948 265.21 305.788 265.26 305.628C263.956 305.711 262.646 305.634 261.36 305.398C262.36 304.118 263.45 302.819 264.5 301.539L264.56 301.458C265.09 300.808 265.63 300.158 266.16 299.458C266.192 297.437 265.96 295.42 265.47 293.458L265.4 293.548Z" fill="#E6E6E6"/>
<path id="Vector_37" d="M333.16 74.9895C333.333 75.1444 333.475 75.3322 333.575 75.5417C333.676 75.7512 333.735 75.9785 333.748 76.2107C333.761 76.4428 333.728 76.6753 333.651 76.8947C333.574 77.1142 333.455 77.3162 333.3 77.4895C333.13 77.6845 332.919 77.8398 332.682 77.9436C332.445 78.0473 332.188 78.097 331.93 78.0896L331.51 78.3498V78.4694C331.171 79.3444 331.098 80.3001 331.299 81.2165C331.501 82.1329 331.968 82.9696 332.643 83.6218C333.317 84.2739 334.169 84.7126 335.092 84.883C336.015 85.0534 336.967 84.948 337.83 84.5798C341.28 83.0998 345.01 81.8998 347.89 79.5798C349.165 78.5596 350.251 77.3239 351.1 75.9294C348.365 83.5836 344.013 90.5587 338.34 96.3795C336.921 97.8353 335.422 99.2109 333.85 100.5C332.56 101.56 331.22 102.56 329.85 103.5C322.379 108.577 313.812 111.815 304.85 112.949C301.856 112.111 298.677 112.208 295.74 113.23C294.671 113.597 293.661 114.115 292.74 114.77C292.991 114.952 293.232 115.149 293.46 115.359L293.68 115.549C294.027 115.862 294.237 116.299 294.263 116.766C294.289 117.232 294.13 117.69 293.82 118.04C293.533 118.36 293.138 118.563 292.71 118.609L292.09 118.69L291.09 118.799H290.99L289.89 118.929C289.738 119.695 289.762 120.485 289.96 121.239C290.68 123.849 293.64 125.41 296.31 125.08C297.642 124.842 298.905 124.313 300.009 123.532C301.113 122.751 302.032 121.736 302.7 120.56C303.848 118.552 304.649 116.364 305.07 114.089L305.68 114.009C309.404 113.498 313.068 112.62 316.62 111.389C313.693 113.811 311.385 116.897 309.89 120.389C308.57 123.699 308.46 127.48 308.09 131.1C307.971 132.074 308.148 133.062 308.596 133.936C309.045 134.809 309.745 135.528 310.606 136C311.467 136.472 312.45 136.674 313.428 136.581C314.405 136.488 315.333 136.105 316.09 135.48L316.19 135.399C316.08 135.029 315.98 134.659 315.9 134.279C315.796 133.804 315.838 133.309 316.022 132.859C316.205 132.409 316.521 132.025 316.928 131.758C317.334 131.491 317.812 131.354 318.298 131.365C318.785 131.376 319.256 131.535 319.65 131.819C320.393 130.872 321.061 129.869 321.65 128.819C323.318 125.86 324.357 122.588 324.701 119.209C325.045 115.829 324.687 112.414 323.65 109.179L323.44 108.56C328.002 106.298 332.254 103.458 336.09 100.11C338.343 98.1198 340.433 95.9529 342.34 93.6295L342.28 93.7194C340.419 96.5552 339.593 99.9456 339.94 103.319C340.49 108.319 343.59 112.95 344.8 117.69C344.923 118.2 345.188 118.665 345.566 119.03C345.944 119.395 346.417 119.644 346.932 119.749C347.446 119.854 347.98 119.81 348.47 119.622C348.96 119.434 349.387 119.111 349.7 118.69L349.77 118.6C349.5 117.982 349.27 117.347 349.08 116.699C348.97 116.329 348.88 115.959 348.8 115.589C348.699 115.115 348.743 114.621 348.927 114.172C349.111 113.723 349.426 113.34 349.831 113.073C350.236 112.806 350.713 112.668 351.198 112.676C351.683 112.685 352.154 112.839 352.55 113.12L352.63 113.179C353.64 110.628 354.205 107.922 354.3 105.179C354.373 101.819 353.76 98.4786 352.498 95.3629C351.236 92.2473 349.352 89.422 346.96 87.0597C349.077 83.5842 350.827 79.8977 352.18 76.0598L342.08 66.2195L341.65 66.4597C342.636 67.3172 343.519 68.2873 344.28 69.3498L339.34 69.9294H339.24L336.73 70.2195C335.306 71.6407 334.072 73.2409 333.06 74.9797L333.16 74.9895Z" fill="#E6E6E6"/>
<path id="Vector_38" d="M90.15 114.44L77.4399 128.88L84.66 135.879C84.66 135.879 95.13 118.699 95.48 118.029C96.4199 117.895 97.2989 117.485 98.0058 116.851C98.7127 116.217 99.2158 115.388 99.4513 114.468C99.6868 113.549 99.6442 112.58 99.329 111.684C99.0137 110.789 98.4399 110.006 97.6802 109.437C96.9204 108.867 96.0088 108.536 95.0607 108.485C94.1126 108.434 93.1706 108.664 92.3538 109.149C91.537 109.633 90.8822 110.348 90.4721 111.205C90.062 112.061 89.9151 113.02 90.0499 113.96C90.0742 114.121 90.1076 114.282 90.15 114.44Z" fill="#A0616A"/>
<path id="Vector_39" d="M45.75 105.679C46.01 120.749 57.46 133.159 66.13 146.769C68.5639 148.373 71.535 148.946 74.3906 148.361C77.2462 147.776 79.7528 146.081 81.36 143.649C81.5519 143.369 81.7289 143.078 81.89 142.779L89.49 128.779L79.81 126.069L74.68 129.439L63.95 116.83L45.75 105.679Z" fill="#3F3D56"/>
</g>
<defs>
<clipPath id="clip0_2_88">
<rect width="524.03" height="406.778" fill="white"/>
</clipPath>
</defs>
</svg>
