<svg width="308" height="238" viewBox="0 0 308 238" fill="none" xmlns="http://www.w3.org/2000/svg">
<g id="Group">
<path id="Vector" d="M40.8413 104.426C29.4414 99.6568 20.3029 90.7236 15.2983 79.4551C12.4992 73.0492 11.1317 66.1538 10.3545 59.2297C9.58898 52.4394 9.4312 45.2536 12.3648 39.0981C13.9706 35.7146 16.4279 32.8087 19.4976 30.654C22.5674 28.4993 26.1449 27.1713 29.8814 26.8044C33.6179 26.4376 37.386 27.0431 40.818 28.5572C44.2506 30.0771 47.2303 32.4535 49.4667 35.4584C51.3952 38.0441 52.7451 41.1479 52.7801 44.3683C52.8561 51.1236 47.4039 56.545 45.0138 62.8694C42.5419 69.3975 43.4301 76.6364 43.845 83.6072C44.26 90.5779 44.0028 98.1309 39.7544 103.681" fill="#F2F2F2"/>
<path id="Vector_2" d="M245.285 189.84C257.323 187.027 267.83 179.736 274.65 169.457C278.477 163.634 280.984 157.036 282.913 150.339C284.8 143.77 286.15 136.735 284.298 130.154C283.281 126.555 281.341 123.277 278.676 120.644C276.006 118.012 272.698 116.108 269.081 115.13C265.458 114.145 261.642 114.117 258.001 115.043C254.36 115.963 251.029 117.808 248.318 120.4C245.98 122.63 244.134 125.467 243.561 128.635C242.357 135.285 246.828 141.534 248.125 148.167C249.469 155.015 247.383 162.003 245.788 168.805C244.192 175.607 243.205 183.096 246.46 189.281" fill="#F2F2F2"/>
<path id="Vector_3" d="M153.474 178.991C136.316 179.049 119.622 173.441 105.999 163.046C92.6563 152.884 82.9089 138.756 78.1714 122.701L78.8493 122.503C88.433 155.342 119.119 178.281 153.474 178.281C163.747 178.298 173.92 176.271 183.4 172.329L183.675 172.975C174.11 176.965 163.843 179.009 153.474 178.991Z" fill="#E6E6E6"/>
<path id="Vector_4" d="M227.655 77.7095C224.429 67.4715 219.105 58.0079 212.017 49.9305C204.934 41.8473 196.239 35.319 186.491 30.759C176.744 26.1991 166.151 23.7064 155.386 23.4385C144.62 23.1706 133.916 25.1334 123.951 29.2042L123.683 28.5519C133.738 24.4462 144.54 22.4602 155.404 22.7339C166.267 23.0018 176.957 25.518 186.795 30.1187C196.63 34.7194 205.402 41.3058 212.554 49.4647C219.701 57.6178 225.072 67.1684 228.327 77.4996L227.655 77.7095Z" fill="#E6E6E6"/>
<path id="Vector_5" d="M248.844 203.648C237.32 203.648 226.047 200.241 216.463 193.859C206.88 187.476 199.411 178.409 194.999 167.792C190.587 157.182 189.436 145.506 191.686 134.237C193.93 122.975 199.481 112.626 207.633 104.502C215.785 96.3783 226.17 90.8459 237.472 88.6097C248.779 86.3676 260.496 87.5148 271.149 91.9116C281.796 96.3083 290.895 103.751 297.3 113.302C303.705 122.852 307.123 134.08 307.123 145.57C307.106 160.967 300.958 175.73 290.036 186.62C279.108 197.504 264.294 203.63 248.844 203.648ZM248.844 88.1962C237.454 88.1962 226.328 91.5626 216.861 97.8636C207.388 104.171 200.013 113.127 195.654 123.615C191.294 134.098 190.155 145.634 192.375 156.763C194.596 167.892 200.083 178.112 208.136 186.136C216.183 194.161 226.444 199.624 237.612 201.843C248.779 204.056 260.356 202.92 270.874 198.576C281.393 194.231 290.387 186.876 296.716 177.442C303.038 168.008 306.416 156.914 306.416 145.57C306.404 130.353 300.333 115.765 289.539 105.009C278.746 94.247 264.113 88.1961 248.844 88.1786V88.1962Z" fill="#3F3D56"/>
<path id="Vector_6" d="M59.1674 116.341C47.6412 116.341 36.3733 112.935 26.7889 106.552C17.2052 100.17 9.73509 91.1019 5.32423 80.4856C0.912778 69.8751 -0.241356 58.1988 2.0079 46.9303C4.25658 35.6675 9.80698 25.3193 17.9578 17.1955C26.1081 9.07166 36.4925 3.53927 47.7978 1.30303C59.1031 -0.939031 70.821 0.208161 81.4701 4.60494C92.1197 9.00171 101.221 16.4445 107.626 25.9951C114.029 35.5457 117.447 46.7736 117.447 58.2634C117.43 73.6609 111.285 88.4231 100.359 99.3131C89.4328 110.197 74.6188 116.324 59.1674 116.341ZM59.1674 0.889584C47.7808 0.889584 36.6497 4.25536 27.1822 10.5564C17.7142 16.8633 10.3347 25.8203 5.97758 36.3085C1.6199 46.7909 0.479783 58.3273 2.70099 69.4561C4.92279 80.5849 10.406 90.8049 18.4575 98.8297C26.509 106.855 36.7677 112.317 47.9357 114.536C59.1037 116.749 70.6796 115.613 81.1995 111.269C91.7194 106.925 100.711 99.5695 107.038 90.1354C113.364 80.7012 116.74 69.6077 116.74 58.2634C116.723 43.0523 110.652 28.4697 99.8586 17.7136C89.0658 6.95751 74.4318 0.907054 59.1674 0.889584Z" fill="#3F3D56"/>
<path id="Vector_7" d="M54.6269 58.59L49.4785 68.5478L54.5626 71.4595C54.5626 71.4595 58.0688 60.273 58.1506 59.8479C58.6637 59.6383 59.1038 59.2832 59.4141 58.8232C59.7244 58.3689 59.8915 57.8273 59.8944 57.274C59.8973 56.7208 59.7355 56.1793 59.4293 55.7192C59.1236 55.2592 58.6871 54.898 58.1758 54.6825C57.6644 54.4671 57.1005 54.4088 56.5565 54.5136C56.0118 54.6184 55.5104 54.8862 55.116 55.2705C54.7221 55.6607 54.4521 56.1615 54.3411 56.7031C54.2301 57.2447 54.2826 57.804 54.4924 58.3165C54.5333 58.4096 54.5801 58.5025 54.6269 58.5957V58.59Z" fill="#A0616A"/>
<path id="Vector_8" d="M28.2246 59.9453C30.5212 68.4188 38.7726 73.7998 45.6273 80.2583C47.2343 80.8173 48.9985 80.7181 50.5319 79.9784C52.0659 79.2447 53.244 77.9345 53.8085 76.333C53.8728 76.1466 53.9313 75.9544 53.978 75.7506L56.3155 66.7472L50.4718 66.5902L48.0408 69.2223L40.1809 63.6374L28.2246 59.9453Z" fill="#3F3D56"/>
<path id="Vector_9" d="M240.177 154.578C241.177 154.642 242.106 155.097 242.772 155.836C243.444 156.576 243.795 157.542 243.76 158.538C243.748 158.736 243.719 158.928 243.678 159.12L254.991 166.224L248.739 168.979L238.95 161.81C238.144 161.566 237.442 161.059 236.952 160.372C236.461 159.685 236.215 158.858 236.245 158.02C236.262 157.536 236.379 157.064 236.583 156.628C236.788 156.191 237.074 155.801 237.431 155.475C237.787 155.149 238.202 154.898 238.658 154.735C239.114 154.572 239.593 154.503 240.078 154.526H240.177V154.578Z" fill="#FFB6B6"/>
<path id="Vector_10" d="M251.094 163.011L248.289 168.783L259.392 175.893C260.181 176.4 261.086 176.703 262.027 176.767C262.968 176.825 263.903 176.651 264.756 176.249C265.791 175.76 266.632 174.944 267.164 173.931C267.69 172.917 267.871 171.759 267.678 170.635L264.078 150.159C263.839 148.726 263.05 147.439 261.887 146.565C260.724 145.686 259.269 145.29 257.82 145.453C256.394 145.61 255.091 146.321 254.197 147.439C253.297 148.551 252.882 149.972 253.034 151.393C253.028 151.451 253.028 151.504 253.034 151.562C253.057 151.76 253.098 151.952 253.145 152.145L257.072 166.704L251.094 163.011Z" fill="#F6BC54"/>
<path id="Vector_11" d="M241.042 165.352L236.864 154.613C236.794 154.433 236.759 154.235 236.765 154.043C236.771 153.845 236.812 153.653 236.893 153.478C236.969 153.297 237.086 153.134 237.226 153C237.367 152.866 237.536 152.761 237.717 152.691L240.055 151.783C240.236 151.713 240.435 151.678 240.628 151.684C240.826 151.69 241.019 151.731 241.194 151.806C241.375 151.888 241.539 152.005 241.674 152.144C241.808 152.284 241.913 152.453 241.983 152.633L246.162 163.372C246.302 163.739 246.29 164.147 246.132 164.508C245.975 164.869 245.677 165.148 245.308 165.294L242.971 166.202C242.603 166.342 242.194 166.331 241.831 166.173C241.469 166.016 241.188 165.719 241.042 165.352Z" fill="#3F3D56"/>
<path id="Vector_12" d="M238.173 153.129C237.975 153.204 237.817 153.356 237.729 153.554C237.647 153.746 237.642 153.967 237.718 154.165L241.89 164.904C241.966 165.102 242.124 165.259 242.317 165.347C242.509 165.434 242.731 165.439 242.93 165.364L245.268 164.455C245.466 164.38 245.624 164.228 245.712 164.03C245.799 163.838 245.805 163.617 245.729 163.419L241.551 152.68C241.516 152.581 241.458 152.494 241.382 152.418C241.311 152.342 241.224 152.278 241.124 152.237C241.031 152.197 240.926 152.174 240.821 152.168C240.715 152.168 240.61 152.185 240.511 152.226L238.173 153.129Z" fill="#F6BC54"/>
<path id="Vector_13" d="M266.165 171.956H250.305V187.761H266.165V171.956Z" fill="#FFB8B8"/>
<path id="Vector_14" d="M212.695 218.504L206.635 216.472L203.263 232.9L207.365 234.28L212.695 218.504Z" fill="#FFB6B6"/>
<path id="Vector_15" d="M223.435 215.376L217.217 216.844L223.067 232.567L227.28 231.572L223.435 215.376Z" fill="#FFB6B6"/>
<path id="Vector_16" d="M265.586 191.89C268.765 213.006 226.433 200.52 226.433 200.52L213.168 218.789L205.396 217.385C205.396 217.385 208.902 206.431 215.137 191.762C217.913 185.24 249.399 186.835 249.399 186.835L250.053 181.723L268.064 181.367L265.586 191.89Z" fill="#2F2E41"/>
<path id="Vector_17" d="M225.107 195.99L213.577 196.252C215.423 212.097 217.083 218.416 217.083 218.416L223.792 216.302L225.107 195.99Z" fill="#2F2E41"/>
<path id="Vector_18" d="M256.534 146.269L259.725 142.192L264.277 141.994L264.733 145.844L266.989 146.88C269.245 155.406 269.589 164.328 268.011 173.005C267.708 173.29 267.486 173.645 267.369 174.041C267.252 174.443 267.246 174.862 267.345 175.264L267.491 175.847C267.012 176.598 266.849 177.512 267.036 178.386L268.117 180.296C268.824 181.548 268.999 183.027 268.608 184.413C268.222 185.799 267.293 186.97 266.036 187.675C265.773 187.82 265.499 187.942 265.218 188.041C258.597 190.435 252.362 191.326 247.792 184.612L246.349 161.218L256.534 146.269Z" fill="#F6BC54"/>
<path id="Vector_19" d="M259.883 143.27C264.534 143.27 268.304 139.513 268.304 134.878C268.304 130.243 264.534 126.486 259.883 126.486C255.231 126.486 251.462 130.243 251.462 134.878C251.462 139.513 255.231 143.27 259.883 143.27Z" fill="#FFB8B8"/>
<path id="Vector_20" d="M264.102 124.762C267.673 124.832 270.495 128.122 270.419 132.122C273.06 134.865 272.172 138.22 269.981 141.813C265.949 142.279 265.008 142.471 261.472 143.909L261.005 141.737L259.947 144.561C259.053 144.975 258.159 145.429 257.276 145.924C256.64 143.012 256.797 140.188 258.504 137.731C260.023 135.541 256.33 132.944 253.683 133.31L253.724 131.302L253.057 133.299C252.029 134.056 250.889 133.782 249.721 133.235C247.827 123.423 262.501 120.738 264.102 124.762Z" fill="#2F2E41"/>
<path id="Vector_21" d="M209.229 237.058L206.529 236.703L206.383 234.105L204.817 236.481L197.658 235.55C197.32 235.503 196.998 235.346 196.753 235.113C196.501 234.874 196.338 234.56 196.279 234.222C196.215 233.884 196.268 233.535 196.42 233.226C196.572 232.917 196.823 232.667 197.127 232.51L203.362 229.318L203.695 226.75L209.661 227.915L209.229 237.058Z" fill="#2F2E41"/>
<path id="Vector_22" d="M228.823 235.573L226.124 235.922L225.317 233.441L224.411 236.143L217.253 237.058C216.908 237.099 216.563 237.035 216.259 236.866C215.961 236.697 215.716 236.441 215.576 236.126C215.429 235.812 215.389 235.462 215.459 235.124C215.529 234.786 215.704 234.478 215.961 234.251L221.168 229.591L220.835 227.023L226.895 226.609L228.823 235.573Z" fill="#2F2E41"/>
<path id="Vector_23" d="M241.194 156.541C242.194 156.605 243.123 157.06 243.789 157.799C244.461 158.539 244.812 159.505 244.777 160.501C244.765 160.699 244.736 160.891 244.689 161.084L256.008 168.189L249.75 170.943L239.961 163.774C239.155 163.53 238.454 163.023 237.963 162.336C237.472 161.649 237.227 160.822 237.262 159.983C237.285 159.506 237.402 159.034 237.606 158.603C237.811 158.166 238.103 157.781 238.46 157.455C238.816 157.135 239.231 156.89 239.681 156.727C240.137 156.564 240.616 156.495 241.095 156.518H241.194V156.541Z" fill="#FFB6B6"/>
<path id="Vector_24" d="M252.105 164.975L249.3 170.746L260.403 177.856C261.192 178.363 262.098 178.666 263.038 178.73C263.979 178.788 264.914 178.614 265.768 178.212C266.802 177.723 267.649 176.907 268.175 175.894C268.701 174.88 268.882 173.721 268.689 172.597L265.095 152.122C264.856 150.69 264.067 149.403 262.904 148.529C261.741 147.656 260.286 147.26 258.837 147.423C258.13 147.498 257.446 147.714 256.827 148.052C256.201 148.389 255.652 148.85 255.208 149.403C254.764 149.956 254.431 150.59 254.232 151.266C254.033 151.947 253.975 152.658 254.051 153.363C254.051 153.415 254.051 153.473 254.051 153.525C254.074 153.723 254.115 153.916 254.162 154.108L258.089 168.667L252.105 164.975Z" fill="#F6BC54"/>
<path id="Vector_25" d="M39.8945 163.861L43.4475 165.463L51.3308 152.552L46.0831 150.188L39.8945 163.861Z" fill="#A0616A"/>
<path id="Vector_26" d="M38.0889 167.507L49.0283 172.421L49.0926 172.288C49.6022 171.164 49.6425 169.877 49.2042 168.724C48.7659 167.57 47.8847 166.633 46.7551 166.126L45.4403 163.715L41.0282 163.552L40.0757 163.121L38.0889 167.507Z" fill="#2F2E41"/>
<path id="Vector_27" d="M83.9506 146.304L87.7081 145.249L85.429 130.306L79.8833 131.861L83.9506 146.304Z" fill="#A0616A"/>
<path id="Vector_28" d="M84.9208 150.246L96.4738 147.014L96.4329 146.868C96.0981 145.68 95.3027 144.673 94.2222 144.068C93.1417 143.462 91.8643 143.31 90.671 143.642L88.1115 142.641L84.6052 145.337L83.6001 145.617L84.9208 150.246Z" fill="#2F2E41"/>
<path id="Vector_29" d="M27.0853 102.639C27.1788 105.411 33.0927 112.883 36.2016 113.954C36.7275 114.141 37.0372 114.239 37.0372 114.239L38.1183 113.914L51.2259 109.959C53.5224 111.305 60.3655 111.992 65.9813 112.33C68.5239 112.423 70.9678 113.337 72.9471 114.933C74.2619 124.926 78.0662 132.217 82.449 141.174L87.7084 140.26L82.7353 106.896C82.6278 106.174 82.3105 105.504 81.822 104.962C81.3334 104.421 80.6959 104.031 79.9888 103.85L44.2309 94.5322C44.2309 94.5322 42.2557 94.1772 38.1008 96.1747C31.2519 99.4651 27.0152 100.624 27.0853 102.639Z" fill="#2F2E41"/>
<path id="Vector_30" d="M33.9164 102.103C32.7184 104.607 34.5007 113.954 36.7564 116.336L37.3408 116.744L37.5395 116.848C38.8953 121.42 53.4462 134.791 53.4462 134.791C48.5316 141.028 44.1546 148.639 42.197 157.171L47.8829 159.238L63.8773 135.437C64.2969 134.814 64.5178 134.08 64.5102 133.329C64.5031 132.584 64.2677 131.85 63.8364 131.238L57.3089 121.973L46.6733 101.445C39.0881 101.206 34.7929 100.286 33.9164 102.103Z" fill="#2F2E41"/>
<path id="Vector_31" d="M27.296 103.727C27.296 103.727 26.8635 102.644 26.8577 102.638C26.7116 102.597 24.7948 102.411 25.2273 99.2491L25.7824 95.7549L25.239 92.68L24.3332 91.7774L25.7883 90.3272L24.9 83.7467L24.5553 70.5681C23.6962 66.0432 23.9183 61.9023 28.0615 59.9106L32.8358 55.4969L38.2705 55.4326L44.4357 59.0723L47.4218 65.0062L48.5906 81.0909L49.4607 83.1001L49.3854 83.1701C49.3854 83.1701 48.801 83.694 48.5439 83.9793C48.4153 84.154 48.6549 85.4822 48.9412 86.6062L49.3146 89.3837L48.3802 90.0537L49.5957 91.4862L52.9267 97.0942L52.728 97.0476C52.5001 96.9894 50.3905 100.117 27.4421 103.599C27.3486 103.628 27.3427 103.727 27.296 103.727Z" fill="#3F3D56"/>
<path id="Vector_32" d="M53.5981 68.926L51.7048 67.9592C51.5563 67.8835 51.4248 67.7785 51.3173 67.6504C51.2098 67.5223 51.1286 67.3771 51.0789 67.2199C51.0286 67.0569 51.0105 66.8935 51.0257 66.7246C51.0409 66.5615 51.0888 66.3987 51.1671 66.2531L55.7194 57.5584C55.7965 57.4128 55.9017 57.2794 56.0297 57.1746C56.1571 57.0697 56.3049 56.9881 56.4639 56.9357C56.6228 56.8891 56.7906 56.8717 56.9565 56.8834C57.1225 56.9009 57.2838 56.947 57.4316 57.0227L59.3308 58.0128C59.4787 58.0885 59.6096 58.1935 59.7171 58.3216C59.8241 58.4497 59.9047 58.5954 59.9544 58.7527C60.0046 58.9157 60.0227 59.0786 60.0081 59.2474C59.9929 59.4105 59.9456 59.5739 59.8685 59.7194L55.3162 68.4136C55.1555 68.7048 54.8849 68.9261 54.5629 69.0193C54.2409 69.1183 53.8944 69.0832 53.5981 68.926Z" fill="#3F3D56"/>
<path id="Vector_33" d="M56.9643 57.3252C56.8842 57.2844 56.7971 57.2612 56.7077 57.2495C56.6177 57.2437 56.5278 57.2552 56.4419 57.2785C56.356 57.3077 56.2765 57.3483 56.2075 57.4065C56.1386 57.4647 56.0819 57.5348 56.041 57.6163L51.4887 66.3106C51.4472 66.3921 51.4215 66.4797 51.4139 66.5671C51.4057 66.6544 51.4157 66.7477 51.4431 66.8292C51.47 66.9166 51.5138 66.9978 51.5717 67.0618C51.6301 67.1317 51.7008 67.19 51.7809 67.2307L53.6801 68.2152C53.7584 68.2618 53.8461 68.2905 53.9366 68.3022C54.0272 68.3138 54.1195 68.3084 54.2078 68.2851C54.296 68.2618 54.3784 68.2211 54.4503 68.1628C54.5222 68.1104 54.5824 68.0402 54.6268 67.9587L59.1791 59.2644C59.2211 59.1829 59.2474 59.0953 59.2556 59.008C59.2638 58.9206 59.2539 58.8274 59.227 58.7401C59.1995 58.6586 59.1557 58.5774 59.0972 58.5075C59.0388 58.4434 58.9669 58.385 58.8869 58.3443L56.9643 57.3252Z" fill="#F6BC54"/>
<path id="Vector_34" d="M36.8035 54.2559C41.0928 54.2559 44.5698 50.7909 44.5698 46.5166C44.5698 42.2423 41.0928 38.7773 36.8035 38.7773C32.5142 38.7773 29.0371 42.2423 29.0371 46.5166C29.0371 50.7909 32.5142 54.2559 36.8035 54.2559Z" fill="#A0616A"/>
<path id="Vector_35" d="M33.0051 51.5021C32.6632 51.2342 32.2372 51.0884 31.8012 51.1001C31.6668 51.1234 31.5389 51.1762 31.4255 51.2519C31.3115 51.3276 31.2145 51.4203 31.1409 51.5368C31.1012 51.5892 31.0491 51.6243 30.9895 51.6534C30.9305 51.6767 30.8656 51.6882 30.802 51.6824C29.9721 51.7115 28.2073 50.1799 28.0846 47.2216C28.0262 45.8182 27.1847 43.4423 28.5229 42.1495C28.6164 41.6312 29.6624 36.2626 34.3667 36.1112C39.2111 35.9598 42.431 36.9262 43.2082 38.7664C43.7459 40.228 44.1544 41.7303 44.4296 43.2618L44.5874 44.1706L44.2134 43.3261C43.7979 42.4468 43.0978 41.736 42.2265 41.2993C42.2066 41.5439 42.1453 41.783 42.0453 42.0102C41.7818 42.4877 41.3909 42.8774 40.9158 43.1453C40.4412 43.4073 39.9013 43.5359 39.3572 43.5126C38.5181 43.4835 37.6906 43.3086 36.9145 42.9883C36.9993 43.1164 37.0466 43.2623 37.0501 43.4137C37.0536 43.5709 37.0139 43.7223 36.935 43.8504C36.8555 43.9785 36.741 44.0889 36.6036 44.153C36.4663 44.2229 36.3126 44.2518 36.1607 44.2343L35.9328 44.2053C35.8527 44.1936 35.7721 44.2173 35.709 44.2639C35.6453 44.3163 35.6038 44.3859 35.5938 44.4675C35.5857 44.5257 35.5968 44.5895 35.6248 44.6477C35.6529 44.7001 35.6973 44.7471 35.7516 44.7763L35.9503 44.8809L35.7107 44.9975C34.7448 45.4226 33.9488 46.1621 33.4474 47.088C32.946 48.0139 32.7678 49.0795 32.9408 50.1219L33.2213 51.6943L33.0051 51.5021Z" fill="#2F2E41"/>
<path id="Vector_36" d="M155.987 171.135C155.775 171.141 155.567 171.089 155.389 170.972C155.211 170.862 155.071 170.693 154.99 170.501C154.908 170.309 154.887 170.093 154.931 169.884C154.974 169.68 155.08 169.494 155.233 169.348L155.309 169.062V168.998C155.165 168.66 154.955 168.352 154.692 168.096C154.429 167.839 154.118 167.642 153.776 167.508C153.434 167.368 153.068 167.304 152.701 167.31C152.333 167.315 151.97 167.397 151.633 167.542C151.299 167.682 150.996 167.886 150.741 168.137C150.487 168.393 150.285 168.701 150.149 169.033C149.307 171.048 148.238 173.069 147.975 175.201C147.861 176.144 147.913 177.099 148.127 178.025C146.155 173.733 145.13 169.068 145.123 164.351C145.122 163.169 145.189 161.987 145.322 160.81C145.433 159.844 145.579 158.883 145.778 157.933C146.834 152.774 149.105 147.934 152.404 143.817C154.001 142.949 155.292 141.616 156.103 139.991C156.387 139.409 156.584 138.785 156.688 138.145C156.513 138.145 156.326 138.18 156.144 138.192H155.975C155.84 138.197 155.705 138.174 155.578 138.133C155.45 138.086 155.333 138.016 155.233 137.923C155.133 137.83 155.053 137.725 154.996 137.603C154.938 137.481 154.906 137.347 154.9 137.213C154.888 136.962 154.969 136.718 155.128 136.526C155.204 136.427 155.285 136.333 155.361 136.24C155.437 136.147 155.601 135.949 155.718 135.798C155.733 135.786 155.746 135.768 155.759 135.757L156.162 135.256C155.917 134.872 155.584 134.552 155.192 134.319C153.83 133.521 151.954 134.074 150.967 135.297C150.508 135.937 150.195 136.671 150.052 137.446C149.909 138.22 149.938 139.018 150.137 139.781C150.475 141.086 151.032 142.32 151.785 143.438L151.563 143.718C150.216 145.447 149.041 147.305 148.057 149.262C148.296 147.067 148.009 144.853 147.221 142.792C146.42 140.87 144.924 139.251 143.604 137.592C143.256 137.143 142.783 136.811 142.244 136.63C141.705 136.45 141.125 136.438 140.578 136.584C140.03 136.735 139.54 137.044 139.17 137.475C138.798 137.906 138.565 138.43 138.496 138.995V139.071C138.695 139.176 138.888 139.298 139.081 139.42C139.316 139.577 139.497 139.804 139.601 140.067C139.705 140.329 139.727 140.62 139.664 140.893C139.601 141.167 139.456 141.417 139.247 141.609C139.039 141.802 138.777 141.93 138.496 141.971C138.566 142.675 138.689 143.368 138.864 144.056C139.373 145.966 140.273 147.753 141.508 149.302C142.744 150.852 144.286 152.133 146.041 153.059L146.385 153.233C145.393 156.029 144.77 158.941 144.533 161.899C144.396 163.641 144.396 165.394 144.533 167.141V167.076C144.16 165.137 143.127 163.39 141.611 162.126C139.349 160.274 136.159 159.593 133.722 158.108C133.463 157.945 133.162 157.852 132.854 157.852C132.547 157.852 132.245 157.939 131.985 158.102C131.725 158.265 131.518 158.498 131.386 158.778C131.255 159.057 131.206 159.366 131.244 159.669V159.739C131.608 159.885 131.961 160.053 132.302 160.245C132.501 160.356 132.695 160.473 132.886 160.595C133.121 160.752 133.303 160.979 133.407 161.241C133.511 161.503 133.533 161.795 133.47 162.068C133.406 162.342 133.261 162.592 133.053 162.784C132.844 162.977 132.582 163.105 132.302 163.146H132.244C132.862 164.625 133.734 165.982 134.821 167.164C136.159 168.597 137.778 169.744 139.576 170.53C141.375 171.316 143.316 171.729 145.281 171.741C145.813 174.053 146.585 176.301 147.583 178.45H155.823C155.823 178.357 155.876 178.264 155.905 178.17C155.142 178.217 154.377 178.171 153.626 178.037C154.21 177.291 154.847 176.534 155.461 175.789L155.496 175.742C155.805 175.363 156.121 174.985 156.431 174.577C156.449 173.401 156.314 172.225 156.028 171.083L155.987 171.135Z" fill="#E6E6E6"/>
<path id="Vector_37" d="M195.584 43.8556C195.683 43.9429 195.765 44.0535 195.829 44.1758C195.888 44.2981 195.917 44.432 195.929 44.5659C195.934 44.6998 195.917 44.8394 195.87 44.9617C195.823 45.0898 195.753 45.2125 195.666 45.3115C195.566 45.4221 195.444 45.5154 195.303 45.5736C195.169 45.6377 195.017 45.6665 194.865 45.6606L194.62 45.8119V45.8819C194.421 46.3885 194.38 46.9476 194.497 47.4833C194.614 48.0133 194.888 48.5027 195.28 48.8812C195.677 49.2597 196.174 49.5158 196.712 49.6148C197.249 49.7138 197.81 49.6557 198.313 49.4403C200.329 48.5784 202.509 47.8795 204.192 46.5285C204.934 45.9345 205.571 45.2121 206.067 44.4027C204.466 48.8577 201.924 52.9226 198.611 56.3119C197.781 57.1621 196.904 57.96 195.987 58.7113C195.233 59.3286 194.45 59.9109 193.649 60.4583C189.284 63.4167 184.276 65.3036 179.04 65.9617C177.29 65.4725 175.432 65.5309 173.716 66.1249C173.092 66.3404 172.502 66.6427 171.963 67.0212C172.11 67.126 172.25 67.243 172.384 67.3652L172.513 67.4756C172.715 67.6561 172.838 67.9122 172.853 68.1859C172.869 68.4538 172.776 68.7219 172.594 68.9258C172.427 69.1121 172.195 69.2288 171.946 69.2579L171.583 69.3045L170.999 69.3682H170.941L170.298 69.4439C170.209 69.8864 170.223 70.3468 170.339 70.7894C170.76 72.3094 172.489 73.2177 174.05 73.0256C174.827 72.8858 175.565 72.5773 176.211 72.123C176.856 71.6688 177.392 71.0802 177.784 70.393C178.456 69.2225 178.923 67.9473 179.169 66.6254L179.525 66.5787C181.699 66.2817 183.844 65.7692 185.918 65.0529C184.206 66.4622 182.862 68.2617 181.985 70.2941C181.214 72.2217 181.15 74.4229 180.933 76.5311C180.863 77.0959 180.969 77.6729 181.231 78.1854C181.489 78.6921 181.898 79.1111 182.406 79.3848C182.909 79.6585 183.481 79.775 184.054 79.7226C184.627 79.6702 185.164 79.4433 185.608 79.0823L185.667 79.0356C185.603 78.8202 185.544 78.6046 185.497 78.3833C185.439 78.1038 185.462 77.8185 185.568 77.5564C185.673 77.2944 185.86 77.0669 186.099 76.9155C186.333 76.7583 186.614 76.6769 186.9 76.6886C187.18 76.6944 187.461 76.7819 187.689 76.9508C188.121 76.3975 188.513 75.8152 188.858 75.2037C189.834 73.4799 190.441 71.5754 190.64 69.6071C190.839 67.6387 190.634 65.6469 190.026 63.7659L189.904 63.4048C192.568 62.0887 195.052 60.4352 197.296 58.4844C198.611 57.3255 199.832 56.0615 200.948 54.7104L200.913 54.7628C199.826 56.4166 199.341 58.3912 199.546 60.3537C199.867 63.2655 201.679 65.9618 202.386 68.7222C202.456 69.0192 202.614 69.2928 202.836 69.5024C203.052 69.7121 203.333 69.8575 203.631 69.9216C203.934 69.9798 204.244 69.9566 204.531 69.8459C204.817 69.7353 205.068 69.5491 205.249 69.3045L205.29 69.2516C205.132 68.8906 204.998 68.524 204.887 68.1455C204.823 67.93 204.77 67.7144 204.723 67.4989C204.665 67.2252 204.688 66.9341 204.799 66.672C204.905 66.4099 205.091 66.1889 205.325 66.0316C205.565 65.8802 205.839 65.7983 206.126 65.8042C206.406 65.8042 206.681 65.8976 206.915 66.0606L206.962 66.0953C207.552 64.6103 207.879 63.0322 207.937 61.4365C207.978 59.4798 207.622 57.5351 206.886 55.7182C206.149 53.9071 205.045 52.2585 203.648 50.8842C204.887 48.8576 205.91 46.7145 206.699 44.4783L200.796 38.748L200.545 38.8879C201.124 39.3888 201.638 39.9534 202.082 40.5707L199.195 40.9086H199.137L197.67 41.0775C196.84 41.9044 196.116 42.8366 195.525 43.8499L195.584 43.8556Z" fill="#E6E6E6"/>
<path id="Vector_38" d="M53.5749 66.8299L46.1475 75.2386L50.3666 79.3149C50.3666 79.3149 56.4851 69.3105 56.6896 68.9204C57.2389 68.8447 57.7526 68.6055 58.1658 68.2328C58.5789 67.8659 58.8729 67.3827 59.0108 66.8469C59.1481 66.3112 59.1236 65.7463 58.9389 65.2222C58.7548 64.7039 58.4194 64.2501 57.9759 63.9182C57.5317 63.5862 56.9988 63.3939 56.4448 63.3648C55.8908 63.3299 55.3403 63.4639 54.8629 63.7492C54.386 64.0288 54.0033 64.4478 53.7637 64.9486C53.5241 65.4436 53.4381 66.0027 53.5165 66.5501C53.5311 66.6432 53.5504 66.7367 53.5749 66.8299Z" fill="#A0616A"/>
<path id="Vector_39" d="M27.6289 61.7285C27.7808 70.5045 34.4719 77.7314 39.5385 85.6571C40.9608 86.5889 42.697 86.9271 44.366 86.5835C46.0344 86.2458 47.4994 85.2558 48.4385 83.8407C48.5507 83.6776 48.6541 83.5087 48.7482 83.334L53.1895 75.1811L47.5327 73.603L44.5349 75.5655L38.2645 68.2219L27.6289 61.7285Z" fill="#3F3D56"/>
</g>
</svg>
