<svg width="49" height="47" viewBox="0 0 49 47" fill="none" xmlns="http://www.w3.org/2000/svg">
<g id="Group">
<path id="Vector" d="M28.1909 6.47779C28.676 6.61968 29.1724 6.72845 29.6438 6.90253C34.3646 8.65879 35.7604 14.6931 32.252 18.293C30.7959 19.7827 29.2868 21.231 27.7454 22.6404C25.1183 25.0385 20.7871 24.895 18.2434 22.346C16.8389 20.9427 15.4489 19.5202 14.1018 18.059C12.2472 16.0606 11.7205 13.707 12.583 11.1379C13.4537 8.5407 15.2675 6.91777 18.0129 6.40328C18.1111 6.37524 18.2056 6.33933 18.2976 6.28973L28.1909 6.47779Z" fill="#E6E6E6"/>
<path id="Vector_2" d="M43.1972 27.8979C43.0519 28.3359 42.9331 28.7789 42.7648 29.2009C42.2812 30.3684 41.4338 31.3505 40.35 31.9987C39.2658 32.6466 37.9994 32.933 36.7389 32.8109C34.0262 32.5235 31.8274 30.5125 31.3881 27.9176C30.8317 24.6094 32.943 21.5315 36.2395 20.9908C39.2084 20.5013 42.5034 22.1857 43.118 25.8347C43.1444 25.9344 43.18 26.0317 43.2244 26.1263L43.1972 27.8979Z" fill="#E6E6E6"/>
<path id="Vector_3" d="M8.82053 20.4097C12.2235 20.4768 14.7302 23.086 14.6766 26.503C14.6244 29.7245 11.8884 32.3485 8.62947 32.298C5.37051 32.2475 2.66587 29.485 2.73298 26.2508C2.8115 22.838 5.41209 20.3465 8.82053 20.4097Z" fill="#E6E6E6"/>
<path id="Vector_4" d="M16.8779 34.6355C16.8575 31.497 19.5636 28.7907 22.7347 28.7788C26.0968 28.7653 28.7988 31.3751 28.8438 34.6757C28.8591 35.4662 28.7172 36.2471 28.425 36.9772C28.1305 37.7125 27.6941 38.3753 27.137 38.9364C26.5822 39.4921 25.9171 39.938 25.1859 40.2358C24.4547 40.5335 23.6703 40.6823 22.8808 40.6709C19.4641 40.6739 16.9041 38.099 16.8779 34.6355Z" fill="#E6E6E6"/>
</g>
</svg>
