<svg width="482" height="415" viewBox="0 0 482 415" fill="none" xmlns="http://www.w3.org/2000/svg">
<g id="Frame" clip-path="url(#clip0_159_1598)">
<path id="Vector" d="M68.4 109.42H29.88C27.821 109.418 25.8472 108.598 24.3922 107.141C22.9372 105.684 22.12 103.709 22.12 101.65V65.65C22.12 63.591 22.9372 61.6164 24.3922 60.1596C25.8472 58.7027 27.821 57.8827 29.88 57.88H68.4C70.4582 57.8853 72.4304 58.7059 73.8849 60.1622C75.3393 61.6185 76.1574 63.5918 76.16 65.65V101.65C76.1574 103.708 75.3393 105.682 73.8849 107.138C72.4304 108.594 70.4582 109.415 68.4 109.42Z" fill="#E6E6E6"/>
<path id="Vector_2" d="M161.27 109.73H122.75C120.692 109.725 118.72 108.904 117.265 107.448C115.811 105.992 114.993 104.018 114.99 101.96V65.9601C114.99 63.902 115.808 61.9283 117.263 60.473C118.718 59.0177 120.692 58.2001 122.75 58.2001H161.27C162.289 58.1988 163.299 58.3987 164.241 58.7882C165.183 59.1777 166.039 59.7493 166.76 60.4701C167.481 61.191 168.052 62.0468 168.442 62.9889C168.831 63.931 169.031 64.9407 169.03 65.9601V101.96C169.03 104.019 168.213 105.994 166.758 107.451C165.303 108.908 163.329 109.728 161.27 109.73Z" fill="#E6E6E6"/>
<path id="Vector_3" d="M254.14 110H215.63C213.57 109.998 211.595 109.178 210.139 107.721C208.682 106.265 207.863 104.29 207.86 102.23V66.2301C207.863 64.1711 208.682 62.1973 210.139 60.7423C211.596 59.2873 213.571 58.4701 215.63 58.4701H254.14C256.199 58.4701 258.174 59.2873 259.631 60.7423C261.088 62.1973 261.907 64.1711 261.91 66.2301V102.23C261.907 104.29 261.088 106.265 259.631 107.721C258.175 109.178 256.2 109.998 254.14 110Z" fill="#E6E6E6"/>
<path id="Vector_4" d="M68.4 190.18H29.88C27.821 190.178 25.8472 189.358 24.3922 187.901C22.9372 186.444 22.12 184.469 22.12 182.41V146.41C22.12 144.351 22.9372 142.377 24.3922 140.92C25.8472 139.463 27.821 138.643 29.88 138.64H68.4C70.4582 138.645 72.4304 139.466 73.8849 140.922C75.3393 142.379 76.1574 144.352 76.16 146.41V182.41C76.1574 184.468 75.3393 186.442 73.8849 187.898C72.4304 189.354 70.4582 190.175 68.4 190.18Z" fill="#E6E6E6"/>
<path id="Vector_5" d="M161.27 190.49H122.75C120.692 190.485 118.72 189.664 117.265 188.208C115.811 186.752 114.993 184.779 114.99 182.72V146.72C114.993 144.662 115.811 142.689 117.265 141.232C118.72 139.776 120.692 138.955 122.75 138.95H161.27C163.329 138.953 165.303 139.773 166.758 141.229C168.213 142.686 169.03 144.661 169.03 146.72V182.72C169.03 184.779 168.213 186.754 166.758 188.211C165.303 189.668 163.329 190.488 161.27 190.49Z" fill="#E6E6E6"/>
<path id="Vector_6" d="M254.14 190.8H215.63C214.604 190.804 213.588 190.605 212.639 190.215C211.69 189.824 210.828 189.25 210.102 188.525C209.376 187.8 208.801 186.939 208.409 185.991C208.018 185.043 207.817 184.026 207.82 183V147C207.823 144.94 208.642 142.966 210.099 141.509C211.555 140.052 213.53 139.233 215.59 139.23H254.1C256.16 139.233 258.135 140.052 259.591 141.509C261.048 142.966 261.867 144.94 261.87 147V183C261.875 185.059 261.065 187.035 259.616 188.497C258.167 189.959 256.198 190.787 254.14 190.8Z" fill="#E6E6E6"/>
<path id="Vector_7" d="M68.4 270.931H29.88C28.8606 270.932 27.8509 270.732 26.9088 270.343C25.9667 269.953 25.1108 269.382 24.3899 268.661C23.6691 267.94 23.0975 267.084 22.708 266.142C22.3185 265.2 22.1187 264.19 22.12 263.17V227.17C22.12 225.111 22.9373 223.136 24.3922 221.68C25.8472 220.223 27.821 219.403 29.88 219.4H68.4C70.4582 219.406 72.4304 220.226 73.8849 221.683C75.3393 223.139 76.1574 225.112 76.16 227.17V263.17C76.16 265.229 75.3424 267.203 73.8872 268.658C72.4319 270.113 70.4581 270.931 68.4 270.931Z" fill="#E6E6E6"/>
<path id="Vector_8" d="M161.27 271.241H122.75C120.692 271.241 118.718 270.423 117.263 268.968C115.808 267.512 114.99 265.539 114.99 263.481V227.48C114.993 225.422 115.811 223.449 117.265 221.993C118.72 220.536 120.692 219.716 122.75 219.71H161.27C163.329 219.713 165.303 220.533 166.758 221.99C168.213 223.447 169.03 225.421 169.03 227.48V263.481C169.031 264.5 168.831 265.51 168.442 266.452C168.052 267.394 167.481 268.25 166.76 268.971C166.039 269.691 165.183 270.263 164.241 270.653C163.299 271.042 162.289 271.242 161.27 271.241Z" fill="#E6E6E6"/>
<path id="Vector_9" d="M254.14 271.561H215.63C213.57 271.558 211.595 270.738 210.139 269.282C208.682 267.825 207.863 265.851 207.86 263.791V227.791C207.863 225.731 208.682 223.756 210.139 222.299C211.595 220.842 213.57 220.023 215.63 220.021H254.14C256.2 220.023 258.175 220.842 259.631 222.299C261.088 223.756 261.907 225.731 261.91 227.791V263.791C261.907 265.851 261.088 267.825 259.631 269.282C258.175 270.738 256.2 271.558 254.14 271.561Z" fill="#E6E6E6"/>
<path id="Vector_10" d="M348.43 332.111L318.62 356.511C317.026 357.812 314.982 358.428 312.935 358.223C310.888 358.019 309.005 357.011 307.7 355.421L284.87 327.541C283.568 325.945 282.952 323.899 283.157 321.851C283.361 319.802 284.369 317.918 285.96 316.611L315.77 292.211C317.365 290.909 319.411 290.293 321.46 290.497C323.509 290.702 325.393 291.71 326.7 293.301L349.52 321.181C350.821 322.776 351.438 324.822 351.233 326.871C351.029 328.92 350.021 330.804 348.43 332.111Z" fill="#F6BC54"/>
<path id="Vector_11" d="M273.44 381.111L272.87 368.111C266.842 364.872 260.113 363.156 253.27 363.111C262.68 370.811 261.5 385.641 267.89 395.991C269.903 399.204 272.615 401.923 275.823 403.945C279.03 405.967 282.653 407.24 286.42 407.671L294.3 412.491C295.38 406.465 295.141 400.276 293.599 394.351C292.058 388.427 289.25 382.906 285.37 378.171C283.168 375.53 280.641 373.178 277.85 371.171C275.97 376.191 273.44 381.111 273.44 381.111Z" fill="#F2F2F2"/>
<path id="Vector_12" d="M323.26 292.561C324.421 291.602 325.157 290.224 325.307 288.725C325.456 287.227 325.008 285.73 324.06 284.561C323.844 284.301 323.606 284.06 323.35 283.841L336.24 250.151L325.94 252.331L315.01 284.731C314.159 285.853 313.752 287.25 313.866 288.654C313.98 290.058 314.607 291.371 315.627 292.342C316.648 293.313 317.99 293.874 319.398 293.918C320.806 293.962 322.181 293.486 323.26 292.581V292.561Z" fill="#FFB8B8"/>
<path id="Vector_13" d="M317.95 255.671L329.52 207.541L334.52 193.541C335.332 191.257 337.018 189.39 339.206 188.349C341.394 187.309 343.906 187.18 346.19 187.99H346.25C347.737 188.533 349.057 189.453 350.083 190.658C351.108 191.864 351.803 193.316 352.1 194.871L353.35 201.41L330.19 282.411L330.14 282.601L315.06 281.601L317.95 255.671Z" fill="#2F2E41"/>
<path id="Vector_14" d="M364.9 175.32L339.14 227.41L322.82 282.791C357.15 289.491 400.22 303.791 403.32 283.271C401.41 226.01 395.39 207.75 382.96 182.93L364.9 175.32Z" fill="#2F2E41"/>
<path id="Vector_15" d="M341.86 404.791H333.77L329.93 373.601H341.86V404.791Z" fill="#FFB6B6"/>
<path id="Vector_16" d="M343.92 412.631H317.82V412.301C317.823 409.61 318.893 407.03 320.796 405.127C322.699 403.224 325.279 402.153 327.97 402.151L332.74 398.541L341.62 402.151H343.9L343.92 412.631Z" fill="#2F2E41"/>
<path id="Vector_17" d="M414.93 394.281L407.69 397.891L390.33 371.691L401.01 366.361L414.93 394.281Z" fill="#FFB6B6"/>
<path id="Vector_18" d="M420.27 400.371L396.93 412.001L396.78 411.701C395.58 409.291 395.386 406.504 396.241 403.951C397.097 401.399 398.931 399.291 401.34 398.091L403.99 392.731L413.56 392.001L415.56 391.001L420.27 400.371Z" fill="#2F2E41"/>
<path id="Vector_19" d="M338.27 263.13L382.87 264.69L386.2 270.89C386.2 270.89 389.69 296.221 387.9 298.011C386.11 299.801 385.22 299.79 386.11 302.92C387 306.05 389.32 335.921 389.32 335.921C389.32 335.921 407.74 374.131 408.64 376.361C409.54 378.591 410.42 377.701 409.53 378.601C408.738 379.455 407.99 380.349 407.29 381.281H392.72C392.72 381.281 384.87 361.491 377.72 353.831C371.376 347.069 367.361 338.456 366.26 329.251L360.26 300.65L347.26 344.471C347.26 344.471 345.02 387.831 345.47 390.071L345.92 392.311L328.74 392.501C328.74 392.501 326.95 388.731 327.84 387.391C328.73 386.051 328.68 386.391 327.59 384.221C326.5 382.051 326.95 378.301 326.95 378.301C326.95 378.301 333.4 290.371 333.4 289.021C333.428 288.334 333.298 287.649 333.02 287.021V285.2L334.74 278.751L338.27 263.13Z" fill="#2F2E41"/>
<path id="Vector_20" d="M367.92 183.05L364.92 175.79L355.53 175.95L345.73 189.81L335.41 233.001C335.41 233.001 331.72 264.591 335.41 266.251C339.1 267.911 383.82 267.031 383.82 267.031C381.75 249.981 380.2 232.631 378.58 222.26C373.2 188 370.67 195.25 367.92 183.05Z" fill="#F6BC54"/>
<path id="Vector_21" d="M355.49 176C355.49 176 335.25 187.7 334.49 193.8C333.73 199.9 331.05 274.64 331.05 274.64L338.21 270.021L340.16 242.781C338.8 218.58 342.16 200.54 348.89 187.02L355.49 176Z" fill="#2F2E41"/>
<path id="Vector_22" d="M360.27 172.55C367.886 172.55 374.06 166.376 374.06 158.76C374.06 151.144 367.886 144.97 360.27 144.97C352.654 144.97 346.48 151.144 346.48 158.76C346.48 166.376 352.654 172.55 360.27 172.55Z" fill="#FFB8B8"/>
<path id="Vector_23" d="M377.26 157.94C376.641 160.734 375.53 163.395 373.98 165.8C373.561 166.607 372.946 167.295 372.19 167.8C371.802 168.041 371.343 168.141 370.89 168.084C370.437 168.028 370.017 167.818 369.7 167.49L369.37 167.22C370.023 166.808 370.61 166.299 371.11 165.71C371.353 165.411 371.522 165.058 371.602 164.681C371.682 164.304 371.671 163.913 371.57 163.54C371.456 163.17 371.203 162.858 370.863 162.671C370.523 162.484 370.124 162.437 369.75 162.54C368.94 162.86 368.45 164.03 367.6 163.85C366.92 163.7 366.78 162.8 366.78 162.09C366.78 158.39 365.01 153.09 363.63 153.29C362.23 153.365 360.829 153.175 359.5 152.73C358.167 152.289 356.761 152.112 355.36 152.21H355.05C354.829 151.507 354.52 150.835 354.13 150.21C354.178 150.969 354.142 151.73 354.02 152.48C352.907 152.944 351.756 153.309 350.58 153.57C349.3 153.75 346.49 157.57 346.36 157.19C346.131 156.491 345.822 155.82 345.44 155.19C345.478 155.949 345.442 156.709 345.33 157.46C345.33 157.46 345.33 157.52 345.33 157.55C344.71 156.72 344.33 155.72 344.54 156.49C342.46 151.78 343.27 148.4 346.54 144.44C347.173 143.572 348.021 142.883 349 142.44C349.483 142.227 350.012 142.142 350.538 142.193C351.063 142.244 351.567 142.429 352 142.73C353.335 141.508 354.973 140.665 356.743 140.287C358.513 139.909 360.352 140.01 362.07 140.58C365.48 141.77 368.07 142.47 368.63 146.05C370.054 145.891 371.494 146.139 372.783 146.765C374.072 147.392 375.156 148.372 375.91 149.59C377.407 152.1 377.89 155.087 377.26 157.94Z" fill="#2F2E41"/>
<path id="Vector_24" d="M415.9 289.15C416.462 287.747 416.444 286.179 415.849 284.789C415.255 283.4 414.133 282.303 412.73 281.741C412.405 281.616 412.071 281.519 411.73 281.451L406.73 245.73L398.73 252.611L404.79 286.271C404.607 287.655 404.936 289.058 405.715 290.217C406.494 291.375 407.669 292.21 409.019 292.563C410.37 292.917 411.803 292.765 413.05 292.137C414.297 291.508 415.271 290.446 415.79 289.15H415.9Z" fill="#FFB8B8"/>
<path id="Vector_25" d="M401.22 276L371.67 197L372.39 190.38C372.604 188.39 373.466 186.525 374.844 185.073C376.222 183.62 378.04 182.661 380.016 182.343C381.993 182.025 384.019 182.365 385.783 183.311C387.548 184.257 388.952 185.758 389.78 187.58V187.64L395.85 201.22L411.19 248.28L416.19 273.88L401.22 276Z" fill="#2F2E41"/>
<path id="Vector_26" d="M481.94 413.141C481.94 413.406 481.835 413.66 481.647 413.848C481.46 414.035 481.205 414.141 480.94 414.141H221.27C221.122 414.181 220.966 414.187 220.815 414.157C220.664 414.127 220.522 414.064 220.4 413.97C220.278 413.877 220.179 413.757 220.111 413.619C220.043 413.481 220.008 413.329 220.008 413.176C220.008 413.022 220.043 412.87 220.111 412.733C220.179 412.595 220.278 412.475 220.4 412.381C220.522 412.288 220.664 412.224 220.815 412.194C220.966 412.165 221.122 412.17 221.27 412.211H480.97C481.235 412.211 481.49 412.316 481.677 412.504C481.865 412.691 481.97 412.945 481.97 413.211L481.94 413.141Z" fill="#CCCCCC"/>
<path id="Vector_27" d="M283.31 19.76H1.09998C0.819908 19.7336 0.559763 19.6036 0.370422 19.3955C0.181081 19.1875 0.0761719 18.9163 0.0761719 18.635C0.0761719 18.3537 0.181081 18.0826 0.370422 17.8745C0.559763 17.6665 0.819908 17.5364 1.09998 17.51H283.31C283.59 17.5364 283.85 17.6665 284.039 17.8745C284.229 18.0826 284.334 18.3537 284.334 18.635C284.334 18.9163 284.229 19.1875 284.039 19.3955C283.85 19.6036 283.59 19.7336 283.31 19.76Z" fill="#CACACA"/>
<path id="Vector_28" d="M269.63 0H253.49C253.166 0 252.856 0.128628 252.627 0.357423C252.399 0.586218 252.27 0.896408 252.27 1.21997C252.27 1.54354 252.399 1.85397 252.627 2.08277C252.856 2.31156 253.166 2.43995 253.49 2.43995H269.63C269.954 2.43995 270.264 2.31156 270.493 2.08277C270.721 1.85397 270.85 1.54354 270.85 1.21997C270.85 0.896408 270.721 0.586218 270.493 0.357423C270.264 0.128628 269.954 0 269.63 0Z" fill="#3F3D56"/>
<path id="Vector_29" d="M269.63 4.59009H253.49C253.166 4.59009 252.856 4.71847 252.627 4.94727C252.399 5.17606 252.27 5.4865 252.27 5.81006C252.27 6.13363 252.399 6.44382 252.627 6.67261C252.856 6.90141 253.166 7.03003 253.49 7.03003H269.63C269.954 7.03003 270.264 6.90141 270.493 6.67261C270.721 6.44382 270.85 6.13363 270.85 5.81006C270.85 5.4865 270.721 5.17606 270.493 4.94727C270.264 4.71847 269.954 4.59009 269.63 4.59009Z" fill="#3F3D56"/>
<path id="Vector_30" d="M269.63 9.16992H253.49C253.166 9.16992 252.856 9.29855 252.627 9.52734C252.399 9.75614 252.27 10.0663 252.27 10.3899C252.27 10.7135 252.399 11.0239 252.627 11.2527C252.856 11.4815 253.166 11.6101 253.49 11.6101H269.63C269.954 11.6101 270.264 11.4815 270.493 11.2527C270.721 11.0239 270.85 10.7135 270.85 10.3899C270.85 10.0663 270.721 9.75614 270.493 9.52734C270.264 9.29855 269.954 9.16992 269.63 9.16992Z" fill="#3F3D56"/>
</g>
<defs>
<clipPath id="clip0_159_1598">
<rect width="481.94" height="414.111" fill="white"/>
</clipPath>
</defs>
</svg>
