<svg width="32" height="28" viewBox="0 0 32 28" fill="none" xmlns="http://www.w3.org/2000/svg">
<g clip-path="url(#clip0_1484_9)">
<path d="M0 1.3125C0 0.587891 0.58789 0 1.3125 0H5.25C5.8789 0 6.42031 0.447891 6.54062 1.06695L6.62265 1.75H17.0625V7.33359L15.7555 6.07031C15.2906 5.56172 14.4594 5.56172 13.9453 6.07031C13.4367 6.58437 13.4367 7.41563 13.9453 7.88047L17.4453 11.3805C17.9594 11.9383 18.7906 11.9383 19.2555 11.3805L22.7555 7.88047C23.3133 7.41563 23.3133 6.58437 22.7555 6.07031C22.2906 5.56172 21.4594 5.56172 20.9453 6.07031L19.6875 7.33359V1.75H29.6297C30.7398 1.75 31.6258 2.85742 31.3141 3.97359L28.3609 14.4758C28.1476 15.2305 27.4586 15.75 26.6766 15.75H9.33515L9.83828 18.375H26.6875C27.4148 18.375 28 18.9602 28 19.6875C28 20.4148 27.4148 21 26.6875 21H8.70078C8.12109 21 7.57969 20.5516 7.45937 19.9336L4.16391 2.625H1.3125C0.58789 2.625 0 2.03711 0 1.3125ZM12.25 25.375C12.25 26.8242 11.0742 28 9.625 28C8.17578 28 7 26.8242 7 25.375C7 23.9258 8.17578 22.75 9.625 22.75C11.0742 22.75 12.25 23.9258 12.25 25.375ZM22.75 25.375C22.75 23.9258 23.9258 22.75 25.375 22.75C26.8242 22.75 28 23.9258 28 25.375C28 26.8242 26.8242 28 25.375 28C23.9258 28 22.75 26.8242 22.75 25.375Z" fill="#F6BC54"/>
</g>
<defs>
<clipPath id="clip0_1484_9">
<rect width="31.5" height="28" fill="white"/>
</clipPath>
</defs>
</svg>
