<svg width="70" height="59" viewBox="0 0 70 59" fill="none" xmlns="http://www.w3.org/2000/svg">
<g clip-path="url(#clip0_1103_2)">
<path d="M26.5309 58.9099C25.6967 58.684 24.8452 58.5101 24.0342 58.2234C15.9011 55.3676 13.3436 45.0564 19.2493 38.7654C21.7026 36.1587 24.2456 33.6243 26.8437 31.1595C31.2752 26.9568 38.6928 27.064 43.1185 31.3564C45.5602 33.7228 47.9787 36.121 50.3276 38.58C53.5571 41.9543 54.5245 45.9746 53.1198 50.4118C51.7005 54.8984 48.6419 57.7397 43.9585 58.7071C43.791 58.7587 43.629 58.8266 43.4748 58.9099H26.5309Z" fill="#F6BC54"/>
<path d="M0.246246 22.6323C0.480854 21.8792 0.672014 21.1146 0.950068 20.3818C1.74539 18.3641 3.16683 16.6546 5.00556 15.5046C6.84429 14.3545 9.00338 13.8245 11.1656 13.9923C15.8173 14.3978 19.6376 17.7779 20.4602 22.2209C21.5058 27.8776 17.978 33.2273 12.3503 34.2584C7.28159 35.1939 1.59307 32.4134 0.437409 26.1746C0.390256 26.0021 0.327224 25.8344 0.249137 25.6735L0.246246 22.6323Z" fill="#F6BC54"/>
<path d="M59.3038 34.3768C53.4733 34.3768 49.1113 29.9772 49.1084 24.1091C49.1084 18.577 53.7195 13.9862 59.298 13.9717C64.8764 13.9572 69.586 18.606 69.5599 24.1613C69.5222 30.0149 65.1371 34.3826 59.3038 34.3768Z" fill="#F6BC54"/>
<path d="M45.1113 10.2271C45.2329 15.6144 40.6769 20.3443 35.2491 20.4659C29.4939 20.5962 24.796 16.2053 24.628 10.54C24.5779 9.1875 24.8001 7.83874 25.2813 6.57381C25.7626 5.30888 26.493 4.15355 27.4294 3.17639C28.3658 2.19922 29.489 1.42014 30.7322 0.885433C31.9755 0.350724 33.3135 0.0712899 34.6669 0.0636804C40.5147 -0.049279 44.9694 4.28661 45.1113 10.2271Z" fill="#F6BC54"/>
</g>
<defs>
<clipPath id="clip0_1103_2">
<rect width="69.302" height="58.846" fill="white" transform="translate(0.246078 0.0610352)"/>
</clipPath>
</defs>
</svg>
