<svg width="386" height="528" viewBox="0 0 386 528" fill="none" xmlns="http://www.w3.org/2000/svg">
<g id="Group 194">
<g id="Group 192">
<path id="Vector" d="M33.0445 441.845C40.974 427.479 47.8742 414.993 54.7673 402.5L57.7915 402.897C60.2051 418.505 62.6259 434.112 65.5223 452.855C75.0491 438.666 79.2801 425.081 85.5698 412.56C87.2806 409.161 87.4581 403.408 91.6678 403.117C97.2192 402.734 97.0063 409.154 98.71 412.765C104.723 425.45 110.239 438.368 116.017 451.386C109.806 454.933 106.696 452.422 105.369 446.122C103.686 438.085 98.348 436.701 90.8159 436.616C83.0923 436.531 77.7751 438.404 76.476 446.3C74.6658 457.267 66.0689 451.436 60.7944 452.429C54.3201 453.649 56.9822 447.179 56.3717 443.916C54.9519 436.368 53.9935 428.742 52.233 417.121L31.5821 455.168L12.3225 420.264L9.61782 420.555L6.28839 447.08C5.99024 449.478 6.99829 452.961 2.81699 452.578C-1.69086 452.167 0.488523 448.84 0.793779 446.64C2.51883 434.005 4.34327 421.392 6.1961 408.778C6.50136 406.721 5.91214 404.011 8.68075 403.316C11.9321 402.5 13.217 405.018 14.4948 407.402C20.4296 418.497 26.4211 429.564 33.0445 441.845ZM90.5462 412.85C87.8415 421.406 82.0274 426.4 84.7676 431.246C86.6843 434.63 93.3503 433.204 98.5893 431.012L90.5462 412.85Z" fill="#6A5F4B"/>
<path id="Vector_2" d="M313.504 402.28C328.902 402.798 339.706 414.135 339.323 429.38C338.968 443.568 326.587 455.153 312.652 454.38C296.544 453.486 285.534 441.61 286.386 426.074C287.188 411.233 297.993 401.727 313.504 402.28ZM296.353 426.053C296.218 439.106 303.075 448.605 313.035 449.152C322.995 449.698 329.171 442.057 329.122 429.401C329.065 415.575 322.733 407.516 311.914 407.544C299.476 407.573 296.828 415.915 296.353 426.053Z" fill="#F6BC54"/>
<path id="Vector_3" d="M255.271 402.195C271.35 402.273 281.772 412.382 281.914 428.039C282.048 443.214 271.35 454.642 257.067 454.55C241.215 454.444 229.338 442.852 229.338 427.486C229.374 412.709 240.214 402.124 255.271 402.195ZM239.135 423.009C238.865 439.106 246.433 449.081 256.811 449.187C265.451 449.279 272.763 440.766 273.011 430.331C273.324 417.277 265.607 407.466 254.916 407.629C242.954 407.792 239.76 415.78 239.135 423.009Z" fill="#F6BC54"/>
<path id="Vector_4" d="M354.451 432.083C354.451 437.411 354.266 441.767 354.501 446.101C354.721 450.074 354.437 453.195 349.233 452.919C344.704 452.706 344.86 449.712 344.888 446.491C344.981 435.063 344.888 423.62 345.087 412.191C345.165 408.367 342.425 402.422 350.057 402.642C356.623 402.826 354.06 407.963 354.316 411.517C354.486 413.645 354.841 415.695 355.154 418.1C367.286 416.951 370.651 400.074 384.366 402.812C384.096 403.876 384.153 404.862 383.706 405.231C361.287 423.676 361.308 423.676 380.568 444.81C382.556 446.988 385.615 448.478 385.977 452.656C369.884 455.047 367.627 437.035 354.451 432.083Z" fill="#F6BC54"/>
<path id="Vector_5" d="M145.521 453.451C129.513 453.572 118.601 443.327 118.303 427.912C118.026 413.723 128.703 402.642 142.766 402.486C158.498 402.316 169.679 412.865 170.055 428.238C170.403 442.292 159.626 453.345 145.521 453.451ZM126.907 425.783C126.701 439.099 134.148 449.244 144.527 449.79C153.713 450.266 161.564 441.462 161.848 430.302C162.203 417.384 154.394 407.083 143.867 406.586C133.871 406.104 127.099 413.787 126.907 425.776V425.783Z" fill="#6A5F4B"/>
<path id="Vector_6" d="M193.701 427.926C193.701 423.988 193.268 419.987 193.815 416.121C194.44 411.687 190.635 404.877 196.264 403.259C203.079 401.294 211.172 400.301 217.561 405.714C222.488 409.892 223.851 415.745 220.152 421.009C216.454 426.273 220.805 427.535 222.857 430.494C227.777 437.588 227.862 445.065 220.337 449.939C212.336 455.125 201.17 457.097 194.915 450.719C190.997 446.704 194.205 435.765 194.205 427.933L193.701 427.926ZM201.581 439.723C204.002 442.327 198.564 450.088 207.58 449.116C213.259 448.499 217.519 445.086 217.171 438.822C216.823 432.849 213.025 429.38 206.87 429.394C199.281 429.394 203.079 435.509 201.595 439.723H201.581ZM201.581 416.036C203.441 418.114 199.743 423.407 205.514 423.605C211.129 423.804 212.528 419.59 212.613 414.787C212.72 410.247 210.718 406.842 206.118 406.778C199.452 406.693 203.122 412.425 201.61 416.036H201.581Z" fill="#F6BC54"/>
</g>
<path id="It&#226;&#128;&#153;s mao life!" d="M92.3438 489.562V518H88.5742V489.562H92.3438ZM107.5 496.867V499.641H96.0742V496.867H107.5ZM99.9414 491.73H103.555V512.766C103.555 513.482 103.665 514.022 103.887 514.387C104.108 514.751 104.395 514.992 104.746 515.109C105.098 515.227 105.475 515.285 105.879 515.285C106.178 515.285 106.491 515.259 106.816 515.207C107.155 515.142 107.409 515.09 107.578 515.051L107.598 518C107.311 518.091 106.934 518.176 106.465 518.254C106.009 518.345 105.456 518.391 104.805 518.391C103.919 518.391 103.105 518.215 102.363 517.863C101.621 517.512 101.029 516.926 100.586 516.105C100.156 515.272 99.9414 514.152 99.9414 512.746V491.73ZM115.391 488V490.5C115.391 491.281 115.254 492.108 114.98 492.98C114.72 493.84 114.336 494.673 113.828 495.48C113.32 496.275 112.708 496.971 111.992 497.57L109.922 496.145C110.534 495.285 110.996 494.406 111.309 493.508C111.634 492.596 111.797 491.613 111.797 490.559V488H115.391ZM129.863 512.395C129.863 511.874 129.746 511.392 129.512 510.949C129.29 510.493 128.828 510.083 128.125 509.719C127.435 509.341 126.393 509.016 125 508.742C123.828 508.495 122.767 508.202 121.816 507.863C120.879 507.525 120.078 507.115 119.414 506.633C118.763 506.151 118.262 505.585 117.91 504.934C117.559 504.283 117.383 503.521 117.383 502.648C117.383 501.815 117.565 501.027 117.93 500.285C118.307 499.543 118.835 498.885 119.512 498.312C120.202 497.74 121.029 497.29 121.992 496.965C122.956 496.639 124.03 496.477 125.215 496.477C126.908 496.477 128.353 496.776 129.551 497.375C130.749 497.974 131.667 498.775 132.305 499.777C132.943 500.767 133.262 501.867 133.262 503.078H129.648C129.648 502.492 129.473 501.926 129.121 501.379C128.783 500.819 128.281 500.357 127.617 499.992C126.966 499.628 126.165 499.445 125.215 499.445C124.212 499.445 123.398 499.602 122.773 499.914C122.161 500.214 121.712 500.598 121.426 501.066C121.152 501.535 121.016 502.03 121.016 502.551C121.016 502.941 121.081 503.293 121.211 503.605C121.354 503.905 121.602 504.185 121.953 504.445C122.305 504.693 122.799 504.927 123.438 505.148C124.076 505.37 124.889 505.591 125.879 505.812C127.611 506.203 129.036 506.672 130.156 507.219C131.276 507.766 132.109 508.436 132.656 509.23C133.203 510.025 133.477 510.988 133.477 512.121C133.477 513.046 133.281 513.892 132.891 514.66C132.513 515.428 131.96 516.092 131.23 516.652C130.514 517.199 129.655 517.629 128.652 517.941C127.663 518.241 126.549 518.391 125.312 518.391C123.451 518.391 121.875 518.059 120.586 517.395C119.297 516.73 118.32 515.871 117.656 514.816C116.992 513.762 116.66 512.648 116.66 511.477H120.293C120.345 512.466 120.632 513.254 121.152 513.84C121.673 514.413 122.311 514.823 123.066 515.07C123.822 515.305 124.57 515.422 125.312 515.422C126.302 515.422 127.129 515.292 127.793 515.031C128.47 514.771 128.984 514.413 129.336 513.957C129.688 513.501 129.863 512.98 129.863 512.395ZM151.738 501.066V518H148.105V496.867H151.543L151.738 501.066ZM150.996 506.633L149.316 506.574C149.329 505.129 149.518 503.794 149.883 502.57C150.247 501.333 150.788 500.259 151.504 499.348C152.22 498.436 153.112 497.733 154.18 497.238C155.247 496.73 156.484 496.477 157.891 496.477C158.88 496.477 159.792 496.62 160.625 496.906C161.458 497.18 162.181 497.616 162.793 498.215C163.405 498.814 163.88 499.582 164.219 500.52C164.557 501.457 164.727 502.59 164.727 503.918V518H161.113V504.094C161.113 502.987 160.924 502.102 160.547 501.438C160.182 500.773 159.661 500.292 158.984 499.992C158.307 499.68 157.513 499.523 156.602 499.523C155.534 499.523 154.642 499.712 153.926 500.09C153.21 500.467 152.637 500.988 152.207 501.652C151.777 502.316 151.465 503.078 151.27 503.938C151.087 504.784 150.996 505.682 150.996 506.633ZM164.688 504.641L162.266 505.383C162.279 504.224 162.467 503.111 162.832 502.043C163.21 500.975 163.75 500.025 164.453 499.191C165.169 498.358 166.048 497.701 167.09 497.219C168.132 496.724 169.323 496.477 170.664 496.477C171.797 496.477 172.799 496.626 173.672 496.926C174.557 497.225 175.299 497.688 175.898 498.312C176.51 498.924 176.973 499.712 177.285 500.676C177.598 501.639 177.754 502.785 177.754 504.113V518H174.121V504.074C174.121 502.889 173.932 501.971 173.555 501.32C173.19 500.656 172.669 500.194 171.992 499.934C171.328 499.66 170.534 499.523 169.609 499.523C168.815 499.523 168.112 499.66 167.5 499.934C166.888 500.207 166.374 500.585 165.957 501.066C165.54 501.535 165.221 502.076 165 502.688C164.792 503.299 164.688 503.951 164.688 504.641ZM195.684 514.387V503.508C195.684 502.674 195.514 501.952 195.176 501.34C194.85 500.715 194.355 500.233 193.691 499.895C193.027 499.556 192.207 499.387 191.23 499.387C190.319 499.387 189.518 499.543 188.828 499.855C188.151 500.168 187.617 500.578 187.227 501.086C186.849 501.594 186.66 502.141 186.66 502.727H183.047C183.047 501.971 183.242 501.223 183.633 500.48C184.023 499.738 184.583 499.068 185.312 498.469C186.055 497.857 186.94 497.375 187.969 497.023C189.01 496.659 190.169 496.477 191.445 496.477C192.982 496.477 194.336 496.737 195.508 497.258C196.693 497.779 197.617 498.566 198.281 499.621C198.958 500.663 199.297 501.971 199.297 503.547V513.391C199.297 514.094 199.355 514.842 199.473 515.637C199.603 516.431 199.792 517.115 200.039 517.688V518H196.27C196.087 517.583 195.944 517.03 195.84 516.34C195.736 515.637 195.684 514.986 195.684 514.387ZM196.309 505.188L196.348 507.727H192.695C191.667 507.727 190.749 507.811 189.941 507.98C189.134 508.137 188.457 508.378 187.91 508.703C187.363 509.029 186.947 509.439 186.66 509.934C186.374 510.415 186.23 510.982 186.23 511.633C186.23 512.297 186.38 512.902 186.68 513.449C186.979 513.996 187.428 514.432 188.027 514.758C188.639 515.07 189.388 515.227 190.273 515.227C191.38 515.227 192.357 514.992 193.203 514.523C194.049 514.055 194.72 513.482 195.215 512.805C195.723 512.128 195.996 511.47 196.035 510.832L197.578 512.57C197.487 513.117 197.24 513.723 196.836 514.387C196.432 515.051 195.892 515.689 195.215 516.301C194.551 516.9 193.757 517.401 192.832 517.805C191.921 518.195 190.892 518.391 189.746 518.391C188.314 518.391 187.057 518.111 185.977 517.551C184.909 516.991 184.076 516.242 183.477 515.305C182.891 514.354 182.598 513.293 182.598 512.121C182.598 510.988 182.819 509.992 183.262 509.133C183.704 508.26 184.342 507.538 185.176 506.965C186.009 506.379 187.012 505.936 188.184 505.637C189.355 505.337 190.664 505.188 192.109 505.188H196.309ZM204.023 507.668V507.219C204.023 505.695 204.245 504.283 204.688 502.98C205.13 501.665 205.768 500.526 206.602 499.562C207.435 498.586 208.444 497.831 209.629 497.297C210.814 496.75 212.142 496.477 213.613 496.477C215.098 496.477 216.432 496.75 217.617 497.297C218.815 497.831 219.831 498.586 220.664 499.562C221.51 500.526 222.155 501.665 222.598 502.98C223.04 504.283 223.262 505.695 223.262 507.219V507.668C223.262 509.191 223.04 510.604 222.598 511.906C222.155 513.208 221.51 514.348 220.664 515.324C219.831 516.288 218.822 517.043 217.637 517.59C216.465 518.124 215.137 518.391 213.652 518.391C212.168 518.391 210.833 518.124 209.648 517.59C208.464 517.043 207.448 516.288 206.602 515.324C205.768 514.348 205.13 513.208 204.688 511.906C204.245 510.604 204.023 509.191 204.023 507.668ZM207.637 507.219V507.668C207.637 508.723 207.76 509.719 208.008 510.656C208.255 511.581 208.626 512.401 209.121 513.117C209.629 513.833 210.26 514.4 211.016 514.816C211.771 515.22 212.65 515.422 213.652 515.422C214.642 515.422 215.508 515.22 216.25 514.816C217.005 514.4 217.63 513.833 218.125 513.117C218.62 512.401 218.991 511.581 219.238 510.656C219.499 509.719 219.629 508.723 219.629 507.668V507.219C219.629 506.177 219.499 505.194 219.238 504.27C218.991 503.332 218.613 502.505 218.105 501.789C217.611 501.06 216.986 500.487 216.23 500.07C215.488 499.654 214.616 499.445 213.613 499.445C212.624 499.445 211.751 499.654 210.996 500.07C210.254 500.487 209.629 501.06 209.121 501.789C208.626 502.505 208.255 503.332 208.008 504.27C207.76 505.194 207.637 506.177 207.637 507.219ZM241.641 488V518H238.008V488H241.641ZM251.367 496.867V518H247.734V496.867H251.367ZM247.461 491.262C247.461 490.676 247.637 490.181 247.988 489.777C248.353 489.374 248.887 489.172 249.59 489.172C250.28 489.172 250.807 489.374 251.172 489.777C251.549 490.181 251.738 490.676 251.738 491.262C251.738 491.822 251.549 492.303 251.172 492.707C250.807 493.098 250.28 493.293 249.59 493.293C248.887 493.293 248.353 493.098 247.988 492.707C247.637 492.303 247.461 491.822 247.461 491.262ZM262.559 518H258.945V494.641C258.945 493.117 259.219 491.835 259.766 490.793C260.326 489.738 261.126 488.944 262.168 488.41C263.21 487.863 264.447 487.59 265.879 487.59C266.296 487.59 266.712 487.616 267.129 487.668C267.559 487.72 267.975 487.798 268.379 487.902L268.184 490.852C267.91 490.786 267.598 490.741 267.246 490.715C266.908 490.689 266.569 490.676 266.23 490.676C265.462 490.676 264.798 490.832 264.238 491.145C263.691 491.444 263.275 491.887 262.988 492.473C262.702 493.059 262.559 493.781 262.559 494.641V518ZM267.051 496.867V499.641H255.605V496.867H267.051ZM279.375 518.391C277.904 518.391 276.569 518.143 275.371 517.648C274.186 517.141 273.164 516.431 272.305 515.52C271.458 514.608 270.807 513.527 270.352 512.277C269.896 511.027 269.668 509.66 269.668 508.176V507.355C269.668 505.637 269.922 504.107 270.43 502.766C270.938 501.411 271.628 500.266 272.5 499.328C273.372 498.391 274.362 497.681 275.469 497.199C276.576 496.717 277.721 496.477 278.906 496.477C280.417 496.477 281.719 496.737 282.812 497.258C283.919 497.779 284.824 498.508 285.527 499.445C286.23 500.37 286.751 501.464 287.09 502.727C287.428 503.977 287.598 505.344 287.598 506.828V508.449H271.816V505.5H283.984V505.227C283.932 504.289 283.737 503.378 283.398 502.492C283.073 501.607 282.552 500.878 281.836 500.305C281.12 499.732 280.143 499.445 278.906 499.445C278.086 499.445 277.331 499.621 276.641 499.973C275.951 500.311 275.358 500.819 274.863 501.496C274.368 502.173 273.984 503 273.711 503.977C273.438 504.953 273.301 506.079 273.301 507.355V508.176C273.301 509.178 273.438 510.122 273.711 511.008C273.997 511.88 274.408 512.648 274.941 513.312C275.488 513.977 276.146 514.497 276.914 514.875C277.695 515.253 278.581 515.441 279.57 515.441C280.846 515.441 281.927 515.181 282.812 514.66C283.698 514.139 284.473 513.443 285.137 512.57L287.324 514.309C286.868 514.999 286.289 515.656 285.586 516.281C284.883 516.906 284.017 517.414 282.988 517.805C281.973 518.195 280.768 518.391 279.375 518.391ZM296.113 489.562L295.859 509.973H292.598L292.324 489.562H296.113ZM292.207 516.184C292.207 515.598 292.383 515.103 292.734 514.699C293.099 514.296 293.633 514.094 294.336 514.094C295.026 514.094 295.553 514.296 295.918 514.699C296.296 515.103 296.484 515.598 296.484 516.184C296.484 516.743 296.296 517.225 295.918 517.629C295.553 518.033 295.026 518.234 294.336 518.234C293.633 518.234 293.099 518.033 292.734 517.629C292.383 517.225 292.207 516.743 292.207 516.184Z" fill="#6A5F4B"/>
<g id="Group 193">
<path id="Vector_7" d="M216.645 142.977C217.551 142.903 218.464 142.987 219.342 143.225C224.177 148.56 228.933 153.973 233.853 159.23C267.353 195.013 299.163 231.945 316.201 279.029C295.039 318.09 264.478 340.267 217.873 341.317C180.958 342.147 150.319 332.506 125.515 305.235C121.007 300.269 116.13 295.403 114.632 288.429C125.032 276.795 120.887 261.833 123.215 248.496C129.008 215.359 140.962 186.599 170.558 167.523C185.253 158.031 201.219 151.022 216.645 142.977Z" fill="#54534A"/>
<path id="Vector_8" d="M216.645 142.977C201.219 151.029 185.274 158.038 170.558 167.523C140.955 186.599 129.008 215.359 123.215 248.496C120.887 261.833 125.032 276.795 114.632 288.429C95.8059 263.458 93.6762 234.733 98.2125 205.555C99.9375 194.523 100.158 184.861 96.3312 174.581C90.7727 159.641 85.2142 144.651 80.7986 129.356C78.3779 120.949 74.3315 117.168 65.6494 117.437C59.8567 117.622 54.0426 116.728 48.2356 116.43C24.4824 115.267 9.90112 99.7303 10.0005 76.2059C10.0005 70.261 11.6049 67.3169 17.8662 66.8132C25.0929 66.2315 32.2345 64.4579 39.4684 63.9117C48.1788 63.2519 55.4979 60.7547 59.9986 52.6602C62.8382 47.5595 67.6371 45.2042 73.1176 44.6083C90.5456 42.7071 100.633 32.8177 105.532 16.423C107.001 11.4571 108.634 4.29902 113.972 3.84499C121 3.24198 122.257 11.3648 124.01 16.3734C142.077 68.005 172.51 110.457 216.645 142.977Z" fill="#6A5F4B"/>
<path id="Vector_9" d="M316.201 279.022C299.163 231.938 267.353 195.006 233.853 159.222C228.933 153.966 224.177 148.581 219.342 143.218C237.14 127.355 249.52 108.903 252.935 84.3359C258.422 44.9347 287.422 22.29 316.584 0C319.814 1.95091 318.331 5.27808 318.118 7.68302C316.634 23.9997 317.699 38.1881 338.435 41.5224C344.249 42.4588 347.465 48.3825 350.78 53.2278C354.329 58.4208 358.191 63.259 364.268 66.0471C377.884 72.3183 380.234 81.2216 371.644 93.6648C368.281 98.4323 363.824 102.325 358.646 105.016C331.364 119.729 324.471 133.641 331.861 163.855C341.764 204.476 330.15 241.82 316.201 279.022Z" fill="#F6BC54"/>
</g>
</g>
</svg>
