<svg width="298" height="73" viewBox="0 0 298 73" fill="none" xmlns="http://www.w3.org/2000/svg">
<g id="logo" clip-path="url(#clip0_159_1877)">
<path id="Vector" d="M282.586 38.6339C282.586 41.2697 282.499 43.416 282.586 45.5623C282.673 47.7086 282.586 49.0642 280.019 48.9387C277.799 48.8383 277.874 47.3572 277.886 45.7632C277.886 40.1024 277.886 34.4667 277.985 28.7934C277.985 26.8981 276.745 23.9485 280.465 24.0615C283.677 24.1494 282.412 26.6973 282.561 28.4546C282.636 29.4838 282.809 30.5255 282.958 31.7054C288.886 31.1406 290.535 22.7938 297.231 24.1744C297.107 24.7016 297.132 25.1911 296.909 25.3668C285.959 34.5044 285.971 34.4918 295.383 44.9473C296.351 46.0267 297.864 46.7673 298.025 48.8383C290.126 49.9931 289.01 41.0814 282.586 38.6339Z" fill="#F6BB54"/>
<path id="Vector_2" d="M125.569 43.4535L136.184 24.0237L137.66 24.2245C138.838 31.9562 140.016 39.6755 141.38 48.9385C146.03 41.9348 148.101 35.2071 151.164 29.0066C152.007 27.3247 152.094 24.4755 154.152 24.3375C156.856 24.1492 156.757 27.3247 157.587 29.1071C160.526 35.3828 163.217 41.7842 166.045 48.2232C163.006 49.9678 161.494 48.7378 160.849 45.6124C160.03 41.6336 157.414 40.9558 153.731 40.9056C150.048 40.8554 147.369 41.7967 146.724 45.7003C145.844 51.1226 141.64 48.2106 139.073 48.7377C135.911 49.3402 137.201 46.1396 136.916 44.5204C136.221 40.755 135.75 36.9895 134.882 31.266C131.1 38.3451 128.21 43.7171 124.8 50.0933L115.45 32.8098L114.136 32.9478L112.499 46.0768C112.35 47.2567 112.858 48.9888 110.8 48.8005C108.741 48.6122 109.659 46.9429 109.808 45.8509C110.651 39.5751 111.556 33.2993 112.449 27.1239C112.598 26.1072 112.313 24.7642 113.689 24.4253C115.276 24.0111 115.909 25.2663 116.529 26.4461C119.406 31.9061 122.332 37.3785 125.569 43.4535ZM153.669 29.1071C152.354 33.3495 149.502 35.8222 150.854 38.2195C151.784 39.8889 155.045 39.186 157.6 38.094L153.669 29.1071Z" fill="#6A5F4B"/>
<path id="Vector_3" d="M262.584 23.8856C265.961 23.9405 269.179 25.3513 271.529 27.8075C273.879 30.2638 275.169 33.5644 275.115 36.9831C275.06 40.4019 273.666 43.6588 271.24 46.0374C268.813 48.416 265.552 49.7214 262.174 49.6665C254.3 49.2146 248.918 43.3907 249.327 35.6589C249.774 28.3163 255.007 23.622 262.584 23.8856ZM254.201 35.6464C254.201 42.1104 257.487 46.8047 262.36 47.0809C267.234 47.357 270.235 43.579 270.21 37.3032C270.21 30.4626 267.11 26.4712 261.802 26.4837C255.726 26.5339 254.436 30.6383 254.201 35.6464Z" fill="#F6BB54"/>
<path id="Vector_4" d="M234.137 23.8355C241.986 23.8355 247.083 28.8562 247.145 36.6256C247.219 44.1566 241.986 49.7922 235.03 49.742C227.292 49.742 221.488 43.9558 221.488 36.3495C221.488 29.0445 226.783 23.8104 234.137 23.8355ZM226.213 34.153C226.089 42.1232 229.784 47.056 234.893 47.1062C239.109 47.1062 242.681 42.9391 242.805 37.7804C242.954 31.3163 239.184 26.484 233.963 26.484C228.122 26.6095 226.56 30.5632 226.213 34.153Z" fill="#F6BB54"/>
<path id="Vector_5" d="M180.516 49.2021C172.704 49.2649 167.372 44.1815 167.223 36.5626C167.163 34.9361 167.427 33.314 168.001 31.7934C168.575 30.2729 169.446 28.8851 170.562 27.7133C171.678 26.5414 173.016 25.6095 174.497 24.9733C175.977 24.3372 177.569 24.0099 179.177 24.0111C186.865 23.9358 192.322 29.1447 192.508 36.7635C192.563 38.3866 192.293 40.0043 191.714 41.5188C191.134 43.0334 190.258 44.4136 189.138 45.576C188.017 46.7384 186.675 47.659 185.194 48.2822C183.712 48.9054 182.121 49.2183 180.516 49.2021ZM171.427 35.5084C171.327 42.0979 174.961 47.1185 180.033 47.3821C184.522 47.6206 188.341 43.2652 188.502 37.7425C188.676 31.3537 184.856 26.2578 179.71 26.0068C174.824 25.7809 171.526 29.5715 171.427 35.5084Z" fill="#6A5F4B"/>
<path id="Vector_6" d="M204.065 36.5752C203.935 34.6278 203.935 32.6737 204.065 30.7262C204.375 28.5423 202.515 25.1659 205.305 24.3626C208.629 23.3961 212.597 22.9066 215.722 25.6177C218.127 27.6888 218.797 30.6384 216.962 33.1487C215.126 35.659 217.284 36.3744 218.289 37.843C220.694 41.3574 220.769 45.0476 217.049 47.47C213.142 49.9803 207.674 51.0095 204.648 47.8465C202.738 45.8634 204.288 40.4537 204.288 36.5501L204.065 36.5752ZM207.909 42.4118C209.149 43.6669 206.446 47.5327 210.848 47.0558C213.626 46.7546 215.709 45.0601 215.536 41.9598C215.542 41.3084 215.413 40.6628 215.157 40.0653C214.9 39.4678 214.522 38.9319 214.047 38.4924C213.572 38.0529 213.01 37.7198 212.399 37.5149C211.788 37.31 211.141 37.2379 210.501 37.3033C206.781 37.3033 208.641 40.3408 207.909 42.4118ZM207.909 30.6886C208.815 31.7178 207.004 34.3411 209.831 34.454C212.659 34.567 213.254 32.4583 213.304 30.0861C213.353 27.7139 212.386 26.1574 210.129 26.1198C206.868 26.057 208.653 28.9062 207.922 30.6886H207.909Z" fill="#F6BB54"/>
<path id="Vector_7" d="M43.6255 30.5757C43.8144 30.5448 44.007 30.5448 44.1959 30.5757C45.2128 31.7179 46.2172 32.8852 47.2589 34.0023C54.3273 41.6588 61.0484 49.5537 64.6198 59.6201C60.168 68.0296 53.7196 72.7616 43.9231 72.975C36.1231 73.1507 29.6624 71.0922 24.4169 65.2683C23.3387 64.3024 22.5341 63.0634 22.0856 61.6785C24.2805 59.1682 23.4 55.9927 23.8961 53.1435C25.1361 46.0518 27.6163 39.9016 33.891 35.8223C37.0036 33.8015 40.3641 32.2953 43.6255 30.5757Z" fill="#54534A"/>
<path id="Vector_8" d="M43.6255 30.5757C40.3641 32.2952 37.0035 33.8015 33.891 35.8223C27.6907 39.9015 25.1237 46.0518 23.8961 53.1434C23.4 55.9927 24.2805 59.1933 22.0856 61.6785C18.105 56.3441 17.6585 50.2064 18.6134 43.9557C19.0791 41.7562 18.9462 39.47 18.229 37.341C16.9889 34.1403 15.8728 30.9397 14.9428 27.6638C14.8438 26.9031 14.4522 26.2127 13.8531 25.7426C13.254 25.2726 12.4959 25.0609 11.7434 25.1534C10.5034 25.1534 9.26329 25.0028 8.02323 24.94C3.00096 24.689 -0.0743961 21.3754 -0.0495948 16.3422C-0.0495948 15.087 0.285223 14.4344 1.61209 14.334C3.13737 14.2085 4.63785 13.8319 6.16313 13.7064C7.03274 13.739 7.89494 13.5335 8.65881 13.1115C9.42268 12.6896 10.0599 12.0669 10.5034 11.309C10.7862 10.8108 11.1871 10.3917 11.6698 10.0893C12.1525 9.78695 12.702 9.61082 13.2687 9.57688C16.9889 9.17523 19.0846 7.06658 20.1139 3.55214C20.4239 2.4978 20.7711 0.966493 21.8996 0.866081C23.3752 0.740565 23.648 2.47269 24.0201 3.53957C27.6416 14.3838 34.4901 23.8278 43.6255 30.5757Z" fill="#6A5F4B"/>
<path id="Vector_9" d="M64.6446 59.6702C61.0484 49.6289 54.3272 41.7088 47.2837 34.0524C46.242 32.9353 45.2376 31.768 44.2207 30.6258C48.0346 27.4714 50.561 23.0008 51.3139 18.0742C52.4671 9.6521 58.5931 4.8072 64.7438 0.0375977C65.4258 0.464351 65.1158 1.16724 65.0662 1.68185C64.7562 5.17119 64.9794 8.20862 69.3568 8.92406C70.5969 9.12489 71.2665 10.3926 71.961 11.4344C72.6425 12.5997 73.6298 13.5512 74.8131 14.1832C77.6901 15.5136 78.1737 17.4215 76.3632 20.0824C75.6529 21.0989 74.7134 21.9294 73.6226 22.5049C67.8687 25.6553 66.4055 28.6301 67.9679 35.0565C70.0389 43.7296 67.5835 51.7125 64.6446 59.6702Z" fill="#F6BB54"/>
</g>
<defs>
<clipPath id="clip0_159_1877">
<rect width="298" height="73" fill="white"/>
</clipPath>
</defs>
</svg>
