<svg width="227" height="266" viewBox="0 0 227 266" fill="none" xmlns="http://www.w3.org/2000/svg">
<g id="Group 357">
<path id="Vector" d="M20.0173 258.093C24.6514 249.727 28.6835 242.456 32.7157 235.181L34.4806 235.412C35.8947 244.501 37.3089 253.59 38.9978 264.505C44.5669 256.242 47.0387 248.331 50.7145 241.039C51.7137 239.06 51.819 235.709 54.2792 235.54C57.5225 235.317 57.3997 239.056 58.3932 241.159C61.9052 248.546 65.131 256.069 68.5087 263.65C64.8798 265.715 63.0623 264.253 62.2851 260.584C61.3034 255.904 58.1828 255.098 53.7824 255.048C49.2652 254.999 46.1622 256.09 45.4025 260.688C44.3448 267.074 39.3192 263.679 36.2337 264.257C32.4528 264.968 34.0072 261.2 33.6507 259.299C32.8209 254.904 32.2599 250.463 31.2314 243.695L19.164 265.852L7.90896 245.526L6.33118 245.695L4.38523 261.142C4.20992 262.539 4.80009 264.567 2.3574 264.344C-0.278136 264.104 0.995856 262.167 1.17117 260.886C2.18214 253.528 3.24565 246.183 4.33259 238.837C4.5079 237.639 4.16318 236.061 5.7819 235.656C7.68112 235.181 8.43493 236.647 9.17708 238.035C12.6483 244.497 16.1487 250.941 20.0173 258.093ZM53.6247 241.208C52.041 246.191 48.6458 249.099 50.247 251.921C51.3632 253.892 55.2609 253.061 58.323 251.785L53.6247 241.208Z" fill="#6A5F4B"/>
<path id="Vector_2" d="M183.911 235.052C192.91 235.354 199.227 241.956 198.999 250.834C198.795 259.097 191.56 265.843 183.414 265.393C174 264.872 167.566 257.956 168.069 248.909C168.536 240.266 174.847 234.73 183.911 235.052ZM173.889 248.897C173.813 256.498 177.822 262.03 183.642 262.348C189.463 262.666 193.068 258.217 193.039 250.846C193.01 242.795 189.305 238.102 182.982 238.118C175.718 238.135 174.169 242.993 173.889 248.897Z" fill="#F6BC54"/>
<path id="Vector_3" d="M149.883 235.003C159.28 235.049 165.369 240.936 165.451 250.053C165.532 258.891 159.28 265.546 150.935 265.492C141.666 265.431 134.73 258.68 134.73 249.731C134.748 241.126 141.082 234.962 149.883 235.003ZM140.451 247.124C140.293 256.498 144.717 262.307 150.783 262.369C155.832 262.423 160.104 257.465 160.25 251.388C160.431 243.786 155.925 238.073 149.678 238.168C142.683 238.263 140.819 242.914 140.451 247.124Z" fill="#F6BC54"/>
<path id="Vector_4" d="M207.841 252.408C207.841 255.511 207.736 258.048 207.87 260.572C207.999 262.885 207.835 264.703 204.791 264.542C202.143 264.418 202.237 262.675 202.254 260.799C202.307 254.144 202.254 247.48 202.371 240.824C202.418 238.597 200.817 235.135 205.276 235.263C209.109 235.37 207.613 238.362 207.765 240.432C207.864 241.671 208.069 242.865 208.25 244.265C215.344 243.596 217.308 233.768 225.325 235.362C225.168 235.982 225.197 236.556 224.94 236.771C211.838 247.512 211.85 247.512 223.105 259.82C224.268 261.088 226.056 261.956 226.266 264.389C216.858 265.781 215.543 255.292 207.841 252.408Z" fill="#F6BC54"/>
<path id="Vector_5" d="M85.7475 264.852C76.3917 264.923 70.0161 258.956 69.8408 249.979C69.683 241.716 75.9183 235.263 84.1405 235.173C93.3327 235.074 99.866 241.217 100.082 250.169C100.287 258.354 93.993 264.79 85.7475 264.852ZM74.8723 248.74C74.7496 256.494 79.1032 262.402 85.169 262.72C90.5335 262.997 95.1209 257.87 95.2903 251.371C95.4949 243.848 90.9309 237.85 84.7833 237.56C78.9395 237.28 74.9833 241.754 74.8723 248.736V248.74Z" fill="#6A5F4B"/>
<path id="Vector_6" d="M113.903 249.988C113.903 247.694 113.652 245.364 113.973 243.113C114.336 240.531 112.109 236.565 115.399 235.623C119.385 234.478 124.112 233.9 127.846 237.052C130.727 239.485 131.522 242.894 129.36 245.959C127.198 249.025 129.746 249.76 130.944 251.483C133.819 255.614 133.865 259.969 129.471 262.807C124.796 265.827 118.268 266.975 114.616 263.261C112.325 260.923 114.201 254.553 114.201 249.992L113.903 249.988ZM118.508 256.858C119.922 258.374 116.743 262.894 122.014 262.328C125.333 261.968 127.823 259.981 127.618 256.333C127.414 252.854 125.199 250.834 121.599 250.842C117.164 250.842 119.385 254.404 118.52 256.858H118.508ZM118.508 243.063C119.595 244.273 117.433 247.356 120.805 247.471C124.089 247.587 124.907 245.133 124.954 242.336C125.018 239.692 123.849 237.709 121.161 237.672C117.263 237.622 119.408 240.96 118.526 243.063H118.508Z" fill="#F6BC54"/>
<path id="Vector_7" d="M127.314 84.0464C127.84 84.0033 128.372 84.0522 128.886 84.1908C131.715 87.2977 134.49 90.45 137.365 93.5114C156.942 114.35 175.531 135.857 185.489 163.277C173.123 186.024 155.265 198.939 128.027 199.551C106.458 200.034 88.5526 194.42 74.0601 178.538C71.4246 175.646 68.5729 172.812 67.6963 168.751C73.7738 161.976 71.3545 153.263 72.7161 145.496C76.0996 126.198 83.0829 109.45 100.38 98.3409C108.965 92.8132 118.297 88.7315 127.314 84.0464Z" fill="#54534A"/>
<path id="Vector_8" d="M127.308 84.0461C118.297 88.7352 108.976 92.8169 100.38 98.3405C83.0827 109.45 76.0994 126.198 72.7159 145.496C71.3543 153.262 73.7736 161.976 67.6961 168.751C56.6982 154.209 55.4535 137.481 58.1007 120.489C59.1116 114.064 59.2402 108.437 57.0021 102.451C53.7529 93.7504 50.5039 85.0209 47.9268 76.1138C46.5126 71.218 44.1459 69.0161 39.0735 69.1727C35.69 69.2805 32.2889 68.7598 28.8995 68.5863C15.0148 67.909 6.4946 58.861 6.55303 45.1617C6.55303 41.6996 7.48803 39.9851 11.1521 39.6916C15.3712 39.3527 19.5437 38.3202 23.7745 38.0022C28.8644 37.6178 33.1421 36.1637 35.7718 31.4496C37.4314 28.4795 40.2364 27.1075 43.4387 26.7604C53.6244 25.6534 59.5149 19.8945 62.3783 10.3468C63.2374 7.4548 64.1899 3.2863 67.3104 3.02191C71.4186 2.67075 72.1549 7.40121 73.1776 10.3176C83.7372 40.3858 101.52 65.1079 127.308 84.0461Z" fill="#6A5F4B"/>
<path id="Vector_9" d="M185.489 163.272C175.531 135.853 156.942 114.345 137.366 93.5064C134.49 90.4455 131.715 87.3095 128.886 84.1864C139.288 74.9485 146.523 64.2029 148.521 49.8962C151.724 26.9508 168.67 13.7634 185.711 0.782715C187.598 1.91889 186.734 3.85639 186.611 5.25695C185.74 14.7592 186.365 23.0217 198.485 24.9632C201.881 25.5089 203.762 28.9582 205.697 31.7803C207.771 34.8044 210.027 37.6219 213.58 39.2455C221.533 42.8974 222.906 48.0827 217.887 55.329C215.923 58.105 213.317 60.3721 210.296 61.9393C194.348 70.5074 190.322 78.6092 194.64 96.2044C200.425 119.86 193.641 141.608 185.489 163.272Z" fill="#F6BC54"/>
</g>
</svg>
