<svg width="312" height="149.18" viewBox="0 0 389 186" fill="none" xmlns="http://www.w3.org/2000/svg">
<path fill-rule="evenodd" clip-rule="evenodd" d="M79.2745 7.96721C74.0864 11.6364 71 16.6122 71 22C71 27.3878 74.0864 32.3636 79.2745 36.0328C84.46 39.7002 91.6761 42 99.6935 42H303.306C311.324 42 318.54 39.7002 323.726 36.0328C328.914 32.3636 332 27.3878 332 22C332 16.6122 328.914 11.6364 323.726 7.96721C318.54 4.29984 311.324 2 303.306 2H99.6935C91.6761 2 84.46 4.29984 79.2745 7.96721ZM78.1196 6.33431C83.681 2.40118 91.3117 0 99.6935 0H303.306C311.688 0 319.319 2.40118 324.88 6.33431C330.439 10.2657 334 15.7898 334 22C334 28.2102 330.439 33.7343 324.88 37.6657C319.319 41.5988 311.688 44 303.306 44H99.6935C91.3117 44 83.681 41.5988 78.1196 37.6657C72.5608 33.7343 69 28.2102 69 22C69 15.7898 72.5608 10.2657 78.1196 6.33431Z" fill="#F6BC54"/>
<path d="M115.977 12.6802V14.2002H133.777V12.6802H115.977ZM123.677 13.8802V29.5802H125.257V13.8802H123.677ZM124.557 18.6202C126.977 19.8602 130.097 21.7602 131.637 23.0002L132.697 21.6402C131.097 20.4402 127.937 18.6202 125.537 17.4602L124.557 18.6202Z" fill="#F6BC54"/>
<path d="M139.657 19.1002H135.777V20.5002H138.237V26.1802H139.657V19.1002ZM139.657 25.5802H138.377C137.457 26.4602 136.397 27.3602 135.537 28.0202L136.317 29.4402C137.277 28.5402 138.177 27.6802 139.037 26.8202C140.297 28.4002 142.117 29.1202 144.777 29.2202C147.057 29.3002 151.417 29.2602 153.697 29.1602C153.757 28.7402 153.997 28.0602 154.177 27.7402C151.717 27.9002 147.017 27.9602 144.757 27.8602C142.377 27.7602 140.597 27.0802 139.657 25.5802ZM135.877 12.4202C137.037 13.4202 138.337 14.8602 138.857 15.8602L140.117 15.0202C139.557 14.0002 138.217 12.6202 137.037 11.6802L135.877 12.4202ZM142.717 11.9802V13.2402H152.097V11.9802H142.717ZM144.217 15.0602V16.1602H150.477V15.0602H144.217ZM144.037 17.7802V18.8802H150.657V17.7802H144.037ZM146.597 13.6402V18.4002H147.877V13.6402H146.597ZM141.917 11.9802V17.1802C141.917 19.7402 141.757 23.2602 140.197 25.7802C140.517 25.9202 141.117 26.3002 141.377 26.5602C143.037 23.8802 143.297 19.9602 143.297 17.1802V11.9802H141.917ZM151.437 11.9802V25.1202C151.437 25.4002 151.337 25.4802 151.057 25.5002C150.797 25.5002 149.877 25.5002 148.877 25.4802C149.057 25.8402 149.257 26.4002 149.297 26.7802C150.737 26.7802 151.597 26.7602 152.117 26.5402C152.637 26.3002 152.817 25.9202 152.817 25.1402V11.9802H151.437ZM145.157 20.0002V21.0802H148.757V23.3202H145.157V24.4002H149.957V20.0002H145.157ZM144.577 20.0002V25.4202H145.777V20.0002H144.577Z" fill="#F6BC54"/>
<path d="M155.777 22.1402V23.4002H173.977V22.1402H155.777ZM156.257 12.0802V13.4002H173.477V12.0802H156.257ZM162.717 20.0402C161.477 22.0002 159.617 24.6802 158.337 26.3002L159.757 26.7802C161.037 25.1402 162.877 22.5202 164.177 20.4402L162.717 20.0402ZM168.717 22.5802C167.117 26.4802 163.197 27.9002 156.057 28.2802C156.297 28.6202 156.537 29.1602 156.637 29.6002C164.137 29.0402 168.397 27.4002 170.157 23.0002L168.717 22.5802ZM159.417 26.1002C164.497 27.0402 169.397 28.4002 172.457 29.6602L173.357 28.4402C170.257 27.2202 165.117 25.8802 160.177 25.0002L159.417 26.1002ZM161.717 12.5802V19.5602H163.137V12.5802H161.717ZM166.377 12.5802V19.5602H167.797V12.5802H166.377ZM158.657 16.3402H171.137V19.0602H158.657V16.3402ZM157.257 15.1202V20.3002H172.637V15.1202H157.257Z" fill="#F6BC54"/>
<path d="M175.657 21.8002L176.097 23.3002C178.117 22.7202 180.797 21.9002 183.317 21.1402L183.137 19.7402C180.417 20.5002 177.557 21.3202 175.657 21.8002ZM175.837 15.2402V16.6802H183.117V15.2402H175.837ZM178.837 11.2202V27.6202C178.837 27.9002 178.737 28.0002 178.457 28.0002C178.197 28.0002 177.317 28.0002 176.377 27.9802C176.577 28.3802 176.797 29.0002 176.837 29.4002C178.237 29.4002 179.057 29.3802 179.617 29.1202C180.137 28.8802 180.337 28.4802 180.337 27.6202V11.2202H178.837ZM183.217 12.9002V14.3802H194.097V12.9002H183.217ZM188.917 13.4202V27.4002C188.917 27.7602 188.797 27.8802 188.397 27.9002C187.957 27.9202 186.517 27.9202 185.037 27.8602C185.277 28.3002 185.557 29.0402 185.637 29.5002C187.537 29.5002 188.797 29.4802 189.537 29.2002C190.277 28.9402 190.517 28.4402 190.517 27.4002V13.4202H188.917Z" fill="#F6BC54"/>
<path d="M204.117 23.8802V29.6002H205.597V23.8802H204.117ZM197.397 25.2202V29.2802H198.857V26.3202H211.817V25.2202H197.397ZM211.257 25.2202V27.8402C211.257 28.0602 211.177 28.1202 210.877 28.1402C210.577 28.1602 209.617 28.1602 208.457 28.1202C208.657 28.4602 208.877 28.8802 208.957 29.2602C210.417 29.2602 211.377 29.2602 211.977 29.0802C212.557 28.8802 212.717 28.5402 212.717 27.8402V25.2202H211.257ZM205.037 13.0002V14.1602H213.837V13.0002H205.037ZM196.857 12.3002V13.1602H204.297V12.3002H196.857ZM196.557 15.9402V16.8202H204.537V15.9402H196.557ZM196.137 14.1002V15.0002H204.897V14.1002H196.137ZM205.977 15.0602C206.717 15.7602 207.497 16.7802 207.837 17.4802L208.897 16.8402C208.537 16.1602 207.717 15.1802 206.977 14.5002L205.977 15.0602ZM196.017 18.1802L196.137 19.2202C198.457 19.0202 201.757 18.7202 204.957 18.4202L204.977 17.5002C201.637 17.7802 198.257 18.0402 196.017 18.1802ZM210.257 11.2402V17.6802C210.257 17.9002 210.197 17.9802 209.917 17.9802C209.697 17.9802 208.877 17.9802 207.917 17.9802C208.117 18.2802 208.357 18.7402 208.437 19.0802C209.677 19.0802 210.457 19.0802 210.997 18.8802C211.517 18.6802 211.677 18.3802 211.677 17.7002V11.2402H210.257ZM199.817 11.2202V14.7002H201.217V11.2202H199.817ZM199.817 14.7002V18.4602H201.217V14.7002H199.817ZM199.697 22.4002H210.217V23.3202H199.697V22.4002ZM199.697 20.6202H210.217V21.5002H199.697V20.6202ZM198.337 19.6802V24.2402H211.617V19.6802H198.337ZM204.597 18.2802C204.457 18.7202 204.137 19.4202 203.917 19.9202L205.057 20.2202C205.317 19.8002 205.657 19.2202 205.997 18.6002L204.597 18.2802Z" fill="#F6BC54"/>
<path d="M222.857 14.1802V26.4802C222.857 28.6802 223.557 29.2602 225.997 29.2602C226.537 29.2602 230.537 29.2602 231.117 29.2602C233.317 29.2602 233.837 28.3802 234.097 25.6002C233.637 25.4802 232.997 25.2402 232.617 24.9602C232.477 27.2802 232.277 27.8002 231.057 27.8002C230.217 27.8002 226.737 27.8002 226.057 27.8002C224.657 27.8002 224.397 27.5602 224.397 26.5002V14.1802H222.857ZM230.097 11.3402C226.997 12.6202 221.277 13.7202 216.297 14.3802C216.497 14.7202 216.697 15.3202 216.757 15.6802C221.837 15.0402 227.637 13.9802 231.377 12.5402L230.097 11.3402ZM216.677 18.6402L216.897 20.0602L232.257 17.9202L232.037 16.5202L216.677 18.6402ZM216.057 23.2202L216.277 24.6602L233.597 22.3802L233.397 20.9802L216.057 23.2202Z" fill="#F6BC54"/>
<path d="M235.497 20.4802L235.857 21.9202C237.837 21.4802 240.577 20.8802 243.157 20.3002L243.057 18.9402C240.277 19.5402 237.397 20.1202 235.497 20.4802ZM236.077 12.4202V13.8402H242.137V12.4202H236.077ZM238.657 16.4802V27.7802C238.657 28.0202 238.597 28.1002 238.317 28.1002C238.057 28.1002 237.197 28.1002 236.237 28.0802C236.457 28.5202 236.657 29.1802 236.717 29.6002C237.957 29.6002 238.857 29.5602 239.397 29.3202C239.937 29.0602 240.097 28.6202 240.097 27.7802V16.4802H238.657ZM241.837 12.4202V12.7402C241.237 13.9602 239.997 15.7002 238.897 16.7002C239.197 16.9402 239.637 17.3802 239.857 17.6802C241.137 16.5202 242.597 14.6802 243.537 13.0202L242.497 12.3202L242.197 12.4202H241.837ZM242.817 13.9402V15.3002H253.997V13.9402H242.817ZM247.617 11.2002V14.5602H249.097V11.2002H247.617ZM247.397 14.8602C246.637 16.1002 245.297 17.8002 244.277 18.8202L245.497 19.4402C246.517 18.4402 247.797 16.9002 248.797 15.5402L247.397 14.8602ZM242.977 18.5602C244.357 19.6602 246.037 21.2602 246.837 22.2802L247.817 21.1202C247.017 20.1402 245.357 18.6602 243.897 17.5602L242.977 18.5602ZM250.757 16.9002C248.937 19.8402 245.577 22.5202 242.157 24.0202C242.497 24.3202 242.897 24.8002 243.137 25.1402C246.697 23.4802 250.057 20.6602 252.097 17.4802L250.757 16.9002ZM252.317 20.6602C250.177 24.0002 246.217 26.8202 241.997 28.3402C242.357 28.7002 242.757 29.2202 242.977 29.5802C247.317 27.8802 251.277 24.9002 253.617 21.3002L252.317 20.6602ZM248.737 25.6602C250.237 26.8602 252.117 28.5602 253.017 29.6402L254.257 28.5402C253.317 27.4802 251.397 25.8402 249.877 24.7002L248.737 25.6602Z" fill="#F6BC54"/>
<path d="M264.037 16.0002V17.3002H269.677V16.0002H264.037ZM261.777 21.9602V23.2202H271.057V21.9602H261.777ZM268.837 16.0002V19.3602C268.837 20.7202 269.197 21.0802 270.577 21.0802C270.857 21.0802 272.077 21.0802 272.377 21.0802C273.517 21.0802 273.877 20.5602 273.997 18.4802C273.617 18.3802 273.017 18.1602 272.737 17.9402C272.697 19.6002 272.617 19.8402 272.197 19.8402C271.937 19.8402 270.997 19.8402 270.777 19.8402C270.357 19.8402 270.297 19.7802 270.297 19.3602V16.0002H268.837ZM263.337 16.0002V17.8202C263.337 18.9002 262.957 19.9602 260.657 20.7602C260.937 20.9802 261.417 21.5602 261.577 21.8602C264.177 20.9002 264.737 19.3402 264.737 17.8802V16.0002H263.337ZM270.557 21.9602V22.1802C269.057 26.0002 264.777 27.7802 260.137 28.3602C260.397 28.6802 260.697 29.2402 260.817 29.6202C265.817 28.8002 270.277 26.9202 272.077 22.3202L271.137 21.9002L270.857 21.9602H270.557ZM264.277 23.1402L262.917 23.5002C264.717 27.1402 268.217 29.0002 273.417 29.6402C273.597 29.2202 273.977 28.6002 274.297 28.2802C269.297 27.8202 265.797 26.2202 264.277 23.1402ZM259.677 13.4602V14.8202H274.037V13.4602H259.677ZM258.857 13.4602V19.4202C258.857 22.3002 258.577 25.9802 256.037 28.5802C256.337 28.7802 256.897 29.3002 257.117 29.5802C259.877 26.8402 260.277 22.5402 260.277 19.4402V13.4602H258.857ZM265.077 11.2202V14.4002H266.657V11.2202H265.077ZM255.777 15.6002C256.457 16.8002 257.097 18.3802 257.317 19.3802L258.517 18.7602C258.297 17.7802 257.617 16.2402 256.897 15.0802L255.777 15.6002ZM255.477 22.9002L255.997 24.2802C257.097 23.6802 258.337 22.9402 259.537 22.2402L259.177 21.0602C257.777 21.7802 256.437 22.4802 255.477 22.9002Z" fill="#F6BC54"/>
<path d="M278.637 27.3602V28.7402H291.157V27.3602H278.637ZM278.637 22.5402V23.9002H291.157V22.5402H278.637ZM284.057 18.5802V28.4202H285.517V18.5802H284.057ZM277.917 17.9802V29.6002H279.357V19.3402H290.397V29.6002H291.897V17.9802H277.917ZM275.977 13.5002V14.9002H293.737V13.5002H275.977ZM280.617 11.2202V17.1802H282.097V11.2202H280.617ZM287.557 11.2202V17.1802H289.037V11.2202H287.557Z" fill="#F6BC54"/>
<path fill-rule="evenodd" clip-rule="evenodd" d="M131.369 78.9703C126.119 82.6416 123 87.6174 123 93C123 98.3826 126.119 103.358 131.369 107.03C136.617 110.699 143.919 113 152.032 113H357.968C366.081 113 373.383 110.699 378.631 107.03C383.881 103.358 387 98.3826 387 93C387 87.6174 383.881 82.6416 378.631 78.9703C373.383 75.3012 366.081 73 357.968 73H152.032C143.919 73 136.617 75.3012 131.369 78.9703ZM130.223 77.3312C135.846 73.3998 143.559 71 152.032 71H357.968C366.441 71 374.154 73.3998 379.777 77.3312C385.396 81.2604 389 86.7846 389 93C389 99.2154 385.396 104.74 379.777 108.669C374.154 112.6 366.441 115 357.968 115H152.032C143.559 115 135.846 112.6 130.223 108.669C124.604 104.74 121 99.2154 121 93C121 86.7846 124.604 81.2604 130.223 77.3312Z" fill="#F6BC54"/>
<path d="M169.777 86.9197V96.9597C169.777 99.4597 170.797 100.04 174.057 100.04C174.797 100.04 180.757 100.04 181.577 100.04C184.877 100.04 185.517 98.9597 185.917 95.2597C185.457 95.1797 184.797 94.9197 184.377 94.6397C184.117 97.8797 183.777 98.5597 181.577 98.5597C180.237 98.5597 175.017 98.5597 173.957 98.5597C171.757 98.5597 171.317 98.2597 171.317 96.9997V86.9197H169.777ZM170.617 90.1997V91.6997H182.417V90.1997H170.617ZM168.737 83.4597V84.9397H181.817V92.6797H183.357V83.4597H168.737Z" fill="#F6BC54"/>
<path d="M195.057 83.3397V84.6797H205.837V83.3397H195.057ZM195.597 93.5997V94.9397H205.337V93.5997H195.597ZM194.317 98.6997V100.04H206.097V98.6997H194.317ZM199.657 94.1197V99.5197H201.157V94.1197H199.657ZM196.977 85.2997C196.517 86.2597 195.657 87.7597 194.857 88.9797C195.897 90.3797 196.817 91.9197 197.237 92.9597L198.477 92.4397C198.057 91.5397 197.177 90.1197 196.317 88.9597C196.957 87.9397 197.757 86.6597 198.277 85.6397L196.977 85.2997ZM200.437 85.2997C199.977 86.2597 199.077 87.7597 198.217 88.9797C199.337 90.3597 200.317 91.9197 200.797 92.9597L201.997 92.4197C201.557 91.5197 200.617 90.1197 199.697 88.9597C200.377 87.9397 201.197 86.6597 201.757 85.6397L200.437 85.2997ZM203.897 85.2997C203.417 86.2597 202.477 87.7597 201.617 88.9797C202.777 90.3597 203.837 91.9197 204.337 92.9597L205.557 92.3797C205.057 91.4797 204.057 90.0797 203.097 88.9597C203.797 87.9397 204.617 86.6797 205.197 85.6597L203.897 85.2997ZM190.797 82.2197C190.277 83.5397 189.337 85.4997 188.617 86.6597L189.637 87.0997C190.417 85.9997 191.357 84.1997 192.117 82.7197L190.797 82.2197ZM193.037 84.4997C191.937 86.5997 190.057 89.5797 188.557 91.3597L189.477 91.8797C190.977 90.1397 192.917 87.2997 194.297 85.0797L193.037 84.4997ZM187.597 86.3797C188.657 87.3997 189.857 88.8197 190.357 89.7797L191.217 88.6597C190.697 87.7397 189.477 86.3997 188.397 85.4197L187.597 86.3797ZM192.257 89.0797C193.057 90.3997 193.837 92.1797 194.097 93.2997L195.277 92.7597C194.997 91.6597 194.177 89.9397 193.337 88.6197L192.257 89.0797ZM187.437 91.0597L187.597 92.3997C189.417 92.2797 191.817 92.1397 194.197 91.9797V90.7197C191.677 90.8597 189.177 90.9797 187.437 91.0597ZM192.777 93.9197C193.257 95.0797 193.677 96.5997 193.797 97.5797L194.957 97.2197C194.817 96.2397 194.397 94.7397 193.877 93.5797L192.777 93.9197ZM188.637 93.6397C188.417 95.3797 188.037 97.1797 187.397 98.3997C187.697 98.5397 188.297 98.7997 188.537 98.9597C189.177 97.6797 189.637 95.7597 189.897 93.8597L188.637 93.6397ZM190.757 91.6397V100.6H192.077V91.6397H190.757Z" fill="#F6BC54"/>
<path d="M208.057 83.1797V84.4997H214.557V83.1797H208.057ZM207.617 89.5197V90.8797H215.257V89.5197H207.617ZM210.917 90.1797V98.8197C210.917 99.0597 210.837 99.1397 210.557 99.1397C210.277 99.1597 209.337 99.1597 208.317 99.1397C208.517 99.5397 208.737 100.16 208.797 100.56C210.177 100.56 211.057 100.54 211.617 100.3C212.197 100.08 212.357 99.6397 212.357 98.8397V90.1797H210.917ZM214.097 83.1797V83.4797C213.477 84.6197 212.217 86.2397 211.117 87.1797C211.377 87.3997 211.777 87.7997 211.997 88.0597C213.257 86.9997 214.697 85.2797 215.657 83.7397L214.697 83.0997L214.417 83.1797H214.097ZM214.837 89.5197V89.7397C214.437 91.1197 213.857 92.7997 213.377 93.8197L214.537 94.1197C215.057 93.0197 215.697 91.2797 216.217 89.7197L215.277 89.4597L215.057 89.5197H214.837ZM208.617 86.6797C210.297 87.5797 212.277 88.9797 213.237 90.0197L214.097 88.9197C213.117 87.8997 211.097 86.5597 209.417 85.6797L208.617 86.6797ZM215.797 83.1397V84.4397H225.957V83.1397H215.797ZM217.957 90.5797H223.817V92.5397H217.957V90.5797ZM217.957 93.6397H223.817V95.6197H217.957V93.6397ZM217.957 87.5197H223.817V89.4597H217.957V87.5197ZM216.557 86.3597V96.7997H225.277V86.3597H216.557ZM220.097 83.7797C219.977 84.6997 219.697 86.0797 219.457 86.9797L220.777 87.2397C221.097 86.3997 221.457 85.1397 221.797 83.9797L220.097 83.7797ZM218.557 97.1597C217.697 98.0397 215.897 99.0797 214.297 99.6597C214.597 99.9197 215.077 100.38 215.297 100.68C216.897 100.08 218.777 98.9997 219.877 97.9397L218.557 97.1597ZM221.657 98.0197C222.897 98.7797 224.437 99.9197 225.177 100.66L226.377 99.7997C225.557 99.0397 224.017 97.9597 222.797 97.2597L221.657 98.0197Z" fill="#F6BC54"/>
<path d="M237.097 90.7997C238.217 92.2397 239.377 94.2197 239.817 95.4797L241.137 94.7797C240.657 93.4997 239.457 91.5797 238.317 90.1797L237.097 90.7997ZM237.217 85.8197V87.2397H244.817V85.8197H237.217ZM244.217 85.8197V86.1597C243.897 94.7997 243.557 98.1197 242.857 98.8397C242.657 99.0997 242.397 99.1397 241.997 99.1397C241.497 99.1397 240.257 99.1397 238.937 99.0197C239.197 99.4397 239.377 100.08 239.417 100.52C240.617 100.6 241.837 100.62 242.517 100.56C243.277 100.48 243.717 100.32 244.177 99.7397C244.997 98.7397 245.317 95.6197 245.657 86.5997C245.657 86.3997 245.657 85.8197 245.657 85.8197H244.217ZM237.957 82.1997C237.217 84.8597 235.937 87.4997 234.377 89.1797C234.757 89.3797 235.417 89.8197 235.717 90.0597C237.237 88.2397 238.617 85.4397 239.497 82.5397L237.957 82.1997ZM230.777 82.2197C230.257 83.5397 229.337 85.4597 228.577 86.6197L229.617 87.0597C230.397 85.9797 231.357 84.1997 232.117 82.7197L230.777 82.2197ZM233.197 84.4997C232.097 86.6197 230.197 89.6197 228.657 91.3997L229.617 91.8997C231.137 90.1797 233.097 87.2997 234.497 85.0597L233.197 84.4997ZM227.617 86.4197C228.697 87.3797 229.957 88.7597 230.497 89.6997L231.297 88.5597C230.757 87.6797 229.497 86.3597 228.377 85.4197L227.617 86.4197ZM232.557 89.1397C233.377 90.4597 234.177 92.1997 234.477 93.3197L235.677 92.7597C235.377 91.6597 234.517 89.9397 233.677 88.6597L232.557 89.1397ZM227.577 91.1597L227.697 92.4997C229.597 92.3997 232.137 92.2597 234.677 92.0997V90.8797C232.037 90.9997 229.377 91.0997 227.577 91.1597ZM233.057 93.9197C233.617 95.1597 234.157 96.7797 234.337 97.8197L235.557 97.3997C235.337 96.3597 234.777 94.7797 234.197 93.5597L233.057 93.9197ZM228.677 93.6397C228.437 95.3997 228.037 97.1797 227.377 98.3997C227.697 98.5397 228.297 98.8197 228.557 98.9797C229.197 97.6997 229.697 95.7597 229.977 93.8797L228.677 93.6397ZM230.977 91.7397V100.66H232.337V91.7397H230.977Z" fill="#F6BC54"/>
<path d="M256.117 89.0197V98.6397C256.117 98.9997 255.977 99.1197 255.537 99.1397C255.077 99.1597 253.537 99.1597 251.877 99.0997C252.117 99.5397 252.397 100.18 252.497 100.62C254.517 100.62 255.857 100.6 256.637 100.36C257.417 100.14 257.677 99.6797 257.677 98.6797V89.0197H256.117ZM248.837 83.7797V85.2397H263.277V83.7797H248.837ZM262.737 83.7797V84.1397C261.477 85.7997 258.837 88.0997 256.557 89.3597C256.877 89.5797 257.357 90.0797 257.577 90.3997C260.057 88.9997 262.877 86.6397 264.657 84.5197L263.497 83.6797L263.137 83.7797H262.737Z" fill="#F6BC54"/>
<path d="M276.097 82.1997V84.3997H277.597V82.1997H276.097ZM271.977 85.6797V87.8197H273.297V85.6797H271.977ZM278.117 85.7997V89.8197H279.517V85.7997H278.117ZM268.317 83.5997V86.5597H269.677V84.8597H284.057V86.5597H285.477V83.5997H268.317ZM268.377 87.0197V88.1197H277.017V87.0197H268.377ZM278.557 87.0797V88.1197H285.297V87.0797H278.557ZM278.957 93.4397V94.3397H284.617V93.4397H278.957ZM278.957 95.2997V96.1997H284.537V95.2997H278.957ZM278.957 97.1397V98.0397H285.157V97.1397H278.957ZM269.797 94.3997V95.3397H275.517V94.3997H269.797ZM269.797 96.5797V97.5397H275.517V96.5797H269.797ZM267.937 90.0197V91.1597H277.337V90.0197H267.937ZM269.657 88.1997C269.937 88.8597 270.197 89.7397 270.277 90.2797L271.557 89.9997C271.477 89.4597 271.177 88.5997 270.877 87.9597L269.657 88.1997ZM274.337 87.9197C274.157 88.5197 273.797 89.4397 273.517 90.0197L274.677 90.3397C274.957 89.7797 275.297 89.0197 275.637 88.2597L274.337 87.9197ZM269.157 92.1197V100.6H270.497V93.1997H275.457V92.1197H269.157ZM274.837 92.1197V99.1997C274.837 99.3997 274.777 99.4597 274.537 99.4797C274.317 99.4797 273.617 99.4797 272.817 99.4597C272.997 99.7797 273.177 100.24 273.237 100.56C274.337 100.58 275.117 100.56 275.577 100.4C276.057 100.2 276.197 99.8597 276.197 99.1797V92.1197H274.837ZM278.117 91.4797V92.4797H285.057V89.1997H278.117V90.1997H283.657V91.4797H278.117ZM278.117 91.7997V98.6197C278.117 100.16 278.657 100.52 280.477 100.52C280.877 100.52 283.697 100.52 284.097 100.52C285.517 100.52 285.937 100.04 286.097 98.3597C285.697 98.2797 285.157 98.0997 284.857 97.8797C284.797 99.1197 284.657 99.3397 283.977 99.3397C283.377 99.3397 281.057 99.3397 280.597 99.3397C279.657 99.3397 279.517 99.1997 279.517 98.6197V91.7997H278.117Z" fill="#F6BC54"/>
<path d="M297.557 82.1997C296.877 85.2397 295.697 88.1197 294.017 89.9197C294.337 90.1197 294.937 90.5597 295.177 90.7797C296.857 88.7997 298.177 85.7597 298.917 82.4797L297.557 82.1997ZM304.457 85.5597V85.9197C304.037 94.6997 303.577 97.8797 302.917 98.6397C302.677 98.8997 302.477 98.9797 302.157 98.9797C301.777 98.9797 300.957 98.9597 300.057 98.8797C300.297 99.2797 300.437 99.9197 300.477 100.36C301.357 100.42 302.237 100.44 302.757 100.36C303.377 100.3 303.757 100.12 304.157 99.5797C304.977 98.5997 305.397 95.4597 305.857 86.3397C305.877 86.1197 305.877 85.5597 305.877 85.5597H304.457ZM297.417 85.5597L296.777 86.9797H305.057V85.5597H297.417ZM299.437 85.9997C298.617 89.4997 296.697 93.3797 294.357 95.2197C294.757 95.4397 295.237 95.7997 295.537 96.0997C297.817 94.1197 299.717 90.1197 300.577 86.5797L299.437 85.9997ZM302.297 86.1197C301.337 91.4397 299.117 96.8597 295.617 99.3597C296.057 99.5797 296.597 99.9597 296.897 100.28C300.257 97.5797 302.497 92.0597 303.497 86.6797L302.297 86.1197ZM287.577 93.2997L287.977 94.7597C289.997 94.1197 292.697 93.2797 295.237 92.4797L295.037 91.1597C292.317 91.9797 289.457 92.8197 287.577 93.2997ZM291.317 82.2197V100.6H292.717V82.2197H291.317ZM288.837 83.3597C288.597 85.8197 288.197 88.3597 287.437 90.0597C287.757 90.1997 288.337 90.5397 288.577 90.7197C289.337 88.9397 289.837 86.2397 290.137 83.5797L288.837 83.3597ZM288.957 86.2997L288.717 87.7597H294.777V86.2997H288.957Z" fill="#F6BC54"/>
<path d="M308.817 84.9997V86.3597H324.917V84.9997H308.817ZM309.817 87.9797V89.2797H324.037V87.9797H309.817ZM308.017 90.9797V92.3397H325.717V90.9797H308.017ZM307.877 94.1797V95.5197H325.917V94.1797H307.877ZM316.057 85.7597V91.9597H317.597V85.7597H316.057ZM311.377 82.7197C312.097 83.4797 312.777 84.5797 313.037 85.3397L314.437 84.6997C314.117 83.9597 313.417 82.9197 312.677 82.1797L311.377 82.7197ZM320.777 82.1797C320.357 82.9397 319.617 84.0597 319.017 84.7397L320.337 85.1997C320.917 84.5397 321.677 83.5797 322.317 82.6597L320.777 82.1797ZM315.977 92.0797C315.537 96.0797 314.377 98.2997 307.617 99.2797C307.897 99.5997 308.257 100.22 308.377 100.6C315.557 99.4397 317.017 96.7597 317.557 92.0797H315.977ZM317.997 94.5797L316.617 94.8597C317.957 98.3597 320.677 100.04 325.297 100.64C325.477 100.22 325.877 99.5797 326.217 99.2597C321.837 98.8397 319.137 97.4597 317.997 94.5797Z" fill="#F6BC54"/>
<path d="M333.497 86.3797C332.357 87.8397 330.477 89.2397 328.677 90.1397C328.997 90.4197 329.537 91.0197 329.757 91.3197C331.577 90.2597 333.617 88.5997 334.937 86.8397L333.497 86.3797ZM338.597 87.2197C340.457 88.3797 342.697 90.0797 343.777 91.2397L344.897 90.2197C343.757 89.0797 341.457 87.4197 339.617 86.3597L338.597 87.2197ZM336.897 89.9797C338.757 92.2397 342.277 94.7397 345.257 96.1397C345.497 95.7197 345.857 95.1597 346.197 94.7997C343.117 93.5397 339.697 91.1597 337.557 88.5997H336.057C334.477 90.8797 331.157 93.5397 327.777 95.0797C328.077 95.3997 328.457 95.9597 328.637 96.3197C331.977 94.6997 335.257 92.1397 336.897 89.9797ZM331.357 93.8997V100.62H332.817V95.2397H340.917V100.54H342.437V93.8997H331.357ZM332.057 98.5997V99.9397H341.717V98.5997H332.057ZM336.057 82.1997V84.8197H337.597V82.1997H336.057ZM328.517 84.0597V87.6997H329.997V85.4197H343.697V87.6997H345.217V84.0597H328.517Z" fill="#F6BC54"/>
<path fill-rule="evenodd" clip-rule="evenodd" d="M10.3693 149.97C5.11884 153.642 2 158.617 2 164C2 169.383 5.11884 174.358 10.3693 178.03C15.6165 181.699 22.9189 184 31.0323 184H236.968C245.081 184 252.383 181.699 257.631 178.03C262.881 174.358 266 169.383 266 164C266 158.617 262.881 153.642 257.631 149.97C252.383 146.301 245.081 144 236.968 144H31.0323C22.9189 144 15.6165 146.301 10.3693 149.97ZM9.2232 148.331C14.8455 144.4 22.5593 142 31.0323 142H236.968C245.441 142 253.154 144.4 258.777 148.331C264.396 152.26 268 157.785 268 164C268 170.215 264.396 175.74 258.777 179.669C253.154 183.6 245.441 186 236.968 186H31.0323C22.5593 186 14.8455 183.6 9.2232 179.669C3.60411 175.74 0 170.215 0 164C0 157.785 3.60411 152.26 9.2232 148.331Z" fill="#F6BC54"/>
<path d="M55.02 155.9V157.22H71.1V155.9H55.02ZM55.98 158.98V160.26H70.1V158.98H55.98ZM57.84 169.78V171.12H71.46V169.78H57.84ZM54.1 162.08V163.42H71.86V162.08H54.1ZM59.76 164.94V166.26H70.14V164.94H59.76ZM62.2 156.56V163.02H63.74V156.56H62.2ZM63.8 165.58V170.36H65.32V165.58H63.8ZM57.74 153.78C58.38 154.58 59.04 155.64 59.3 156.38L60.66 155.76C60.36 155.06 59.7 154.02 59.04 153.26L57.74 153.78ZM66.8 153.18C66.48 153.96 65.84 155.1 65.34 155.84L66.6 156.28C67.14 155.6 67.8 154.6 68.4 153.64L66.8 153.18ZM58.36 162.64C57.66 166.1 56.16 168.9 53.76 170.58C54.14 170.82 54.76 171.34 55.02 171.62C57.44 169.72 59.1 166.72 59.92 162.88L58.36 162.64Z" fill="#F6BC54"/>
<path d="M74.38 154.62V156.14H91.6V154.62H74.38ZM84.18 160.44C86.56 162.06 89.56 164.4 90.96 165.94L92.18 164.8C90.7 163.26 87.64 161 85.3 159.48L84.18 160.44ZM83.8 155.14C81.94 158.9 78.22 162.74 73.88 164.92C74.18 165.24 74.66 165.84 74.9 166.22C79.42 163.84 83.16 159.88 85.44 155.74L83.8 155.14ZM82.16 159.14V171.58H83.78V157.54L82.16 159.14Z" fill="#F6BC54"/>
<path d="M98.02 157.62C99.52 158.36 101.34 159.54 102.2 160.38L103.26 159.4C102.36 158.56 100.52 157.44 99.02 156.74L98.02 157.62ZM107.26 154.9V155.14C105.08 159.08 99.32 161.78 94.28 162.72C94.56 163.04 94.86 163.66 95 164.04C100.28 162.88 106.2 160.08 108.8 155.42L107.82 154.82L107.56 154.9H107.26ZM100.58 154.9V156.16H107.64V154.9H100.58ZM102.06 153.18C100.68 154.86 98.04 156.74 94.44 158C94.78 158.26 95.24 158.76 95.46 159.12C99.18 157.64 101.9 155.66 103.74 153.54L102.06 153.18ZM100.58 164.96C102.16 165.82 104.06 167.16 104.96 168.1L106.14 167.14C105.18 166.18 103.26 164.92 101.68 164.1L100.58 164.96ZM110.18 161.9V162.12C108.02 167.16 101.98 169.54 95.8 170.28C96.04 170.62 96.34 171.24 96.44 171.66C102.98 170.7 109.22 168.2 111.74 162.36L110.76 161.82L110.48 161.9H110.18ZM103.68 161.9V163.18H110.58V161.9H103.68ZM105.3 160.02C103.74 161.92 100.7 164 96.46 165.32C96.78 165.6 97.22 166.14 97.4 166.48C101.78 164.94 104.94 162.76 106.96 160.4L105.3 160.02Z" fill="#F6BC54"/>
<path d="M121.22 155.9V157.28H132.26V155.9H121.22ZM125.92 153.22V156.56H127.44V153.22H125.92ZM129.26 158.48C127.54 161.42 124.36 164.18 121.16 165.74C121.52 166.04 121.94 166.52 122.18 166.88C125.5 165.14 128.68 162.26 130.6 159.06L129.26 158.48ZM130.56 162.52C128.62 166.04 124.9 168.88 120.58 170.38C120.96 170.72 121.38 171.26 121.6 171.62C126.02 169.92 129.76 166.92 131.94 163.14L130.56 162.52ZM125.62 156.82C124.96 158.08 123.74 159.82 122.8 160.9L123.96 161.42C124.94 160.36 126.14 158.78 127.1 157.36L125.62 156.82ZM121.38 160.34C122.84 161.34 124.64 162.82 125.5 163.8L126.48 162.68C125.6 161.74 123.76 160.32 122.3 159.38L121.38 160.34ZM126.94 167.64C128.44 168.84 130.36 170.58 131.26 171.66L132.42 170.62C131.46 169.54 129.5 167.9 128 166.72L126.94 167.64ZM114.66 159.26V160.46H120.34V159.26H114.66ZM114.74 153.92V155.12H120.26V153.92H114.74ZM114.66 161.94V163.14H120.34V161.94H114.66ZM113.76 156.54V157.78H120.86V156.54H113.76ZM115.32 164.64V165.88H119.04V169.22H115.32V170.48H120.34V164.64H115.32ZM114.64 164.64V171.4H115.92V164.64H114.64Z" fill="#F6BC54"/>
<path d="M145.92 155.32H149.36V157.4H145.92V155.32ZM141.26 155.32H144.62V157.4H141.26V155.32ZM136.72 155.32H139.98V157.4H136.72V155.32ZM135.32 154.14V158.6H150.82V154.14H135.32ZM138 163.3H148.12V164.78H138V163.3ZM138 165.8H148.12V167.32H138V165.8ZM138 160.8H148.12V162.3H138V160.8ZM136.5 159.74V168.38H149.68V159.74H136.5ZM144.66 169.4C146.94 170.12 149.2 171 150.52 171.64L152.1 170.84C150.58 170.16 148.1 169.26 145.84 168.6L144.66 169.4ZM139.96 168.56C138.5 169.36 136.08 170.1 133.98 170.54C134.32 170.8 134.86 171.36 135.1 171.66C137.12 171.12 139.68 170.18 141.32 169.18L139.96 168.56Z" fill="#F6BC54"/>
<path d="M162.28 154.18V155.54H170.84V154.18H162.28ZM162.4 157.32V158.56H168.7V157.32H162.4ZM162.86 160.32V168.3H164.12V160.32H162.86ZM163.68 160.32V161.58H166.94V165.4H163.68V166.68H168.16V160.32H163.68ZM170.12 154.18V169.66C170.12 170.02 169.96 170.14 169.62 170.16C169.26 170.16 168.06 170.18 166.66 170.14C166.9 170.54 167.16 171.22 167.26 171.62C169.06 171.62 170.02 171.58 170.66 171.34C171.32 171.08 171.56 170.58 171.56 169.66V154.18H170.12ZM157.88 156.6V159.08H159.16V156.6H157.88ZM155.14 158.48V169.7H156.5V158.48H155.14ZM155.96 161.2V162.26H160.72V161.2H155.96ZM153.8 169.44L154.24 170.84C156.06 170.34 158.46 169.68 160.72 169L160.56 167.76C158.08 168.4 155.52 169.04 153.8 169.44ZM158.6 166.24C159.64 167.66 160.68 169.58 161.06 170.82L162.36 170.22C161.94 168.98 160.86 167.1 159.8 165.7L158.6 166.24ZM156.02 158.48V159.64H160.16V163.86H156.02V165H161.52V158.48H156.02ZM157.48 153.22C156.74 154.86 155.36 156.94 153.38 158.46C153.7 158.66 154.16 159.1 154.4 159.4C156.52 157.66 157.9 155.5 158.74 153.94V153.54H158.28V153.22H157.48ZM157.86 153.22V154.24H158.14C159.36 155.2 160.72 156.8 161.38 157.8L162.36 156.7C161.66 155.7 160.18 154.22 158.94 153.22H157.86Z" fill="#F6BC54"/>
<path d="M177.16 153.28V171.58H178.56V153.28H177.16ZM173.94 159.92V161.34H181.84V159.92H173.94ZM176.94 160.66C176.3 163 174.9 166.04 173.62 167.58C173.86 167.98 174.22 168.62 174.38 169.06C175.72 167.24 177.14 163.78 177.84 161.06L176.94 160.66ZM178.52 161.6L177.78 162.22C178.44 163.08 180.08 165.7 180.58 166.78L181.58 165.58C181.12 164.92 179.08 162.2 178.52 161.6ZM174.08 154.76C174.6 156.16 175.06 158.02 175.16 159.22L176.34 158.9C176.2 157.7 175.74 155.88 175.18 154.48L174.08 154.76ZM180.54 154.4C180.26 155.76 179.66 157.76 179.22 158.96L180.18 159.26C180.72 158.14 181.34 156.26 181.86 154.74L180.54 154.4ZM188.3 153.22V171.6H189.72V153.22H188.3ZM181.8 165.94L182.04 167.34L192.32 165.48L192.08 164.1L181.8 165.94ZM183.3 155.66C184.46 156.38 185.84 157.46 186.48 158.24L187.28 157.08C186.62 156.34 185.24 155.32 184.08 154.64L183.3 155.66ZM182.28 160.7C183.48 161.36 184.92 162.38 185.62 163.1L186.38 161.92C185.66 161.2 184.18 160.26 182.98 159.64L182.28 160.7Z" fill="#F6BC54"/>
<path d="M207.8 155.24H209.9V157.4H207.8V155.24ZM204.72 155.24H206.74V157.4H204.72V155.24ZM201.7 155.24H203.66V157.4H201.7V155.24ZM200.4 154.1V158.54H211.24V154.1H200.4ZM201.74 158.5C201.4 159.42 200.68 160.76 200.16 161.58L201.02 162.02C201.58 161.24 202.3 160.06 202.9 159.02L201.74 158.5ZM203.6 160.3C202.8 161.82 201.38 163.98 200.28 165.26L201.08 165.72C202.22 164.48 203.64 162.46 204.7 160.84L203.6 160.3ZM199.4 161.52C200.22 162.26 201.2 163.34 201.62 164.06L202.34 163.04C201.9 162.36 200.9 161.36 200.08 160.62L199.4 161.52ZM203.52 167.18C203.9 168.16 204.24 169.44 204.36 170.24L205.36 169.86C205.26 169.1 204.86 167.86 204.46 166.88L203.52 167.18ZM203.18 163.86C203.74 164.72 204.28 165.92 204.46 166.68L205.38 166.24C205.16 165.5 204.6 164.36 204.04 163.48L203.18 163.86ZM199.34 165.04L199.44 166.26C200.94 166.18 202.76 166.1 204.66 165.98L204.68 164.88C202.66 164.94 200.74 165 199.34 165.04ZM201.72 165.44V171.62H202.92V165.44H201.72ZM199.9 166.88C199.64 168.1 199.22 169.34 198.6 170.24C198.92 170.36 199.44 170.6 199.68 170.76C200.22 169.84 200.74 168.46 201.06 167.14L199.9 166.88ZM206.86 158.64C206.28 160.46 205.4 162.34 204.36 163.62C204.64 163.82 205.12 164.28 205.32 164.48C206.4 163.1 207.44 160.98 208.08 158.96L206.86 158.64ZM207 161.3H206.72L205.8 162.4V171.58H207V162.52H211.92V161.3H207ZM209.72 158.74C209.46 159.64 208.94 160.98 208.54 161.8L209.5 162.18C209.94 161.4 210.46 160.2 210.94 159.16L209.72 158.74ZM208.7 161.8V170.16H209.84V161.8H208.7ZM206.4 164.1V165.22H211.72V164.1H206.4ZM206.4 166.8V167.92H211.76V166.8H206.4ZM206.22 169.58V170.74H212.26V169.58H206.22ZM195.18 155.16V156.52H197.82V164.98H195.18V166.36H199.06V155.16H195.18ZM194.44 155.16V168.02H195.68V155.16H194.44Z" fill="#F6BC54"/>
</svg>
