<svg width="16" height="20" viewBox="0 0 16 20" fill="none" xmlns="http://www.w3.org/2000/svg">
<path d="M8.99476 7.75288C9.12776 7.3551 9.69005 7.3551 9.82306 7.75288L10.602 10.092C10.773 10.6086 11.0622 11.0717 11.4452 11.4576C11.8287 11.8375 12.296 12.1286 12.8102 12.3007L15.1472 13.0784C15.5456 13.209 15.5456 13.7731 15.1472 13.9037L12.809 14.6873C12.2948 14.8535 11.8275 15.1445 11.4446 15.5304C11.0616 15.9104 10.773 16.3795 10.602 16.896L9.82306 19.2292C9.79455 19.3182 9.73873 19.3954 9.66451 19.4488C9.59029 19.5022 9.50064 19.532 9.4092 19.532C9.31717 19.532 9.22749 19.5022 9.15327 19.4488C9.07905 19.3954 9.02326 19.3182 8.99476 19.2292L8.21633 16.89C8.04474 16.3795 7.75619 15.9104 7.37322 15.5304C6.99025 15.1445 6.52297 14.8535 6.00937 14.6873L3.67061 13.9037C3.58332 13.8799 3.50731 13.8206 3.45328 13.7493C3.39984 13.6721 3.37076 13.5831 3.37076 13.4941C3.37076 13.3991 3.39984 13.3099 3.45328 13.2387C3.50731 13.1615 3.58332 13.1081 3.67061 13.0784L6.00937 12.3007C6.52297 12.1286 6.99025 11.8375 7.37322 11.4576C7.75619 11.0717 8.04474 10.6086 8.21633 10.092L8.99476 7.75288ZM4.33086 1.59626C4.34808 1.54877 4.3813 1.50129 4.42642 1.47161C4.47095 1.43599 4.52439 1.41812 4.57961 1.41812C4.63483 1.41812 4.6883 1.43599 4.73283 1.47161C4.77795 1.50129 4.81117 1.54877 4.82839 1.59626L5.2957 3.00326C5.5047 3.62665 5.99454 4.11941 6.61976 4.32721L8.02278 4.79031C8.07503 4.80812 8.12074 4.8437 8.1528 4.89119C8.18546 4.93275 8.20271 4.98619 8.20271 5.03962C8.20271 5.09899 8.18546 5.15243 8.1528 5.19399C8.12074 5.24148 8.07503 5.27126 8.02278 5.28907L6.61976 5.75812C6.3116 5.85905 6.03135 6.03114 5.80157 6.26268C5.57179 6.49423 5.39842 6.77334 5.2957 7.08207L4.82839 8.48312C4.81117 8.53656 4.77795 8.58403 4.73283 8.61372C4.6883 8.64934 4.63483 8.6672 4.57961 8.6672C4.52439 8.6672 4.47095 8.64934 4.42642 8.61372C4.3813 8.58403 4.34808 8.53656 4.33086 8.48312L3.86355 7.08207C3.76083 6.77334 3.58746 6.49423 3.35768 6.26268C3.12789 6.03114 2.84765 5.85905 2.53949 5.75812L1.13647 5.28907C1.08422 5.27126 1.03851 5.24148 1.00645 5.19399C0.973789 5.15243 0.956543 5.09899 0.956543 5.03962C0.956543 4.98619 0.973789 4.93275 1.00645 4.89119C1.03851 4.8437 1.08422 4.80812 1.13647 4.79031L2.53949 4.32721C2.84765 4.22034 3.12789 4.04825 3.35768 3.82265C3.58746 3.5911 3.76083 3.31199 3.86355 3.00326L4.33086 1.59626ZM12.8654 0.331602C12.8773 0.29598 12.8999 0.266359 12.9296 0.248548C12.9592 0.224799 12.9943 0.212891 13.0311 0.212891C13.0673 0.212891 13.1029 0.224799 13.1326 0.248548C13.1623 0.266359 13.1843 0.29598 13.1961 0.331602L13.5079 1.2697C13.6468 1.68529 13.974 2.01181 14.3914 2.14837L15.3259 2.46305C15.3603 2.47492 15.3901 2.49859 15.4114 2.52827C15.4322 2.55796 15.4435 2.59368 15.4435 2.6293C15.4435 2.66492 15.4322 2.7005 15.4114 2.73018C15.3901 2.75987 15.3603 2.78368 15.3259 2.79555L14.3914 3.10429C14.1859 3.17553 13.9989 3.28823 13.8451 3.4426C13.6919 3.59696 13.5762 3.7811 13.5079 3.9889L13.1961 4.92091C13.1843 4.95653 13.1623 4.9863 13.1326 5.01005C13.1029 5.02786 13.0673 5.03962 13.0311 5.03962C12.9943 5.03962 12.9592 5.02786 12.9296 5.01005C12.8999 4.9863 12.8773 4.95653 12.8654 4.92091L12.5543 3.9889C12.4854 3.7811 12.3702 3.59696 12.2164 3.4426C12.0632 3.28823 11.8762 3.17553 11.6702 3.10429L10.7368 2.79555C10.7024 2.78368 10.6727 2.75987 10.6519 2.73018C10.6306 2.7005 10.6193 2.66492 10.6193 2.6293C10.6193 2.59368 10.6306 2.55796 10.6519 2.52827C10.6727 2.49859 10.7024 2.47492 10.7368 2.46305L11.6714 2.14837C12.0894 2.01181 12.4166 1.68529 12.5555 1.2697L12.8654 0.331602Z" fill="#B39096"/>
</svg>
