<svg width="20" height="20" viewBox="0 0 20 20" fill="none" xmlns="http://www.w3.org/2000/svg">
<path d="M4.12186 3.48089C4.12186 2.68533 4.44012 1.91347 5.00597 1.34945C5.57181 0.785437 6.33955 0.464844 7.14052 0.464844C7.94089 0.464844 8.70861 0.785437 9.27445 1.34945C9.84089 1.91347 10.1586 2.68533 10.1586 3.48089C10.1586 2.68533 10.4768 1.91347 11.0426 1.34945C11.6085 0.785437 12.3762 0.464844 13.1772 0.464844C13.9776 0.464844 14.7453 0.785437 15.3111 1.34945C15.8775 1.91347 16.1952 2.68533 16.1952 3.48089V3.49278C16.1952 3.5759 16.1952 3.81338 16.1495 4.08648H18.61C18.93 4.08648 19.237 4.21107 19.4638 4.44261C19.69 4.66822 19.8171 4.97096 19.8171 5.29156V7.70797C19.8171 8.02857 19.69 8.33726 19.4638 8.56286C19.237 8.78847 18.93 8.9132 18.61 8.9132V17.9671C18.61 18.448 18.4194 18.9111 18.0797 19.2495C17.7401 19.5879 17.2794 19.778 16.799 19.778H3.51804C3.03829 19.778 2.57753 19.5879 2.23791 19.2495C1.89828 18.9111 1.70711 18.448 1.70711 17.9671V8.9132C1.38708 8.9132 1.0801 8.78847 0.85388 8.56286C0.627068 8.33726 0.5 8.02857 0.5 7.70797V5.29156C0.5 4.97096 0.627068 4.66822 0.85388 4.44261C1.0801 4.21107 1.38708 4.08648 1.70711 4.08648H4.1676C4.13613 3.89056 4.12068 3.6887 4.12186 3.49278V3.48089ZM5.41149 4.08648H8.95145V3.48089C8.95145 3.24341 8.90455 3.01177 8.8137 2.79211C8.72227 2.57244 8.58927 2.37058 8.42065 2.20435C8.25262 2.03217 8.05311 1.90161 7.83342 1.81256C7.61373 1.71756 7.37802 1.67007 7.14052 1.67007C6.90242 1.67007 6.66669 1.71756 6.447 1.81256C6.22731 1.90161 6.0278 2.03217 5.85977 2.20435C5.69174 2.37058 5.55818 2.57244 5.46733 2.79211C5.3759 3.01177 5.32955 3.24341 5.32955 3.48089C5.32955 3.58776 5.33193 3.81329 5.38358 4.00328C5.39071 4.03296 5.40021 4.05679 5.41149 4.08648ZM11.3662 4.08648H14.9056C14.9169 4.05679 14.9264 4.03296 14.9335 4.00328C14.9857 3.81329 14.9881 3.58776 14.9881 3.48089C14.9881 2.99999 14.7969 2.54276 14.4573 2.20435C14.1177 1.86 13.6575 1.67007 13.1772 1.67007C12.6968 1.67007 12.2361 1.86 11.8964 2.20435C11.5568 2.54276 11.3662 2.99999 11.3662 3.48089V4.08648ZM1.70711 5.29156V7.70797H8.95145V5.29156H1.70711ZM11.3662 5.29156V7.70797H18.61V5.29156H11.3662ZM17.4023 8.9132H11.3662V18.5727H16.799C16.9588 18.5727 17.1125 18.5074 17.2259 18.3946C17.3388 18.2818 17.4023 18.1274 17.4023 17.9671V8.9132ZM8.95145 18.5727V8.9132H2.91479V17.9671C2.91479 18.1274 2.97831 18.2818 3.09172 18.3946C3.20453 18.5074 3.35832 18.5727 3.51804 18.5727H8.95145Z" fill="#A09BBD"/>
</svg>
