<svg width="21" height="20" viewBox="0 0 21 20" fill="none" xmlns="http://www.w3.org/2000/svg">
<path d="M16.5768 0.464844C16.6207 0.518277 16.6617 0.571716 16.7092 0.619212C17.7809 1.68788 18.8532 2.76243 19.9261 3.83109C19.9748 3.87859 20.0312 3.92026 20.0669 3.94995L19.2433 4.77513L18.877 4.35957L16.5287 6.70466L18.0392 8.20675L17.221 9.02598L16.5453 8.3314L15.0087 9.86914L10.6963 5.5648L12.2193 4.05083L11.4955 3.36204L12.3202 2.53686L13.8182 4.04489L16.1915 1.67602L15.6862 1.23669L16.5388 0.464844H16.5768Z" fill="#97BBBD"/>
<path d="M0.750488 18.9409C0.784926 18.9171 0.82412 18.8992 0.853807 18.8696C1.6239 18.0977 2.394 17.3319 3.1635 16.5601C3.18606 16.5423 3.20505 16.5125 3.2383 16.4769L2.38214 15.6636L3.61772 14.4346L6.08832 16.9043L4.87288 18.1155L4.07133 17.2844L1.56986 19.778L0.750488 18.9823V18.9409Z" fill="#97BBBD"/>
<path d="M7.84634 16.9459L3.57666 12.6832L4.91557 11.3414C5.31754 11.7451 5.74088 12.1725 6.14463 12.5822L6.96343 11.7689L5.72425 10.5399L6.58755 9.68496C6.98893 10.0887 7.41407 10.5161 7.82851 10.9316L8.60871 10.154L7.3434 8.90718L8.18474 8.06417L9.43222 9.31085C9.7089 9.03181 9.96778 8.77067 10.2314 8.50944L8.98158 7.26855L9.8443 6.40771C11.2699 7.8326 12.7062 9.26339 14.1264 10.6823L7.84634 16.9459Z" fill="#97BBBD"/>
</svg>
