<svg width="56" height="28" viewBox="0 0 56 28" fill="none" xmlns="http://www.w3.org/2000/svg">
<rect x="0.970703" y="0.835938" width="54.0483" height="27.0241" rx="5" fill="#B39096"/>
<path d="M16.0608 4.11191V18.5299C16.0608 18.8899 15.9348 19.0159 15.5568 19.0159C15.1968 19.0339 13.9008 19.0519 12.5688 18.9979C12.8028 19.3939 13.0548 20.0239 13.1268 20.4199C14.8368 20.4199 15.9528 20.3839 16.6008 20.1499C17.2488 19.9339 17.5188 19.5379 17.5188 18.5299V4.11191H16.0608ZM20.4168 8.70191C21.9468 11.2759 23.4048 14.6599 23.8368 16.7839L25.2768 16.2079C24.8088 14.0299 23.2788 10.7359 21.7128 8.19791L20.4168 8.70191ZM11.3448 8.32391C10.8948 10.7539 9.90481 13.8679 8.30281 15.7759C8.66281 15.9199 9.25681 16.2439 9.58081 16.4959C11.2188 14.4799 12.2628 11.2219 12.8568 8.57591L11.3448 8.32391ZM27.3108 5.02991C28.5888 5.56991 30.1368 6.43391 30.8928 7.09991L31.6668 5.94791C30.8928 5.29991 29.2908 4.48991 28.0308 4.02191L27.3108 5.02991ZM26.4648 9.99791C27.7248 10.5019 29.2728 11.3479 30.0108 11.9959L30.7668 10.8439C29.9748 10.2139 28.4088 9.42191 27.1668 8.95391L26.4648 9.99791ZM26.9148 19.2499L28.0128 20.2219C29.1648 18.5299 30.5148 16.2799 31.5408 14.3719L30.6048 13.4539C29.4528 15.5059 27.9408 17.8819 26.9148 19.2499ZM32.5308 5.28191V6.55991H42.6288V5.28191H32.5308ZM31.7388 18.3859V19.6639H42.8628V18.3859H31.7388ZM32.8008 11.5639V12.8599H42.3948V11.5639H32.8008ZM36.6888 5.91191V19.3219H38.0748V5.91191H36.6888Z" fill="white"/>
</svg>
