<svg width="56" height="28" viewBox="0 0 56 28" fill="none" xmlns="http://www.w3.org/2000/svg">
<rect x="0.970703" y="0.912109" width="54.0483" height="27.0241" rx="5" fill="#BECDBE"/>
<path d="M16.0608 4.18809V18.6061C16.0608 18.9661 15.9348 19.0921 15.5568 19.0921C15.1968 19.1101 13.9008 19.1281 12.5688 19.0741C12.8028 19.4701 13.0548 20.1001 13.1268 20.4961C14.8368 20.4961 15.9528 20.4601 16.6008 20.2261C17.2488 20.0101 17.5188 19.6141 17.5188 18.6061V4.18809H16.0608ZM20.4168 8.77808C21.9468 11.3521 23.4048 14.7361 23.8368 16.8601L25.2768 16.2841C24.8088 14.1061 23.2788 10.8121 21.7128 8.27409L20.4168 8.77808ZM11.3448 8.40009C10.8948 10.8301 9.90481 13.9441 8.30281 15.8521C8.66281 15.9961 9.25681 16.3201 9.58081 16.5721C11.2188 14.5561 12.2628 11.2981 12.8568 8.65209L11.3448 8.40009ZM27.3108 5.10609C28.5888 5.64609 30.1368 6.51009 30.8928 7.17609L31.6668 6.02409C30.8928 5.37608 29.2908 4.56609 28.0308 4.09809L27.3108 5.10609ZM26.4648 10.0741C27.7248 10.5781 29.2728 11.4241 30.0108 12.0721L30.7668 10.9201C29.9748 10.2901 28.4088 9.49809 27.1668 9.03008L26.4648 10.0741ZM26.9148 19.3261L28.0128 20.2981C29.1648 18.6061 30.5148 16.3561 31.5408 14.4481L30.6048 13.5301C29.4528 15.5821 27.9408 17.9581 26.9148 19.3261ZM32.5308 5.35809V6.63609H42.6288V5.35809H32.5308ZM31.7388 18.4621V19.7401H42.8628V18.4621H31.7388ZM32.8008 11.6401V12.9361H42.3948V11.6401H32.8008ZM36.6888 5.98809V19.3981H38.0748V5.98809H36.6888Z" fill="white"/>
</svg>
