<svg width="26" height="27" viewBox="0 0 26 27" fill="none" xmlns="http://www.w3.org/2000/svg">
<circle cx="12.9491" cy="13.45" r="12.9491" fill="#BECDBE"/>
<path d="M11.8718 11.8804H12.8386C13.3123 11.8804 13.7029 11.8022 14.0105 11.646C14.323 11.4849 14.5549 11.2676 14.7063 10.9941C14.8625 10.7158 14.9407 10.4033 14.9407 10.0566C14.9407 9.64648 14.8723 9.30225 14.7356 9.02393C14.5989 8.74561 14.3938 8.53564 14.1204 8.39404C13.8469 8.25244 13.5002 8.18164 13.0803 8.18164C12.6995 8.18164 12.3625 8.25732 12.0696 8.40869C11.7815 8.55518 11.5544 8.76514 11.3884 9.03857C11.2273 9.31201 11.1467 9.63428 11.1467 10.0054H9.79175C9.79175 9.46338 9.92847 8.97021 10.2019 8.52588C10.4753 8.08154 10.8586 7.72754 11.3518 7.46387C11.8499 7.2002 12.426 7.06836 13.0803 7.06836C13.7249 7.06836 14.2888 7.18311 14.7722 7.4126C15.2556 7.63721 15.6316 7.97412 15.9001 8.42334C16.1687 8.86768 16.303 9.42188 16.303 10.0859C16.303 10.3545 16.2395 10.6426 16.1125 10.9502C15.9905 11.2529 15.7976 11.5361 15.5339 11.7998C15.2751 12.0635 14.9382 12.2808 14.5232 12.4517C14.1082 12.6177 13.6101 12.7007 13.0291 12.7007H11.8718V11.8804ZM11.8718 12.9937V12.1807H13.0291C13.7078 12.1807 14.2693 12.2612 14.7136 12.4224C15.158 12.5835 15.5071 12.7983 15.761 13.0669C16.0198 13.3354 16.2004 13.6309 16.303 13.9531C16.4104 14.2705 16.4641 14.5879 16.4641 14.9053C16.4641 15.4033 16.3787 15.8452 16.2078 16.231C16.0417 16.6167 15.8049 16.9438 15.4973 17.2124C15.1946 17.481 14.8381 17.6836 14.428 17.8203C14.0178 17.957 13.571 18.0254 13.0876 18.0254C12.6238 18.0254 12.1868 17.9595 11.7766 17.8276C11.3713 17.6958 11.0125 17.5054 10.7 17.2563C10.3875 17.0024 10.1433 16.6924 9.96753 16.3262C9.79175 15.9551 9.70386 15.5327 9.70386 15.0591H11.0588C11.0588 15.4302 11.1394 15.7549 11.3005 16.0332C11.4666 16.3115 11.7009 16.5288 12.0037 16.6851C12.3113 16.8364 12.6726 16.9121 13.0876 16.9121C13.5027 16.9121 13.8591 16.8413 14.157 16.6997C14.4597 16.5532 14.6917 16.3335 14.8528 16.0405C15.0188 15.7476 15.1018 15.3789 15.1018 14.9346C15.1018 14.4902 15.009 14.1265 14.8235 13.8433C14.6379 13.5552 14.3743 13.3428 14.0325 13.2061C13.6956 13.0645 13.2976 12.9937 12.8386 12.9937H11.8718Z" fill="white"/>
</svg>
