<svg width="56" height="28" viewBox="0 0 56 28" fill="none" xmlns="http://www.w3.org/2000/svg">
<rect x="0.970703" y="0.546875" width="54.0483" height="27.0241" rx="5" fill="#A09BBD"/>
<path d="M16.0608 3.82285V18.2409C16.0608 18.6009 15.9348 18.7269 15.5568 18.7269C15.1968 18.7449 13.9008 18.7629 12.5688 18.7089C12.8028 19.1049 13.0548 19.7349 13.1268 20.1309C14.8368 20.1309 15.9528 20.0949 16.6008 19.8609C17.2488 19.6449 17.5188 19.2489 17.5188 18.2409V3.82285H16.0608ZM20.4168 8.41285C21.9468 10.9869 23.4048 14.3709 23.8368 16.4949L25.2768 15.9189C24.8088 13.7409 23.2788 10.4469 21.7128 7.90885L20.4168 8.41285ZM11.3448 8.03485C10.8948 10.4649 9.90481 13.5789 8.30281 15.4869C8.66281 15.6309 9.25681 15.9549 9.58081 16.2069C11.2188 14.1909 12.2628 10.9329 12.8568 8.28685L11.3448 8.03485ZM27.3108 4.74085C28.5888 5.28085 30.1368 6.14485 30.8928 6.81085L31.6668 5.65885C30.8928 5.01085 29.2908 4.20085 28.0308 3.73285L27.3108 4.74085ZM26.4648 9.70885C27.7248 10.2129 29.2728 11.0589 30.0108 11.7069L30.7668 10.5549C29.9748 9.92485 28.4088 9.13285 27.1668 8.66485L26.4648 9.70885ZM26.9148 18.9609L28.0128 19.9329C29.1648 18.2409 30.5148 15.9909 31.5408 14.0829L30.6048 13.1649C29.4528 15.2169 27.9408 17.5929 26.9148 18.9609ZM32.5308 4.99285V6.27085H42.6288V4.99285H32.5308ZM31.7388 18.0969V19.3749H42.8628V18.0969H31.7388ZM32.8008 11.2749V12.5709H42.3948V11.2749H32.8008ZM36.6888 5.62285V19.0329H38.0748V5.62285H36.6888Z" fill="white"/>
</svg>
