<svg width="20" height="20" viewBox="0 0 20 20" fill="none" xmlns="http://www.w3.org/2000/svg">
<path d="M16.7955 1.175L16.9754 0.990922C17.1108 0.860308 17.2717 0.747488 17.4486 0.676244C17.6256 0.605001 17.815 0.563477 18.0068 0.563477C18.1979 0.563477 18.3874 0.605001 18.5643 0.676244C18.7412 0.753425 18.9015 0.860308 19.0369 0.990922C19.1723 1.12747 19.2798 1.2878 19.3528 1.46591C19.4264 1.64402 19.4638 1.83397 19.4638 2.02395C19.4638 2.21394 19.4258 2.40388 19.3528 2.58199C19.2792 2.7601 19.1717 2.92043 19.0363 3.05698L18.8564 3.23512C19.1646 3.57946 19.3285 4.03059 19.3154 4.48774C19.3017 4.95083 19.1123 5.3902 18.7852 5.71674L6.3598 18.1428C6.28202 18.22 6.18464 18.2794 6.07836 18.3031L1.24879 19.5083C1.14785 19.538 1.04219 19.5321 0.941842 19.5083C0.841498 19.4787 0.750048 19.4252 0.676423 19.354C0.602798 19.2768 0.549369 19.1878 0.521463 19.0868C0.493557 18.9859 0.492358 18.879 0.517295 18.7781L1.72498 13.9513C1.7511 13.8444 1.80572 13.7494 1.88291 13.6722L13.524 2.02989C13.4076 1.94678 13.2657 1.91105 13.1238 1.92292C12.9819 1.9348 12.8495 1.99419 12.7485 2.09512L8.77455 6.07302C8.71814 6.12645 8.65165 6.17393 8.57802 6.20361C8.50499 6.2333 8.42603 6.25101 8.34707 6.25101C8.2675 6.25101 8.18912 6.2333 8.1155 6.20361C8.04246 6.17393 7.97536 6.12645 7.91955 6.07302C7.86314 6.01958 7.81864 5.94829 7.78836 5.87705C7.75808 5.80581 7.74263 5.72261 7.74263 5.64543C7.74263 5.56824 7.75808 5.48519 7.78836 5.41395C7.81864 5.3427 7.86314 5.27141 7.91955 5.21798L11.8965 1.24617C12.2236 0.919638 12.6636 0.729712 13.1262 0.711901C13.5887 0.700027 14.0387 0.86628 14.3837 1.175C14.715 0.878154 15.1443 0.711901 15.5896 0.711901C16.0343 0.711901 16.4636 0.878154 16.7955 1.175ZM16.0183 2.09512C15.9049 1.98232 15.7517 1.92292 15.5914 1.92292C15.4311 1.92292 15.2779 1.98232 15.1645 2.09512L2.8537 14.4025L1.931 18.0954L5.62174 17.1751L17.9331 4.86779C17.9896 4.80842 18.0341 4.74307 18.0643 4.67182C18.0946 4.59464 18.1107 4.51753 18.1107 4.44035C18.1107 4.35723 18.0946 4.27997 18.0643 4.20872C18.0341 4.13154 17.9896 4.06619 17.9331 4.01275L16.0195 2.09512H16.0183Z" fill="#BECDBE"/>
</svg>
