<svg width="20" height="17" viewBox="0 0 17 14" fill="none" xmlns="http://www.w3.org/2000/svg">
<path fill-rule="evenodd" clip-rule="evenodd" d="M0.870366 5.3602C0.927959 5.30676 0.996851 5.25928 1.07226 5.2296C1.14826 5.19398 1.22899 5.18213 1.31093 5.18213C1.39287 5.18213 1.47424 5.19398 1.54964 5.2296C1.62505 5.25928 1.6939 5.30676 1.7515 5.3602L8.78033 12.3897L15.8092 5.3602C15.9261 5.24739 16.0847 5.18213 16.2497 5.18213C16.4148 5.18213 16.5733 5.24739 16.6903 5.3602C16.8073 5.47894 16.8732 5.63924 16.8732 5.80547C16.8732 5.97171 16.8073 6.12614 16.6903 6.24488L9.2209 13.7136C9.16331 13.773 9.09442 13.8146 9.01901 13.8502C8.94301 13.8799 8.86227 13.8976 8.78033 13.8976C8.6984 13.8976 8.61766 13.8799 8.54166 13.8502C8.46625 13.8146 8.39736 13.773 8.33977 13.7136L0.870366 6.24488C0.812178 6.18551 0.766479 6.12015 0.73501 6.04297C0.703541 5.96579 0.6875 5.88265 0.6875 5.80547C0.6875 5.72235 0.703541 5.63929 0.73501 5.56805C0.766479 5.49087 0.812178 5.41957 0.870366 5.3602Z" fill="#F6BC54"/>
<path fill-rule="evenodd" clip-rule="evenodd" d="M0.870366 0.384767C0.927959 0.325397 0.996851 0.277839 1.07226 0.248154C1.14826 0.218469 1.22899 0.200684 1.31093 0.200684C1.39287 0.200684 1.47424 0.218469 1.54964 0.248154C1.62505 0.277839 1.6939 0.325397 1.7515 0.384767L8.78033 7.41423L15.8092 0.384767C15.8668 0.325397 15.9356 0.277839 16.011 0.248154C16.087 0.218469 16.1678 0.200684 16.2497 0.200684C16.3317 0.200684 16.4124 0.218469 16.4884 0.248154C16.5638 0.277839 16.6327 0.325397 16.6903 0.384767C16.7485 0.444138 16.7942 0.509425 16.8257 0.586607C16.8565 0.663789 16.8732 0.740985 16.8732 0.824104C16.8732 0.907223 16.8565 0.984347 16.8257 1.06153C16.7942 1.13871 16.7485 1.20407 16.6903 1.26344L9.2209 8.73224C9.16331 8.79161 9.09442 8.83909 9.01901 8.86878C8.94301 8.89846 8.86227 8.91632 8.78033 8.91632C8.6984 8.91632 8.61766 8.89846 8.54166 8.86878C8.46625 8.83909 8.39736 8.79161 8.33977 8.73224L0.870366 1.26344C0.812178 1.21001 0.766479 1.13871 0.73501 1.06153C0.703541 0.984347 0.6875 0.907223 0.6875 0.824104C0.6875 0.740985 0.703541 0.663789 0.73501 0.586607C0.766479 0.509425 0.812178 0.444138 0.870366 0.384767Z" fill="#F6BC54"/>
</svg>
