<svg width="57" height="48" viewBox="0 0 57 48" fill="none" xmlns="http://www.w3.org/2000/svg">
<g clip-path="url(#clip0_1176_7)">
<path d="M21.5224 47.925C20.8442 47.744 20.152 47.6053 19.4925 47.3748C12.8782 45.0792 10.7706 36.7118 15.5489 31.5847C17.5338 29.4603 19.5918 27.3943 21.6948 25.3847C25.2818 21.9581 31.3069 22.0233 34.9141 25.4967C36.9043 27.4115 38.8757 29.3523 40.7908 31.3427C43.4238 34.0738 44.2214 37.3363 43.0935 40.9445C41.9539 44.5927 39.478 46.9095 35.6769 47.709C35.541 47.7514 35.4096 47.8071 35.2846 47.8752L21.5224 47.925Z" fill="white"/>
<path d="M0.0665352 18.5364C0.254872 17.9241 0.407886 17.3024 0.63157 16.7064C1.27161 15.0653 2.4211 13.6726 3.91117 12.7331C5.40125 11.7936 7.15334 11.3568 8.91008 11.4867C12.6894 11.8024 15.8023 14.5365 16.4835 18.1428C17.3494 22.7342 14.4998 27.0897 9.93191 27.9437C5.81777 28.7185 1.18924 26.4769 0.232228 21.413C0.193421 21.273 0.141732 21.137 0.077834 21.0065L0.0665352 18.5364Z" fill="white"/>
<path d="M48.0687 27.9028C43.3331 27.92 39.7772 24.3594 39.7576 19.5932C39.7413 15.0999 43.473 11.3576 48.0039 11.3294C52.5348 11.3012 56.3737 15.0632 56.3689 19.5754C56.3555 24.3299 52.8067 27.8904 48.0687 27.9028Z" fill="white"/>
<path d="M36.4704 8.32922C36.585 12.7045 32.8984 16.5596 28.4902 16.6744C23.8161 16.7972 19.9874 13.2446 19.8343 8.6436C19.7897 7.54525 19.9661 6.44911 20.3533 5.42029C20.7404 4.39147 21.3304 3.45093 22.088 2.6545C22.8457 1.85807 23.7557 1.22198 24.7639 0.784023C25.7721 0.346061 26.8581 0.11516 27.9573 0.104996C32.7067 -0.00396347 36.3376 3.50463 36.4704 8.32922Z" fill="white"/>
</g>
<defs>
<clipPath id="clip0_1176_7">
<rect width="56.289" height="47.7963" fill="white" transform="translate(0 0.203125) rotate(-0.207626)"/>
</clipPath>
</defs>
</svg>
