<svg width="269" height="191" viewBox="0 0 269 191" fill="none" xmlns="http://www.w3.org/2000/svg">
<path fill-rule="evenodd" clip-rule="evenodd" d="M134.262 15.8927C133.668 16.0162 133.074 16.1391 132.48 16.2602V30.1938L166.502 25.4982L167.482 31.7321L132.48 36.6081V50.5347L172.558 45.3576V45.3582L173.449 51.5914L132.48 56.984V69.9369C132.48 74.6568 133.638 75.7255 139.873 75.7255H162.138C167.191 75.7255 168.313 73.7212 168.949 65.1232C168.996 64.4796 169.038 63.7992 169.085 63.0796C169.578 63.4418 170.166 63.7891 170.801 64.1127C172.363 64.9023 174.221 65.55 175.676 65.9294C174.518 78.3081 172.202 82.2265 162.405 82.2265H139.605C128.74 82.2265 125.623 79.6439 125.623 69.8478V57.8871L96.321 61.7438L95.3413 55.3318L125.623 51.4205V37.5634L99.0819 41.261L98.1022 34.9381L125.623 31.1402V17.5865C125.029 17.6957 124.435 17.8038 123.841 17.9107C115.351 19.4353 106.694 20.7206 98.4585 21.7578C98.2745 20.6553 97.7935 19.047 97.2235 17.6577C96.9622 17.0272 96.6891 16.4418 96.41 15.9692C97.0335 15.8861 97.6629 15.8018 98.2982 15.7151C120.018 12.7532 144.45 7.97147 157.863 2.43281L163.563 7.77614C162.952 8.01065 162.334 8.2422 161.699 8.47196C153.938 11.2926 144.415 13.772 134.262 15.8927ZM123.841 19.7203C115.404 21.2289 106.824 22.4988 98.6782 23.5247L96.98 23.7391L96.701 22.0506C96.4635 20.6281 95.6382 18.1701 94.8723 16.8723L93.5125 14.5568L96.1725 14.2036C118.349 11.2653 143.613 6.38865 157.18 0.786466L158.243 0.348327L166.853 8.41855L164.204 9.4385C155.928 12.6237 145.454 15.3868 134.262 17.7124V28.1497L167.987 23.495L169.524 33.246L134.262 38.1583V48.5083L174.073 43.3663L175.468 53.122L134.262 58.5461V69.9369C134.262 72.3313 134.606 72.9363 134.95 73.2117C135.164 73.381 135.568 73.584 136.393 73.7307C137.224 73.8773 138.347 73.9444 139.873 73.9444H162.138C163.403 73.9444 164.187 73.8037 164.709 73.5727C165.16 73.3732 165.517 73.0645 165.837 72.45C166.188 71.7738 166.496 70.7437 166.74 69.1437C166.983 67.5597 167.149 65.5464 167.304 62.9721L167.506 59.7026L170.142 61.6458C171.561 62.6943 174.156 63.6929 176.127 64.2059L177.588 64.5882L177.445 66.095C176.875 72.2381 175.99 76.8197 173.693 79.8072C171.234 82.996 167.494 84.0077 162.405 84.0077H139.605C134.178 84.0077 130.052 83.4009 127.368 81.051C124.601 78.6305 123.841 74.8118 123.841 69.8478V59.9176L94.8248 63.7374L93.3047 53.7988L123.841 49.8543V39.6099L97.5916 43.2671L96.0657 33.4212L123.841 29.5876V19.7203ZM179.725 41.7324L181.578 41.3809C185.134 40.7077 189.457 39.861 194.201 38.907V23.539H197.348C199.628 21.2146 201.979 18.2865 204.033 15.3459H182.712V5.46072H211.455L213.349 4.82958L220.076 9.35657L219.263 10.791C218.99 11.2677 218.711 11.7468 218.426 12.2289H234.101V0.0283203H244.254V12.2289H266.074V21.8469H242.823L242.568 22.1895C238.928 27.1475 234.439 32.6571 230.396 36.9858C232.135 38.5567 233.762 40.1116 235.181 41.5679C240.46 36.8539 245.014 31.6436 248.351 26.2528L249.158 24.9443L258.462 28.9708L257.328 30.7346C248.048 45.2056 232.812 57.9755 216.686 65.4954L215.332 66.1247L214.477 64.9082C213.456 63.4661 211.764 61.4452 210.386 60.2298L208.296 58.3834L210.849 57.2631C216.46 54.804 222.024 51.6211 227.201 47.933C224.411 45.0126 220.931 41.7389 217.547 38.8292L217.909 43.7308L216.413 44.0674C212.363 44.9776 208.225 45.899 204.176 46.7967V75.6364C204.176 77.5766 203.998 79.299 203.368 80.7429C202.703 82.2812 201.593 83.3564 200.049 84.0985L200.025 84.1104L200.002 84.121C198.529 84.7753 196.694 85.1084 194.634 85.2918C192.562 85.4776 190.11 85.5216 187.343 85.5216H185.799L185.579 83.9922C185.336 82.3109 184.505 79.5561 183.608 77.769L182.29 75.13L185.241 75.1918C189.213 75.2743 192.799 75.2796 194.201 75.2802V49.0029C194.088 49.0278 193.975 49.0522 193.862 49.0771C190.258 49.8733 186.88 50.6189 183.899 51.2821L182.207 51.6579L179.725 41.7324ZM194.201 47.1784C194.789 47.049 195.382 46.9178 195.982 46.7854V75.6364C195.982 76.7051 195.715 77.0613 194.468 77.0613C193.494 77.0613 190.62 77.0613 187.188 77.0079C186.541 76.9984 185.876 76.9865 185.205 76.9723C185.473 77.5113 185.734 78.1246 185.983 78.7688C186.624 80.4674 187.147 82.3851 187.343 83.7405C192.865 83.7405 196.873 83.5624 199.277 82.4937C201.682 81.336 202.394 79.3767 202.394 75.6364V45.3671C202.982 45.2359 203.576 45.1046 204.176 44.9722C208.1 44.1025 212.102 43.2107 216.021 42.3297L215.576 36.2739C215.285 36.3356 215 36.398 214.715 36.4597C214.412 36.5238 214.115 36.588 213.818 36.6521C210.588 37.3444 207.346 38.0271 204.176 38.6861C203.576 38.8096 202.982 38.9325 202.394 39.0548V29.6684C202.472 29.5924 202.555 29.5158 202.632 29.4386C203.143 28.9464 203.659 28.4323 204.176 27.9003C207.079 24.9098 210.054 21.3328 212.726 17.6322C213.337 16.785 213.931 15.9318 214.507 15.0769V20.0658H233.649C233.263 20.647 232.86 21.2425 232.438 21.8469C230.099 25.2002 227.243 28.8413 224.523 31.9518C224.126 32.4083 223.728 32.853 223.342 33.2834C222.873 32.9064 222.41 32.533 221.947 32.1661C221.062 31.4631 220.183 30.781 219.316 30.1291L215.219 34.5819C215.677 34.9446 216.134 35.3204 216.603 35.7057C216.787 35.8548 216.965 36.0055 217.149 36.1581C217.22 36.2175 217.292 36.2775 217.363 36.3374C221.252 39.5903 225.408 43.4654 228.656 46.8769C229.078 47.3227 229.487 47.7603 229.879 48.1878C229.398 48.544 228.917 48.8966 228.43 49.2439C223.633 52.6791 218.509 55.6844 213.331 58.0972C212.743 58.3703 212.156 58.6363 211.568 58.894C212.007 59.2841 212.476 59.743 212.939 60.2346C214.062 61.4256 215.172 62.8095 215.932 63.8811C231.215 56.7531 245.679 44.8226 254.834 31.2832C255.173 30.7815 255.505 30.2781 255.832 29.7728L249.865 27.1902C246.439 32.7236 241.79 38.0503 236.41 42.8604C235.965 43.2553 235.52 43.6471 235.068 44.0348C234.683 43.6156 234.273 43.184 233.839 42.7429C232.456 41.3287 230.871 39.813 229.173 38.2776C228.733 37.8828 228.288 37.4869 227.837 37.0909C228.24 36.6747 228.65 36.2436 229.066 35.7989C232.664 31.95 236.642 27.1214 240.056 22.589C240.24 22.3409 240.424 22.0933 240.608 21.8469C240.786 21.6082 240.964 21.3708 241.137 21.1345L238.934 20.0658H264.293V14.01H242.473V1.80943H235.882V14.01H215.213C215.599 13.4151 215.979 12.8208 216.342 12.2289C216.823 11.4512 217.28 10.6782 217.713 9.91349L213.082 6.79655L211.746 7.24183H184.493V13.5647H207.358C206.984 14.1531 206.598 14.7486 206.194 15.3459C204.271 18.195 202.038 21.0923 199.8 23.539C199.313 24.0685 198.826 24.5767 198.345 25.0588C198.262 25.1467 198.173 25.234 198.084 25.3201H195.982V40.3651C195.382 40.4862 194.789 40.6061 194.201 40.7237C190.341 41.4997 186.761 42.2026 183.662 42.7969C183.056 42.9127 182.474 43.0243 181.91 43.1312L183.513 49.5432C186.5 48.8794 189.878 48.1331 193.482 47.337C193.72 47.2841 193.957 47.2319 194.201 47.1784ZM212.916 35.0235L212.613 34.7831L219.097 27.7353L220.385 28.7066C221.288 29.3858 222.208 30.0988 223.134 30.835C225.551 28.0737 228.086 24.8748 230.259 21.8469H212.726V20.6257C209.994 24.2259 207.032 27.632 204.176 30.4242V36.867C207.055 36.268 209.988 35.6499 212.916 35.0235ZM256.17 41.6321L265.189 46.0706L264.091 47.7532C260.445 53.3607 255.951 58.6274 250.821 63.4376C256.788 68.1694 263.248 73.8565 266.781 77.8391L267.962 79.1713L259.733 86.4703L258.557 85.0591C255.262 81.0997 248.82 75.1193 242.882 70.1482C234.718 76.3726 225.491 81.5402 215.867 85.3096L214.477 85.8546L213.699 84.58C212.791 83.0933 211.093 80.8895 209.597 79.3892L207.608 77.4051L210.25 76.4546C228.769 69.7837 246.041 57.4353 255.309 42.972L256.17 41.6321ZM241.475 68.981C241.962 68.6129 242.443 68.2413 242.924 67.8661C243.387 68.2472 243.85 68.6361 244.319 69.0309C249.586 73.4581 255.232 78.6578 258.759 82.5738C259.181 83.0417 259.573 83.4911 259.929 83.9186L265.451 79.0205C265.077 78.6032 264.673 78.1656 264.239 77.7114C260.594 73.8939 254.84 68.8866 249.497 64.6595C249.016 64.2807 248.541 63.909 248.072 63.5445C248.523 63.1407 248.962 62.7341 249.402 62.3244C254.057 57.9862 258.177 53.2734 261.603 48.2768C261.942 47.7811 262.274 47.2835 262.601 46.7825L256.812 43.9327C247.591 58.3229 230.782 70.5454 212.678 77.4538C212.073 77.6853 211.461 77.9109 210.855 78.13C211.283 78.5604 211.728 79.0425 212.167 79.5477C213.355 80.9251 214.501 82.4788 215.219 83.6514C224.577 79.9865 233.537 74.9851 241.475 68.981ZM38.6798 109.952H85.9719V119.927H38.6798V109.952ZM36.5423 142.636V136.313H86.7735V142.636H73.236V179.683C73.236 183.869 72.2563 185.917 69.2282 186.985C66.2 187.965 61.1235 188.054 52.3954 188.054C52.2054 186.706 51.6888 184.902 51.0475 183.269C50.8041 182.628 50.531 182.016 50.2579 181.464C50.9288 181.482 51.5938 181.5 52.2469 181.517C57.7985 181.642 62.7207 181.63 64.1516 181.553C65.9329 181.464 66.4673 181.108 66.4673 179.594V142.636H36.5423ZM64.686 144.417H34.761V134.532H88.5547V144.417H75.0172V179.683C75.0172 181.868 74.7738 183.779 73.9366 185.341C73.0579 186.991 71.6447 188.019 69.8219 188.666L69.7982 188.672L69.7744 188.678C68.0347 189.242 65.8141 189.521 63.0413 189.663C60.2507 189.812 56.7535 189.835 52.3954 189.835H50.8516L50.6319 188.303C50.3944 186.647 49.5691 184.07 48.6666 182.26L47.3366 179.6L50.3054 179.683C56.6347 179.861 62.5307 179.861 64.0507 179.772H64.0566H64.0626C64.3357 179.76 64.5376 179.742 64.686 179.719C64.686 179.683 64.686 179.641 64.686 179.594V144.417ZM5.32286 151.449C14.14 144.843 23.2423 135.061 29.061 125.359L35.3844 127.764C35.0697 128.276 34.7491 128.789 34.4166 129.302C32.2613 132.662 29.8151 136.021 27.1907 139.269C26.6029 139.994 26.0091 140.715 25.4095 141.428V188.499H18.7298V148.781C18.136 149.387 17.5423 149.982 16.9485 150.567C14.6092 152.868 12.2579 155.004 9.96008 156.915C9.49695 157.3 9.03385 157.676 8.57667 158.042C8.30354 157.671 7.92944 157.175 7.496 156.626C6.7835 155.722 5.92851 154.675 5.12694 153.8C4.66976 153.296 4.23037 152.85 3.85631 152.521C4.34319 152.174 4.83598 151.816 5.32286 151.449ZM16.9485 153.049C14.5082 155.386 12.062 157.535 9.68698 159.433L8.23819 160.594L7.13977 159.096C6.15414 157.75 3.93945 154.963 2.6807 153.862L0.988525 152.377L2.82319 151.07C11.8957 144.615 21.5204 134.464 27.5351 124.443L28.301 123.164L38.0266 126.863L36.9044 128.696C34.1257 133.219 30.7888 137.763 27.1907 142.076V190.281H16.9485V153.049ZM24.7682 104.123L34.6541 108.104L33.241 109.963C27.1551 117.957 17.8451 126.715 9.79381 132.505L8.31538 133.567L7.2882 132.068C6.28477 130.608 4.56881 128.125 3.48819 126.882L2.17603 125.363L3.83848 124.239C11.0941 119.343 19.5669 111.471 23.9547 105.272L24.7682 104.123ZM84.1907 118.146V111.734H40.461V118.146H84.1907ZM4.83601 125.715C5.16851 126.098 5.54852 126.582 5.95227 127.112C6.54602 127.9 7.1754 128.789 7.73946 129.594C8.1254 130.14 8.46975 130.648 8.75475 131.059C9.22975 130.717 9.71071 130.366 10.1916 130.004C17.2691 124.7 25.1067 117.303 30.682 110.344C31.0738 109.855 31.4538 109.368 31.8219 108.884L25.4095 106.301C21.1641 112.292 13.3444 119.682 6.3085 124.695C5.80975 125.047 5.32289 125.388 4.83601 125.715ZM129.791 104.52H140.122V111.645H175.836V120.728H140.122V122.509H166.93V141.834H140.122V144.506H168.266V155.638H177.528V164.543H168.266V180.484H158.023V176.477H140.122V180.752C140.122 182.966 139.825 184.801 138.94 186.261C138.014 187.787 136.619 188.63 135.016 189.2L134.986 189.212L134.95 189.218C133.312 189.734 131.263 189.984 128.775 190.12C126.27 190.257 123.194 190.281 119.459 190.281H118.028L117.72 188.885C117.417 187.508 116.431 185.193 115.606 183.791L113.967 181.001L117.203 181.108C121.496 181.25 125.783 181.221 128.128 181.203C128.645 181.203 129.072 181.197 129.381 181.197C129.553 181.185 129.684 181.167 129.773 181.155C129.779 181.06 129.791 180.93 129.791 180.752V176.477H100.845V167.749H129.791V164.543H93.275V155.638H129.791V153.055H101.736V144.506H129.791V141.834H104.319V122.509H129.791V120.728H94.9673V111.645H129.791V104.52ZM131.572 113.426H96.7485V118.947H131.572V124.29H106.1V140.053H131.572V146.287H103.517V151.274H131.572V157.419H95.0563V162.762H131.572V169.531H102.627V174.696H131.572V180.752C131.572 182.355 131.038 182.889 129.434 182.978C129.132 182.978 128.698 182.984 128.158 182.984C126.193 183.002 122.814 183.025 119.204 182.942C118.521 182.93 117.833 182.913 117.144 182.889C117.447 183.405 117.767 184.029 118.076 184.7C118.682 185.994 119.222 187.443 119.459 188.499C126.941 188.499 131.572 188.41 134.422 187.52C137.183 186.54 138.341 184.937 138.341 180.752V174.696H159.805V178.703H166.484V162.762H175.747V157.419H166.484V146.287H138.341V140.053H165.148V124.29H138.341V118.947H174.055V113.426H138.341V106.301H131.572V113.426ZM131.572 135.333V128.921H112.423V135.333H131.572ZM114.205 133.552H129.791V130.702H114.205V133.552ZM138.341 151.274V157.419H159.805V151.274H138.341ZM158.023 153.055H140.122V155.638H158.023V153.055ZM138.341 162.762V169.531H159.805V162.762H138.341ZM140.122 164.543V167.749H158.023V164.543H140.122ZM138.341 128.921V135.333H158.38V128.921H138.341ZM156.598 130.702H140.122V133.552H156.598V130.702ZM188.928 108.795V136.936C188.928 151.142 188.186 170.397 181.198 184.035L180.283 185.822L182.165 186.522C182.878 186.784 183.893 187.282 184.903 187.864C185.912 188.446 186.785 189.028 187.242 189.414L188.952 190.862L189.979 188.867C195.287 178.555 197.466 165.066 198.315 152.846C198.654 153.251 198.951 153.645 199.176 153.999L200.192 155.631L201.741 154.489C204.378 152.545 207.061 149.817 209.502 146.728V155.104H203.178V190.013H213.331V186.807H247.888V189.835H258.308V155.104H249.669V144.825C252.768 148.816 256.503 152.319 260.338 154.588L261.876 155.497L262.785 153.958C263.545 152.662 265.178 150.847 266.418 149.77L268.568 147.911L265.961 146.789C261.74 144.973 257.637 141.546 254.579 137.649H264.453V129.456H249.669V126.27C253.398 125.538 256.859 124.639 259.667 123.545L262.553 122.421L257.631 118.502H265.7V108.795H188.928ZM190.709 110.576V136.936C190.709 150.565 190.05 169.305 183.567 183.239C183.317 183.785 183.056 184.32 182.783 184.848C183.258 185.026 183.822 185.276 184.41 185.572C185.259 186 186.155 186.516 186.927 187.009C187.521 187.383 188.032 187.751 188.394 188.054C188.673 187.52 188.94 186.974 189.195 186.415C194.005 176.138 195.928 162.952 196.641 151.077C196.688 150.306 196.73 149.541 196.766 148.782V148.782C197.181 149.136 197.65 149.569 198.131 150.042C198.244 150.152 198.357 150.264 198.47 150.378C198.915 150.831 199.354 151.31 199.746 151.785C200.108 152.221 200.435 152.652 200.684 153.055C201.153 152.712 201.617 152.341 202.092 151.946C204.645 149.794 207.222 146.924 209.502 143.774C210.119 142.919 210.713 142.044 211.283 141.157V154.48H216.983V142.146C217.571 142.652 218.17 143.18 218.764 143.71C220.076 144.879 221.347 146.058 222.333 147.036C222.73 147.429 223.081 147.79 223.366 148.104C223.437 148.185 223.508 148.262 223.573 148.335L227.047 143.972C226.732 143.721 226.233 143.345 225.628 142.891C223.793 141.512 220.919 139.411 218.764 137.905C218.639 137.817 218.515 137.732 218.396 137.649C217.862 137.275 217.375 136.948 216.983 136.688V135.868H227.403V131.237H216.983V124.793C217.583 124.664 218.182 124.53 218.764 124.391C220.735 123.922 222.6 123.395 224.286 122.81C224.969 122.571 225.622 122.323 226.245 122.064L221.792 118.68C220.272 119.369 218.248 119.994 215.938 120.55C214.483 120.9 212.916 121.225 211.283 121.52C210.695 121.626 210.101 121.73 209.502 121.829C206.853 122.268 204.093 122.636 201.444 122.93C200.797 123.002 200.156 123.07 199.527 123.133C199.823 123.652 200.12 124.247 200.376 124.836C200.738 125.664 201.023 126.479 201.13 127.051C203.819 126.827 206.663 126.515 209.502 126.11C210.095 126.025 210.689 125.936 211.283 125.842V131.237H199.794V135.868H209.312C208.938 136.463 208.546 137.057 208.136 137.649C205.47 141.491 202.032 145.166 198.606 147.599C198.517 147.663 198.422 147.726 198.333 147.788C197.811 148.15 197.288 148.481 196.766 148.78C196.766 148.779 196.766 148.779 196.766 148.779C196.801 148.058 196.831 147.342 196.861 146.633C196.991 143.231 197.033 139.992 197.033 137.025V116.721H263.919V110.576H190.709ZM248.012 118.502H224.5L228.027 121.179L230.2 121.001C236.197 120.511 242.835 119.649 248.012 118.502ZM228.454 123.073L226.928 123.708C224.583 124.685 221.786 125.519 218.764 126.22V129.456H240.317V127.731C237.461 128.082 234.641 128.354 231.993 128.56L230.491 128.676L230.128 127.216C229.879 126.211 229.303 124.529 228.804 123.674L228.454 123.073ZM240.317 125.936C240.911 125.863 241.505 125.785 242.098 125.705V131.237H230.164V135.868H238.827C238.453 136.463 238.049 137.059 237.628 137.649C234.73 141.717 230.894 145.571 227.136 148.004C226.602 148.353 226.061 148.672 225.533 148.959C225.948 149.315 226.412 149.761 226.881 150.246C227.73 151.12 228.585 152.124 229.178 152.966C229.244 153.057 229.303 153.146 229.363 153.233C229.838 152.906 230.318 152.553 230.799 152.177C234.136 149.564 237.533 145.837 240.317 141.795C240.947 140.885 241.54 139.959 242.098 139.027V154.48H247.888V139.055C248.44 139.99 249.039 140.916 249.669 141.822C252.501 145.885 256.052 149.57 259.745 152.097C260.243 152.438 260.742 152.758 261.247 153.055C261.253 153.043 261.259 153.031 261.271 153.019C261.876 152.001 262.874 150.788 263.865 149.754C264.346 149.255 264.821 148.798 265.255 148.424C264.673 148.174 264.091 147.895 263.521 147.592C259.252 145.332 255.25 141.671 252.353 137.649C251.925 137.062 251.527 136.467 251.153 135.868H262.672V131.237H247.888V124.794C248.487 124.685 249.081 124.572 249.669 124.454C252.335 123.921 254.846 123.302 257.043 122.588C257.732 122.363 258.397 122.129 259.02 121.886L254.656 118.413C254.585 118.442 254.508 118.472 254.431 118.502C252.477 119.269 249.871 119.955 246.932 120.55C245.394 120.86 243.773 121.146 242.098 121.406C241.511 121.497 240.917 121.586 240.317 121.67C237.651 122.049 234.908 122.364 232.26 122.609C231.613 122.669 230.978 122.725 230.342 122.776C230.615 123.243 230.888 123.861 231.126 124.498C231.441 125.323 231.708 126.181 231.856 126.784C234.558 126.574 237.432 126.294 240.317 125.936ZM240.317 144.834C237.301 148.813 233.78 152.357 230.372 154.701L229.784 155.104H240.317V144.834ZM228.466 155.104L227.878 154.221C227.088 153.035 225.509 151.285 224.375 150.311L224.316 150.262L223.645 151.109L222.238 149.512C221.525 148.702 220.225 147.448 218.764 146.11V155.104H228.466ZM228.929 144.469C231.245 142.55 233.501 140.167 235.419 137.649H221.483C224.126 139.538 227.094 141.739 228.151 142.573L229.553 143.682L228.929 144.469ZM216.775 118.502H198.814V121.414L199.348 121.36C203.321 120.963 207.655 120.391 211.568 119.657C213.456 119.302 215.213 118.916 216.775 118.502ZM198.814 125.709V129.456H209.502V127.909C206.699 128.304 203.903 128.607 201.278 128.826L199.669 128.96L199.378 127.37C199.307 126.992 199.099 126.379 198.814 125.709ZM198.814 137.649C198.808 140.042 198.773 142.615 198.689 145.31C201.254 143.278 203.808 140.55 205.945 137.649H198.814ZM249.669 185.026V188.054H256.527V156.885H204.959V188.232H211.55V185.026H249.669ZM211.55 180.039H249.669V173.004H211.55V180.039ZM213.331 174.785V178.258H247.888V174.785H213.331ZM249.669 161.961H211.55V168.462H249.669V161.961ZM247.888 166.681V163.742H213.331V166.681H247.888Z" fill="#F6BC54"/>
</svg>
