<svg width="68" height="703" viewBox="0 0 68 703" fill="none" xmlns="http://www.w3.org/2000/svg">
<path opacity="0.5" fill-rule="evenodd" clip-rule="evenodd" d="M66.9833 0.426758L0.998886 0.426758V10.8643L26.9751 10.8643L48.2418 10.2176L0.998886 29.3614L0.998886 37.1241L48.1884 56.311L26.9751 55.666L0.998886 55.666V66.1035L66.9833 66.1035V53.5287L16.5045 33.2861L66.9833 13.0011V0.426758ZM65.9833 1.42676L1.99889 1.42676V9.86426L26.9599 9.86426L53.7898 9.04848L1.99889 30.0352L1.99889 36.4512L53.7175 57.4796L26.9599 56.666L1.99889 56.666V65.1035L65.9833 65.1035V54.2051L13.8202 33.2871L65.9833 12.3252V1.42676ZM55.5403 102.744L25.6854 91.9004V113.611L55.5403 102.744ZM26.6854 112.183L52.6139 102.745L26.6854 93.3276V112.183ZM65.9833 106.456L1.99889 130.934V122.232L18.7421 116.138V89.3784L1.99889 83.2969V74.6396L65.9833 99.0293L65.9833 106.456ZM66.9833 98.3403L0.998886 73.1883V83.9976L17.7421 90.0791V115.438L0.998886 121.532V132.387L66.9833 107.144L66.9833 98.3403ZM2.31555 151.753L2.31696 151.75C3.78435 148.479 5.9096 145.637 8.68222 143.23L8.68699 143.226C11.4649 140.845 14.821 139.013 18.7357 137.719C22.6633 136.419 27.0787 135.778 31.9696 135.778H36.0126C40.9012 135.778 45.3005 136.404 49.1982 137.673L49.2026 137.675C53.1167 138.969 56.4723 140.801 59.2499 143.181C62.0544 145.559 64.1966 148.388 65.6652 151.662L65.6666 151.665C67.1347 154.968 67.8622 158.58 67.8622 162.486C67.8622 166.504 67.1367 170.162 65.6659 173.441C64.1977 176.744 62.055 179.575 59.2475 181.926C56.4677 184.307 53.1096 186.109 49.1936 187.345C45.2971 188.613 40.8993 189.238 36.0126 189.238H31.9696C27.0829 189.238 22.6722 188.628 18.7489 187.39C14.8318 186.155 11.4727 184.367 8.69184 182.014C5.91216 179.662 3.78414 176.831 2.31615 173.529L2.31555 173.527L3.22935 173.121C1.8231 169.986 1.11998 166.471 1.11998 162.574C1.11998 158.795 1.8231 155.323 3.22935 152.159C4.6356 149.024 6.67177 146.3 9.33779 143.985C12.0038 141.7 15.2411 139.928 19.0497 138.668C22.8583 137.408 27.1649 136.778 31.9696 136.778H36.0126C40.8173 136.778 45.1093 137.394 48.8886 138.624C52.6972 139.884 55.9345 141.656 58.6005 143.941C61.2958 146.227 63.3466 148.937 64.7528 152.071C66.1591 155.235 66.8622 158.707 66.8622 162.486C66.8622 166.383 66.1591 169.898 64.7528 173.033C63.3466 176.197 61.2958 178.907 58.6005 181.163C55.9345 183.448 52.6972 185.191 48.8886 186.393C45.1093 187.623 40.8173 188.238 36.0126 188.238H31.9696C27.1649 188.238 22.8583 187.638 19.0497 186.437C15.2411 185.235 12.0038 183.507 9.33779 181.251C6.67177 178.995 4.6356 176.285 3.22935 173.121M45.9472 177.693L45.9563 177.69C48.7865 176.955 51.1225 175.876 52.9907 174.474C54.858 173.074 56.26 171.369 57.2131 169.354L57.2154 169.349C58.1671 167.364 58.6552 165.084 58.6552 162.486C58.6552 159.984 58.1696 157.747 57.2167 155.758C56.2648 153.801 54.8617 152.106 52.9872 150.671C51.114 149.267 48.7726 148.159 45.9383 147.365C43.1152 146.575 39.8398 146.172 36.1005 146.172H31.9696C28.2016 146.172 24.8969 146.575 22.0439 147.365C19.2137 148.158 16.8587 149.279 14.9557 150.712C13.0786 152.176 11.6742 153.888 10.7217 155.846C9.76873 157.835 9.2831 160.071 9.2831 162.574C9.2831 165.203 9.77185 167.497 10.7229 169.481C11.6743 171.465 13.0741 173.141 14.9399 174.513L14.9419 174.514C16.8415 175.918 19.194 176.998 22.0236 177.734C24.8835 178.47 28.1954 178.845 31.9696 178.845H36.1005C39.8424 178.845 43.1209 178.456 45.9472 177.693ZM21.7743 178.702C18.8446 177.94 16.369 176.812 14.3476 175.318C12.3554 173.854 10.8466 172.052 9.82119 169.913C8.7958 167.774 8.2831 165.328 8.2831 162.574C8.2831 159.938 8.7958 157.55 9.82119 155.411C10.8466 153.302 12.3554 151.471 14.3476 149.918C16.369 148.395 18.8446 147.223 21.7743 146.402C24.7333 145.582 28.1317 145.172 31.9696 145.172H36.1005C39.9091 145.172 43.2782 145.582 46.2079 146.402C49.1376 147.223 51.5985 148.38 53.5907 149.874C55.5829 151.397 57.0917 153.214 58.1171 155.323C59.1425 157.462 59.6552 159.85 59.6552 162.486C59.6552 165.211 59.1425 167.643 58.1171 169.781C57.0917 171.949 55.5829 173.78 53.5907 175.274C51.5985 176.769 49.1376 177.896 46.2079 178.658C43.2782 179.449 39.9091 179.845 36.1005 179.845H31.9696C28.1317 179.845 24.7333 179.464 21.7743 178.702ZM23.0059 303.405L21.7747 300.373C22.7542 300.006 23.6707 299.333 24.5169 298.302L24.525 298.292C25.3757 297.282 26.223 295.827 27.0508 293.886L27.0529 293.881C27.8802 291.97 28.7312 289.522 29.6033 286.528L29.6046 286.524C30.5525 283.324 31.6073 280.425 32.771 277.829L32.7749 277.821C33.976 275.208 35.3522 272.949 36.9102 271.055C38.4855 269.14 40.3073 267.656 42.3769 266.621C44.469 265.575 46.838 265.065 49.4599 265.065C52.092 265.065 54.5425 265.608 56.7965 266.704C59.0423 267.796 60.9865 269.354 62.6264 271.365L62.6275 271.366L61.8524 271.998M64.0936 300.035C62.2772 303.404 59.8895 305.968 56.9306 307.726C54.2951 309.307 51.4937 310.177 48.5263 310.336C48.195 310.353 47.8617 310.362 47.5263 310.362L47.5263 301.925C49.9286 301.925 52.0526 301.412 53.8983 300.387C55.7733 299.361 57.2382 297.809 58.2929 295.729C59.3769 293.648 59.9188 291.012 59.9188 287.818C59.9188 284.801 59.4647 282.311 58.5565 280.348C57.6483 278.385 56.4179 276.92 54.8651 275.953C53.3124 275.016 51.5399 274.547 49.5477 274.547C48.2001 274.547 46.9696 274.825 45.8563 275.382C44.7724 275.968 43.7616 276.861 42.8241 278.062C41.8866 279.293 41.0224 280.846 40.2313 282.721C39.4403 284.625 38.6786 286.896 37.9462 289.532C36.9208 293.165 35.7782 296.3 34.5185 298.937C33.2587 301.573 31.8378 303.741 30.2558 305.44C28.703 307.169 26.9306 308.443 24.9384 309.264C22.9755 310.113 20.7489 310.538 18.2587 310.538C15.6513 310.538 13.2929 310.011 11.1835 308.956C9.07412 307.901 7.27235 306.393 5.77821 304.43C4.28407 302.467 3.12682 300.108 2.3065 297.354C1.51549 294.63 1.11998 291.583 1.11998 288.214C1.11998 285.255 1.53014 282.34 2.35045 279.469C3.17076 276.627 4.40127 274.034 6.04189 271.69C7.68252 269.376 9.704 267.516 12.1063 266.109C14.2809 264.878 16.7601 264.197 19.5438 264.067C19.8729 264.052 20.2062 264.044 20.5438 264.044V272.481C18.3466 272.481 16.4569 272.906 14.8749 273.756C13.3222 274.605 12.0331 275.763 11.0077 277.228C9.98232 278.722 9.2206 280.406 8.72255 282.281C8.2538 284.186 8.01943 286.163 8.01943 288.214C8.01943 291.173 8.42958 293.678 9.2499 295.729C10.0702 297.779 11.2421 299.332 12.7655 300.387C14.289 301.471 16.0907 302.013 18.1708 302.013C19.6649 302.013 21.8633 303.873 23.0059 303.405C24.1777 302.965 24.3524 300.079 25.2899 298.937C26.2274 297.823 27.121 296.271 27.9706 294.278C28.8202 292.315 29.6845 289.825 30.5634 286.808C31.5009 283.644 32.5409 280.787 33.6835 278.238M9.69142 282.529C9.24421 284.349 9.01943 286.243 9.01943 288.214C9.01943 291.086 9.41838 293.457 10.1784 295.357C10.94 297.261 12.0016 298.642 13.3347 299.565L13.3453 299.572C14.6805 300.522 16.2741 301.013 18.1708 301.013C19.5614 301.013 20.7466 300.795 21.7463 300.384L23.0059 303.405M9.69142 282.529C10.162 280.761 10.8767 279.186 11.8305 277.796C12.7674 276.459 13.9388 275.409 15.3521 274.635C16.7588 273.88 18.4772 273.481 20.5438 273.481H21.5438V263.044H20.5438C17.2028 263.044 14.2159 263.766 11.6136 265.239L11.6073 265.243L11.6012 265.246C9.07383 266.726 6.9472 268.684 5.22603 271.112L5.22263 271.117C3.5167 273.554 2.23949 276.247 1.38968 279.191L1.38893 279.194C0.543327 282.154 0.11998 285.161 0.11998 288.214C0.11998 291.66 0.52446 294.803 1.34613 297.633L1.34811 297.64C2.1973 300.491 3.40427 302.962 4.98248 305.035C6.56482 307.114 8.48388 308.724 10.7363 309.85C12.9987 310.982 15.5126 311.538 18.2587 311.538C20.86 311.538 23.2221 311.095 25.3273 310.185C27.4629 309.304 29.352 307.941 30.9935 306.116C32.6575 304.327 34.1295 302.07 35.4208 299.368C36.7109 296.667 37.8719 293.477 38.9086 289.804L38.9097 289.8C39.6341 287.192 40.3829 284.963 41.1537 283.107C41.9205 281.29 42.7445 279.818 43.6164 278.673C44.4829 277.564 45.3866 276.776 46.3175 276.269C47.2771 275.792 48.3481 275.547 49.5477 275.547C51.3737 275.547 52.9623 275.974 54.3426 276.806C55.6989 277.652 56.8087 278.951 57.649 280.768C58.4772 282.558 58.9188 284.892 58.9188 287.818C58.9188 290.906 58.3937 293.371 57.406 295.266L57.401 295.276C56.4288 297.194 55.1002 298.59 53.4185 299.509L53.4127 299.513C51.735 300.445 49.7824 300.925 47.5263 300.925H46.5263L46.5263 311.362H47.5263C51.0502 311.362 54.361 310.433 57.4413 308.585C60.5718 306.726 63.0793 304.022 64.9715 300.514M23.3456 359.121L23.3456 369.529L22.2375 369.408C18.0679 368.955 14.3116 367.758 10.9848 365.805C7.62673 363.833 4.96803 361.046 3.01122 357.468L3.00804 357.462C1.06297 353.85 0.11998 349.398 0.11998 344.156C0.11998 340.278 0.847786 336.721 2.31989 333.501L2.3214 333.498C3.7889 330.318 5.87008 327.58 8.5573 325.29L8.56154 325.286C11.2775 322.997 14.5134 321.24 18.2524 320.004L18.2615 320.001C22.0369 318.793 26.214 318.195 30.7831 318.195H37.1552C41.7241 318.195 45.8875 318.793 49.635 320.001L49.6397 320.003C53.4103 321.24 56.6636 323.013 59.3817 325.334L59.3866 325.338C62.1057 327.691 64.2009 330.521 65.6666 333.818C67.1373 337.127 67.8622 340.828 67.8622 344.903C67.8622 349.86 66.931 354.121 65.0161 357.642C63.114 361.139 60.4653 363.868 57.0796 365.808C53.7476 367.763 49.9022 368.957 45.5644 369.409L44.4608 369.524V359.104L45.3249 358.986C48.2268 358.588 50.6746 357.853 52.6895 356.804L52.6945 356.802C54.6959 355.774 56.2202 354.326 57.2928 352.449C58.3505 350.598 58.9188 348.106 58.9188 344.903C58.9188 342.191 58.4024 339.845 57.3998 337.839C56.3895 335.846 54.9573 334.166 53.0894 332.791C51.2132 331.44 48.9434 330.404 46.261 329.699C43.5743 328.991 40.5706 328.633 37.2431 328.633H30.7831C27.7185 328.633 24.8527 328.948 22.1823 329.572C19.524 330.223 17.2152 331.193 15.2429 332.471C13.2928 333.734 11.7654 335.332 10.6462 337.268C9.57496 339.172 9.01943 341.456 9.01943 344.156C9.01943 347.669 9.57877 350.358 10.6153 352.298C11.6623 354.258 13.1539 355.721 15.1073 356.712L15.1169 356.716C17.1386 357.769 19.5933 358.533 22.5006 358.989L23.3456 359.121ZM9.77724 336.773C10.9784 334.693 12.619 332.979 14.6991 331.632C16.7792 330.284 19.1962 329.273 21.9501 328.6C24.704 327.955 27.6483 327.633 30.7831 327.633H37.2431C40.6415 327.633 43.7323 327.999 46.5155 328.731C49.2987 329.464 51.6864 330.548 53.6786 331.983C55.6708 333.448 57.2089 335.25 58.2929 337.389C59.3769 339.557 59.9188 342.062 59.9188 344.903C59.9188 348.214 59.3329 350.895 58.161 352.945C56.9892 354.996 55.3192 356.578 53.1513 357.691C51.0126 358.805 48.4491 359.566 45.4608 359.977V368.414C45.7974 368.379 46.1308 368.339 46.4608 368.295C50.2677 367.785 53.6404 366.668 56.579 364.942C59.8017 363.097 62.3212 360.504 64.1376 357.164C65.954 353.824 66.8622 349.737 66.8622 344.903C66.8622 340.948 66.1591 337.389 64.7528 334.225C63.3466 331.061 61.3397 328.351 58.7323 326.095C56.1249 323.868 52.9901 322.154 49.328 320.953C45.6952 319.781 41.6376 319.195 37.1552 319.195H30.7831C26.3007 319.195 22.2284 319.781 18.5663 320.953C14.9335 322.154 11.8134 323.854 9.20595 326.051C6.62783 328.248 4.6356 330.87 3.22935 333.917C1.8231 336.993 1.11998 340.406 1.11998 344.156C1.11998 349.283 2.04283 353.561 3.88853 356.988C5.76353 360.416 8.29775 363.067 11.4911 364.942C14.4189 366.661 17.7037 367.777 21.3456 368.29C21.676 368.336 22.0093 368.378 22.3456 368.414L22.3456 359.977C19.3573 359.508 16.7938 358.717 14.6552 357.604C12.5165 356.52 10.8759 354.908 9.7333 352.77C8.59072 350.631 8.01943 347.76 8.01943 344.156C8.01943 341.314 8.60537 338.854 9.77724 336.773ZM31.5741 420.709L31.5741 388.453H1.99889L1.99889 379.972H65.9833L65.9833 388.453H38.4735L38.4735 420.709H65.9833V429.146H1.99889V420.709H31.5741ZM39.4735 419.709H66.9833V430.146H0.998886V419.709H30.5741L30.5741 389.453H0.998886L0.998886 378.972H66.9833L66.9833 389.453H39.4735L39.4735 419.709ZM9.89833 485.869H0.998886L0.998886 443.22H66.9833L66.9833 485.43H58.0399L58.0399 453.701H39.4735L39.4735 481.387H30.5741L30.5741 453.701H9.89833L9.89833 485.869ZM8.89833 452.701L8.89833 484.869H1.99889L1.99889 444.22H65.9833L65.9833 484.43H59.0399L59.0399 452.701H38.4735L38.4735 480.387H31.5741L31.5741 452.701H8.89833ZM1.99889 495.372H65.9833V513.478C65.9833 517.667 65.2802 521.49 63.8739 524.947C62.497 528.404 60.4901 531.378 57.8534 533.868C55.246 536.388 52.0819 538.321 48.3612 539.669C44.6698 541.017 40.5097 541.69 35.8808 541.69H32.0575C27.4286 541.69 23.2538 541.017 19.5331 539.669C15.8417 538.321 12.6923 536.373 10.0849 533.824C7.47744 531.305 5.47057 528.258 4.06432 524.684C2.68736 521.139 1.99889 517.14 1.99889 512.687V495.372ZM8.89833 503.854L8.89833 512.687C8.89833 517.257 9.85048 521.065 11.7548 524.112C13.6884 527.159 16.3837 529.444 19.8407 530.968C23.327 532.521 27.3993 533.297 32.0575 533.297H35.9686C39.6308 533.297 42.8827 532.857 45.7245 531.979C48.5956 531.1 51.0126 529.811 52.9755 528.111C54.9677 526.412 56.4765 524.332 57.5019 521.871C58.5272 519.439 59.0399 516.642 59.0399 513.478L59.0399 503.854H8.89833ZM9.89833 504.854L9.89833 512.687C9.89833 517.119 10.8212 520.731 12.6019 523.581C14.424 526.45 16.9611 528.606 20.244 530.053L20.2476 530.054C23.5809 531.539 27.5093 532.297 32.0575 532.297H35.9686C39.5528 532.297 42.7021 531.867 45.429 531.023L45.4318 531.022C48.1904 530.178 50.4787 528.95 52.321 527.355L52.3265 527.35C54.1968 525.755 55.6128 523.805 56.5788 521.486L56.5804 521.483C57.5447 519.196 58.0399 516.534 58.0399 513.478L58.0399 504.854H9.89833ZM0.998886 494.372H66.9833V513.478C66.9833 517.778 66.2615 521.729 64.8025 525.318C63.374 528.905 61.2877 531.999 58.5449 534.591C55.8279 537.215 52.5411 539.219 48.7018 540.609C44.8835 542.003 40.6053 542.69 35.8808 542.69H32.0575C27.3318 542.69 23.0392 542.002 19.1925 540.609L19.1902 540.608C15.377 539.216 12.1041 537.196 9.38794 534.541C6.67241 531.917 4.58892 528.748 3.13376 525.05L3.13216 525.046C1.70341 521.367 0.998886 517.243 0.998886 512.687V494.372ZM66.9833 590.041L66.9833 600.479H22.6972C17.744 600.479 13.5386 599.375 10.1436 597.101C6.7937 594.858 4.26984 591.871 2.58266 588.159L2.5811 588.155C0.936943 584.502 0.11998 580.537 0.11998 576.275C0.11998 571.816 0.934181 567.748 2.58112 564.088L2.58525 564.078C4.27544 560.422 6.80424 557.506 10.1597 555.351L10.1652 555.347C13.5568 553.201 17.754 552.16 22.6972 552.16H66.9833V562.554H22.6972C19.4737 562.554 16.9039 563.148 14.9291 564.269C12.9353 565.401 11.469 566.963 10.5047 568.97C9.52459 571.04 9.01943 573.467 9.01943 576.275C9.01943 579.116 9.5255 581.541 10.503 583.577L10.5052 583.582C11.4707 585.62 12.9377 587.195 14.9291 588.326C16.9039 589.446 19.4737 590.041 22.6972 590.041H66.9833ZM9.60146 568.541C10.6561 566.344 12.2675 564.63 14.4354 563.399C16.6034 562.169 19.3573 561.554 22.6972 561.554H65.9833V553.16H22.6972C17.8925 553.16 13.8935 554.171 10.7001 556.192C7.50673 558.243 5.10435 561.012 3.49303 564.498C1.911 568.014 1.11998 571.939 1.11998 576.275C1.11998 580.406 1.911 584.229 3.49303 587.745C5.10435 591.29 7.50673 594.132 10.7001 596.271C13.8935 598.409 17.8925 599.479 22.6972 599.479H65.9833L65.9833 591.041H22.6972C19.3573 591.041 16.6034 590.426 14.4354 589.195C12.2675 587.965 10.6561 586.236 9.60146 584.01C8.54677 581.812 8.01943 579.234 8.01943 576.275C8.01943 573.346 8.54677 570.768 9.60146 568.541ZM9.89833 652.598H0.998886V611.794H66.9833V622.275H9.89833L9.89833 652.598ZM8.89833 621.275L8.89833 651.598H1.99889V612.794H65.9833V621.275H8.89833ZM9.89833 702.959H0.998886L0.998886 660.31H66.9833L66.9833 702.52H58.0399L58.0399 670.791H39.4735L39.4735 698.477H30.5741L30.5741 670.791H9.89833L9.89833 702.959ZM8.89833 669.791L8.89833 701.959H1.99889L1.99889 661.31H65.9833L65.9833 701.52H59.0399L59.0399 669.791H38.4735L38.4735 697.477H31.5741L31.5741 669.791H8.89833Z" fill="#F6BC54"/>
</svg>
