<svg width="372.48" height="348.38" viewBox="0 0 435 407" fill="none" xmlns="http://www.w3.org/2000/svg">
<g clip-path="url(#clip0_399_964)">
<path d="M401.74 310.96L421.24 313.96C427.841 305.97 432.39 296.489 434.49 286.34C420.24 298.01 398.56 291.81 381.27 298.18C375.896 300.207 371.047 303.416 367.081 307.57C363.116 311.725 360.135 316.718 358.36 322.18L348.83 332.43C357.458 335.836 366.722 337.332 375.984 336.814C385.246 336.296 394.285 333.777 402.48 329.43C407.057 326.948 411.304 323.901 415.12 320.36C408.29 316.18 401.74 310.96 401.74 310.96Z" fill="#F2F2F2"/>
<path d="M394.82 279.78L413.63 273.78C415.977 263.686 415.823 253.171 413.18 243.15C405.62 259.96 383.45 264.07 370.82 277.49C366.901 281.705 363.983 286.75 362.282 292.249C360.582 297.748 360.144 303.559 361 309.25L357 322.68C366.242 321.889 375.202 319.104 383.264 314.517C391.326 309.931 398.298 303.651 403.7 296.11C406.692 291.849 409.131 287.225 410.96 282.35C403 281.53 394.82 279.78 394.82 279.78Z" fill="#F2F2F2"/>
<path d="M434.6 338.709C434.6 338.912 434.52 339.106 434.378 339.25C434.236 339.394 434.042 339.477 433.84 339.479H0.77002C0.565803 339.479 0.369928 339.398 0.225525 339.254C0.0811219 339.109 2.85024e-09 338.914 2.85024e-09 338.709C-8.71045e-06 338.609 0.0199595 338.509 0.0587769 338.416C0.0975942 338.323 0.1545 338.239 0.226135 338.168C0.29777 338.098 0.382709 338.042 0.476074 338.004C0.569439 337.967 0.669377 337.948 0.77002 337.949H433.83C433.931 337.948 434.031 337.967 434.124 338.004C434.217 338.042 434.302 338.098 434.374 338.168C434.446 338.239 434.502 338.323 434.541 338.416C434.58 338.509 434.6 338.609 434.6 338.709Z" fill="#CCCCCC"/>
<path d="M179.45 306.08C255.826 306.08 317.74 244.165 317.74 167.79C317.74 91.4145 255.826 29.5 179.45 29.5C103.075 29.5 41.1602 91.4145 41.1602 167.79C41.1602 244.165 103.075 306.08 179.45 306.08Z" fill="#E6E6E6"/>
<path d="M298.45 167.79C298.468 186.355 294.135 204.665 285.8 221.253C277.464 237.842 265.357 252.245 250.45 263.31C249.45 264.06 248.45 264.78 247.45 265.49C227.51 279.353 203.805 286.784 179.52 286.784C155.234 286.784 131.53 279.353 111.59 265.49C110.59 264.78 109.59 264.06 108.59 263.31C93.6958 252.237 81.5981 237.834 73.2634 221.252C64.9286 204.67 60.5879 186.369 60.5879 167.81C60.5879 149.251 64.9286 130.949 73.2634 114.367C81.5981 97.7853 93.6958 83.3826 108.59 72.3099C109.59 71.5633 110.59 70.8332 111.59 70.1199C131.53 56.2566 155.234 48.8262 179.52 48.8262C203.805 48.8262 227.51 56.2566 247.45 70.1199C248.45 70.8299 249.45 71.5599 250.45 72.3099C265.352 83.3704 277.455 97.7678 285.791 114.349C294.126 130.929 298.462 149.232 298.45 167.79Z" fill="white"/>
<path d="M179.45 276.49C239.483 276.49 288.15 227.823 288.15 167.79C288.15 107.756 239.483 59.0898 179.45 59.0898C119.417 59.0898 70.75 107.756 70.75 167.79C70.75 227.823 119.417 276.49 179.45 276.49Z" fill="#F6BC54"/>
<path opacity="0.2" d="M179.74 59.3906C178.093 59.3906 176.453 59.4306 174.82 59.5106C202.291 61.9276 227.817 74.696 246.227 95.2294C264.637 115.763 274.553 142.526 273.968 170.097C273.384 197.669 262.341 223.988 243.077 243.722C223.814 263.456 197.769 275.131 170.22 276.381C173.36 276.651 176.53 276.801 179.74 276.801C208.39 276.526 235.772 264.952 255.934 244.596C276.096 224.239 287.407 196.747 287.407 168.096C287.407 139.445 276.096 111.952 255.934 91.5956C235.772 71.2393 208.39 59.6654 179.74 59.3906Z" fill="black"/>
<path d="M179.78 51.3701C179.315 51.3688 178.854 51.4594 178.424 51.6369C177.994 51.8143 177.603 52.0751 177.274 52.4041C176.945 52.733 176.685 53.1238 176.507 53.5538C176.33 53.9839 176.239 54.4449 176.24 54.9102V70.3401C176.215 70.8201 176.287 71.3004 176.453 71.7515C176.62 72.2026 176.876 72.6152 177.207 72.964C177.537 73.3128 177.936 73.5906 178.377 73.7804C178.819 73.9703 179.295 74.0683 179.775 74.0683C180.256 74.0683 180.732 73.9703 181.173 73.7804C181.615 73.5906 182.013 73.3128 182.344 72.964C182.675 72.6152 182.931 72.2026 183.097 71.7515C183.263 71.3004 183.336 70.8201 183.31 70.3401V54.9102C183.312 54.4458 183.221 53.9856 183.045 53.5562C182.868 53.1267 182.608 52.7365 182.28 52.4076C181.952 52.0788 181.562 51.8178 181.134 51.6398C180.705 51.4618 180.245 51.3701 179.78 51.3701Z" fill="white"/>
<path d="M250.42 72.2501C249.42 71.5001 248.42 70.7702 247.42 70.0602C246.807 70.0232 246.195 70.1455 245.643 70.4154C245.091 70.6852 244.618 71.0934 244.27 71.6001L235.58 84.3601C235.05 85.1358 234.849 86.0905 235.023 87.0141C235.196 87.9378 235.73 88.7547 236.505 89.2851C237.281 89.8156 238.236 90.0161 239.159 89.8426C240.083 89.6692 240.9 89.1358 241.43 88.3601L250.12 75.6001C250.448 75.1118 250.647 74.549 250.699 73.9635C250.752 73.378 250.656 72.7888 250.42 72.2501Z" fill="white"/>
<path d="M289.9 130.42C289.545 129.554 288.862 128.864 288 128.501C287.138 128.137 286.167 128.13 285.3 128.48L271 134.25C270.131 134.603 269.438 135.286 269.073 136.149C268.709 137.013 268.702 137.986 269.055 138.855C269.407 139.723 270.091 140.416 270.954 140.781C271.818 141.146 272.791 141.153 273.66 140.8L287.97 135C288.825 134.639 289.506 133.958 289.866 133.102C290.227 132.247 290.239 131.284 289.9 130.42Z" fill="white"/>
<path d="M123.37 84.3802L114.68 71.6202C114.332 71.1124 113.857 70.7042 113.303 70.4359C112.749 70.1676 112.134 70.0484 111.52 70.0902C110.52 70.7902 109.52 71.5203 108.52 72.2703C108.294 72.8095 108.207 73.3968 108.266 73.9785C108.326 74.5602 108.53 75.1177 108.86 75.6002L117.55 88.3602C118.08 89.136 118.897 89.6693 119.821 89.8428C120.745 90.0162 121.699 89.8157 122.475 89.2853C123.251 88.7548 123.784 87.9379 123.958 87.0143C124.131 86.0907 123.93 85.136 123.4 84.3602L123.37 84.3802Z" fill="white"/>
<path d="M87.92 134.25L73.61 128.44C72.7442 128.108 71.7824 128.128 70.9315 128.498C70.0807 128.867 69.4087 129.555 69.0602 130.415C68.7117 131.274 68.7144 132.236 69.0678 133.094C69.4212 133.952 70.0971 134.636 70.95 135L85.26 140.801C85.6901 140.975 86.1503 141.063 86.6145 141.06C87.0787 141.057 87.5377 140.962 87.9654 140.782C88.393 140.601 88.7808 140.338 89.1068 140.008C89.4327 139.677 89.6904 139.286 89.865 138.855C90.0397 138.425 90.1279 137.965 90.1247 137.501C90.1215 137.037 90.0269 136.578 89.8463 136.15C89.6657 135.723 89.4026 135.335 89.072 135.009C88.7415 134.683 88.3501 134.425 87.92 134.25Z" fill="white"/>
<path d="M179.78 261.7C179.315 261.699 178.854 261.79 178.424 261.967C177.994 262.144 177.603 262.405 177.274 262.734C176.945 263.063 176.685 263.454 176.507 263.884C176.33 264.314 176.239 264.775 176.24 265.24V280.67C176.215 281.15 176.287 281.63 176.453 282.082C176.62 282.533 176.876 282.945 177.207 283.294C177.537 283.643 177.936 283.921 178.377 284.111C178.819 284.3 179.295 284.398 179.775 284.398C180.256 284.398 180.732 284.3 181.173 284.111C181.615 283.921 182.013 283.643 182.344 283.294C182.675 282.945 182.931 282.533 183.097 282.082C183.263 281.63 183.336 281.15 183.31 280.67V265.25C183.313 264.785 183.224 264.324 183.047 263.893C182.871 263.463 182.612 263.071 182.284 262.741C181.956 262.411 181.565 262.149 181.136 261.971C180.706 261.792 180.246 261.7 179.78 261.7Z" fill="white"/>
<path d="M250.08 259.97L241.39 247.25C240.86 246.475 240.043 245.941 239.119 245.768C238.196 245.594 237.241 245.795 236.465 246.325C235.69 246.856 235.156 247.673 234.983 248.596C234.809 249.52 235.01 250.475 235.54 251.25L244.23 264.01C244.578 264.516 245.051 264.923 245.604 265.191C246.156 265.459 246.768 265.58 247.38 265.541C248.38 264.831 249.38 264.11 250.38 263.36C250.621 262.816 250.72 262.22 250.667 261.627C250.615 261.034 250.413 260.464 250.08 259.97Z" fill="white"/>
<path d="M288 200.54L273.69 194.73C273.255 194.504 272.777 194.371 272.287 194.339C271.797 194.308 271.306 194.379 270.845 194.547C270.384 194.716 269.963 194.978 269.609 195.318C269.255 195.658 268.975 196.068 268.788 196.522C268.601 196.976 268.51 197.463 268.521 197.954C268.533 198.445 268.646 198.928 268.854 199.372C269.062 199.817 269.36 200.214 269.73 200.537C270.099 200.86 270.532 201.103 271 201.25L285.3 207.06C285.731 207.235 286.192 207.324 286.657 207.321C287.122 207.318 287.582 207.223 288.011 207.043C288.439 206.862 288.828 206.599 289.155 206.268C289.482 205.937 289.74 205.545 289.915 205.115C290.091 204.684 290.179 204.223 290.177 203.758C290.174 203.293 290.079 202.833 289.899 202.404C289.718 201.976 289.455 201.587 289.124 201.26C288.793 200.933 288.401 200.675 287.97 200.5L288 200.54Z" fill="white"/>
<path d="M122.43 246.25C122.046 245.988 121.615 245.804 121.161 245.709C120.707 245.614 120.238 245.61 119.782 245.696C119.326 245.783 118.891 245.958 118.503 246.213C118.115 246.467 117.781 246.796 117.52 247.18L108.83 259.93C108.499 260.414 108.295 260.973 108.236 261.557C108.176 262.14 108.264 262.729 108.49 263.27C109.49 264.02 110.49 264.74 111.49 265.45C112.104 265.49 112.718 265.37 113.271 265.101C113.825 264.833 114.3 264.426 114.65 263.92L123.34 251.16C123.601 250.776 123.784 250.344 123.878 249.889C123.972 249.435 123.976 248.966 123.889 248.51C123.801 248.054 123.625 247.619 123.369 247.231C123.114 246.844 122.784 246.51 122.4 246.25H122.43Z" fill="white"/>
<path d="M89.8598 196.68C89.6909 196.245 89.4376 195.848 89.1144 195.512C88.7912 195.175 88.4045 194.906 87.9768 194.72C87.5491 194.535 87.0888 194.435 86.6224 194.428C86.1561 194.421 85.6929 194.507 85.2598 194.68L70.9998 200.54C70.1469 200.904 69.471 201.589 69.1176 202.446C68.7642 203.304 68.7615 204.266 69.11 205.125C69.4586 205.985 70.1305 206.673 70.9813 207.042C71.8322 207.412 72.7939 207.432 73.6598 207.1L87.9698 201.29C88.8288 200.925 89.5092 200.237 89.8632 199.373C90.2171 198.51 90.2159 197.542 89.8598 196.68Z" fill="white"/>
<path d="M184.37 166.03C184.697 167.966 184.243 169.953 183.107 171.554C181.971 173.155 180.245 174.24 178.31 174.57L115.54 185.25C113.607 185.579 111.622 185.126 110.022 183.992C108.422 182.857 107.339 181.133 107.01 179.2C106.681 177.267 107.134 175.282 108.268 173.682C109.403 172.082 111.127 170.999 113.06 170.67L175.83 159.99C177.763 159.662 179.747 160.114 181.348 161.246C182.948 162.378 184.035 164.098 184.37 166.03Z" fill="#3F3D56"/>
<path d="M250.44 235.58C249.533 236.483 248.305 236.99 247.025 236.99C245.745 236.99 244.517 236.483 243.61 235.58L176.04 168.58C175.59 168.134 175.232 167.604 174.988 167.02C174.743 166.436 174.615 165.809 174.612 165.176C174.61 164.543 174.732 163.915 174.971 163.329C175.211 162.743 175.564 162.209 176.01 161.76C176.456 161.31 176.986 160.952 177.57 160.707C178.154 160.462 178.78 160.335 179.414 160.332C180.047 160.329 180.675 160.451 181.261 160.691C181.847 160.931 182.38 161.284 182.83 161.73L250.41 228.73C250.863 229.176 251.224 229.708 251.471 230.295C251.718 230.882 251.846 231.512 251.849 232.148C251.852 232.785 251.729 233.416 251.487 234.005C251.245 234.594 250.889 235.129 250.44 235.58Z" fill="#3F3D56"/>
<path d="M179.45 176.15C184.067 176.15 187.81 172.407 187.81 167.79C187.81 163.173 184.067 159.43 179.45 159.43C174.833 159.43 171.09 163.173 171.09 167.79C171.09 172.407 174.833 176.15 179.45 176.15Z" fill="#CCCCCC"/>
<path d="M121.86 22.7999C109.02 42.9699 89.4396 56.3699 65.2896 65.1599C64.8124 65.5182 64.2693 65.7787 63.6912 65.9269C63.1132 66.0751 62.5117 66.1079 61.921 66.0233C61.3303 65.9388 60.762 65.7386 60.2487 65.4343C59.7355 65.1301 59.2872 64.7276 58.9296 64.2499C45.8096 46.7399 48.7796 21.6998 66.0896 8.31985C74.4723 1.85123 85.0809 -1.02308 95.5825 0.329001C106.084 1.68108 115.619 7.14893 122.09 15.5299L122.41 15.9499L122.77 16.4398C123.491 17.4046 123.8 18.6158 123.629 19.808C123.458 21.0002 122.822 22.0761 121.86 22.7999Z" fill="#E6E6E6"/>
<path d="M236.5 15.9497C239.645 11.754 243.586 8.2189 248.097 5.54615C252.608 2.87339 257.602 1.11531 262.793 0.37244C267.984 -0.370429 273.27 -0.0835538 278.35 1.21656C283.43 2.51667 288.204 4.80455 292.4 7.94971L292.82 8.26978C310.13 21.6498 313.09 46.6897 299.98 64.1997C299.622 64.6774 299.174 65.08 298.661 65.3843C298.147 65.6886 297.579 65.8886 296.988 65.9731C296.398 66.0577 295.796 66.025 295.218 65.8768C294.64 65.7287 294.097 65.468 293.62 65.1097C271.2 56.5297 252.81 41.6798 237.05 22.7498C236.572 22.3922 236.17 21.944 235.865 21.4307C235.561 20.9174 235.361 20.3491 235.276 19.7584C235.192 19.1677 235.225 18.5662 235.373 17.9882C235.521 17.4101 235.781 16.867 236.14 16.3898L236.5 15.9497Z" fill="#E6E6E6"/>
<path d="M230.87 287.601C230.465 287.828 230.109 288.132 229.822 288.497C229.535 288.861 229.323 289.279 229.198 289.726C229.072 290.172 229.036 290.64 229.092 291.1C229.147 291.561 229.292 292.006 229.52 292.411L249.93 328.901C250.389 329.72 251.154 330.324 252.058 330.579C252.962 330.834 253.93 330.719 254.75 330.261C255.569 329.802 256.173 329.036 256.428 328.132C256.683 327.228 256.569 326.26 256.11 325.441L235.69 288.961C235.229 288.143 234.464 287.541 233.561 287.286C232.657 287.031 231.69 287.144 230.87 287.601Z" fill="#E6E6E6"/>
<path d="M123.22 288.96L102.8 325.44C102.341 326.259 102.227 327.228 102.482 328.132C102.737 329.036 103.34 329.801 104.16 330.26C104.979 330.719 105.948 330.833 106.852 330.578C107.756 330.323 108.521 329.719 108.98 328.9L129.39 292.41C129.847 291.592 129.961 290.625 129.706 289.723C129.451 288.821 128.848 288.057 128.03 287.6C127.212 287.142 126.245 287.029 125.343 287.284C124.441 287.539 123.677 288.142 123.22 288.96Z" fill="#E6E6E6"/>
<path d="M254.07 338.24C260.106 338.24 265 333.346 265 327.31C265 321.273 260.106 316.38 254.07 316.38C248.033 316.38 243.14 321.273 243.14 327.31C243.14 333.346 248.033 338.24 254.07 338.24Z" fill="#E6E6E6"/>
<path d="M261.79 58.4401C267.827 58.4401 272.72 53.5465 272.72 47.5101C272.72 41.4736 267.827 36.5801 261.79 36.5801C255.754 36.5801 250.86 41.4736 250.86 47.5101C250.86 53.5465 255.754 58.4401 261.79 58.4401Z" fill="#E6E6E6"/>
<path d="M178.81 32.7096C184.846 32.7096 189.74 27.8161 189.74 21.7796C189.74 15.7431 184.846 10.8496 178.81 10.8496C172.773 10.8496 167.88 15.7431 167.88 21.7796C167.88 27.8161 172.773 32.7096 178.81 32.7096Z" fill="#E6E6E6"/>
<path d="M99.6995 57.15C105.736 57.15 110.63 52.2565 110.63 46.22C110.63 40.1836 105.736 35.29 99.6995 35.29C93.6631 35.29 88.7695 40.1836 88.7695 46.22C88.7695 52.2565 93.6631 57.15 99.6995 57.15Z" fill="#E6E6E6"/>
<path d="M106.77 338.24C112.806 338.24 117.7 333.346 117.7 327.31C117.7 321.273 112.806 316.38 106.77 316.38C100.733 316.38 95.8398 321.273 95.8398 327.31C95.8398 333.346 100.733 338.24 106.77 338.24Z" fill="#E6E6E6"/>
<path d="M245.49 229.429C245.876 230.036 246.378 230.56 246.968 230.973C247.557 231.385 248.221 231.677 248.924 231.832C249.626 231.987 250.352 232.002 251.06 231.876C251.768 231.751 252.444 231.487 253.05 231.099C253.325 230.929 253.583 230.731 253.82 230.509L270.98 239.709L270.06 229.629L253.9 222.449C252.927 221.498 251.635 220.941 250.275 220.887C248.915 220.833 247.583 221.285 246.537 222.156C245.491 223.026 244.805 224.254 244.612 225.601C244.418 226.948 244.731 228.319 245.49 229.449V229.429Z" fill="#FFB7B7"/>
<path d="M258 232.95L264.73 223.67L297.12 238.98L337.43 231.42C341.026 230.744 344.743 231.522 347.766 233.585C350.788 235.647 352.869 238.825 353.55 242.42C353.702 243.251 353.779 244.095 353.78 244.94C353.783 248.6 352.333 252.112 349.75 254.704C347.166 257.297 343.66 258.759 340 258.77L293.8 258.86L258 232.95Z" fill="#3F3D56"/>
<path d="M247.63 393.26L240.83 390L250.18 361.57L260.22 366.37L247.63 393.26Z" fill="#FFB7B7"/>
<path d="M293.24 388.671L291.75 389.59C290.757 390.204 289.757 390.804 288.75 391.391L287.23 392.271L286.46 392.46L285.36 389.551L284.85 388.2L284.13 386.301L282.81 382.811L275.86 364.48L286.66 361.811L287.07 363.47L287.27 364.291L291.04 379.59L291.81 382.71V382.811L292.27 384.681L292.67 386.301L293.12 388.11L293.24 388.671Z" fill="#FFB7B7"/>
<path d="M357.66 324.25C356.97 325.35 356.28 326.44 355.57 327.53C354.236 329.53 352.903 331.53 351.57 333.53C350.764 334.276 349.875 334.927 348.92 335.47L348.79 335.54C348.089 335.928 347.343 336.23 346.57 336.44L345.72 336.65C344.72 336.89 343.72 337.09 342.72 337.27C340.95 337.59 339.2 337.81 337.46 337.95H337.04C329.872 338.327 322.686 337.752 315.67 336.24C312.08 335.56 308.41 334.75 304.62 333.9L300.88 333.07L300.58 333.01C298.793 332.61 296.96 332.22 295.08 331.84C292.72 331.36 290.29 330.89 287.76 330.44L287.94 334C288.09 336.737 288.66 339.435 289.63 342C290.71 345.16 291.57 347.66 289.76 352.86L288.89 355.38C289.343 356.63 289.499 357.968 289.346 359.288C289.193 360.609 288.736 361.876 288.01 362.99L287.83 363.26L295.08 381.6L295.55 382.79H279.55L268.38 360.39L267.85 359.32V359.26L269 316.2C269 315.82 269 315.44 269.1 315.06C269.306 313.333 269.854 311.664 270.713 310.151C271.571 308.639 272.723 307.312 274.1 306.25C275.416 305.219 276.924 304.461 278.536 304.02C280.148 303.578 281.832 303.463 283.49 303.68L287.31 304.17L295.12 305.17L300.62 305.89H300.73L316.96 307.99L318.12 303.24L318.34 303.16L325.17 300.66L348.79 292H348.85L350.41 291.43L350.59 291.73C350.65 291.82 350.7 291.91 350.75 292C352.287 294.752 353.54 297.653 354.49 300.66C356.08 305.581 357.389 310.589 358.41 315.66C358.45 315.88 358.49 316.08 358.53 316.26C358.533 316.313 358.533 316.366 358.53 316.42C359 319.059 358.698 321.778 357.66 324.25Z" fill="#2F2E41"/>
<path d="M358.66 308.4C358.58 308.08 358.49 307.746 358.39 307.4C357.592 305.018 356.667 302.682 355.62 300.4C354.44 297.8 353.029 295.01 351.339 292C350.529 290.54 349.649 288.999 348.709 287.449C348.239 286.659 347.71 285.86 347.25 285.04C347.232 284.999 347.209 284.962 347.18 284.93L347.04 284.689L323.66 287.81L314.959 288.979L314.439 293.319L314.31 294.39L313.959 297.31L313.5 301.18L300.579 299.51L287.27 297.78L280.12 296.859C278.462 296.643 276.778 296.758 275.166 297.199C273.554 297.641 272.045 298.399 270.729 299.43C269.353 300.492 268.201 301.819 267.343 303.331C266.484 304.844 265.936 306.512 265.729 308.24C265.679 308.594 265.649 308.951 265.64 309.31L258.89 325.31C254.859 334.871 252.291 344.984 251.27 355.31L246.27 371.13L246.979 371.189L257.46 372.189L260.229 372.449L266.32 363.55C267.02 362.55 267.68 361.49 268.32 360.42C269.329 358.669 270.23 356.859 271.02 355L284.2 323.62C285.2 323.8 286.199 323.96 287.199 324.12C291.819 324.873 296.256 325.486 300.51 325.959C314.34 327.499 326.309 327.62 336.969 326.31C339.969 325.95 342.86 325.47 345.65 324.87C346.65 324.66 347.65 324.43 348.65 324.18L349.349 324.01C351.414 323.474 353.312 322.431 354.87 320.974C356.428 319.517 357.597 317.694 358.27 315.67C359.085 313.332 359.221 310.811 358.66 308.4Z" fill="#2F2E41"/>
<path d="M249.81 388.61L242.45 385.08L241.29 384.53L239.45 389.06L226.58 391.89C225.942 392.028 225.365 392.366 224.934 392.855C224.502 393.345 224.239 393.96 224.183 394.61C224.127 395.261 224.281 395.912 224.623 396.468C224.964 397.024 225.475 397.456 226.08 397.7L238.66 402.83L242.66 399.24L241.66 404.06L246.4 406L251.59 389.47L249.81 388.61Z" fill="#2F2E41"/>
<path d="M295.04 381.641L295.51 382.831H295.04V381.641Z" fill="#2F2E41"/>
<path d="M292.48 383.08L284.77 385.76L283.56 386.17L285.43 390.69L278.28 401.76C277.922 402.306 277.749 402.951 277.785 403.603C277.821 404.254 278.065 404.877 278.482 405.379C278.898 405.882 279.464 406.237 280.098 406.394C280.731 406.551 281.398 406.5 282 406.25L294.55 401.05L294.86 395.68L297.56 399.8L302.28 397.8L294.35 382.41L292.48 383.08Z" fill="#2F2E41"/>
<path d="M356.73 315.641C356.274 315.64 355.825 315.53 355.42 315.321L314.72 294.051L314.25 292.121L313.36 286.031V285.971L317.23 268.131C317.16 267.981 317.01 267.731 316.84 267.441C315.11 264.511 309.84 255.601 319.89 243.331L337.51 222.791L352.63 222.141L352.81 222.361C356.853 227.437 359.579 233.433 360.746 239.816C361.914 246.2 361.486 252.772 359.5 258.951L357.93 287.391L359.62 293.131C360.603 296.508 360.438 300.117 359.15 303.391L359.54 312.691C359.562 313.068 359.508 313.445 359.382 313.801C359.256 314.157 359.06 314.485 358.805 314.764C358.551 315.043 358.244 315.269 357.901 315.428C357.559 315.587 357.188 315.677 356.81 315.691L356.73 315.641Z" fill="#3F3D56"/>
<path d="M321.43 339.1C322.68 338.359 323.585 337.152 323.947 335.745C324.309 334.337 324.098 332.843 323.36 331.59C323.197 331.314 323.01 331.053 322.8 330.811L332.58 313.98L322.48 314.551L314.74 330.44C313.777 331.385 313.194 332.65 313.102 333.996C313.009 335.342 313.414 336.674 314.238 337.742C315.063 338.809 316.25 339.537 317.576 339.787C318.901 340.038 320.272 339.793 321.43 339.1Z" fill="#FFB7B7"/>
<path d="M325.38 326.72L316.38 319.72L332.81 287.88L326.65 247.34C326.377 245.546 326.46 243.717 326.895 241.956C327.329 240.195 328.106 238.537 329.182 237.076C330.257 235.615 331.609 234.381 333.162 233.443C334.715 232.505 336.437 231.882 338.23 231.61C339.067 231.48 339.914 231.43 340.76 231.46C344.42 231.585 347.88 233.157 350.383 235.83C352.886 238.503 354.226 242.06 354.11 245.72L352.59 291.89L325.38 326.72Z" fill="#3F3D56"/>
<path d="M327.83 214.25V199.25C327.947 194.009 330.111 189.021 333.86 185.356C337.608 181.69 342.642 179.638 347.885 179.638C353.128 179.638 358.162 181.69 361.91 185.356C365.659 189.021 367.823 194.009 367.94 199.25C371.47 206.61 369.26 210.11 367.94 214.25C367.937 214.965 367.652 215.65 367.146 216.156C366.641 216.662 365.955 216.947 365.24 216.95H330.52C329.807 216.945 329.124 216.658 328.62 216.153C328.117 215.647 327.833 214.963 327.83 214.25Z" fill="#2F2E41"/>
<path d="M356.16 203.45C357.488 195.267 351.932 187.557 343.749 186.229C335.566 184.901 327.856 190.457 326.528 198.64C325.2 206.823 330.756 214.533 338.939 215.861C347.122 217.189 354.832 211.633 356.16 203.45Z" fill="#FFB7B7"/>
<path d="M357 204.899L356.589 204.829L349.589 203.579L349.38 198.289L346.55 203.029C340.1 205.169 334.06 203.959 328.38 201.289C326.507 200.4 324.691 199.398 322.939 198.289C323.418 195.362 324.544 192.579 326.236 190.143C327.929 187.707 330.143 185.68 332.719 184.209L333.349 183.869C333.709 183.699 334.089 183.529 334.459 183.379C337.376 182.242 340.555 181.955 343.627 182.551C346.7 183.148 349.541 184.603 351.819 186.749C354.128 189.102 355.812 191.996 356.717 195.166C357.621 198.336 357.719 201.682 357 204.899Z" fill="#2F2E41"/>
</g>
<defs>
<clipPath id="clip0_399_964">
<rect width="434.6" height="406.47" fill="white"/>
</clipPath>
</defs>
</svg>
