<svg width="25" height="28" viewBox="0 0 25 28" fill="none" xmlns="http://www.w3.org/2000/svg">
<g opacity="0.8">
<path fill-rule="evenodd" clip-rule="evenodd" d="M12.4093 26.9518C12.3285 26.8544 12.2643 26.7387 12.2206 26.6114C12.1768 26.484 12.1543 26.3475 12.1543 26.2096C12.1543 26.0717 12.1768 25.9351 12.2206 25.8078C12.2643 25.6804 12.3285 25.5647 12.4093 25.4674L22.2125 13.6297L12.4093 1.79209C12.2463 1.59525 12.1548 1.32826 12.1548 1.04988C12.1548 0.7715 12.2463 0.504517 12.4093 0.307671C12.5723 0.110825 12.7933 0.000238419 13.0238 0.000238419C13.2543 0.000238419 13.4754 0.110825 13.6384 0.307671L24.0544 12.8875C24.1352 12.9849 24.1994 13.1006 24.2431 13.2279C24.2869 13.3553 24.3094 13.4918 24.3094 13.6297C24.3094 13.7676 24.2869 13.9042 24.2431 14.0315C24.1994 14.1589 24.1352 14.2746 24.0544 14.3719L13.6384 26.9518C13.5578 27.0494 13.462 27.1269 13.3565 27.1797C13.2511 27.2326 13.138 27.2598 13.0238 27.2598C12.9097 27.2598 12.7966 27.2326 12.6912 27.1797C12.5857 27.1269 12.4899 27.0494 12.4093 26.9518Z" fill="#F6BC54"/>
<path fill-rule="evenodd" clip-rule="evenodd" d="M0.255008 26.9518C0.174174 26.8544 0.110041 26.7387 0.0662828 26.6114C0.0225244 26.484 0 26.3475 0 26.2096C0 26.0717 0.0225244 25.9351 0.0662828 25.8078C0.110041 25.6804 0.174174 25.5647 0.255008 25.4674L10.0582 13.6297L0.255008 1.79209C0.174305 1.69462 0.110288 1.57891 0.0666114 1.45156C0.0229352 1.32421 0.000455284 1.18772 0.000455284 1.04988C0.000455284 0.912041 0.0229352 0.775549 0.0666114 0.648199C0.110288 0.520851 0.174305 0.40514 0.255008 0.307671C0.335711 0.210201 0.43152 0.132885 0.536963 0.0801353C0.642407 0.0273857 0.755421 0.000238419 0.869552 0.000238419C0.983684 0.000238419 1.0967 0.0273857 1.20214 0.0801353C1.30758 0.132885 1.40339 0.210201 1.4841 0.307671L11.9001 12.8875C11.9809 12.9849 12.0451 13.1006 12.0888 13.2279C12.1326 13.3553 12.1551 13.4918 12.1551 13.6297C12.1551 13.7676 12.1326 13.9042 12.0888 14.0315C12.0451 14.1589 11.9809 14.2746 11.9001 14.3719L1.4841 26.9518C1.40347 27.0494 1.30768 27.1269 1.20223 27.1797C1.09677 27.2326 0.983724 27.2598 0.869552 27.2598C0.75538 27.2598 0.642329 27.2326 0.536876 27.1797C0.431422 27.1269 0.335637 27.0494 0.255008 26.9518Z" fill="#F6BC54"/>
</g>
</svg>
