<svg width="762" height="707" viewBox="0 0 762 707" fill="none" xmlns="http://www.w3.org/2000/svg">
<g opacity="0.3">
<path d="M125.014 568.037C118.248 561.654 111.052 555.678 104.815 548.836C42.1632 480.412 70.295 369.588 158.295 339.911C194.817 327.646 231.823 316.523 268.997 306.34C332.398 288.986 402.23 327.695 422.407 390.91C433.548 425.769 444.307 460.812 454.097 496.079C467.591 544.504 456.34 587.562 420.464 622.523C384.2 657.878 340.743 669.293 291.392 654.672C289.541 654.311 287.658 654.132 285.772 654.138L125.014 568.037Z" fill="#E6E6E6"/>
<path d="M59.979 90.282C66.0316 84.3294 71.7309 78.046 78.0927 72.5065C95.8914 57.405 118.064 48.4093 141.354 46.8416C164.643 45.2739 187.821 51.2167 207.483 63.7966C249.555 91.2813 268.626 142.764 253.852 189.098C235.028 248.08 174.372 280.908 115.739 262.094C62.8952 245.213 23.0538 189.926 43.7924 124.861C44.2214 122.985 44.4758 121.074 44.5523 119.151L59.979 90.282Z" fill="#E6E6E6"/>
<path d="M560.613 501.817C505.296 472.19 486.268 408.282 516.059 352.593C544.171 300.106 611.248 279.982 664.248 308.192C717.248 336.402 738.307 404.439 709.83 457.013C679.728 512.359 615.928 531.515 560.613 501.817Z" fill="#E6E6E6"/>
<path d="M548.682 200.57C522.46 252.301 455.199 274.024 403.083 247.597C347.818 219.588 325.558 154.055 352.753 99.4509C359.151 86.3648 368.113 74.6973 379.106 65.1415C390.1 55.5858 402.901 48.3363 416.751 43.8236C430.6 39.3108 445.215 37.6266 459.728 38.8712C474.241 40.1159 488.356 44.264 501.235 51.069C557.291 79.7133 577.522 143.487 548.682 200.57Z" fill="#E6E6E6"/>
</g>
</svg>
