<svg width="10" height="15" viewBox="0 0 10 15" fill="none" xmlns="http://www.w3.org/2000/svg">
<path d="M0.746293 6.26631L7.30311 0.531113C8.07499 -0.145709 9.28622 0.406447 9.28622 1.43355V12.9039C9.28681 13.1355 9.22031 13.3611 9.09622 13.5511C8.97153 13.747 8.794 13.9013 8.5844 13.9963C8.3754 14.0913 8.14264 14.121 7.91524 14.0854C7.68783 14.0557 7.4747 13.9548 7.30191 13.8064L0.747489 8.07119C0.618645 7.95839 0.515906 7.81586 0.44525 7.6615C0.374593 7.50713 0.338379 7.34092 0.338379 7.16875C0.338379 6.99657 0.374593 6.83036 0.44525 6.676C0.515906 6.5157 0.618645 6.37911 0.747489 6.26631H0.746293Z" fill="#6A5F4B"/>
</svg>
