<svg width="10" height="14" viewBox="0 0 10 14" fill="none" xmlns="http://www.w3.org/2000/svg">
<path d="M8.86096 7.94636L2.30595 13.6816C1.53407 14.3584 0.322754 13.8122 0.322754 12.7851V1.30878C0.322754 1.08317 0.388108 0.857587 0.512796 0.661665C0.637485 0.471679 0.815603 0.317322 1.02342 0.222329C1.23123 0.127336 1.46874 0.0916939 1.69436 0.127316C1.91999 0.162938 2.13376 0.25792 2.30595 0.412283L8.86096 6.14749C8.99159 6.26029 9.09253 6.3968 9.16378 6.55117C9.23503 6.70553 9.27069 6.87776 9.27069 7.04993C9.27069 7.21617 9.23503 7.38831 9.16378 7.54268C9.09253 7.69704 8.99159 7.83355 8.86096 7.94636Z" fill="#6A5F4B"/>
</svg>
