<svg width="41" height="31" viewBox="0 0 41 31" fill="none" xmlns="http://www.w3.org/2000/svg">
<g opacity="0.8">
<path opacity="0.8" d="M38.4656 25.862C38.4656 26.5302 38.199 27.1749 37.725 27.6497C37.2516 28.1245 36.6088 28.3885 35.9385 28.3885H5.61621C4.9459 28.3885 4.30312 28.1245 3.82968 27.6497C3.35566 27.1749 3.08907 26.5302 3.08907 25.862V10.6974C3.08907 10.0233 3.35566 9.37863 3.82968 8.90968C4.30312 8.43488 4.9459 8.16522 5.61621 8.16522H8.57753C10.5873 8.16522 12.5139 7.36799 13.9348 5.94357L16.0318 3.85101C16.5047 3.37621 17.1451 3.11228 17.8131 3.11228H23.7363C24.4066 3.11228 25.0488 3.37621 25.5229 3.85101L27.6153 5.94357C28.319 6.64699 29.1551 7.20976 30.075 7.59078C30.9949 7.97179 31.9811 8.16522 32.9772 8.16522H35.9385C36.6088 8.16522 37.2516 8.43488 37.725 8.90968C38.199 9.37863 38.4656 10.0233 38.4656 10.6974V25.862ZM5.61621 5.63875C4.27617 5.63875 2.99063 6.17205 2.04258 7.12166C1.09512 8.06541 0.5625 9.35507 0.5625 10.6974V25.862C0.5625 27.2043 1.09512 28.4881 2.04258 29.4377C2.99063 30.3874 4.27617 30.9207 5.61621 30.9207H35.9385C37.2785 30.9207 38.5641 30.3874 39.5121 29.4377C40.4596 28.4881 40.9922 27.2043 40.9922 25.862V10.6974C40.9922 9.35507 40.4596 8.06541 39.5121 7.12166C38.5641 6.17205 37.2785 5.63875 35.9385 5.63875H32.9772C31.6365 5.63875 30.3516 5.10545 29.4041 4.15584L27.3117 2.06299C26.3643 1.11338 25.0793 0.58594 23.7387 0.580078H17.816C16.4754 0.58594 15.1904 1.11338 14.243 2.06299L12.1506 4.15584C11.2031 5.10545 9.91816 5.63875 8.57753 5.63875H5.61621Z" fill="white"/>
<path opacity="0.8" d="M20.7773 23.3353C19.1021 23.3353 17.4949 22.667 16.3107 21.4829C15.126 20.2988 14.4603 18.6929 14.4603 17.0164C14.4603 15.34 15.126 13.7277 16.3107 12.5437C17.4949 11.3596 19.1021 10.6972 20.7773 10.6972C22.4525 10.6972 24.0598 11.3596 25.2439 12.5437C26.4287 13.7277 27.0943 15.34 27.0943 17.0164C27.0943 18.6929 26.4287 20.2988 25.2439 21.4829C24.0598 22.667 22.4525 23.3353 20.7773 23.3353ZM20.7773 25.8618C23.1228 25.8618 25.3723 24.9298 27.0311 23.2709C28.6898 21.612 29.6215 19.3612 29.6215 17.0164C29.6215 14.6658 28.6898 12.4148 27.0311 10.7559C25.3723 9.09702 23.1228 8.16504 20.7773 8.16504C18.4318 8.16504 16.1824 9.09702 14.5236 10.7559C12.8648 12.4148 11.9332 14.6658 11.9332 17.0164C11.9332 19.3612 12.8648 21.612 14.5236 23.2709C16.1824 24.9298 18.4318 25.8618 20.7773 25.8618ZM8.14335 11.9575C8.14335 12.2916 8.00976 12.6142 7.77305 12.8545C7.53633 13.089 7.21465 13.2237 6.8795 13.2237C6.54434 13.2237 6.22324 13.089 5.98652 12.8545C5.74921 12.6142 5.61621 12.2916 5.61621 11.9575C5.61621 11.6233 5.74921 11.3009 5.98652 11.0665C6.22324 10.8261 6.54434 10.6972 6.8795 10.6972C7.21465 10.6972 7.53633 10.8261 7.77305 11.0665C8.00976 11.3009 8.14335 11.6233 8.14335 11.9575Z" fill="white"/>
</g>
</svg>
