<svg width="28" height="24" viewBox="0 0 28 24" fill="none" xmlns="http://www.w3.org/2000/svg">
<path fill-rule="evenodd" clip-rule="evenodd" d="M0.307984 8.69446C0.405364 8.59683 0.521047 8.51937 0.648408 8.46653C0.775768 8.41368 0.912304 8.38647 1.05019 8.38647C1.18808 8.38647 1.32462 8.41368 1.45198 8.46653C1.57934 8.51937 1.69503 8.59683 1.79241 8.69446L13.63 20.5342L25.4677 8.69446C25.6645 8.49761 25.9315 8.38702 26.2099 8.38702C26.4883 8.38702 26.7552 8.49761 26.9521 8.69446C27.1489 8.8913 27.2595 9.15829 27.2595 9.43667C27.2595 9.71505 27.1489 9.98203 26.9521 10.1789L14.3722 22.7587C14.2749 22.8564 14.1592 22.9338 14.0318 22.9867C13.9045 23.0395 13.7679 23.0667 13.63 23.0667C13.4921 23.0667 13.3556 23.0395 13.2283 22.9867C13.1009 22.9338 12.9852 22.8564 12.8878 22.7587L0.307984 10.1789C0.210357 10.0815 0.132901 9.96582 0.0800525 9.83846C0.0272036 9.71109 0 9.57456 0 9.43667C0 9.29878 0.0272036 9.16224 0.0800525 9.03488C0.132901 8.90752 0.210357 8.79184 0.307984 8.69446Z" fill="#F6BC54"/>
<path fill-rule="evenodd" clip-rule="evenodd" d="M0.307984 0.307983C0.405364 0.210357 0.521047 0.132901 0.648408 0.0800525C0.775768 0.0272036 0.912304 0 1.05019 0C1.18808 0 1.32462 0.0272036 1.45198 0.0800525C1.57934 0.132901 1.69503 0.210357 1.79241 0.307983L13.63 12.1477L25.4677 0.307983C25.5651 0.210515 25.6809 0.133199 25.8082 0.0804494C25.9356 0.0276998 26.072 0.000549866 26.2099 0.000549866C26.3477 0.000549866 26.4842 0.0276998 26.6116 0.0804494C26.7389 0.133199 26.8546 0.210515 26.9521 0.307983C27.0496 0.405452 27.1269 0.521164 27.1796 0.648513C27.2324 0.775862 27.2595 0.912353 27.2595 1.05019C27.2595 1.18804 27.2324 1.32453 27.1796 1.45188C27.1269 1.57922 27.0496 1.69494 26.9521 1.79241L14.3722 14.3723C14.2749 14.4699 14.1592 14.5473 14.0318 14.6002C13.9045 14.653 13.7679 14.6802 13.63 14.6802C13.4921 14.6802 13.3556 14.653 13.2283 14.6002C13.1009 14.5473 12.9852 14.4699 12.8878 14.3723L0.307984 1.79241C0.210357 1.69503 0.132901 1.57934 0.0800525 1.45198C0.0272036 1.32462 0 1.18808 0 1.05019C0 0.912304 0.0272036 0.775768 0.0800525 0.648407C0.132901 0.521047 0.210357 0.405363 0.307984 0.307983Z" fill="#F6BC54"/>
</svg>
