<svg width="1224" height="718" viewBox="0 0 1224 718" fill="none" xmlns="http://www.w3.org/2000/svg">
<path fill-rule="evenodd" clip-rule="evenodd" d="M515.308 702.695C515.405 702.597 515.521 702.52 515.648 702.467C515.776 702.414 515.912 702.387 516.05 702.387C516.188 702.387 516.325 702.414 516.452 702.467C516.579 702.52 516.695 702.597 516.792 702.695L528.63 714.534L540.468 702.695C540.665 702.498 540.932 702.387 541.21 702.387C541.488 702.387 541.755 702.498 541.952 702.695C542.149 702.892 542.26 703.159 542.26 703.437C542.26 703.715 542.149 703.982 541.952 704.179L529.372 716.759C529.275 716.857 529.159 716.934 529.032 716.987C528.904 717.04 528.768 717.067 528.63 717.067C528.492 717.067 528.356 717.04 528.228 716.987C528.101 716.934 527.985 716.857 527.888 716.759L515.308 704.179C515.21 704.082 515.133 703.966 515.08 703.839C515.027 703.711 515 703.575 515 703.437C515 703.299 515.027 703.162 515.08 703.035C515.133 702.908 515.21 702.792 515.308 702.695V702.695Z" fill="#F6BC54"/>
<path fill-rule="evenodd" clip-rule="evenodd" d="M515.308 694.308C515.405 694.21 515.521 694.133 515.648 694.08C515.776 694.027 515.912 694 516.05 694C516.188 694 516.325 694.027 516.452 694.08C516.579 694.133 516.695 694.21 516.792 694.308L528.63 706.148L540.468 694.308C540.565 694.211 540.681 694.133 540.808 694.08C540.936 694.028 541.072 694.001 541.21 694.001C541.348 694.001 541.484 694.028 541.612 694.08C541.739 694.133 541.855 694.211 541.952 694.308C542.05 694.405 542.127 694.521 542.18 694.649C542.232 694.776 542.26 694.912 542.26 695.05C542.26 695.188 542.232 695.325 542.18 695.452C542.127 695.579 542.05 695.695 541.952 695.792L529.372 708.372C529.275 708.47 529.159 708.547 529.032 708.6C528.904 708.653 528.768 708.68 528.63 708.68C528.492 708.68 528.356 708.653 528.228 708.6C528.101 708.547 527.985 708.47 527.888 708.372L515.308 695.792C515.21 695.695 515.133 695.579 515.08 695.452C515.027 695.325 515 695.188 515 695.05C515 694.912 515.027 694.776 515.08 694.648C515.133 694.521 515.21 694.405 515.308 694.308V694.308Z" fill="#F6BC54"/>
<path d="M470.792 627.56L471.32 629.288C473.624 628.64 476.648 627.728 479.456 626.888L479.24 625.232C476.192 626.12 472.952 627.032 470.792 627.56ZM471.08 619.688V621.392H479.216V619.688H471.08ZM474.536 614.864V634.64C474.536 634.976 474.392 635.096 474.056 635.096C473.744 635.096 472.712 635.12 471.584 635.072C471.8 635.552 472.064 636.296 472.136 636.752C473.792 636.752 474.776 636.704 475.424 636.416C476.024 636.152 476.288 635.648 476.288 634.64V614.864H474.536ZM479.504 621.632L479.696 623.36L492.584 621.968L492.392 620.288L479.504 621.632ZM486.2 616.328C487.376 617.384 488.816 618.896 489.44 619.904L490.88 618.872C490.208 617.888 488.768 616.424 487.568 615.416L486.2 616.328ZM482.744 614.936C483.32 627.176 485.216 636.416 490.568 636.824C491.792 636.896 492.752 635.696 493.304 631.784C492.92 631.616 492.128 631.16 491.768 630.8C491.528 633.44 491.144 634.76 490.496 634.712C486.92 634.352 484.976 625.712 484.568 614.936H482.744ZM489.872 623.84C487.88 628.376 483.56 632.792 478.784 634.688C479.288 635.048 479.864 635.624 480.2 636.104C484.88 633.992 489.2 629.456 491.36 624.752L489.872 623.84ZM495.056 624.656V626.624H517.016V624.656H495.056ZM532.136 615.128V620.6H533.936V615.128H532.136ZM525.872 619.568V621.296H540.536V619.568H525.872ZM527.864 623.168C528.728 626.384 529.472 630.56 529.64 632.96L531.416 632.576C531.224 630.2 530.384 626.096 529.472 622.904L527.864 623.168ZM536.624 622.688C535.976 626.264 534.656 631.352 533.528 634.376L535.136 634.76C536.264 631.784 537.656 626.864 538.544 623.024L536.624 622.688ZM525.272 634.088V635.816H541.136V634.088H525.272ZM524.624 614.912C523.232 618.536 520.88 622.112 518.456 624.368C518.792 624.8 519.296 625.76 519.488 626.168C522.128 623.528 524.696 619.496 526.328 615.464L524.624 614.912ZM522.128 621.104V636.872H523.856V619.424L523.832 619.4L522.128 621.104ZM556.232 616.16V617.84H562.808V616.16H556.232ZM556.232 621.56V623.192H562.808V621.56H556.232ZM556.112 627.008V628.664H562.832V627.008H556.112ZM561.968 616.16V634.472C561.968 634.832 561.848 634.952 561.464 634.976C561.08 635 559.832 635 558.464 634.952C558.728 635.432 558.992 636.248 559.04 636.752C560.912 636.752 562.088 636.704 562.784 636.416C563.48 636.104 563.696 635.552 563.696 634.472V616.16H561.968ZM555.368 616.16V624.44C555.368 628.016 555.152 632.744 552.704 636.056C553.136 636.224 553.88 636.704 554.168 636.992C556.712 633.536 557.096 628.256 557.096 624.44V616.16H555.368ZM545.72 616.16V617.84H552.056V616.16H545.72ZM545.72 621.56V623.192H552.056V621.56H545.72ZM545.672 627.008V628.664H552.032V627.008H545.672ZM551.072 616.16V634.4C551.072 634.712 550.952 634.808 550.616 634.832C550.304 634.832 549.272 634.832 548.144 634.808C548.36 635.264 548.6 636.008 548.672 636.464C550.256 636.464 551.288 636.44 551.936 636.152C552.56 635.864 552.752 635.336 552.752 634.376V616.16H551.072ZM545 616.16V624.752C545 628.208 544.808 632.816 542.72 636.056C543.128 636.224 543.872 636.68 544.184 636.944C546.368 633.584 546.68 628.424 546.68 624.728V616.16H545ZM575.072 624.632L573.512 625.112C575.936 631.448 580.544 635.384 587.84 636.92C588.08 636.416 588.584 635.672 588.992 635.288C581.84 633.992 577.184 630.32 575.072 624.632ZM583.928 623.792V624.128C582.176 630.416 577.112 633.968 571.376 635.408C571.76 635.768 572.192 636.464 572.408 636.944C578.576 635.168 583.808 631.496 585.824 624.248L584.6 623.696L584.264 623.792H583.928ZM567.656 618.848V620.6H588.392V618.848H567.656ZM574.088 623.792L573.584 625.544H584.12V623.792H574.088ZM574.088 614.84C573.968 617.024 573.752 629.408 566.84 634.904C567.416 635.24 568.04 635.696 568.4 636.152C575.36 630.176 575.768 617.6 575.936 614.84H574.088ZM447.056 667.656V669.624H469.016V667.656H447.056ZM471.776 660.552V662.184H481.4V660.552H471.776ZM483.848 665.64V667.224H490.904V665.64H483.848ZM471.152 665.208V666.84H482V665.208H471.152ZM477.008 670.392V672H481.784V670.392H477.008ZM475.784 657.888V666.048H477.488V657.888H475.784ZM476.192 666.312V677.328H477.872V666.312H476.192ZM482.912 658.992V660.6H489.968V667.848H491.72V658.992H482.912ZM483.152 665.64V673.488C483.152 675.528 483.824 676.032 486.056 676.032C486.536 676.032 489.776 676.032 490.28 676.032C492.344 676.032 492.848 675.168 493.088 671.736C492.584 671.616 491.84 671.328 491.456 671.04C491.36 673.92 491.192 674.4 490.16 674.4C489.44 674.4 486.752 674.4 486.224 674.4C485.096 674.4 484.88 674.256 484.88 673.488V665.64H483.152ZM473.72 671.544L472.4 671.976C473.96 678.024 476.816 679.32 483.32 679.32H492.536C492.656 678.792 492.992 677.952 493.28 677.544C491.792 677.592 484.448 677.592 483.272 677.592C477.704 677.592 475.016 676.56 473.72 671.544ZM472.376 668.736C472.28 673.008 472.016 676.872 470.624 679.272C471.032 679.464 471.824 679.896 472.136 680.136C473.576 677.448 473.912 673.464 474.056 668.856L472.376 668.736ZM495.728 661.2V662.952H516.44V661.2H495.728ZM504.992 657.864V679.92H506.864V657.864H504.992ZM505.208 668.52C503.048 672.168 498.896 675.672 494.888 677.304C495.296 677.664 495.872 678.384 496.16 678.84C500.216 676.944 504.368 673.224 506.72 669.12L505.208 668.52ZM506.768 668.568L505.256 669.192C507.584 673.296 511.664 677.04 515.792 678.888C516.104 678.384 516.68 677.664 517.136 677.28C512.984 675.696 508.88 672.24 506.768 668.568ZM498.92 667.272C500.072 668.28 501.512 669.72 502.256 670.584L503.48 669.36C502.736 668.496 501.248 667.128 500.12 666.168L498.92 667.272ZM499.928 663.528C499.208 666.624 497.696 669.24 495.512 670.872C495.944 671.16 496.64 671.736 496.928 672.048C499.16 670.2 500.84 667.344 501.68 663.84L499.928 663.528ZM510.464 667.32C512.096 668.64 514.256 670.488 515.288 671.64L516.56 670.392C515.48 669.288 513.272 667.488 511.664 666.264L510.464 667.32ZM511.304 663.528C510.776 666.216 509.624 668.568 507.872 670.032C508.304 670.248 509.072 670.752 509.408 671.04C511.112 669.36 512.408 666.84 513.032 663.816L511.304 663.528ZM529.088 673.056V679.92H530.864V673.056H529.088ZM521.024 674.664V679.536H522.776V675.984H538.328V674.664H521.024ZM537.656 674.664V677.808C537.656 678.072 537.56 678.144 537.2 678.168C536.84 678.192 535.688 678.192 534.296 678.144C534.536 678.552 534.8 679.056 534.896 679.512C536.648 679.512 537.8 679.512 538.52 679.296C539.216 679.056 539.408 678.648 539.408 677.808V674.664H537.656ZM530.192 660V661.392H540.752V660H530.192ZM520.376 659.16V660.192H529.304V659.16H520.376ZM520.016 663.528V664.584H529.592V663.528H520.016ZM519.512 661.32V662.4H530.024V661.32H519.512ZM531.32 662.472C532.208 663.312 533.144 664.536 533.552 665.376L534.824 664.608C534.392 663.792 533.408 662.616 532.52 661.8L531.32 662.472ZM519.368 666.216L519.512 667.464C522.296 667.224 526.256 666.864 530.096 666.504L530.12 665.4C526.112 665.736 522.056 666.048 519.368 666.216ZM536.456 657.888V665.616C536.456 665.88 536.384 665.976 536.048 665.976C535.784 665.976 534.8 665.976 533.648 665.976C533.888 666.336 534.176 666.888 534.272 667.296C535.76 667.296 536.696 667.296 537.344 667.056C537.968 666.816 538.16 666.456 538.16 665.64V657.888H536.456ZM523.928 657.864V662.04H525.608V657.864H523.928ZM523.928 662.04V666.552H525.608V662.04H523.928ZM523.784 671.28H536.408V672.384H523.784V671.28ZM523.784 669.144H536.408V670.2H523.784V669.144ZM522.152 668.016V673.488H538.088V668.016H522.152ZM529.664 666.336C529.496 666.864 529.112 667.704 528.848 668.304L530.216 668.664C530.528 668.16 530.936 667.464 531.344 666.72L529.664 666.336ZM557.072 657.84V663.936H558.872V657.84H557.072ZM550.952 662.712V664.464H565.04V662.712H550.952ZM553.136 663.552V675.552C553.136 678.144 554.024 679.032 556.592 679.032C557.12 679.032 561.128 679.032 562.016 679.032C563.096 679.032 564.152 678.984 564.584 678.864C564.488 678.432 564.392 677.616 564.344 677.136C563.816 677.256 562.76 677.304 562.04 677.304C561.152 677.304 557.312 677.304 556.496 677.304C555.32 677.304 554.936 676.872 554.936 675.648V663.552H553.136ZM546.488 657.84V679.896H548.24V657.84H546.488ZM544.016 662.472C543.968 664.608 543.584 667.2 542.72 668.64L544.04 669.264C544.976 667.608 545.384 664.872 545.384 662.664L544.016 662.472ZM548.576 662.256C549.344 663.672 550.112 665.568 550.376 666.744L551.624 666.096C551.36 664.968 550.544 663.12 549.728 661.752L548.576 662.256ZM577.16 657.96C576.368 661.488 574.976 664.944 573.2 667.176C573.608 667.44 574.328 668.016 574.64 668.328C576.488 665.88 578 662.184 578.936 658.344L577.16 657.96ZM576.752 668.136C576.08 671.016 574.928 673.872 573.44 675.72C573.872 675.936 574.64 676.416 575 676.704C576.464 674.688 577.76 671.64 578.504 668.496L576.752 668.136ZM576.944 662.472L576.248 664.152H587.744V662.472H576.944ZM580.664 663.168V677.736C580.664 678.048 580.568 678.144 580.256 678.144C579.92 678.144 578.888 678.168 577.76 678.12C578.024 678.648 578.288 679.44 578.408 679.944C579.896 679.944 580.928 679.896 581.576 679.584C582.248 679.296 582.464 678.768 582.464 677.736V663.168H580.664ZM584.192 668.496C585.512 671.016 586.712 674.4 587.096 676.608L588.8 676.032C588.392 673.8 587.192 670.488 585.8 667.968L584.192 668.496ZM587.216 662.472V662.736C586.976 664.32 586.664 666.336 586.4 667.536L587.96 667.824C588.272 666.528 588.68 664.464 589.016 662.688L587.768 662.424L587.456 662.472H587.216ZM572.336 657.936C570.992 661.584 568.736 665.184 566.36 667.512C566.696 667.92 567.2 668.88 567.392 669.288C569.984 666.6 572.456 662.544 574.04 658.464L572.336 657.936ZM569.84 664.128V679.896H571.568V662.448L571.52 662.424L569.84 664.128ZM592.904 660.144V661.8H596.576V671.88H592.904V673.56H598.256V660.144H592.904ZM591.848 660.144V675.864H593.528V660.144H591.848ZM600.368 659.4V676.104C600.368 678.816 601.232 679.464 603.92 679.464C604.544 679.464 609.152 679.464 609.8 679.464C612.32 679.464 612.896 678.36 613.184 675.072C612.68 674.976 611.96 674.688 611.528 674.376C611.336 677.112 611.096 677.784 609.728 677.784C608.768 677.784 604.76 677.784 603.992 677.784C602.408 677.784 602.144 677.496 602.144 676.128V659.4H600.368ZM601.232 659.4V661.08H610.472V672.024H612.224V659.4H601.232ZM601.184 668.832V670.488H611.12V668.832H601.184ZM605.408 660V669.36H607.064V660H605.408Z" fill="#6A5F4B"/>
<g clip-path="url(#clip0_1429_92)">
<path d="M0 220.096C0 170.799 39.949 54 89.2403 54C138.532 54 178.492 170.844 178.492 220.096C178.228 243.567 168.71 265.989 152.002 282.493C135.293 298.998 112.744 308.255 89.2459 308.255C65.7482 308.255 43.1985 298.998 26.4903 282.493C9.78204 265.989 0.2634 243.567 0 220.096V220.096Z" fill="#F6BC54"/>
<path d="M89.2405 437C89.0471 437 88.8617 436.923 88.725 436.787C88.5883 436.65 88.5115 436.465 88.5115 436.272V128.886C88.4986 128.782 88.508 128.676 88.539 128.576C88.57 128.476 88.622 128.384 88.6914 128.305C88.7609 128.227 88.8463 128.164 88.9419 128.121C89.0375 128.078 89.1412 128.056 89.2461 128.056C89.351 128.056 89.4547 128.078 89.5503 128.121C89.6459 128.164 89.7313 128.227 89.8007 128.305C89.8702 128.384 89.9221 128.476 89.9532 128.576C89.9842 128.676 89.9936 128.782 89.9807 128.886V436.272C89.9807 436.368 89.9615 436.464 89.9241 436.553C89.8868 436.642 89.8321 436.723 89.7632 436.791C89.6943 436.859 89.6126 436.912 89.5229 436.948C89.4332 436.984 89.3371 437.001 89.2405 437V437Z" fill="#3F3D56"/>
<path d="M89.2405 188.221C89.0473 188.22 88.8622 188.144 88.7246 188.009L53.3964 152.717C53.2581 152.58 53.1798 152.394 53.1787 152.2C53.1777 152.005 53.2539 151.819 53.3908 151.68C53.5276 151.542 53.7138 151.464 53.9083 151.463C54.1029 151.462 54.2899 151.538 54.4282 151.675V151.675L89.7564 186.967C89.8907 187.105 89.9658 187.29 89.9658 187.482C89.9658 187.674 89.8907 187.859 89.7564 187.997C89.6148 188.134 89.4259 188.21 89.2293 188.21L89.2405 188.221Z" fill="#3F3D56"/>
<path d="M89.2407 249.314C89.0474 249.314 88.862 249.238 88.7253 249.101C88.5885 248.965 88.5117 248.779 88.5117 248.586C88.5121 248.39 88.5885 248.201 88.7248 248.06L147.886 188.971C147.953 188.903 148.032 188.848 148.121 188.811C148.209 188.773 148.303 188.753 148.399 188.752C148.495 188.751 148.59 188.769 148.679 188.805C148.768 188.84 148.849 188.893 148.917 188.96C148.986 189.027 149.041 189.107 149.078 189.195C149.116 189.283 149.136 189.377 149.137 189.473C149.138 189.568 149.12 189.663 149.084 189.752C149.049 189.841 148.996 189.922 148.929 189.991V189.991L89.7678 249.09C89.6279 249.231 89.4389 249.311 89.2407 249.314V249.314Z" fill="#3F3D56"/>
<path d="M170.058 280.024C170.058 244.632 198.791 160.671 234.232 160.671C269.672 160.671 298.406 244.632 298.406 280.024C298.406 297.027 291.645 313.333 279.61 325.356C267.575 337.378 251.252 344.132 234.232 344.132C217.212 344.132 200.889 337.378 188.854 325.356C176.819 313.333 170.058 297.027 170.058 280.024Z" fill="#E6E6E6"/>
<path d="M234.232 435.891C234.163 435.891 234.094 435.877 234.031 435.851C233.967 435.824 233.908 435.786 233.859 435.737C233.811 435.688 233.772 435.63 233.745 435.566C233.719 435.502 233.705 435.433 233.705 435.364V435.364V214.483C233.705 214.343 233.761 214.209 233.859 214.11C233.958 214.011 234.092 213.956 234.232 213.956C234.372 213.956 234.506 214.011 234.605 214.11C234.704 214.209 234.759 214.343 234.759 214.483V435.364C234.759 435.433 234.746 435.502 234.719 435.566C234.693 435.63 234.654 435.688 234.605 435.737C234.556 435.786 234.498 435.824 234.434 435.851C234.37 435.877 234.301 435.891 234.232 435.891V435.891Z" fill="#3F3D56"/>
<path d="M234.232 257.124C234.093 257.123 233.96 257.066 233.862 256.967L208.459 231.613C208.41 231.564 208.371 231.505 208.344 231.441C208.317 231.377 208.304 231.307 208.304 231.238C208.304 231.168 208.317 231.099 208.344 231.035C208.371 230.97 208.41 230.912 208.459 230.862C208.509 230.813 208.567 230.774 208.632 230.748C208.696 230.721 208.765 230.707 208.835 230.707C208.905 230.707 208.974 230.721 209.038 230.748C209.103 230.774 209.161 230.813 209.211 230.862L234.602 256.228C234.653 256.275 234.694 256.332 234.722 256.396C234.749 256.459 234.764 256.528 234.764 256.597C234.764 256.667 234.749 256.736 234.722 256.799C234.694 256.863 234.653 256.92 234.602 256.967C234.555 257.018 234.498 257.058 234.434 257.085C234.37 257.112 234.301 257.125 234.232 257.124V257.124Z" fill="#3F3D56"/>
<path d="M234.232 301.02C234.128 301.018 234.027 300.987 233.942 300.929C233.856 300.871 233.789 300.789 233.75 300.694C233.71 300.598 233.7 300.493 233.72 300.391C233.74 300.29 233.789 300.197 233.862 300.123L276.401 257.65C276.5 257.553 276.633 257.498 276.772 257.498C276.91 257.498 277.043 257.553 277.142 257.65C277.193 257.698 277.234 257.756 277.262 257.821C277.29 257.885 277.304 257.955 277.304 258.025C277.304 258.095 277.29 258.165 277.262 258.229C277.234 258.294 277.193 258.352 277.142 258.4L234.602 300.863C234.555 300.913 234.497 300.953 234.434 300.98C234.37 301.007 234.301 301.021 234.232 301.02V301.02Z" fill="#3F3D56"/>
<path d="M238.068 431.667C237.148 431.671 236.244 431.431 235.447 430.972C234.65 430.513 233.99 429.85 233.534 429.053C233.077 428.255 232.841 427.351 232.85 426.432C232.858 425.513 233.111 424.613 233.582 423.824V423.824L240.849 411.41L249.821 416.665L242.554 429.078C242.097 429.863 241.442 430.514 240.655 430.968C239.868 431.422 238.976 431.663 238.068 431.667V431.667Z" fill="#F6BC54"/>
<path d="M266.622 403.3C270.159 403.3 273.026 400.435 273.026 396.902C273.026 393.369 270.159 390.505 266.622 390.505C263.085 390.505 260.218 393.369 260.218 396.902C260.218 400.435 263.085 403.3 266.622 403.3Z" fill="#F6BC54"/>
<path d="M209.917 431.668C209.234 431.668 208.558 431.533 207.928 431.272C207.297 431.01 206.724 430.627 206.242 430.144C205.759 429.661 205.377 429.088 205.117 428.458C204.856 427.827 204.723 427.151 204.725 426.469C204.726 425.548 204.97 424.644 205.431 423.847L212.71 411.434L221.682 416.688L214.403 429.102C213.944 429.883 213.289 430.531 212.502 430.981C211.715 431.431 210.824 431.667 209.917 431.668Z" fill="#F6BC54"/>
<path d="M251.806 423.343H219.595C215.209 423.34 211.003 421.598 207.901 418.499C204.8 415.401 203.056 411.199 203.053 406.817V401.921C203.053 400.4 203.658 398.941 204.735 397.865C205.811 396.789 207.272 396.185 208.795 396.185H251.839C255.444 396.185 258.902 397.616 261.451 400.162C264 402.709 265.432 406.162 265.432 409.764C265.432 413.365 264 416.819 261.451 419.366C258.902 421.912 255.444 423.343 251.839 423.343H251.806Z" fill="#3F3D56"/>
<path d="M250.281 435.892C249.598 435.892 248.921 435.757 248.29 435.495C247.658 435.234 247.085 434.851 246.601 434.369C246.118 433.886 245.735 433.313 245.473 432.682C245.212 432.051 245.077 431.376 245.077 430.693V416.318H255.485V430.693C255.486 431.376 255.353 432.053 255.092 432.684C254.831 433.316 254.448 433.889 253.964 434.372C253.481 434.855 252.906 435.238 252.274 435.499C251.642 435.759 250.965 435.893 250.281 435.892V435.892Z" fill="#3F3D56"/>
<path d="M220.101 435.892C218.723 435.889 217.402 435.339 216.428 434.365C215.455 433.39 214.908 432.07 214.908 430.693V416.318H225.305V430.693C225.305 431.376 225.17 432.051 224.909 432.682C224.647 433.313 224.264 433.886 223.781 434.369C223.297 434.851 222.724 435.234 222.092 435.496C221.461 435.757 220.784 435.892 220.101 435.892V435.892Z" fill="#3F3D56"/>
<path d="M193.52 386.875L183.538 394.885L173.019 381.799C172.039 380.47 171.612 378.814 171.827 377.178C172.041 375.541 172.88 374.051 174.169 373.018C175.458 371.985 177.096 371.49 178.742 371.635C180.388 371.781 181.913 372.556 183 373.8L193.52 386.875Z" fill="#F6BC54"/>
<path d="M207.629 406.044L191.12 419.287C190.648 419.666 190.106 419.949 189.525 420.118C188.944 420.288 188.335 420.341 187.733 420.276C187.131 420.21 186.547 420.027 186.016 419.736C185.485 419.445 185.017 419.053 184.638 418.581L177.695 409.943C175.259 406.907 174.126 403.03 174.547 399.161C174.967 395.292 176.906 391.748 179.939 389.306L182.574 387.2C185.123 385.157 188.379 384.208 191.628 384.561C194.876 384.913 197.852 386.539 199.902 389.081L208.324 399.568C208.705 400.039 208.988 400.58 209.159 401.16C209.33 401.741 209.384 402.349 209.32 402.95C209.255 403.551 209.072 404.134 208.782 404.665C208.492 405.196 208.1 405.664 207.629 406.044V406.044Z" fill="#3F3D56"/>
<path d="M193.52 386.874L186.656 392.375L174.891 377.743C174.516 377.295 174.233 376.777 174.061 376.219C173.888 375.66 173.829 375.073 173.886 374.492C173.944 373.91 174.117 373.346 174.395 372.832C174.674 372.319 175.052 371.865 175.508 371.499C175.964 371.133 176.488 370.862 177.05 370.701C177.612 370.54 178.201 370.493 178.782 370.562C179.363 370.631 179.924 370.815 180.432 371.104C180.941 371.392 181.387 371.779 181.744 372.242V372.242L193.52 386.874Z" fill="#3F3D56"/>
<path d="M206.62 406.671L188.541 421.18C187.219 422.242 185.528 422.736 183.841 422.554C182.155 422.371 180.61 421.526 179.546 420.206C178.483 418.885 177.988 417.196 178.171 415.511C178.354 413.826 179.2 412.282 180.522 411.22L198.612 396.655L206.62 406.671Z" fill="#3F3D56"/>
<path d="M181.659 421.816C182.306 421.297 182.073 419.933 181.138 418.771C180.204 417.608 178.921 417.087 178.274 417.606C177.627 418.125 177.86 419.488 178.795 420.651C179.73 421.813 181.012 422.335 181.659 421.816Z" fill="#F6BC54"/>
<path d="M130.311 427.409C130.311 429.45 129.499 431.408 128.054 432.852C126.609 434.295 124.649 435.106 122.606 435.106C118.344 435.106 118.198 431.263 121.484 427.409C118.12 425.168 118.322 419.712 122.606 419.712C124.648 419.715 126.606 420.527 128.051 421.97C129.495 423.412 130.308 425.369 130.311 427.409Z" fill="#CCCCCC"/>
<path d="M152.305 427.41C152.305 429.451 153.116 431.409 154.561 432.853C156.006 434.296 157.966 435.107 160.01 435.107C164.26 435.107 164.417 431.264 161.131 427.41C164.44 425.169 164.283 419.713 160.01 419.713C157.967 419.716 156.009 420.528 154.565 421.971C153.12 423.413 152.308 425.37 152.305 427.41Z" fill="#CCCCCC"/>
<path d="M156.734 423.566H125.914V431.263H156.734V423.566Z" fill="#CCCCCC"/>
<path d="M573.271 436.574H25.7837C25.5904 436.574 25.4049 436.497 25.2682 436.361C25.1315 436.224 25.0547 436.039 25.0547 435.846C25.0547 435.652 25.1311 435.465 25.2675 435.327C25.4039 435.189 25.5893 435.109 25.7837 435.106H573.271C573.465 435.109 573.65 435.189 573.787 435.327C573.923 435.465 574 435.652 574 435.846C574 436.039 573.923 436.224 573.786 436.361C573.649 436.497 573.464 436.574 573.271 436.574V436.574Z" fill="#3F3D56"/>
<path d="M443.61 291.149C449.606 291.149 454.467 286.294 454.467 280.304C454.467 274.315 449.606 269.459 443.61 269.459C437.615 269.459 432.754 274.315 432.754 280.304C432.754 286.294 437.615 291.149 443.61 291.149Z" fill="#A0616A"/>
<path d="M442.904 341.13C442.709 340.522 442.636 339.882 442.688 339.246C442.741 338.61 442.919 337.991 443.212 337.423C443.505 336.856 443.906 336.352 444.395 335.94C444.883 335.529 445.447 335.217 446.056 335.023C446.228 334.963 446.404 334.915 446.583 334.878C446.798 334.84 447.015 334.814 447.233 334.799L458.673 316.459L448.22 306.532C447.419 305.77 446.953 304.721 446.926 303.616C446.898 302.511 447.312 301.44 448.075 300.639C448.838 299.838 449.888 299.373 450.994 299.346C452.1 299.319 453.172 299.732 453.974 300.494V300.55L468.408 314.756C468.847 315.434 469.058 316.235 469.01 317.041C468.961 317.847 468.656 318.617 468.139 319.238L452.191 338.194C452.24 338.344 452.277 338.498 452.303 338.653C452.429 339.279 452.43 339.923 452.306 340.549C452.183 341.175 451.937 341.77 451.582 342.3C451.228 342.831 450.773 343.287 450.242 343.642C449.711 343.996 449.116 344.243 448.49 344.367C448.308 344.405 448.125 344.431 447.94 344.446H447.525C446.505 344.444 445.511 344.123 444.682 343.528C443.854 342.934 443.232 342.095 442.904 341.13Z" fill="#A0616A"/>
<path d="M425.722 431.309H420.305L417.726 410.425H425.722V431.309Z" fill="#A0616A"/>
<path d="M427.325 436.787H409.381V436.339C409.381 434.479 410.121 432.695 411.437 431.379C412.754 430.064 414.54 429.325 416.402 429.325H427.303L427.325 436.787Z" fill="#2F2E41"/>
<path d="M479.612 423.824L474.957 426.592L462.037 409.965L468.912 405.876L479.612 423.824Z" fill="#A0616A"/>
<path d="M468.386 436.865L468.161 436.485C467.688 435.692 467.376 434.815 467.243 433.902C467.11 432.99 467.159 432.06 467.386 431.166C467.613 430.272 468.014 429.432 468.567 428.693C469.119 427.954 469.813 427.332 470.606 426.861L479.971 421.259L483.784 427.667L468.386 436.865Z" fill="#2F2E41"/>
<path d="M416.986 422.111C413.363 379.391 411.199 339.707 424.478 323.518L424.578 323.395L446.919 332.358V332.447C446.998 332.604 454.434 348.939 452.695 359.919L458.202 385.239L476.146 415.299C476.281 415.524 476.369 415.773 476.406 416.032C476.444 416.291 476.43 416.556 476.366 416.81C476.301 417.063 476.187 417.302 476.03 417.512C475.873 417.722 475.677 417.898 475.451 418.032L475.238 418.144L467.387 421.573C466.946 421.766 466.45 421.792 465.99 421.648C465.53 421.504 465.138 421.199 464.886 420.789L445.338 388.947L434.291 364.523C434.218 364.365 434.085 364.241 433.921 364.18C433.757 364.12 433.575 364.126 433.416 364.198C433.312 364.245 433.222 364.318 433.155 364.411C433.088 364.503 433.047 364.612 433.035 364.725L426.911 422.2C426.859 422.688 426.629 423.139 426.265 423.467C425.901 423.796 425.428 423.979 424.937 423.982H418.859C418.373 423.948 417.916 423.74 417.572 423.396C417.228 423.052 417.02 422.596 416.986 422.111Z" fill="#2F2E41"/>
<path d="M424.59 323.853H424.489V323.741C423.659 317.904 424.646 311.417 427.427 304.471C428.797 301.067 431.346 298.269 434.61 296.587C437.873 294.905 441.633 294.45 445.203 295.306V295.306C447.25 295.805 449.171 296.722 450.844 298.001C452.517 299.28 453.906 300.893 454.922 302.736C455.939 304.579 456.561 306.613 456.749 308.71C456.937 310.806 456.687 312.918 456.015 314.913C453.647 321.688 450.941 328.34 447.906 334.844L447.817 335.046L424.59 323.853Z" fill="#F6BC54"/>
<path d="M408.518 348.053C408.367 346.876 408.642 345.683 409.294 344.691C409.946 343.698 410.932 342.972 412.073 342.642L432.967 302.566C433.521 301.66 434.412 301.01 435.444 300.76C436.477 300.51 437.567 300.68 438.474 301.233C439.381 301.785 440.032 302.675 440.282 303.707C440.532 304.739 440.362 305.827 439.809 306.734V306.734L418.421 346.529C418.464 346.774 418.49 347.021 418.5 347.269C418.518 347.925 418.406 348.577 418.171 349.19C417.936 349.802 417.582 350.362 417.13 350.838C416.677 351.314 416.136 351.696 415.536 351.962C414.935 352.228 414.289 352.373 413.632 352.389C413.565 352.395 413.498 352.395 413.43 352.389V352.389C412.692 352.381 411.965 352.21 411.301 351.886C410.638 351.562 410.055 351.095 409.595 350.518C409.012 349.813 408.639 348.959 408.518 348.053Z" fill="#A0616A"/>
<path d="M430.443 274.176H447.681V266.669C443.902 265.168 440.189 263.891 437.958 266.669C435.965 266.669 434.053 267.46 432.644 268.868C431.235 270.276 430.443 272.185 430.443 274.176V274.176Z" fill="#2F2E41"/>
<path d="M448.634 265.369C458.953 265.369 461.835 278.287 461.835 285.536C461.835 289.592 459.996 291.048 457.102 291.541L456.081 286.107L453.693 291.776H451.147L450.339 290.107L448.534 291.754C441.288 291.754 435.445 292.818 435.445 285.57C435.445 278.321 437.969 265.369 448.634 265.369Z" fill="#2F2E41"/>
</g>
<path fill-rule="evenodd" clip-rule="evenodd" d="M491.738 11.9484C486.902 15.6052 484 20.5829 484 26C484 31.4171 486.902 36.3948 491.738 40.0516C496.575 43.7088 503.302 46 510.774 46H701.226C708.698 46 715.425 43.7088 720.262 40.0516C725.098 36.3948 728 31.4171 728 26C728 20.5829 725.098 15.6052 720.262 11.9484C715.425 8.29123 708.698 6 701.226 6H510.774C503.302 6 496.575 8.29123 491.738 11.9484ZM490.532 10.3531C495.747 6.40978 502.907 4 510.774 4H701.226C709.093 4 716.253 6.40978 721.468 10.3531C726.684 14.2969 730 19.8192 730 26C730 32.1808 726.684 37.7031 721.468 41.6469C716.253 45.5902 709.093 48 701.226 48H510.774C502.907 48 495.747 45.5902 490.532 41.6469C485.316 37.7031 482 32.1808 482 26C482 19.8192 485.316 14.2969 490.532 10.3531Z" fill="#F6BC54"/>
<path d="M529.46 16.3802V32.8002H530.8V17.7402H536.62V16.3802H529.46ZM530.16 20.6602V22.0202H534.96V25.4802H530.16V26.8202H536.28V20.6602H530.16ZM532.66 16.9402V21.3202H534V16.9402H532.66ZM532.66 26.1802V30.9202H534V26.1802H532.66ZM530.12 30.2602V31.6202H536.64V30.2602H530.12ZM538.46 17.2602V18.6002H546.9V17.2602H538.46ZM537.5 31.1602V32.4002H540.82V31.1602H537.5ZM542.88 31.1602V32.4002H546.36V31.1602H542.88ZM538.84 15.1802C538.28 17.2602 537.3 19.3202 536.12 20.6802C536.46 20.9202 537.04 21.4402 537.26 21.7002C538.48 20.1802 539.6 17.8402 540.28 15.5402L538.84 15.1802ZM539.74 21.2402H544.4V23.6202H539.74V21.2402ZM538.46 20.0402V24.8202H545.74V20.0402H538.46ZM537.06 26.1202V33.5402H538.2V27.3402H540.28V33.2802H541.46V26.1202H537.06ZM542.42 26.1202V33.5602H543.58V27.3402H545.8V33.3602H546.98V26.1202H542.42Z" fill="#F6BC54"/>
<path d="M556.42 17.6002V18.9202H566.42V17.6002H556.42ZM555.56 21.4802V22.8202H567.28V21.4802H555.56ZM555.66 25.1002V26.4402H567.06V25.1002H555.66ZM560.62 15.2002V22.3002H562.1V15.2002H560.62ZM563.26 22.6202V31.8002C563.26 32.1002 563.16 32.1802 562.82 32.2002C562.5 32.2202 561.38 32.2202 560.14 32.1802C560.36 32.5802 560.6 33.1802 560.66 33.5802C562.26 33.5802 563.28 33.5602 563.9 33.3402C564.52 33.1202 564.72 32.6802 564.72 31.8202V22.6202H563.26ZM556.88 27.8402C557.9 28.8802 558.98 30.3802 559.42 31.3602L560.72 30.5602C560.24 29.5802 559.12 28.1602 558.08 27.1202L556.88 27.8402ZM550.22 16.5202V17.8802H553.82V28.3002H550.22V29.6602H555.22V16.5202H550.22ZM550.28 22.3402V23.6802H554.48V22.3402H550.28ZM549.5 16.5202V31.3002H550.92V16.5202H549.5Z" fill="#F6BC54"/>
<path d="M568.9 26.1402V27.4002H587.1V26.1402H568.9ZM569.38 16.0802V17.4002H586.6V16.0802H569.38ZM575.84 24.0402C574.6 26.0002 572.74 28.6802 571.46 30.3002L572.88 30.7802C574.16 29.1402 576 26.5202 577.3 24.4402L575.84 24.0402ZM581.84 26.5802C580.24 30.4802 576.32 31.9002 569.18 32.2802C569.42 32.6202 569.66 33.1602 569.76 33.6002C577.26 33.0402 581.52 31.4002 583.28 27.0002L581.84 26.5802ZM572.54 30.1002C577.62 31.0402 582.52 32.4002 585.58 33.6602L586.48 32.4402C583.38 31.2202 578.24 29.8802 573.3 29.0002L572.54 30.1002ZM574.84 16.5802V23.5602H576.26V16.5802H574.84ZM579.5 16.5802V23.5602H580.92V16.5802H579.5ZM571.78 20.3402H584.26V23.0602H571.78V20.3402ZM570.38 19.1202V24.3002H585.76V19.1202H570.38Z" fill="#F6BC54"/>
<path d="M590.98 30.8802V32.3602H605.1V30.8802H590.98ZM597.12 15.3202V31.7202H598.66V15.3202H597.12ZM590.24 25.3002V33.6202H591.76V25.3002H590.24ZM604.3 25.3002V33.5602H605.84V25.3002H604.3ZM591.02 17.1202V24.0202H605.04V17.1202H603.48V22.5602H592.5V17.1202H591.02Z" fill="#F6BC54"/>
<path d="M610.54 19.1802V20.3202H616.1V19.1802H610.54ZM619.74 19.1802V20.3202H625.4V19.1802H619.74ZM624.76 16.1602V31.5602C624.76 31.9402 624.64 32.0402 624.24 32.0602C623.84 32.0802 622.46 32.1002 621.08 32.0202C621.3 32.4602 621.56 33.1602 621.64 33.5802C623.46 33.5802 624.64 33.5602 625.34 33.3002C626.02 33.0602 626.26 32.5802 626.26 31.5602V16.1602H624.76ZM610.66 16.1602V17.4202H615.56V22.2402H610.66V23.5002H616.98V16.1602H610.66ZM625.54 16.1602H618.86V23.5202H625.54V22.2602H620.3V17.4202H625.54V16.1602ZM609.82 16.1602V33.6002H611.3V16.1602H609.82Z" fill="#F6BC54"/>
<path d="M634.08 27.6802V31.3602C634.08 32.9202 634.6 33.3402 636.72 33.3402C637.14 33.3402 640.16 33.3402 640.62 33.3402C642.32 33.3402 642.78 32.7602 642.98 30.3602C642.56 30.2602 641.94 30.0602 641.62 29.8002C641.54 31.7202 641.38 31.9802 640.5 31.9802C639.84 31.9802 637.32 31.9802 636.84 31.9802C635.74 31.9802 635.56 31.8802 635.56 31.3402V27.6802H634.08ZM635.72 26.9002C637.02 27.5802 638.54 28.7002 639.24 29.5402L640.32 28.5602C639.6 27.7202 638.06 26.6602 636.74 26.0202L635.72 26.9002ZM642.24 27.9202C643.74 29.3002 645.22 31.2402 645.76 32.6002L647.14 31.9002C646.56 30.4802 645.02 28.6002 643.52 27.2802L642.24 27.9202ZM631.46 27.5802C631.02 29.2602 630.12 31.0202 628.72 32.0602L629.96 32.8802C631.46 31.7202 632.26 29.8202 632.8 28.0202L631.46 27.5802ZM633.1 17.5002V18.8402H646.52V17.5002H633.1ZM637.16 20.5402V21.7802H645.5V20.5402H637.16ZM637.18 23.5802V24.8602H645.98V23.5802H637.18ZM636.5 17.9402V26.4602H638V17.9402H636.5ZM633.72 15.1602C632.76 17.9802 631.02 20.5602 628.92 22.1802C629.3 22.4202 629.94 22.9802 630.2 23.2802C632.3 21.4602 634.16 18.6802 635.28 15.5402L633.72 15.1602Z" fill="#F6BC54"/>
<path d="M652.3 31.8602L652.4 33.1402C655.68 33.0802 660.66 32.9002 665.38 32.7402L665.44 31.5802C660.6 31.7202 655.5 31.8202 652.3 31.8602ZM661.78 26.6202C660.1 28.3402 657.28 30.6602 655.12 32.0202L656.08 32.6802C658.24 31.3602 661.04 29.1802 663.06 27.3402L661.78 26.6202ZM658 25.3402C657.28 26.2602 656 27.5402 655.02 28.3202L655.96 28.9002C656.96 28.1802 658.2 27.0402 659.22 26.0202L658 25.3402ZM653.48 28.1002C654.9 28.9202 656.7 30.1802 657.56 30.9802L658.6 30.0002C657.68 29.1802 655.86 28.0002 654.46 27.2202L653.48 28.1002ZM661.74 29.7002C663.22 30.8802 664.92 32.5602 665.74 33.6602L667 33.0002C666.14 31.8602 664.38 30.2202 662.92 29.1002L661.74 29.7002ZM652.6 19.8202V20.9402H658.84V19.8202H652.6ZM659.54 19.8202V20.9402H666.54V19.8202H659.54ZM655.18 18.3802V25.7002H656.34V18.3802H655.18ZM657.44 21.6002V24.7002H658.38V21.6002H657.44ZM662.08 18.3802V25.7602H663.26V18.3802H662.08ZM653.2 21.6002V22.3602C653.2 23.2602 653.08 24.4802 652.22 25.2602C652.48 25.4002 652.88 25.6802 653.04 25.9002C654 24.8802 654.14 23.5602 654.14 22.4002V21.6002H653.2ZM660.08 21.5602V22.2802C660.08 23.1002 659.96 24.2402 659.14 24.9402C659.4 25.0802 659.8 25.3802 659.98 25.6002C660.88 24.6602 661.02 23.4002 661.02 22.3402V21.5602H660.08ZM664.36 21.5602V24.1402C664.36 24.9402 664.42 25.2002 664.62 25.4002C664.8 25.5802 665.12 25.6402 665.42 25.6402C665.56 25.6402 665.94 25.6402 666.1 25.6402C666.28 25.6402 666.54 25.6202 666.68 25.5402C666.86 25.4602 667.02 25.3202 667.1 25.1202C667.2 24.9202 667.24 24.3202 667.26 23.8002C667.02 23.7402 666.7 23.5802 666.5 23.4402C666.48 23.9202 666.46 24.3202 666.42 24.4802C666.38 24.6402 666.34 24.7402 666.28 24.7802C666.24 24.8202 666.1 24.8202 666 24.8202C665.86 24.8202 665.7 24.8202 665.62 24.8202C665.52 24.8202 665.44 24.8002 665.4 24.7602C665.36 24.7002 665.36 24.5402 665.36 24.2802V21.5602H664.36ZM657.8 15.2202V17.5602H659.34V15.2202H657.8ZM651.02 16.9002V18.2002H666.98V16.9002H651.02ZM650.18 16.9002V23.0802C650.18 25.9602 650.06 29.9602 648.64 32.8002C648.96 32.9602 649.56 33.4002 649.8 33.6602C651.34 30.6402 651.58 26.1402 651.58 23.0802V16.9002H650.18Z" fill="#F6BC54"/>
<path d="M675.08 19.8202V21.1402H679.36V19.8202H675.08ZM678.96 19.8202V20.1602C678.86 28.5002 678.74 31.2802 678.4 31.8202C678.26 32.0802 678.12 32.1402 677.9 32.1402C677.62 32.1402 677.1 32.1402 676.48 32.0802C676.68 32.4202 676.8 32.9802 676.84 33.3602C677.44 33.3802 678.04 33.4002 678.44 33.3402C678.92 33.2802 679.24 33.1202 679.52 32.6602C679.98 31.9002 680.08 29.1602 680.2 20.5002C680.2 20.3402 680.22 19.8202 680.22 19.8202H678.96ZM676.42 15.2002C676.46 22.7802 676.32 29.0002 673.7 32.7402C673.98 32.9402 674.52 33.4202 674.72 33.6402C677.44 29.4402 677.62 23.3002 677.66 15.2002H676.42ZM671.38 15.2002V18.4202H672.78V15.2002H671.38ZM669.02 17.8802V19.1402H674.96V17.8802H669.02ZM668.82 23.2202V24.4802H675.18V23.2202H668.82ZM669.66 19.7602C670 20.7802 670.24 22.1602 670.24 23.0402L671.44 22.7202C671.4 21.8402 671.14 20.5002 670.76 19.4802L669.66 19.7602ZM673.38 19.4002C673.22 20.4002 672.84 21.9002 672.54 22.8202L673.56 23.0802C673.9 22.2202 674.28 20.8402 674.64 19.6802L673.38 19.4002ZM668.72 27.5202L669 28.8602C670.7 28.5602 673 28.1602 675.22 27.7602L675.14 26.5202C672.74 26.9202 670.34 27.3002 668.72 27.5202ZM683.1 15.2002V18.4202H684.5V15.2002H683.1ZM683.1 23.6802V33.6402H684.5V23.6802H683.1ZM680.64 17.8602V19.1402H686.96V17.8602H680.64ZM680.52 23.2002V24.4802H687.2V23.2002H680.52ZM680.72 27.3202V28.6002H686.9V27.3202H680.72ZM681.26 19.7602C681.62 20.8002 681.9 22.2002 681.92 23.1002L683.08 22.7802C683.04 21.8802 682.76 20.5002 682.34 19.4602L681.26 19.7602ZM685.2 19.3602C685.04 20.3602 684.62 21.8602 684.32 22.8002L685.34 23.0802C685.72 22.2002 686.12 20.8402 686.5 19.6802L685.2 19.3602ZM671.38 23.7002V27.1802C671.38 28.8402 671.16 31.2202 668.98 32.6202C669.3 32.8602 669.72 33.3202 669.9 33.6202C672.36 31.9002 672.78 29.2202 672.78 27.1802V23.7002H671.38Z" fill="#F6BC54"/>
<path fill-rule="evenodd" clip-rule="evenodd" d="M561.738 78.9484C556.902 82.6052 554 87.5829 554 93C554 98.4171 556.902 103.395 561.738 107.052C566.575 110.709 573.302 113 580.774 113H771.226C778.698 113 785.425 110.709 790.262 107.052C795.098 103.395 798 98.4171 798 93C798 87.5829 795.098 82.6052 790.262 78.9484C785.425 75.2912 778.698 73 771.226 73H580.774C573.302 73 566.575 75.2912 561.738 78.9484ZM560.532 77.3531C565.747 73.4098 572.907 71 580.774 71H771.226C779.093 71 786.253 73.4098 791.468 77.3531C796.684 81.2969 800 86.8192 800 93C800 99.1808 796.684 104.703 791.468 108.647C786.253 112.59 779.093 115 771.226 115H580.774C572.907 115 565.747 112.59 560.532 108.647C555.316 104.703 552 99.1808 552 93C552 86.8192 555.316 81.2969 560.532 77.3531Z" fill="#F6BC54"/>
<path d="M594.9 93.1402V94.4002H613.1V93.1402H594.9ZM595.38 83.0802V84.4002H612.6V83.0802H595.38ZM601.84 91.0402C600.6 93.0002 598.74 95.6802 597.46 97.3002L598.88 97.7802C600.16 96.1402 602 93.5202 603.3 91.4402L601.84 91.0402ZM607.84 93.5802C606.24 97.4802 602.32 98.9002 595.18 99.2802C595.42 99.6202 595.66 100.16 595.76 100.6C603.26 100.04 607.52 98.4002 609.28 94.0002L607.84 93.5802ZM598.54 97.1002C603.62 98.0402 608.52 99.4002 611.58 100.66L612.48 99.4402C609.38 98.2202 604.24 96.8802 599.3 96.0002L598.54 97.1002ZM600.84 83.5802V90.5602H602.26V83.5802H600.84ZM605.5 83.5802V90.5602H606.92V83.5802H605.5ZM597.78 87.3402H610.26V90.0602H597.78V87.3402ZM596.38 86.1202V91.3002H611.76V86.1202H596.38Z" fill="#F6BC54"/>
<path d="M626.1 97.3802V98.8402H631.54V97.3802H626.1ZM615.06 86.0002V87.4602H622.74V86.0002H615.06ZM625.42 84.7002V100.3H626.88V86.1402H630.74V100.16H632.26V84.7002H625.42ZM622.34 86.0002V86.3602C622.2 94.9202 622.02 97.8802 621.56 98.5002C621.38 98.7602 621.2 98.8202 620.9 98.8002C620.52 98.8002 619.66 98.8002 618.72 98.7202C618.98 99.1402 619.14 99.8002 619.16 100.24C620.06 100.3 620.98 100.3 621.54 100.22C622.14 100.16 622.5 99.9802 622.86 99.4602C623.5 98.5802 623.64 95.6602 623.8 86.7602C623.8 86.5602 623.8 86.0002 623.8 86.0002H622.34ZM617.9 82.4802C617.88 89.4802 617.9 96.0802 614.56 99.6002C614.94 99.8202 615.46 100.28 615.72 100.62C619.24 96.8002 619.34 89.8602 619.36 82.4802H617.9Z" fill="#F6BC54"/>
<path d="M641.14 84.4802V93.6002H642.42V84.4802H641.14ZM646.22 83.4002V84.7802H652.82V83.4002H646.22ZM644.86 98.5202V99.9202H653.24V98.5202H644.86ZM646.38 90.7402V92.1002H652.7V90.7402H646.38ZM648.74 83.9402V99.2602H650.16V83.9402H648.74ZM644.38 82.2002V90.7402C644.38 94.3402 643.94 97.4202 640.46 99.5402C640.76 99.8002 641.22 100.3 641.4 100.62C645.24 98.2602 645.76 94.8002 645.76 90.7602V82.2002H644.38ZM634.84 83.5002V84.8802H640.76V83.5002H634.84ZM635.04 89.9402V91.3002H640.4V89.9402H635.04ZM634.54 97.3802L634.86 98.8002C636.64 98.2602 638.94 97.5802 641.16 96.9202L640.98 95.5802C638.6 96.2602 636.2 96.9802 634.54 97.3802ZM637.08 84.1002V97.3202L638.48 97.0202V84.1002H637.08Z" fill="#F6BC54"/>
<path d="M655.44 85.0002V86.4602H672.7V85.0002H655.44ZM663.16 82.2202V100.6H664.72V82.2202H663.16ZM663.34 91.1002C661.54 94.1402 658.08 97.0602 654.74 98.4202C655.08 98.7202 655.56 99.3202 655.8 99.7002C659.18 98.1202 662.64 95.0202 664.6 91.6002L663.34 91.1002ZM664.64 91.1402L663.38 91.6602C665.32 95.0802 668.72 98.2002 672.16 99.7402C672.42 99.3202 672.9 98.7202 673.28 98.4002C669.82 97.0802 666.4 94.2002 664.64 91.1402ZM658.1 90.0602C659.06 90.9002 660.26 92.1002 660.88 92.8202L661.9 91.8002C661.28 91.0802 660.04 89.9402 659.1 89.1402L658.1 90.0602ZM658.94 86.9402C658.34 89.5202 657.08 91.7002 655.26 93.0602C655.62 93.3002 656.2 93.7802 656.44 94.0402C658.3 92.5002 659.7 90.1202 660.4 87.2002L658.94 86.9402ZM667.72 90.1002C669.08 91.2002 670.88 92.7402 671.74 93.7002L672.8 92.6602C671.9 91.7402 670.06 90.2402 668.72 89.2202L667.72 90.1002ZM668.42 86.9402C667.98 89.1802 667.02 91.1402 665.56 92.3602C665.92 92.5402 666.56 92.9602 666.84 93.2002C668.26 91.8002 669.34 89.7002 669.86 87.1802L668.42 86.9402Z" fill="#F6BC54"/>
<path d="M675.38 83.6202V85.1402H692.6V83.6202H675.38ZM685.18 89.4402C687.56 91.0602 690.56 93.4002 691.96 94.9402L693.18 93.8002C691.7 92.2602 688.64 90.0002 686.3 88.4802L685.18 89.4402ZM684.8 84.1402C682.94 87.9002 679.22 91.7402 674.88 93.9202C675.18 94.2402 675.66 94.8402 675.9 95.2202C680.42 92.8402 684.16 88.8802 686.44 84.7402L684.8 84.1402ZM683.16 88.1402V100.58H684.78V86.5402L683.16 88.1402Z" fill="#F6BC54"/>
<path d="M700.74 84.9802L699.42 85.2802C701.28 93.2202 704.78 98.5602 712.38 100.58C712.62 100.16 713.08 99.5002 713.42 99.1802C706 97.4202 702.42 92.2802 700.74 84.9802ZM695.78 83.2802V84.7402H706.98V83.2802H695.78ZM710.68 88.1202V88.4002C709.2 94.6002 704.62 98.0202 699.34 99.3002C699.66 99.6202 700.02 100.24 700.2 100.62C705.82 99.0402 710.56 95.5202 712.26 88.4602L711.24 88.0602L710.96 88.1202H710.68ZM706.64 83.2802V83.4602C706.3 85.0602 705.58 88.1402 704.92 90.3602L706.48 90.5802C707.1 88.3802 707.8 85.4802 708.24 83.4202L707.1 83.2002L706.82 83.2802H706.64ZM706.36 88.1202L706.04 89.5402H711.02V88.1202H706.36ZM699.32 83.7402V86.4402C699.32 90.0002 699 95.0002 694.7 98.9802C695.04 99.2602 695.56 99.8602 695.78 100.24C700.44 95.8802 700.84 90.4202 700.84 86.4202V83.7402H699.32Z" fill="#F6BC54"/>
<path d="M716.6 85.2202V86.7402H731.54V85.2202H716.6ZM715.04 90.5002V92.0002H733.02V90.5002H715.04ZM723.14 82.2002V91.3402H724.72V82.2002H723.14ZM721.52 91.4802C720.8 93.6202 719.42 96.6402 718.3 98.5402L719.7 99.0202C720.86 97.1602 722.24 94.3002 723.28 91.9402L721.52 91.4802ZM715.76 98.1802L715.96 99.7802C719.74 99.6202 725.48 99.3202 730.86 99.0202L730.92 97.5602C725.44 97.8202 719.52 98.0802 715.76 98.1802ZM726.78 94.2802C728.52 96.2602 730.48 99.0002 731.34 100.78L732.82 99.9802C731.9 98.2202 729.96 95.6002 728.16 93.6402L726.78 94.2802Z" fill="#F6BC54"/>
<path d="M741.92 93.3202V94.3802H751.16V93.3202H741.92ZM745.74 91.0602V96.7802H747.04V91.0602H745.74ZM738.94 91.5202H734.86V92.9002H737.5V97.3602H738.94V91.5202ZM738.94 96.6602H737.68C736.72 97.5202 735.62 98.4202 734.72 99.0602L735.46 100.46C736.48 99.5802 737.44 98.7402 738.32 97.8802C739.62 99.4402 741.42 100.14 744.06 100.24C746.28 100.32 750.56 100.28 752.78 100.2C752.84 99.7802 753.08 99.1002 753.24 98.7802C750.86 98.9402 746.24 98.9802 744.04 98.9002C741.68 98.8202 739.92 98.1202 738.94 96.6602ZM735.7 83.3802C736.8 84.0402 738.1 85.0802 738.68 85.8402L739.74 84.8602C739.12 84.1002 737.82 83.1202 736.7 82.4802L735.7 83.3802ZM734.98 87.4802C736.18 88.1202 737.58 89.1602 738.26 89.9202L739.28 88.9002C738.6 88.1402 737.14 87.1602 735.94 86.5402L734.98 87.4802ZM746.06 83.1802V84.3602H751.48V83.1802H746.06ZM743.7 85.3802C744.44 86.4402 745.12 87.8402 745.32 88.7602L746.38 88.2802C746.14 87.3602 745.44 85.9802 744.7 84.9402L743.7 85.3802ZM740.56 83.4202L740.86 88.8002H742.2L741.94 84.1002C742.18 84.0602 742.3 83.9802 742.34 83.8602L740.56 83.4202ZM751.18 83.1802V83.4002C751.06 86.7202 750.92 87.9202 750.66 88.2202C750.54 88.3802 750.38 88.4002 750.14 88.4002C749.9 88.4002 749.32 88.4002 748.66 88.3402C748.82 88.6402 748.94 89.1402 748.98 89.4802C749.66 89.5002 750.34 89.5202 750.7 89.4602C751.16 89.4402 751.46 89.3202 751.72 89.0202C752.12 88.5402 752.28 87.2402 752.42 83.7402C752.44 83.5402 752.44 83.1802 752.44 83.1802H751.18ZM739.66 88.8002L740.06 90.0002C741.58 89.3602 743.48 88.5202 745.32 87.7202L745.12 86.6402C743.1 87.4602 741.04 88.3002 739.66 88.8002ZM744.96 82.2402C744.06 82.8002 742.42 83.4402 741 83.8402C741.16 84.1002 741.36 84.5202 741.44 84.8002C742.94 84.4002 744.74 83.8202 745.98 83.1402L744.96 82.2402ZM747.92 83.6602C747.78 86.2002 747.34 88.2202 745.56 89.3402C745.84 89.5202 746.2 89.9402 746.36 90.2202C748.44 88.9002 748.98 86.6002 749.16 83.6602H747.92ZM742.52 91.6002H750.4V96.2602H742.52V91.6002ZM741.2 90.4602V97.3602H751.8V90.4602H741.2Z" fill="#F6BC54"/>
<path d="M764.12 82.2202C763.34 84.9202 762.06 87.5802 760.48 89.2802C760.84 89.5002 761.44 89.9602 761.7 90.2002C763.26 88.3402 764.66 85.5002 765.56 82.5602L764.12 82.2202ZM763.88 85.1802L763.18 86.5602H771.64V85.1802H763.88ZM771.1 85.1802V85.5202C770.86 94.7602 770.56 98.0802 769.96 98.8002C769.76 99.0802 769.54 99.1402 769.18 99.1202C768.76 99.1202 767.74 99.1202 766.62 99.0402C766.9 99.4402 767.06 100.1 767.08 100.54C768.12 100.58 769.18 100.62 769.78 100.54C770.46 100.46 770.88 100.3 771.3 99.7002C772.04 98.7602 772.3 95.5402 772.56 85.9802C772.56 85.7602 772.58 85.1802 772.58 85.1802H771.1ZM762.84 89.0202V97.1802H764.2V89.0202H762.84ZM763.5 89.0202V90.3202H767.32V94.3802H763.5V95.7002H768.68V89.0202H763.5ZM755.04 83.2002C758.54 86.1402 759.02 89.3602 759.02 93.0202C759.02 95.6802 758.82 98.0602 758.3 98.7602C758.14 98.9802 757.94 99.0802 757.62 99.1202C757.14 99.1802 756.32 99.1802 755.32 99.1202C755.6 99.5402 755.76 100.1 755.76 100.6C756.66 100.64 757.52 100.62 758.24 100.5C758.74 100.4 759.14 100.18 759.42 99.8002C760.26 98.6802 760.48 96.0002 760.48 93.0402C760.48 89.2202 760 85.5802 756.08 82.3602L755.04 83.2002ZM759.04 89.3602C758.18 91.3202 756.38 93.5402 754.82 94.6402C755.18 94.9202 755.62 95.4402 755.86 95.7802C757.46 94.4602 759.24 92.0802 760.16 90.0202L759.04 89.3602ZM759.92 82.3202C758.82 84.3802 756.82 86.6802 754.74 88.2002C755.06 88.4602 755.54 88.9002 755.78 89.2002C757.9 87.5602 759.96 85.3002 761.26 83.0202L759.92 82.3202Z" fill="#F6BC54"/>
<path fill-rule="evenodd" clip-rule="evenodd" d="M453.833 181.952C448.934 185.611 446 190.588 446 196C446 201.412 448.934 206.389 453.833 210.048C458.731 213.707 465.544 216 473.113 216H665.887C673.456 216 680.269 213.707 685.167 210.048C690.066 206.389 693 201.412 693 196C693 190.588 690.066 185.611 685.167 181.952C680.269 178.293 673.456 176 665.887 176H473.113C465.544 176 458.731 178.293 453.833 181.952ZM452.636 180.35C457.912 176.408 465.155 174 473.113 174H665.887C673.845 174 681.088 176.408 686.364 180.35C691.641 184.291 695 189.814 695 196C695 202.186 691.641 207.709 686.364 211.65C681.088 215.592 673.845 218 665.887 218H473.113C465.155 218 457.912 215.592 452.636 211.65C447.359 207.709 444 202.186 444 196C444 189.814 447.359 184.291 452.636 180.35Z" fill="#F6BC54"/>
<path d="M486.805 200.16V201.58H493.065V200.16H486.805ZM485.985 187.36V203.1H487.425V188.8H492.345V202.8H493.825V187.36H485.985ZM476.225 189.3V190.74H483.665V189.3H476.225ZM479.625 185.2C478.845 189.02 477.525 194.42 476.565 197.5L477.845 198.12C478.845 194.8 480.205 189.38 481.085 185.38L479.625 185.2ZM477.265 196.74C479.845 198.14 482.905 200.34 484.305 202L485.185 200.72C483.765 199.08 480.685 196.98 478.085 195.64L477.265 196.74ZM483.245 189.3V189.62C482.685 196.72 480.305 200.72 476.505 202.38C476.825 202.7 477.225 203.26 477.425 203.62C481.585 201.54 484.065 197.5 484.685 189.44L483.765 189.26L483.485 189.3H483.245Z" fill="#F6BC54"/>
<path d="M496.585 195.82V197.22H514.145V195.82H496.585ZM504.565 186.66V203.6H506.145V186.66H504.565ZM504.025 196.42C502.345 198.62 499.045 200.74 496.085 201.72C496.405 202.02 496.885 202.58 497.105 202.94C500.105 201.8 503.425 199.52 505.285 196.96L504.025 196.42ZM506.605 196.36L505.405 196.9C507.325 199.36 510.725 201.7 513.625 202.86C513.865 202.48 514.325 201.9 514.665 201.6C511.745 200.62 508.345 198.5 506.605 196.36ZM500.065 190.74H510.705V192.84H500.065V190.74ZM500.065 187.46H510.705V189.52H500.065V187.46ZM498.525 186.18V194.12H512.305V186.18H498.525Z" fill="#F6BC54"/>
<path d="M516.625 187.8V189.22H534.145V187.8H516.625ZM521.505 194.94V196.24H530.905V194.94H521.505ZM520.445 191.54V203.6H521.925V192.88H530.665V191.54H520.445ZM530.325 191.54V201.72C530.325 202.02 530.205 202.12 529.865 202.14C529.505 202.14 528.285 202.16 526.945 202.1C527.165 202.52 527.385 203.14 527.445 203.56C529.165 203.56 530.285 203.56 530.925 203.32C531.605 203.08 531.785 202.62 531.785 201.74V191.54H530.325ZM523.165 185.2C522.085 189.22 519.725 193.46 516.145 195.92C516.445 196.22 516.905 196.74 517.105 197.08C520.925 194.4 523.325 189.96 524.685 185.56L523.165 185.2ZM521.505 198.32V199.62H530.905V198.32H521.505Z" fill="#F6BC54"/>
<path d="M544.325 185.82C544.185 188.48 544.185 198.1 536.025 202.26C536.485 202.6 536.985 203.06 537.245 203.44C545.525 198.94 545.825 188.96 545.985 185.82H544.325ZM545.925 186.22L544.485 186.36C544.625 188.2 545.185 199.38 553.665 203.44C553.905 203.02 554.365 202.52 554.805 202.18C546.565 198.4 545.985 187.78 545.925 186.22Z" fill="#F6BC54"/>
<path d="M559.505 185.2C559.025 186.66 558.085 188.76 557.325 190.04L558.605 190.42C559.405 189.16 560.345 187.22 561.065 185.56L559.505 185.2ZM556.145 189.44L556.285 190.9C558.465 190.78 561.565 190.62 564.545 190.44L564.565 189.1C561.425 189.24 558.245 189.38 556.145 189.44ZM557.365 192.34V203.58H558.765V193.62H563.705V192.34H557.365ZM563.025 192.34V201.86C563.025 202.12 562.945 202.18 562.685 202.18C562.405 202.2 561.545 202.22 560.605 202.18C560.805 202.56 561.025 203.16 561.105 203.56C562.365 203.56 563.245 203.54 563.805 203.3C564.345 203.06 564.505 202.64 564.505 201.88V192.34H563.025ZM558.025 195.32V196.5H563.805V195.32H558.025ZM558.025 198.32V199.52H563.805V198.32H558.025ZM566.385 185.24V191.88C566.385 193.54 566.885 194 568.805 194C569.205 194 571.825 194 572.245 194C573.865 194 574.305 193.34 574.485 190.9C574.045 190.8 573.445 190.58 573.125 190.32C573.045 192.3 572.905 192.64 572.125 192.64C571.545 192.64 569.365 192.64 568.945 192.64C568.025 192.64 567.865 192.5 567.865 191.86V185.24H566.385ZM572.505 186.72C571.145 187.42 568.865 188.3 566.885 188.92C567.065 189.22 567.265 189.66 567.345 189.98C569.405 189.4 571.805 188.62 573.505 187.82L572.505 186.72ZM566.385 194.54V201.32C566.385 202.98 566.905 203.44 568.845 203.44C569.265 203.44 571.965 203.44 572.405 203.44C574.085 203.44 574.525 202.72 574.725 200.02C574.305 199.94 573.705 199.7 573.365 199.46C573.265 201.72 573.145 202.1 572.285 202.1C571.685 202.1 569.425 202.1 569.005 202.1C568.045 202.1 567.865 201.98 567.865 201.3V194.54H566.385ZM572.745 195.64C571.385 196.52 568.965 197.44 566.885 198.04C567.045 198.34 567.265 198.82 567.345 199.12C569.505 198.54 572.065 197.72 573.745 196.76L572.745 195.64ZM562.005 187.1C563.065 188.52 564.145 190.44 564.565 191.66L565.885 191.08C565.425 189.84 564.305 188 563.245 186.6L562.005 187.1Z" fill="#F6BC54"/>
<path d="M584.605 197.88V203.6H586.085V197.88H584.605ZM577.885 199.22V203.28H579.345V200.32H592.305V199.22H577.885ZM591.745 199.22V201.84C591.745 202.06 591.665 202.12 591.365 202.14C591.065 202.16 590.105 202.16 588.945 202.12C589.145 202.46 589.365 202.88 589.445 203.26C590.905 203.26 591.865 203.26 592.465 203.08C593.045 202.88 593.205 202.54 593.205 201.84V199.22H591.745ZM585.525 187V188.16H594.325V187H585.525ZM577.345 186.3V187.16H584.785V186.3H577.345ZM577.045 189.94V190.82H585.025V189.94H577.045ZM576.625 188.1V189H585.385V188.1H576.625ZM586.465 189.06C587.205 189.76 587.985 190.78 588.325 191.48L589.385 190.84C589.025 190.16 588.205 189.18 587.465 188.5L586.465 189.06ZM576.505 192.18L576.625 193.22C578.945 193.02 582.245 192.72 585.445 192.42L585.465 191.5C582.125 191.78 578.745 192.04 576.505 192.18ZM590.745 185.24V191.68C590.745 191.9 590.685 191.98 590.405 191.98C590.185 191.98 589.365 191.98 588.405 191.98C588.605 192.28 588.845 192.74 588.925 193.08C590.165 193.08 590.945 193.08 591.485 192.88C592.005 192.68 592.165 192.38 592.165 191.7V185.24H590.745ZM580.305 185.22V188.7H581.705V185.22H580.305ZM580.305 188.7V192.46H581.705V188.7H580.305ZM580.185 196.4H590.705V197.32H580.185V196.4ZM580.185 194.62H590.705V195.5H580.185V194.62ZM578.825 193.68V198.24H592.105V193.68H578.825ZM585.085 192.28C584.945 192.72 584.625 193.42 584.405 193.92L585.545 194.22C585.805 193.8 586.145 193.22 586.485 192.6L585.085 192.28Z" fill="#F6BC54"/>
<path d="M607.925 185.2V190.28H609.425V185.2H607.925ZM602.825 189.26V190.72H614.565V189.26H602.825ZM604.645 189.96V199.96C604.645 202.12 605.385 202.86 607.525 202.86C607.965 202.86 611.305 202.86 612.045 202.86C612.945 202.86 613.825 202.82 614.185 202.72C614.105 202.36 614.025 201.68 613.985 201.28C613.545 201.38 612.665 201.42 612.065 201.42C611.325 201.42 608.125 201.42 607.445 201.42C606.465 201.42 606.145 201.06 606.145 200.04V189.96H604.645ZM599.105 185.2V203.58H600.565V185.2H599.105ZM597.045 189.06C597.005 190.84 596.685 193 595.965 194.2L597.065 194.72C597.845 193.34 598.185 191.06 598.185 189.22L597.045 189.06ZM600.845 188.88C601.485 190.06 602.125 191.64 602.345 192.62L603.385 192.08C603.165 191.14 602.485 189.6 601.805 188.46L600.845 188.88Z" fill="#F6BC54"/>
<path d="M620.465 185.2V188.56H621.985V185.2H620.465ZM616.405 187.76V189.14H625.925V187.76H616.405ZM625.785 190.5V191.92H634.485V190.5H625.785ZM618.885 192H623.545V194.68H618.885V192ZM617.485 190.7V195.96H625.005V190.7H617.485ZM620.545 195.42V201.88C620.545 202.1 620.465 202.16 620.245 202.18C619.985 202.2 619.205 202.2 618.285 202.18C618.485 202.56 618.705 203.14 618.765 203.54C619.985 203.54 620.805 203.54 621.325 203.3C621.845 203.06 621.985 202.64 621.985 201.9V195.42H620.545ZM617.865 197.02C617.505 198.62 616.865 200.2 616.005 201.26C616.345 201.46 616.905 201.88 617.165 202.12C618.065 200.94 618.825 199.12 619.245 197.32L617.865 197.02ZM623.025 197.28C623.585 198.34 624.165 199.78 624.405 200.7L625.665 200.24C625.425 199.32 624.825 197.92 624.225 196.86L623.025 197.28ZM630.765 186.38C631.725 187.36 632.665 188.76 633.065 189.72L634.305 189.08C633.905 188.12 632.945 186.78 631.925 185.82L630.765 186.38ZM628.685 185.2V189.4C628.685 193.3 628.325 198.88 624.045 202.78C624.425 202.96 625.045 203.36 625.325 203.64C629.725 199.54 630.145 193.66 630.145 189.4V185.2H628.685ZM629.645 192.92V201.5C629.645 202.52 629.745 202.84 630.105 203.14C630.445 203.4 630.945 203.48 631.405 203.48C631.665 203.48 632.365 203.48 632.665 203.48C633.105 203.48 633.585 203.4 633.865 203.26C634.205 203.06 634.405 202.78 634.545 202.32C634.645 201.9 634.725 200.68 634.745 199.62C634.365 199.5 633.865 199.24 633.565 198.98C633.585 200.08 633.545 201.04 633.505 201.42C633.465 201.66 633.345 201.86 633.205 201.94C633.065 202.02 632.805 202.06 632.565 202.06C632.305 202.06 631.945 202.06 631.745 202.06C631.525 202.06 631.345 202.02 631.225 201.92C631.085 201.86 631.025 201.72 631.025 201.56V192.92H629.645Z" fill="#F6BC54"/>
<path d="M644.305 186.24V187.64H653.085V186.24H644.305ZM643.625 193.26V194.7H654.625V193.26H643.625ZM648.345 190.6V201.7C648.345 202 648.245 202.1 647.905 202.12C647.545 202.14 646.425 202.14 645.165 202.1C645.365 202.5 645.625 203.16 645.705 203.56C647.305 203.58 648.345 203.54 649.005 203.3C649.625 203.06 649.845 202.62 649.845 201.72V190.6H648.345ZM652.545 186.24V186.58C651.745 187.88 650.085 189.76 648.645 190.84C648.905 191.04 649.325 191.44 649.545 191.72C651.145 190.52 653.005 188.58 654.205 186.88L653.225 186.16L652.905 186.24H652.545ZM636.225 189.34V190.74H642.805V189.34H636.225ZM639.245 185.22C638.565 189.02 637.365 194.38 636.485 197.44L637.745 198.1C638.645 194.78 639.905 189.38 640.665 185.38L639.245 185.22ZM637.225 196.8C639.465 198.1 642.045 200.14 643.245 201.64L644.145 200.42C642.945 198.94 640.305 197.02 638.065 195.76L637.225 196.8ZM642.305 189.34V189.64C641.805 196.44 639.725 200.68 636.385 202.44C636.705 202.74 637.125 203.28 637.325 203.64C641.005 201.44 643.185 197.2 643.725 189.46L642.825 189.28L642.545 189.34H642.305Z" fill="#F6BC54"/>
<path d="M664.605 192.02V201.64C664.605 202 664.465 202.12 664.025 202.14C663.565 202.16 662.025 202.16 660.365 202.1C660.605 202.54 660.885 203.18 660.985 203.62C663.005 203.62 664.345 203.6 665.125 203.36C665.905 203.14 666.165 202.68 666.165 201.68V192.02H664.605ZM657.325 186.78V188.24H671.765V186.78H657.325ZM671.225 186.78V187.14C669.965 188.8 667.325 191.1 665.045 192.36C665.365 192.58 665.845 193.08 666.065 193.4C668.545 192 671.365 189.64 673.145 187.52L671.985 186.68L671.625 186.78H671.225Z" fill="#F6BC54"/>
<path fill-rule="evenodd" clip-rule="evenodd" d="M815.4 399.721C814.403 399.929 813.403 400.136 812.4 400.34V423.809L869.7 415.9L871.35 426.4L812.4 434.613V458.07L879.9 449.35L881.4 459.85L812.4 468.933V490.75C812.4 498.7 814.35 500.5 824.85 500.5H862.35C870.863 500.5 872.754 497.124 873.822 482.642C873.901 481.558 873.977 480.412 874.05 479.2C874.878 479.81 875.87 480.395 876.947 480.94C879.575 482.27 882.702 483.361 885.15 484C883.2 504.85 879.3 511.45 862.8 511.45H824.4C806.1 511.45 800.85 507.1 800.85 490.6V470.454L751.5 476.95L749.85 466.15L800.85 459.562V436.222L756.15 442.45L754.5 431.8L800.85 425.403V402.574C799.852 402.758 798.851 402.94 797.85 403.12C783.555 405.688 768.97 407.853 755.1 409.6C754.79 407.743 753.984 405.034 753.023 402.694C752.586 401.632 752.118 400.646 751.65 399.85C752.706 399.71 753.766 399.568 754.83 399.422C791.409 394.433 832.557 386.379 855.15 377.05L864.75 386.05C863.725 386.445 862.679 386.835 861.614 387.222C848.538 391.973 832.506 396.149 815.4 399.721ZM797.85 406.168C783.645 408.709 769.193 410.848 755.475 412.576L752.615 412.937L752.141 410.093C751.741 407.697 750.35 403.557 749.064 401.371L746.77 397.471L751.256 396.876C788.601 391.927 831.152 383.713 854.005 374.277L855.792 373.539L870.29 387.132L865.828 388.85C851.894 394.215 834.256 398.869 815.4 402.786V420.366L872.206 412.526L874.787 428.95L815.4 437.224V454.657L882.451 445.996L884.799 462.428L815.4 471.564V490.75C815.4 494.783 815.986 495.802 816.564 496.266C816.92 496.551 817.598 496.893 818.996 497.14C820.395 497.387 822.278 497.5 824.85 497.5H862.35C864.479 497.5 865.798 497.263 866.679 496.874C867.44 496.538 868.038 496.018 868.58 494.983C869.177 493.844 869.687 492.109 870.1 489.414C870.509 486.746 870.794 483.355 871.055 479.019L871.388 473.512L875.83 476.785C878.226 478.551 882.595 480.233 885.907 481.097L888.374 481.741L888.137 484.279C887.169 494.626 885.687 502.343 881.807 507.375C877.667 512.746 871.368 514.45 862.8 514.45H824.4C815.264 514.45 808.31 513.428 803.787 509.47C799.128 505.393 797.85 498.961 797.85 490.6V473.874L748.978 480.308L746.421 463.568L797.85 456.924V439.669L753.638 445.829L751.068 429.245L797.85 422.788V406.168ZM891.969 443.244L895.091 442.652C901.077 441.518 908.364 440.092 916.35 438.485V412.6H921.649C925.491 408.685 929.454 403.753 932.911 398.8H897V382.15H945.413L948.601 381.087L959.929 388.712L958.56 391.128C958.106 391.931 957.636 392.738 957.151 393.55H983.55V373H1000.65V393.55H1037.4V409.75H998.241L997.817 410.327C991.677 418.678 984.118 427.958 977.314 435.249C980.24 437.895 982.983 440.514 985.373 442.967C994.26 435.027 1001.93 426.251 1007.55 417.171L1008.91 414.967L1024.58 421.749L1022.67 424.72C1007.04 449.094 981.38 470.603 954.218 483.269L951.945 484.329L950.499 482.28C948.784 479.851 945.936 476.447 943.615 474.4L940.091 471.29L944.395 469.403C953.838 465.261 963.207 459.9 971.93 453.688C967.227 448.769 961.374 443.255 955.674 438.354L956.282 446.61L953.758 447.177C946.938 448.71 939.967 450.262 933.15 451.774V500.35C933.15 503.618 932.852 506.519 931.795 508.951C930.67 511.542 928.798 513.353 926.201 514.603L926.16 514.623L926.118 514.641C923.64 515.743 920.549 516.304 917.086 516.613C913.587 516.926 909.461 517 904.8 517H902.198L901.83 514.424C901.425 511.592 900.022 506.952 898.517 503.942L896.294 499.497L901.262 499.601C907.95 499.74 913.99 499.749 916.35 499.75V455.49C916.161 455.532 915.972 455.573 915.783 455.615C909.711 456.956 904.027 458.212 899.001 459.329L896.148 459.962L891.969 443.244ZM916.35 452.417C917.341 452.199 918.341 451.978 919.35 451.755V500.35C919.35 502.15 918.9 502.75 916.8 502.75C915.158 502.75 910.324 502.75 904.538 502.66C903.454 502.644 902.336 502.624 901.2 502.6C901.654 503.508 902.096 504.541 902.509 505.626C903.596 508.487 904.474 511.717 904.8 514C914.1 514 920.85 513.7 924.9 511.9C928.95 509.95 930.15 506.65 930.15 500.35V449.366C931.146 449.145 932.146 448.924 933.15 448.701C939.757 447.236 946.498 445.734 953.1 444.25L952.35 434.05C951.866 434.154 951.382 434.259 950.897 434.363C950.395 434.471 949.892 434.579 949.389 434.687C943.953 435.853 938.493 437.003 933.15 438.113C932.145 438.321 931.145 438.528 930.15 438.734V422.924C930.284 422.796 930.419 422.667 930.553 422.537C931.413 421.708 932.279 420.842 933.15 419.946C938.041 414.909 943.052 408.884 947.55 402.651C948.579 401.224 949.582 399.786 950.55 398.347V406.75H982.793C982.145 407.729 981.462 408.732 980.751 409.75C976.811 415.398 972.006 421.531 967.424 426.77C966.753 427.539 966.086 428.288 965.427 429.013C964.646 428.378 963.864 427.749 963.084 427.131C961.592 425.947 960.108 424.798 958.65 423.7L951.75 431.2C952.517 431.811 953.297 432.444 954.085 433.093C954.39 433.344 954.697 433.598 955.004 433.855C955.125 433.955 955.245 434.056 955.366 434.157C961.909 439.636 968.913 446.163 974.379 451.909C975.093 452.66 975.78 453.397 976.437 454.117C975.631 454.717 974.818 455.311 974 455.896C965.918 461.682 957.294 466.744 948.568 470.808C947.58 471.268 946.59 471.716 945.6 472.15C946.345 472.807 947.128 473.58 947.909 474.408C949.8 476.414 951.676 478.745 952.95 480.55C978.697 468.544 1003.05 448.449 1018.47 425.644C1019.04 424.799 1019.6 423.951 1020.15 423.1L1010.1 418.75C1004.33 428.07 996.497 437.042 987.439 445.144C986.695 445.809 985.943 446.469 985.183 447.122C984.53 446.416 983.838 445.689 983.112 444.946C980.786 442.564 978.11 440.011 975.247 437.425C974.512 436.76 973.764 436.093 973.007 435.426C973.686 434.725 974.376 433.999 975.075 433.25C981.131 426.767 987.835 418.634 993.578 411C993.892 410.582 994.204 410.165 994.513 409.75C994.811 409.348 995.107 408.948 995.4 408.55L991.694 406.75H1034.4V396.55H997.65V376H986.55V396.55H951.74C952.393 395.548 953.028 394.547 953.643 393.55C954.45 392.24 955.221 390.938 955.95 389.65L948.15 384.4L945.9 385.15H900V395.8H938.512C937.884 396.791 937.229 397.794 936.55 398.8C933.313 403.599 929.549 408.479 925.779 412.6C924.963 413.492 924.147 414.348 923.336 415.16C923.188 415.308 923.04 415.455 922.892 415.6H919.35V440.941C918.34 441.145 917.339 441.347 916.35 441.545C909.849 442.852 903.823 444.036 898.602 445.037C897.586 445.232 896.602 445.42 895.65 445.6L898.35 456.4C903.383 455.281 909.071 454.025 915.146 452.683C915.545 452.595 915.947 452.506 916.35 452.417ZM947.871 431.944L947.362 431.539L958.283 419.668L960.455 421.304C961.974 422.448 963.524 423.649 965.085 424.889C969.157 420.238 973.424 414.85 977.077 409.75H947.55V407.693C942.949 413.757 937.957 419.494 933.15 424.197V435.049C938 434.04 942.942 432.999 947.871 431.944ZM1020.72 443.075L1035.91 450.551L1034.07 453.385C1027.93 462.83 1020.35 471.701 1011.71 479.803C1021.76 487.773 1032.65 497.352 1038.59 504.06L1040.58 506.304L1026.73 518.598L1024.75 516.221C1019.19 509.552 1008.34 499.479 998.342 491.106C984.595 501.59 969.054 510.294 952.844 516.643L950.502 517.561L949.19 515.414C947.659 512.91 944.805 509.198 942.279 506.671L938.936 503.329L943.383 501.728C974.577 490.492 1003.67 469.693 1019.27 445.332L1020.72 443.075ZM995.971 489.14C996.79 488.52 997.603 487.894 998.409 487.262C999.188 487.904 999.974 488.559 1000.77 489.224C1009.64 496.681 1019.14 505.439 1025.08 512.035C1025.79 512.823 1026.45 513.58 1027.05 514.3L1036.35 506.05C1035.73 505.347 1035.05 504.61 1034.31 503.845C1028.17 497.415 1018.48 488.981 1009.48 481.861C1008.67 481.223 1007.87 480.597 1007.08 479.983C1007.84 479.303 1008.59 478.618 1009.33 477.928C1017.16 470.621 1024.1 462.683 1029.87 454.267C1030.44 453.432 1031 452.594 1031.55 451.75L1021.8 446.95C1006.27 471.188 977.961 491.775 947.471 503.411C946.449 503.801 945.426 504.181 944.4 504.55C945.125 505.275 945.872 506.087 946.608 506.938C948.614 509.258 950.543 511.875 951.75 513.85C967.51 507.677 982.602 499.253 995.971 489.14ZM750.75 558.6H882.15V575.25H801.647C800.677 580.396 799.635 585.794 798.547 591.3H859.391L859.033 594.622C856.506 618.024 852.912 648.916 849.82 669.9H886.5V686.4H745.65V669.9H831.677C832.617 664.039 833.61 657.411 834.596 650.4H785.678C785.191 652.348 784.714 654.208 784.251 655.965L783.598 658.44L765.506 656.631L766.459 653.197C771.919 633.543 779.023 600.935 783.628 575.25H750.75V558.6ZM787.206 572.25C787.034 573.238 786.857 574.239 786.676 575.25C782.281 599.853 775.557 630.967 770.152 651.065C769.881 652.072 769.614 653.051 769.35 654L781.35 655.2C781.752 653.675 782.165 652.072 782.585 650.4C782.831 649.423 783.079 648.422 783.33 647.4H838.043C837.904 648.407 837.765 649.407 837.626 650.4C836.644 657.396 835.655 664.021 834.715 669.9C834.551 670.923 834.389 671.924 834.229 672.9H748.65V683.4H883.5V672.9H846.336C846.485 671.926 846.636 670.925 846.788 669.9C849.754 649.861 853.203 620.462 855.725 597.3C855.835 596.288 855.943 595.287 856.05 594.3H794.893C795.093 593.297 795.292 592.297 795.489 591.3C796.577 585.801 797.621 580.403 798.595 575.25C798.785 574.24 798.973 573.24 799.158 572.25H879.15V561.6H753.75V572.25H787.206ZM785.752 637.2H839.41C839.54 636.202 839.67 635.202 839.798 634.2C840.948 625.208 842.025 616.079 842.924 607.5C843.03 606.492 843.133 605.492 843.234 604.5H792.829C792.624 605.501 792.418 606.501 792.211 607.5C790.303 616.719 788.34 625.836 786.439 634.2C786.209 635.211 785.98 636.212 785.752 637.2ZM789.515 634.2H836.773C837.925 625.216 839.005 616.086 839.908 607.5H795.274C793.374 616.697 791.416 625.811 789.515 634.2ZM958.8 583.05H982.529C982.748 574.295 982.769 565.269 982.79 556.057C982.793 554.755 982.796 553.45 982.8 552.142L982.808 549.15H999.758L999.749 552.334C999.722 562.699 999.696 572.988 999.417 583.05H1033.46L1033.35 586.157L1033.35 586.16L1033.34 586.338C1033.34 586.455 1033.33 586.623 1033.32 586.831C1033.31 587.246 1033.29 587.814 1033.27 588.428C1033.24 589.677 1033.2 591.054 1033.2 591.75V591.785L1033.2 591.821C1032.45 623.529 1031.74 644.842 1030.58 659.043C1030.01 666.14 1029.32 671.562 1028.43 675.663C1027.56 679.696 1026.43 682.763 1024.8 684.906C1023.07 687.231 1021.18 688.887 1018.92 689.995C1016.69 691.084 1014.3 691.546 1011.73 691.787C1006.85 692.259 998.544 692.096 990.637 691.798L988.001 691.698L987.762 689.072C987.487 686.041 986.374 681.959 984.824 679.694L981.325 674.581L987.506 675.007C996.097 675.6 1003.81 675.6 1006.95 675.6H1007.04L1007.13 675.605C1008.23 675.67 1008.79 675.576 1009.12 675.454C1009.36 675.363 1009.65 675.197 1010.03 674.642L1010.13 674.505L1010.24 674.38C1010.69 673.862 1011.44 672.325 1012.18 668.684C1012.89 665.196 1013.51 660.247 1014.05 653.426C1014.99 641.544 1015.68 624.263 1016.29 599.7H998.671C997.907 611.39 996.581 622.634 994.261 633.176C988.884 657.61 978.103 678.597 956.393 692.81L953.804 694.505L952.19 691.864C950.796 689.583 947.384 686.157 944.898 684.586L940.85 682.03L944.916 679.502C952.224 674.959 958.12 669.525 962.878 663.315C939.896 668.794 915.99 674.338 898.708 678.227L895.626 678.92L892.65 661.525L895.517 660.957C898.091 660.447 900.899 659.883 903.9 659.273V556.35H958.8V583.05ZM958.8 599.7V647.593C960.336 647.253 961.87 646.912 963.397 646.572L966.689 645.838L967.74 656.048C972.645 647.631 975.949 638.079 978.178 627.613C980.045 618.846 981.147 609.497 981.801 599.7H958.8ZM984.991 596.7C984.934 597.704 984.872 598.704 984.807 599.7C983.254 623.16 979.166 644.299 968.243 660.935C967.954 661.374 967.661 661.811 967.363 662.244C962.639 669.107 956.696 675.171 949.221 680.276C948.336 680.881 947.429 681.472 946.5 682.05C947.306 682.559 948.184 683.224 949.066 683.977C951.038 685.661 953.03 687.784 954.285 689.59C954.454 689.833 954.61 690.07 954.75 690.3C955.594 689.747 956.421 689.184 957.232 688.61C985.064 668.902 993.222 636.796 995.665 599.7C995.73 598.704 995.792 597.704 995.849 596.7H1019.36C1019.34 597.712 1019.31 598.712 1019.29 599.7C1017.98 652.52 1016.29 671.996 1012.5 676.35C1011.15 678.3 1009.5 678.75 1006.95 678.6C1004.24 678.6 998.095 678.6 990.894 678.219C989.721 678.156 988.519 678.084 987.3 678C987.911 678.893 988.448 679.962 988.907 681.11C989.913 683.63 990.544 686.533 990.75 688.8C998.7 689.1 1006.8 689.25 1011.45 688.8C1016.25 688.35 1019.4 687.15 1022.4 683.1C1027.35 676.65 1028.7 655.2 1030.2 591.75C1030.2 591.141 1030.22 590.087 1030.25 589.05C1030.3 587.532 1030.35 586.05 1030.35 586.05H996.324C996.358 585.053 996.388 584.053 996.416 583.05C996.668 573.937 996.715 564.604 996.742 555.15C996.745 554.151 996.747 553.151 996.75 552.15H985.8C985.796 553.501 985.793 554.849 985.79 556.195C985.769 565.313 985.749 574.298 985.531 583.05C985.506 584.053 985.478 585.053 985.448 586.05H960.9V596.7H984.991ZM958.8 650.665C957.801 650.886 956.801 651.107 955.8 651.327V559.35H906.9V661.723C905.88 661.932 904.879 662.135 903.9 662.334C901.119 662.899 898.507 663.423 896.1 663.9L898.05 675.3C899.007 675.085 899.984 674.864 900.98 674.639C918.725 670.628 942.518 665.097 965.1 659.7L964.05 649.5C963.069 649.719 962.086 649.937 961.102 650.156C960.335 650.326 959.568 650.496 958.8 650.665ZM945.3 653.621V633.75H916.95V659.649C917.939 659.443 918.939 659.234 919.95 659.023C927.002 657.547 934.566 655.94 942.3 654.27C943.297 654.055 944.298 653.838 945.3 653.621ZM942.3 651.201V636.75H919.95V655.958C927.013 654.479 934.576 652.87 942.3 651.201ZM916.95 623.7H945.3V601.8H916.95V623.7ZM919.95 620.7H942.3V604.8H919.95V620.7ZM916.95 591.6H945.3V569.7H916.95V591.6ZM919.95 588.6H942.3V572.7H919.95V588.6Z" fill="#F6BC54"/>
<g opacity="0.3">
<path d="M587.014 568.037C580.248 561.655 573.052 555.679 566.815 548.837C504.163 480.413 532.295 369.588 620.295 339.912C656.817 327.646 693.823 316.524 730.997 306.341C794.398 288.986 864.23 327.696 884.407 390.911C895.548 425.769 906.307 460.812 916.097 496.079C929.591 544.504 918.34 587.563 882.464 622.524C846.2 657.878 802.743 669.294 753.392 654.672C751.541 654.311 749.658 654.133 747.772 654.139L587.014 568.037Z" fill="#E6E6E6"/>
<path d="M521.979 90.282C528.032 84.3294 533.731 78.046 540.093 72.5065C557.891 57.405 580.064 48.4093 603.354 46.8416C626.643 45.2739 649.821 51.2167 669.483 63.7966C711.555 91.2813 730.626 142.764 715.852 189.098C697.028 248.08 636.372 280.908 577.739 262.094C524.895 245.213 485.054 189.926 505.792 124.861C506.221 122.985 506.476 121.074 506.552 119.151L521.979 90.282Z" fill="#E6E6E6"/>
<path d="M1022.61 501.817C967.296 472.189 948.268 408.282 978.059 352.592C1006.17 300.106 1073.25 279.981 1126.25 308.191C1179.25 336.401 1200.31 404.439 1171.83 457.013C1141.73 512.359 1077.93 531.514 1022.61 501.817Z" fill="#E6E6E6"/>
<path d="M1010.68 200.57C984.46 252.301 917.199 274.024 865.083 247.597C809.818 219.588 787.558 154.055 814.753 99.4509C821.151 86.3648 830.113 74.6973 841.106 65.1415C852.1 55.5858 864.901 48.3363 878.751 43.8236C892.6 39.3108 907.215 37.6266 921.728 38.8712C936.241 40.1159 950.356 44.264 963.235 51.069C1019.29 79.7133 1039.52 143.487 1010.68 200.57Z" fill="#E6E6E6"/>
</g>
<defs>
<clipPath id="clip0_1429_92">
<rect width="574" height="383" fill="white" transform="translate(0 54)"/>
</clipPath>
</defs>
</svg>
