<svg width="284" height="70" viewBox="0 0 284 70" fill="none" xmlns="http://www.w3.org/2000/svg">
<path fill-rule="evenodd" clip-rule="evenodd" d="M3.11987 5.12804H65.3119V12.24H26.7458C26.2306 14.9792 25.672 17.8723 25.087 20.824H54.3376L54.2181 21.9314C52.9849 33.3548 51.2228 48.4866 49.7236 58.552H67.3999V65.592H0.671875V58.552H41.8995C42.3914 55.5082 42.9143 52.0149 43.4321 48.312H19.1014C18.8393 49.367 18.5832 50.3697 18.3348 51.3112L18.1171 52.136L10.3264 51.3569L10.6444 50.2124C13.3062 40.6297 16.778 24.6557 18.9872 12.24H3.11987V5.12804ZM20.1789 11.24C20.1211 11.5706 20.0624 11.904 20.0028 12.24C17.8641 24.2924 14.5224 39.7546 11.8764 49.5019C11.7861 49.8347 11.6965 50.1609 11.6079 50.48L17.3679 51.056C17.5961 50.1911 17.8309 49.2741 18.0709 48.312C18.1527 47.9839 18.2352 47.6504 18.3183 47.312H44.5806C44.5344 47.6469 44.4881 47.9803 44.4418 48.312C43.9257 52.0088 43.4041 55.5008 42.9125 58.552C42.8579 58.8909 42.8036 59.2244 42.7498 59.552H1.67188V64.592H66.3999V59.552H48.5613C48.6114 59.2248 48.6618 58.8914 48.7125 58.552C50.1695 48.8019 51.8826 34.177 53.1156 22.824C53.1521 22.4878 53.1882 22.1544 53.2239 21.824H23.8686C23.9352 21.4901 24.0016 21.1567 24.0676 20.824C24.6526 17.8753 25.2118 14.9823 25.7283 12.24C25.7915 11.9044 25.8541 11.571 25.916 11.24H64.3119V6.12804H4.11987V11.24H20.1789ZM19.7103 41.416C19.6336 41.7521 19.5571 42.0855 19.4808 42.416H45.2369C45.2803 42.0833 45.3234 41.7499 45.3664 41.416C45.9597 36.8042 46.5143 32.1044 46.9694 27.72C47.0042 27.3848 47.0384 27.0514 47.072 26.72H22.8779C22.8095 27.0535 22.7409 27.3869 22.6721 27.72C21.6942 32.4572 20.6842 37.1499 19.7103 41.416ZM23.6932 27.72C22.7182 32.4487 21.71 37.1402 20.7359 41.416H44.3581C44.9519 36.8074 45.5076 32.107 45.964 27.72H23.6932ZM102.552 16.864H114.363C114.478 12.5245 114.489 8.04985 114.499 3.48784C114.501 2.85662 114.502 2.22373 114.504 1.58929L114.507 0.592041H121.762L121.76 1.64752C121.746 6.79311 121.733 11.8907 121.588 16.864H137.924L137.887 17.8997L137.887 17.9011L137.876 18.224C137.869 18.4235 137.86 18.6968 137.851 18.9923C137.833 19.5899 137.816 20.2581 137.816 20.6V20.6119L137.816 20.6237C137.456 35.8461 137.113 46.0633 136.562 52.8649C136.286 56.2647 135.955 58.8447 135.535 60.7851C135.12 62.7021 134.598 64.0984 133.871 65.0495C133.075 66.1218 132.221 66.8663 131.207 67.3623C130.207 67.8519 129.117 68.0663 127.911 68.1795C125.6 68.403 121.644 68.3268 117.842 68.1833L116.964 68.1502L116.884 67.2746C116.748 65.7805 116.201 63.7377 115.399 62.5647L114.232 60.8603L116.293 61.0024C120.432 61.2879 124.147 61.288 125.656 61.288H125.685L125.715 61.2898C126.27 61.3224 126.611 61.2802 126.853 61.1897C127.065 61.1101 127.271 60.9668 127.498 60.6388L127.529 60.5932L127.566 60.5513C127.865 60.2082 128.242 59.3674 128.598 57.6158C128.943 55.9156 129.241 53.5194 129.501 50.2391C129.96 44.4512 130.294 36.0076 130.589 23.976H121.269C120.908 29.717 120.271 35.2308 119.136 40.3899C116.571 52.0464 111.442 62.0011 101.148 68.7407L100.285 69.3057L99.7466 68.4255C99.0399 67.2691 97.3527 65.577 96.1059 64.7895L94.7566 63.9374L96.1119 63.0948C100.048 60.6477 103.14 57.6705 105.569 54.2439C94.186 56.9633 82.1902 59.7476 73.6034 61.6797L72.5758 61.9109L71.298 54.4405L72.2535 54.2511C73.5901 53.9862 75.0581 53.691 76.6319 53.3706V4.04804H102.104V47.9525C103.021 47.75 103.936 47.547 104.846 47.344L105.944 47.0994L106.531 52.8095C109.296 48.4525 111.098 43.4347 112.276 37.9057C113.207 33.5354 113.743 28.8666 114.054 23.976H102.552V16.864ZM115.116 22.976C115.097 23.3103 115.077 23.6437 115.056 23.976C114.004 40.606 110.37 54.8476 97.5568 63.3549C97.2562 63.5544 96.9506 63.7508 96.6399 63.944C96.9179 64.1196 97.2137 64.3339 97.5153 64.5747C98.5716 65.418 99.6985 66.5873 100.377 67.5633C100.458 67.6799 100.533 67.7938 100.6 67.904C100.881 67.7203 101.157 67.534 101.43 67.3454C115.192 57.8319 119.12 42.1279 120.267 23.976C120.288 23.6435 120.308 23.3102 120.328 22.976H131.613C131.605 23.3121 131.597 23.6454 131.589 23.976C130.96 49.6617 130.151 59.1062 128.32 61.208C127.672 62.144 126.88 62.36 125.656 62.288C124.292 62.288 121.113 62.288 117.438 62.0767C117.039 62.0538 116.633 62.0283 116.224 62C116.435 62.3086 116.628 62.6611 116.801 63.0402C117.398 64.342 117.768 65.9573 117.88 67.184C121.696 67.328 125.584 67.4 127.816 67.184C130.12 66.968 131.632 66.392 133.072 64.448C135.448 61.352 136.096 51.056 136.816 20.6C136.816 20.2201 136.836 19.4791 136.855 18.864C136.872 18.3137 136.888 17.864 136.888 17.864H120.556C120.567 17.5313 120.577 17.198 120.587 16.864C120.723 12.2091 120.744 7.43263 120.757 2.59204C120.758 2.259 120.759 1.92567 120.76 1.59204H115.504C115.502 2.24052 115.501 2.88776 115.499 3.53361C115.489 8.06323 115.479 12.5245 115.363 16.864C115.354 17.1981 115.345 17.5314 115.335 17.864H103.552V22.976H115.116ZM102.104 48.9766C101.771 49.0502 101.437 49.1237 101.104 49.197V5.04804H77.6319V54.1872C77.294 54.2562 76.9606 54.3242 76.6319 54.3911C75.1317 54.6962 73.7296 54.978 72.4479 55.232L73.3839 60.704C73.3839 60.704 73.3839 60.704 73.3839 60.704C73.7048 60.6318 74.0305 60.5584 74.3607 60.4839C82.9216 58.5515 94.5451 55.8504 105.568 53.216L105.064 48.32C104.737 48.393 104.409 48.4659 104.081 48.5387C103.423 48.6848 102.764 48.8309 102.104 48.9766ZM82.4559 53.1916C82.7866 53.1227 83.12 53.0532 83.4559 52.983C87.0983 52.2219 91.0368 51.3853 95.0639 50.5145C95.3966 50.4426 95.73 50.3704 96.0639 50.298V40.76H82.4559V53.1916ZM83.4559 41.76V51.9614C87.1025 51.199 91.0407 50.3618 95.0639 49.4914V41.76H83.4559ZM96.0639 25.424H82.4559V35.936H96.0639V25.424ZM95.0639 34.936V26.424H83.4559V34.936H95.0639ZM96.0639 10.016H82.4559V20.528H96.0639V10.016ZM95.0639 19.528V11.016H83.4559V19.528H95.0639ZM144.312 46.24H187.224V43.8492C172.711 44.1939 158.641 44.4777 148.424 44.6399L147.458 44.6552L147.14 38.392H148.192C155.113 38.392 164.226 38.3317 174.192 38.2218V36.216H151.944V14.56H174.192V12.456H146.4V6.13604H174.192V0.66404H181.52V6.13604H208.736V12.456H181.52V14.56H204.344V36.216H199.677C200.734 36.731 201.769 37.2642 202.758 37.8016L203.059 37.7961L203.046 37.9592C205.199 39.1418 207.116 40.3376 208.547 41.3962L209.501 42.1026L205.171 46.24H211.688V52.704H194.408V62C194.408 63.4409 194.267 64.7062 193.727 65.739C193.158 66.8291 192.221 67.526 190.934 67.9825L190.916 67.9888L190.898 67.9945C189.619 68.3942 188.02 68.578 186.065 68.669C184.107 68.76 181.712 68.76 178.815 68.76H177.937L177.804 67.916C177.61 66.6858 176.936 64.8475 176.251 63.5458L175.45 62.0233L177.169 62.0806C181.485 62.2245 185.475 62.2228 186.651 62.1539C186.908 62.1378 187.073 62.112 187.179 62.084C187.191 62.0808 187.202 62.0777 187.211 62.0748C187.218 62.0301 187.224 61.9602 187.224 61.856V52.704H164.265C167.755 54.9859 171.356 57.7486 173.344 59.9641L174.008 60.7036L168.548 65.6675L167.878 64.8797C165.525 62.1117 160.583 58.2159 156.307 55.5792L155.145 54.8627L157.647 52.704H144.312V46.24ZM160.337 51.704L156.832 54.728C157.124 54.9081 157.419 55.0941 157.717 55.2853C161.453 57.6857 165.546 60.9038 167.972 63.4874C168.212 63.7422 168.435 63.9909 168.64 64.232L172.6 60.632C172.556 60.5829 172.511 60.5334 172.465 60.4837C172.292 60.2955 172.107 60.1032 171.911 59.9073C169.625 57.6242 165.863 54.8597 162.408 52.704C161.845 52.353 161.291 52.0181 160.752 51.704H188.224V61.856C188.224 62.792 187.864 63.08 186.712 63.152C185.596 63.2177 182.147 63.2235 178.273 63.1149C177.897 63.1044 177.518 63.0928 177.136 63.08C177.301 63.3932 177.466 63.7365 177.624 64.0962C178.159 65.3079 178.625 66.7052 178.792 67.76C184.624 67.76 188.296 67.76 190.6 67.04C192.832 66.248 193.408 64.808 193.408 62V51.704H210.688V47.24H193.408V42.699C193.741 42.6907 194.075 42.6824 194.408 42.6741C195.89 42.6372 197.371 42.5997 198.847 42.5618C199.471 42.5457 200.094 42.5296 200.716 42.5134C201.054 42.7222 201.385 42.9308 201.705 43.1383C201.878 43.2507 202.049 43.3628 202.217 43.4745C203.158 44.1022 204.002 44.7166 204.712 45.296L207.952 42.2C207.692 42.0076 207.415 41.8104 207.123 41.6092C205.947 40.7997 204.524 39.9269 202.96 39.0546C202.848 38.9919 202.735 38.9293 202.621 38.8667C202.407 38.7485 202.19 38.6305 201.97 38.5127C201.55 38.2869 201.122 38.062 200.687 37.8392C199.596 37.2794 198.466 36.7325 197.326 36.216C196.556 35.867 195.781 35.5318 195.011 35.216H203.344V15.56H180.52V11.456H207.736V7.13604H180.52V1.66404H175.192V7.13604H147.4V11.456H175.192V15.56H152.944V35.216H175.192V39.2107C174.858 39.2144 174.524 39.2182 174.192 39.2218C164.7 39.3265 155.982 39.3862 149.193 39.3916C148.855 39.3919 148.521 39.392 148.192 39.392L148.408 43.64C158.627 43.4778 172.705 43.1938 187.224 42.8489C187.557 42.841 187.89 42.8331 188.224 42.8251V47.24H145.312V51.704H160.337ZM180.52 19.16V23.552H198.088V19.16H180.52ZM197.088 20.16H181.52V22.552H197.088V20.16ZM175.192 31.544V27.08H158.056V31.544H175.192ZM159.056 30.544H174.192V28.08H159.056V30.544ZM180.52 35.216V39.1467C180.853 39.1425 181.186 39.1382 181.52 39.1339C184.883 39.0904 188.302 39.0419 191.732 38.9887C192.519 38.9765 193.306 38.964 194.093 38.9514C193.372 38.6135 192.648 38.29 191.928 37.9855C191.188 37.6725 190.453 37.3796 189.732 37.1118C189.369 36.9773 189.01 36.8492 188.656 36.728L190.367 35.216H180.52ZM187.725 36.216H181.52V38.1338C184.093 38.1005 186.7 38.0643 189.319 38.0253C188.987 37.9026 188.658 37.7855 188.332 37.6743L186.705 37.1179L187.725 36.216ZM198.088 31.544V27.08H180.52V31.544H198.088ZM158.056 19.16V23.552H175.192V19.16H158.056ZM174.192 20.16H159.056V22.552H174.192V20.16ZM181.52 30.544H197.088V28.08H181.52V30.544ZM200.443 43.5209C198.439 43.5729 196.425 43.6242 194.408 43.6744V46.24H204.287L204.079 46.0707C203.102 45.2731 201.856 44.4024 200.443 43.5209ZM239.064 13.408H267.992V31.464H239.064V13.408ZM231.144 34.36H252.08V54.936H231.144V34.36ZM254.976 34.36H276.416V54.936H254.976V34.36ZM219.696 3.68804H281.888V10.512H226.952V58.336H283.76V65.304H226.952V68.832H219.696V3.68804ZM225.952 64.304H282.76V59.336H225.952V9.51204H280.888V4.68804H220.696V67.832H225.952V64.304ZM260.664 19.296H246.104V25.576H260.664V19.296ZM266.992 30.464V14.408H240.064V30.464H266.992ZM245.328 40.32H237.752V48.976H245.328V40.32ZM232.144 53.936V35.36H251.08V53.936H232.144ZM269.664 40.32H261.584V48.976H269.664V40.32ZM255.976 53.936V35.36H275.416V53.936H255.976ZM245.104 18.296V26.576H261.664V18.296H245.104ZM236.752 39.32V49.976H246.328V39.32H236.752ZM260.584 39.32V49.976H270.664V39.32H260.584Z" fill="#F6BC54"/>
</svg>
