<svg width="296" height="322" viewBox="0 0 296 322" fill="none" xmlns="http://www.w3.org/2000/svg">
<path fill-rule="evenodd" clip-rule="evenodd" d="M70.4004 26.7214C69.4039 26.9295 68.4038 27.1356 67.4004 27.3396V50.8086L124.7 42.9L126.35 53.4L67.4004 61.6131V85.0697L134.9 76.35L136.4 86.85L67.4004 95.9331V117.75C67.4004 125.7 69.3504 127.5 79.8504 127.5H117.35C125.863 127.5 127.754 124.124 128.822 109.642C128.902 108.558 128.977 107.412 129.05 106.2C129.878 106.81 130.871 107.395 131.947 107.94C134.575 109.27 137.703 110.361 140.15 111C138.2 131.85 134.3 138.45 117.8 138.45H79.4004C61.1004 138.45 55.8504 134.1 55.8504 117.6V97.4536L6.50039 103.95L4.85039 93.15L55.8504 86.5618V63.2223L11.1506 69.45L9.50039 58.8L55.8504 52.4027V29.5744C54.852 29.7583 53.8519 29.9402 52.8504 30.1201C38.5553 32.6878 23.9701 34.8526 10.1004 36.6C9.79085 34.7428 8.98449 32.0338 8.02306 29.6937C7.58679 28.6319 7.11859 27.6459 6.65039 26.85C7.70612 26.7101 8.76628 26.5675 9.83031 26.4224C46.4099 21.4325 87.5576 13.3786 110.15 4.05L119.75 13.05C118.725 13.4446 117.68 13.8355 116.615 14.2225C103.538 18.9735 87.5061 23.1488 70.4004 26.7214ZM52.8504 33.1681C38.6452 35.7086 24.1934 37.8482 10.4754 39.5765L7.61515 39.9368L7.14121 37.0932C6.74185 34.697 5.35021 30.5566 4.06459 28.3711L1.77017 24.4705L6.25625 23.876C43.6013 18.9267 86.1527 10.7131 109.005 1.27707L110.792 0.539371L125.29 14.1316L120.828 15.8496C106.894 21.2147 89.2562 25.8689 70.4004 29.7857V47.3661L127.207 39.5256L129.788 55.9501L70.4004 64.2241V81.6573L137.452 72.9955L139.799 89.4285L70.4004 98.5641V117.75C70.4004 121.783 70.9865 122.802 71.5649 123.266C71.9201 123.551 72.5983 123.893 73.997 124.14C75.3959 124.387 77.279 124.5 79.8504 124.5H117.35C119.48 124.5 120.799 124.263 121.679 123.874C122.441 123.538 123.038 123.018 123.58 121.983C124.177 120.844 124.688 119.109 125.101 116.414C125.51 113.746 125.794 110.355 126.056 106.019L126.388 100.512L130.83 103.785C133.227 105.551 137.595 107.233 140.908 108.097L143.375 108.741L143.137 111.279C142.17 121.626 140.687 129.343 136.808 134.375C132.667 139.746 126.369 141.45 117.8 141.45H79.4004C70.2641 141.45 63.3103 140.428 58.7874 136.47C54.1282 132.393 52.8504 125.961 52.8504 117.6V100.874L3.97859 107.308L1.42112 90.5681L52.8504 83.9244V66.6692L8.63811 72.829L6.06878 56.2452L52.8504 49.7884V33.1681ZM146.969 70.2441L150.092 69.6525C156.077 68.5184 163.365 67.0921 171.35 65.4854V39.6H176.65C180.492 35.6853 184.454 30.7526 187.912 25.8H152V9.15H200.414L203.601 8.08736L214.929 15.7118L213.561 18.1282C213.107 18.9307 212.636 19.7385 212.152 20.55H238.55V0H255.65V20.55H292.4V36.75H253.242L252.817 37.3272C246.677 45.6776 239.119 54.9582 232.314 62.2487C235.241 64.895 237.983 67.5137 240.373 69.9672C249.261 62.027 256.928 53.2512 262.55 44.1709L263.914 41.9674L279.581 48.7489L277.675 51.7199C262.039 76.094 236.381 97.6033 209.218 110.269L206.946 111.329L205.499 109.28C203.785 106.851 200.936 103.447 198.616 101.4L195.092 98.2902L199.395 96.4026C208.839 92.2608 218.208 86.9002 226.93 80.6883C222.228 75.7691 216.374 70.2548 210.675 65.3537L211.282 73.6096L208.758 74.177C201.939 75.7101 194.968 77.2623 188.15 78.7739V127.35C188.15 130.618 187.852 133.519 186.796 135.951C185.67 138.542 183.799 140.353 181.202 141.603L181.161 141.623L181.119 141.641C178.64 142.743 175.549 143.304 172.086 143.613C168.588 143.926 164.461 144 159.8 144H157.199L156.831 141.424C156.426 138.592 155.022 133.952 153.517 130.942L151.295 126.497L156.263 126.601C162.95 126.74 168.991 126.749 171.35 126.75V82.4898C171.161 82.5316 170.972 82.5733 170.783 82.615C164.711 83.9562 159.027 85.2117 154.001 86.3286L151.149 86.9625L146.969 70.2441ZM171.35 79.4175C172.341 79.1986 173.342 78.9776 174.35 78.7548V127.35C174.35 129.15 173.9 129.75 171.8 129.75C170.158 129.75 165.324 129.75 159.539 129.66C158.455 129.644 157.337 129.624 156.2 129.6C156.654 130.508 157.097 131.541 157.509 132.626C158.596 135.487 159.474 138.717 159.8 141C169.1 141 175.85 140.7 179.9 138.9C183.95 136.95 185.15 133.65 185.15 127.35V76.366C186.147 76.1453 187.147 75.9236 188.15 75.7011C194.757 74.2357 201.499 72.7341 208.1 71.25L207.35 61.05C206.867 61.1544 206.382 61.2588 205.898 61.363C205.395 61.4712 204.892 61.5792 204.389 61.6871C198.954 62.8527 193.493 64.0034 188.15 65.1127C187.146 65.3213 186.146 65.5284 185.15 65.7339V49.9245C185.285 49.7962 185.419 49.6671 185.554 49.5371C186.413 48.7075 187.28 47.8423 188.15 46.9458C193.042 41.9085 198.053 35.8843 202.55 29.6508C203.58 28.2241 204.582 26.7865 205.55 25.3472V33.75H237.793C237.145 34.7288 236.463 35.7315 235.752 36.75C231.811 42.398 227.006 48.5308 222.425 53.7705C221.753 54.5386 221.086 55.2876 220.428 56.013C219.646 55.3775 218.864 54.7493 218.084 54.1307C216.592 52.947 215.108 51.7983 213.65 50.7L206.75 58.2C207.518 58.8115 208.297 59.4436 209.085 60.093C209.391 60.3444 209.697 60.5984 210.005 60.8548C210.125 60.9552 210.246 61.056 210.366 61.1571C216.91 66.6363 223.913 73.1629 229.379 78.9094C230.093 79.66 230.781 80.3972 231.438 81.1171C230.631 81.7175 229.818 82.3107 229 82.8965C220.918 88.6821 212.294 93.7436 203.569 97.8078C202.58 98.2681 201.591 98.7157 200.6 99.15C201.345 99.8073 202.129 100.58 202.909 101.408C204.801 103.414 206.676 105.745 207.95 107.55C233.697 95.5444 258.049 75.4489 273.474 52.6436C274.045 51.7993 274.604 50.9514 275.15 50.1L265.1 45.75C259.331 55.07 251.498 64.0416 242.44 72.1438C241.696 72.8092 240.944 73.4687 240.184 74.1221C239.531 73.416 238.839 72.6892 238.113 71.9459C235.786 69.5635 233.11 67.0113 230.248 64.4248C229.512 63.7601 228.765 63.0932 228.007 62.4263C228.686 61.7252 229.377 60.9988 230.076 60.2504C236.131 53.7673 242.836 45.6344 248.578 38C248.893 37.5817 249.204 37.1649 249.513 36.75C249.812 36.3482 250.108 35.948 250.4 35.55L246.695 33.75H289.4V23.55H252.65V3H241.55V23.55H206.741C207.394 22.5479 208.029 21.5468 208.643 20.55C209.45 19.2403 210.221 17.9379 210.95 16.65L203.15 11.4L200.9 12.15H155V22.8H193.512C192.885 23.7912 192.229 24.7938 191.55 25.8C188.313 30.5986 184.549 35.4794 180.779 39.6C179.963 40.4919 179.147 41.3482 178.336 42.1603C178.188 42.3083 178.04 42.4549 177.893 42.6H174.35V67.9407C173.34 68.145 172.34 68.3466 171.35 68.5454C164.849 69.8518 158.824 71.036 153.602 72.0373C152.587 72.2319 151.602 72.4196 150.65 72.6L153.35 83.3997C158.384 82.2812 164.072 81.0251 170.146 79.6834C170.546 79.5951 170.947 79.5065 171.35 79.4175ZM202.871 58.9442L202.362 58.5387L213.284 46.6676L215.456 48.3039C216.975 49.4485 218.525 50.6491 220.085 51.8887C224.157 47.2385 228.425 41.8504 232.078 36.75H202.55V34.6934C197.949 40.7569 192.958 46.4944 188.15 51.1969V62.0487C193 61.0405 197.943 59.9991 202.871 58.9442ZM275.721 70.0745L290.908 77.5513L289.066 80.385C282.926 89.8301 275.349 98.701 266.713 106.803C276.759 114.773 287.647 124.352 293.595 131.06L295.585 133.304L281.727 145.598L279.746 143.221C274.189 136.552 263.342 126.479 253.342 118.106C239.596 128.59 224.055 137.294 207.845 143.643L205.502 144.561L204.191 142.414C202.66 139.91 199.806 136.198 197.279 133.671L193.937 130.329L198.384 128.728C229.577 117.492 258.666 96.6931 274.274 72.3316L275.721 70.0745ZM250.971 116.14C251.791 115.52 252.603 114.894 253.41 114.262C254.188 114.904 254.975 115.559 255.766 116.224C264.637 123.681 274.145 132.439 280.083 139.035C280.792 139.823 281.45 140.58 282.05 141.3L291.35 133.05C290.727 132.347 290.046 131.61 289.315 130.845C283.173 124.415 273.481 115.981 264.479 108.861C263.674 108.223 262.873 107.597 262.082 106.983C262.838 106.303 263.586 105.618 264.326 104.928C272.158 97.6212 279.103 89.6825 284.87 81.2667C285.442 80.4325 286.002 79.5935 286.55 78.75L276.8 73.95C261.271 98.1881 232.961 118.775 202.471 130.411C201.45 130.801 200.426 131.181 199.4 131.55C200.125 132.275 200.872 133.087 201.609 133.938C203.614 136.258 205.544 138.875 206.75 140.85C222.511 134.677 237.603 126.253 250.971 116.14ZM5.75039 185.6H137.15V202.25H56.648C55.6777 207.396 54.6357 212.794 53.5478 218.3H114.392L114.033 221.622C111.507 245.024 107.913 275.916 104.821 296.9H141.5V313.4H0.650391V296.9H86.6771C87.6179 291.039 88.6102 284.411 89.5966 277.4H40.6782C40.1914 279.348 39.7149 281.208 39.2511 282.965L38.5982 285.44L20.5061 283.631L21.4598 280.197C26.9192 260.543 34.0232 227.935 38.629 202.25H5.75039V185.6ZM42.2066 199.25C42.0341 200.238 41.8573 201.239 41.6766 202.25C37.2814 226.853 30.5576 257.967 25.1522 278.065C24.8815 279.072 24.614 280.051 24.3504 281L36.3504 282.2C36.7529 280.675 37.1651 279.072 37.5854 277.4C37.8311 276.423 38.0795 275.422 38.3304 274.4H93.0435C92.9046 275.407 92.7654 276.407 92.6261 277.4C91.6442 284.396 90.6552 291.021 89.7154 296.9C89.5518 297.923 89.3897 298.924 89.2294 299.9H3.65039V310.4H138.5V299.9H101.337C101.486 298.926 101.636 297.925 101.788 296.9C104.754 276.861 108.203 247.462 110.725 224.3C110.835 223.288 110.944 222.287 111.05 221.3H49.8935C50.0936 220.297 50.2924 219.297 50.4897 218.3C51.578 212.801 52.6216 207.403 53.595 202.25C53.7857 201.24 53.9738 200.24 54.1589 199.25H134.15V188.6H8.75039V199.25H42.2066ZM40.7524 264.2H94.411C94.5409 263.202 94.67 262.202 94.7982 261.2C95.9488 252.208 97.0254 243.079 97.9246 234.5C98.0303 233.492 98.1335 232.492 98.234 231.5H47.8296C47.6243 232.501 47.4182 233.501 47.2114 234.5C45.3033 243.719 43.3405 252.836 41.4392 261.2C41.2093 262.211 40.9803 263.212 40.7524 264.2ZM44.5154 261.2H91.7737C92.9258 252.216 94.0053 243.086 94.9081 234.5H50.2749C48.3747 243.697 46.4168 252.811 44.5154 261.2ZM213.8 210.05H237.53C237.748 201.295 237.769 192.269 237.791 183.057C237.794 181.755 237.797 180.45 237.8 179.142L237.809 176.15H254.758L254.75 179.334C254.723 189.699 254.696 199.988 254.418 210.05H288.459L288.348 213.157L288.348 213.16L288.342 213.338C288.338 213.455 288.332 213.623 288.325 213.831C288.311 214.246 288.293 214.814 288.274 215.428C288.236 216.677 288.2 218.054 288.2 218.75V218.785L288.2 218.821C287.45 250.529 286.736 271.842 285.584 286.043C285.009 293.14 284.316 298.562 283.429 302.663C282.556 306.696 281.433 309.763 279.796 311.906C278.07 314.231 276.183 315.887 273.919 316.995C271.692 318.084 269.297 318.546 266.734 318.787C261.847 319.259 253.544 319.096 245.637 318.798L243.002 318.698L242.763 316.072C242.487 313.041 241.374 308.959 239.824 306.694L236.326 301.581L242.507 302.007C251.097 302.6 258.81 302.6 261.95 302.6H262.039L262.127 302.605C263.231 302.67 263.794 302.576 264.122 302.454C264.363 302.363 264.65 302.197 265.034 301.642L265.129 301.505L265.238 301.38C265.689 300.862 266.44 299.325 267.181 295.684C267.89 292.196 268.507 287.247 269.047 280.426C269.989 268.544 270.679 251.263 271.287 226.7H253.671C252.907 238.39 251.581 249.634 249.262 260.176C243.885 284.61 233.103 305.597 211.394 319.81L208.804 321.505L207.191 318.864C205.796 316.583 202.385 313.157 199.898 311.586L195.851 309.03L199.916 306.502C207.224 301.959 213.12 296.525 217.878 290.315C194.896 295.794 170.991 301.338 153.709 305.227L150.626 305.92L147.651 288.525L150.517 287.957C153.092 287.447 155.9 286.883 158.9 286.273V183.35H213.8V210.05ZM213.8 226.7V274.593C215.337 274.253 216.87 273.912 218.398 273.572L221.689 272.838L222.74 283.048C227.645 274.631 230.95 265.079 233.179 254.613C235.046 245.846 236.147 236.497 236.801 226.7H213.8ZM239.991 223.7C239.934 224.704 239.873 225.704 239.807 226.7C238.255 250.16 234.167 271.299 223.243 287.935C222.955 288.374 222.662 288.811 222.364 289.244C217.639 296.107 211.697 302.171 204.222 307.276C203.336 307.881 202.429 308.472 201.5 309.05C202.306 309.559 203.184 310.224 204.066 310.977C206.038 312.661 208.031 314.784 209.286 316.59C209.455 316.833 209.61 317.07 209.75 317.3C210.595 316.747 211.422 316.184 212.233 315.61C240.065 295.902 248.222 263.796 250.665 226.7C250.731 225.704 250.792 224.704 250.85 223.7H274.361C274.337 224.712 274.313 225.712 274.288 226.7C272.98 279.52 271.292 298.996 267.5 303.35C266.15 305.3 264.5 305.75 261.95 305.6C259.242 305.6 253.095 305.6 245.895 305.219C244.721 305.156 243.52 305.084 242.3 305C242.911 305.893 243.448 306.962 243.907 308.11C244.914 310.63 245.544 313.533 245.75 315.8C253.7 316.1 261.8 316.25 266.45 315.8C271.25 315.35 274.4 314.15 277.4 310.1C282.35 303.65 283.7 282.2 285.2 218.75C285.2 218.141 285.225 217.087 285.254 216.05C285.297 214.532 285.35 213.05 285.35 213.05H251.325C251.358 212.053 251.388 211.053 251.416 210.05C251.669 200.937 251.716 191.604 251.742 182.15C251.745 181.151 251.748 180.151 251.75 179.15H240.8C240.797 180.501 240.794 181.849 240.791 183.195C240.77 192.313 240.749 201.298 240.531 210.05C240.506 211.053 240.479 212.053 240.448 213.05H215.9V223.7H239.991ZM213.8 277.665C212.801 277.886 211.801 278.107 210.8 278.327V186.35H161.9V288.723C160.88 288.932 159.88 289.135 158.9 289.334C156.119 289.899 153.508 290.423 151.1 290.9L153.05 302.3C154.007 302.085 154.985 301.864 155.981 301.639C173.726 297.628 197.518 292.097 220.1 286.7L219.05 276.5C218.07 276.719 217.087 276.937 216.102 277.156C215.336 277.326 214.568 277.496 213.8 277.665ZM200.3 280.621V260.75H171.95V286.649C172.939 286.443 173.94 286.234 174.95 286.023C182.003 284.547 189.566 282.94 197.3 281.27C198.298 281.055 199.298 280.838 200.3 280.621ZM197.3 278.201V263.75H174.95V282.958C182.013 281.479 189.576 279.87 197.3 278.201ZM171.95 250.7H200.3V228.8H171.95V250.7ZM174.95 247.7H197.3V231.8H174.95V247.7ZM171.95 218.6H200.3V196.7H171.95V218.6ZM174.95 215.6H197.3V199.7H174.95V215.6Z" fill="#F6BC54"/>
</svg>
