<svg width="89" height="1045" viewBox="0 0 89 1045" fill="none" xmlns="http://www.w3.org/2000/svg">
<path opacity="0.5" d="M87.3125 4.47656H88.3125V2.99236L86.9369 3.54976L87.3125 4.47656ZM87.3125 15.4336L87.6854 16.3615L88.3125 16.1095V15.4336L87.3125 15.4336ZM17.7617 43.3828L17.3888 42.4549L15.0774 43.3838L17.3895 44.311L17.7617 43.3828ZM87.3125 71.2734H88.3125V70.597L87.6847 70.3453L87.3125 71.2734ZM87.3125 82.2891L86.9359 83.2154L88.3125 83.7752V82.2891H87.3125ZM2 47.6016H1V48.2745L1.62335 48.5279L2 47.6016ZM2 39.0469L1.62444 38.1201L1 38.3731V39.0469H2ZM87.3125 0.902344H88.3125V-0.0976562H87.3125V0.902344ZM87.3125 10.5703L87.3429 11.5699L88.3125 11.5404V10.5703L87.3125 10.5703ZM35.2812 12.1523V13.1523H35.2964L35.3116 13.1519L35.2812 12.1523ZM2 12.1523H1V13.1523H2V12.1523ZM2 0.902344V-0.0976562H1V0.902344H2ZM87.3125 76.1367H88.3125V75.1667L87.3429 75.1372L87.3125 76.1367ZM87.3125 85.8047L87.3125 86.8047H88.3125L88.3125 85.8047H87.3125ZM2 85.8047H1V86.8047H2V85.8047ZM2 74.5547V73.5547H1V74.5547H2ZM35.2813 74.5547L35.3116 73.5552L35.2964 73.5547H35.2813V74.5547ZM86.3125 4.47656V15.4336L88.3125 15.4336V4.47656H86.3125ZM86.9396 14.5057L17.3888 42.4549L18.1346 44.3107L87.6854 16.3615L86.9396 14.5057ZM17.3895 44.311L86.9403 72.2016L87.6847 70.3453L18.1339 42.4547L17.3895 44.311ZM86.3125 71.2734V82.2891H88.3125V71.2734H86.3125ZM87.6891 81.3627L2.37665 46.6752L1.62335 48.5279L86.9359 83.2154L87.6891 81.3627ZM3 47.6016V39.0469H1V47.6016H3ZM2.37556 39.9737L87.6881 5.40336L86.9369 3.54976L1.62444 38.1201L2.37556 39.9737ZM86.3125 0.902344V10.5703L88.3125 10.5703V0.902344H86.3125ZM87.2821 9.57077L35.2509 11.1528L35.3116 13.1519L87.3429 11.5699L87.2821 9.57077ZM35.2812 11.1523L2 11.1523V13.1523L35.2812 13.1523V11.1523ZM3 12.1523V0.902344H1V12.1523H3ZM2 1.90234L87.3125 1.90234V-0.0976562L2 -0.0976562V1.90234ZM86.3125 76.1367V85.8047H88.3125V76.1367H86.3125ZM87.3125 84.8047L2 84.8047V86.8047L87.3125 86.8047L87.3125 84.8047ZM3 85.8047V74.5547H1V85.8047H3ZM2 75.5547L35.2813 75.5547V73.5547L2 73.5547V75.5547ZM35.2509 75.5542L87.2821 77.1363L87.3429 75.1372L35.3116 73.5552L35.2509 75.5542ZM79.7539 138.305L79.4125 139.245L79.5667 139.301L79.7307 139.304L79.7539 138.305ZM2 110.063H1V110.763L1.6586 111.002L2 110.063ZM2 98.5195L2.35619 97.5851L1 97.0682V98.5195H2ZM87.3125 131.039H88.3125V130.35L87.6687 130.105L87.3125 131.039ZM87.3125 138.48L87.2893 139.48L88.3125 139.504V138.48H87.3125ZM2 161.977L1.65797 161.037L1 161.276V161.977H2ZM79.7539 133.676L79.7307 132.676L79.5663 132.68L79.4119 132.736L79.7539 133.676ZM87.3125 133.5H88.3125V132.476L87.2893 132.5L87.3125 133.5ZM87.3125 140.941L87.6698 141.875L88.3125 141.63V140.941H87.3125ZM2 173.578H1V175.031L2.3573 174.512L2 173.578ZM33.582 160.512V161.512H34.582V160.512H33.582ZM24.3242 160.512H23.3242V161.512H24.3242V160.512ZM24.3242 112.582V111.582H23.3242V112.582H24.3242ZM33.582 112.582H34.582V111.582H33.582V112.582ZM80.0953 137.365L2.3414 109.123L1.6586 111.002L79.4125 139.245L80.0953 137.365ZM3 110.063V98.5195H1V110.063H3ZM1.64381 99.4539L86.9563 131.973L87.6687 130.105L2.35619 97.5851L1.64381 99.4539ZM86.3125 131.039V138.48H88.3125V131.039H86.3125ZM87.3357 137.481L79.7772 137.305L79.7307 139.304L87.2893 139.48L87.3357 137.481ZM2.34203 162.916L80.0959 134.615L79.4119 132.736L1.65797 161.037L2.34203 162.916ZM79.7772 134.676L87.3357 134.5L87.2893 132.5L79.7307 132.676L79.7772 134.676ZM86.3125 133.5V140.941H88.3125V133.5H86.3125ZM86.9552 140.007L1.6427 172.644L2.3573 174.512L87.6698 141.875L86.9552 140.007ZM3 173.578L3 161.977H1L1 173.578H3ZM33.582 159.512H24.3242V161.512H33.582V159.512ZM25.3242 160.512V112.582H23.3242V160.512H25.3242ZM24.3242 113.582H33.582V111.582H24.3242V113.582ZM32.582 112.582V160.512H34.582V112.582H32.582ZM11.7852 240.668L12.4311 239.905L11.7852 240.668ZM3.64063 229.828L4.55444 229.422L4.55302 229.419L3.64063 229.828ZM3.64063 201.879L2.72822 201.47L2.72681 201.473L3.64063 201.879ZM11.7852 190.98L11.1344 190.221L11.1296 190.225L11.7852 190.98ZM64.5195 183.832L64.8336 182.883L64.8291 182.881L64.5195 183.832ZM77.4688 190.922L76.8179 191.681L76.8221 191.685L77.4688 190.922ZM85.6719 201.762L86.5857 201.356L86.5843 201.352L85.6719 201.762ZM85.6719 229.711L84.7595 229.302L84.7581 229.305L85.6719 229.711ZM77.4688 240.551L76.8269 239.784L76.818 239.792L77.4688 240.551ZM64.5195 247.523L64.2187 246.57L64.2099 246.573L64.5195 247.523ZM60.9453 237.211L60.6937 236.243L60.6846 236.246L60.9453 237.211ZM76.8242 225.375L75.9225 224.943L75.9202 224.947L76.8242 225.375ZM76.8242 206.098L77.7259 205.665L77.7236 205.66L76.8242 206.098ZM70.7891 198.832L71.3965 198.038L71.3891 198.032L70.7891 198.832ZM28.3672 194.203L28.1 193.239L28.0976 193.24L28.3672 194.203ZM18.4648 198.891L17.863 198.092L17.8565 198.097L17.8501 198.102L18.4648 198.891ZM12.4297 206.215L11.5303 205.778L11.528 205.783L12.4297 206.215ZM18.4648 232.758L19.0592 231.954L19.0572 231.952L18.4648 232.758ZM28.3672 237.27L28.1156 238.237L28.1179 238.238L28.3672 237.27ZM47.3516 248.984H41.9609V250.984H47.3516V248.984ZM41.9609 248.984C35.6367 248.984 29.9986 248.194 25.0352 246.628L24.4336 248.536C29.6264 250.173 35.4727 250.984 41.9609 250.984V248.984ZM25.0352 246.628C20.0655 245.061 15.871 242.815 12.4311 239.905L11.1392 241.431C14.8087 244.536 19.247 246.9 24.4336 248.536L25.0352 246.628ZM12.4311 239.905C8.99046 236.993 6.36767 233.502 4.55444 229.422L2.72681 230.234C4.66358 234.592 7.47048 238.327 11.1392 241.431L12.4311 239.905ZM4.55302 229.419C2.74304 225.384 1.82813 220.839 1.82813 215.766H-0.171875C-0.171875 221.083 0.788208 225.913 2.72823 230.237L4.55302 229.419ZM1.82813 215.766C1.82813 210.854 2.74129 206.365 4.55444 202.285L2.72681 201.473C0.789963 205.831 -0.171875 210.6 -0.171875 215.766H1.82813ZM4.55302 202.288C6.36689 198.245 8.99264 194.729 12.4407 191.736L11.1296 190.225C7.4683 193.404 4.66436 197.154 2.72823 201.47L4.55302 202.288ZM12.436 191.74C15.8788 188.789 20.0764 186.485 25.0484 184.84L24.4203 182.941C19.2361 184.656 14.8009 187.078 11.1344 190.221L12.436 191.74ZM25.0484 184.84C30.0075 183.2 35.6409 182.371 41.9609 182.371V180.371C35.4684 180.371 29.6175 181.222 24.4203 182.941L25.0484 184.84ZM41.9609 182.371L47.3516 182.371V180.371L41.9609 180.371V182.371ZM47.3516 182.371C53.6739 182.371 59.2892 183.181 64.2099 184.783L64.8291 182.881C59.6717 181.202 53.8417 180.371 47.3516 180.371V182.371ZM64.2055 184.781C69.1775 186.426 73.3751 188.73 76.818 191.681L78.1195 190.163C74.453 187.02 70.0178 184.597 64.8336 182.883L64.2055 184.781ZM76.8221 191.685C80.3053 194.638 82.9473 198.131 84.7595 202.171L86.5843 201.352C84.6464 197.033 81.8197 193.3 78.1154 190.159L76.8221 191.685ZM84.7581 202.168C86.5712 206.247 87.4844 210.736 87.4844 215.648H89.4844C89.4844 210.482 88.5225 205.714 86.5857 201.356L84.7581 202.168ZM87.4844 215.648C87.4844 220.722 86.5695 225.267 84.7595 229.302L86.5843 230.12C88.5243 225.796 89.4844 220.966 89.4844 215.648H87.4844ZM84.7581 229.305C82.946 233.382 80.3055 236.872 76.8269 239.784L78.1106 241.318C81.8195 238.213 84.6478 234.477 86.5857 230.117L84.7581 229.305ZM76.818 239.792C73.3788 242.739 69.1859 245.003 64.2188 246.57L64.8203 248.477C70.0094 246.841 74.4494 244.456 78.1195 241.31L76.818 239.792ZM64.2099 246.573C59.2892 248.175 53.6739 248.984 47.3516 248.984V250.984C53.8417 250.984 59.6717 250.153 64.8291 248.474L64.2099 246.573ZM41.9609 239.793L47.4688 239.793V237.793L41.9609 237.793V239.793ZM47.4688 239.793C52.6136 239.793 57.1964 239.259 61.206 238.176L60.6846 236.246C56.8818 237.272 52.4802 237.793 47.4688 237.793V239.793ZM61.1969 238.179C65.2027 237.137 68.6089 235.584 71.3891 233.499L70.1891 231.899C67.6567 233.798 64.5004 235.253 60.6937 236.243L61.1969 238.179ZM71.3891 233.499C74.1702 231.413 76.2888 228.846 77.7282 225.803L75.9202 224.947C74.6253 227.685 72.7204 230.001 70.1891 231.899L71.3891 233.499ZM77.7259 225.807C79.1668 222.802 79.875 219.409 79.875 215.648H77.875C77.875 219.154 77.216 222.245 75.9225 224.943L77.7259 225.807ZM79.875 215.648C79.875 212 79.1647 208.666 77.7259 205.665L75.9225 206.53C77.2181 209.232 77.875 212.266 77.875 215.648H79.875ZM77.7236 205.66C76.2836 202.698 74.1678 200.157 71.3965 198.038L70.1816 199.626C72.7228 201.57 74.6305 203.872 75.9249 206.535L77.7236 205.66ZM71.3891 198.032C68.6145 195.951 65.2148 194.36 61.2149 193.24L60.6757 195.166C64.4883 196.234 67.6512 197.729 70.1891 199.632L71.3891 198.032ZM61.2149 193.24C57.2021 192.117 52.6162 191.562 47.4688 191.562V193.562C52.4776 193.562 56.876 194.102 60.6757 195.166L61.2149 193.24ZM47.4688 191.562L41.9609 191.563V193.563L47.4688 193.562V191.562ZM41.9609 191.563C36.7749 191.563 32.1509 192.116 28.1 193.239L28.6343 195.167C32.4741 194.102 36.9126 193.563 41.9609 193.563V191.563ZM28.0976 193.24C24.0949 194.361 20.6757 195.972 17.863 198.092L19.0667 199.689C21.6446 197.746 24.827 196.233 28.6368 195.166L28.0976 193.24ZM17.8501 198.102C15.0828 200.259 12.9693 202.817 11.5303 205.778L13.3291 206.652C14.6244 203.987 16.5344 201.663 19.0796 199.679L17.8501 198.102ZM11.528 205.783C10.0892 208.783 9.37891 212.117 9.37891 215.766H11.3789C11.3789 212.383 12.0358 209.349 13.3314 206.647L11.528 205.783ZM9.37891 215.766C9.37891 219.563 10.0864 222.976 11.528 225.983L13.3314 225.118C12.0386 222.422 11.3789 219.312 11.3789 215.766H9.37891ZM11.528 225.983C12.9691 228.989 15.0899 231.517 17.8725 233.563L19.0572 231.952C16.5273 230.092 14.6246 227.816 13.3314 225.118L11.528 225.983ZM17.8705 233.562C20.6872 235.644 24.1103 237.196 28.1156 238.237L28.6188 236.302C24.8116 235.312 21.6331 233.856 19.0592 231.954L17.8705 233.562ZM28.1179 238.238C32.1623 239.279 36.7801 239.793 41.9609 239.793V237.793C36.9074 237.793 32.4627 237.291 28.6165 236.301L28.1179 238.238ZM79.7539 387.797L79.4125 388.737L79.5667 388.793L79.7307 388.797L79.7539 387.797ZM2 359.555H1V360.255L1.6586 360.495L2 359.555ZM2 348.012L2.35619 347.077L1 346.56V348.012H2ZM87.3125 380.531H88.3125V379.842L87.6687 379.597L87.3125 380.531ZM87.3125 387.973L87.2893 388.972L88.3125 388.996V387.973H87.3125ZM2 411.469L1.65797 410.529L1 410.769V411.469H2ZM79.7539 383.168L79.7307 382.168L79.5663 382.172L79.4119 382.228L79.7539 383.168ZM87.3125 382.992H88.3125V381.969L87.2893 381.992L87.3125 382.992ZM87.3125 390.434L87.6698 391.368L88.3125 391.122V390.434H87.3125ZM2 423.07H1V424.524L2.3573 424.004L2 423.07ZM33.582 410.004V411.004H34.582V410.004H33.582ZM24.3242 410.004H23.3242V411.004H24.3242V410.004ZM24.3242 362.074V361.074H23.3242V362.074H24.3242ZM33.582 362.074H34.582V361.074H33.582V362.074ZM80.0953 386.857L2.3414 358.615L1.6586 360.495L79.4125 388.737L80.0953 386.857ZM3 359.555V348.012H1V359.555H3ZM1.64381 348.946L86.9563 381.466L87.6687 379.597L2.35619 347.077L1.64381 348.946ZM86.3125 380.531V387.973H88.3125V380.531H86.3125ZM87.3357 386.973L79.7772 386.797L79.7307 388.797L87.2893 388.972L87.3357 386.973ZM2.34203 412.408L80.0959 384.108L79.4119 382.228L1.65797 410.529L2.34203 412.408ZM79.7772 384.168L87.3357 383.992L87.2893 381.992L79.7307 382.168L79.7772 384.168ZM86.3125 382.992V390.434H88.3125V382.992H86.3125ZM86.9552 389.5L1.6427 422.136L2.3573 424.004L87.6698 391.368L86.9552 389.5ZM3 423.07V411.469H1V423.07H3ZM33.582 409.004H24.3242V411.004H33.582V409.004ZM25.3242 410.004L25.3242 362.074H23.3242L23.3242 410.004H25.3242ZM24.3242 363.074H33.582V361.074H24.3242V363.074ZM32.582 362.074L32.582 410.004H34.582L34.582 362.074H32.582ZM28.8359 479.027L28.4848 478.091L28.4705 478.096L28.4564 478.102L28.8359 479.027ZM33.0547 475.863L32.2897 475.219L32.2816 475.229L33.0547 475.863ZM36.6289 469.652L35.7112 469.255L35.7091 469.26L36.6289 469.652ZM40.0859 459.691L39.1271 459.407L39.1258 459.412L40.0859 459.691ZM44.2461 448.266L43.3375 447.848L43.3336 447.857L44.2461 448.266ZM81.8047 439.945L81.0297 440.577L81.0307 440.579L81.8047 439.945ZM84.793 477.328L83.9177 476.844L83.9127 476.854L84.793 477.328ZM75.2422 487.582L74.7314 486.722L74.7277 486.725L75.2422 487.582ZM62.7031 491.098H61.7031V492.098H62.7031V491.098ZM62.7031 479.848V478.848H61.7031V479.848H62.7031ZM71.1992 477.797L70.7194 476.919L70.7136 476.923L71.1992 477.797ZM77.0586 471.586L76.1717 471.124L76.1667 471.134L77.0586 471.586ZM72.4883 445.219L73.0169 444.37L73.0051 444.363L72.4883 445.219ZM60.4766 444.457L60.0294 443.563L60.0151 443.57L60.001 443.577L60.4766 444.457ZM56.4336 448.031L55.6452 447.416L55.6382 447.425L56.4336 448.031ZM52.9766 454.242L52.0552 453.853L52.0531 453.859L52.9766 454.242ZM49.9297 463.324L50.8921 463.596L50.8932 463.592L49.9297 463.324ZM39.6758 484.535L38.9439 483.854L38.9378 483.86L38.9319 483.867L39.6758 484.535ZM32.5859 489.633L32.2052 488.708L32.1969 488.712L32.1887 488.715L32.5859 489.633ZM7.03906 483.188L7.83477 482.582L7.03906 483.188ZM2.41016 473.754L1.44978 474.033L1.45177 474.039L2.41016 473.754ZM2.46875 449.906L1.50797 449.629L1.50723 449.632L2.46875 449.906ZM7.39063 439.535L6.57479 438.957L6.5714 438.962L7.39063 439.535ZM15.4766 432.094L14.9838 431.224L14.9776 431.227L14.9714 431.231L15.4766 432.094ZM26.7266 429.34H27.7266V428.34H26.7266V429.34ZM26.7266 440.59V441.59H27.7266V440.59H26.7266ZM19.168 442.289L18.6948 441.408L18.688 441.412L19.168 442.289ZM14.0117 446.918L13.1925 446.344L13.1872 446.352L14.0117 446.918ZM10.9648 453.656L9.99836 453.4L9.99601 453.408L9.99383 453.417L10.9648 453.656ZM16.3555 477.797L16.9353 476.982L16.9247 476.975L16.3555 477.797ZM23.5625 480.965C25.6582 480.965 27.5492 480.636 29.2155 479.953L28.4564 478.102C27.0758 478.669 25.4511 478.965 23.5625 478.965V480.965ZM29.1871 479.964C30.9419 479.306 32.4865 478.132 33.8278 476.498L32.2816 475.229C31.1229 476.641 29.8549 477.577 28.4848 478.091L29.1871 479.964ZM33.8196 476.507C35.1564 474.92 36.3941 472.752 37.5488 470.045L35.7091 469.26C34.5981 471.865 33.453 473.838 32.2898 475.219L33.8196 476.507ZM37.5466 470.05C38.7017 467.381 39.8674 464.018 41.046 459.971L39.1258 459.412C37.9608 463.412 36.8217 466.689 35.7112 469.255L37.5466 470.05ZM41.0447 459.975C42.2843 455.792 43.6563 452.026 45.1586 448.675L43.3336 447.857C41.789 451.302 40.3876 455.153 39.1271 459.407L41.0447 459.975ZM45.1547 448.683C46.6879 445.348 48.4221 442.515 50.3504 440.17L48.8058 438.9C46.7498 441.399 44.9292 444.386 43.3375 447.848L45.1547 448.683ZM50.3504 440.17C52.2615 437.847 54.4387 436.084 56.8808 434.863L55.9864 433.074C53.2723 434.431 50.8791 436.379 48.8058 438.9L50.3504 440.17ZM56.8808 434.863C59.3004 433.653 62.0925 433.035 65.2813 433.035V431.035C61.8293 431.035 58.7231 431.706 55.9864 433.074L56.8808 434.863ZM65.2813 433.035C68.4597 433.035 71.3754 433.688 74.0433 434.985L74.9177 433.187C71.9606 431.749 68.7435 431.035 65.2813 431.035V433.035ZM74.0433 434.985C76.7188 436.286 79.0467 438.145 81.0297 440.577L82.5797 439.313C80.422 436.667 77.8671 434.62 74.9177 433.187L74.0433 434.985ZM81.0307 440.579C83.0533 443.051 84.6387 446.005 85.7768 449.458L87.6763 448.831C86.4707 445.174 84.7748 441.996 82.5786 439.312L81.0307 440.579ZM85.7768 449.458C86.9103 452.896 87.4844 456.753 87.4844 461.039H89.4844C89.4844 456.575 88.8865 452.503 87.6763 448.831L85.7768 449.458ZM87.4844 461.039C87.4844 467.319 86.2783 472.573 83.9177 476.844L85.6682 477.812C88.2295 473.177 89.4844 467.571 89.4844 461.039H87.4844ZM83.9127 476.854C81.567 481.205 78.504 484.481 74.7315 486.722L75.7529 488.442C79.871 485.995 83.1752 482.436 85.6732 477.803L83.9127 476.854ZM74.7277 486.725C70.9731 488.977 66.9707 490.098 62.7031 490.098V492.098C67.3418 492.098 71.6988 490.874 75.7567 488.44L74.7277 486.725ZM63.7031 491.098V479.848H61.7031V491.098H63.7031ZM62.7031 480.848C66.0525 480.848 69.0559 480.132 71.6849 478.671L70.7136 476.923C68.4207 478.197 65.76 478.848 62.7031 478.848V480.848ZM71.679 478.674C74.3724 477.201 76.4617 474.974 77.9505 472.038L76.1667 471.134C74.843 473.744 73.0261 475.658 70.7194 476.919L71.679 478.674ZM77.9454 472.048C79.487 469.09 80.2266 465.402 80.2266 461.039H78.2266C78.2266 465.191 77.5208 468.535 76.1718 471.124L77.9454 472.048ZM80.2266 461.039C80.2266 456.924 79.6086 453.448 78.3177 450.658L76.5026 451.498C77.6335 453.942 78.2266 457.107 78.2266 461.039H80.2266ZM78.3177 450.658C77.0401 447.897 75.2808 445.78 73.0168 444.37L71.9597 446.068C73.8363 447.236 75.3583 449.025 76.5026 451.498L78.3177 450.658ZM73.0051 444.363C70.7638 443.009 68.2184 442.344 65.3984 442.344V444.344C67.891 444.344 70.0722 444.928 71.9714 446.075L73.0051 444.363ZM65.3984 442.344C63.4594 442.344 61.6638 442.745 60.0294 443.563L60.9238 445.351C62.258 444.684 63.7437 444.344 65.3984 444.344V442.344ZM60.001 443.577C58.4092 444.438 56.9607 445.731 55.6453 447.416L57.2219 448.647C58.4065 447.129 59.6533 446.039 60.9521 445.337L60.001 443.577ZM55.6382 447.425C54.3241 449.15 53.1329 451.299 52.0552 453.853L53.8979 454.631C54.9296 452.186 56.0431 450.194 57.229 448.637L55.6382 447.425ZM52.0531 453.859C50.9786 456.445 49.9504 459.513 48.9662 463.057L50.8932 463.592C51.8621 460.104 52.8652 457.117 53.9001 454.626L52.0531 453.859ZM48.9673 463.053C47.6114 467.856 46.1063 471.98 44.4571 475.432L46.2617 476.294C47.9718 472.715 49.5136 468.479 50.8921 463.596L48.9673 463.053ZM44.4571 475.432C42.8104 478.879 40.9689 481.679 38.9439 483.854L40.4077 485.217C42.6014 482.86 44.549 479.879 46.2617 476.294L44.4571 475.432ZM38.9319 483.867C36.9538 486.069 34.712 487.676 32.2052 488.708L32.9667 490.557C35.7724 489.402 38.2571 487.611 40.4197 485.203L38.9319 483.867ZM32.1887 488.715C29.7158 489.785 26.8856 490.332 23.6797 490.332V492.332C27.1144 492.332 30.2217 491.746 32.9832 490.551L32.1887 488.715ZM23.6797 490.332C20.3417 490.332 17.3528 489.658 14.6933 488.328L13.7989 490.117C16.7644 491.6 20.0645 492.332 23.6797 492.332V490.332ZM14.6933 488.328C12.0238 486.993 9.73876 485.083 7.83477 482.582L6.24335 483.793C8.32374 486.526 10.8434 488.639 13.7989 490.117L14.6933 488.328ZM7.83477 482.582C5.92666 480.075 4.43342 477.043 3.36855 473.468L1.45177 474.039C2.57439 477.808 4.16709 481.066 6.24335 483.793L7.83477 482.582ZM3.37051 473.475C2.3465 469.948 1.82813 465.981 1.82813 461.566H-0.171875C-0.171875 466.136 0.364441 470.294 1.44981 474.033L3.37051 473.475ZM1.82813 461.566C1.82813 457.715 2.36182 453.921 3.43027 450.181L1.50723 449.632C0.388184 453.548 -0.171875 457.527 -0.171875 461.566H1.82813ZM3.42952 450.184C4.49377 446.497 6.08765 443.14 8.20985 440.109L6.5714 438.962C4.3186 442.18 2.63123 445.738 1.50798 449.629L3.42952 450.184ZM8.20644 440.113C10.3134 437.141 12.9036 434.759 15.9817 432.957L14.9714 431.231C11.6433 433.179 8.84283 435.757 6.57481 438.957L8.20644 440.113ZM15.9693 432.964C19.0409 431.225 22.6164 430.34 26.7266 430.34V428.34C22.3211 428.34 18.3966 429.291 14.9838 431.224L15.9693 432.964ZM25.7266 429.34V440.59H27.7266V429.34H25.7266ZM26.7266 439.59C23.6683 439.59 20.9788 440.182 18.6948 441.408L19.6411 443.17C21.5759 442.131 23.9255 441.59 26.7266 441.59V439.59ZM18.688 441.412C16.4813 442.619 14.6469 444.267 13.1925 446.345L14.8309 447.491C16.1109 445.663 17.714 444.225 19.648 443.166L18.688 441.412ZM13.1872 446.352C11.751 448.445 10.6897 450.797 9.99836 453.4L11.9313 453.913C12.5681 451.516 13.5381 449.375 14.8362 447.484L13.1872 446.352ZM9.99383 453.417C9.34872 456.038 9.02734 458.755 9.02734 461.566H11.0273C11.0273 458.909 11.331 456.353 11.9359 453.895L9.99383 453.417ZM9.02734 461.566C9.02734 465.598 9.58543 469.072 10.7395 471.957L12.5964 471.215C11.563 468.631 11.0273 465.425 11.0273 461.566H9.02734ZM10.7395 471.957C11.8919 474.838 13.5647 477.081 15.7863 478.619L16.9247 476.975C15.0837 475.7 13.6315 473.802 12.5964 471.215L10.7395 471.957ZM15.7757 478.612C17.9952 480.191 20.6057 480.965 23.5625 480.965V478.965C20.9724 478.965 18.7783 478.293 16.9352 476.982L15.7757 478.612ZM28.8359 550.277L28.4848 549.341L28.4705 549.346L28.4564 549.352L28.8359 550.277ZM33.0547 547.113L32.2897 546.469L32.2816 546.479L33.0547 547.113ZM36.6289 540.902L35.7112 540.505L35.7091 540.51L36.6289 540.902ZM40.0859 530.941L39.1271 530.657L39.1258 530.662L40.0859 530.941ZM44.2461 519.516L43.3375 519.098L43.3336 519.107L44.2461 519.516ZM81.8047 511.195L81.0297 511.827L81.0307 511.829L81.8047 511.195ZM84.793 548.578L83.9177 548.094L83.9127 548.104L84.793 548.578ZM75.2422 558.832L74.7314 557.972L74.7277 557.975L75.2422 558.832ZM62.7031 562.348H61.7031V563.348H62.7031V562.348ZM62.7031 551.098V550.098H61.7031V551.098H62.7031ZM71.1992 549.047L70.7194 548.169L70.7136 548.173L71.1992 549.047ZM77.0586 542.836L76.1717 542.374L76.1667 542.384L77.0586 542.836ZM72.4883 516.469L73.0169 515.62L73.0051 515.613L72.4883 516.469ZM60.4766 515.707L60.0294 514.813L60.0151 514.82L60.001 514.827L60.4766 515.707ZM56.4336 519.281L55.6452 518.666L55.6382 518.675L56.4336 519.281ZM52.9766 525.492L52.0552 525.103L52.0531 525.109L52.9766 525.492ZM49.9297 534.574L50.8921 534.846L50.8932 534.842L49.9297 534.574ZM39.6758 555.785L38.9439 555.104L38.9378 555.11L38.9319 555.117L39.6758 555.785ZM32.5859 560.883L32.2052 559.958L32.1969 559.962L32.1887 559.965L32.5859 560.883ZM7.03906 554.438L7.83477 553.832L7.03906 554.438ZM2.41016 545.004L1.44978 545.283L1.45177 545.289L2.41016 545.004ZM2.46875 521.156L1.50797 520.879L1.50723 520.882L2.46875 521.156ZM7.39063 510.785L6.57479 510.207L6.5714 510.212L7.39063 510.785ZM15.4766 503.344L14.9838 502.474L14.9776 502.477L14.9714 502.481L15.4766 503.344ZM26.7266 500.59H27.7266V499.59H26.7266V500.59ZM26.7266 511.84V512.84H27.7266V511.84H26.7266ZM19.168 513.539L18.6948 512.658L18.688 512.662L19.168 513.539ZM14.0117 518.168L13.1925 517.594L13.1872 517.602L14.0117 518.168ZM10.9648 524.906L9.99836 524.65L9.99601 524.658L9.99383 524.667L10.9648 524.906ZM16.3555 549.047L16.9353 548.232L16.9247 548.225L16.3555 549.047ZM23.5625 552.215C25.6582 552.215 27.5492 551.886 29.2155 551.203L28.4564 549.352C27.0758 549.919 25.4511 550.215 23.5625 550.215V552.215ZM29.1871 551.214C30.9419 550.556 32.4865 549.382 33.8278 547.748L32.2816 546.479C31.1229 547.891 29.8549 548.827 28.4848 549.341L29.1871 551.214ZM33.8196 547.757C35.1564 546.17 36.3941 544.002 37.5488 541.295L35.7091 540.51C34.5981 543.115 33.453 545.088 32.2898 546.469L33.8196 547.757ZM37.5466 541.3C38.7017 538.631 39.8674 535.268 41.046 531.221L39.1258 530.662C37.9608 534.662 36.8217 537.939 35.7112 540.505L37.5466 541.3ZM41.0447 531.226C42.2843 527.042 43.6563 523.276 45.1586 519.925L43.3336 519.107C41.789 522.552 40.3876 526.403 39.1271 530.657L41.0447 531.226ZM45.1547 519.933C46.6879 516.598 48.4221 513.765 50.3504 511.42L48.8058 510.15C46.7498 512.649 44.9292 515.636 43.3375 519.098L45.1547 519.933ZM50.3504 511.42C52.2615 509.097 54.4387 507.334 56.8808 506.113L55.9864 504.324C53.2723 505.681 50.8791 507.629 48.8058 510.15L50.3504 511.42ZM56.8808 506.113C59.3004 504.903 62.0925 504.285 65.2813 504.285V502.285C61.8293 502.285 58.7231 502.956 55.9864 504.324L56.8808 506.113ZM65.2813 504.285C68.4597 504.285 71.3754 504.938 74.0433 506.235L74.9177 504.437C71.9606 502.999 68.7435 502.285 65.2813 502.285V504.285ZM74.0433 506.235C76.7188 507.536 79.0467 509.395 81.0297 511.827L82.5797 510.563C80.422 507.917 77.8671 505.87 74.9177 504.437L74.0433 506.235ZM81.0307 511.829C83.0533 514.301 84.6387 517.255 85.7768 520.708L87.6763 520.081C86.4707 516.424 84.7748 513.246 82.5786 510.562L81.0307 511.829ZM85.7768 520.708C86.9103 524.146 87.4844 528.003 87.4844 532.289H89.4844C89.4844 527.825 88.8865 523.753 87.6763 520.081L85.7768 520.708ZM87.4844 532.289C87.4844 538.569 86.2783 543.823 83.9177 548.094L85.6682 549.062C88.2295 544.427 89.4844 538.821 89.4844 532.289H87.4844ZM83.9127 548.104C81.567 552.455 78.504 555.731 74.7315 557.972L75.7529 559.692C79.871 557.245 83.1752 553.686 85.6732 549.053L83.9127 548.104ZM74.7277 557.975C70.9731 560.227 66.9707 561.348 62.7031 561.348V563.348C67.3418 563.348 71.6988 562.124 75.7567 559.69L74.7277 557.975ZM63.7031 562.348V551.098H61.7031V562.348H63.7031ZM62.7031 552.098C66.0525 552.098 69.0559 551.382 71.6849 549.921L70.7136 548.173C68.4207 549.447 65.76 550.098 62.7031 550.098V552.098ZM71.679 549.924C74.3724 548.451 76.4617 546.224 77.9505 543.288L76.1667 542.384C74.843 544.994 73.0261 546.908 70.7194 548.169L71.679 549.924ZM77.9454 543.298C79.487 540.34 80.2266 536.652 80.2266 532.289H78.2266C78.2266 536.441 77.5208 539.785 76.1718 542.374L77.9454 543.298ZM80.2266 532.289C80.2266 528.174 79.6086 524.698 78.3177 521.908L76.5026 522.748C77.6335 525.192 78.2266 528.357 78.2266 532.289H80.2266ZM78.3177 521.908C77.0401 519.147 75.2808 517.03 73.0168 515.62L71.9597 517.318C73.8363 518.486 75.3583 520.275 76.5026 522.748L78.3177 521.908ZM73.0051 515.613C70.7638 514.259 68.2184 513.594 65.3984 513.594V515.594C67.891 515.594 70.0722 516.178 71.9714 517.325L73.0051 515.613ZM65.3984 513.594C63.4594 513.594 61.6638 513.995 60.0294 514.813L60.9238 516.601C62.258 515.934 63.7437 515.594 65.3984 515.594V513.594ZM60.001 514.827C58.4092 515.688 56.9607 516.981 55.6453 518.666L57.2219 519.897C58.4065 518.379 59.6533 517.289 60.9521 516.587L60.001 514.827ZM55.6382 518.675C54.3241 520.4 53.1329 522.549 52.0552 525.104L53.8979 525.881C54.9296 523.436 56.0431 521.444 57.229 519.887L55.6382 518.675ZM52.0531 525.109C50.9786 527.695 49.9504 530.763 48.9662 534.307L50.8932 534.842C51.8621 531.354 52.8652 528.367 53.9001 525.876L52.0531 525.109ZM48.9673 534.303C47.6114 539.106 46.1063 543.23 44.4571 546.682L46.2617 547.544C47.9718 543.965 49.5136 539.729 50.8921 534.846L48.9673 534.303ZM44.4571 546.682C42.8104 550.129 40.9689 552.929 38.9439 555.104L40.4077 556.467C42.6014 554.11 44.549 551.129 46.2617 547.544L44.4571 546.682ZM38.9319 555.117C36.9538 557.319 34.712 558.926 32.2052 559.958L32.9667 561.807C35.7724 560.652 38.2571 558.861 40.4197 556.453L38.9319 555.117ZM32.1887 559.965C29.7158 561.035 26.8856 561.582 23.6797 561.582V563.582C27.1144 563.582 30.2217 562.996 32.9832 561.801L32.1887 559.965ZM23.6797 561.582C20.3417 561.582 17.3528 560.908 14.6933 559.578L13.7989 561.367C16.7644 562.85 20.0645 563.582 23.6797 563.582V561.582ZM14.6933 559.578C12.0238 558.243 9.73876 556.333 7.83477 553.832L6.24335 555.043C8.32374 557.776 10.8434 559.889 13.7989 561.367L14.6933 559.578ZM7.83477 553.832C5.92666 551.325 4.43342 548.293 3.36855 544.718L1.45177 545.289C2.57439 549.058 4.16709 552.316 6.24335 555.043L7.83477 553.832ZM3.37051 544.725C2.3465 541.198 1.82813 537.231 1.82813 532.816H-0.171875C-0.171875 537.386 0.364441 541.544 1.44981 545.283L3.37051 544.725ZM1.82813 532.816C1.82813 528.965 2.36182 525.171 3.43027 521.431L1.50723 520.882C0.388184 524.798 -0.171875 528.777 -0.171875 532.816H1.82813ZM3.42952 521.434C4.49377 517.747 6.08765 514.39 8.20985 511.359L6.5714 510.212C4.3186 513.43 2.63123 516.988 1.50798 520.879L3.42952 521.434ZM8.20644 511.363C10.3134 508.391 12.9036 506.009 15.9817 504.207L14.9714 502.481C11.6433 504.429 8.84283 507.007 6.57481 510.207L8.20644 511.363ZM15.9693 504.214C19.0409 502.475 22.6164 501.59 26.7266 501.59V499.59C22.3211 499.59 18.3966 500.541 14.9838 502.474L15.9693 504.214ZM25.7266 500.59V511.84H27.7266V500.59H25.7266ZM26.7266 510.84C23.6683 510.84 20.9788 511.432 18.6948 512.658L19.6411 514.42C21.5759 513.381 23.9255 512.84 26.7266 512.84V510.84ZM18.688 512.662C16.4813 513.869 14.6469 515.517 13.1925 517.594L14.8309 518.741C16.1109 516.913 17.714 515.475 19.648 514.416L18.688 512.662ZM13.1872 517.602C11.751 519.695 10.6897 522.047 9.99836 524.65L11.9313 525.163C12.5681 522.766 13.5381 520.625 14.8362 518.734L13.1872 517.602ZM9.99383 524.667C9.34872 527.288 9.02734 530.005 9.02734 532.816H11.0273C11.0273 530.159 11.331 527.603 11.9359 525.145L9.99383 524.667ZM9.02734 532.816C9.02734 536.848 9.58543 540.322 10.7395 543.207L12.5964 542.465C11.563 539.881 11.0273 536.675 11.0273 532.816H9.02734ZM10.7395 543.207C11.8919 546.088 13.5647 548.331 15.7863 549.869L16.9247 548.225C15.0837 546.95 13.6315 545.052 12.5964 542.465L10.7395 543.207ZM15.7757 549.862C17.9952 551.441 20.6057 552.215 23.5625 552.215V550.215C20.9724 550.215 18.7783 549.543 16.9352 548.232L15.7757 549.862ZM87.3125 589.125V590.125H88.3125V589.125H87.3125ZM2 589.125H1V590.125H2V589.125ZM2 577.816V576.816H1V577.816H2ZM87.3125 577.816H88.3125V576.816H87.3125V577.816ZM87.3125 588.125H2V590.125H87.3125V588.125ZM3 589.125L3 577.816H1L1 589.125H3ZM2 578.816H87.3125V576.816H2V578.816ZM86.3125 577.816V589.125H88.3125V577.816H86.3125ZM28.8359 654.223L28.4848 653.286L28.4705 653.292L28.4564 653.297L28.8359 654.223ZM33.0547 651.059L32.2897 650.414L32.2816 650.424L33.0547 651.059ZM36.6289 644.848L35.7112 644.45L35.7091 644.455L36.6289 644.848ZM40.0859 634.887L39.1271 634.603L39.1258 634.607L40.0859 634.887ZM44.2461 623.461L43.3375 623.043L43.3336 623.052L44.2461 623.461ZM81.8047 615.141L81.0297 615.773L81.0307 615.774L81.8047 615.141ZM84.793 652.523L83.9177 652.04L83.9127 652.049L84.793 652.523ZM75.2422 662.777L74.7314 661.918L74.7277 661.92L75.2422 662.777ZM62.7031 666.293H61.7031V667.293H62.7031V666.293ZM62.7031 655.043V654.043H61.7031V655.043H62.7031ZM71.1992 652.992L70.7194 652.115L70.7136 652.118L71.1992 652.992ZM77.0586 646.781L76.1717 646.319L76.1667 646.329L77.0586 646.781ZM72.4883 620.414L73.0169 619.565L73.0051 619.558L72.4883 620.414ZM60.4766 619.652L60.0294 618.758L60.0151 618.765L60.001 618.773L60.4766 619.652ZM56.4336 623.227L55.6452 622.611L55.6382 622.621L56.4336 623.227ZM52.9766 629.438L52.0552 629.049L52.0531 629.054L52.9766 629.438ZM49.9297 638.52L50.8921 638.791L50.8932 638.787L49.9297 638.52ZM39.6758 659.73L38.9439 659.049L38.9378 659.056L38.9319 659.062L39.6758 659.73ZM32.5859 664.828L32.2052 663.903L32.1969 663.907L32.1887 663.91L32.5859 664.828ZM7.03906 658.383L7.83477 657.777L7.03906 658.383ZM2.41016 648.949L1.44978 649.228L1.45177 649.235L2.41016 648.949ZM2.46875 625.102L1.50797 624.824L1.50723 624.827L2.46875 625.102ZM7.39063 614.73L6.57479 614.152L6.5714 614.157L7.39063 614.73ZM15.4766 607.289L14.9838 606.419L14.9776 606.422L14.9714 606.426L15.4766 607.289ZM26.7266 604.535H27.7266V603.535H26.7266V604.535ZM26.7266 615.785V616.785H27.7266V615.785H26.7266ZM19.168 617.484L18.6948 616.603L18.688 616.607L19.168 617.484ZM14.0117 622.113L13.1925 621.54L13.1872 621.547L14.0117 622.113ZM10.9648 628.852L9.99836 628.595L9.99601 628.604L9.99383 628.613L10.9648 628.852ZM16.3555 652.992L16.9353 652.177L16.9247 652.17L16.3555 652.992ZM23.5625 656.16C25.6582 656.16 27.5492 655.831 29.2155 655.148L28.4564 653.297C27.0758 653.864 25.4511 654.16 23.5625 654.16V656.16ZM29.1871 655.159C30.9419 654.501 32.4865 653.328 33.8278 651.693L32.2816 650.424C31.1229 651.836 29.8549 652.773 28.4848 653.286L29.1871 655.159ZM33.8196 651.703C35.1564 650.115 36.3941 647.947 37.5488 645.24L35.7091 644.455C34.5981 647.06 33.453 649.033 32.2898 650.414L33.8196 651.703ZM37.5466 645.245C38.7017 642.576 39.8674 639.213 41.046 635.166L39.1258 634.607C37.9608 638.607 36.8217 641.885 35.7112 644.45L37.5466 645.245ZM41.0447 635.171C42.2843 630.987 43.6563 627.221 45.1586 623.87L43.3336 623.052C41.789 626.497 40.3876 630.349 39.1271 634.603L41.0447 635.171ZM45.1547 623.879C46.6879 620.544 48.4221 617.71 50.3504 615.366L48.8058 614.095C46.7498 616.595 44.9292 619.581 43.3375 623.043L45.1547 623.879ZM50.3504 615.366C52.2615 613.042 54.4387 611.28 56.8808 610.058L55.9864 608.27C53.2723 609.627 50.8791 611.575 48.8058 614.095L50.3504 615.366ZM56.8808 610.058C59.3004 608.849 62.0925 608.23 65.2813 608.23V606.23C61.8293 606.23 58.7231 606.901 55.9864 608.27L56.8808 610.058ZM65.2813 608.23C68.4597 608.23 71.3754 608.884 74.0433 610.181L74.9177 608.382C71.9606 606.944 68.7435 606.23 65.2813 606.23V608.23ZM74.0433 610.181C76.7188 611.481 79.0467 613.341 81.0297 615.773L82.5797 614.509C80.422 611.862 77.8671 609.816 74.9177 608.382L74.0433 610.181ZM81.0307 615.774C83.0533 618.246 84.6387 621.201 85.7768 624.653L87.6763 624.027C86.4707 620.37 84.7748 617.192 82.5786 614.507L81.0307 615.774ZM85.7768 624.653C86.9103 628.091 87.4844 631.948 87.4844 636.234H89.4844C89.4844 631.771 88.8865 627.698 87.6763 624.027L85.7768 624.653ZM87.4844 636.234C87.4844 642.514 86.2783 647.768 83.9177 652.04L85.6682 653.007C88.2295 648.372 89.4844 642.767 89.4844 636.234H87.4844ZM83.9127 652.049C81.567 656.4 78.504 659.677 74.7315 661.918L75.7529 663.637C79.871 661.191 83.1752 657.631 85.6732 652.998L83.9127 652.049ZM74.7277 661.92C70.9731 664.173 66.9707 665.293 62.7031 665.293V667.293C67.3418 667.293 71.6988 666.07 75.7567 663.635L74.7277 661.92ZM63.7031 666.293V655.043H61.7031V666.293H63.7031ZM62.7031 656.043C66.0525 656.043 69.0559 655.327 71.6849 653.866L70.7136 652.118C68.4207 653.392 65.76 654.043 62.7031 654.043V656.043ZM71.679 653.87C74.3724 652.397 76.4617 650.17 77.9505 647.233L76.1667 646.329C74.843 648.94 73.0261 650.853 70.7194 652.115L71.679 653.87ZM77.9454 647.243C79.487 644.285 80.2266 640.598 80.2266 636.234H78.2266C78.2266 640.387 77.5208 643.73 76.1718 646.319L77.9454 647.243ZM80.2266 636.234C80.2266 632.12 79.6086 628.644 78.3177 625.854L76.5026 626.693C77.6335 629.138 78.2266 632.302 78.2266 636.234H80.2266ZM78.3177 625.854C77.0401 623.092 75.2808 620.975 73.0168 619.565L71.9597 621.263C73.8363 622.431 75.3583 624.22 76.5026 626.693L78.3177 625.854ZM73.0051 619.558C70.7638 618.205 68.2184 617.539 65.3984 617.539V619.539C67.891 619.539 70.0722 620.123 71.9714 621.27L73.0051 619.558ZM65.3984 617.539C63.4594 617.539 61.6638 617.941 60.0294 618.758L60.9238 620.547C62.258 619.88 63.7437 619.539 65.3984 619.539V617.539ZM60.001 618.773C58.4092 619.633 56.9607 620.926 55.6453 622.611L57.2219 623.842C58.4065 622.324 59.6533 621.234 60.9521 620.532L60.001 618.773ZM55.6382 622.621C54.3241 624.345 53.1329 626.494 52.0552 629.049L53.8979 629.826C54.9296 627.381 56.0431 625.389 57.229 623.833L55.6382 622.621ZM52.0531 629.054C50.9786 631.641 49.9504 634.709 48.9662 638.252L50.8932 638.787C51.8621 635.299 52.8652 632.312 53.9001 629.821L52.0531 629.054ZM48.9673 638.248C47.6114 643.052 46.1063 647.176 44.4571 650.628L46.2617 651.49C47.9718 647.91 49.5136 643.675 50.8921 638.791L48.9673 638.248ZM44.4571 650.628C42.8104 654.074 40.9689 656.874 38.9439 659.049L40.4077 660.412C42.6014 658.056 44.549 655.074 46.2617 651.49L44.4571 650.628ZM38.9319 659.062C36.9538 661.264 34.712 662.871 32.2052 663.903L32.9667 665.753C35.7724 664.598 38.2571 662.806 40.4197 660.399L38.9319 659.062ZM32.1887 663.91C29.7158 664.981 26.8856 665.527 23.6797 665.527V667.527C27.1144 667.527 30.2217 666.941 32.9832 665.746L32.1887 663.91ZM23.6797 665.527C20.3417 665.527 17.3528 664.853 14.6933 663.524L13.7989 665.312C16.7644 666.795 20.0645 667.527 23.6797 667.527V665.527ZM14.6933 663.524C12.0238 662.189 9.73876 660.278 7.83477 657.777L6.24335 658.989C8.32374 661.722 10.8434 663.835 13.7989 665.312L14.6933 663.524ZM7.83477 657.777C5.92666 655.27 4.43342 652.239 3.36855 648.664L1.45177 649.235C2.57439 653.003 4.16709 656.261 6.24335 658.989L7.83477 657.777ZM3.37051 648.67C2.3465 645.143 1.82813 641.177 1.82813 636.762H-0.171875C-0.171875 641.331 0.364441 645.49 1.44981 649.228L3.37051 648.67ZM1.82813 636.762C1.82813 632.91 2.36182 629.116 3.43027 625.376L1.50723 624.827C0.388184 628.743 -0.171875 632.723 -0.171875 636.762H1.82813ZM3.42952 625.379C4.49377 621.692 6.08765 618.336 8.20985 615.304L6.5714 614.157C4.3186 617.375 2.63123 620.933 1.50798 624.824L3.42952 625.379ZM8.20644 615.309C10.3134 612.336 12.9036 609.954 15.9817 608.152L14.9714 606.426C11.6433 608.374 8.84283 610.953 6.57481 614.152L8.20644 615.309ZM15.9693 608.159C19.0409 606.42 22.6164 605.535 26.7266 605.535V603.535C22.3211 603.535 18.3966 604.486 14.9838 606.419L15.9693 608.159ZM25.7266 604.535V615.785H27.7266V604.535H25.7266ZM26.7266 614.785C23.6683 614.785 20.9788 615.377 18.6948 616.603L19.6411 618.365C21.5759 617.326 23.9255 616.785 26.7266 616.785V614.785ZM18.688 616.607C16.4813 617.815 14.6469 619.462 13.1925 621.54L14.8309 622.687C16.1109 620.858 17.714 619.42 19.648 618.362L18.688 616.607ZM13.1872 621.547C11.751 623.64 10.6897 625.992 9.99836 628.595L11.9313 629.108C12.5681 626.711 13.5381 624.571 14.8362 622.679L13.1872 621.547ZM9.99383 628.613C9.34872 631.233 9.02734 633.951 9.02734 636.762H11.0273C11.0273 634.104 11.331 631.548 11.9359 629.091L9.99383 628.613ZM9.02734 636.762C9.02734 640.794 9.58543 644.267 10.7395 647.153L12.5964 646.41C11.563 643.826 11.0273 640.62 11.0273 636.762H9.02734ZM10.7395 647.153C11.8919 650.034 13.5647 652.276 15.7863 653.814L16.9247 652.17C15.0837 650.895 13.6315 648.998 12.5964 646.41L10.7395 647.153ZM15.7757 653.807C17.9952 655.386 20.6057 656.16 23.5625 656.16V654.16C20.9724 654.16 18.7783 653.489 16.9352 652.177L15.7757 653.807ZM87.3125 712.465V713.465H88.3125V712.465H87.3125ZM2 712.465H1V713.465H2V712.465ZM2 701.332V700.332H1V701.332H2ZM87.3125 701.332H88.3125V700.332H87.3125V701.332ZM87.3125 739.887V740.887H88.3125V739.887H87.3125ZM78.0547 739.887H77.0547V740.887H78.0547V739.887ZM78.0547 673.969V672.969H77.0547V673.969H78.0547ZM87.3125 673.969H88.3125V672.969H87.3125V673.969ZM87.3125 711.465H2V713.465H87.3125V711.465ZM3 712.465V701.332H1V712.465H3ZM2 702.332H87.3125V700.332H2V702.332ZM86.3125 701.332V712.465H88.3125V701.332H86.3125ZM87.3125 738.887H78.0547L78.0547 740.887H87.3125V738.887ZM79.0547 739.887L79.0547 673.969H77.0547L77.0547 739.887H79.0547ZM78.0547 674.969H87.3125V672.969H78.0547V674.969ZM86.3125 673.969L86.3125 739.887H88.3125L88.3125 673.969H86.3125ZM79.7539 779.438L79.4125 780.377L79.5667 780.433L79.7307 780.437L79.7539 779.438ZM2 751.195H1V751.896L1.6586 752.135L2 751.195ZM2 739.652L2.35619 738.718L1 738.201V739.652H2ZM87.3125 772.172H88.3125V771.483L87.6687 771.237L87.3125 772.172ZM87.3125 779.613L87.2893 780.613L88.3125 780.637V779.613H87.3125ZM2 803.109L1.65797 802.17L1 802.409V803.109H2ZM79.7539 774.809L79.7307 773.809L79.5663 773.813L79.4119 773.869L79.7539 774.809ZM87.3125 774.633H88.3125V773.609L87.2893 773.633L87.3125 774.633ZM87.3125 782.074L87.6698 783.008L88.3125 782.762V782.074H87.3125ZM2 814.711H1V816.164L2.3573 815.645L2 814.711ZM33.582 801.645V802.645H34.582V801.645H33.582ZM24.3242 801.645H23.3242V802.645H24.3242V801.645ZM24.3242 753.715V752.715H23.3242V753.715H24.3242ZM33.582 753.715H34.582V752.715H33.582V753.715ZM80.0953 778.498L2.3414 750.255L1.6586 752.135L79.4125 780.377L80.0953 778.498ZM3 751.195V739.652H1V751.195H3ZM1.64381 740.587L86.9563 773.106L87.6687 771.237L2.35619 738.718L1.64381 740.587ZM86.3125 772.172V779.613H88.3125V772.172H86.3125ZM87.3357 778.614L79.7772 778.438L79.7307 780.437L87.2893 780.613L87.3357 778.614ZM2.34203 804.049L80.0959 775.748L79.4119 773.869L1.65797 802.17L2.34203 804.049ZM79.7772 775.808L87.3357 775.633L87.2893 773.633L79.7307 773.809L79.7772 775.808ZM86.3125 774.633V782.074H88.3125V774.633H86.3125ZM86.9552 781.14L1.6427 813.777L2.3573 815.645L87.6698 783.008L86.9552 781.14ZM3 814.711V803.109H1V814.711H3ZM33.582 800.645H24.3242V802.645H33.582V800.645ZM25.3242 801.645L25.3242 753.715H23.3242L23.3242 801.645H25.3242ZM24.3242 754.715H33.582V752.715H24.3242V754.715ZM32.582 753.715L32.582 801.645H34.582L34.582 753.715H32.582ZM87.3125 891.762V892.762H88.3125V891.762H87.3125ZM2 891.762H1V892.762H2V891.762ZM2 880.395L1.45341 879.557L1 879.853V880.395H2ZM67.8008 837.445L68.3474 838.283L71.1624 836.445H67.8008V837.445ZM2 837.445H1V838.445H2V837.445ZM2 826.137V825.137H1V826.137H2ZM87.3125 826.137H88.3125V825.137H87.3125V826.137ZM87.3125 837.445L87.8596 838.282L88.3125 837.986V837.445H87.3125ZM21.3359 880.57L20.7888 879.733L17.9783 881.57H21.3359V880.57ZM87.3125 880.57H88.3125V879.57H87.3125V880.57ZM87.3125 890.762H2V892.762H87.3125V890.762ZM3 891.762V880.395H1V891.762H3ZM2.54659 881.232L68.3474 838.283L67.2542 836.608L1.45341 879.557L2.54659 881.232ZM67.8008 836.445H2V838.445H67.8008V836.445ZM3 837.445V826.137H1V837.445H3ZM2 827.137H87.3125V825.137H2V827.137ZM86.3125 826.137V837.445H88.3125V826.137H86.3125ZM86.7654 836.608L20.7888 879.733L21.8831 881.407L87.8596 838.282L86.7654 836.608ZM21.3359 881.57H87.3125V879.57H21.3359V881.57ZM86.3125 880.57V891.762H88.3125V880.57H86.3125ZM29.1289 963.305H30.1289V962.449L29.2839 962.317L29.1289 963.305ZM29.1289 974.555L29.0208 975.549L30.1289 975.669V974.555H29.1289ZM4.51953 959.32L3.63904 959.794L3.64221 959.8L4.51953 959.32ZM3.64063 928.559L2.73266 928.14L2.73115 928.143L3.64063 928.559ZM11.6094 918.07L10.965 917.306L10.9607 917.309L11.6094 918.07ZM24.0898 911.273L23.7851 910.321L23.7759 910.324L24.0898 911.273ZM65.1055 911.273L65.4171 910.323L65.4125 910.322L65.1055 911.273ZM77.6445 918.129L78.2988 917.373L78.2939 917.368L77.6445 918.129ZM74.7734 969.926L74.2764 969.058L74.2671 969.063L74.7734 969.926ZM59.9492 974.555H58.9492V975.664L60.0528 975.549L59.9492 974.555ZM59.9492 963.305L59.8132 962.314L58.9492 962.433V963.305H59.9492ZM70.2031 960.258L69.7463 959.368L69.7414 959.371L70.2031 960.258ZM77.0586 933.188L77.953 932.74L77.9506 932.735L77.0586 933.188ZM70.9063 925.98L71.4987 925.175L71.4909 925.169L70.9063 925.98ZM61.3555 921.645L61.61 920.677L61.3555 921.645ZM28.6016 921.469L28.3737 920.495L28.3639 920.497L28.6016 921.469ZM12.3711 932.367L11.5051 931.867L11.4998 931.876L12.3711 932.367ZM18.875 960.141L19.3368 959.254L19.3271 959.249L18.875 960.141ZM28.1289 963.305V974.555H30.1289V963.305H28.1289ZM29.237 973.561C23.973 972.988 19.2869 971.485 15.1626 969.063L14.1499 970.788C18.5412 973.367 23.5036 974.949 29.0208 975.549L29.237 973.561ZM15.1626 969.063C11.0695 966.66 7.81503 963.261 5.39685 958.84L3.64221 959.8C6.22403 964.52 9.72742 968.191 14.1499 970.788L15.1626 969.063ZM5.4 958.846C3.03846 954.461 1.82813 948.932 1.82813 942.211H-0.171875C-0.171875 949.162 1.07873 955.039 3.63906 959.794L5.4 958.846ZM1.82813 942.211C1.82813 937.339 2.74095 932.932 4.5501 928.974L2.73115 928.143C0.790298 932.388 -0.171875 937.083 -0.171875 942.211H1.82813ZM4.54858 928.978C6.36234 925.048 8.92963 921.668 12.258 918.831L10.9607 917.309C7.41412 920.332 4.66891 923.944 2.73267 928.14L4.54858 928.978ZM12.2538 918.835C15.6218 915.997 19.6662 913.789 24.4038 912.223L23.7759 910.324C18.826 911.961 14.5501 914.284 10.965 917.306L12.2538 918.835ZM24.3946 912.226C29.1641 910.7 34.489 909.93 40.3789 909.93V907.93C34.3156 907.93 28.7812 908.722 23.7851 910.321L24.3946 912.226ZM40.3789 909.93H48.875V907.93H40.3789V909.93ZM48.875 909.93C54.765 909.93 60.0695 910.7 64.7985 912.225L65.4125 910.322C60.454 908.722 54.9381 907.93 48.875 907.93V909.93ZM64.7938 912.224C69.5681 913.79 73.6293 916.015 76.9951 918.889L78.2939 917.368C74.7067 914.305 70.4085 911.96 65.4171 910.323L64.7938 912.224ZM76.9902 918.885C80.3551 921.796 82.9425 925.29 84.7581 929.375L86.5857 928.563C84.6512 924.21 81.8871 920.477 78.2988 917.373L76.9902 918.885ZM84.7581 929.375C86.5687 933.449 87.4844 938.054 87.4844 943.207H89.4844C89.4844 937.814 88.5251 932.926 86.5857 928.563L84.7581 929.375ZM87.4844 943.207C87.4844 949.53 86.2964 954.805 83.9731 959.077L85.73 960.032C88.2504 955.398 89.4844 949.775 89.4844 943.207H87.4844ZM83.9731 959.077C81.6376 963.371 78.4085 966.691 74.2765 969.058L75.2704 970.794C79.7321 968.238 83.2218 964.644 85.73 960.032L83.9731 959.077ZM74.2671 969.063C70.1492 971.481 65.3491 972.987 59.8456 973.56L60.0528 975.549C65.7994 974.951 70.882 973.37 75.2798 970.788L74.2671 969.063ZM60.9492 974.555V963.305H58.9492V974.555H60.9492ZM60.0852 964.295C64.1559 963.737 67.6895 962.694 70.6649 961.145L69.7414 959.371C67.0136 960.791 63.7113 961.779 59.8132 962.314L60.0852 964.295ZM70.6599 961.147C73.7171 959.577 76.0892 957.334 77.7511 954.426L76.0146 953.434C74.5514 955.994 72.4704 957.969 69.7463 959.368L70.6599 961.147ZM77.7511 954.426C79.4277 951.492 80.2266 947.729 80.2266 943.207H78.2266C78.2266 947.513 77.4629 950.899 76.0146 953.434L77.7511 954.426ZM80.2266 943.207C80.2266 939.289 79.4788 935.792 77.953 932.74L76.1642 933.635C77.529 936.364 78.2266 939.547 78.2266 943.207H80.2266ZM77.9506 932.735C76.4322 929.74 74.277 927.218 71.4986 925.175L70.3139 926.786C72.848 928.649 74.7944 930.932 76.1666 933.64L77.9506 932.735ZM71.4909 925.169C68.7195 923.172 65.4195 921.68 61.61 920.677L61.101 922.612C64.7133 923.562 67.7805 924.961 70.3216 926.792L71.4909 925.169ZM61.61 920.677C57.8026 919.676 53.5943 919.18 48.9922 919.18V921.18C53.4526 921.18 57.4865 921.66 61.101 922.612L61.61 920.677ZM48.9922 919.18H40.3789V921.18H48.9922V919.18ZM40.3789 919.18C36.1307 919.18 32.1278 919.616 28.3737 920.495L28.8294 922.442C32.4191 921.602 36.2678 921.18 40.3789 921.18V919.18ZM28.3639 920.497C24.5987 921.419 21.2696 922.807 18.3899 924.672L19.4773 926.351C22.1444 924.623 25.2607 923.316 28.8392 922.44L28.3639 920.497ZM18.3899 924.672C15.4881 926.552 13.1883 928.952 11.5051 931.867L13.2371 932.867C14.757 930.235 16.8322 928.065 19.4773 926.351L18.3899 924.672ZM11.4998 931.876C9.8382 934.826 9.02734 938.283 9.02734 942.211H11.0273C11.0273 938.561 11.779 935.455 13.2423 932.858L11.4998 931.876ZM9.02734 942.211C9.02734 947.106 9.80101 951.117 11.4305 954.167L13.1945 953.224C11.7771 950.571 11.0273 946.925 11.0273 942.211H9.02734ZM11.4305 954.167C13.0495 957.197 15.386 959.493 18.4229 961.033L19.3271 959.249C16.6608 957.897 14.6224 955.897 13.1945 953.224L11.4305 954.167ZM18.4133 961.028C21.3818 962.573 24.9086 963.655 28.9739 964.293L29.2839 962.317C25.3805 961.704 22.0713 960.677 19.3367 959.254L18.4133 961.028ZM11.1992 1044.16V1045.16H12.1992V1044.16H11.1992ZM2 1044.16H1V1045.16H2V1044.16ZM2 998.988V997.988H1V998.988H2ZM11.1992 998.988H12.1992V997.988H11.1992V998.988ZM87.3125 1001.27V1002.27H88.3125V1001.27H87.3125ZM2 1001.27H1V1002.27H2V1001.27ZM2 989.965V988.965H1V989.965H2ZM87.3125 989.965H88.3125V988.965H87.3125V989.965ZM50.6328 1038.19V1039.19H51.6328V1038.19H50.6328ZM41.4336 1038.19H40.4336V1039.19H41.4336V1038.19ZM41.4336 998.988V997.988H40.4336V998.988H41.4336ZM50.6328 998.988H51.6328V997.988H50.6328V998.988ZM87.3125 1043.58V1044.58H88.3125V1043.58H87.3125ZM78.0547 1043.58H77.0547V1044.58H78.0547V1043.58ZM78.0547 998.988V997.988H77.0547V998.988H78.0547ZM87.3125 998.988H88.3125V997.988H87.3125V998.988ZM11.1992 1043.16H2V1045.16H11.1992V1043.16ZM3 1044.16L3 998.988H1L1 1044.16H3ZM2 999.988H11.1992V997.988H2V999.988ZM10.1992 998.988L10.1992 1044.16H12.1992L12.1992 998.988H10.1992ZM87.3125 1000.27H2L2 1002.27H87.3125V1000.27ZM3 1001.27L3 989.965H1L1 1001.27H3ZM2 990.965H87.3125V988.965H2V990.965ZM86.3125 989.965V1001.27H88.3125V989.965H86.3125ZM50.6328 1037.19H41.4336V1039.19H50.6328V1037.19ZM42.4336 1038.19L42.4336 998.988H40.4336L40.4336 1038.19H42.4336ZM41.4336 999.988H50.6328V997.988H41.4336V999.988ZM49.6328 998.988L49.6328 1038.19H51.6328L51.6328 998.988H49.6328ZM87.3125 1042.58H78.0547V1044.58H87.3125V1042.58ZM79.0547 1043.58L79.0547 998.988H77.0547L77.0547 1043.58H79.0547ZM78.0547 999.988H87.3125V997.988H78.0547V999.988ZM86.3125 998.988L86.3125 1043.58H88.3125L88.3125 998.988H86.3125Z" fill="#F6BC54"/>
</svg>
