<svg width="37" height="32" viewBox="0 0 37 32" fill="none" xmlns="http://www.w3.org/2000/svg">
<path d="M12.8647 30.5755L12.8637 30.5752C8.86087 29.1696 7.60518 24.0955 10.5081 21.0028C11.8103 19.6191 13.161 18.273 14.5418 16.9629C16.7081 14.9085 20.3624 14.9548 22.5372 17.0641L22.5374 17.0643C23.8382 18.325 25.1242 19.6003 26.3721 20.9066L26.3724 20.9069C27.9723 22.5786 28.4411 24.535 27.7474 26.7262L27.7473 26.7263C27.0432 28.9523 25.5516 30.3364 23.2326 30.8154L23.2093 30.8203L23.1865 30.8273C23.1089 30.8512 23.033 30.8799 22.9591 30.9134H14.0967C13.9588 30.8767 13.828 30.8441 13.7017 30.8127C13.408 30.7395 13.1391 30.6725 12.8647 30.5755Z" fill="#F6BC54" stroke="#F6BC54"/>
<path d="M6.37043 17.7629L6.37107 17.7627C9.09069 17.2645 10.8088 14.6803 10.2986 11.92L6.37043 17.7629ZM6.37043 17.7629C3.88912 18.2208 1.15201 16.8625 0.59368 13.8483L0.589866 13.8277M6.37043 17.7629L0.589866 13.8277M0.589866 13.8277L0.584344 13.8075M0.589866 13.8277L0.584344 13.8075M0.584344 13.8075C0.561789 13.725 0.534095 13.6441 0.501442 13.5651L0.500072 12.1236M0.584344 13.8075L0.500072 12.1236M0.500072 12.1236C0.538081 11.9993 0.572386 11.8812 0.605523 11.7673C0.680544 11.5092 0.749576 11.2717 0.842045 11.0276C1.22759 10.0513 1.91576 9.22423 2.80568 8.66762C3.69584 8.11086 4.74097 7.85404 5.78776 7.93478C8.05651 8.13358 9.90245 9.78037 10.2986 11.9198L0.500072 12.1236Z" fill="#F6BC54" stroke="#F6BC54"/>
<path d="M31.5253 17.8179H31.5258C34.3628 17.8207 36.4815 15.713 36.5001 12.862C36.5124 10.1795 34.2288 7.91853 31.5235 7.92555C28.8179 7.93258 26.5831 10.1629 26.583 12.8367L31.5253 17.8179ZM31.5253 17.8179C28.6929 17.8179 26.5845 15.697 26.583 12.8369L31.5253 17.8179Z" fill="#F6BC54" stroke="#F6BC54"/>
<path d="M18.6738 10.3921L18.6737 10.3921C15.869 10.4556 13.5965 8.32097 13.5152 5.57861L13.5152 5.5786L13.5151 5.57492C13.4908 4.91992 13.5984 4.2667 13.8315 3.65408C14.0646 3.04146 14.4183 2.48191 14.8718 2.00866C15.3253 1.53541 15.8693 1.15809 16.4714 0.899127C17.0735 0.640163 17.7216 0.504829 18.377 0.501143V0.50119L18.3839 0.501058C21.2226 0.446223 23.3801 2.53475 23.4496 5.43801C23.5081 8.034 21.2985 10.3332 18.6738 10.3921Z" fill="#F6BC54" stroke="#F6BC54"/>
</svg>
