<svg width="38" height="38" viewBox="0 0 38 38" fill="none" xmlns="http://www.w3.org/2000/svg">
<path d="M36.6617 4.5913C36.9595 4.89004 37.1268 5.29466 37.1268 5.71649C37.1268 6.13831 36.9595 6.54293 36.6617 6.84167L33.3372 10.1694L26.9622 3.79442L30.2867 0.466674C30.5856 0.167892 30.9909 4.57764e-05 31.4135 4.57764e-05C31.8361 4.57764e-05 32.2414 0.167892 32.5403 0.466674L36.6617 4.58811V4.5913ZM31.0836 12.4198L24.7086 6.0448L2.99216 27.7644C2.81672 27.9398 2.68466 28.1537 2.60647 28.3892L0.0405316 36.0838C-0.00600338 36.2241 -0.0126106 36.3745 0.021449 36.5183C0.0555087 36.6622 0.128894 36.7937 0.2334 36.8982C0.337907 37.0027 0.469417 37.0761 0.613234 37.1101C0.75705 37.1442 0.907504 37.1376 1.04778 37.091L8.74241 34.5251C8.97753 34.4478 9.19143 34.3169 9.36716 34.1426L31.0836 12.423V12.4198Z" fill="#6A5F4B"/>
</svg>
