<svg width="63" height="63" viewBox="0 0 63 63" fill="none" xmlns="http://www.w3.org/2000/svg">
<path d="M61.039 7.63883C61.4069 8.00787 61.6134 8.50769 61.6134 9.02877C61.6134 9.54985 61.4069 10.0497 61.039 10.4187L56.9322 14.5295L49.0572 6.65446L53.164 2.54371C53.5332 2.17463 54.0338 1.96729 54.5559 1.96729C55.0779 1.96729 55.5786 2.17463 55.9478 2.54371L61.039 7.6349V7.63883ZM54.1484 17.3093L46.2734 9.43433L19.4472 36.2645C19.2305 36.4811 19.0673 36.7454 18.9707 37.0362L15.801 46.5413C15.7436 46.7146 15.7354 46.9005 15.7775 47.0781C15.8195 47.2558 15.9102 47.4182 16.0393 47.5473C16.1684 47.6764 16.3308 47.7671 16.5085 47.8092C16.6862 47.8512 16.872 47.8431 17.0453 47.7856L26.5504 44.6159C26.8409 44.5205 27.1051 44.3587 27.3222 44.1434L54.1484 17.3133V17.3093Z" fill="#6A5F4B"/>
<path fill-rule="evenodd" clip-rule="evenodd" d="M3.9375 53.1562C3.9375 54.7227 4.55976 56.225 5.6674 57.3326C6.77504 58.4402 8.27732 59.0625 9.84375 59.0625H53.1562C54.7227 59.0625 56.225 58.4402 57.3326 57.3326C58.4402 56.225 59.0625 54.7227 59.0625 53.1562V29.5312C59.0625 29.0091 58.8551 28.5083 58.4859 28.1391C58.1167 27.7699 57.6159 27.5625 57.0938 27.5625C56.5716 27.5625 56.0708 27.7699 55.7016 28.1391C55.3324 28.5083 55.125 29.0091 55.125 29.5312V53.1562C55.125 53.6784 54.9176 54.1792 54.5484 54.5484C54.1792 54.9176 53.6784 55.125 53.1562 55.125H9.84375C9.32161 55.125 8.82085 54.9176 8.45163 54.5484C8.08242 54.1792 7.875 53.6784 7.875 53.1562V9.84375C7.875 9.32161 8.08242 8.82085 8.45163 8.45163C8.82085 8.08242 9.32161 7.875 9.84375 7.875H35.4375C35.9596 7.875 36.4604 7.66758 36.8296 7.29837C37.1988 6.92915 37.4062 6.4284 37.4062 5.90625C37.4062 5.3841 37.1988 4.88335 36.8296 4.51413C36.4604 4.14492 35.9596 3.9375 35.4375 3.9375H9.84375C8.27732 3.9375 6.77504 4.55976 5.6674 5.6674C4.55976 6.77504 3.9375 8.27732 3.9375 9.84375V53.1562Z" fill="#F6BC54"/>
</svg>
