<svg width="356" height="214" viewBox="0 0 356 214" fill="none" xmlns="http://www.w3.org/2000/svg">
<path fill-rule="evenodd" clip-rule="evenodd" d="M47.738 7.94842C42.9016 11.6052 40 16.5829 40 22C40 27.4171 42.9016 32.3948 47.738 36.0516C52.5749 39.7088 59.3019 42 66.7742 42H257.226C264.698 42 271.425 39.7088 276.262 36.0516C281.098 32.3948 284 27.4171 284 22C284 16.5829 281.098 11.6052 276.262 7.94842C271.425 4.29123 264.698 2 257.226 2H66.7742C59.3019 2 52.5749 4.29123 47.738 7.94842ZM46.5318 6.3531C51.7471 2.40978 58.9072 0 66.7742 0H257.226C265.093 0 272.253 2.40978 277.468 6.3531C282.684 10.2969 286 15.8192 286 22C286 28.1808 282.684 33.7031 277.468 37.6469C272.253 41.5902 265.093 44 257.226 44H66.7742C58.9072 44 51.7471 41.5902 46.5318 37.6469C41.3158 33.7031 38 28.1808 38 22C38 15.8192 41.3158 10.2969 46.5318 6.3531Z" fill="#F6BC54"/>
<path d="M85.46 12.3802V28.8002H86.8V13.7402H92.62V12.3802H85.46ZM86.16 16.6602V18.0202H90.96V21.4802H86.16V22.8202H92.28V16.6602H86.16ZM88.66 12.9402V17.3202H90V12.9402H88.66ZM88.66 22.1802V26.9202H90V22.1802H88.66ZM86.12 26.2602V27.6202H92.64V26.2602H86.12ZM94.46 13.2602V14.6002H102.9V13.2602H94.46ZM93.5 27.1602V28.4002H96.82V27.1602H93.5ZM98.88 27.1602V28.4002H102.36V27.1602H98.88ZM94.84 11.1802C94.28 13.2602 93.3 15.3202 92.12 16.6802C92.46 16.9202 93.04 17.4402 93.26 17.7002C94.48 16.1802 95.6 13.8402 96.28 11.5402L94.84 11.1802ZM95.74 17.2402H100.4V19.6202H95.74V17.2402ZM94.46 16.0402V20.8202H101.74V16.0402H94.46ZM93.06 22.1202V29.5402H94.2V23.3402H96.28V29.2802H97.46V22.1202H93.06ZM98.42 22.1202V29.5602H99.58V23.3402H101.8V29.3602H102.98V22.1202H98.42Z" fill="#F6BC54"/>
<path d="M112.42 13.6002V14.9202H122.42V13.6002H112.42ZM111.56 17.4802V18.8202H123.28V17.4802H111.56ZM111.66 21.1002V22.4402H123.06V21.1002H111.66ZM116.62 11.2002V18.3002H118.1V11.2002H116.62ZM119.26 18.6202V27.8002C119.26 28.1002 119.16 28.1802 118.82 28.2002C118.5 28.2202 117.38 28.2202 116.14 28.1802C116.36 28.5802 116.6 29.1802 116.66 29.5802C118.26 29.5802 119.28 29.5602 119.9 29.3402C120.52 29.1202 120.72 28.6802 120.72 27.8202V18.6202H119.26ZM112.88 23.8402C113.9 24.8802 114.98 26.3802 115.42 27.3602L116.72 26.5602C116.24 25.5802 115.12 24.1602 114.08 23.1202L112.88 23.8402ZM106.22 12.5202V13.8802H109.82V24.3002H106.22V25.6602H111.22V12.5202H106.22ZM106.28 18.3402V19.6802H110.48V18.3402H106.28ZM105.5 12.5202V27.3002H106.92V12.5202H105.5Z" fill="#F6BC54"/>
<path d="M124.9 22.1402V23.4002H143.1V22.1402H124.9ZM125.38 12.0802V13.4002H142.6V12.0802H125.38ZM131.84 20.0402C130.6 22.0002 128.74 24.6802 127.46 26.3002L128.88 26.7802C130.16 25.1402 132 22.5202 133.3 20.4402L131.84 20.0402ZM137.84 22.5802C136.24 26.4802 132.32 27.9002 125.18 28.2802C125.42 28.6202 125.66 29.1602 125.76 29.6002C133.26 29.0402 137.52 27.4002 139.28 23.0002L137.84 22.5802ZM128.54 26.1002C133.62 27.0402 138.52 28.4002 141.58 29.6602L142.48 28.4402C139.38 27.2202 134.24 25.8802 129.3 25.0002L128.54 26.1002ZM130.84 12.5802V19.5602H132.26V12.5802H130.84ZM135.5 12.5802V19.5602H136.92V12.5802H135.5ZM127.78 16.3402H140.26V19.0602H127.78V16.3402ZM126.38 15.1202V20.3002H141.76V15.1202H126.38Z" fill="#F6BC54"/>
<path d="M146.98 26.8802V28.3602H161.1V26.8802H146.98ZM153.12 11.3202V27.7202H154.66V11.3202H153.12ZM146.24 21.3002V29.6202H147.76V21.3002H146.24ZM160.3 21.3002V29.5602H161.84V21.3002H160.3ZM147.02 13.1202V20.0202H161.04V13.1202H159.48V18.5602H148.5V13.1202H147.02Z" fill="#F6BC54"/>
<path d="M166.54 15.1802V16.3202H172.1V15.1802H166.54ZM175.74 15.1802V16.3202H181.4V15.1802H175.74ZM180.76 12.1602V27.5602C180.76 27.9402 180.64 28.0402 180.24 28.0602C179.84 28.0802 178.46 28.1002 177.08 28.0202C177.3 28.4602 177.56 29.1602 177.64 29.5802C179.46 29.5802 180.64 29.5602 181.34 29.3002C182.02 29.0602 182.26 28.5802 182.26 27.5602V12.1602H180.76ZM166.66 12.1602V13.4202H171.56V18.2402H166.66V19.5002H172.98V12.1602H166.66ZM181.54 12.1602H174.86V19.5202H181.54V18.2602H176.3V13.4202H181.54V12.1602ZM165.82 12.1602V29.6002H167.3V12.1602H165.82Z" fill="#F6BC54"/>
<path d="M190.08 23.6802V27.3602C190.08 28.9202 190.6 29.3402 192.72 29.3402C193.14 29.3402 196.16 29.3402 196.62 29.3402C198.32 29.3402 198.78 28.7602 198.98 26.3602C198.56 26.2602 197.94 26.0602 197.62 25.8002C197.54 27.7202 197.38 27.9802 196.5 27.9802C195.84 27.9802 193.32 27.9802 192.84 27.9802C191.74 27.9802 191.56 27.8802 191.56 27.3402V23.6802H190.08ZM191.72 22.9002C193.02 23.5802 194.54 24.7002 195.24 25.5402L196.32 24.5602C195.6 23.7202 194.06 22.6602 192.74 22.0202L191.72 22.9002ZM198.24 23.9202C199.74 25.3002 201.22 27.2402 201.76 28.6002L203.14 27.9002C202.56 26.4802 201.02 24.6002 199.52 23.2802L198.24 23.9202ZM187.46 23.5802C187.02 25.2602 186.12 27.0202 184.72 28.0602L185.96 28.8802C187.46 27.7202 188.26 25.8202 188.8 24.0202L187.46 23.5802ZM189.1 13.5002V14.8402H202.52V13.5002H189.1ZM193.16 16.5402V17.7802H201.5V16.5402H193.16ZM193.18 19.5802V20.8602H201.98V19.5802H193.18ZM192.5 13.9402V22.4602H194V13.9402H192.5ZM189.72 11.1602C188.76 13.9802 187.02 16.5602 184.92 18.1802C185.3 18.4202 185.94 18.9802 186.2 19.2802C188.3 17.4602 190.16 14.6802 191.28 11.5402L189.72 11.1602Z" fill="#F6BC54"/>
<path d="M208.3 27.8602L208.4 29.1402C211.68 29.0802 216.66 28.9002 221.38 28.7402L221.44 27.5802C216.6 27.7202 211.5 27.8202 208.3 27.8602ZM217.78 22.6202C216.1 24.3402 213.28 26.6602 211.12 28.0202L212.08 28.6802C214.24 27.3602 217.04 25.1802 219.06 23.3402L217.78 22.6202ZM214 21.3402C213.28 22.2602 212 23.5402 211.02 24.3202L211.96 24.9002C212.96 24.1802 214.2 23.0402 215.22 22.0202L214 21.3402ZM209.48 24.1002C210.9 24.9202 212.7 26.1802 213.56 26.9802L214.6 26.0002C213.68 25.1802 211.86 24.0002 210.46 23.2202L209.48 24.1002ZM217.74 25.7002C219.22 26.8802 220.92 28.5602 221.74 29.6602L223 29.0002C222.14 27.8602 220.38 26.2202 218.92 25.1002L217.74 25.7002ZM208.6 15.8202V16.9402H214.84V15.8202H208.6ZM215.54 15.8202V16.9402H222.54V15.8202H215.54ZM211.18 14.3802V21.7002H212.34V14.3802H211.18ZM213.44 17.6002V20.7002H214.38V17.6002H213.44ZM218.08 14.3802V21.7602H219.26V14.3802H218.08ZM209.2 17.6002V18.3602C209.2 19.2602 209.08 20.4802 208.22 21.2602C208.48 21.4002 208.88 21.6802 209.04 21.9002C210 20.8802 210.14 19.5602 210.14 18.4002V17.6002H209.2ZM216.08 17.5602V18.2802C216.08 19.1002 215.96 20.2402 215.14 20.9402C215.4 21.0802 215.8 21.3802 215.98 21.6002C216.88 20.6602 217.02 19.4002 217.02 18.3402V17.5602H216.08ZM220.36 17.5602V20.1402C220.36 20.9402 220.42 21.2002 220.62 21.4002C220.8 21.5802 221.12 21.6402 221.42 21.6402C221.56 21.6402 221.94 21.6402 222.1 21.6402C222.28 21.6402 222.54 21.6202 222.68 21.5402C222.86 21.4602 223.02 21.3202 223.1 21.1202C223.2 20.9202 223.24 20.3202 223.26 19.8002C223.02 19.7402 222.7 19.5802 222.5 19.4402C222.48 19.9202 222.46 20.3202 222.42 20.4802C222.38 20.6402 222.34 20.7402 222.28 20.7802C222.24 20.8202 222.1 20.8202 222 20.8202C221.86 20.8202 221.7 20.8202 221.62 20.8202C221.52 20.8202 221.44 20.8002 221.4 20.7602C221.36 20.7002 221.36 20.5402 221.36 20.2802V17.5602H220.36ZM213.8 11.2202V13.5602H215.34V11.2202H213.8ZM207.02 12.9002V14.2002H222.98V12.9002H207.02ZM206.18 12.9002V19.0802C206.18 21.9602 206.06 25.9602 204.64 28.8002C204.96 28.9602 205.56 29.4002 205.8 29.6602C207.34 26.6402 207.58 22.1402 207.58 19.0802V12.9002H206.18Z" fill="#F6BC54"/>
<path d="M231.08 15.8202V17.1402H235.36V15.8202H231.08ZM234.96 15.8202V16.1602C234.86 24.5002 234.74 27.2802 234.4 27.8202C234.26 28.0802 234.12 28.1402 233.9 28.1402C233.62 28.1402 233.1 28.1402 232.48 28.0802C232.68 28.4202 232.8 28.9802 232.84 29.3602C233.44 29.3802 234.04 29.4002 234.44 29.3402C234.92 29.2802 235.24 29.1202 235.52 28.6602C235.98 27.9002 236.08 25.1602 236.2 16.5002C236.2 16.3402 236.22 15.8202 236.22 15.8202H234.96ZM232.42 11.2002C232.46 18.7802 232.32 25.0002 229.7 28.7402C229.98 28.9402 230.52 29.4202 230.72 29.6402C233.44 25.4402 233.62 19.3002 233.66 11.2002H232.42ZM227.38 11.2002V14.4202H228.78V11.2002H227.38ZM225.02 13.8802V15.1402H230.96V13.8802H225.02ZM224.82 19.2202V20.4802H231.18V19.2202H224.82ZM225.66 15.7602C226 16.7802 226.24 18.1602 226.24 19.0402L227.44 18.7202C227.4 17.8402 227.14 16.5002 226.76 15.4802L225.66 15.7602ZM229.38 15.4002C229.22 16.4002 228.84 17.9002 228.54 18.8202L229.56 19.0802C229.9 18.2202 230.28 16.8402 230.64 15.6802L229.38 15.4002ZM224.72 23.5202L225 24.8602C226.7 24.5602 229 24.1602 231.22 23.7602L231.14 22.5202C228.74 22.9202 226.34 23.3002 224.72 23.5202ZM239.1 11.2002V14.4202H240.5V11.2002H239.1ZM239.1 19.6802V29.6402H240.5V19.6802H239.1ZM236.64 13.8602V15.1402H242.96V13.8602H236.64ZM236.52 19.2002V20.4802H243.2V19.2002H236.52ZM236.72 23.3202V24.6002H242.9V23.3202H236.72ZM237.26 15.7602C237.62 16.8002 237.9 18.2002 237.92 19.1002L239.08 18.7802C239.04 17.8802 238.76 16.5002 238.34 15.4602L237.26 15.7602ZM241.2 15.3602C241.04 16.3602 240.62 17.8602 240.32 18.8002L241.34 19.0802C241.72 18.2002 242.12 16.8402 242.5 15.6802L241.2 15.3602ZM227.38 19.7002V23.1802C227.38 24.8402 227.16 27.2202 224.98 28.6202C225.3 28.8602 225.72 29.3202 225.9 29.6202C228.36 27.9002 228.78 25.2202 228.78 23.1802V19.7002H227.38Z" fill="#F6BC54"/>
<path fill-rule="evenodd" clip-rule="evenodd" d="M117.738 74.9484C112.902 78.6052 110 83.5829 110 89C110 94.4171 112.902 99.3948 117.738 103.052C122.575 106.709 129.302 109 136.774 109H327.226C334.698 109 341.425 106.709 346.262 103.052C351.098 99.3948 354 94.4171 354 89C354 83.5829 351.098 78.6052 346.262 74.9484C341.425 71.2912 334.698 69 327.226 69H136.774C129.302 69 122.575 71.2912 117.738 74.9484ZM116.532 73.3531C121.747 69.4098 128.907 67 136.774 67H327.226C335.093 67 342.253 69.4098 347.468 73.3531C352.684 77.2969 356 82.8192 356 89C356 95.1808 352.684 100.703 347.468 104.647C342.253 108.59 335.093 111 327.226 111H136.774C128.907 111 121.747 108.59 116.532 104.647C111.316 100.703 108 95.1808 108 89C108 82.8192 111.316 77.2969 116.532 73.3531Z" fill="#F6BC54"/>
<path d="M150.9 89.1402V90.4002H169.1V89.1402H150.9ZM151.38 79.0802V80.4002H168.6V79.0802H151.38ZM157.84 87.0402C156.6 89.0002 154.74 91.6802 153.46 93.3002L154.88 93.7802C156.16 92.1402 158 89.5202 159.3 87.4402L157.84 87.0402ZM163.84 89.5802C162.24 93.4802 158.32 94.9002 151.18 95.2802C151.42 95.6202 151.66 96.1602 151.76 96.6002C159.26 96.0402 163.52 94.4002 165.28 90.0002L163.84 89.5802ZM154.54 93.1002C159.62 94.0402 164.52 95.4002 167.58 96.6602L168.48 95.4402C165.38 94.2202 160.24 92.8802 155.3 92.0002L154.54 93.1002ZM156.84 79.5802V86.5602H158.26V79.5802H156.84ZM161.5 79.5802V86.5602H162.92V79.5802H161.5ZM153.78 83.3402H166.26V86.0602H153.78V83.3402ZM152.38 82.1202V87.3002H167.76V82.1202H152.38Z" fill="#F6BC54"/>
<path d="M182.1 93.3802V94.8402H187.54V93.3802H182.1ZM171.06 82.0002V83.4602H178.74V82.0002H171.06ZM181.42 80.7002V96.3002H182.88V82.1402H186.74V96.1602H188.26V80.7002H181.42ZM178.34 82.0002V82.3602C178.2 90.9202 178.02 93.8802 177.56 94.5002C177.38 94.7602 177.2 94.8202 176.9 94.8002C176.52 94.8002 175.66 94.8002 174.72 94.7202C174.98 95.1402 175.14 95.8002 175.16 96.2402C176.06 96.3002 176.98 96.3002 177.54 96.2202C178.14 96.1602 178.5 95.9802 178.86 95.4602C179.5 94.5802 179.64 91.6602 179.8 82.7602C179.8 82.5602 179.8 82.0002 179.8 82.0002H178.34ZM173.9 78.4802C173.88 85.4802 173.9 92.0802 170.56 95.6002C170.94 95.8202 171.46 96.2802 171.72 96.6202C175.24 92.8002 175.34 85.8602 175.36 78.4802H173.9Z" fill="#F6BC54"/>
<path d="M197.14 80.4802V89.6002H198.42V80.4802H197.14ZM202.22 79.4002V80.7802H208.82V79.4002H202.22ZM200.86 94.5202V95.9202H209.24V94.5202H200.86ZM202.38 86.7402V88.1002H208.7V86.7402H202.38ZM204.74 79.9402V95.2602H206.16V79.9402H204.74ZM200.38 78.2002V86.7402C200.38 90.3402 199.94 93.4202 196.46 95.5402C196.76 95.8002 197.22 96.3002 197.4 96.6202C201.24 94.2602 201.76 90.8002 201.76 86.7602V78.2002H200.38ZM190.84 79.5002V80.8802H196.76V79.5002H190.84ZM191.04 85.9402V87.3002H196.4V85.9402H191.04ZM190.54 93.3802L190.86 94.8002C192.64 94.2602 194.94 93.5802 197.16 92.9202L196.98 91.5802C194.6 92.2602 192.2 92.9802 190.54 93.3802ZM193.08 80.1002V93.3202L194.48 93.0202V80.1002H193.08Z" fill="#F6BC54"/>
<path d="M211.44 81.0002V82.4602H228.7V81.0002H211.44ZM219.16 78.2202V96.6002H220.72V78.2202H219.16ZM219.34 87.1002C217.54 90.1402 214.08 93.0602 210.74 94.4202C211.08 94.7202 211.56 95.3202 211.8 95.7002C215.18 94.1202 218.64 91.0202 220.6 87.6002L219.34 87.1002ZM220.64 87.1402L219.38 87.6602C221.32 91.0802 224.72 94.2002 228.16 95.7402C228.42 95.3202 228.9 94.7202 229.28 94.4002C225.82 93.0802 222.4 90.2002 220.64 87.1402ZM214.1 86.0602C215.06 86.9002 216.26 88.1002 216.88 88.8202L217.9 87.8002C217.28 87.0802 216.04 85.9402 215.1 85.1402L214.1 86.0602ZM214.94 82.9402C214.34 85.5202 213.08 87.7002 211.26 89.0602C211.62 89.3002 212.2 89.7802 212.44 90.0402C214.3 88.5002 215.7 86.1202 216.4 83.2002L214.94 82.9402ZM223.72 86.1002C225.08 87.2002 226.88 88.7402 227.74 89.7002L228.8 88.6602C227.9 87.7402 226.06 86.2402 224.72 85.2202L223.72 86.1002ZM224.42 82.9402C223.98 85.1802 223.02 87.1402 221.56 88.3602C221.92 88.5402 222.56 88.9602 222.84 89.2002C224.26 87.8002 225.34 85.7002 225.86 83.1802L224.42 82.9402Z" fill="#F6BC54"/>
<path d="M231.38 79.6202V81.1402H248.6V79.6202H231.38ZM241.18 85.4402C243.56 87.0602 246.56 89.4002 247.96 90.9402L249.18 89.8002C247.7 88.2602 244.64 86.0002 242.3 84.4802L241.18 85.4402ZM240.8 80.1402C238.94 83.9002 235.22 87.7402 230.88 89.9202C231.18 90.2402 231.66 90.8402 231.9 91.2202C236.42 88.8402 240.16 84.8802 242.44 80.7402L240.8 80.1402ZM239.16 84.1402V96.5802H240.78V82.5402L239.16 84.1402Z" fill="#F6BC54"/>
<path d="M256.74 80.9802L255.42 81.2802C257.28 89.2202 260.78 94.5602 268.38 96.5802C268.62 96.1602 269.08 95.5002 269.42 95.1802C262 93.4202 258.42 88.2802 256.74 80.9802ZM251.78 79.2802V80.7402H262.98V79.2802H251.78ZM266.68 84.1202V84.4002C265.2 90.6002 260.62 94.0202 255.34 95.3002C255.66 95.6202 256.02 96.2402 256.2 96.6202C261.82 95.0402 266.56 91.5202 268.26 84.4602L267.24 84.0602L266.96 84.1202H266.68ZM262.64 79.2802V79.4602C262.3 81.0602 261.58 84.1402 260.92 86.3602L262.48 86.5802C263.1 84.3802 263.8 81.4802 264.24 79.4202L263.1 79.2002L262.82 79.2802H262.64ZM262.36 84.1202L262.04 85.5402H267.02V84.1202H262.36ZM255.32 79.7402V82.4402C255.32 86.0002 255 91.0002 250.7 94.9802C251.04 95.2602 251.56 95.8602 251.78 96.2402C256.44 91.8802 256.84 86.4202 256.84 82.4202V79.7402H255.32Z" fill="#F6BC54"/>
<path d="M272.6 81.2202V82.7402H287.54V81.2202H272.6ZM271.04 86.5002V88.0002H289.02V86.5002H271.04ZM279.14 78.2002V87.3402H280.72V78.2002H279.14ZM277.52 87.4802C276.8 89.6202 275.42 92.6402 274.3 94.5402L275.7 95.0202C276.86 93.1602 278.24 90.3002 279.28 87.9402L277.52 87.4802ZM271.76 94.1802L271.96 95.7802C275.74 95.6202 281.48 95.3202 286.86 95.0202L286.92 93.5602C281.44 93.8202 275.52 94.0802 271.76 94.1802ZM282.78 90.2802C284.52 92.2602 286.48 95.0002 287.34 96.7802L288.82 95.9802C287.9 94.2202 285.96 91.6002 284.16 89.6402L282.78 90.2802Z" fill="#F6BC54"/>
<path d="M297.92 89.3202V90.3802H307.16V89.3202H297.92ZM301.74 87.0602V92.7802H303.04V87.0602H301.74ZM294.94 87.5202H290.86V88.9002H293.5V93.3602H294.94V87.5202ZM294.94 92.6602H293.68C292.72 93.5202 291.62 94.4202 290.72 95.0602L291.46 96.4602C292.48 95.5802 293.44 94.7402 294.32 93.8802C295.62 95.4402 297.42 96.1402 300.06 96.2402C302.28 96.3202 306.56 96.2802 308.78 96.2002C308.84 95.7802 309.08 95.1002 309.24 94.7802C306.86 94.9402 302.24 94.9802 300.04 94.9002C297.68 94.8202 295.92 94.1202 294.94 92.6602ZM291.7 79.3802C292.8 80.0402 294.1 81.0802 294.68 81.8402L295.74 80.8602C295.12 80.1002 293.82 79.1202 292.7 78.4802L291.7 79.3802ZM290.98 83.4802C292.18 84.1202 293.58 85.1602 294.26 85.9202L295.28 84.9002C294.6 84.1402 293.14 83.1602 291.94 82.5402L290.98 83.4802ZM302.06 79.1802V80.3602H307.48V79.1802H302.06ZM299.7 81.3802C300.44 82.4402 301.12 83.8402 301.32 84.7602L302.38 84.2802C302.14 83.3602 301.44 81.9802 300.7 80.9402L299.7 81.3802ZM296.56 79.4202L296.86 84.8002H298.2L297.94 80.1002C298.18 80.0602 298.3 79.9802 298.34 79.8602L296.56 79.4202ZM307.18 79.1802V79.4002C307.06 82.7202 306.92 83.9202 306.66 84.2202C306.54 84.3802 306.38 84.4002 306.14 84.4002C305.9 84.4002 305.32 84.4002 304.66 84.3402C304.82 84.6402 304.94 85.1402 304.98 85.4802C305.66 85.5002 306.34 85.5202 306.7 85.4602C307.16 85.4402 307.46 85.3202 307.72 85.0202C308.12 84.5402 308.28 83.2402 308.42 79.7402C308.44 79.5402 308.44 79.1802 308.44 79.1802H307.18ZM295.66 84.8002L296.06 86.0002C297.58 85.3602 299.48 84.5202 301.32 83.7202L301.12 82.6402C299.1 83.4602 297.04 84.3002 295.66 84.8002ZM300.96 78.2402C300.06 78.8002 298.42 79.4402 297 79.8402C297.16 80.1002 297.36 80.5202 297.44 80.8002C298.94 80.4002 300.74 79.8202 301.98 79.1402L300.96 78.2402ZM303.92 79.6602C303.78 82.2002 303.34 84.2202 301.56 85.3402C301.84 85.5202 302.2 85.9402 302.36 86.2202C304.44 84.9002 304.98 82.6002 305.16 79.6602H303.92ZM298.52 87.6002H306.4V92.2602H298.52V87.6002ZM297.2 86.4602V93.3602H307.8V86.4602H297.2Z" fill="#F6BC54"/>
<path d="M320.12 78.2202C319.34 80.9202 318.06 83.5802 316.48 85.2802C316.84 85.5002 317.44 85.9602 317.7 86.2002C319.26 84.3402 320.66 81.5002 321.56 78.5602L320.12 78.2202ZM319.88 81.1802L319.18 82.5602H327.64V81.1802H319.88ZM327.1 81.1802V81.5202C326.86 90.7602 326.56 94.0802 325.96 94.8002C325.76 95.0802 325.54 95.1402 325.18 95.1202C324.76 95.1202 323.74 95.1202 322.62 95.0402C322.9 95.4402 323.06 96.1002 323.08 96.5402C324.12 96.5802 325.18 96.6202 325.78 96.5402C326.46 96.4602 326.88 96.3002 327.3 95.7002C328.04 94.7602 328.3 91.5402 328.56 81.9802C328.56 81.7602 328.58 81.1802 328.58 81.1802H327.1ZM318.84 85.0202V93.1802H320.2V85.0202H318.84ZM319.5 85.0202V86.3202H323.32V90.3802H319.5V91.7002H324.68V85.0202H319.5ZM311.04 79.2002C314.54 82.1402 315.02 85.3602 315.02 89.0202C315.02 91.6802 314.82 94.0602 314.3 94.7602C314.14 94.9802 313.94 95.0802 313.62 95.1202C313.14 95.1802 312.32 95.1802 311.32 95.1202C311.6 95.5402 311.76 96.1002 311.76 96.6002C312.66 96.6402 313.52 96.6202 314.24 96.5002C314.74 96.4002 315.14 96.1802 315.42 95.8002C316.26 94.6802 316.48 92.0002 316.48 89.0402C316.48 85.2202 316 81.5802 312.08 78.3602L311.04 79.2002ZM315.04 85.3602C314.18 87.3202 312.38 89.5402 310.82 90.6402C311.18 90.9202 311.62 91.4402 311.86 91.7802C313.46 90.4602 315.24 88.0802 316.16 86.0202L315.04 85.3602ZM315.92 78.3202C314.82 80.3802 312.82 82.6802 310.74 84.2002C311.06 84.4602 311.54 84.9002 311.78 85.2002C313.9 83.5602 315.96 81.3002 317.26 79.0202L315.92 78.3202Z" fill="#F6BC54"/>
<path fill-rule="evenodd" clip-rule="evenodd" d="M9.83253 177.952C4.93432 181.611 2 186.588 2 192C2 197.412 4.93432 202.389 9.83253 206.048C14.7309 209.707 21.5443 212 29.1129 212H221.887C229.456 212 236.269 209.707 241.167 206.048C246.066 202.389 249 197.412 249 192C249 186.588 246.066 181.611 241.167 177.952C236.269 174.293 229.456 172 221.887 172H29.1129C21.5443 172 14.7309 174.293 9.83253 177.952ZM8.63562 176.35C13.9121 172.408 21.1552 170 29.1129 170H221.887C229.845 170 237.088 172.408 242.364 176.35C247.641 180.291 251 185.814 251 192C251 198.186 247.641 203.709 242.364 207.65C237.088 211.592 229.845 214 221.887 214H29.1129C21.1552 214 13.9121 211.592 8.63562 207.65C3.35896 203.709 0 198.186 0 192C0 185.814 3.35896 180.291 8.63562 176.35Z" fill="#F6BC54"/>
<path d="M42.8051 196.16V197.58H49.0651V196.16H42.8051ZM41.9851 183.36V199.1H43.4251V184.8H48.3451V198.8H49.8251V183.36H41.9851ZM32.2251 185.3V186.74H39.6651V185.3H32.2251ZM35.6251 181.2C34.8451 185.02 33.5251 190.42 32.5651 193.5L33.8451 194.12C34.8451 190.8 36.2051 185.38 37.0851 181.38L35.6251 181.2ZM33.2651 192.74C35.8451 194.14 38.9051 196.34 40.3051 198L41.1851 196.72C39.7651 195.08 36.6851 192.98 34.0851 191.64L33.2651 192.74ZM39.2451 185.3V185.62C38.6851 192.72 36.3051 196.72 32.5051 198.38C32.8251 198.7 33.2251 199.26 33.4251 199.62C37.5851 197.54 40.0651 193.5 40.6851 185.44L39.7651 185.26L39.4851 185.3H39.2451Z" fill="#F6BC54"/>
<path d="M52.5851 191.82V193.22H70.1451V191.82H52.5851ZM60.5651 182.66V199.6H62.1451V182.66H60.5651ZM60.0251 192.42C58.3451 194.62 55.0451 196.74 52.0851 197.72C52.4051 198.02 52.8851 198.58 53.1051 198.94C56.1051 197.8 59.4251 195.52 61.2851 192.96L60.0251 192.42ZM62.6051 192.36L61.4051 192.9C63.3251 195.36 66.7251 197.7 69.6251 198.86C69.8651 198.48 70.3251 197.9 70.6651 197.6C67.7451 196.62 64.3451 194.5 62.6051 192.36ZM56.0651 186.74H66.7051V188.84H56.0651V186.74ZM56.0651 183.46H66.7051V185.52H56.0651V183.46ZM54.5251 182.18V190.12H68.3051V182.18H54.5251Z" fill="#F6BC54"/>
<path d="M72.6251 183.8V185.22H90.1451V183.8H72.6251ZM77.5051 190.94V192.24H86.9051V190.94H77.5051ZM76.4451 187.54V199.6H77.9251V188.88H86.6651V187.54H76.4451ZM86.3251 187.54V197.72C86.3251 198.02 86.2051 198.12 85.8651 198.14C85.5051 198.14 84.2851 198.16 82.9451 198.1C83.1651 198.52 83.3851 199.14 83.4451 199.56C85.1651 199.56 86.2851 199.56 86.9251 199.32C87.6051 199.08 87.7851 198.62 87.7851 197.74V187.54H86.3251ZM79.1651 181.2C78.0851 185.22 75.7251 189.46 72.1451 191.92C72.4451 192.22 72.9051 192.74 73.1051 193.08C76.9251 190.4 79.3251 185.96 80.6851 181.56L79.1651 181.2ZM77.5051 194.32V195.62H86.9051V194.32H77.5051Z" fill="#F6BC54"/>
<path d="M100.325 181.82C100.185 184.48 100.185 194.1 92.0251 198.26C92.4851 198.6 92.9851 199.06 93.2451 199.44C101.525 194.94 101.825 184.96 101.985 181.82H100.325ZM101.925 182.22L100.485 182.36C100.625 184.2 101.185 195.38 109.665 199.44C109.905 199.02 110.365 198.52 110.805 198.18C102.565 194.4 101.985 183.78 101.925 182.22Z" fill="#F6BC54"/>
<path d="M115.505 181.2C115.025 182.66 114.085 184.76 113.325 186.04L114.605 186.42C115.405 185.16 116.345 183.22 117.065 181.56L115.505 181.2ZM112.145 185.44L112.285 186.9C114.465 186.78 117.565 186.62 120.545 186.44L120.565 185.1C117.425 185.24 114.245 185.38 112.145 185.44ZM113.365 188.34V199.58H114.765V189.62H119.705V188.34H113.365ZM119.025 188.34V197.86C119.025 198.12 118.945 198.18 118.685 198.18C118.405 198.2 117.545 198.22 116.605 198.18C116.805 198.56 117.025 199.16 117.105 199.56C118.365 199.56 119.245 199.54 119.805 199.3C120.345 199.06 120.505 198.64 120.505 197.88V188.34H119.025ZM114.025 191.32V192.5H119.805V191.32H114.025ZM114.025 194.32V195.52H119.805V194.32H114.025ZM122.385 181.24V187.88C122.385 189.54 122.885 190 124.805 190C125.205 190 127.825 190 128.245 190C129.865 190 130.305 189.34 130.485 186.9C130.045 186.8 129.445 186.58 129.125 186.32C129.045 188.3 128.905 188.64 128.125 188.64C127.545 188.64 125.365 188.64 124.945 188.64C124.025 188.64 123.865 188.5 123.865 187.86V181.24H122.385ZM128.505 182.72C127.145 183.42 124.865 184.3 122.885 184.92C123.065 185.22 123.265 185.66 123.345 185.98C125.405 185.4 127.805 184.62 129.505 183.82L128.505 182.72ZM122.385 190.54V197.32C122.385 198.98 122.905 199.44 124.845 199.44C125.265 199.44 127.965 199.44 128.405 199.44C130.085 199.44 130.525 198.72 130.725 196.02C130.305 195.94 129.705 195.7 129.365 195.46C129.265 197.72 129.145 198.1 128.285 198.1C127.685 198.1 125.425 198.1 125.005 198.1C124.045 198.1 123.865 197.98 123.865 197.3V190.54H122.385ZM128.745 191.64C127.385 192.52 124.965 193.44 122.885 194.04C123.045 194.34 123.265 194.82 123.345 195.12C125.505 194.54 128.065 193.72 129.745 192.76L128.745 191.64ZM118.005 183.1C119.065 184.52 120.145 186.44 120.565 187.66L121.885 187.08C121.425 185.84 120.305 184 119.245 182.6L118.005 183.1Z" fill="#F6BC54"/>
<path d="M140.605 193.88V199.6H142.085V193.88H140.605ZM133.885 195.22V199.28H135.345V196.32H148.305V195.22H133.885ZM147.745 195.22V197.84C147.745 198.06 147.665 198.12 147.365 198.14C147.065 198.16 146.105 198.16 144.945 198.12C145.145 198.46 145.365 198.88 145.445 199.26C146.905 199.26 147.865 199.26 148.465 199.08C149.045 198.88 149.205 198.54 149.205 197.84V195.22H147.745ZM141.525 183V184.16H150.325V183H141.525ZM133.345 182.3V183.16H140.785V182.3H133.345ZM133.045 185.94V186.82H141.025V185.94H133.045ZM132.625 184.1V185H141.385V184.1H132.625ZM142.465 185.06C143.205 185.76 143.985 186.78 144.325 187.48L145.385 186.84C145.025 186.16 144.205 185.18 143.465 184.5L142.465 185.06ZM132.505 188.18L132.625 189.22C134.945 189.02 138.245 188.72 141.445 188.42L141.465 187.5C138.125 187.78 134.745 188.04 132.505 188.18ZM146.745 181.24V187.68C146.745 187.9 146.685 187.98 146.405 187.98C146.185 187.98 145.365 187.98 144.405 187.98C144.605 188.28 144.845 188.74 144.925 189.08C146.165 189.08 146.945 189.08 147.485 188.88C148.005 188.68 148.165 188.38 148.165 187.7V181.24H146.745ZM136.305 181.22V184.7H137.705V181.22H136.305ZM136.305 184.7V188.46H137.705V184.7H136.305ZM136.185 192.4H146.705V193.32H136.185V192.4ZM136.185 190.62H146.705V191.5H136.185V190.62ZM134.825 189.68V194.24H148.105V189.68H134.825ZM141.085 188.28C140.945 188.72 140.625 189.42 140.405 189.92L141.545 190.22C141.805 189.8 142.145 189.22 142.485 188.6L141.085 188.28Z" fill="#F6BC54"/>
<path d="M163.925 181.2V186.28H165.425V181.2H163.925ZM158.825 185.26V186.72H170.565V185.26H158.825ZM160.645 185.96V195.96C160.645 198.12 161.385 198.86 163.525 198.86C163.965 198.86 167.305 198.86 168.045 198.86C168.945 198.86 169.825 198.82 170.185 198.72C170.105 198.36 170.025 197.68 169.985 197.28C169.545 197.38 168.665 197.42 168.065 197.42C167.325 197.42 164.125 197.42 163.445 197.42C162.465 197.42 162.145 197.06 162.145 196.04V185.96H160.645ZM155.105 181.2V199.58H156.565V181.2H155.105ZM153.045 185.06C153.005 186.84 152.685 189 151.965 190.2L153.065 190.72C153.845 189.34 154.185 187.06 154.185 185.22L153.045 185.06ZM156.845 184.88C157.485 186.06 158.125 187.64 158.345 188.62L159.385 188.08C159.165 187.14 158.485 185.6 157.805 184.46L156.845 184.88Z" fill="#F6BC54"/>
<path d="M176.465 181.2V184.56H177.985V181.2H176.465ZM172.405 183.76V185.14H181.925V183.76H172.405ZM181.785 186.5V187.92H190.485V186.5H181.785ZM174.885 188H179.545V190.68H174.885V188ZM173.485 186.7V191.96H181.005V186.7H173.485ZM176.545 191.42V197.88C176.545 198.1 176.465 198.16 176.245 198.18C175.985 198.2 175.205 198.2 174.285 198.18C174.485 198.56 174.705 199.14 174.765 199.54C175.985 199.54 176.805 199.54 177.325 199.3C177.845 199.06 177.985 198.64 177.985 197.9V191.42H176.545ZM173.865 193.02C173.505 194.62 172.865 196.2 172.005 197.26C172.345 197.46 172.905 197.88 173.165 198.12C174.065 196.94 174.825 195.12 175.245 193.32L173.865 193.02ZM179.025 193.28C179.585 194.34 180.165 195.78 180.405 196.7L181.665 196.24C181.425 195.32 180.825 193.92 180.225 192.86L179.025 193.28ZM186.765 182.38C187.725 183.36 188.665 184.76 189.065 185.72L190.305 185.08C189.905 184.12 188.945 182.78 187.925 181.82L186.765 182.38ZM184.685 181.2V185.4C184.685 189.3 184.325 194.88 180.045 198.78C180.425 198.96 181.045 199.36 181.325 199.64C185.725 195.54 186.145 189.66 186.145 185.4V181.2H184.685ZM185.645 188.92V197.5C185.645 198.52 185.745 198.84 186.105 199.14C186.445 199.4 186.945 199.48 187.405 199.48C187.665 199.48 188.365 199.48 188.665 199.48C189.105 199.48 189.585 199.4 189.865 199.26C190.205 199.06 190.405 198.78 190.545 198.32C190.645 197.9 190.725 196.68 190.745 195.62C190.365 195.5 189.865 195.24 189.565 194.98C189.585 196.08 189.545 197.04 189.505 197.42C189.465 197.66 189.345 197.86 189.205 197.94C189.065 198.02 188.805 198.06 188.565 198.06C188.305 198.06 187.945 198.06 187.745 198.06C187.525 198.06 187.345 198.02 187.225 197.92C187.085 197.86 187.025 197.72 187.025 197.56V188.92H185.645Z" fill="#F6BC54"/>
<path d="M200.305 182.24V183.64H209.085V182.24H200.305ZM199.625 189.26V190.7H210.625V189.26H199.625ZM204.345 186.6V197.7C204.345 198 204.245 198.1 203.905 198.12C203.545 198.14 202.425 198.14 201.165 198.1C201.365 198.5 201.625 199.16 201.705 199.56C203.305 199.58 204.345 199.54 205.005 199.3C205.625 199.06 205.845 198.62 205.845 197.72V186.6H204.345ZM208.545 182.24V182.58C207.745 183.88 206.085 185.76 204.645 186.84C204.905 187.04 205.325 187.44 205.545 187.72C207.145 186.52 209.005 184.58 210.205 182.88L209.225 182.16L208.905 182.24H208.545ZM192.225 185.34V186.74H198.805V185.34H192.225ZM195.245 181.22C194.565 185.02 193.365 190.38 192.485 193.44L193.745 194.1C194.645 190.78 195.905 185.38 196.665 181.38L195.245 181.22ZM193.225 192.8C195.465 194.1 198.045 196.14 199.245 197.64L200.145 196.42C198.945 194.94 196.305 193.02 194.065 191.76L193.225 192.8ZM198.305 185.34V185.64C197.805 192.44 195.725 196.68 192.385 198.44C192.705 198.74 193.125 199.28 193.325 199.64C197.005 197.44 199.185 193.2 199.725 185.46L198.825 185.28L198.545 185.34H198.305Z" fill="#F6BC54"/>
<path d="M220.605 188.02V197.64C220.605 198 220.465 198.12 220.025 198.14C219.565 198.16 218.025 198.16 216.365 198.1C216.605 198.54 216.885 199.18 216.985 199.62C219.005 199.62 220.345 199.6 221.125 199.36C221.905 199.14 222.165 198.68 222.165 197.68V188.02H220.605ZM213.325 182.78V184.24H227.765V182.78H213.325ZM227.225 182.78V183.14C225.965 184.8 223.325 187.1 221.045 188.36C221.365 188.58 221.845 189.08 222.065 189.4C224.545 188 227.365 185.64 229.145 183.52L227.985 182.68L227.625 182.78H227.225Z" fill="#F6BC54"/>
</svg>
