<svg width="356" height="214" viewBox="0 0 356 214" fill="none" xmlns="http://www.w3.org/2000/svg">
<path d="M257.226 1H66.7742C51.4349 1 39 10.402 39 22C39 33.598 51.4349 43 66.7742 43H257.226C272.565 43 285 33.598 285 22C285 10.402 272.565 1 257.226 1Z" stroke="#F6BC54" stroke-width="2" stroke-miterlimit="10"/>
<path d="M85.46 12.38V28.8H86.8V13.74H92.62V12.38H85.46ZM86.16 16.66V18.02H90.96V21.48H86.16V22.82H92.28V16.66H86.16ZM88.66 12.94V17.32H90V12.94H88.66ZM88.66 22.18V26.92H90V22.18H88.66ZM86.12 26.26V27.62H92.64V26.26H86.12ZM94.46 13.26V14.6H102.9V13.26H94.46ZM93.5 27.16V28.4H96.82V27.16H93.5ZM98.88 27.16V28.4H102.36V27.16H98.88ZM94.84 11.18C94.28 13.26 93.3 15.32 92.12 16.68C92.46 16.92 93.04 17.44 93.26 17.7C94.48 16.18 95.6 13.84 96.28 11.54L94.84 11.18ZM95.74 17.24H100.4V19.62H95.74V17.24ZM94.46 16.04V20.82H101.74V16.04H94.46ZM93.06 22.12V29.54H94.2V23.34H96.28V29.28H97.46V22.12H93.06ZM98.42 22.12V29.56H99.58V23.34H101.8V29.36H102.98V22.12H98.42ZM112.42 13.6V14.92H122.42V13.6H112.42ZM111.56 17.48V18.82H123.28V17.48H111.56ZM111.66 21.1V22.44H123.06V21.1H111.66ZM116.62 11.2V18.3H118.1V11.2H116.62ZM119.26 18.62V27.8C119.26 28.1 119.16 28.18 118.82 28.2C118.5 28.22 117.38 28.22 116.14 28.18C116.36 28.58 116.6 29.18 116.66 29.58C118.26 29.58 119.28 29.56 119.9 29.34C120.52 29.12 120.72 28.68 120.72 27.82V18.62H119.26ZM112.88 23.84C113.9 24.88 114.98 26.38 115.42 27.36L116.72 26.56C116.24 25.58 115.12 24.16 114.08 23.12L112.88 23.84ZM106.22 12.52V13.88H109.82V24.3H106.22V25.66H111.22V12.52H106.22ZM106.28 18.34V19.68H110.48V18.34H106.28ZM105.5 12.52V27.3H106.92V12.52H105.5ZM124.9 22.14V23.4H143.1V22.14H124.9ZM125.38 12.08V13.4H142.6V12.08H125.38ZM131.84 20.04C130.6 22 128.74 24.68 127.46 26.3L128.88 26.78C130.16 25.14 132 22.52 133.3 20.44L131.84 20.04ZM137.84 22.58C136.24 26.48 132.32 27.9 125.18 28.28C125.42 28.62 125.66 29.16 125.76 29.6C133.26 29.04 137.52 27.4 139.28 23L137.84 22.58ZM128.54 26.1C133.62 27.04 138.52 28.4 141.58 29.66L142.48 28.44C139.38 27.22 134.24 25.88 129.3 25L128.54 26.1ZM130.84 12.58V19.56H132.26V12.58H130.84ZM135.5 12.58V19.56H136.92V12.58H135.5ZM127.78 16.34H140.26V19.06H127.78V16.34ZM126.38 15.12V20.3H141.76V15.12H126.38ZM146.98 26.88V28.36H161.1V26.88H146.98ZM153.12 11.32V27.72H154.66V11.32H153.12ZM146.24 21.3V29.62H147.76V21.3H146.24ZM160.3 21.3V29.56H161.84V21.3H160.3ZM147.02 13.12V20.02H161.04V13.12H159.48V18.56H148.5V13.12H147.02ZM166.54 15.18V16.32H172.1V15.18H166.54ZM175.74 15.18V16.32H181.4V15.18H175.74ZM180.76 12.16V27.56C180.76 27.94 180.64 28.04 180.24 28.06C179.84 28.08 178.46 28.1 177.08 28.02C177.3 28.46 177.56 29.16 177.64 29.58C179.46 29.58 180.64 29.56 181.34 29.3C182.02 29.06 182.26 28.58 182.26 27.56V12.16H180.76ZM166.66 12.16V13.42H171.56V18.24H166.66V19.5H172.98V12.16H166.66ZM181.54 12.16H174.86V19.52H181.54V18.26H176.3V13.42H181.54V12.16ZM165.82 12.16V29.6H167.3V12.16H165.82ZM190.08 23.68V27.36C190.08 28.92 190.6 29.34 192.72 29.34C193.14 29.34 196.16 29.34 196.62 29.34C198.32 29.34 198.78 28.76 198.98 26.36C198.56 26.26 197.94 26.06 197.62 25.8C197.54 27.72 197.38 27.98 196.5 27.98C195.84 27.98 193.32 27.98 192.84 27.98C191.74 27.98 191.56 27.88 191.56 27.34V23.68H190.08ZM191.72 22.9C193.02 23.58 194.54 24.7 195.24 25.54L196.32 24.56C195.6 23.72 194.06 22.66 192.74 22.02L191.72 22.9ZM198.24 23.92C199.74 25.3 201.22 27.24 201.76 28.6L203.14 27.9C202.56 26.48 201.02 24.6 199.52 23.28L198.24 23.92ZM187.46 23.58C187.02 25.26 186.12 27.02 184.72 28.06L185.96 28.88C187.46 27.72 188.26 25.82 188.8 24.02L187.46 23.58ZM189.1 13.5V14.84H202.52V13.5H189.1ZM193.16 16.54V17.78H201.5V16.54H193.16ZM193.18 19.58V20.86H201.98V19.58H193.18ZM192.5 13.94V22.46H194V13.94H192.5ZM189.72 11.16C188.76 13.98 187.02 16.56 184.92 18.18C185.3 18.42 185.94 18.98 186.2 19.28C188.3 17.46 190.16 14.68 191.28 11.54L189.72 11.16ZM208.3 27.86L208.4 29.14C211.68 29.08 216.66 28.9 221.38 28.74L221.44 27.58C216.6 27.72 211.5 27.82 208.3 27.86ZM217.78 22.62C216.1 24.34 213.28 26.66 211.12 28.02L212.08 28.68C214.24 27.36 217.04 25.18 219.06 23.34L217.78 22.62ZM214 21.34C213.28 22.26 212 23.54 211.02 24.32L211.96 24.9C212.96 24.18 214.2 23.04 215.22 22.02L214 21.34ZM209.48 24.1C210.9 24.92 212.7 26.18 213.56 26.98L214.6 26C213.68 25.18 211.86 24 210.46 23.22L209.48 24.1ZM217.74 25.7C219.22 26.88 220.92 28.56 221.74 29.66L223 29C222.14 27.86 220.38 26.22 218.92 25.1L217.74 25.7ZM208.6 15.82V16.94H214.84V15.82H208.6ZM215.54 15.82V16.94H222.54V15.82H215.54ZM211.18 14.38V21.7H212.34V14.38H211.18ZM213.44 17.6V20.7H214.38V17.6H213.44ZM218.08 14.38V21.76H219.26V14.38H218.08ZM209.2 17.6V18.36C209.2 19.26 209.08 20.48 208.22 21.26C208.48 21.4 208.88 21.68 209.04 21.9C210 20.88 210.14 19.56 210.14 18.4V17.6H209.2ZM216.08 17.56V18.28C216.08 19.1 215.96 20.24 215.14 20.94C215.4 21.08 215.8 21.38 215.98 21.6C216.88 20.66 217.02 19.4 217.02 18.34V17.56H216.08ZM220.36 17.56V20.14C220.36 20.94 220.42 21.2 220.62 21.4C220.8 21.58 221.12 21.64 221.42 21.64C221.56 21.64 221.94 21.64 222.1 21.64C222.28 21.64 222.54 21.62 222.68 21.54C222.86 21.46 223.02 21.32 223.1 21.12C223.2 20.92 223.24 20.32 223.26 19.8C223.02 19.74 222.7 19.58 222.5 19.44C222.48 19.92 222.46 20.32 222.42 20.48C222.38 20.64 222.34 20.74 222.28 20.78C222.24 20.82 222.1 20.82 222 20.82C221.86 20.82 221.7 20.82 221.62 20.82C221.52 20.82 221.44 20.8 221.4 20.76C221.36 20.7 221.36 20.54 221.36 20.28V17.56H220.36ZM213.8 11.22V13.56H215.34V11.22H213.8ZM207.02 12.9V14.2H222.98V12.9H207.02ZM206.18 12.9V19.08C206.18 21.96 206.06 25.96 204.64 28.8C204.96 28.96 205.56 29.4 205.8 29.66C207.34 26.64 207.58 22.14 207.58 19.08V12.9H206.18ZM231.08 15.82V17.14H235.36V15.82H231.08ZM234.96 15.82V16.16C234.86 24.5 234.74 27.28 234.4 27.82C234.26 28.08 234.12 28.14 233.9 28.14C233.62 28.14 233.1 28.14 232.48 28.08C232.68 28.42 232.8 28.98 232.84 29.36C233.44 29.38 234.04 29.4 234.44 29.34C234.92 29.28 235.24 29.12 235.52 28.66C235.98 27.9 236.08 25.16 236.2 16.5C236.2 16.34 236.22 15.82 236.22 15.82H234.96ZM232.42 11.2C232.46 18.78 232.32 25 229.7 28.74C229.98 28.94 230.52 29.42 230.72 29.64C233.44 25.44 233.62 19.3 233.66 11.2H232.42ZM227.38 11.2V14.42H228.78V11.2H227.38ZM225.02 13.88V15.14H230.96V13.88H225.02ZM224.82 19.22V20.48H231.18V19.22H224.82ZM225.66 15.76C226 16.78 226.24 18.16 226.24 19.04L227.44 18.72C227.4 17.84 227.14 16.5 226.76 15.48L225.66 15.76ZM229.38 15.4C229.22 16.4 228.84 17.9 228.54 18.82L229.56 19.08C229.9 18.22 230.28 16.84 230.64 15.68L229.38 15.4ZM224.72 23.52L225 24.86C226.7 24.56 229 24.16 231.22 23.76L231.14 22.52C228.74 22.92 226.34 23.3 224.72 23.52ZM239.1 11.2V14.42H240.5V11.2H239.1ZM239.1 19.68V29.64H240.5V19.68H239.1ZM236.64 13.86V15.14H242.96V13.86H236.64ZM236.52 19.2V20.48H243.2V19.2H236.52ZM236.72 23.32V24.6H242.9V23.32H236.72ZM237.26 15.76C237.62 16.8 237.9 18.2 237.92 19.1L239.08 18.78C239.04 17.88 238.76 16.5 238.34 15.46L237.26 15.76ZM241.2 15.36C241.04 16.36 240.62 17.86 240.32 18.8L241.34 19.08C241.72 18.2 242.12 16.84 242.5 15.68L241.2 15.36ZM227.38 19.7V23.18C227.38 24.84 227.16 27.22 224.98 28.62C225.3 28.86 225.72 29.32 225.9 29.62C228.36 27.9 228.78 25.22 228.78 23.18V19.7H227.38Z" fill="#F6BC54"/>
<path d="M327.226 68H136.774C121.435 68 109 77.402 109 89C109 100.598 121.435 110 136.774 110H327.226C342.565 110 355 100.598 355 89C355 77.402 342.565 68 327.226 68Z" stroke="#F6BC54" stroke-width="2" stroke-miterlimit="10"/>
<path d="M150.9 89.14V90.4H169.1V89.14H150.9ZM151.38 79.08V80.4H168.6V79.08H151.38ZM157.84 87.04C156.6 89 154.74 91.68 153.46 93.3L154.88 93.78C156.16 92.14 158 89.52 159.3 87.44L157.84 87.04ZM163.84 89.58C162.24 93.48 158.32 94.9 151.18 95.28C151.42 95.62 151.66 96.16 151.76 96.6C159.26 96.04 163.52 94.4 165.28 90L163.84 89.58ZM154.54 93.1C159.62 94.04 164.52 95.4 167.58 96.66L168.48 95.44C165.38 94.22 160.24 92.88 155.3 92L154.54 93.1ZM156.84 79.58V86.56H158.26V79.58H156.84ZM161.5 79.58V86.56H162.92V79.58H161.5ZM153.78 83.34H166.26V86.06H153.78V83.34ZM152.38 82.12V87.3H167.76V82.12H152.38ZM182.1 93.38V94.84H187.54V93.38H182.1ZM171.06 82V83.46H178.74V82H171.06ZM181.42 80.7V96.3H182.88V82.14H186.74V96.16H188.26V80.7H181.42ZM178.34 82V82.36C178.2 90.92 178.02 93.88 177.56 94.5C177.38 94.76 177.2 94.82 176.9 94.8C176.52 94.8 175.66 94.8 174.72 94.72C174.98 95.14 175.14 95.8 175.16 96.24C176.06 96.3 176.98 96.3 177.54 96.22C178.14 96.16 178.5 95.98 178.86 95.46C179.5 94.58 179.64 91.66 179.8 82.76C179.8 82.56 179.8 82 179.8 82H178.34ZM173.9 78.48C173.88 85.48 173.9 92.08 170.56 95.6C170.94 95.82 171.46 96.28 171.72 96.62C175.24 92.8 175.34 85.86 175.36 78.48H173.9ZM197.14 80.48V89.6H198.42V80.48H197.14ZM202.22 79.4V80.78H208.82V79.4H202.22ZM200.86 94.52V95.92H209.24V94.52H200.86ZM202.38 86.74V88.1H208.7V86.74H202.38ZM204.74 79.94V95.26H206.16V79.94H204.74ZM200.38 78.2V86.74C200.38 90.34 199.94 93.42 196.46 95.54C196.76 95.8 197.22 96.3 197.4 96.62C201.24 94.26 201.76 90.8 201.76 86.76V78.2H200.38ZM190.84 79.5V80.88H196.76V79.5H190.84ZM191.04 85.94V87.3H196.4V85.94H191.04ZM190.54 93.38L190.86 94.8C192.64 94.26 194.94 93.58 197.16 92.92L196.98 91.58C194.6 92.26 192.2 92.98 190.54 93.38ZM193.08 80.1V93.32L194.48 93.02V80.1H193.08ZM211.44 81V82.46H228.7V81H211.44ZM219.16 78.22V96.6H220.72V78.22H219.16ZM219.34 87.1C217.54 90.14 214.08 93.06 210.74 94.42C211.08 94.72 211.56 95.32 211.8 95.7C215.18 94.12 218.64 91.02 220.6 87.6L219.34 87.1ZM220.64 87.14L219.38 87.66C221.32 91.08 224.72 94.2 228.16 95.74C228.42 95.32 228.9 94.72 229.28 94.4C225.82 93.08 222.4 90.2 220.64 87.14ZM214.1 86.06C215.06 86.9 216.26 88.1 216.88 88.82L217.9 87.8C217.28 87.08 216.04 85.94 215.1 85.14L214.1 86.06ZM214.94 82.94C214.34 85.52 213.08 87.7 211.26 89.06C211.62 89.3 212.2 89.78 212.44 90.04C214.3 88.5 215.7 86.12 216.4 83.2L214.94 82.94ZM223.72 86.1C225.08 87.2 226.88 88.74 227.74 89.7L228.8 88.66C227.9 87.74 226.06 86.24 224.72 85.22L223.72 86.1ZM224.42 82.94C223.98 85.18 223.02 87.14 221.56 88.36C221.92 88.54 222.56 88.96 222.84 89.2C224.26 87.8 225.34 85.7 225.86 83.18L224.42 82.94ZM231.38 79.62V81.14H248.6V79.62H231.38ZM241.18 85.44C243.56 87.06 246.56 89.4 247.96 90.94L249.18 89.8C247.7 88.26 244.64 86 242.3 84.48L241.18 85.44ZM240.8 80.14C238.94 83.9 235.22 87.74 230.88 89.92C231.18 90.24 231.66 90.84 231.9 91.22C236.42 88.84 240.16 84.88 242.44 80.74L240.8 80.14ZM239.16 84.14V96.58H240.78V82.54L239.16 84.14ZM256.74 80.98L255.42 81.28C257.28 89.22 260.78 94.56 268.38 96.58C268.62 96.16 269.08 95.5 269.42 95.18C262 93.42 258.42 88.28 256.74 80.98ZM251.78 79.28V80.74H262.98V79.28H251.78ZM266.68 84.12V84.4C265.2 90.6 260.62 94.02 255.34 95.3C255.66 95.62 256.02 96.24 256.2 96.62C261.82 95.04 266.56 91.52 268.26 84.46L267.24 84.06L266.96 84.12H266.68ZM262.64 79.28V79.46C262.3 81.06 261.58 84.14 260.92 86.36L262.48 86.58C263.1 84.38 263.8 81.48 264.24 79.42L263.1 79.2L262.82 79.28H262.64ZM262.36 84.12L262.04 85.54H267.02V84.12H262.36ZM255.32 79.74V82.44C255.32 86 255 91 250.7 94.98C251.04 95.26 251.56 95.86 251.78 96.24C256.44 91.88 256.84 86.42 256.84 82.42V79.74H255.32ZM272.6 81.22V82.74H287.54V81.22H272.6ZM271.04 86.5V88H289.02V86.5H271.04ZM279.14 78.2V87.34H280.72V78.2H279.14ZM277.52 87.48C276.8 89.62 275.42 92.64 274.3 94.54L275.7 95.02C276.86 93.16 278.24 90.3 279.28 87.94L277.52 87.48ZM271.76 94.18L271.96 95.78C275.74 95.62 281.48 95.32 286.86 95.02L286.92 93.56C281.44 93.82 275.52 94.08 271.76 94.18ZM282.78 90.28C284.52 92.26 286.48 95 287.34 96.78L288.82 95.98C287.9 94.22 285.96 91.6 284.16 89.64L282.78 90.28ZM297.92 89.32V90.38H307.16V89.32H297.92ZM301.74 87.06V92.78H303.04V87.06H301.74ZM294.94 87.52H290.86V88.9H293.5V93.36H294.94V87.52ZM294.94 92.66H293.68C292.72 93.52 291.62 94.42 290.72 95.06L291.46 96.46C292.48 95.58 293.44 94.74 294.32 93.88C295.62 95.44 297.42 96.14 300.06 96.24C302.28 96.32 306.56 96.28 308.78 96.2C308.84 95.78 309.08 95.1 309.24 94.78C306.86 94.94 302.24 94.98 300.04 94.9C297.68 94.82 295.92 94.12 294.94 92.66ZM291.7 79.38C292.8 80.04 294.1 81.08 294.68 81.84L295.74 80.86C295.12 80.1 293.82 79.12 292.7 78.48L291.7 79.38ZM290.98 83.48C292.18 84.12 293.58 85.16 294.26 85.92L295.28 84.9C294.6 84.14 293.14 83.16 291.94 82.54L290.98 83.48ZM302.06 79.18V80.36H307.48V79.18H302.06ZM299.7 81.38C300.44 82.44 301.12 83.84 301.32 84.76L302.38 84.28C302.14 83.36 301.44 81.98 300.7 80.94L299.7 81.38ZM296.56 79.42L296.86 84.8H298.2L297.94 80.1C298.18 80.06 298.3 79.98 298.34 79.86L296.56 79.42ZM307.18 79.18V79.4C307.06 82.72 306.92 83.92 306.66 84.22C306.54 84.38 306.38 84.4 306.14 84.4C305.9 84.4 305.32 84.4 304.66 84.34C304.82 84.64 304.94 85.14 304.98 85.48C305.66 85.5 306.34 85.52 306.7 85.46C307.16 85.44 307.46 85.32 307.72 85.02C308.12 84.54 308.28 83.24 308.42 79.74C308.44 79.54 308.44 79.18 308.44 79.18H307.18ZM295.66 84.8L296.06 86C297.58 85.36 299.48 84.52 301.32 83.72L301.12 82.64C299.1 83.46 297.04 84.3 295.66 84.8ZM300.96 78.24C300.06 78.8 298.42 79.44 297 79.84C297.16 80.1 297.36 80.52 297.44 80.8C298.94 80.4 300.74 79.82 301.98 79.14L300.96 78.24ZM303.92 79.66C303.78 82.2 303.34 84.22 301.56 85.34C301.84 85.52 302.2 85.94 302.36 86.22C304.44 84.9 304.98 82.6 305.16 79.66H303.92ZM298.52 87.6H306.4V92.26H298.52V87.6ZM297.2 86.46V93.36H307.8V86.46H297.2ZM320.12 78.22C319.34 80.92 318.06 83.58 316.48 85.28C316.84 85.5 317.44 85.96 317.7 86.2C319.26 84.34 320.66 81.5 321.56 78.56L320.12 78.22ZM319.88 81.18L319.18 82.56H327.64V81.18H319.88ZM327.1 81.18V81.52C326.86 90.76 326.56 94.08 325.96 94.8C325.76 95.08 325.54 95.14 325.18 95.12C324.76 95.12 323.74 95.12 322.62 95.04C322.9 95.44 323.06 96.1 323.08 96.54C324.12 96.58 325.18 96.62 325.78 96.54C326.46 96.46 326.88 96.3 327.3 95.7C328.04 94.76 328.3 91.54 328.56 81.98C328.56 81.76 328.58 81.18 328.58 81.18H327.1ZM318.84 85.02V93.18H320.2V85.02H318.84ZM319.5 85.02V86.32H323.32V90.38H319.5V91.7H324.68V85.02H319.5ZM311.04 79.2C314.54 82.14 315.02 85.36 315.02 89.02C315.02 91.68 314.82 94.06 314.3 94.76C314.14 94.98 313.94 95.08 313.62 95.12C313.14 95.18 312.32 95.18 311.32 95.12C311.6 95.54 311.76 96.1 311.76 96.6C312.66 96.64 313.52 96.62 314.24 96.5C314.74 96.4 315.14 96.18 315.42 95.8C316.26 94.68 316.48 92 316.48 89.04C316.48 85.22 316 81.58 312.08 78.36L311.04 79.2ZM315.04 85.36C314.18 87.32 312.38 89.54 310.82 90.64C311.18 90.92 311.62 91.44 311.86 91.78C313.46 90.46 315.24 88.08 316.16 86.02L315.04 85.36ZM315.92 78.32C314.82 80.38 312.82 82.68 310.74 84.2C311.06 84.46 311.54 84.9 311.78 85.2C313.9 83.56 315.96 81.3 317.26 79.02L315.92 78.32Z" fill="#F6BC54"/>
<path d="M221.887 171H29.1129C13.5866 171 1 180.402 1 192C1 203.598 13.5866 213 29.1129 213H221.887C237.413 213 250 203.598 250 192C250 180.402 237.413 171 221.887 171Z" stroke="#F6BC54" stroke-width="2" stroke-miterlimit="10"/>
<path d="M42.8052 196.16V197.58H49.0652V196.16H42.8052ZM41.9852 183.36V199.1H43.4252V184.8H48.3452V198.8H49.8252V183.36H41.9852ZM32.2252 185.3V186.74H39.6652V185.3H32.2252ZM35.6252 181.2C34.8452 185.02 33.5252 190.42 32.5652 193.5L33.8452 194.12C34.8452 190.8 36.2052 185.38 37.0852 181.38L35.6252 181.2ZM33.2652 192.74C35.8452 194.14 38.9052 196.34 40.3052 198L41.1852 196.72C39.7652 195.08 36.6852 192.98 34.0852 191.64L33.2652 192.74ZM39.2452 185.3V185.62C38.6852 192.72 36.3052 196.72 32.5052 198.38C32.8252 198.7 33.2252 199.26 33.4252 199.62C37.5852 197.54 40.0652 193.5 40.6852 185.44L39.7652 185.26L39.4852 185.3H39.2452ZM52.5852 191.82V193.22H70.1452V191.82H52.5852ZM60.5652 182.66V199.6H62.1452V182.66H60.5652ZM60.0252 192.42C58.3452 194.62 55.0452 196.74 52.0852 197.72C52.4052 198.02 52.8852 198.58 53.1052 198.94C56.1052 197.8 59.4252 195.52 61.2852 192.96L60.0252 192.42ZM62.6052 192.36L61.4052 192.9C63.3252 195.36 66.7252 197.7 69.6252 198.86C69.8652 198.48 70.3252 197.9 70.6652 197.6C67.7452 196.62 64.3452 194.5 62.6052 192.36ZM56.0652 186.74H66.7052V188.84H56.0652V186.74ZM56.0652 183.46H66.7052V185.52H56.0652V183.46ZM54.5252 182.18V190.12H68.3052V182.18H54.5252ZM72.6252 183.8V185.22H90.1452V183.8H72.6252ZM77.5052 190.94V192.24H86.9052V190.94H77.5052ZM76.4452 187.54V199.6H77.9252V188.88H86.6652V187.54H76.4452ZM86.3252 187.54V197.72C86.3252 198.02 86.2052 198.12 85.8652 198.14C85.5052 198.14 84.2852 198.16 82.9452 198.1C83.1652 198.52 83.3852 199.14 83.4452 199.56C85.1652 199.56 86.2852 199.56 86.9252 199.32C87.6052 199.08 87.7852 198.62 87.7852 197.74V187.54H86.3252ZM79.1652 181.2C78.0852 185.22 75.7252 189.46 72.1452 191.92C72.4452 192.22 72.9052 192.74 73.1052 193.08C76.9252 190.4 79.3252 185.96 80.6852 181.56L79.1652 181.2ZM77.5052 194.32V195.62H86.9052V194.32H77.5052ZM100.325 181.82C100.185 184.48 100.185 194.1 92.0252 198.26C92.4852 198.6 92.9852 199.06 93.2452 199.44C101.525 194.94 101.825 184.96 101.985 181.82H100.325ZM101.925 182.22L100.485 182.36C100.625 184.2 101.185 195.38 109.665 199.44C109.905 199.02 110.365 198.52 110.805 198.18C102.565 194.4 101.985 183.78 101.925 182.22ZM115.505 181.2C115.025 182.66 114.085 184.76 113.325 186.04L114.605 186.42C115.405 185.16 116.345 183.22 117.065 181.56L115.505 181.2ZM112.145 185.44L112.285 186.9C114.465 186.78 117.565 186.62 120.545 186.44L120.565 185.1C117.425 185.24 114.245 185.38 112.145 185.44ZM113.365 188.34V199.58H114.765V189.62H119.705V188.34H113.365ZM119.025 188.34V197.86C119.025 198.12 118.945 198.18 118.685 198.18C118.405 198.2 117.545 198.22 116.605 198.18C116.805 198.56 117.025 199.16 117.105 199.56C118.365 199.56 119.245 199.54 119.805 199.3C120.345 199.06 120.505 198.64 120.505 197.88V188.34H119.025ZM114.025 191.32V192.5H119.805V191.32H114.025ZM114.025 194.32V195.52H119.805V194.32H114.025ZM122.385 181.24V187.88C122.385 189.54 122.885 190 124.805 190C125.205 190 127.825 190 128.245 190C129.865 190 130.305 189.34 130.485 186.9C130.045 186.8 129.445 186.58 129.125 186.32C129.045 188.3 128.905 188.64 128.125 188.64C127.545 188.64 125.365 188.64 124.945 188.64C124.025 188.64 123.865 188.5 123.865 187.86V181.24H122.385ZM128.505 182.72C127.145 183.42 124.865 184.3 122.885 184.92C123.065 185.22 123.265 185.66 123.345 185.98C125.405 185.4 127.805 184.62 129.505 183.82L128.505 182.72ZM122.385 190.54V197.32C122.385 198.98 122.905 199.44 124.845 199.44C125.265 199.44 127.965 199.44 128.405 199.44C130.085 199.44 130.525 198.72 130.725 196.02C130.305 195.94 129.705 195.7 129.365 195.46C129.265 197.72 129.145 198.1 128.285 198.1C127.685 198.1 125.425 198.1 125.005 198.1C124.045 198.1 123.865 197.98 123.865 197.3V190.54H122.385ZM128.745 191.64C127.385 192.52 124.965 193.44 122.885 194.04C123.045 194.34 123.265 194.82 123.345 195.12C125.505 194.54 128.065 193.72 129.745 192.76L128.745 191.64ZM118.005 183.1C119.065 184.52 120.145 186.44 120.565 187.66L121.885 187.08C121.425 185.84 120.305 184 119.245 182.6L118.005 183.1ZM140.605 193.88V199.6H142.085V193.88H140.605ZM133.885 195.22V199.28H135.345V196.32H148.305V195.22H133.885ZM147.745 195.22V197.84C147.745 198.06 147.665 198.12 147.365 198.14C147.065 198.16 146.105 198.16 144.945 198.12C145.145 198.46 145.365 198.88 145.445 199.26C146.905 199.26 147.865 199.26 148.465 199.08C149.045 198.88 149.205 198.54 149.205 197.84V195.22H147.745ZM141.525 183V184.16H150.325V183H141.525ZM133.345 182.3V183.16H140.785V182.3H133.345ZM133.045 185.94V186.82H141.025V185.94H133.045ZM132.625 184.1V185H141.385V184.1H132.625ZM142.465 185.06C143.205 185.76 143.985 186.78 144.325 187.48L145.385 186.84C145.025 186.16 144.205 185.18 143.465 184.5L142.465 185.06ZM132.505 188.18L132.625 189.22C134.945 189.02 138.245 188.72 141.445 188.42L141.465 187.5C138.125 187.78 134.745 188.04 132.505 188.18ZM146.745 181.24V187.68C146.745 187.9 146.685 187.98 146.405 187.98C146.185 187.98 145.365 187.98 144.405 187.98C144.605 188.28 144.845 188.74 144.925 189.08C146.165 189.08 146.945 189.08 147.485 188.88C148.005 188.68 148.165 188.38 148.165 187.7V181.24H146.745ZM136.305 181.22V184.7H137.705V181.22H136.305ZM136.305 184.7V188.46H137.705V184.7H136.305ZM136.185 192.4H146.705V193.32H136.185V192.4ZM136.185 190.62H146.705V191.5H136.185V190.62ZM134.825 189.68V194.24H148.105V189.68H134.825ZM141.085 188.28C140.945 188.72 140.625 189.42 140.405 189.92L141.545 190.22C141.805 189.8 142.145 189.22 142.485 188.6L141.085 188.28ZM163.925 181.2V186.28H165.425V181.2H163.925ZM158.825 185.26V186.72H170.565V185.26H158.825ZM160.645 185.96V195.96C160.645 198.12 161.385 198.86 163.525 198.86C163.965 198.86 167.305 198.86 168.045 198.86C168.945 198.86 169.825 198.82 170.185 198.72C170.105 198.36 170.025 197.68 169.985 197.28C169.545 197.38 168.665 197.42 168.065 197.42C167.325 197.42 164.125 197.42 163.445 197.42C162.465 197.42 162.145 197.06 162.145 196.04V185.96H160.645ZM155.105 181.2V199.58H156.565V181.2H155.105ZM153.045 185.06C153.005 186.84 152.685 189 151.965 190.2L153.065 190.72C153.845 189.34 154.185 187.06 154.185 185.22L153.045 185.06ZM156.845 184.88C157.485 186.06 158.125 187.64 158.345 188.62L159.385 188.08C159.165 187.14 158.485 185.6 157.805 184.46L156.845 184.88ZM176.465 181.2V184.56H177.985V181.2H176.465ZM172.405 183.76V185.14H181.925V183.76H172.405ZM181.785 186.5V187.92H190.485V186.5H181.785ZM174.885 188H179.545V190.68H174.885V188ZM173.485 186.7V191.96H181.005V186.7H173.485ZM176.545 191.42V197.88C176.545 198.1 176.465 198.16 176.245 198.18C175.985 198.2 175.205 198.2 174.285 198.18C174.485 198.56 174.705 199.14 174.765 199.54C175.985 199.54 176.805 199.54 177.325 199.3C177.845 199.06 177.985 198.64 177.985 197.9V191.42H176.545ZM173.865 193.02C173.505 194.62 172.865 196.2 172.005 197.26C172.345 197.46 172.905 197.88 173.165 198.12C174.065 196.94 174.825 195.12 175.245 193.32L173.865 193.02ZM179.025 193.28C179.585 194.34 180.165 195.78 180.405 196.7L181.665 196.24C181.425 195.32 180.825 193.92 180.225 192.86L179.025 193.28ZM186.765 182.38C187.725 183.36 188.665 184.76 189.065 185.72L190.305 185.08C189.905 184.12 188.945 182.78 187.925 181.82L186.765 182.38ZM184.685 181.2V185.4C184.685 189.3 184.325 194.88 180.045 198.78C180.425 198.96 181.045 199.36 181.325 199.64C185.725 195.54 186.145 189.66 186.145 185.4V181.2H184.685ZM185.645 188.92V197.5C185.645 198.52 185.745 198.84 186.105 199.14C186.445 199.4 186.945 199.48 187.405 199.48C187.665 199.48 188.365 199.48 188.665 199.48C189.105 199.48 189.585 199.4 189.865 199.26C190.205 199.06 190.405 198.78 190.545 198.32C190.645 197.9 190.725 196.68 190.745 195.62C190.365 195.5 189.865 195.24 189.565 194.98C189.585 196.08 189.545 197.04 189.505 197.42C189.465 197.66 189.345 197.86 189.205 197.94C189.065 198.02 188.805 198.06 188.565 198.06C188.305 198.06 187.945 198.06 187.745 198.06C187.525 198.06 187.345 198.02 187.225 197.92C187.085 197.86 187.025 197.72 187.025 197.56V188.92H185.645ZM200.305 182.24V183.64H209.085V182.24H200.305ZM199.625 189.26V190.7H210.625V189.26H199.625ZM204.345 186.6V197.7C204.345 198 204.245 198.1 203.905 198.12C203.545 198.14 202.425 198.14 201.165 198.1C201.365 198.5 201.625 199.16 201.705 199.56C203.305 199.58 204.345 199.54 205.005 199.3C205.625 199.06 205.845 198.62 205.845 197.72V186.6H204.345ZM208.545 182.24V182.58C207.745 183.88 206.085 185.76 204.645 186.84C204.905 187.04 205.325 187.44 205.545 187.72C207.145 186.52 209.005 184.58 210.205 182.88L209.225 182.16L208.905 182.24H208.545ZM192.225 185.34V186.74H198.805V185.34H192.225ZM195.245 181.22C194.565 185.02 193.365 190.38 192.485 193.44L193.745 194.1C194.645 190.78 195.905 185.38 196.665 181.38L195.245 181.22ZM193.225 192.8C195.465 194.1 198.045 196.14 199.245 197.64L200.145 196.42C198.945 194.94 196.305 193.02 194.065 191.76L193.225 192.8ZM198.305 185.34V185.64C197.805 192.44 195.725 196.68 192.385 198.44C192.705 198.74 193.125 199.28 193.325 199.64C197.005 197.44 199.185 193.2 199.725 185.46L198.825 185.28L198.545 185.34H198.305ZM220.605 188.02V197.64C220.605 198 220.465 198.12 220.025 198.14C219.565 198.16 218.025 198.16 216.365 198.1C216.605 198.54 216.885 199.18 216.985 199.62C219.005 199.62 220.345 199.6 221.125 199.36C221.905 199.14 222.165 198.68 222.165 197.68V188.02H220.605ZM213.325 182.78V184.24H227.765V182.78H213.325ZM227.225 182.78V183.14C225.965 184.8 223.325 187.1 221.045 188.36C221.365 188.58 221.845 189.08 222.065 189.4C224.545 188 227.365 185.64 229.145 183.52L227.985 182.68L227.625 182.78H227.225Z" fill="#F6BC54"/>
</svg>
