<svg width="574" height="383" viewBox="0 0 574 383" fill="none" xmlns="http://www.w3.org/2000/svg">
<g clip-path="url(#clip0_180_3241)">
<path d="M0 166.096C0 116.799 39.949 0 89.2403 0C138.532 0 178.492 116.844 178.492 166.096C178.228 189.567 168.71 211.989 152.002 228.493C135.293 244.998 112.744 254.255 89.2459 254.255C65.7482 254.255 43.1985 244.998 26.4903 228.493C9.78204 211.989 0.2634 189.567 0 166.096Z" fill="#F6BC54"/>
<path d="M89.2405 383C89.0471 383 88.8617 382.923 88.725 382.787C88.5883 382.65 88.5115 382.465 88.5115 382.272V74.8858C88.4986 74.7818 88.508 74.6763 88.539 74.5762C88.57 74.4761 88.622 74.3839 88.6914 74.3054C88.7609 74.2269 88.8463 74.1641 88.9419 74.121C89.0375 74.078 89.1412 74.0557 89.2461 74.0557C89.351 74.0557 89.4547 74.078 89.5503 74.121C89.6459 74.1641 89.7313 74.2269 89.8007 74.3054C89.8702 74.3839 89.9221 74.4761 89.9532 74.5762C89.9842 74.6763 89.9936 74.7818 89.9807 74.8858V382.272C89.9807 382.368 89.9615 382.464 89.9241 382.553C89.8868 382.642 89.8321 382.723 89.7632 382.791C89.6943 382.859 89.6126 382.912 89.5229 382.948C89.4332 382.984 89.3371 383.001 89.2405 383Z" fill="#3F3D56"/>
<path d="M89.2405 134.221C89.0473 134.22 88.8622 134.144 88.7246 134.008L53.3964 98.7163C53.2581 98.5796 53.1798 98.3937 53.1787 98.1993C53.1777 98.0049 53.2539 97.818 53.3908 97.6799C53.5276 97.5417 53.7138 97.4635 53.9083 97.4624C54.1029 97.4614 54.2899 97.5377 54.4282 97.6744L89.7564 132.966C89.8907 133.104 89.9658 133.289 89.9658 133.482C89.9658 133.674 89.8907 133.859 89.7564 133.997C89.6148 134.133 89.4259 134.209 89.2293 134.21L89.2405 134.221Z" fill="#3F3D56"/>
<path d="M89.2407 195.315C89.0474 195.315 88.862 195.238 88.7253 195.102C88.5885 194.965 88.5117 194.78 88.5117 194.587C88.5121 194.39 88.5885 194.202 88.7248 194.06L147.886 134.972C147.953 134.903 148.032 134.849 148.121 134.811C148.209 134.773 148.303 134.754 148.399 134.752C148.495 134.751 148.59 134.769 148.679 134.805C148.768 134.841 148.849 134.893 148.917 134.96C148.986 135.027 149.041 135.107 149.078 135.195C149.116 135.283 149.136 135.378 149.137 135.473C149.138 135.569 149.12 135.664 149.084 135.753C149.049 135.842 148.996 135.923 148.929 135.991L89.7678 195.091C89.6279 195.231 89.4389 195.311 89.2407 195.315Z" fill="#3F3D56"/>
<path d="M170.058 226.024C170.058 190.632 198.791 106.671 234.232 106.671C269.672 106.671 298.406 190.632 298.406 226.024C298.406 243.027 291.645 259.333 279.61 271.356C267.575 283.378 251.252 290.132 234.232 290.132C217.212 290.132 200.889 283.378 188.854 271.356C176.819 259.333 170.058 243.027 170.058 226.024Z" fill="#E6E6E6"/>
<path d="M234.232 381.891C234.163 381.891 234.094 381.877 234.031 381.851C233.967 381.824 233.908 381.786 233.859 381.737C233.811 381.688 233.772 381.63 233.745 381.566C233.719 381.502 233.705 381.433 233.705 381.364V160.483C233.705 160.343 233.761 160.209 233.859 160.11C233.958 160.011 234.092 159.956 234.232 159.956C234.372 159.956 234.506 160.011 234.605 160.11C234.704 160.209 234.759 160.343 234.759 160.483V381.364C234.759 381.433 234.746 381.502 234.719 381.566C234.693 381.63 234.654 381.688 234.605 381.737C234.556 381.786 234.498 381.824 234.434 381.851C234.37 381.877 234.301 381.891 234.232 381.891Z" fill="#3F3D56"/>
<path d="M234.232 203.124C234.093 203.123 233.96 203.066 233.862 202.967L208.459 177.613C208.41 177.564 208.371 177.505 208.344 177.441C208.317 177.377 208.304 177.307 208.304 177.238C208.304 177.168 208.317 177.099 208.344 177.035C208.371 176.97 208.41 176.912 208.459 176.862C208.509 176.813 208.567 176.774 208.632 176.748C208.696 176.721 208.765 176.707 208.835 176.707C208.905 176.707 208.974 176.721 209.038 176.748C209.103 176.774 209.161 176.813 209.211 176.862L234.602 202.228C234.653 202.275 234.694 202.332 234.722 202.396C234.749 202.459 234.764 202.528 234.764 202.597C234.764 202.667 234.749 202.736 234.722 202.799C234.694 202.863 234.653 202.92 234.602 202.967C234.555 203.018 234.498 203.058 234.434 203.085C234.37 203.112 234.301 203.125 234.232 203.124Z" fill="#3F3D56"/>
<path d="M234.232 247.02C234.128 247.019 234.027 246.987 233.942 246.929C233.856 246.872 233.789 246.79 233.75 246.694C233.71 246.599 233.7 246.493 233.72 246.392C233.74 246.291 233.789 246.197 233.862 246.124L276.401 203.65C276.5 203.553 276.633 203.499 276.772 203.499C276.91 203.499 277.043 203.553 277.142 203.65C277.193 203.699 277.234 203.756 277.262 203.821C277.29 203.886 277.304 203.955 277.304 204.026C277.304 204.096 277.29 204.165 277.262 204.23C277.234 204.294 277.193 204.353 277.142 204.401L234.602 246.863C234.555 246.914 234.497 246.954 234.434 246.981C234.37 247.008 234.301 247.021 234.232 247.02Z" fill="#3F3D56"/>
<path d="M238.068 377.667C237.148 377.672 236.244 377.432 235.447 376.972C234.65 376.513 233.99 375.851 233.534 375.053C233.077 374.256 232.841 373.351 232.85 372.432C232.858 371.514 233.111 370.614 233.582 369.824L240.849 357.411L249.821 362.665L242.554 375.079C242.097 375.863 241.442 376.515 240.655 376.968C239.868 377.422 238.976 377.664 238.068 377.667Z" fill="#F6BC54"/>
<path d="M266.622 349.299C270.159 349.299 273.026 346.435 273.026 342.902C273.026 339.369 270.159 336.504 266.622 336.504C263.085 336.504 260.218 339.369 260.218 342.902C260.218 346.435 263.085 349.299 266.622 349.299Z" fill="#F6BC54"/>
<path d="M209.917 377.667C209.234 377.667 208.558 377.532 207.928 377.271C207.297 377.01 206.724 376.626 206.242 376.144C205.759 375.661 205.377 375.088 205.117 374.457C204.856 373.826 204.723 373.151 204.725 372.468C204.726 371.548 204.97 370.644 205.431 369.847L212.71 357.433L221.682 362.688L214.403 375.101C213.944 375.882 213.289 376.53 212.502 376.98C211.715 377.43 210.824 377.667 209.917 377.667Z" fill="#F6BC54"/>
<path d="M251.806 369.343H219.595C215.209 369.34 211.003 367.598 207.901 364.499C204.8 361.401 203.056 357.199 203.053 352.817V347.921C203.053 346.4 203.658 344.941 204.735 343.865C205.811 342.789 207.272 342.185 208.795 342.185H251.839C255.444 342.185 258.902 343.616 261.451 346.162C264 348.709 265.432 352.162 265.432 355.764C265.432 359.365 264 362.819 261.451 365.366C258.902 367.912 255.444 369.343 251.839 369.343H251.806Z" fill="#3F3D56"/>
<path d="M250.281 381.891C249.598 381.891 248.921 381.756 248.29 381.495C247.658 381.234 247.085 380.851 246.601 380.368C246.118 379.885 245.735 379.312 245.473 378.681C245.212 378.051 245.077 377.375 245.077 376.692V362.318H255.485V376.692C255.486 377.375 255.353 378.052 255.092 378.684C254.831 379.315 254.448 379.888 253.964 380.371C253.481 380.854 252.906 381.238 252.274 381.498C251.642 381.759 250.965 381.893 250.281 381.891Z" fill="#3F3D56"/>
<path d="M220.101 381.891C218.723 381.888 217.402 381.339 216.428 380.364C215.455 379.39 214.908 378.069 214.908 376.692V362.318H225.305V376.692C225.305 377.375 225.17 378.051 224.909 378.681C224.647 379.312 224.264 379.885 223.781 380.368C223.297 380.851 222.724 381.234 222.092 381.495C221.461 381.756 220.784 381.891 220.101 381.891Z" fill="#3F3D56"/>
<path d="M193.52 332.875L183.538 340.885L173.019 327.799C172.039 326.47 171.612 324.814 171.827 323.178C172.041 321.541 172.88 320.051 174.169 319.018C175.458 317.985 177.096 317.49 178.742 317.635C180.388 317.781 181.913 318.556 183 319.8L193.52 332.875Z" fill="#F6BC54"/>
<path d="M207.629 352.044L191.12 365.287C190.648 365.666 190.106 365.949 189.525 366.118C188.944 366.288 188.335 366.341 187.733 366.276C187.131 366.21 186.547 366.027 186.016 365.736C185.485 365.445 185.017 365.053 184.638 364.581L177.695 355.943C175.259 352.907 174.126 349.03 174.547 345.161C174.967 341.292 176.906 337.748 179.939 335.306L182.574 333.2C185.123 331.157 188.379 330.208 191.628 330.561C194.876 330.913 197.852 332.539 199.902 335.081L208.324 345.568C208.705 346.039 208.988 346.58 209.159 347.16C209.33 347.741 209.384 348.349 209.32 348.95C209.255 349.551 209.072 350.134 208.782 350.665C208.492 351.196 208.1 351.664 207.629 352.044Z" fill="#3F3D56"/>
<path d="M193.52 332.875L186.656 338.375L174.891 323.743C174.516 323.295 174.233 322.777 174.061 322.219C173.888 321.661 173.829 321.074 173.886 320.492C173.944 319.911 174.117 319.347 174.395 318.833C174.674 318.319 175.052 317.866 175.508 317.5C175.964 317.134 176.488 316.863 177.05 316.702C177.612 316.541 178.201 316.493 178.782 316.563C179.363 316.632 179.924 316.816 180.432 317.104C180.941 317.393 181.387 317.78 181.744 318.243L193.52 332.875Z" fill="#3F3D56"/>
<path d="M206.62 352.671L188.541 367.18C187.219 368.242 185.528 368.736 183.841 368.554C182.155 368.371 180.61 367.526 179.546 366.206C178.483 364.885 177.988 363.196 178.171 361.511C178.354 359.826 179.2 358.282 180.522 357.22L198.612 342.655L206.62 352.671Z" fill="#3F3D56"/>
<path d="M181.659 367.816C182.306 367.297 182.073 365.933 181.138 364.771C180.204 363.608 178.921 363.087 178.274 363.606C177.627 364.125 177.86 365.488 178.795 366.651C179.73 367.813 181.012 368.335 181.659 367.816Z" fill="#F6BC54"/>
<path d="M130.311 373.41C130.311 375.451 129.499 377.409 128.054 378.852C126.609 380.296 124.649 381.107 122.606 381.107C118.344 381.107 118.198 377.264 121.484 373.41C118.12 371.169 118.322 365.712 122.606 365.712C124.648 365.715 126.606 366.527 128.051 367.97C129.495 369.413 130.308 371.369 130.311 373.41Z" fill="#CCCCCC"/>
<path d="M152.305 373.41C152.305 375.451 153.116 377.409 154.561 378.852C156.006 380.296 157.966 381.107 160.01 381.107C164.26 381.107 164.417 377.264 161.131 373.41C164.44 371.169 164.283 365.712 160.01 365.712C157.967 365.715 156.009 366.527 154.565 367.97C153.12 369.413 152.308 371.369 152.305 373.41Z" fill="#CCCCCC"/>
<path d="M156.734 369.567H125.914V377.264H156.734V369.567Z" fill="#CCCCCC"/>
<path d="M573.271 382.574H25.7837C25.5904 382.574 25.4049 382.497 25.2682 382.361C25.1315 382.224 25.0547 382.039 25.0547 381.846C25.0547 381.652 25.1311 381.465 25.2675 381.327C25.4039 381.189 25.5893 381.109 25.7837 381.106H573.271C573.465 381.109 573.65 381.189 573.787 381.327C573.923 381.465 574 381.652 574 381.846C574 382.039 573.923 382.224 573.786 382.361C573.649 382.497 573.464 382.574 573.271 382.574Z" fill="#3F3D56"/>
<path d="M443.61 237.149C449.606 237.149 454.467 232.294 454.467 226.304C454.467 220.315 449.606 215.459 443.61 215.459C437.615 215.459 432.754 220.315 432.754 226.304C432.754 232.294 437.615 237.149 443.61 237.149Z" fill="#A0616A"/>
<path d="M442.904 287.13C442.709 286.522 442.636 285.882 442.688 285.246C442.741 284.61 442.919 283.991 443.212 283.423C443.505 282.856 443.906 282.352 444.395 281.94C444.883 281.529 445.447 281.217 446.056 281.023C446.228 280.963 446.404 280.915 446.583 280.878C446.798 280.84 447.015 280.814 447.233 280.799L458.673 262.459L448.22 252.532C447.419 251.77 446.953 250.721 446.926 249.616C446.898 248.511 447.312 247.44 448.075 246.639C448.838 245.838 449.888 245.373 450.994 245.346C452.1 245.319 453.172 245.732 453.974 246.494V246.55L468.408 260.756C468.847 261.434 469.058 262.235 469.01 263.041C468.961 263.847 468.656 264.617 468.139 265.238L452.191 284.194C452.24 284.344 452.277 284.498 452.303 284.653C452.429 285.279 452.43 285.923 452.306 286.549C452.183 287.175 451.937 287.77 451.582 288.3C451.228 288.831 450.773 289.287 450.242 289.642C449.711 289.996 449.116 290.243 448.49 290.367C448.308 290.405 448.125 290.431 447.94 290.446H447.525C446.505 290.444 445.511 290.123 444.682 289.528C443.854 288.934 443.232 288.095 442.904 287.13Z" fill="#A0616A"/>
<path d="M425.722 377.309H420.305L417.726 356.425H425.722V377.309Z" fill="#A0616A"/>
<path d="M427.325 382.787H409.381V382.339C409.381 380.479 410.121 378.695 411.437 377.379C412.754 376.064 414.54 375.325 416.402 375.325H427.303L427.325 382.787Z" fill="#2F2E41"/>
<path d="M479.612 369.824L474.957 372.592L462.037 355.965L468.912 351.876L479.612 369.824Z" fill="#A0616A"/>
<path d="M468.386 382.865L468.161 382.485C467.688 381.692 467.376 380.815 467.243 379.902C467.11 378.99 467.159 378.06 467.386 377.166C467.613 376.272 468.014 375.432 468.567 374.693C469.119 373.954 469.813 373.332 470.606 372.861L479.971 367.259L483.784 373.667L468.386 382.865Z" fill="#2F2E41"/>
<path d="M416.986 368.11C413.363 325.39 411.199 285.707 424.478 269.517L424.578 269.394L446.919 278.357V278.447C446.998 278.604 454.434 294.939 452.695 305.918L458.202 331.239L476.146 361.298C476.281 361.523 476.369 361.773 476.406 362.032C476.444 362.291 476.43 362.555 476.366 362.809C476.301 363.063 476.187 363.302 476.03 363.512C475.873 363.721 475.677 363.898 475.451 364.032L475.238 364.144L467.387 367.572C466.946 367.765 466.45 367.792 465.99 367.648C465.53 367.504 465.138 367.199 464.886 366.788L445.338 334.947L434.291 310.523C434.218 310.364 434.085 310.241 433.921 310.18C433.757 310.119 433.575 310.126 433.416 310.198C433.312 310.245 433.222 310.318 433.155 310.41C433.088 310.503 433.047 310.611 433.035 310.725L426.911 368.2C426.859 368.687 426.629 369.138 426.265 369.467C425.901 369.795 425.428 369.978 424.937 369.981H418.859C418.373 369.947 417.916 369.739 417.572 369.396C417.228 369.052 417.02 368.595 416.986 368.11Z" fill="#2F2E41"/>
<path d="M424.59 269.853H424.489V269.741C423.659 263.904 424.646 257.417 427.427 250.471C428.797 247.067 431.346 244.269 434.61 242.587C437.873 240.905 441.633 240.45 445.203 241.306C447.25 241.805 449.171 242.722 450.844 244.001C452.517 245.28 453.906 246.893 454.922 248.736C455.939 250.579 456.561 252.613 456.749 254.71C456.937 256.806 456.687 258.918 456.015 260.913C453.647 267.688 450.941 274.34 447.906 280.844L447.817 281.046L424.59 269.853Z" fill="#F6BC54"/>
<path d="M408.518 294.053C408.367 292.876 408.642 291.683 409.294 290.691C409.946 289.698 410.932 288.972 412.073 288.642L432.967 248.566C433.521 247.66 434.412 247.01 435.444 246.76C436.477 246.51 437.567 246.68 438.474 247.233C439.381 247.785 440.032 248.675 440.282 249.707C440.532 250.739 440.362 251.827 439.809 252.734L418.421 292.529C418.464 292.774 418.49 293.021 418.5 293.269C418.518 293.925 418.406 294.577 418.171 295.19C417.936 295.802 417.582 296.362 417.13 296.838C416.677 297.314 416.136 297.696 415.536 297.962C414.935 298.228 414.289 298.373 413.632 298.389C413.565 298.395 413.498 298.395 413.43 298.389C412.692 298.381 411.965 298.21 411.301 297.886C410.638 297.562 410.055 297.095 409.595 296.518C409.012 295.813 408.639 294.959 408.518 294.053Z" fill="#A0616A"/>
<path d="M430.443 220.176H447.681V212.669C443.902 211.168 440.189 209.891 437.958 212.669C435.965 212.669 434.053 213.46 432.644 214.868C431.235 216.276 430.443 218.185 430.443 220.176Z" fill="#2F2E41"/>
<path d="M448.634 211.37C458.953 211.37 461.835 224.288 461.835 231.536C461.835 235.592 459.996 237.049 457.102 237.542L456.081 232.108L453.693 237.777H451.147L450.339 236.108L448.534 237.754C441.288 237.754 435.445 238.819 435.445 231.57C435.445 224.321 437.969 211.37 448.634 211.37Z" fill="#2F2E41"/>
</g>
<defs>
<clipPath id="clip0_180_3241">
<rect width="574" height="383" fill="white"/>
</clipPath>
</defs>
</svg>
