<svg width="52" height="99" viewBox="0 0 52 99" fill="none" xmlns="http://www.w3.org/2000/svg">
<path d="M47 1H5C2.79086 1 1 2.79086 1 5V43C1 45.2091 2.79086 47 5 47H47C49.2091 47 51 45.2091 51 43V5C51 2.79086 49.2091 1 47 1Z" fill="white"/>
<path fill-rule="evenodd" clip-rule="evenodd" d="M5 2C3.34315 2 2 3.34315 2 5V43C2 44.6569 3.34315 46 5 46H47C48.6569 46 50 44.6569 50 43V5C50 3.34315 48.6569 2 47 2H5ZM0 5C0 2.23858 2.23858 0 5 0H47C49.7614 0 52 2.23858 52 5V43C52 45.7614 49.7614 48 47 48H5C2.23858 48 0 45.7614 0 43V5Z" fill="#F6BC54"/>
<path d="M18.9983 55.8801V58.3461H20.3663V55.8801H18.9983ZM14.7323 57.806V58.9761H24.7403V57.806H14.7323ZM14.0123 62.0181V63.2061H25.2443V62.0181H14.0123ZM16.4243 59.1381C16.8023 60.1281 17.1263 61.424 17.1803 62.216L18.4043 61.91C18.3323 61.136 17.9903 59.876 17.5943 58.904L16.4243 59.1381ZM21.7703 58.868C21.5543 59.768 21.1223 61.1181 20.7623 61.9641L21.9143 62.162C22.2923 61.352 22.7243 60.1281 23.1023 59.0661L21.7703 58.868ZM14.1023 64.988V66.158H25.1723V64.988H14.1023ZM18.2243 62.882C17.4323 64.844 16.1903 67.5081 15.2903 69.1101L16.4603 69.506C17.3783 67.85 18.6563 65.222 19.5743 63.1521L18.2243 62.882ZM16.2083 68.876C18.9623 69.704 22.3283 71.234 23.9843 72.458L24.8483 71.432C23.1023 70.172 19.7183 68.732 17.0003 67.958L16.2083 68.876ZM21.7703 65.7441C20.9963 69.2541 18.8363 70.784 13.6523 71.306C13.8683 71.594 14.1023 72.0621 14.1923 72.4401C19.7543 71.7021 22.2203 69.9561 23.0843 65.9421L21.7703 65.7441ZM8.48633 65.4561L8.79233 66.7881C10.3943 66.3021 12.4643 65.654 14.4263 65.042L14.2643 63.836C12.1403 64.448 9.94433 65.0961 8.48633 65.4561ZM8.79233 59.516V60.7761H14.2823V59.516H8.79233ZM11.2403 55.898V70.8021C11.2403 71.0721 11.1323 71.144 10.8983 71.144C10.6823 71.162 9.92633 71.162 9.11633 71.126C9.29633 71.504 9.47633 72.0981 9.53033 72.4401C10.7003 72.4401 11.4383 72.404 11.9063 72.17C12.3743 71.954 12.5363 71.5761 12.5363 70.8021V55.898H11.2403ZM27.2963 61.0821V64.754H28.5563V62.288H41.3903V64.754H42.7043V61.0821H27.2963ZM29.4743 64.322V65.5821H39.5363V64.322H29.4743ZM40.7423 55.826C37.6643 56.474 32.1203 56.9421 27.4583 57.1581C27.5843 57.4641 27.7463 57.9681 27.7823 58.3101C32.4623 58.1301 38.0783 57.662 41.6963 56.906L40.7423 55.826ZM28.9703 58.688C29.4563 59.462 29.9783 60.4881 30.1943 61.1361L31.4183 60.7401C31.2023 60.0921 30.6623 59.0841 30.1403 58.3461L28.9703 58.688ZM33.7583 58.3101C34.1723 59.1561 34.5503 60.272 34.6583 60.974L35.9363 60.668C35.8283 59.966 35.3963 58.8681 34.9823 58.0401L33.7583 58.3101ZM39.9143 58.0041C39.4823 59.0121 38.6903 60.4521 38.0603 61.3521L39.1403 61.73C39.7883 60.884 40.6343 59.5521 41.2823 58.4001L39.9143 58.0041ZM39.0503 64.322V64.556C37.1783 68.534 32.3183 70.442 26.9183 71.18C27.1883 71.468 27.5663 72.062 27.7103 72.404C33.2003 71.486 38.2943 69.398 40.5083 64.826L39.6083 64.268L39.3563 64.322H39.0503ZM31.2383 65.1501L30.0503 65.654C32.4083 69.398 36.7463 71.5941 42.2363 72.3861C42.3983 72.0081 42.7763 71.432 43.0463 71.126C37.6283 70.478 33.2903 68.4621 31.2383 65.1501ZM8.70233 85.6061V86.866H14.1383V85.6061H8.70233ZM11.1683 81.8981C10.6283 85.2641 9.65633 90.034 8.93633 92.752L10.0163 93.418C10.7903 90.412 11.8163 85.5881 12.4643 82.0241L11.1683 81.8981ZM9.54833 92.1221C11.3123 93.4001 13.3643 95.272 14.3003 96.586L15.1103 95.5241C14.1563 94.2641 12.0503 92.464 10.2863 91.222L9.54833 92.1221ZM13.6703 85.6061V85.876C13.3103 91.942 11.6183 95.7581 8.84633 97.3601C9.13433 97.6301 9.49433 98.1161 9.67433 98.4401C12.7703 96.4421 14.4983 92.608 14.9123 85.696L14.1203 85.57L13.9043 85.6061H13.6703ZM14.6783 83.8601V85.03H25.2083V83.8601H14.6783ZM14.8223 92.0501V93.2201H25.2083V92.0501H14.8223ZM17.2343 86.6321V87.694H22.6343V86.6321H17.2343ZM16.5683 81.88V90.448H23.3903V81.88H22.1123V89.3321H17.8283V81.88H16.5683ZM19.2863 90.268V98.4401H20.6003V90.268H19.2863ZM18.8723 92.59C17.9003 94.372 15.9923 96.118 14.1203 96.946C14.4083 97.198 14.8403 97.6841 15.0563 98.0081C16.9463 97.0001 18.8723 95.038 19.9343 92.986L18.8723 92.59ZM20.9963 92.644L20.0243 93.0401C21.0323 94.9121 22.9043 96.892 24.5243 97.918C24.7403 97.576 25.1723 97.0901 25.4783 96.8561C23.8403 96.0101 21.9863 94.282 20.9963 92.644ZM30.4643 87.766V88.972H39.5543V87.766H30.4643ZM30.1403 96.514V97.7201H39.7883V96.514H30.1403ZM29.5283 91.24V98.458H30.8423V92.464H39.1763V98.458H40.5443V91.24H29.5283ZM34.9463 83.266C36.6383 85.57 39.8063 88.108 42.6323 89.584C42.8663 89.188 43.1903 88.7201 43.5323 88.3961C40.6523 87.1181 37.5023 84.616 35.5583 81.934H34.1903C32.7683 84.256 29.7623 87.01 26.5943 88.612C26.9003 88.9 27.2603 89.3861 27.4403 89.6921C30.5183 88.0181 33.4703 85.462 34.9463 83.266Z" fill="#6A5F4B"/>
<path d="M11.0938 15.6656C11.2828 14.8373 11.7475 14.0978 12.4117 13.5681C13.076 13.0384 13.9004 12.7499 14.75 12.75H37.25C38.0996 12.7499 38.924 13.0384 39.5883 13.5681C40.2525 14.0978 40.7172 14.8373 40.9062 15.6656L26 24.7762L11.0938 15.6656ZM11 17.8069V31.1269L21.8806 24.4556L11 17.8069ZM23.6769 25.5562L11.3581 33.105C11.6622 33.7471 12.1425 34.2897 12.743 34.6694C13.3435 35.0492 14.0395 35.2505 14.75 35.25H26.48C26.1613 34.3466 25.9989 33.3955 26 32.4375C25.9987 31.2058 26.2677 29.9888 26.788 28.8724C27.3083 27.756 28.0672 26.7674 29.0112 25.9762L28.3231 25.5544L26 26.9738L23.6769 25.5544V25.5562ZM41 17.8069V27.1331C40.2098 26.1537 39.2101 25.3638 38.0744 24.8216C36.9387 24.2794 35.696 23.9987 34.4375 24C33.1613 23.9984 31.9014 24.2869 30.7531 24.8437L30.1194 24.4556L41 17.8069Z" fill="#F6BC54"/>
<path d="M41.125 32.5625C41.125 34.303 40.4336 35.9722 39.2029 37.2029C37.9722 38.4336 36.303 39.125 34.5625 39.125C32.822 39.125 31.1528 38.4336 29.9221 37.2029C28.6914 35.9722 28 34.303 28 32.5625C28 30.822 28.6914 29.1528 29.9221 27.9221C31.1528 26.6914 32.822 26 34.5625 26C36.303 26 37.9722 26.6914 39.2029 27.9221C40.4336 29.1528 41.125 30.822 41.125 32.5625ZM37.3881 29.4144C37.2825 29.3511 37.1654 29.3092 37.0436 29.2911C36.9218 29.2731 36.7976 29.2792 36.6782 29.3092C36.5587 29.3391 36.4464 29.3923 36.3475 29.4657C36.2486 29.5391 36.1651 29.6312 36.1019 29.7369L33.9081 33.3931L32.8825 32.3675C32.7065 32.1915 32.4677 32.0926 32.2188 32.0926C31.9698 32.0926 31.731 32.1915 31.555 32.3675C31.379 32.5435 31.2801 32.7823 31.2801 33.0312C31.2801 33.2802 31.379 33.519 31.555 33.695L33.0063 35.1444C33.1573 35.2957 33.3409 35.4106 33.543 35.4804C33.7452 35.5501 33.9605 35.5728 34.1728 35.5468C34.385 35.5207 34.5885 35.4466 34.7678 35.3301C34.9471 35.2136 35.0975 35.0577 35.2075 34.8744L37.7106 30.7006C37.7739 30.595 37.8158 30.4779 37.8339 30.3561C37.8519 30.2343 37.8458 30.1101 37.8158 29.9907C37.7859 29.8712 37.7327 29.7589 37.6593 29.66C37.5859 29.5611 37.4938 29.4776 37.3881 29.4144Z" fill="#F6BC54"/>
</svg>
