<svg width="52" height="101" viewBox="0 0 52 101" fill="none" xmlns="http://www.w3.org/2000/svg">
<path d="M47 1H5C2.79086 1 1 2.79086 1 5V43C1 45.2091 2.79086 47 5 47H47C49.2091 47 51 45.2091 51 43V5C51 2.79086 49.2091 1 47 1Z" fill="white"/>
<path fill-rule="evenodd" clip-rule="evenodd" d="M5 2C3.34315 2 2 3.34315 2 5V43C2 44.6569 3.34315 46 5 46H47C48.6569 46 50 44.6569 50 43V5C50 3.34315 48.6569 2 47 2H5ZM0 5C0 2.23858 2.23858 0 5 0H47C49.7614 0 52 2.23858 52 5V43C52 45.7614 49.7614 48 47 48H5C2.23858 48 0 45.7614 0 43V5Z" fill="#F6BC54"/>
<path d="M16.0633 57.4821V58.7781H25.2973V57.4821H16.0633ZM20.5093 58.0221V70.6761C20.5093 71.0001 20.4013 71.1081 20.0593 71.1081C19.7173 71.1261 18.5833 71.1261 17.3593 71.0721C17.5573 71.4861 17.7913 72.0801 17.8453 72.4581C19.4293 72.4581 20.4553 72.4401 21.0493 72.2061C21.6433 71.9901 21.8593 71.5941 21.8593 70.6761V58.0221H20.5093ZM9.52933 61.3341V62.4141H15.1453V61.3341H9.52933ZM9.63733 56.5281V57.6081H15.1633V56.5281H9.63733ZM9.52933 63.7461V64.8261H15.1453V63.7461H9.52933ZM8.68333 58.8861V60.0021H15.8473V58.8861H8.68333ZM10.1593 66.1761V67.2921H13.8853V70.2981H10.1593V71.4321H15.0913V66.1761H10.1593ZM9.51133 66.1761V72.2601H10.7173V66.1761H9.51133ZM34.2433 61.6401V72.4401H35.6293V61.6401H34.2433ZM30.1573 64.6821H39.9493V66.2481H30.1573V64.6821ZM30.1573 62.1081H39.9493V63.6381H30.1573V62.1081ZM28.8433 61.0101V67.3281H41.3173V61.0101H28.8433ZM27.0253 68.7141V69.9021H42.9913V68.7141H27.0253ZM29.5813 57.5001H33.0373V59.2101H29.5813V57.5001ZM28.3573 56.6001V60.1101H34.2973V56.6001H28.3573ZM36.9793 57.5001H40.4713V59.2101H36.9793V57.5001ZM35.7553 56.6001V60.1101H41.7493V56.6001H35.7553ZM12.0853 87.1181V88.3421H21.8773V87.1181H12.0853ZM9.00733 90.4301V91.7081H24.9733V90.4301H9.00733ZM13.7413 91.3121C13.4353 94.2461 12.6613 96.3161 8.61133 97.3241C8.89933 97.5941 9.25933 98.1341 9.40333 98.4761C13.7953 97.2521 14.8033 94.8221 15.1813 91.3121H13.7413ZM18.2953 91.2041V96.2801C18.2953 97.7201 18.7273 98.1341 20.3833 98.1341C20.7433 98.1341 22.8133 98.1341 23.1733 98.1341C24.6133 98.1341 25.0093 97.5041 25.1533 95.0381C24.7933 94.9301 24.2173 94.7141 23.9293 94.4981C23.8753 96.5681 23.7493 96.8921 23.0653 96.8921C22.5973 96.8921 20.8873 96.8921 20.5273 96.8921C19.7713 96.8921 19.6453 96.8021 19.6453 96.2621V91.2041H18.2953ZM16.2433 81.8981V84.7601H17.6653V81.8981H16.2433ZM9.42133 83.8241V87.6401H10.7893V85.1021H23.1373V87.6401H24.5593V83.8241H9.42133ZM29.0593 88.6301V89.8901H33.5413V88.6301H29.0593ZM33.0013 88.6301V88.8641C32.9473 92.7521 32.8573 94.1021 32.5873 94.4261C32.4613 94.5881 32.2813 94.6061 32.0293 94.6061C31.7233 94.6061 30.9313 94.6061 30.1213 94.5341C30.3193 94.8761 30.4633 95.3981 30.4993 95.7941C31.3813 95.8301 32.1913 95.8481 32.6593 95.7941C33.1633 95.7401 33.4513 95.6141 33.7393 95.2901C34.1173 94.7861 34.2253 93.2741 34.3153 89.2061C34.3153 89.0261 34.3153 88.6301 34.3153 88.6301H33.0013ZM38.0773 82.7981C39.2113 83.3921 40.5973 84.3101 41.2813 84.9401L42.1273 84.0221C41.4253 83.3921 40.0033 82.5281 38.8873 81.9521L38.0773 82.7981ZM40.6513 87.6761C39.3013 92.0141 36.7633 95.3081 33.1093 97.2521C33.3973 97.5221 33.9013 98.0801 34.0993 98.3501C37.7893 96.1721 40.4713 92.6981 42.0013 88.0001L40.6513 87.6761ZM29.1673 84.9401V86.2721H43.0993V84.9401H29.1673ZM28.3033 84.9401V89.9981C28.3033 92.3561 28.1413 95.4521 26.6473 97.6661C26.9713 97.8281 27.5473 98.2961 27.7813 98.5661C29.4193 96.2081 29.7073 92.5721 29.7073 90.0161V84.9401H28.3033ZM35.7733 81.9161C35.8453 90.5381 37.4653 98.3141 41.1373 98.3141C42.5053 98.3141 43.0093 97.4321 43.2613 94.3541C42.9013 94.2281 42.3973 93.9221 42.0913 93.6161C41.9833 96.0101 41.7493 96.9461 41.2453 96.9461C38.9053 96.9461 37.1413 90.1961 37.1773 81.9161H35.7733Z" fill="#6A5F4B"/>
<path d="M17.5625 9C17.8111 9 18.0496 9.09877 18.2254 9.27459C18.4012 9.4504 18.5 9.68886 18.5 9.9375V10.875H33.5V9.9375C33.5 9.68886 33.5988 9.4504 33.7746 9.27459C33.9504 9.09877 34.1889 9 34.4375 9C34.6861 9 34.9246 9.09877 35.1004 9.27459C35.2762 9.4504 35.375 9.68886 35.375 9.9375V10.875H37.25C38.2446 10.875 39.1984 11.2701 39.9016 11.9733C40.6049 12.6766 41 13.6304 41 14.625V35.25C41 36.2446 40.6049 37.1984 39.9016 37.9016C39.1984 38.6049 38.2446 39 37.25 39H14.75C13.7554 39 12.8016 38.6049 12.0983 37.9016C11.3951 37.1984 11 36.2446 11 35.25V14.625C11 13.6304 11.3951 12.6766 12.0983 11.9733C12.8016 11.2701 13.7554 10.875 14.75 10.875H16.625V9.9375C16.625 9.68886 16.7238 9.4504 16.8996 9.27459C17.0754 9.09877 17.3139 9 17.5625 9ZM36.2263 14.625H15.7719C15.2094 14.625 14.75 15.045 14.75 15.5625V17.4375C14.75 17.955 15.2075 18.375 15.7719 18.375H36.2281C36.7906 18.375 37.25 17.955 37.25 17.4375V15.5625C37.25 15.045 36.7925 14.625 36.2263 14.625ZM31.3513 25.6013C31.5273 25.4252 31.6262 25.1865 31.6262 24.9375C31.6262 24.6885 31.5273 24.4498 31.3513 24.2737C31.1752 24.0977 30.9365 23.9988 30.6875 23.9988C30.4385 23.9988 30.1998 24.0977 30.0237 24.2737L25.0625 29.2369L22.9138 27.0862C22.8266 26.9991 22.7231 26.9299 22.6092 26.8828C22.4953 26.8356 22.3733 26.8113 22.25 26.8113C22.1267 26.8113 22.0047 26.8356 21.8908 26.8828C21.7769 26.9299 21.6734 26.9991 21.5862 27.0862C21.4991 27.1734 21.4299 27.2769 21.3828 27.3908C21.3356 27.5047 21.3113 27.6267 21.3113 27.75C21.3113 27.8733 21.3356 27.9953 21.3828 28.1092C21.4299 28.2231 21.4991 28.3266 21.5862 28.4138L24.3987 31.2263C24.4858 31.3136 24.5893 31.3828 24.7032 31.4301C24.8171 31.4773 24.9392 31.5017 25.0625 31.5017C25.1858 31.5017 25.3079 31.4773 25.4218 31.4301C25.5357 31.3828 25.6392 31.3136 25.7263 31.2263L31.3513 25.6013Z" fill="#F6BC54"/>
</svg>
