<svg width="52" height="101" viewBox="0 0 52 101" fill="none" xmlns="http://www.w3.org/2000/svg">
<path d="M47 1H5C2.79086 1 1 2.79086 1 5V43C1 45.2091 2.79086 47 5 47H47C49.2091 47 51 45.2091 51 43V5C51 2.79086 49.2091 1 47 1Z" fill="white"/>
<path fill-rule="evenodd" clip-rule="evenodd" d="M5 2C3.34315 2 2 3.34315 2 5V43C2 44.6569 3.34315 46 5 46H47C48.6569 46 50 44.6569 50 43V5C50 3.34315 48.6569 2 47 2H5ZM0 5C0 2.23858 2.23858 0 5 0H47C49.7614 0 52 2.23858 52 5V43C52 45.7614 49.7614 48 47 48H5C2.23858 48 0 45.7614 0 43V5Z" fill="#F6BC54"/>
<path d="M20.8347 61.424V62.54H24.0387V61.424H20.8347ZM19.2327 55.8979V58.562H20.5647V55.8979H19.2327ZM15.0027 57.896V60.74H16.2267V58.9939H23.7507V60.7039H25.0287V57.896H15.0027ZM16.2987 60.1279C15.9027 62.6659 15.2007 65.06 13.9767 66.608C14.2647 66.788 14.7327 67.184 14.9127 67.382C16.1547 65.672 17.0007 63.0979 17.4687 60.3079L16.2987 60.1279ZM16.5327 61.784L16.3167 62.9179H19.1427V61.784H16.5327ZM18.6747 61.784V62.0359C18.2067 67.1119 16.7307 70.028 14.2467 71.486C14.4807 71.684 14.8767 72.1699 15.0387 72.4759C17.6487 70.8559 19.3227 67.5979 19.8447 61.9459L19.1427 61.7659L18.9087 61.784H18.6747ZM15.2907 65.51C16.1547 66.122 17.1267 67.0219 17.5947 67.6159L18.4047 66.6979C17.9187 66.1219 16.9287 65.312 16.0647 64.718L15.2907 65.51ZM23.4087 61.424V66.7519C23.4087 66.8959 23.3727 66.9499 23.2287 66.9499C23.0667 66.9679 22.6527 66.9679 22.0947 66.9499C22.2387 67.2739 22.4007 67.7419 22.4187 68.0479C23.2287 68.0479 23.7687 68.0479 24.1107 67.8499C24.4887 67.6519 24.5607 67.3099 24.5607 66.7699V61.424H23.4087ZM20.3307 61.424V70.4599C20.3307 71.9359 20.7087 72.278 21.9147 72.278C22.1847 72.278 23.4987 72.278 23.7867 72.278C24.9027 72.278 25.2267 71.6299 25.3527 69.3619C25.0107 69.2719 24.5247 69.074 24.2727 68.858C24.2187 70.748 24.1467 71.108 23.6967 71.108C23.4087 71.108 22.2927 71.108 22.0767 71.108C21.5907 71.108 21.5187 71.0179 21.5187 70.4599V61.424H20.3307ZM8.7207 59.6059V60.8479H13.6527V59.6059H8.7207ZM10.8627 55.8979C10.3767 59.2819 9.4947 64.088 8.8287 66.806L9.9087 67.454C10.6287 64.448 11.5467 59.588 12.1047 56.006L10.8627 55.8979ZM9.4587 66.176C11.1867 67.472 13.1847 69.398 14.0487 70.748L14.8947 69.6859C14.0127 68.3539 11.9787 66.5179 10.2147 65.2399L9.4587 66.176ZM13.1847 59.6059V59.8759C12.8967 65.9959 11.4027 69.794 8.7927 71.396C9.0807 71.666 9.4407 72.134 9.6207 72.458C12.5727 70.46 14.0847 66.644 14.4267 59.678L13.6527 59.57L13.4187 59.6059H13.1847ZM33.8127 56.834V72.44H35.1447V58.094H43.0467V56.834H33.8127ZM34.4427 60.938V62.198H40.9407V65.7259H34.4427V67.0039H42.2727V60.938H34.4427ZM34.4427 70.028V71.306H43.2987V70.028H34.4427ZM26.5587 65.4199L26.9547 66.716C28.6827 66.23 30.9507 65.546 33.0927 64.916L32.9307 63.674C30.6087 64.34 28.1787 65.0239 26.5587 65.4199ZM26.8107 59.5159V60.7939H32.9127V59.5159H26.8107ZM29.4027 55.8979V70.874C29.4027 71.144 29.2947 71.234 29.0427 71.234C28.8087 71.234 28.0347 71.234 27.1887 71.216C27.3507 71.576 27.5487 72.134 27.6027 72.458C28.8447 72.458 29.5827 72.422 30.0687 72.206C30.5187 72.008 30.7167 71.648 30.7167 70.874V55.8979H29.4027ZM17.8107 86.7399V88H25.2807V86.7399H17.8107ZM8.7567 85.7139V86.8659H18.0087V85.7139H8.7567ZM9.4047 89.6559V90.79H17.3427V89.6559H9.4047ZM9.8907 92.6259V93.76H16.9827V92.6259H9.8907ZM22.0587 82.0059V96.7839C22.0587 97.0899 21.9327 97.1979 21.6267 97.1979C21.3387 97.2159 20.3487 97.216 19.2687 97.18C19.4487 97.54 19.6827 98.116 19.7547 98.458C21.2127 98.476 22.0947 98.44 22.6347 98.206C23.1387 97.99 23.3547 97.6119 23.3547 96.7839V82.0059H22.0587ZM18.3867 89.818C19.1067 91.15 19.7907 92.878 19.9707 93.958L21.1767 93.526C20.9967 92.428 20.2947 90.7359 19.5207 89.4219L18.3867 89.818ZM8.9367 82.834C9.4947 83.698 10.0167 84.85 10.1967 85.606L11.2407 85.12C11.0427 84.382 10.5027 83.2659 9.9087 82.4199L8.9367 82.834ZM10.2507 87.262C10.6827 88.018 11.0787 89.0619 11.1867 89.7099L12.3207 89.2959C12.1947 88.6479 11.7807 87.658 11.3307 86.902L10.2507 87.262ZM11.5827 81.97V86.272H12.6807V81.97H11.5827ZM12.7347 90.0159V96.514H14.0127V90.0159H12.7347ZM14.0667 81.97V86.272H15.1827V81.97H14.0667ZM8.8107 96.388L9.0087 97.666C11.3127 97.342 14.6967 96.892 17.8647 96.424L17.8287 95.236C14.5347 95.686 11.0607 96.118 8.8107 96.388ZM16.8927 82.3119C16.5867 83.1759 15.9567 84.4539 15.4707 85.2099L16.4067 85.624C16.9107 84.886 17.5587 83.7519 18.0987 82.7799L16.8927 82.3119ZM15.3627 86.8659C15.1467 87.6039 14.6967 88.7019 14.3367 89.3679L15.4167 89.674C15.7767 89.044 16.2267 88.09 16.6047 87.208L15.3627 86.8659ZM26.9367 84.994V86.29H43.0467V84.994H26.9367ZM32.8227 89.26V90.556H40.0227V89.26H32.8227ZM39.5367 89.26L39.5187 89.494C39.2127 94.426 38.8527 96.4419 38.2767 96.9639C38.0787 97.1439 37.8267 97.162 37.4307 97.162C36.9627 97.162 35.6847 97.162 34.3887 97.036C34.6407 97.414 34.8387 97.9719 34.8567 98.3679C36.0807 98.4219 37.2687 98.4579 37.8987 98.4219C38.5827 98.3679 39.0327 98.2419 39.4467 97.8099C40.1487 97.0899 40.5087 95.0919 40.8687 89.9079C40.9047 89.7099 40.9227 89.26 40.9227 89.26H39.5367ZM32.5167 85.7139C32.3187 90.0159 32.0127 95.038 26.7567 97.414C27.0987 97.684 27.5307 98.17 27.7287 98.512C33.2187 95.884 33.7407 90.4839 34.0107 85.7139H32.5167ZM34.2267 81.844V85.552H35.6127V81.844H34.2267Z" fill="#6A5F4B"/>
<path d="M16.8809 35H19.8809L23.6009 29.06C24.2609 27.98 24.9509 26.87 25.7609 25.55H25.8809C26.7509 26.87 27.4709 27.98 28.1309 29.06L31.9109 35H35.0909L27.6209 23.75L34.5509 12.98H31.6109L28.1009 18.65C27.4709 19.64 26.9309 20.54 26.1809 21.83H26.0609C25.2509 20.54 24.6509 19.64 24.0209 18.65L20.4509 12.98H17.3609L24.3209 23.69L16.8809 35Z" fill="#F6BC54"/>
</svg>
