<svg width="52" height="101" viewBox="0 0 52 101" fill="none" xmlns="http://www.w3.org/2000/svg">
<path d="M47 1H5C2.79086 1 1 2.79086 1 5V43C1 45.2091 2.79086 47 5 47H47C49.2091 47 51 45.2091 51 43V5C51 2.79086 49.2091 1 47 1Z" fill="white"/>
<path fill-rule="evenodd" clip-rule="evenodd" d="M5 2C3.34315 2 2 3.34315 2 5V43C2 44.6569 3.34315 46 5 46H47C48.6569 46 50 44.6569 50 43V5C50 3.34315 48.6569 2 47 2H5ZM0 5C0 2.23858 2.23858 0 5 0H47C49.7614 0 52 2.23858 52 5V43C52 45.7614 49.7614 48 47 48H5C2.23858 48 0 45.7614 0 43V5Z" fill="#F6BC54"/>
<path d="M16.0644 57.4821V58.7781H25.2984V57.4821H16.0644ZM20.5104 58.0221V70.6761C20.5104 71.0001 20.4024 71.1081 20.0604 71.1081C19.7184 71.1261 18.5844 71.1261 17.3604 71.0721C17.5584 71.4861 17.7924 72.0801 17.8464 72.4581C19.4304 72.4581 20.4564 72.4401 21.0504 72.2061C21.6444 71.9901 21.8604 71.5941 21.8604 70.6761V58.0221H20.5104ZM9.53044 61.3341V62.4141H15.1464V61.3341H9.53044ZM9.63844 56.5281V57.6081H15.1644V56.5281H9.63844ZM9.53044 63.7461V64.8261H15.1464V63.7461H9.53044ZM8.68444 58.8861V60.0021H15.8484V58.8861H8.68444ZM10.1604 66.1761V67.2921H13.8864V70.2981H10.1604V71.4321H15.0924V66.1761H10.1604ZM9.51244 66.1761V72.2601H10.7184V66.1761H9.51244ZM34.2444 61.6401V72.4401H35.6304V61.6401H34.2444ZM30.1584 64.6821H39.9504V66.2481H30.1584V64.6821ZM30.1584 62.1081H39.9504V63.6381H30.1584V62.1081ZM28.8444 61.0101V67.3281H41.3184V61.0101H28.8444ZM27.0264 68.7141V69.9021H42.9924V68.7141H27.0264ZM29.5824 57.5001H33.0384V59.2101H29.5824V57.5001ZM28.3584 56.6001V60.1101H34.2984V56.6001H28.3584ZM36.9804 57.5001H40.4724V59.2101H36.9804V57.5001ZM35.7564 56.6001V60.1101H41.7504V56.6001H35.7564ZM11.0604 88.6301V89.8901H15.5424V88.6301H11.0604ZM15.0024 88.6301V88.8641C14.9484 92.7521 14.8584 94.1021 14.5884 94.4261C14.4624 94.5881 14.2824 94.6061 14.0304 94.6061C13.7244 94.6061 12.9324 94.6061 12.1224 94.5341C12.3204 94.8761 12.4644 95.3981 12.5004 95.7941C13.3824 95.8301 14.1924 95.8481 14.6604 95.7941C15.1644 95.7401 15.4524 95.6141 15.7404 95.2901C16.1184 94.7861 16.2264 93.2741 16.3164 89.2061C16.3164 89.0261 16.3164 88.6301 16.3164 88.6301H15.0024ZM20.0784 82.7981C21.2124 83.3921 22.5984 84.3101 23.2824 84.9401L24.1284 84.0221C23.4264 83.3921 22.0044 82.5281 20.8884 81.9521L20.0784 82.7981ZM22.6524 87.6761C21.3024 92.0141 18.7644 95.3081 15.1104 97.2521C15.3984 97.5221 15.9024 98.0801 16.1004 98.3501C19.7904 96.1721 22.4724 92.6981 24.0024 88.0001L22.6524 87.6761ZM11.1684 84.9401V86.2721H25.1004V84.9401H11.1684ZM10.3044 84.9401V89.9981C10.3044 92.3561 10.1424 95.4521 8.64844 97.6661C8.97244 97.8281 9.54844 98.2961 9.78244 98.5661C11.4204 96.2081 11.7084 92.5721 11.7084 90.0161V84.9401H10.3044ZM17.7744 81.9161C17.8464 90.5381 19.4664 98.3141 23.1384 98.3141C24.5064 98.3141 25.0104 97.4321 25.2624 94.3541C24.9024 94.2281 24.3984 93.9221 24.0924 93.6161C23.9844 96.0101 23.7504 96.9461 23.2464 96.9461C20.9064 96.9461 19.1424 90.1961 19.1784 81.9161H17.7744ZM27.5484 85.4261V86.7581H42.5784V85.4261H27.5484ZM26.9364 96.3161V97.6661H43.0824V96.3161H26.9364ZM34.2444 81.8981V86.1641H35.6484V81.8981H34.2444ZM38.5284 87.5861C37.9884 90.3401 36.9264 94.2101 36.0084 96.5141L37.3044 96.8201C38.2404 94.5341 39.3204 90.8261 40.0764 87.8741L38.5284 87.5861ZM29.9604 88.0181C30.8424 90.3761 31.5264 93.4361 31.6344 95.4161L33.0024 95.0921C32.8764 93.0761 32.1924 90.0701 31.2384 87.6941L29.9604 88.0181Z" fill="#6A5F4B"/>
<path d="M17.5625 9C17.8111 9 18.0496 9.09877 18.2254 9.27459C18.4012 9.4504 18.5 9.68886 18.5 9.9375V10.875H33.5V9.9375C33.5 9.68886 33.5988 9.4504 33.7746 9.27459C33.9504 9.09877 34.1889 9 34.4375 9C34.6861 9 34.9246 9.09877 35.1004 9.27459C35.2762 9.4504 35.375 9.68886 35.375 9.9375V10.875H37.25C38.2446 10.875 39.1984 11.2701 39.9016 11.9733C40.6049 12.6766 41 13.6304 41 14.625V35.25C41 36.2446 40.6049 37.1984 39.9016 37.9016C39.1984 38.6049 38.2446 39 37.25 39H14.75C13.7554 39 12.8016 38.6049 12.0983 37.9016C11.3951 37.1984 11 36.2446 11 35.25V14.625C11 13.6304 11.3951 12.6766 12.0983 11.9733C12.8016 11.2701 13.7554 10.875 14.75 10.875H16.625V9.9375C16.625 9.68886 16.7238 9.4504 16.8996 9.27459C17.0754 9.09877 17.3139 9 17.5625 9ZM12.875 16.5V35.25C12.875 35.7473 13.0725 36.2242 13.4242 36.5758C13.7758 36.9275 14.2527 37.125 14.75 37.125H37.25C37.7473 37.125 38.2242 36.9275 38.5758 36.5758C38.9275 36.2242 39.125 35.7473 39.125 35.25V16.5H12.875Z" fill="#F6BC54"/>
</svg>
