<svg width="17" height="12" viewBox="0 0 37 32" fill="none" xmlns="http://www.w3.org/2000/svg">
<g clip-path="url(#clip0_1519_130)">
<path d="M14.0308 31.4134C13.5855 31.2928 13.131 31.2 12.6981 31.0469C8.3566 29.5225 6.99138 24.0183 10.1439 20.6602C11.4534 19.2687 12.8109 17.9158 14.1978 16.6001C16.5633 14.3567 20.5229 14.4139 22.8854 16.7052C24.1887 17.9684 25.4797 19.2486 26.7336 20.5612C28.4575 22.3624 28.9739 24.5084 28.2241 26.8771C27.4665 29.272 25.8338 30.7887 23.3337 31.3051C23.2443 31.3326 23.1578 31.3689 23.0755 31.4134H14.0308Z" fill="#F6BC54"/>
<path d="M0 12.0485C0.125235 11.6465 0.227276 11.2383 0.375703 10.8472C0.800249 9.77013 1.55902 8.85761 2.54054 8.24371C3.52206 7.62981 4.67459 7.34687 5.82882 7.43646C8.31186 7.65291 10.3512 9.4572 10.7903 11.8289C11.3484 14.8485 9.46526 17.7041 6.46118 18.2546C3.75549 18.7539 0.71894 17.2697 0.102044 13.9394C0.0768727 13.8473 0.0432263 13.7578 0.0015429 13.6719L0 12.0485Z" fill="#F6BC54"/>
<path d="M31.5253 18.3179C28.413 18.3179 26.0846 15.9693 26.083 12.8369C26.083 9.88386 28.5444 7.43329 31.5222 7.42556C34.5 7.41782 37.014 9.89935 37.0001 12.8648C36.98 15.9895 34.6392 18.321 31.5253 18.3179Z" fill="#F6BC54"/>
<path d="M23.9495 5.42643C24.0144 8.30219 21.5824 10.827 18.685 10.8919C15.6129 10.9615 13.1051 8.61761 13.0154 5.59342C12.9887 4.87148 13.1073 4.15151 13.3642 3.47629C13.6211 2.80106 14.011 2.18434 14.5108 1.66273C15.0107 1.14111 15.6102 0.725236 16.2739 0.439806C16.9375 0.154376 17.6518 0.00521338 18.3742 0.00115138C21.4958 -0.0591468 23.8737 2.25537 23.9495 5.42643Z" fill="#F6BC54"/>
</g>
<defs>
<clipPath id="clip0_1519_130">
<rect width="37" height="32" fill="white"/>
</clipPath>
</defs>
</svg>
