<svg width="24" height="19" viewBox="0 0 24 19" fill="none" xmlns="http://www.w3.org/2000/svg">
<path d="M11.7481 2.58578C11.8831 2.43603 11.9994 2.30868 12.1133 2.18016C13.0056 1.17968 14.1827 0.478816 15.4849 0.17256C16.7872 -0.133696 18.1518 -0.0305448 19.3937 0.468013C20.6495 0.970866 21.7184 1.85341 22.4525 2.99342C23.1865 4.13343 23.5494 5.47447 23.4907 6.83076C23.4238 8.48158 22.8496 9.92016 21.6824 11.0757C20.7101 12.0332 19.6615 12.914 18.6293 13.8126C18.2676 14.1274 17.8707 14.0873 17.6229 13.7689C17.3752 13.4506 17.4515 13.0945 17.8202 12.7702C18.7467 11.9542 19.7061 11.1736 20.5844 10.3081C22.1755 8.74099 22.5995 6.82841 21.8385 4.74837C21.1023 2.73672 19.5851 1.56462 17.448 1.3736C15.2368 1.17432 13.5553 2.11765 12.4174 4.03025C12.0217 4.69648 11.4721 4.70119 11.0811 4.03025C9.91625 2.04454 7.88007 1.04578 5.69947 1.39246C4.64034 1.56058 3.6593 2.05472 2.89178 2.80664C2.12426 3.55857 1.60811 4.5312 1.41458 5.59028C1.08579 7.27294 1.48621 8.84712 2.67456 10.0487C4.01322 11.4035 5.4834 12.637 6.96884 13.8303C8.41084 14.9894 9.95147 16.0235 11.431 17.1319C11.687 17.3229 11.8456 17.284 12.0781 17.1095C13.2054 16.2628 14.3373 15.4209 15.4916 14.612C15.7007 14.4658 16.0565 14.3762 16.2866 14.4505C16.7962 14.6097 16.8127 15.2535 16.3336 15.6131C15.2521 16.4244 14.16 17.2203 13.0703 18.021C12.7744 18.2379 12.4726 18.4478 12.1732 18.6589C12.0513 18.7566 11.8999 18.8098 11.744 18.8098C11.588 18.8098 11.4367 18.7566 11.3148 18.6589C8.22883 16.4834 5.13464 14.3161 2.381 11.7101C0.737031 10.1513 -0.149535 8.27878 0.0207334 5.95937C0.267329 2.60584 3.32158 -0.127479 6.67528 0.0093031C8.62925 0.089486 10.2439 0.863023 11.5226 2.34641C11.5896 2.41834 11.6565 2.49027 11.7481 2.58578Z" fill="#6A5F4B"/>
</svg>
