<svg width="35" height="29" viewBox="0 0 35 29" fill="none" xmlns="http://www.w3.org/2000/svg">
<path d="M17.7111 10.0314C20.3243 9.97278 22.5216 7.69488 22.463 5.10053C22.3927 2.24013 20.2482 0.152105 17.4298 0.206609C16.7794 0.210126 16.1349 0.344915 15.5373 0.602178C14.9396 0.859441 14.4005 1.23509 13.9493 1.70567C13.4982 2.17566 13.1466 2.73239 12.9122 3.34128C12.6837 3.95074 12.5724 4.60006 12.5958 5.25114C12.6779 7.97969 14.9396 10.0941 17.7111 10.0314Z" fill="#F6BC54"/>
<path d="M0.955383 10.751L0.954468 10.7544C0.923279 10.8613 0.892029 10.9683 0.859375 11.0749V12.5393C0.900391 12.6167 0.929688 12.6976 0.953125 12.7802C1.50977 15.7848 4.24609 17.1239 6.68945 16.6732C9.39648 16.1768 11.0957 13.6006 10.5918 10.8768C10.1934 8.7372 8.35352 7.1092 6.11523 6.91406C5.07812 6.83319 4.03516 7.0887 3.15039 7.64249C2.26562 8.19629 1.58008 9.01908 1.19922 9.99071C1.10443 10.2392 1.02997 10.4949 0.955383 10.751Z" fill="#F6BC54"/>
<path d="M13.149 28.4499C13.2712 28.4803 13.3937 28.5107 13.5156 28.5434H21.6719C21.7481 28.5036 21.8243 28.4708 21.9063 28.4462C24.1622 27.9803 25.6328 26.6119 26.3184 24.4512C26.9922 22.3145 26.5294 20.3789 24.9708 18.7538C23.8399 17.5695 22.6797 16.415 21.502 15.2752C19.3691 13.2082 15.8008 13.1567 13.668 15.1808C12.4141 16.3675 11.1895 17.5876 10.0117 18.8429C7.16412 21.8727 8.39459 26.8381 12.3145 28.2129C12.5846 28.3095 12.866 28.3795 13.149 28.4499Z" fill="#F6BC54"/>
<path d="M29.2949 16.7302C26.4883 16.7302 24.3848 14.6118 24.3848 11.7859C24.3848 9.12184 26.6055 6.91134 29.2891 6.90431C31.9785 6.89728 34.246 9.13591 34.2343 11.8111C34.2167 14.6299 32.1016 16.7332 29.2949 16.7302Z" fill="#F6BC54"/>
</svg>
