<svg width="25" height="24" viewBox="0 0 25 24" fill="none" xmlns="http://www.w3.org/2000/svg">
<path d="M0 3.1305C0 2.30024 0.329241 1.50399 0.915292 0.916903C1.50134 0.32982 2.2962 0 3.125 0L21.875 0C22.7038 0 23.4987 0.32982 24.0847 0.916903C24.6708 1.50399 25 2.30024 25 3.1305V15.6525C25 16.4828 24.6708 17.279 24.0847 17.8661C23.4987 18.4532 22.7038 18.783 21.875 18.783H17.9688C17.7262 18.783 17.4869 18.8396 17.27 18.9483C17.053 19.0569 16.8643 19.2147 16.7188 19.4091L13.75 23.3739C13.6045 23.5683 13.4157 23.7261 13.1988 23.8348C12.9818 23.9434 12.7426 24 12.5 24C12.2574 24 12.0182 23.9434 11.8012 23.8348C11.5843 23.7261 11.3955 23.5683 11.25 23.3739L8.28125 19.4091C8.13571 19.2147 7.94698 19.0569 7.73002 18.9483C7.51306 18.8396 7.27382 18.783 7.03125 18.783H3.125C2.2962 18.783 1.50134 18.4532 0.915292 17.8661C0.329241 17.279 0 16.4828 0 15.6525L0 3.1305Z" fill="#6A5F4B"/>
<line x1="4.5" y1="5.5" x2="19.5" y2="5.5" stroke="white" stroke-linecap="round"/>
<line x1="4.5" y1="9.5" x2="17.5" y2="9.5" stroke="white" stroke-linecap="round"/>
<line x1="4.5" y1="13.5" x2="20.5" y2="13.5" stroke="white" stroke-linecap="round"/>
</svg>
