<svg width="51" height="43" viewBox="0 0 51 43" fill="none" xmlns="http://www.w3.org/2000/svg">
<path d="M17.5489 42.027L17.5479 42.0266C11.9437 40.0588 10.1845 32.9546 14.2502 28.6232C16.0354 26.7262 17.8868 24.8811 19.7793 23.0857C22.818 20.2039 27.9327 20.2713 30.979 23.2258L30.9791 23.2259C32.7606 24.9525 34.5229 26.7 36.2332 28.4905L36.2335 28.4908C38.4693 30.8269 39.1285 33.5748 38.1582 36.6396L38.1582 36.6397C37.1746 39.7491 35.0808 41.6927 31.8397 42.3622L31.8163 42.367L31.7936 42.374C31.6823 42.4083 31.5737 42.4504 31.4686 42.5H19.2726C19.0826 42.4493 18.8998 42.4038 18.7218 42.3594C18.3145 42.2579 17.9326 42.1627 17.5489 42.027Z" stroke="#F6BC54"/>
<path d="M25.5652 14.4095L25.565 14.4095C21.6273 14.4987 18.4298 11.4995 18.3154 7.64171L18.3154 7.64171L18.3153 7.63803C18.2811 6.71673 18.4325 5.79796 18.7603 4.93628C19.0881 4.07461 19.5857 3.2876 20.2236 2.62195C20.8615 1.9563 21.6266 1.42559 22.4735 1.06135C23.3204 0.697104 24.2319 0.506752 25.1538 0.501568L25.1538 0.501615L25.1606 0.501483C29.1508 0.424407 32.1853 3.36663 32.2828 7.43952C32.3652 11.0962 29.2586 14.3267 25.5652 14.4095Z" stroke="#F6BC54"/>
<path d="M43.7546 24.4095L43.7545 24.4095C39.8167 24.4987 36.6192 21.4995 36.5048 17.6417L36.5048 17.6417L36.5047 17.638C36.4706 16.7167 36.6219 15.798 36.9498 14.9363C37.2776 14.0746 37.7752 13.2876 38.4131 12.6219C39.0509 11.9563 39.816 11.4256 40.6629 11.0613C41.5098 10.6971 42.4213 10.5068 43.3432 10.5016L43.3432 10.5016L43.3501 10.5015C47.3402 10.4244 50.3747 13.3666 50.4722 17.4395C50.5546 21.0962 47.4481 24.3267 43.7546 24.4095Z" stroke="#F6BC54"/>
<path d="M7.75461 24.4095L7.75449 24.4095C3.81674 24.4987 0.619228 21.4995 0.504835 17.6417L0.504849 17.6417L0.504712 17.638C0.470601 16.7167 0.62195 15.798 0.94977 14.9363C1.27759 14.0746 1.7752 13.2876 2.41306 12.6219C3.05091 11.9563 3.81602 11.4256 4.66293 11.0613C5.50985 10.6971 6.42132 10.5068 7.34323 10.5016L7.34323 10.5016L7.35008 10.5015C11.3402 10.4244 14.3747 13.3666 14.4722 17.4395C14.5546 21.0962 11.4481 24.3267 7.75461 24.4095Z" stroke="#F6BC54"/>
</svg>
